<svg xmlns="http://www.w3.org/2000/svg" width="344.722" height="71.4" viewBox="0 0 344.722 71.4">
  <path id="cta_big_yellow" d="M344.4,21.2a35.652,35.652,0,0,0-2.6-9c-1.2-2.8-16-8.2-16-8.2l-1-.1L297.1,0c-21.6.7-30.3,2.3-27.9,2.8h-.6c-6.9-.5-13.8-.9-20.8-.8l-1.9.1h-.1c-10.7-.9-21-1.8-34.8,1.1l-.8.2c-11,.2-21.9.3-32.9.2a.764.764,0,0,1,.2.5c-5.6-.1-11.2-.3-17-.4a29.137,29.137,0,0,0-7.8.8,34.446,34.446,0,0,1-7.8.8c-19-.9-37.7-1.4-56.3-1.6q-13.95-.15-27.9,0l-7,.1H49.4a60.152,60.152,0,0,0-12,1c-4.3,0-8.7,0-13.2.1-4.3.5-8.5.3-11.5,1.7a64.224,64.224,0,0,0-6.1,5.6c2.6,0,3.8.6,4,1.2s-.4,1.2-1.2,1.2H6.8a1.952,1.952,0,0,0-.7.1h0v.1a4.331,4.331,0,0,1,.1.5c.1.3.1.6.2.9a5.7,5.7,0,0,1,.1,1.3l.1.1h.2l.7.1a30.341,30.341,0,0,1,4.2.6c-.7.7-1.3,1.4-2,2.1H8.9c.1.1.3.2.4.3A37.833,37.833,0,0,0,2.7,31.6,36.091,36.091,0,0,0,.4,50.3a35.653,35.653,0,0,0,2.6,9c1.2,2.8,16,8.2,16,8.2l1,.1,27.9,3.8c21.6-.7,30.3-2.3,27.9-2.8h.6c6.9.5,13.8.9,20.8.8l1.9-.1h.1c10.7.9,21,1.8,34.8-1.1l.8-.2c11-.2,21.9-.3,32.9-.2a.764.764,0,0,1-.2-.5c5.6.1,11.2.3,17,.4a29.137,29.137,0,0,0,7.8-.8,34.446,34.446,0,0,1,7.8-.8c19,.9,37.7,1.4,56.3,1.6q13.95.15,27.9,0l7-.1h4.3a60.152,60.152,0,0,0,12-1c4.3,0,8.7,0,13.2-.1,4.3-.6,8.5-.3,11.5-1.7a64.223,64.223,0,0,0,6.1-5.6c-2.6,0-3.8-.6-4-1.2s.4-1.2,1.2-1.2c0,0,2.1-2,2.1-3h-.1a30.342,30.342,0,0,1-4.2-.6c.7-.7,1.3-1.4,2-2.1h.7c-.1-.1-.3-.2-.4-.3a37.834,37.834,0,0,0,6.6-10.9A38.487,38.487,0,0,0,344.4,21.2Z" transform="translate(-0.041)" fill="#f4ca79"/>
</svg>
