<?xml version="1.0" encoding="utf-8"?>
<!-- Generator: Adobe Illustrator 24.2.1, SVG Export Plug-In . SVG Version: 6.00 Build 0)  -->
<svg version="1.1" id="Layer_1" xmlns="http://www.w3.org/2000/svg" xmlns:xlink="http://www.w3.org/1999/xlink" x="0px" y="0px"
	 viewBox="0 0 273.2 71.3" style="enable-background:new 0 0 273.2 71.3;" xml:space="preserve">
<style type="text/css">
	.st0{fill:#FFFFFF;}
	.st1{fill:#31506C;}
</style>
<path class="st0" d="M270.9,12.2c-1-2.8-12.7-8.2-12.7-8.2l-0.8-0.1l-22-3.9c-17.1,0.7-24,2.3-22.1,2.8h-0.5
	c-5.5-0.6-11-0.8-16.5-0.8l-1.5,0.1h-0.1c-8.5-0.9-16.7-1.8-27.5,1.1l-0.7,0.2c-8.7,0.2-17.3,0.3-26,0.2c0.1,0.1,0.2,0.3,0.1,0.5
	c-4.4-0.1-8.9-0.3-13.4-0.4c-2.1-0.1-4.2,0.2-6.2,0.8s-4.1,0.8-6.2,0.8c-15.1-1-29.9-1.5-44.6-1.7c-7.4-0.1-14.7-0.1-22.1,0
	l-5.5,0.1h-1.4h-0.7h-0.3h-1c-3.2-0.1-6.4,0.3-9.5,1c-3.4,0-6.9,0-10.4,0.1c-3.4,0.5-6.7,0.3-9.1,1.7c-1.7,1.8-3.3,3.6-4.8,5.6
	c2.1,0,3,0.6,3.2,1.2c0,0.1,0,0.2,0,0.3c0,0.5-0.5,0.9-1,0.9h-2c-0.2,0-0.4,0-0.5,0.1c-0.1-0.5-0.3-0.9-0.5-1.3
	c0,0.1,0.1,0.2,0.1,0.3c0,0,0-0.1-0.1-0.1l0.1,0.2c0,0.1,0.1,0.2,0.1,0.3c0.1,0.2,0.1,0.4,0.2,0.6l0,0l0,0l0,0l0,0
	c0,0.2,0.1,0.4,0.1,0.6C5,15.4,5,15.7,5,16.1c0.1,0.5,0.1,0.9,0,1.4v-0.1v0.1h0.3l0.5,0.1c1.1,0.1,2.2,0.3,3.3,0.6
	c-0.5,0.7-1.1,1.4-1.6,2.1H7.1c0.1,0.1,0.2,0.2,0.3,0.3c-2.3,3.4-4,7-5.3,10.9c-1.9,6-2.5,12.4-1.8,18.7c0.4,3.1,1,6.1,2,9
	C3.3,62,15,67.4,15,67.4l0.8,0.1l22.1,3.8C55,70.6,61.9,69,60,68.5h0.5c5.5,0.6,11,0.8,16.5,0.8l1.5-0.1h0.1C87,70.1,95.2,71,106,68
	l0.7-0.2c8.7-0.2,17.3-0.3,26-0.2c-0.1-0.1-0.2-0.3-0.1-0.5c4.4,0.1,8.9,0.3,13.4,0.4c2.1,0,4.2-0.2,6.2-0.8c2-0.6,4.1-0.8,6.2-0.8
	c15.1,0.9,29.9,1.4,44.6,1.6c7.4,0.1,14.7,0.1,22.1,0l5.5-0.1h1.4h0.7h0.3h1c3.2,0.1,6.4-0.3,9.5-1c3.4,0,6.9,0,10.4-0.1
	c3.4-0.6,6.7-0.3,9.1-1.7c1.7-1.8,3.3-3.6,4.8-5.6c-2.1,0-3-0.6-3.2-1.2c0-0.1,0-0.2,0-0.3c0-0.5,0.5-0.9,1-0.9l2,0.1
	c0.2,0,0.4,0,0.5-0.1c0.1,0.5,0.3,0.9,0.5,1.3c0-0.1-0.1-0.2-0.1-0.3c0,0,0,0.1,0.1,0.1l-0.1-0.2c0-0.1-0.1-0.2-0.1-0.3
	c-0.1-0.2-0.1-0.4-0.2-0.6l0,0l0,0l0,0c0-0.2-0.1-0.4-0.1-0.6c-0.1-0.3-0.1-0.6-0.1-0.9c-0.1-0.5-0.1-0.9,0-1.4l0,0h-0.3l-0.5-0.1
	c-1.1-0.1-2.2-0.3-3.3-0.6c0.5-0.7,1.1-1.4,1.6-2.1h0.5c-0.1-0.1-0.2-0.2-0.3-0.3c2.3-3.4,4-7,5.3-10.9c1.9-6,2.5-12.4,1.8-18.7
	C272.5,18.1,271.9,15.1,270.9,12.2z"/>
<path class="st1" d="M268.5,57c0-0.1,0-0.2-0.1-0.2C268.4,56.9,268.4,57,268.5,57L268.5,57z"/>
<path class="st1" d="M5.1,17.5L5.1,17.5L5.1,17.5z"/>
<path class="st1" d="M15.7,68.7C15.7,68.6,15.7,68.6,15.7,68.7z"/>
<path class="st1" d="M268.4,56.8L268.4,56.8L268.4,56.8L268.4,56.8L268.4,56.8z"/>
<path class="st1" d="M268.1,53.9L268.1,53.9L268.1,53.9L268.1,53.9L268.1,53.9L268.1,53.9v-0.2V53.9L268.1,53.9L268.1,53.9
	L268.1,53.9z"/>
<path class="st1" d="M268.1,53.7L268.1,53.7L268.1,53.7z"/>
<path class="st1" d="M268.1,53.6L268.1,53.6C268.1,53.7,268.1,53.7,268.1,53.6C268.1,53.7,268.1,53.6,268.1,53.6L268.1,53.6z"/>
<path class="st1" d="M268.1,53.6L268.1,53.6L268.1,53.6L268.1,53.6z"/>
<path class="st1" d="M268.1,53.5L268.1,53.5L268.1,53.5z"/>
<path class="st1" d="M5.1,17.7L5.1,17.7L5.1,17.7z"/>
<path class="st1" d="M5.1,17.7L5.1,17.7L5.1,17.7z"/>
<path class="st1" d="M5.1,17.6L5.1,17.6L5.1,17.6L5.1,17.6z"/>
<path class="st1" d="M5.1,17.6L5.1,17.6L5.1,17.6z"/>
<path class="st1" d="M5.1,17.5L5.1,17.5L5.1,17.5L5.1,17.5L5.1,17.5L5.1,17.5z"/>
<path class="st1" d="M5.1,17.5L5.1,17.5z"/>
<path class="st1" d="M5.1,17.3L5.1,17.3L5.1,17.3L5.1,17.3z"/>
<path class="st1" d="M4.8,14.5L4.8,14.5L4.8,14.5L4.8,14.5z"/>
<path class="st1" d="M257.4,2.6L257.4,2.6L257.4,2.6L257.4,2.6L257.4,2.6z"/>
</svg>
