<?xml version="1.0" encoding="utf-8"?>
<!-- Generator: Adobe Illustrator 24.2.1, SVG Export Plug-In . SVG Version: 6.00 Build 0)  -->
<svg version="1.1" id="Layer_1" xmlns="http://www.w3.org/2000/svg" xmlns:xlink="http://www.w3.org/1999/xlink" x="0px" y="0px"
	 viewBox="0 0 344.8 71.3" style="enable-background:new 0 0 344.8 71.3;" xml:space="preserve">
<style type="text/css">
	.st0{fill:#FFFFFF;}
</style>
<path class="st0" d="M344.4,21.2c-0.5-3.1-1.3-6.1-2.6-9c-1.2-2.8-16-8.2-16-8.2l-1-0.1L297.1,0c-21.6,0.7-30.3,2.3-27.9,2.8h-0.6
	c-6.9-0.5-13.8-0.9-20.8-0.8l-1.9,0.1h-0.1c-10.7-0.9-21-1.8-34.8,1.1l-0.8,0.2c-11,0.2-21.9,0.3-32.9,0.2c0.1,0.1,0.2,0.3,0.2,0.5
	c-5.6-0.1-11.2-0.3-17-0.4c-2.6-0.1-5.3,0.2-7.8,0.8c-2.6,0.6-5.2,0.8-7.8,0.8c-19-0.9-37.7-1.4-56.3-1.6c-9.3-0.1-18.6-0.1-27.9,0
	l-7,0.1H52h-0.9h-0.4h-1.3c-4-0.1-8.1,0.3-12,1c-4.3,0-8.7,0-13.2,0.1c-4.3,0.5-8.5,0.3-11.5,1.7c-2.1,1.7-4.2,3.6-6.1,5.6
	c2.6,0,3.8,0.6,4,1.2s-0.4,1.2-1.2,1.2H6.8c-0.2,0-0.4,0-0.7,0.1l0,0c0,0,0,0,0,0.1s0.1,0.3,0.1,0.5c0.1,0.3,0.1,0.6,0.2,0.9
	c0.1,0.4,0.1,0.9,0.1,1.3l0.1,0.1h0.2l0.7,0.1c1.4,0.1,2.8,0.3,4.2,0.6c-0.7,0.7-1.3,1.4-2,2.1H8.9c0.1,0.1,0.3,0.2,0.4,0.3
	c-2.8,3.2-5,6.9-6.6,10.9c-2.4,5.9-3.2,12.3-2.3,18.7c0.5,3.1,1.3,6.1,2.6,9c1.2,2.8,16,8.2,16,8.2l1,0.1l27.9,3.8
	c21.6-0.7,30.3-2.3,27.9-2.8h0.6c6.9,0.5,13.8,0.9,20.8,0.8l1.9-0.1h0.1c10.7,0.9,21,1.8,34.8-1.1l0.8-0.2c11-0.2,21.9-0.3,32.9-0.2
	c-0.1-0.1-0.2-0.3-0.2-0.5c5.6,0.1,11.2,0.3,17,0.4c2.6,0.1,5.3-0.2,7.8-0.8c2.6-0.6,5.2-0.8,7.8-0.8c19,0.9,37.7,1.4,56.3,1.6
	c9.3,0.1,18.6,0.1,27.9,0l7-0.1h1.7h0.9h0.4h1.3c4,0.1,8.1-0.3,12-1c4.3,0,8.7,0,13.2-0.1c4.3-0.6,8.5-0.3,11.5-1.7
	c2.1-1.7,4.2-3.6,6.1-5.6c-2.6,0-3.8-0.6-4-1.2s0.4-1.2,1.2-1.2c0,0,2.1-2,2.1-3h-0.1c-1.4-0.1-2.8-0.3-4.2-0.6
	c0.7-0.7,1.3-1.4,2-2.1h0.7c-0.1-0.1-0.3-0.2-0.4-0.3c2.8-3.2,5-6.9,6.6-10.9C344.5,33.9,345.3,27.5,344.4,21.2z"/>
</svg>
