<svg xmlns="http://www.w3.org/2000/svg" width="273.065" height="71.3" viewBox="0 0 273.065 71.3">
  <path id="Path_4439" data-name="Path 4439" d="M270.9,12.2c-1-2.8-12.7-8.2-12.7-8.2l-.8-.1L235.4,0c-17.1.7-24,2.3-22.1,2.8h-.5A151.9,151.9,0,0,0,196.3,2l-1.5.1h-.1c-8.5-.9-16.7-1.8-27.5,1.1l-.7.2c-8.7.2-17.3.3-26,.2a.44.44,0,0,1,.1.5c-4.4-.1-8.9-.3-13.4-.4a18.557,18.557,0,0,0-6.2.8,21.544,21.544,0,0,1-6.2.8c-15.1-1-29.9-1.5-44.6-1.7-7.4-.1-14.7-.1-22.1,0l-5.5.1H39.2a37.885,37.885,0,0,0-9.5,1c-3.4,0-6.9,0-10.4.1-3.4.5-6.7.3-9.1,1.7a64.353,64.353,0,0,0-4.8,5.6c2.1,0,3,.6,3.2,1.2v.3a.987.987,0,0,1-1,.9h-2a.749.749,0,0,0-.5.1,5.023,5.023,0,0,0-.5-1.3c0,.1.1.2.1.3a.1.1,0,0,0-.1-.1l.1.2c0,.1.1.2.1.3.1.2.1.4.2.6H5c0,.2.1.4.1.6a2.22,2.22,0,0,0-.1.9,3.3,3.3,0,0,1,0,1.4v0h.3l.5.1a19.093,19.093,0,0,1,3.3.6c-.5.7-1.1,1.4-1.6,2.1H7.1l.3.3A44.009,44.009,0,0,0,2.1,31.5a44.756,44.756,0,0,0,.2,27.7C3.3,62,15,67.4,15,67.4l.8.1,22.1,3.8C55,70.6,61.9,69,60,68.5h.5a151.9,151.9,0,0,0,16.5.8l1.5-.1h.1C87,70.1,95.2,71,106,68l.7-.2c8.7-.2,17.3-.3,26-.2a.44.44,0,0,1-.1-.5c4.4.1,8.9.3,13.4.4a21.544,21.544,0,0,0,6.2-.8,21.544,21.544,0,0,1,6.2-.8c15.1.9,29.9,1.4,44.6,1.6,7.4.1,14.7.1,22.1,0l5.5-.1H234a37.886,37.886,0,0,0,9.5-1c3.4,0,6.9,0,10.4-.1,3.4-.6,6.7-.3,9.1-1.7a64.351,64.351,0,0,0,4.8-5.6c-2.1,0-3-.6-3.2-1.2v-.3a.987.987,0,0,1,1-.9l2,.1a.749.749,0,0,0,.5-.1,5.023,5.023,0,0,0,.5,1.3c0-.1-.1-.2-.1-.3a.1.1,0,0,0,.1.1l-.1-.2c0-.1-.1-.2-.1-.3-.1-.2-.1-.4-.2-.6h0c0-.2-.1-.4-.1-.6a2.768,2.768,0,0,1-.1-.9,3.3,3.3,0,0,1,0-1.4h-.3l-.5-.1a19.092,19.092,0,0,1-3.3-.6c.5-.7,1.1-1.4,1.6-2.1h.5l-.3-.3A44.009,44.009,0,0,0,271,39.7,45.448,45.448,0,0,0,272.8,21,39.6,39.6,0,0,0,270.9,12.2Z" transform="translate(-0.017)" fill="#f4ca79"/>
</svg>
