<svg xmlns="http://www.w3.org/2000/svg" width="214.043" height="85.054" viewBox="0 0 214.043 85.054">
  <g id="Group_285" data-name="Group 285" transform="matrix(0.998, -0.07, 0.07, 0.998, -952.947, 68.127)">
    <g id="Group_408" data-name="Group 408">
      <g id="Group_169" data-name="Group 169" transform="translate(967.494 0)">
        <path id="Path_3701" data-name="Path 3701" d="M1180,1815.259c-.283.089.015.26.015.26Z" transform="translate(-985.145 -1779.16)" fill="#fff"/>
        <path id="Path_3702" data-name="Path 3702" d="M1182.612,1819.649l-.654-.031C1182.533,1819.882,1182.574,1819.811,1182.612,1819.649Z" transform="translate(-984.421 -1767.244)" fill="#fff"/>
        <path id="Path_3706" data-name="Path 3706" d="M1155.166,1824.711l-.3,0-.873.186Z" transform="translate(-1025.952 -1753.254)" fill="#fff"/>
        <path id="Path_3707" data-name="Path 3707" d="M119.486,61.336c8.523.013,17.215.437,25.917.865,9.72-1.617-.742-2.211,9.14-3.316a35.991,35.991,0,0,0,9.155-5.255c1-1.885,17.034-3.554,17.965-3.594l1.395-.049c.263-.048.314-.088.349-.12.046.3.089.3.037.1.033.129.033.133,0-.012-.047-.181-.227-1.15-.262-1.489a10.218,10.218,0,0,1-.128-1.609v.116c0,.037,0,.079,0,.116l0,0v0h0c0,.057.007.11.011.166,0-.049-.014-.125-.013-.166l-.177-.013-.364-.026c-4.868-.246-2.959-2.453-1.284-2.539l1.253-.09.311-.025.2-.016c.028.982-.048-2.2.065,2.2h0c-5.037-7.88-14.1-10.053-17.238-9.883a10.308,10.308,0,0,1,3.948-4.075l-.011-.079h.146c.417-.239.853-.471,1.339-.7v-.026c-9.013-5.859-.719-8.659,2.353-16.863a5.339,5.339,0,0,0-2.772-.056l-.058-2.209c-6.91-1.586-11.57-4.608-17.775-8.391-1.547-.764-1.624-3.707-3.915-3.749-6.105-.1-12.243-.94-18.335-.308A339.165,339.165,0,0,1,92.86,4.39a.925.925,0,0,1,.124.493c-3.029.083-6.069.169-9.159.258-3.055-.05-5.29,2.122-8.35,2.072-10.307-.175-20.4.048-30.433.591q-7.523.409-15.019,1.046l-3.755.332-.939.085-.468.046-.235.019-.7.036a18.865,18.865,0,0,0-11.812,4.9,29.244,29.244,0,0,0-3.484,3.717,34.473,34.473,0,0,0-3.3,5.185A47.948,47.948,0,0,0,.664,38.027,61.5,61.5,0,0,0,.691,56.239a60.678,60.678,0,0,0,1.987,8.64c.838,2.631,9.175,7.386,9.175,7.386L27.643,75c11.584-1.532,16.144-3.417,14.821-3.753C54.041,69.02,61.726,74.3,73.8,68.611c13.727-5.785,29.14-7.282,45.165-7.279C121.3,60.583,124.091,60.277,119.486,61.336Z" transform="translate(182.1 96.804) rotate(-173)" fill="#fff"/>
        <path id="Path_3708" data-name="Path 3708" d="M1182.021,1821c0-.019-.012-.032-.015-.05-.007-.069-.026-.178-.042-.286A2.88,2.88,0,0,0,1182.021,1821Z" transform="translate(-984.419 -1764.23)" fill="#fff"/>
        <path id="Path_3709" data-name="Path 3709" d="M1115.072,1817.107Z" transform="translate(-1096.059 -1774.228)" fill="#fff"/>
        <path id="Path_3710" data-name="Path 3710" d="M1114.656,1822.226l-.008.006,0,0Z" transform="translate(-1096.209 -1760.258)" fill="#fff"/>
        <path id="Path_3711" data-name="Path 3711" d="M1114.677,1822.264a.258.258,0,0,0-.059-.02h.007c-.007,0-.008,0-.005,0h0l.018,0h0l.035.013.005,0h0l0,0,.007,0h0l.012.007-.011-.007a.516.516,0,0,1,.082.055l-.022-.016.028.02.005,0,.012.012-.012-.01.024.023A.681.681,0,0,0,1114.677,1822.264Z" transform="translate(-1096.218 -1760.101)" fill="#fff"/>
        <path id="Path_3712" data-name="Path 3712" d="M1114.744,1822.181l.011-.008-.007.007-.008.007,0-.005c-.013.012-.023.019-.035.028l0,0a1.191,1.191,0,0,0,.088-.092C1114.778,1822.138,1114.756,1822.17,1114.744,1822.181Z" transform="translate(-1096.187 -1760.464)" fill="#fff"/>
        <path id="Path_3713" data-name="Path 3713" d="M1114.787,1822.131l-.012.015c.008-.01.016-.024.024-.035l.018-.025-.032.038c.013-.016.031-.042.046-.062l-.014.024.027-.035a.705.705,0,0,1-.045.061Z" transform="translate(-1096.163 -1760.651)" fill="#fff"/>
        <path id="Path_3714" data-name="Path 3714" d="M1114.8,1822.376l.013.016a1.1,1.1,0,0,1,.086.115c.012.019.024.044.038.066A1.176,1.176,0,0,0,1114.8,1822.376Z" transform="translate(-1096.153 -1759.656)" fill="#fff"/>
        <path id="Path_3715" data-name="Path 3715" d="M1114.909,1821.966l.008-.015-.02.04.012-.025c-.008.015-.016.021-.023.036a1.458,1.458,0,0,0,.089-.212c-.012.032-.021.075-.034.105.012-.028.027-.054.039-.085-.008.021-.014.042-.023.063s-.017.031-.026.05l.009-.028C1114.931,1821.92,1114.92,1821.944,1114.909,1821.966Z" transform="translate(-1096.124 -1761.25)" fill="#fff"/>
        <path id="Path_3716" data-name="Path 3716" d="M1114.933,1822.574c.008.015.016.027.023.042a1.877,1.877,0,0,1,.073.181c-.016-.046-.031-.1-.049-.137l0,.008.031.089.013.042.011.026.016.046,0,.012c-.009-.028-.02-.054-.03-.081.015.039.028.081.041.125l.005.02A2.389,2.389,0,0,0,1114.933,1822.574Z" transform="translate(-1096.108 -1758.93)" fill="#fff"/>
        <path id="Path_3717" data-name="Path 3717" d="M1115.114,1823.2a2.427,2.427,0,0,0-.057-.284l0,.012c.008.034.016.066.023.1l-.007-.038c0,.016.008.028.012.043l.009.058v.005l0,.018c0,.027.011.058.015.089s.005.036.009.058c.008.057.02.105.027.167v0h0c0,.008,0,.015,0,.023v.041l0-.017c0,.027,0,.054,0,.081A2.937,2.937,0,0,0,1115.114,1823.2Z" transform="translate(-1096.064 -1757.696)" fill="#fff"/>
        <path id="Path_3718" data-name="Path 3718" d="M1115.078,1818.022h0c0,.628.011,1.392.016,2.128Z" transform="translate(-1096.057 -1770.157)" fill="#fff"/>
        <path id="Path_3719" data-name="Path 3719" d="M1115.1,1820.969c0,.015,0,.025,0,.039C1115.1,1820.974,1115.1,1820.948,1115.1,1820.969Z" transform="translate(-1096.05 -1763.677)" fill="#fff"/>
        <path id="Path_3720" data-name="Path 3720" d="M1115.1,1820.811h0v0Z" transform="translate(-1096.049 -1764.125)" fill="#fff"/>
        <path id="Path_3721" data-name="Path 3721" d="M1115.1,1820.84v.013l0,.062v.041c0,.02,0,.034,0,.052v-.069c0-.028,0-.053,0-.081Z" transform="translate(-1096.049 -1763.898)" fill="#fff"/>
        <path id="Path_3722" data-name="Path 3722" d="M1115.1,1821.013l0,.037v-.013Z" transform="translate(-1096.049 -1763.545)" fill="#fff"/>
        <path id="Path_3723" data-name="Path 3723" d="M1115.1,1821.033v.015c0,.031,0,.061,0,.09s0,.043-.007.065v-.043C1115.1,1821.117,1115.1,1821.075,1115.1,1821.033Z" transform="translate(-1096.052 -1763.367)" fill="#fff"/>
        <path id="Path_3724" data-name="Path 3724" d="M1115.143,1823.615h0v0h0v.041c0-.027,0-.054,0-.08a.221.221,0,0,0,0,.03h0Z" transform="translate(-1096.036 -1756.481)" fill="#fff"/>
        <path id="Path_3725" data-name="Path 3725" d="M1115.144,1823.518v0Z" transform="translate(-1096.035 -1756.786)" fill="#fff"/>
        <path id="Path_3726" data-name="Path 3726" d="M1115.168,1827.241l-.015-1.88,0,.361c.005.677.009,1.167.012,1.519Z" transform="translate(-1096.031 -1749.265)" fill="#fff"/>
        <path id="Path_3727" data-name="Path 3727" d="M1115.167,1826.769c0-.065,0-.08,0,0Z" transform="translate(-1096.026 -1747.936)" fill="#fff"/>
        <path id="Path_3728" data-name="Path 3728" d="M1115.149,1823.449v-.023c-.008-.066-.018-.129-.028-.194s-.015-.1-.024-.147l0-.023c0-.021-.011-.042-.015-.063.009.053.024.107.03.158C1115.12,1823.244,1115.138,1823.349,1115.149,1823.449Z" transform="translate(-1096.058 -1757.675)" fill="#fff"/>
        <path id="Path_3729" data-name="Path 3729" d="M1114.737,1822.309l-.006,0,.012.01Z" transform="translate(-1096.178 -1760.042)" fill="#fff"/>
        <path id="Path_3730" data-name="Path 3730" d="M1115.107,1820.922l0-.07v0l0,.085C1115.106,1820.934,1115.107,1820.928,1115.107,1820.922Z" transform="translate(-1096.049 -1763.938)" fill="#fff"/>
        <path id="Path_3731" data-name="Path 3731" d="M1115,1822.741h0v0Z" transform="translate(-1096.083 -1758.861)" fill="#fff"/>
        <path id="Path_3732" data-name="Path 3732" d="M1182.378,1821.643c.076.042.081.046,0,0Z" transform="translate(-984.276 -1761.833)" fill="#fff"/>
        <path id="Path_3733" data-name="Path 3733" d="M1181.946,1820.308v0Z" transform="translate(-984.426 -1765.533)" fill="#fff"/>
        <path id="Path_3734" data-name="Path 3734" d="M1181.944,1820.353l0-.043v.043Z" transform="translate(-984.426 -1765.461)" fill="#fff"/>
        <path id="Path_3735" data-name="Path 3735" d="M1181.944,1820.361v0Z" transform="translate(-984.426 -1765.394)" fill="#fff"/>
        <path id="Path_3736" data-name="Path 3736" d="M1182.379,1821.643h0c-.007,0-.016-.016-.024-.02S1182.372,1821.64,1182.379,1821.643Z" transform="translate(-984.282 -1761.89)" fill="#fff"/>
        <path id="Path_3737" data-name="Path 3737" d="M1181.947,1820.284h0v0Z" transform="translate(-984.425 -1765.566)" fill="#fff"/>
      </g>
      <g id="Group_170" data-name="Group 170" transform="translate(1150.849 96.804) rotate(-180)">
        <path id="Path_3701-2" data-name="Path 3701" d="M.122,0C-.161.089.137.26.137.26Z" transform="translate(194.736 36.1)" fill="#fff"/>
        <path id="Path_3702-2" data-name="Path 3702" d="M.654.031,0,0C.575.264.616.193.654.031Z" transform="translate(197.537 52.374)" fill="#fff"/>
        <path id="Path_3706-2" data-name="Path 3706" d="M1.174,0l-.3,0L0,.19Z" transform="translate(128.04 71.457)" fill="#fff"/>
        <path id="Path_3707-2" data-name="Path 3707" d="M119.486,61.336c8.523.013,17.215.437,25.917.865,9.72-1.617-.742-2.211,9.14-3.316a35.991,35.991,0,0,0,9.155-5.255c1-1.885,17.034-3.554,17.965-3.594l1.395-.049c.263-.048.314-.088.349-.12.046.3.089.3.037.1.033.129.033.133,0-.012-.047-.181-.227-1.15-.262-1.489a10.218,10.218,0,0,1-.128-1.609v.116c0,.037,0,.079,0,.116l0,0v0h0c0,.057.007.11.011.166,0-.049-.014-.125-.013-.166l-.177-.013-.364-.026c-4.868-.246-2.959-2.453-1.284-2.539l1.253-.09.311-.025.2-.016c.028.982-.048-2.2.065,2.2h0c-5.037-7.88-14.1-10.053-17.238-9.883a10.308,10.308,0,0,1,3.948-4.075l-.011-.079h.146c.417-.239.853-.471,1.339-.7v-.026c-9.013-5.859-.719-8.659,2.353-16.863a5.339,5.339,0,0,0-2.772-.056l-.058-2.209c-6.91-1.586-11.57-4.608-17.775-8.391-1.547-.764-1.624-3.707-3.915-3.749-6.105-.1-12.243-.94-18.335-.308A339.165,339.165,0,0,1,92.86,4.39a.925.925,0,0,1,.124.493c-3.029.083-6.069.169-9.159.258-3.055-.05-5.29,2.122-8.35,2.072-10.307-.175-20.4.048-30.433.591q-7.523.409-15.019,1.046l-3.755.332-.939.085-.468.046-.235.019-.7.036a18.865,18.865,0,0,0-11.812,4.9,29.244,29.244,0,0,0-3.484,3.717,34.473,34.473,0,0,0-3.3,5.185A47.948,47.948,0,0,0,.664,38.027,61.5,61.5,0,0,0,.691,56.239a60.678,60.678,0,0,0,1.987,8.64c.838,2.631,9.175,7.386,9.175,7.386L27.643,75c11.584-1.532,16.144-3.417,14.821-3.753C54.041,69.02,61.726,74.3,73.8,68.611c13.727-5.785,29.14-7.282,45.165-7.279C121.3,60.583,124.091,60.277,119.486,61.336Z" transform="translate(182.1 96.804) rotate(-173)" fill="#fff"/>
        <path id="Path_3708-2" data-name="Path 3708" d="M.057.336C.053.317.045.3.042.286.035.217.016.108,0,0A2.88,2.88,0,0,0,.057.336Z" transform="translate(197.545 56.434)" fill="#fff"/>
        <path id="Path_3709-2" data-name="Path 3709" d="M0,0Z" transform="translate(19.013 42.88)" fill="#fff"/>
        <path id="Path_3710-2" data-name="Path 3710" d="M.012,0,0,.006l0,0Z" transform="translate(18.435 61.967)" fill="#fff"/>
        <path id="Path_3711-2" data-name="Path 3711" d="M.059.021A.258.258,0,0,0,0,0H.007C0,0,0,0,0,0H0L.022,0h0L.054.018l.005,0h0l0,0,.007,0h0L.081.032.07.026A.516.516,0,0,1,.152.081L.131.065l.028.02.005,0L.177.1.165.092.189.115A.681.681,0,0,0,.059.021Z" transform="translate(18.4 62.143)" fill="#fff"/>
        <path id="Path_3712-2" data-name="Path 3712" d="M.039.061.05.053.043.059.035.066l0-.005C.026.073.016.08,0,.089l0,0A1.191,1.191,0,0,0,.088,0C.073.018.051.05.039.061Z" transform="translate(18.518 61.656)" fill="#fff"/>
        <path id="Path_3713-2" data-name="Path 3713" d="M.012.081,0,.1C.008.086.016.072.024.061L.042.035.01.073C.023.057.041.031.055.011L.042.035.069,0A.705.705,0,0,1,.024.061Z" transform="translate(18.612 61.399)" fill="#fff"/>
        <path id="Path_3714-2" data-name="Path 3714" d="M0,0,.014.016A1.1,1.1,0,0,1,.1.131C.112.15.124.176.138.2A1.176,1.176,0,0,0,0,0Z" transform="translate(18.65 62.72)" fill="#fff"/>
        <path id="Path_3715-2" data-name="Path 3715" d="M.023.176.031.161.011.2.023.176C.015.19.007.2,0,.212A1.458,1.458,0,0,0,.089,0C.077.032.068.076.055.105.068.077.082.051.095.021.086.042.081.062.072.084S.054.115.046.134L.055.105C.045.13.034.154.023.176Z" transform="translate(18.762 60.54)" fill="#fff"/>
        <path id="Path_3716-2" data-name="Path 3716" d="M0,0C.008.015.016.027.023.042A1.909,1.909,0,0,1,.1.223C.079.177.065.127.047.085l0,.008L.082.182.1.224.107.25.123.3l0,.012C.117.279.107.254.1.227Q.119.285.138.352l.005.02A2.376,2.376,0,0,0,0,0Z" transform="translate(18.825 63.645)" fill="#fff"/>
        <path id="Path_3717-2" data-name="Path 3717" d="M.057.285A2.427,2.427,0,0,0,0,0L0,.012c.008.034.016.066.023.1L.02.074C.024.091.028.1.032.117L.042.176V.181L.046.2c0,.027.011.058.015.089S.066.324.07.345C.078.4.09.451.1.513v0h0C.1.525.1.531.1.54V.58L.1.563C.1.59.1.616.1.644A2.937,2.937,0,0,0,.057.285Z" transform="translate(18.993 65.219)" fill="#fff"/>
        <path id="Path_3718-2" data-name="Path 3718" d="M0,0H0c0,.628.011,1.392.016,2.128Z" transform="translate(19.021 47.865)" fill="#fff"/>
        <path id="Path_3719-2" data-name="Path 3719" d="M0,.008C0,.023,0,.033,0,.047,0,.013,0-.014,0,.008Z" transform="translate(19.049 57.285)" fill="#fff"/>
        <path id="Path_3720-2" data-name="Path 3720" d="M0,0H0V0Z" transform="translate(19.051 56.685)" fill="#fff"/>
        <path id="Path_3721-2" data-name="Path 3721" d="M0,0V.013l0,.062V.116c0,.02,0,.034,0,.052V.1C0,.072,0,.047,0,.019Z" transform="translate(19.052 56.942)" fill="#fff"/>
        <path id="Path_3722-2" data-name="Path 3722" d="M0,0,0,.037V.023Z" transform="translate(19.053 57.468)" fill="#fff"/>
        <path id="Path_3723-2" data-name="Path 3723" d="M.011,0V.015c0,.031,0,.061,0,.09S0,.148,0,.17V.127C0,.084.009.042.011,0Z" transform="translate(19.042 57.666)" fill="#fff"/>
        <path id="Path_3724-2" data-name="Path 3724" d="M0,.035H0v0H0V.08C0,.053,0,.026,0,0A.221.221,0,0,0,0,.03H0Z" transform="translate(19.104 67.099)" fill="#fff"/>
        <path id="Path_3725-2" data-name="Path 3725" d="M0,.03v0Z" transform="translate(19.108 66.702)" fill="#fff"/>
        <path id="Path_3726-2" data-name="Path 3726" d="M.015,1.88,0,0,0,.362C.01,1.039.014,1.528.016,1.88Z" transform="translate(19.122 76.096)" fill="#fff"/>
        <path id="Path_3727-2" data-name="Path 3727" d="M0,.054c0-.065,0-.08,0,0Z" transform="translate(19.141 78.779)" fill="#fff"/>
        <path id="Path_3728-2" data-name="Path 3728" d="M.072.451V.427C.063.362.054.3.043.233S.028.132.019.086l0-.023C.012.042,0,.022,0,0,.009.053.024.107.03.158.043.246.061.351.072.451Z" transform="translate(19.02 65.323)" fill="#fff"/>
        <path id="Path_3729-2" data-name="Path 3729" d="M.006,0,0,0,.012.01Z" transform="translate(18.553 62.263)" fill="#fff"/>
        <path id="Path_3730-2" data-name="Path 3730" d="M0,.07,0,0V0L0,.088C0,.082,0,.076,0,.07Z" transform="translate(19.055 56.914)" fill="#fff"/>
        <path id="Path_3731-2" data-name="Path 3731" d="M0,0H0V0Z" transform="translate(18.921 63.879)" fill="#fff"/>
        <path id="Path_3732-2" data-name="Path 3732" d="M0,0C.078.046.084.05,0,0Z" transform="translate(198.099 59.806)" fill="#fff"/>
        <path id="Path_3733-2" data-name="Path 3733" d="M0,.021v0Z" transform="translate(197.52 54.754)" fill="#fff"/>
        <path id="Path_3734-2" data-name="Path 3734" d="M0,.043,0,0V.043Z" transform="translate(197.518 54.849)" fill="#fff"/>
        <path id="Path_3735-2" data-name="Path 3735" d="M0,.019v0Z" transform="translate(197.517 54.948)" fill="#fff"/>
        <path id="Path_3736-2" data-name="Path 3736" d="M.022.019h0C.018.016.008,0,0,0S.015.016.022.019Z" transform="translate(198.075 59.734)" fill="#fff"/>
        <path id="Path_3737-2" data-name="Path 3737" d="M0,0H0V0Z" transform="translate(197.522 54.717)" fill="#fff"/>
      </g>
    </g>
  </g>
</svg>
