<svg xmlns="http://www.w3.org/2000/svg" width="74.676" height="33.431" viewBox="0 0 74.676 33.431">
  <g id="Group_177" data-name="Group 177" transform="matrix(0.998, -0.07, 0.07, 0.998, -951.414, 65.807)">
    <g id="Group_169" data-name="Group 169" transform="translate(957.827 0)">
      <path id="Path_3701" data-name="Path 3701" d="M1179.924,1815.259c-.1.037.005.107.005.107Z" transform="translate(-1112.036 -1800.343)" fill="#fff"/>
      <path id="Path_3702" data-name="Path 3702" d="M1182.186,1819.631l-.228-.013C1182.158,1819.727,1182.173,1819.7,1182.186,1819.631Z" transform="translate(-1113.136 -1797.977)" fill="#fff"/>
      <path id="Path_3706" data-name="Path 3706" d="M1154.4,1824.711l-.1,0-.3.077Z" transform="translate(-1109.383 -1795.185)" fill="#fff"/>
      <path id="Path_3707" data-name="Path 3707" d="M42.225,26.222c2.978.072,6.018.315,9.061.56,3.383-.591-.277-.917,3.167-1.3a11.58,11.58,0,0,0,3.157-2.095c.333-.769,5.923-1.332,6.248-1.341l.487-.009c.092-.018.109-.034.121-.047.019.123.034.126.014.039.013.053.013.055,0,0-.018-.075-.088-.476-.1-.616a5,5,0,0,1-.057-.664V20.8c0,.015,0,.033,0,.048h0c0,.023,0,.045.005.069,0-.02-.006-.052-.006-.069l-.062-.007-.127-.014c-1.7-.14-1.053-1.035-.469-1.057l.437-.027.108-.008.068-.005c.017.405-.034-.908.04.908h0a7.847,7.847,0,0,0-6.1-4.209,3.785,3.785,0,0,1,1.347-1.649l0-.033h.051c.144-.1.294-.187.462-.278v-.011c-3.195-2.486-.319-3.575.69-6.933a1.6,1.6,0,0,0-.969-.045l-.037-.911c-2.427-.708-4.078-1.99-6.276-3.6-.546-.327-.6-1.541-1.4-1.576a45.432,45.432,0,0,0-6.408-.271,99.675,99.675,0,0,1-13.2,1.417.448.448,0,0,1,.047.2c-1.058.01-2.119.022-3.2.035-1.068-.044-1.832.833-2.9.789-3.6-.153-7.127-.14-10.627.005q-2.625.11-5.239.314l-1.309.107-.327.028-.163.015-.082.006-.244.009A5.813,5.813,0,0,0,4.344,5.978,10.826,10.826,0,0,0,3.156,7.483,14.009,14.009,0,0,0,2.044,9.595,21.716,21.716,0,0,0,.53,15.682,29.9,29.9,0,0,0,.682,23.19a29.585,29.585,0,0,0,.762,3.578c.313,1.091,3.263,3.117,3.263,3.117l5.537,1.253c4.035-.541,5.613-1.282,5.148-1.431,4.027-.829,6.754,1.407,10.925-.843,4.75-2.277,10.123-2.774,15.722-2.647C42.852,25.926,43.825,25.821,42.225,26.222Z" transform="translate(63.444 40) rotate(-173)" fill="#fff"/>
      <path id="Path_3708" data-name="Path 3708" d="M1181.984,1820.8c0-.008,0-.013-.005-.021,0-.029-.009-.073-.015-.118A1.4,1.4,0,0,0,1181.984,1820.8Z" transform="translate(-1113.14 -1797.345)" fill="#fff"/>
      <path id="Path_3709" data-name="Path 3709" d="M1115.072,1817.107Z" transform="translate(-1108.448 -1799.389)" fill="#fff"/>
      <path id="Path_3710" data-name="Path 3710" d="M1114.648,1822.226l0,0h0Z" transform="translate(-1108.221 -1796.62)" fill="#fff"/>
      <path id="Path_3711" data-name="Path 3711" d="M1114.639,1822.253a.1.1,0,0,0-.021-.009h0l.006,0h0l.012.005h.005l0,0,0,0a.193.193,0,0,1,.028.023l-.007-.007.01.008,0,0,0,.005,0,0,.008.009A.243.243,0,0,0,1114.639,1822.253Z" transform="translate(-1108.207 -1796.566)" fill="#fff"/>
      <path id="Path_3712" data-name="Path 3712" d="M1114.719,1822.145l0,0,0,0,0,0v0l-.012.012h0a.48.48,0,0,0,.031-.038C1114.73,1822.127,1114.723,1822.141,1114.719,1822.145Z" transform="translate(-1108.254 -1796.643)" fill="#fff"/>
      <path id="Path_3713" data-name="Path 3713" d="M1114.779,1822.084l0,.006.009-.015.006-.01-.011.015c0-.007.011-.017.016-.026l0,.01.009-.015a.249.249,0,0,1-.016.025Z" transform="translate(-1108.291 -1796.68)" fill="#fff"/>
      <path id="Path_3714" data-name="Path 3714" d="M1114.8,1822.376l0,.007a.432.432,0,0,1,.03.047c0,.008.009.018.013.027A.486.486,0,0,0,1114.8,1822.376Z" transform="translate(-1108.305 -1796.46)" fill="#fff"/>
      <path id="Path_3715" data-name="Path 3715" d="M1114.894,1821.863l0-.006-.007.017,0-.01c0,.006-.005.009-.008.015a.666.666,0,0,0,.031-.088c0,.013-.008.031-.012.043,0-.012.009-.022.014-.035,0,.009,0,.017-.008.026s-.006.013-.009.021l0-.012Z" transform="translate(-1108.349 -1796.774)" fill="#fff"/>
      <path id="Path_3716" data-name="Path 3716" d="M1114.933,1822.574l.008.017c.009.022.017.048.025.075-.005-.019-.011-.04-.017-.057v0l.011.037,0,.017,0,.011.006.019v.005c0-.012-.007-.022-.01-.033.005.016.01.033.014.052l0,.008A1.051,1.051,0,0,0,1114.933,1822.574Z" transform="translate(-1108.374 -1796.276)" fill="#fff"/>
      <path id="Path_3717" data-name="Path 3717" d="M1115.077,1823.033a1.161,1.161,0,0,0-.02-.118v.005c0,.014.006.027.008.041l0-.016c0,.007,0,.012,0,.018l0,.024V1823c0,.011,0,.024.005.037s0,.015,0,.024.007.044.009.069h0s0,.006,0,.01v.009c0,.011,0,.022,0,.034A1.453,1.453,0,0,0,1115.077,1823.033Z" transform="translate(-1108.44 -1795.966)" fill="#fff"/>
      <path id="Path_3718" data-name="Path 3718" d="M1115.078,1818.022h0c0,.26,0,.575.006.879Z" transform="translate(-1108.451 -1798.244)" fill="#fff"/>
      <path id="Path_3719" data-name="Path 3719" d="M1115.1,1820.965c0,.006,0,.01,0,.016C1115.1,1820.967,1115.1,1820.956,1115.1,1820.965Z" transform="translate(-1108.462 -1797.291)" fill="#fff"/>
      <path id="Path_3720" data-name="Path 3720" d="M1115.1,1820.811h0v0Z" transform="translate(-1108.463 -1797.388)" fill="#fff"/>
      <path id="Path_3721" data-name="Path 3721" d="M1115.1,1820.84v.007h0v.042c0,.008,0,.014,0,.022v-.028c0-.012,0-.022,0-.033Z" transform="translate(-1108.463 -1797.311)" fill="#fff"/>
      <path id="Path_3722" data-name="Path 3722" d="M1115.1,1821.013v0Z" transform="translate(-1108.464 -1797.267)" fill="#fff"/>
      <path id="Path_3723" data-name="Path 3723" d="M1115.1,1821.033v.006c0,.013,0,.025,0,.037s0,.018,0,.027v-.018C1115.1,1821.068,1115.1,1821.05,1115.1,1821.033Z" transform="translate(-1108.46 -1797.205)" fill="#fff"/>
      <path id="Path_3724" data-name="Path 3724" d="M1115.141,1823.594h0v0h0v.015h0c0-.011,0-.022,0-.033a.107.107,0,0,0,0,.012h0Z" transform="translate(-1108.484 -1795.854)" fill="#fff"/>
      <path id="Path_3725" data-name="Path 3725" d="M1115.143,1823.5v-.011h0v.012Z" transform="translate(-1108.485 -1795.927)" fill="#fff"/>
      <path id="Path_3726" data-name="Path 3726" d="M1115.158,1826.138l-.005-.777v.149c0,.28,0,.482,0,.628Z" transform="translate(-1108.491 -1793.918)" fill="#fff"/>
      <path id="Path_3727" data-name="Path 3727" d="M1115.167,1826.737c0-.027,0-.033,0,0Z" transform="translate(-1108.498 -1794.163)" fill="#fff"/>
      <path id="Path_3728" data-name="Path 3728" d="M1115.1,1823.184v-.009c0-.027-.006-.054-.01-.08s-.005-.042-.009-.061v-.01c0-.009,0-.017-.005-.026,0,.022.008.044.01.065C1115.092,1823.1,1115.1,1823.143,1115.1,1823.184Z" transform="translate(-1108.451 -1796.007)" fill="#fff"/>
      <path id="Path_3729" data-name="Path 3729" d="M1114.733,1822.306l0,0,0,0Z" transform="translate(-1108.267 -1796.577)" fill="#fff"/>
      <path id="Path_3730" data-name="Path 3730" d="M1115.1,1820.881v-.029h0v.035S1115.1,1820.883,1115.1,1820.881Z" transform="translate(-1108.464 -1797.335)" fill="#fff"/>
      <path id="Path_3731" data-name="Path 3731" d="M1115,1822.74h0Z" transform="translate(-1108.412 -1796.344)" fill="#fff"/>
      <path id="Path_3732" data-name="Path 3732" d="M1182.376,1821.641c.026.017.028.019,0,0Z" transform="translate(-1113.357 -1796.927)" fill="#fff"/>
      <path id="Path_3733" data-name="Path 3733" d="M1181.946,1820.3v-.007h0Z" transform="translate(-1113.13 -1797.663)" fill="#fff"/>
      <path id="Path_3734" data-name="Path 3734" d="M1181.944,1820.328v0Z" transform="translate(-1113.129 -1797.646)" fill="#fff"/>
      <path id="Path_3735" data-name="Path 3735" d="M1181.944,1820.35v0Z" transform="translate(-1113.129 -1797.637)" fill="#fff"/>
      <path id="Path_3736" data-name="Path 3736" d="M1182.365,1821.632h0s-.006-.007-.008-.008S1182.362,1821.631,1182.365,1821.632Z" transform="translate(-1113.348 -1796.942)" fill="#fff"/>
      <path id="Path_3737" data-name="Path 3737" d="M1181.947,1820.283h0v0Z" transform="translate(-1113.13 -1797.674)" fill="#fff"/>
    </g>
    <g id="Group_170" data-name="Group 170" transform="translate(1021.708 40) rotate(180)">
      <path id="Path_3701-2" data-name="Path 3701" d="M.043,0c-.1.037.005.108.005.108Z" transform="translate(67.846 14.917)" fill="#fff"/>
      <path id="Path_3702-2" data-name="Path 3702" d="M.228.013,0,0C.2.109.215.08.228.013Z" transform="translate(68.822 21.641)" fill="#fff"/>
      <path id="Path_3706-2" data-name="Path 3706" d="M.409,0,.3,0,0,.079Z" transform="translate(44.609 29.526)" fill="#fff"/>
      <path id="Path_3707-2" data-name="Path 3707" d="M42.225,26.222c2.978.072,6.018.315,9.061.56,3.383-.591-.277-.917,3.167-1.3a11.58,11.58,0,0,0,3.157-2.095c.333-.769,5.923-1.332,6.248-1.341l.487-.009c.092-.018.109-.034.121-.047.019.123.034.126.014.039.013.053.013.055,0,0-.018-.075-.088-.476-.1-.616a5,5,0,0,1-.057-.664V20.8c0,.015,0,.033,0,.048h0c0,.023,0,.045.005.069,0-.02-.006-.052-.006-.069l-.062-.007-.127-.014c-1.7-.14-1.053-1.035-.469-1.057l.437-.027.108-.008.068-.005c.017.405-.034-.908.04.908h0a7.847,7.847,0,0,0-6.1-4.209,3.785,3.785,0,0,1,1.347-1.649l0-.033h.051c.144-.1.294-.187.462-.278v-.011c-3.195-2.486-.319-3.575.69-6.933a1.6,1.6,0,0,0-.969-.045l-.037-.911c-2.427-.708-4.078-1.99-6.276-3.6-.546-.327-.6-1.541-1.4-1.576a45.432,45.432,0,0,0-6.408-.271,99.675,99.675,0,0,1-13.2,1.417.448.448,0,0,1,.047.2c-1.058.01-2.119.022-3.2.035-1.068-.044-1.832.833-2.9.789-3.6-.153-7.127-.14-10.627.005q-2.625.11-5.239.314l-1.309.107-.327.028-.163.015-.082.006-.244.009A5.813,5.813,0,0,0,4.344,5.978,10.826,10.826,0,0,0,3.156,7.483,14.009,14.009,0,0,0,2.044,9.595,21.716,21.716,0,0,0,.53,15.682,29.9,29.9,0,0,0,.682,23.19a29.585,29.585,0,0,0,.762,3.578c.313,1.091,3.263,3.117,3.263,3.117l5.537,1.253c4.035-.541,5.613-1.282,5.148-1.431,4.027-.829,6.754,1.407,10.925-.843,4.75-2.277,10.123-2.774,15.722-2.647C42.852,25.926,43.825,25.821,42.225,26.222Z" transform="translate(63.444 40) rotate(-173)" fill="#fff"/>
      <path id="Path_3708-2" data-name="Path 3708" d="M.02.139c0-.008,0-.013-.005-.021C.012.09.006.045,0,0A1.4,1.4,0,0,0,.02.139Z" transform="translate(68.824 23.319)" fill="#fff"/>
      <path id="Path_3709-2" data-name="Path 3709" d="M0,0Z" transform="translate(6.624 17.718)" fill="#fff"/>
      <path id="Path_3710-2" data-name="Path 3710" d="M0,0,0,0H0Z" transform="translate(6.423 25.605)" fill="#fff"/>
      <path id="Path_3711-2" data-name="Path 3711" d="M.021.008A.086.086,0,0,0,0,0H0L.008,0h0L.019.007H.024l0,0,0,0A.184.184,0,0,1,.053.033L.046.027l.01.008,0,0,0,0,0,0L.066.047A.244.244,0,0,0,.021.008Z" transform="translate(6.411 25.678)" fill="#fff"/>
      <path id="Path_3712-2" data-name="Path 3712" d="M.014.025l0,0,0,0,0,0v0L0,.037H0A.464.464,0,0,0,.031,0C.025.007.018.021.014.025Z" transform="translate(6.452 25.477)" fill="#fff"/>
      <path id="Path_3713-2" data-name="Path 3713" d="M0,.033,0,.04.008.025.015.015,0,.03.019,0l0,.01L.024,0A.292.292,0,0,1,.008.025Z" transform="translate(6.484 25.37)" fill="#fff"/>
      <path id="Path_3714-2" data-name="Path 3714" d="M0,0,0,.007a.46.46,0,0,1,.03.047L.048.081A.491.491,0,0,0,0,0Z" transform="translate(6.498 25.916)" fill="#fff"/>
      <path id="Path_3715-2" data-name="Path 3715" d="M.008.072l0-.006L0,.083l0-.011C.005.079,0,.081,0,.087A.67.67,0,0,0,.031,0C.027.013.024.031.019.043.024.032.029.021.033.008c0,.009,0,.017-.008.026S.019.047.016.055l0-.012Z" transform="translate(6.537 25.016)" fill="#fff"/>
      <path id="Path_3716-2" data-name="Path 3716" d="M0,0C0,.006.006.011.008.017.017.04.025.065.033.092.028.073.023.052.017.035v0L.029.075l0,.017L.037.1.043.122V.127C.041.115.037.1.034.094.039.11.044.127.048.145l0,.008A1.092,1.092,0,0,0,0,0Z" transform="translate(6.559 26.298)" fill="#fff"/>
      <path id="Path_3717-2" data-name="Path 3717" d="M.02.118A1.163,1.163,0,0,0,0,0V0C0,.019.007.032.009.046l0-.016,0,.018,0,.024V.082c0,.011,0,.024.005.037s0,.015,0,.024S.031.186.034.212h0s0,.006,0,.009V.232c0,.011,0,.022,0,.033A1.427,1.427,0,0,0,.02.118Z" transform="translate(6.617 26.949)" fill="#fff"/>
      <path id="Path_3718-2" data-name="Path 3718" d="M0,0H0C0,.26,0,.575.006.879Z" transform="translate(6.627 19.778)" fill="#fff"/>
      <path id="Path_3719-2" data-name="Path 3719" d="M0,0C0,.009,0,.014,0,.019,0,.005,0-.006,0,0Z" transform="translate(6.637 23.67)" fill="#fff"/>
      <path id="Path_3720-2" data-name="Path 3720" d="M0,0H0V0Z" transform="translate(6.637 23.423)" fill="#fff"/>
      <path id="Path_3721-2" data-name="Path 3721" d="M0,0V.007H0V.048C0,.056,0,.062,0,.07V.041C0,.03,0,.02,0,.008Z" transform="translate(6.638 23.529)" fill="#fff"/>
      <path id="Path_3722-2" data-name="Path 3722" d="M0,0V0Z" transform="translate(6.638 23.746)" fill="#fff"/>
      <path id="Path_3723-2" data-name="Path 3723" d="M0,0V.006C0,.019,0,.031,0,.043S0,.061,0,.07V.052C0,.035,0,.017,0,0Z" transform="translate(6.634 23.828)" fill="#fff"/>
      <path id="Path_3724-2" data-name="Path 3724" d="M0,.014H0v0H0V.032H0C0,.022,0,.011,0,0A.1.1,0,0,0,0,.012H0Z" transform="translate(6.656 27.726)" fill="#fff"/>
      <path id="Path_3725-2" data-name="Path 3725" d="M0,.012V0H0V.012Z" transform="translate(6.657 27.561)" fill="#fff"/>
      <path id="Path_3726-2" data-name="Path 3726" d="M.005.777,0,0V.149c0,.28,0,.482,0,.628Z" transform="translate(6.662 31.443)" fill="#fff"/>
      <path id="Path_3727-2" data-name="Path 3727" d="M0,.022C0,0,0-.01,0,.022Z" transform="translate(6.669 32.552)" fill="#fff"/>
      <path id="Path_3728-2" data-name="Path 3728" d="M.025.186V.177C.022.149.019.123.015.1S.01.055.007.036V.026C0,.017,0,.009,0,0,0,.022.008.044.01.065.015.1.021.145.025.186Z" transform="translate(6.626 26.992)" fill="#fff"/>
      <path id="Path_3729-2" data-name="Path 3729" d="M0,0,0,0,0,0Z" transform="translate(6.464 25.727)" fill="#fff"/>
      <path id="Path_3730-2" data-name="Path 3730" d="M0,.029V0H0V.036S0,.031,0,.029Z" transform="translate(6.639 23.517)" fill="#fff"/>
      <path id="Path_3731-2" data-name="Path 3731" d="M0,0H0Z" transform="translate(6.592 26.395)" fill="#fff"/>
      <path id="Path_3732-2" data-name="Path 3732" d="M0,0C.027.019.029.021,0,0Z" transform="translate(69.018 24.712)" fill="#fff"/>
      <path id="Path_3733-2" data-name="Path 3733" d="M0,.008V0H0Z" transform="translate(68.816 22.625)" fill="#fff"/>
      <path id="Path_3734-2" data-name="Path 3734" d="M0,.018v0Z" transform="translate(68.815 22.664)" fill="#fff"/>
      <path id="Path_3735-2" data-name="Path 3735" d="M0,.008v0Z" transform="translate(68.815 22.705)" fill="#fff"/>
      <path id="Path_3736-2" data-name="Path 3736" d="M.008.008h0S0,0,0,0,.005.007.008.008Z" transform="translate(69.009 24.682)" fill="#fff"/>
      <path id="Path_3737-2" data-name="Path 3737" d="M0,0H0V0Z" transform="translate(68.816 22.609)" fill="#fff"/>
    </g>
  </g>
</svg>
