<?xml version="1.0" encoding="utf-8"?>
<!-- Generator: Adobe Illustrator 24.2.1, SVG Export Plug-In . SVG Version: 6.00 Build 0)  -->
<svg version="1.1" id="Layer_1" xmlns="http://www.w3.org/2000/svg" xmlns:xlink="http://www.w3.org/1999/xlink" x="0px" y="0px"
	 viewBox="0 0 142.6 51.9" style="enable-background:new 0 0 142.6 51.9;" xml:space="preserve">
<style type="text/css">
	.st0{fill:#FFFFFF;}
</style>
<g>
	<path class="st0" d="M141.2,8.9c-0.5-2-6.5-5.8-6.5-5.8l-11.3-2.6c0-0.1,0-0.2,0-0.2l0,0l0,0.2l-0.3-0.1c-4.7,0.4-7.8,0.9-9.6,1.3
		c-0.3-0.4-0.7-0.8-1.3-0.8c-4.5-0.3-9-1.2-13.6-0.9c-9.4,1.1-18.8,1.6-28.2,1.6c0.1,0.1,0.1,0.2,0.1,0.4c-2.2-0.1-4.5-0.1-6.8-0.2
		c-2.3-0.2-4,1.4-6.3,1.2c-7.6-0.5-15.1-0.8-22.6-0.7c-3.7,0-7.4,0.1-11.2,0.2L21,2.6l-0.7,0l-0.3,0l-0.2,0l-0.5,0
		c-3.3,0-6.4,1.1-8.9,3.2c-1,0.8-1.9,1.7-2.7,2.6c-1,1.2-1.9,2.4-2.6,3.7c-1.9,3.4-3.3,7-4,10.8C0,27.4-0.2,32,0.2,36.5
		c0.2,2.2,0.6,4.3,1.1,6.5c0.5,2,6.5,5.8,6.5,5.8l11.3,2.6c0,0.1,0,0.2,0,0.2h0l0-0.2l0.3,0.1c4.7-0.4,7.8-0.9,9.6-1.3
		c0.3,0.4,0.7,0.8,1.3,0.8c4.5,0.3,9,1.2,13.6,0.9c9.4-1.1,18.8-1.6,28.2-1.6C72,50.1,72,50,72,49.8c2.2,0.1,4.5,0.1,6.8,0.2
		c2.3,0.2,4-1.4,6.3-1.2c7.6,0.5,15.1,0.8,22.6,0.7c3.7,0,7.4-0.1,11.2-0.2l2.8-0.1l0.7,0l0.3,0l0.2,0l0.5,0c3.3,0,6.4-1.1,8.9-3.2
		c1-0.8,1.9-1.7,2.7-2.6c1-1.2,1.9-2.4,2.6-3.7c1.9-3.4,3.3-7,4-10.8c0.9-4.4,1.1-9,0.7-13.5C142.2,13.2,141.8,11,141.2,8.9z"/>
</g>
</svg>
