<?xml version="1.0" encoding="utf-8"?>
<!-- Generator: Adobe Illustrator 24.2.1, SVG Export Plug-In . SVG Version: 6.00 Build 0)  -->
<svg version="1.1" id="Layer_1" xmlns="http://www.w3.org/2000/svg" xmlns:xlink="http://www.w3.org/1999/xlink" x="0px" y="0px"
	 viewBox="0 0 197.1 53.6" style="enable-background:new 0 0 197.1 53.6;" xml:space="preserve">
<style type="text/css">
	.st0{fill:#FFFFFF;}
</style>
<g>
	<path class="st0" d="M193.6,40.6c0.2-3.3,0.1-0.9,0.1-1.6l-0.2,0l-0.3,0l-1,0C192.7,39.5,193.2,40.1,193.6,40.6z"/>
	<path class="st0" d="M195.5,8.8c-0.7-2-9.1-5.9-9.1-5.9L169.8,0c-12.4,0.5-17.3,1.7-15.9,2c-12.4,1-20.1-3.3-33.3,0.3
		c-4.6,1.1-9.4,1.9-14.3,2.4c-1.6,0-3.2,0-4.9,0c0.1,0.1,0.1,0.2,0.1,0.4c-3.2-0.1-6.4-0.2-9.7-0.3c-2.3-0.1-4.2,0.6-6.3,0.9
		c-4.4,0-8.8-0.2-13.2-0.4c0,0,0,0-0.1,0c-0.2,0-0.4,0-0.7,0c0.1,0,0.1,0,0.2,0c-9-0.5-18.2-1.2-27.3-2C34,4,24.2,3.2,13.7,3.5
		c-2.5,0.4-4.9,0.2-6.6,1.2C5.9,6,4.7,7.3,3.6,8.7c3,0,2.6,1.7,1.6,1.7l-1.5,0c-0.1,0-0.3,0-0.4,0.1c-0.1-0.3-0.2-0.7-0.3-1
		c0,0,0.1,0.1,0.1,0.2c0,0,0-0.1,0-0.1l0.1,0.1c0,0.1,0.1,0.1,0.1,0.2c0,0.1,0.1,0.3,0.1,0.4c0-0.1,0-0.2-0.1-0.3
		c0,0.1,0,0.2,0.1,0.3l0,0c0,0.1,0.1,0.3,0.1,0.4c0,0.2,0.1,0.5,0.1,0.7c0.1,0.4,0.1,0.8,0,1.2l0-0.1c0,0,0-0.1,0-0.1
		c0,0,0-0.1,0-0.1c0,0,0,0.1,0,0.1l0.2,0l0.4,0c5.1,0.4,2.9,2,1.2,1.9l-0.3,0c0.4,0.4,0.8,0.8,1.3,1.1c-2.1,2.7-3.7,5.8-4.7,9.1
		c-1.4,4.3-1.8,8.9-1.3,13.5c0.3,2.2,0.8,4.4,1.5,6.5c0.7,2,9.1,5.9,9.1,5.9l16.5,2.8c12.4-0.5,17.3-1.7,15.9-2
		c12.4-1,20.1,3.3,33.3-0.3c4.6-1.1,9.4-1.9,14.3-2.4c1.6,0,3.2,0,4.9,0c-0.1-0.1-0.1-0.2-0.1-0.4c3.2,0.1,6.4,0.2,9.7,0.3
		c2.3,0.1,4.2-0.6,6.3-0.9c4.4,0,8.8,0.2,13.2,0.4c0,0,0,0,0.1,0c0.2,0,0.4,0,0.7,0c-0.1,0-0.1,0-0.2,0c9,0.5,18.2,1.2,27.3,2
		c10.4-0.7,20.2,0.2,30.8-0.1c2.5-0.4,4.9-0.2,6.6-1.2c1.2-1.3,2.4-2.6,3.5-4c-3,0-2.6-1.7-1.6-1.7l1.5,0c0.1,0,0.3,0,0.4-0.1
		c0.1,0.3,0.2,0.7,0.3,1c0,0-0.1-0.1-0.1-0.2c0,0,0,0.1,0,0.1l-0.1-0.1c0-0.1-0.1-0.1-0.1-0.2c0-0.1-0.1-0.3-0.1-0.4
		c0,0.1,0,0.2,0.1,0.3c0-0.1,0-0.2-0.1-0.3l0,0c0-0.1-0.1-0.3-0.1-0.4c0-0.2-0.1-0.5-0.1-0.7c-0.1-0.4-0.1-0.8,0-1.2l0,0.1
		c0,0,0,0.1,0,0.1c0,0,0,0.1,0,0.1c0,0,0-0.1,0-0.1l-0.2,0l-0.4,0c-5.1-0.4-2.9-2-1.2-1.9l0.3,0c-0.4-0.4-0.8-0.8-1.3-1.1
		c2.1-2.7,3.7-5.8,4.7-9.1c1.4-4.3,1.8-8.9,1.3-13.5C196.7,13.1,196.2,10.9,195.5,8.8z"/>
	<path class="st0" d="M3.5,13c-0.2,3.3-0.1,0.9-0.1,1.6l0.2,0l0.3,0l1,0C4.4,14.1,3.9,13.5,3.5,13z"/>
</g>
</svg>
