<?xml version="1.0" encoding="utf-8"?>
<!-- Generator: Adobe Illustrator 24.2.1, SVG Export Plug-In . SVG Version: 6.00 Build 0)  -->
<svg version="1.1" id="Layer_1" xmlns="http://www.w3.org/2000/svg" xmlns:xlink="http://www.w3.org/1999/xlink" x="0px" y="0px"
	 viewBox="0 0 34.9 36.2" style="enable-background:new 0 0 34.9 36.2;" xml:space="preserve">
<style type="text/css">
	.st0{fill:#FFFFFF;}
</style>
<g transform="translate(6436.897 -9714)">
	<path class="st0" d="M-6415.5,9730.6c0-0.4-0.1-0.8-0.2-1.2c-0.2-0.5-0.7-1-1.2-1.2c-0.4-0.1-0.8-0.2-1.2-0.2
		c-0.8-0.1-1.7-0.1-2.5-0.1l0,0c-0.8,0-1.7,0-2.5,0.1c-0.4,0-0.8,0.1-1.2,0.2c-0.3,0.1-0.5,0.2-0.7,0.5c-0.2,0.2-0.4,0.4-0.5,0.7
		c-0.1,0.4-0.2,0.8-0.2,1.2c-0.1,0.8-0.1,1.7-0.1,2.5c0,1.7,0.1,1.9,0.1,2.5c0,0.4,0.1,0.8,0.2,1.2c0.2,0.5,0.7,1,1.2,1.2
		c0.4,0.1,0.8,0.2,1.2,0.2c0.8,0.1,1.7,0.1,2.5,0.1c1.7,0,1.9-0.1,2.5-0.1c0.4,0,0.8-0.1,1.2-0.2c0.5-0.2,1-0.7,1.2-1.2
		c0.1-0.4,0.2-0.8,0.2-1.2c0.1-0.8,0.1-1.7,0.1-2.5C-6415.4,9731.4-6415.5,9731.2-6415.5,9730.6z M-6420.6,9736.4
		c-1.8,0-3.3-1.5-3.3-3.3l0,0c0,0,0-0.1,0-0.1c0-1.8,1.5-3.2,3.3-3.1c1.8,0.1,3.2,1.6,3.1,3.4
		C-6417.6,9734.9-6418.9,9736.3-6420.6,9736.4L-6420.6,9736.4z M-6416.8,9733.1L-6416.8,9733.1L-6416.8,9733.1z M-6417.2,9730.5
		c-0.4,0-0.8-0.3-0.8-0.8c0-0.4,0.3-0.8,0.8-0.8c0.4,0,0.8,0.3,0.8,0.8l0,0C-6416.5,9730.2-6416.8,9730.5-6417.2,9730.5
		L-6417.2,9730.5z"/>
	<path class="st0" d="M-6402.2,9728.6c-0.3-2.6-1.3-5.2-2.8-7.4c-1.6-2.3-3.8-4.2-6.4-5.3c-1.4-0.6-2.9-1.1-4.5-1.3
		c-1.6-0.3-3.2-0.5-4.8-0.5c-1.5-0.1-3.1,0-4.6,0.3c-1.4,0.3-2.8,0.7-4,1.3c-1.2,0.6-2.3,1.3-3.3,2.2c-0.3,0.2-0.5,0.4-0.7,0.7
		c-0.2,0.2-0.4,0.5-0.7,0.7c-0.2,0.2-0.4,0.5-0.6,0.7s-0.4,0.5-0.5,0.8c-0.7,1.1-1.2,2.2-1.6,3.4c-0.1,0.3-0.2,0.6-0.2,0.9l-0.1,0.5
		v0c0,0,0,0,0,0l0.1,0l0,0l0,0l0,0v0l0,0l0-0.1l0.1-0.2c0-0.1,0.1-0.3,0.1-0.4l0.1-0.4c0.4-1,0.9-2,1.5-2.9c0.6-0.9,1.3-1.7,2.1-2.5
		c0.9-0.8,1.8-1.5,2.8-2.2c0.1,0.1,0.3,0.2,0.4,0.3c0.4,0,0.8-0.1,1.1-0.3c1.9-0.8,3.9-1.2,5.9-1.3c2.1-0.1,4.3,0.1,6.4,0.5
		c1,0.2,1.9,0.4,2.8,0.8c0.8,0.3,1.5,0.7,2.3,1.1c0.6,0.4,1.1,0.8,1.6,1.2c0.4,0.4,0.7,0.8,1,1.2c0.2,0.3,0.3,0.5,0.5,0.8l0.2,0.5
		l0.1,0.3l0.1,0.3c0.3,0.8,0.8,1.8,1.4,3.3c-0.4-1-1-2-1.6-2.9l-0.5,0.2l-0.1-0.1l-0.5-0.6l-0.1-0.2l-0.1-0.1l-0.1-0.1l-0.4-0.3
		l-1.5-1.3l-0.2-0.2l-0.1-0.1l0,0l-0.1,0l-0.5-0.3l-1-0.5l-0.9-0.5l-0.4-0.2c-0.1,0-0.1-0.1-0.2-0.1l-0.3-0.1
		c-0.7-0.2-1.3-0.3-1.8-0.5c-1-0.3-1.6-0.5-1.6-0.6l-0.1,0.5c0,0-0.1,0-0.1,0h-0.1h-0.2l-0.5,0l-0.9,0l-1.8,0c-0.1,0-0.1,0-0.2,0
		l-0.2,0l-0.4,0.1l-0.8,0.2l-1.5,0.3c-0.1,0-0.3,0-0.4,0.1l-0.3,0.1l-0.6,0.2l-1.1,0.5l-0.3,0.1l-0.1,0.1c0,0,0,0-0.1,0l-0.1,0
		l-0.4,0.3l-0.9,0.5l-0.4,0.3l-0.1,0.1l-0.1,0l0,0l-0.2,0.1l-0.6,0.5l-0.6,0.5l-0.5,0.5c-0.6,0.6-1.2,1.3-1.7,2
		c-0.2,0.3-0.4,0.6-0.6,1c-0.1,0.2-0.2,0.3-0.3,0.5l-0.3,0.5l0,0.1c0,0.2-0.2,0.5-0.3,0.6l0,0.1l0,0c0,0,0,0,0,0l0.1,0l-0.1,0.1
		l-0.2,0.5c-0.1,0.2-0.1,0.3-0.2,0.5l-0.3,0.9c-0.1,0.3-0.2,0.6-0.2,0.9c0,0.1-0.1,0.3-0.1,0.4l-0.1,0.4l-0.1,0.4
		c0,0.1-0.1,0.3-0.1,0.4c-0.3,1.5-0.3,3.1-0.1,4.6c0.2,1.5,0.7,3,1.4,4.4c0.1,0.2,0.2,0.4,0.3,0.5l0.3,0.5c0.1,0.2,0.2,0.3,0.3,0.5
		l0.3,0.5c0.5,0.7,1,1.3,1.5,1.9c0.6,0.6,1.1,1.1,1.8,1.6c0.6,0.5,1.3,1,2,1.4c2.8,1.6,5.8,2.6,9,2.9c1.5,0.2,5-1.6,5-2.2l0-0.2
		v-0.1c0,0,0,0,0,0l0,0l0.1,0l0.2-0.1c0.1,0,0.3-0.1,0.4-0.2c0.6-0.2,1.1-0.5,1.6-0.8c0.2-0.1,0.4-0.3,0.6-0.4
		c0.2-0.1,0.3-0.3,0.4-0.4c0.2-0.3,0.1-0.4-0.4-0.2c0.1-0.1,0.2-0.1,0.3-0.2l0.2-0.1l0,0c0.4,1,0.2,2.3-0.8,3.8
		c1.1-0.3,2.2-0.9,3.2-1.6c0.5-0.3,0.9-0.7,1.3-1.1c0.2-0.2,0.3-0.3,0.5-0.5c0.1-0.1,0.2-0.3,0.3-0.4c0.1-0.2,0.2-0.4,0.2-0.6
		c0-0.2,0.1-0.4,0.2-0.6c0.1-0.2,0.1-0.3,0.2-0.5c0.1-0.2,0.2-0.4,0.4-0.6c1.2-2.2,2.1-4.5,2.7-6.9
		C-6402,9733.7-6401.8,9731.1-6402.2,9728.6z M-6418.5,9722.1L-6418.5,9722.1c-0.2,0-0.3,0-0.5-0.1
		C-6418.9,9722-6418.7,9722.1-6418.5,9722.1z M-6419.9,9721.9L-6419.9,9721.9l-0.1,0L-6419.9,9721.9z M-6420.6,9721.9
		c-0.3,0-0.5,0-0.8,0C-6421.1,9721.9-6420.9,9721.9-6420.6,9721.9L-6420.6,9721.9z M-6414.3,9733.1c0,1.7-0.1,1.9-0.1,2.6
		c0,0.5-0.1,1.1-0.3,1.6c-0.3,0.9-1,1.5-1.8,1.8c-0.5,0.2-1,0.3-1.6,0.3c-1.7,0.1-3.5,0.1-5.2,0c-0.5,0-1.1-0.1-1.6-0.3
		c-0.9-0.3-1.5-1-1.8-1.8c-0.2-0.5-0.3-1-0.3-1.6c-0.1-1.7-0.1-3.5,0-5.2c0-0.5,0.1-1.1,0.3-1.6c0.3-0.9,1-1.5,1.8-1.8
		c0.5-0.2,1-0.3,1.6-0.3c1.7-0.1,3.5-0.1,5.2,0c0.5,0,1.1,0.1,1.6,0.3c0.9,0.3,1.5,1,1.8,1.8c0.2,0.5,0.3,1,0.3,1.6
		C-6414.3,9731.4-6414.2,9732.2-6414.3,9733.1L-6414.3,9733.1z M-6406.9,9726.1c0-0.1-0.1-0.2-0.1-0.3l-0.2-0.3
		c-0.2-0.4-0.4-0.8-0.5-1c0-0.1-0.1-0.2-0.1-0.3c0-0.1,0-0.1,0-0.1l0.2-0.1c0.3,0.6,0.6,1.2,0.8,1.9c0.2,0.5,0.3,1,0.4,1.5l0-0.1
		l-0.2-0.4L-6406.9,9726.1z M-6406.6,9728.2h0.4c0,0.3,0.1,0.5,0.1,0.8s0,0.5,0,0.8C-6406.2,9729.2-6406.4,9728.7-6406.6,9728.2
		L-6406.6,9728.2z"/>
	<path class="st0" d="M-6420.6,9731L-6420.6,9731c-1.2,0-2.1,1-2.1,2.1c0,0,0,0,0,0.1c0,1.2,1,2.1,2.1,2c0,0,0,0,0,0l0,0h0.1
		c1.2,0,2.1-1,2-2.1c0,0,0,0,0,0c0,0,0,0,0-0.1C-6418.5,9731.9-6419.5,9731-6420.6,9731z"/>
</g>
</svg>
