<?xml version="1.0" encoding="utf-8"?>
<!-- Generator: Adobe Illustrator 24.2.1, SVG Export Plug-In . SVG Version: 6.00 Build 0)  -->
<svg version="1.1" id="Layer_1" xmlns="http://www.w3.org/2000/svg" xmlns:xlink="http://www.w3.org/1999/xlink" x="0px" y="0px"
	 viewBox="0 0 34.9 36.2" style="enable-background:new 0 0 34.9 36.2;" xml:space="preserve">
<style type="text/css">
	.st0{fill:#FFFFFF;}
</style>
<path class="st0" d="M34.7,14.6c-0.3-2.6-1.3-5.2-2.8-7.4c-1.6-2.3-3.8-4.2-6.4-5.3c-1.4-0.6-2.9-1.1-4.5-1.3
	c-1.6-0.3-3.2-0.5-4.8-0.5c-1.5-0.1-3.1,0-4.6,0.3c-1.4,0.3-2.8,0.7-4,1.3C6.5,2.2,5.4,2.9,4.4,3.8C4.1,4,3.9,4.2,3.7,4.5
	S3.2,4.9,3,5.2C2.8,5.4,2.6,5.6,2.4,5.9S2,6.4,1.9,6.7c-0.7,1.1-1.2,2.2-1.6,3.4c-0.1,0.3-0.2,0.6-0.2,0.9L0,11.5v0c0,0,0,0,0,0
	l0.1,0l0,0l0,0l0,0v0l0,0l0-0.1l0.1-0.2c0-0.1,0.1-0.3,0.1-0.4l0.1-0.4c0.4-1,0.9-2,1.5-2.9C2.7,6.5,3.4,5.7,4.2,5
	C5,4.2,6,3.4,7,2.8C7.1,2.9,7.2,3,7.4,3c0.4,0,0.8-0.1,1.1-0.3c1.9-0.8,3.9-1.2,5.9-1.3c2.1-0.1,4.3,0.1,6.4,0.5
	c1,0.2,1.9,0.4,2.8,0.8c0.8,0.3,1.5,0.7,2.3,1.1c0.6,0.4,1.1,0.8,1.6,1.2c0.4,0.4,0.7,0.8,1,1.2c0.2,0.3,0.3,0.5,0.5,0.8l0.2,0.5
	l0.1,0.3l0.1,0.3c0.3,0.8,0.8,1.8,1.4,3.3c-0.4-1-1-2-1.6-2.9l-0.5,0.2l-0.1-0.1l-0.5-0.6l-0.1-0.2L28,7.8l-0.1-0.1l-0.4-0.3L26,6.1
	L25.8,6l-0.1-0.1l0,0l-0.1,0l-0.5-0.3l-1-0.5l-0.9-0.5l-0.4-0.2c-0.1,0-0.1-0.1-0.2-0.1l-0.3-0.1c-0.7-0.2-1.3-0.3-1.8-0.5
	c-1-0.3-1.6-0.5-1.6-0.6c0,0.2,0,0.2-0.1,0.5c0,0-0.1,0-0.1,0h-0.1h-0.2l-0.5,0l-0.9,0l-1.8,0c-0.1,0-0.2,0-0.2,0l-0.2,0l-0.4,0.1
	l-0.8,0.2L12.2,4c-0.1,0-0.3,0-0.4,0.1l-0.3,0.1l-0.6,0.2L9.8,4.9L9.5,5L9.4,5.1c0,0,0,0-0.1,0l-0.1,0L8.8,5.4L7.9,6L7.5,6.2
	L7.4,6.3l-0.1,0l0,0L7.2,6.5L6.5,7.1L5.9,7.6L5.4,8.1c-0.6,0.6-1.2,1.3-1.7,2c-0.2,0.3-0.4,0.6-0.6,1c-0.1,0.2-0.2,0.3-0.3,0.5
	l-0.3,0.5l0,0.1c0,0.2-0.2,0.5-0.3,0.6l0,0.1l0,0c0,0,0,0,0,0l0.1,0L2.1,13l-0.2,0.5c-0.1,0.2-0.1,0.3-0.2,0.5l-0.3,0.9
	c-0.1,0.3-0.2,0.6-0.2,0.9C1.1,15.9,1,16,1,16.2l-0.1,0.4L0.8,17c0,0.1-0.1,0.3-0.1,0.4C0.5,19,0.5,20.5,0.7,22
	c0.2,1.5,0.7,3,1.4,4.4c0.1,0.2,0.2,0.3,0.3,0.5l0.3,0.5c0.1,0.2,0.2,0.3,0.3,0.5l0.3,0.5c0.5,0.7,1,1.3,1.5,1.9
	c0.6,0.6,1.1,1.1,1.8,1.6c0.6,0.5,1.3,1,2,1.4c2.8,1.6,5.8,2.6,9,2.9c1.5,0.2,5-1.6,5-2.2l0-0.2v-0.1c0,0,0,0,0,0l0,0l0.1,0l0.2-0.1
	c0.1,0,0.3-0.1,0.4-0.2c0.6-0.2,1.1-0.5,1.6-0.8c0.2-0.1,0.4-0.3,0.6-0.4c0.2-0.1,0.3-0.3,0.4-0.4c0.2-0.3,0.1-0.4-0.4-0.2
	c0.1-0.1,0.2-0.1,0.3-0.2l0.2-0.1l0,0c0.4,1,0.2,2.3-0.8,3.8c1.1-0.4,2.2-0.9,3.2-1.6c0.5-0.3,0.9-0.7,1.3-1.1
	c0.2-0.2,0.3-0.3,0.5-0.5c0.1-0.1,0.2-0.3,0.3-0.4c0.1-0.2,0.2-0.4,0.2-0.6c0-0.2,0.1-0.4,0.2-0.6c0.1-0.2,0.1-0.3,0.2-0.5
	c0.1-0.2,0.2-0.4,0.4-0.6c1.2-2.2,2.1-4.5,2.7-6.9C34.9,19.7,35,17.1,34.7,14.6z M18.3,8.1L18.3,8.1c-0.2,0-0.3,0-0.5-0.1
	C18,8,18.2,8.1,18.3,8.1z M16.9,7.9L16.9,7.9l-0.1,0L16.9,7.9z M16.3,7.9c-0.3,0-0.5,0-0.8,0C15.8,7.9,16,7.9,16.3,7.9L16.3,7.9z
	 M19.6,14.4h-1.2c-0.9,0-1.1,0.5-1.1,1.1v1.4h2.3l-0.3,2.3h-2V25h-2.3v-5.8h-2v-2.3h2v-1.7c-0.1-1.5,1-2.8,2.5-3c0.1,0,0.3,0,0.4,0
	c0.8,0,1.5,0.1,1.8,0.1L19.6,14.4z M20.1,19.1L20.1,19.1L20.1,19.1z M30,12.1c0-0.1-0.1-0.2-0.1-0.3l-0.2-0.3
	c-0.2-0.4-0.4-0.8-0.5-1c0-0.1-0.1-0.2-0.1-0.3c0-0.1,0-0.1,0-0.1l0.2-0.1c0.3,0.6,0.6,1.2,0.8,1.9c0.2,0.5,0.3,1,0.4,1.5l0-0.1
	l-0.2-0.4L30,12.1z M30.3,14.2h0.4c0,0.3,0.1,0.5,0.1,0.8s0,0.5,0,0.8C30.7,15.2,30.5,14.7,30.3,14.2L30.3,14.2z"/>
</svg>
