<svg xmlns="http://www.w3.org/2000/svg" width="34.897" height="36.237" viewBox="0 0 34.897 36.237"><defs><style>.a{fill:#43a9e2;}</style></defs><g transform="translate(6436.897 -9714)"><path class="a" d="M221.511,777.6a3.282,3.282,0,0,0-.212-1.2,2.485,2.485,0,0,0-1.2-1.2,3.281,3.281,0,0,0-1.2-.212,19.519,19.519,0,0,0-2.545-.07h0a19.517,19.517,0,0,0-2.545.07,3.279,3.279,0,0,0-1.2.212,1.194,1.194,0,0,0-.707.494,2.539,2.539,0,0,0-.494.707,3.279,3.279,0,0,0-.212,1.2,19.5,19.5,0,0,0-.072,2.545c0,1.7.07,1.909.07,2.545a3.279,3.279,0,0,0,.212,1.2,2.485,2.485,0,0,0,1.2,1.2,3.277,3.277,0,0,0,1.2.212,19.5,19.5,0,0,0,2.545.071c1.7,0,1.909-.071,2.545-.071a3.277,3.277,0,0,0,1.2-.212,2.485,2.485,0,0,0,1.2-1.2,3.282,3.282,0,0,0,.212-1.2,19.533,19.533,0,0,0,.07-2.545C221.581,778.446,221.511,778.234,221.511,777.6Zm-5.162,5.8a3.252,3.252,0,0,1-3.252-3.252c0-.035,0-.07,0-.105a3.2,3.2,0,0,1,3.252-3.147,3.252,3.252,0,0,1,0,6.5Zm3.884-3.251h0l0,0Zm-.491-2.617a.777.777,0,1,1,.777-.777A.777.777,0,0,1,219.742,777.525Z" transform="translate(-6636.987 8952.969)"/><path class="a" d="M180.179,706.809a17,17,0,0,0-2.79-7.351,15.057,15.057,0,0,0-6.447-5.309,20.112,20.112,0,0,0-4.452-1.34,33.1,33.1,0,0,0-4.75-.549,20.556,20.556,0,0,0-4.59.31,16.605,16.605,0,0,0-4.035,1.3,14.561,14.561,0,0,0-3.3,2.165c-.252.2-.473.438-.708.659s-.439.467-.658.7c-.2.249-.412.488-.6.745s-.379.51-.542.781a12.517,12.517,0,0,0-1.561,3.43c-.074.307-.166.608-.216.92l-.083.465,0,.015c-.009,0,.011.011.033.018l.116.042.024.009.025-.033,0,0,0-.007.011-.04.028-.106.057-.21c.039-.139.075-.278.119-.414l.141-.4a12.774,12.774,0,0,1,1.511-2.919,15.685,15.685,0,0,1,2.128-2.486,18.3,18.3,0,0,1,2.782-2.168.7.7,0,0,0,.438.252,2.168,2.168,0,0,0,1.144-.281,17.864,17.864,0,0,1,5.905-1.285,27.461,27.461,0,0,1,6.4.508,18.006,18.006,0,0,1,2.809.772,12.815,12.815,0,0,1,2.258,1.086,9.774,9.774,0,0,1,1.623,1.24,6.376,6.376,0,0,1,1,1.209,6.2,6.2,0,0,1,.45.8l.212.475.118.258.12.281c.338.774.812,1.758,1.44,3.27a12.88,12.88,0,0,0-1.611-2.878l-.519.249-.069-.089-.479-.6-.125-.155-.064-.078-.092-.079-.374-.318-1.533-1.286-.192-.16-.1-.079-.048-.04-.064-.034-.513-.269-1-.525-.947-.5-.448-.238c-.075-.037-.142-.082-.22-.112l-.253-.067c-.666-.177-1.262-.341-1.761-.487-1-.292-1.611-.514-1.6-.628l-.057.455a.829.829,0,0,0-.113-.027l-.114,0-.228,0-.454-.009-.9-.019-1.787-.038c-.073,0-.15-.006-.22,0l-.191.04-.381.08-.759.158-1.5.312c-.123.026-.251.05-.37.078l-.292.125-.58.248-1.15.491-.285.122-.142.061c-.023.01-.049.02-.07.031l-.054.035-.432.276-.857.546-.425.271-.106.067-.053.034-.041.034-.162.137-.645.546-.639.54-.5.527a17.854,17.854,0,0,0-1.7,2.034q-.331.485-.629.972c-.1.164-.19.32-.276.478l-.254.472-.043.085a1.471,1.471,0,0,1-.314.644l-.026.056-.043.013c-.012.011-.024.022-.036.032l.066-.017-.054.118-.2.46c-.067.154-.128.306-.177.455l-.318.9c-.1.3-.166.589-.25.884-.038.147-.084.295-.117.44l-.084.433-.084.433a4.212,4.212,0,0,0-.071.431,14.606,14.606,0,0,0-.068,4.586,15.011,15.011,0,0,0,1.36,4.368c.086.174.169.35.259.523l.294.509c.1.168.191.344.3.506l.327.495a16.836,16.836,0,0,0,1.5,1.855,18.685,18.685,0,0,0,1.77,1.632,17.77,17.77,0,0,0,1.986,1.38,22.509,22.509,0,0,0,8.992,2.944c1.535.18,5.005-1.583,5.019-2.246l.005-.248v-.093c0-.009,0,0,.006-.007l.028-.01.111-.039.221-.078c.148-.05.294-.1.435-.164a12.56,12.56,0,0,0,1.632-.785,4.209,4.209,0,0,0,.645-.425,2.434,2.434,0,0,0,.422-.429c.171-.254.106-.372-.4-.227.111-.069.221-.139.329-.213l.161-.112.02-.014c.431,1.007.2,2.262-.848,3.826a11.018,11.018,0,0,0,3.2-1.583,10.561,10.561,0,0,0,1.339-1.07,4.621,4.621,0,0,0,.488-.532,2.328,2.328,0,0,0,.277-.413,2.219,2.219,0,0,0,.2-.615,3.112,3.112,0,0,1,.18-.626,4.092,4.092,0,0,1,.231-.451c.1-.182.222-.393.385-.642a30.194,30.194,0,0,0,2.69-6.9A20.312,20.312,0,0,0,180.179,706.809ZM163.8,700.324h0q-.249-.033-.5-.064C163.492,700.283,163.663,700.305,163.8,700.324Zm-1.4-.154.022,0-.143-.012Zm-.64-.044q-.378-.02-.763-.023C161.212,700.1,161.479,700.111,161.769,700.126Zm6.3,11.224c0,1.7-.071,1.909-.071,2.615a4.361,4.361,0,0,1-.284,1.557,2.965,2.965,0,0,1-1.838,1.838,4.361,4.361,0,0,1-1.556.283,49.283,49.283,0,0,1-5.229,0,4.365,4.365,0,0,1-1.555-.283,2.966,2.966,0,0,1-1.838-1.838,4.365,4.365,0,0,1-.283-1.556,48.537,48.537,0,0,1,0-5.229,3.221,3.221,0,0,1,.283-1.554,2.967,2.967,0,0,1,1.838-1.838,4.36,4.36,0,0,1,1.555-.283,48.432,48.432,0,0,1,5.229,0,4.361,4.361,0,0,1,1.558.283,2.954,2.954,0,0,1,1.838,1.835,4.363,4.363,0,0,1,.283,1.555A20.874,20.874,0,0,1,168.07,711.35Zm7.383-7.047c-.049-.112-.088-.218-.14-.326l-.186-.33c-.237-.425-.424-.782-.538-1.04a1.851,1.851,0,0,1-.113-.307c-.011-.073-.03-.124,0-.134l.243-.089a12.017,12.017,0,0,1,.815,1.865,13.206,13.206,0,0,1,.42,1.524l-.042-.095-.161-.368Zm.312,2.141h.363c.035.253.063.507.084.76s.034.528.039.791A10.094,10.094,0,0,0,175.766,706.444Z" transform="translate(-6582.347 9021.758)"/><path class="a" d="M231.851,793.522h-.074a2.084,2.084,0,0,0-2.046,2.12c0,.024,0,.047,0,.071a2.083,2.083,0,0,0,2.12,2.046v0h.074a2.083,2.083,0,0,0,2.046-2.12c0-.025,0-.05,0-.074A2.083,2.083,0,0,0,231.851,793.522Z" transform="translate(-6652.489 8937.468)"/></g></svg>