<svg xmlns="http://www.w3.org/2000/svg" width="44.731" height="48.839" viewBox="0 0 44.731 48.839"><defs><style>.a{fill:#4b8ebe;}</style></defs><g transform="matrix(0.777, -0.629, 0.629, 0.777, -321.015, 236.353)"><g transform="translate(382.637 32.687)"><path class="a" d="M402.76,42.573c.134.018.269.038.4.054a.321.321,0,0,0,.162,0,.481.481,0,0,1,.325-.008c.15.03.3.036.476.055l.115.269-.84,1.78a1.249,1.249,0,0,1-.262.029c-.317-.035-.635-.031-.951-.068a1.879,1.879,0,0,0-.708.016,2.288,2.288,0,0,1-.539.041.277.277,0,0,1-.3-.2c-.057.042-.095.09-.139.1-.286.055-.573.115-.862.145a2.506,2.506,0,0,1-.533-.032c-.048-.006-.089-.06-.134-.091a.206.206,0,0,0,.033-.011c.006,0,.009-.014.013-.021l-.038.041-.514.18c-.082.1-.018.16-.013.225a1.591,1.591,0,0,1-.04.743,3.752,3.752,0,0,0-.076.409.973.973,0,0,1-.757.582,2.272,2.272,0,0,1-.865.1c-.026-.006-.067-.009-.08.006-.127.145-.354.026-.483.19-.04.052-.153.058-.234.064-.318.022-.637.035-.955.056a.328.328,0,0,0-.107.053l.007-.008c-.228.024-.449.085-.683.1-.216.011-.434.077-.655.1a3.632,3.632,0,0,1-.61.031.479.479,0,0,0-.313.077.439.439,0,0,1-.348.072c-.122-.006-.246.053-.348-.063a.1.1,0,0,0-.076-.021c-.191.027-.382.058-.564.087-.022.032-.05.053-.052.077a2.456,2.456,0,0,0,.087.737.8.8,0,0,0,.241.429c.158.149.251.367.48.444.046.015.076.079.115.117a1.112,1.112,0,0,0,.782.318,2.108,2.108,0,0,1,.438.105.274.274,0,0,0-.035.074.125.125,0,0,0,.018.066s.032,0,.036-.006.03-.05.025-.069-.035-.039-.054-.058c.035-.018.084-.06.1-.05a5.22,5.22,0,0,0,.881.335.455.455,0,0,1,.286.221.122.122,0,0,0-.03.01c-.006,0-.006.014-.01.021l.031-.04a.819.819,0,0,1,.4.179.83.83,0,0,0,.446.166l-.007-.007c.032.051.064.047.1,0l-.007.009c.114.022.216.132.345.046a1.552,1.552,0,0,1,.665.123l-.009-.01c.033.049.067.06.1,0l-.008.01c.07.014.137.029.157.113.014.057.037.1.11.094.115,0,.21-.129.342-.031.113.083.243-.026.368,0,.068.014.137.02.205.029a2.622,2.622,0,0,0,.62.076,2.558,2.558,0,0,1,.7.1,1.52,1.52,0,0,1,.347.141c.031.014.373.126.41.13l1.029.116a1.179,1.179,0,0,0,.208.024,4.459,4.459,0,0,1,.622-.05,4.5,4.5,0,0,0,.622-.015.641.641,0,0,1,.165-.019,7.365,7.365,0,0,0,1.035,0,1.824,1.824,0,0,0,.57-.05,6.381,6.381,0,0,0,.814-.134.1.1,0,0,1,.08,0,.223.223,0,0,0,.242.017c.08-.033.19.009.287.014a2.365,2.365,0,0,0,.29.006,2.654,2.654,0,0,1,.289-.046,3.205,3.205,0,0,0,.943-.143c.025-.007.064.041.1.068-.068.076-.116.175-.192.206a1.766,1.766,0,0,0-.535.453l-.087-.088-.03-.023.038.015.087.085a.194.194,0,0,1-.224.068c-.066-.018-.13-.047-.208-.076a2.827,2.827,0,0,1-1.139.352.851.851,0,0,0-.24.054,1.662,1.662,0,0,1-.766.171.654.654,0,0,1-.473-.117,1,1,0,0,1-.887.158l-1.113.018a1.068,1.068,0,0,1-.208,0c-.164-.027-.325-.084-.488-.1-.149-.01-.3.041-.451.035a4.572,4.572,0,0,1-1.155-.147,2.089,2.089,0,0,0-.329-.066,1.337,1.337,0,0,1-.6-.15c-.154.016-.288-.111-.445-.059a6.223,6.223,0,0,1-1.064-.2.579.579,0,0,0-.283-.057.268.268,0,0,1-.294-.092c-.131.051-.236-.051-.357-.064-.345-.036-.677-.156-1.026-.177-.037,0-.072-.037-.107-.058a.108.108,0,0,0,.032-.007c.006,0,.008-.013.012-.02l-.035.037c-.051-.019-.12-.024-.149-.06a.8.8,0,0,0-.5-.255,2.217,2.217,0,0,1-.538-.2l.009.009a1.024,1.024,0,0,0-.037-.119c-.049-.11-.095-.118-.181-.033a.385.385,0,0,0-.045.069l.009-.01c-.224,0-.379-.192-.592-.231-.041-.007-.063-.088-.106-.119a.633.633,0,0,0-.147-.059l-.029-.024.039.014a.4.4,0,0,1-.1.06c-.02.006-.052-.015-.074-.03a4.94,4.94,0,0,1-1.068-.909c-.112-.142-.146-.313-.253-.457a1.413,1.413,0,0,1-.2-.495,6.794,6.794,0,0,1-.219-.754,1.527,1.527,0,0,1,.114-1.124,1.183,1.183,0,0,0,.1-.229,1.228,1.228,0,0,0,.033-.145,1.753,1.753,0,0,0-.174-.207.215.215,0,0,0-.234-.045,2.06,2.06,0,0,1-.269.111.447.447,0,0,0-.357.451l.009-.01a1.026,1.026,0,0,0-.241.854c.02.209.033.416.036.626a.975.975,0,0,0,.059.4,1.507,1.507,0,0,1,.126.609,1.993,1.993,0,0,0,.228.787c.017.045.068.073.052.138a.165.165,0,0,0,.076.178c.138.114.259.251.407.352a2.146,2.146,0,0,1,.4.356.283.283,0,0,0,.134.074,1.873,1.873,0,0,1,.785.458,1.357,1.357,0,0,0,.673.393.832.832,0,0,1,.325.177.592.592,0,0,0,.292.15.729.729,0,0,1,.344.143.5.5,0,0,0,.181.1,2.3,2.3,0,0,1,.741.26.921.921,0,0,0,.282.076.526.526,0,0,1,.23.088.736.736,0,0,0,.229.088c.039.011.1-.013.123.007.279.21.655.126.94.31.424.083.823.264,1.259.306.126.013.25-.006.372,0a3.287,3.287,0,0,0,.365.007,1.642,1.642,0,0,1,.657.083,1.543,1.543,0,0,0,.814.138.738.738,0,0,1,.278.072l-.01-.009c.032.057.064.045.1,0l-.007.007c.076.021.134.088.233.052a1.3,1.3,0,0,1,.618-.022,2.968,2.968,0,0,0,.827-.006,2.21,2.21,0,0,1,.865-.032.1.1,0,0,0,.041,0c.559-.117,1.134-.073,1.694-.163a1.053,1.053,0,0,0,.281-.075,3.138,3.138,0,0,1,.715-.182c.161-.033.329.032.485-.065.139-.088.313-.056.469-.1s.331-.048.492-.088a2.55,2.55,0,0,0,.391-.14c.177-.076.352-.163.519-.241l.356.139-.01-.01a.661.661,0,0,1,.172.532,12.828,12.828,0,0,0,.209,1.476.886.886,0,0,1,0,.456.418.418,0,0,0-.025.205,1.982,1.982,0,0,1,.044.616c0,.209-.009.418,0,.624a6.134,6.134,0,0,0,.136.867c0,.022.034.04.068.077.04-.03.105-.053.119-.093a5.49,5.49,0,0,0,.388-1.191c.013-.124.068-.243.083-.367s.109-.173.2-.223c-.025-.059-.122-.087-.063-.177a.789.789,0,0,0,.105-.473,3.04,3.04,0,0,1,.085-.872.966.966,0,0,0,.026-.454,4.99,4.99,0,0,0-.052-.623,1.785,1.785,0,0,0,.032-.623c0-.053,0-.134.038-.155.134-.087.068-.255.172-.36a1.713,1.713,0,0,0,.213-.357c.014-.023.032-.057.053-.062.133-.027.189-.142.276-.223a.455.455,0,0,1,.521-.1l.029-.221.206-.126a.088.088,0,0,0,.01.036c0,.006.018,0,.027.006l-.042-.037c.07-.037.138-.079.211-.11a1.539,1.539,0,0,0,.225-.082c.045-.03.057-.108.1-.15a.528.528,0,0,1,.141-.075l-.009-.011c.031.076.064.052.1,0l-.008.008c.123-.111.25-.22.368-.336.2-.194.4-.389.584-.6a.6.6,0,0,0,.216-.386.2.2,0,0,1,.027-.079,10.2,10.2,0,0,0,.507-1.237,1.462,1.462,0,0,1,.1-.228.143.143,0,0,1,.217-.028.932.932,0,0,1,.151.193c.044.076-.011.206.129.228a.314.314,0,0,1-.065.333c.052.034.148,0,.157.107a.272.272,0,0,0,.033.118,5.354,5.354,0,0,1,.449,1.162.2.2,0,0,1,.008.08c-.013.1-.045.2.1.218a1.662,1.662,0,0,1,.063.324c0,.086-.084.164.017.256.052.049-.028.162.061.226.024.018.026.077.023.115a4,4,0,0,0,.02.866.949.949,0,0,1-.067.6c-.018.03-.022.042.015.06.173.089.147.261.152.406.01.279-.006.558-.008.838,0,.181,0,.363.011.543a.661.661,0,0,1-.055.365c-.038.073.054.075.1.092a3.053,3.053,0,0,1,.072.862c.008.147.023.3.037.443a.317.317,0,0,1-.077.3c-.056.051,0,.084.013.129a.721.721,0,0,1-.036.52c-.041.073-.116.117-.026.2a.094.094,0,0,1,.011.077,4.5,4.5,0,0,0-.148,1.07.849.849,0,0,1-.033.2,1.829,1.829,0,0,0-.088.492,1.356,1.356,0,0,1-.1.356c-.02.013-.091-.009-.035.053l.027-.06a.141.141,0,0,1,.059.182,1.174,1.174,0,0,0-.189.71.332.332,0,0,1-.058.2,1.049,1.049,0,0,0-.177.539c0,.021-.035.041-.054.06a.111.111,0,0,0-.01-.033c0-.006-.015-.006-.023-.009l.042.033a.763.763,0,0,1-.247.555.115.115,0,0,0-.045.068c-.06.393-.347.689-.449,1.064a.188.188,0,0,1-.037.075c-.291.325-.449.735-.7,1.083a5.986,5.986,0,0,0-.413.678,2.233,2.233,0,0,0-.142.39,1.172,1.172,0,0,1-.321.467c-.021-.027-.017-.029.009-.01-.155.137-.308.276-.467.408a2.226,2.226,0,0,1-.23.151.436.436,0,0,1-.012.16c-.073.146-.19.264-.254.418a.529.529,0,0,1-.169.184c-.107.088-.224.165-.338.244-.354.243-.718.472-1.089.688a2.423,2.423,0,0,1-1.013.358,2.3,2.3,0,0,0-.865.292c-.086.045-.171.095-.255.145a1.268,1.268,0,0,1-.465.174c-.2.033-.4.086-.608.13-.027.006-.063,0-.08.017-.181.158-.416.139-.625.2a1.791,1.791,0,0,1-.518.116c-.165.13-.376.08-.562.141a3.768,3.768,0,0,1-.532.086,1.737,1.737,0,0,0-.2.056.989.989,0,0,1-.453.049c-.086-.014-.1-.084-.1-.158.02-.014.04-.026.01.01s-.063.086-.1.127-.095.1-.163.023c-.014-.014-.056-.025-.065-.017a.378.378,0,0,1-.377.054.96.96,0,0,0-.477.052l.009.01c-.033-.053-.065-.049-.1,0l.007-.008-.5.028c-.027,0-.064.021-.08.01-.195-.145-.4-.01-.6-.027s-.419-.006-.628-.011c-.1,0-.193-.014-.29-.024-.041,0-.086-.031-.121-.021a2.537,2.537,0,0,1-.951-.057c-.115-.006-.191-.091-.3-.1a2.761,2.761,0,0,1-.325-.018c-.151-.026-.3-.072-.448-.107a.881.881,0,0,0-.368-.064.517.517,0,0,1-.2-.045.792.792,0,0,0-.238-.062,2.289,2.289,0,0,1-.761-.207.967.967,0,0,0-.537-.21,2.907,2.907,0,0,1-.691-.282c-.513-.282-1.011-.594-1.55-.827-.177,0-.267-.119-.354-.245a.417.417,0,0,0-.217-.185c-.092-.031-.1-.173-.216-.184-.12-.15-.318-.192-.447-.338a4.519,4.519,0,0,0-.437-.386.133.133,0,0,0,.036-.01c.006,0,.007-.016.01-.025l-.038.044a1.035,1.035,0,0,1-.327-.25,3.371,3.371,0,0,0-.753-.639c-.044-.024-.069-.084-.1-.127l.022-.031-.017.037c-.181-.121-.264-.328-.413-.477-.021-.021-.011-.076-.015-.116l.023-.023-.014.033a.608.608,0,0,1-.34-.4,1.534,1.534,0,0,0-.324-.579,1.027,1.027,0,0,1-.271-.464l.025-.021-.014.031c-.147-.1-.12-.29-.2-.429a1.969,1.969,0,0,0-.207-.383c-.128-.142-.11-.34-.17-.508a1.23,1.23,0,0,0-.138-.293,2.844,2.844,0,0,1-.48-.97.369.369,0,0,0-.087-.137,1.129,1.129,0,0,1-.216-.788.456.456,0,0,0-.046-.275,1.927,1.927,0,0,1-.136-.349.528.528,0,0,1-.035-.159,3.448,3.448,0,0,0-.1-.864,1.189,1.189,0,0,1,.02-.325c-.037-.08-.088-.206-.151-.328s-.006-.252-.04-.371a4.924,4.924,0,0,1-.116-1.034.463.463,0,0,0-.023-.123c-.033-.09-.114-.183-.1-.265.038-.28-.067-.55-.033-.826a2.433,2.433,0,0,1,.05-.537,1.409,1.409,0,0,1-.051-.66,3.519,3.519,0,0,1,.047-.5c.007-.069.027-.138.029-.208a7.163,7.163,0,0,1,.166-1.111c.027-.151.074-.3.1-.45a2.924,2.924,0,0,0,.037-.408,1.976,1.976,0,0,1,.178-.85c.049-.1,0-.23.112-.305l.027.025-.037-.016a.426.426,0,0,1,.024-.161,9.422,9.422,0,0,0,.358-.872.322.322,0,0,0,.019-.08c.007-.04-.065-.113-.108-.1a.516.516,0,0,0-.229.074,1.29,1.29,0,0,1-.48.215c0-.06-.029-.084-.085-.083l-.026-.025.035.016c0,.056.02.09.082.087-.188.168-.432.107-.649.15-.052.01-.122-.078-.184-.121-.078.17-.078.17-.263.314a.528.528,0,0,0-.051-.053.052.052,0,0,0-.034-.01c-.01,0-.019.01-.029.017a.173.173,0,0,0,.049.033.371.371,0,0,0,.073,0,.167.167,0,0,1-.256.024,1.687,1.687,0,0,1-.13-.138c-.024.05-.045.091-.064.134a.28.28,0,0,1-.27.161c-.1.008-.2-.088-.275-.014-.092.088-.2.078-.305.112a.927.927,0,0,1-.98-.279l.01.009c-.031-.025-.059-.066-.094-.074a.286.286,0,0,1-.206-.189c-.016-.038-.012-.094-.039-.117a1.7,1.7,0,0,1-.37-.774,1.23,1.23,0,0,0-.057-.111l.023-.025-.014.033-.122-.1.086-.165-.181-.121a.448.448,0,0,0,.1-.461,2.5,2.5,0,0,1,.2-.951.994.994,0,0,1-.112-.159.385.385,0,0,1-.042-.2.777.777,0,0,0,.035-.37.157.157,0,0,1,.022-.118,1.3,1.3,0,0,0,.157-.6,2.527,2.527,0,0,1,.2-.764.881.881,0,0,0,.115-.259.447.447,0,0,1,.071-.233c.131-.2.272-.387.4-.585.064-.1.234-.056.26-.225.015-.1.148-.172.178-.272.038-.126.15-.194.191-.313a.444.444,0,0,1,.1-.18,2.023,2.023,0,0,0,.4-.532.237.237,0,0,1,.208-.123.155.155,0,0,0,.013.032c0,.006.014.007.02.011l-.043-.033c-.019-.176.1-.31.139-.469.006-.023.034-.056.055-.057.249-.023.336-.263.515-.379.023-.015.045-.044.068-.045a1.053,1.053,0,0,1,.157.014.177.177,0,0,0,.014.03c0,.006.013.008.019.011l-.044-.03c.108-.1.181-.253.367-.228.071-.064.148-.124.212-.195.148-.167.289-.34.55-.288.153-.179.4-.169.579-.288a1.763,1.763,0,0,1,.417-.183c.039-.014.087-.054.114-.043.2.086.342-.049.51-.1.263-.088.535-.15.8-.224.195.061.381-.037.574-.036a.5.5,0,0,0,.2-.031c.1-.047.153.043.236.074a1.886,1.886,0,0,0,.228-.049.46.46,0,0,1,.282.006.7.7,0,0,0,.449.036c.052-.018.139.064.236.112a.812.812,0,0,1,.8.1l-.008-.01c.031.068.064.064.1,0l-.008.009c.135-.014.256.107.4.045.126.059.251.119.377.176a.252.252,0,0,0,.08.022.464.464,0,0,1,.344.114c.084.091.245.041.33.159.027.037.1.035.148.064a4.432,4.432,0,0,1,.574.335,1.045,1.045,0,0,0,.389.215.932.932,0,0,1,.528.372c-.024.145-.024.145.115.181l-.01-.01a.18.18,0,0,0-.018.037.437.437,0,0,0-.018.109.1.1,0,0,0,.072.017.2.2,0,0,1,.294.048c.13.158.332.262.378.488.006.032.055.058.088.083a4.282,4.282,0,0,1,.568.683.963.963,0,0,1,.037.1c-.023.036-.05.082-.082.125a.07.07,0,0,0,.019.107.1.1,0,0,0,.074.025.261.261,0,0,1,.282.136c.063.085.13.167.212.27l.042-.3a1.326,1.326,0,0,0,.205-.084.361.361,0,0,1,.282-.043,1.886,1.886,0,0,0,.9-.1,1.433,1.433,0,0,0,.155-.062.062.062,0,0,1,.041,0c.181.081.347-.074.526-.033.053.012.111,0,.166.012s.126.006.158.04c.126.132.289.072.426.073s.27,0,.4.01a1.389,1.389,0,0,0,.365-.083.1.1,0,0,1,.04-.009,4.165,4.165,0,0,1,1.03.13l-.006-.006c.1.076.1.076.178,0ZM395.615,57.1l.086-.083.025-.029-.017.037-.084.084a.15.15,0,0,0-.039.014c-.007,0-.008.016-.012.025Zm8.486-.165a.118.118,0,0,0,.036-.01c.006,0,.006-.017.009-.026l-.037.043a.117.117,0,0,0-.039.01c-.006,0,0,.019-.007.029Zm-9.491,0c.027-.009.083,0,.033-.056l-.029.059c-.025.01-.087,0-.036.056Zm11.936.667a.084.084,0,0,0,.083.088l.025.021-.033-.014c0-.056-.037-.076-.085-.087-.027-.049-.053-.033-.079,0a.505.505,0,0,0-.056.053.046.046,0,0,0-.008.036c0,.01.012.019.018.029a.184.184,0,0,0,.034-.051.355.355,0,0,0,0-.077Zm4.024-2.6a.132.132,0,0,0,.035-.013c.006,0,.006-.016.008-.024l-.033.046a.145.145,0,0,0-.031.011c-.006,0-.008.013-.012.019Zm-19.154-.673.022-.017-.012.028C391.411,54.342,391.387,54.36,391.417,54.323Zm12.354,2.438.087.087a.75.75,0,0,0-.115.512c.017.432,0,.865-.012,1.3,0,.055-.019.111-.014.165a10.4,10.4,0,0,1,.015,1.052l-.239.309.21.06c-.007.1-.1.209.034.288a7.293,7.293,0,0,1,.006,1.038.909.909,0,0,0,0,.246,2.132,2.132,0,0,1-.026.707.374.374,0,0,0-.007.165,2.325,2.325,0,0,1-.021.743,1.968,1.968,0,0,1-.117.86.057.057,0,0,0,.007.04.475.475,0,0,1-.068.438.158.158,0,0,0,.009.189.241.241,0,0,1,.014.155c-.045.3-.08.6-.151.9a3.4,3.4,0,0,0-.028.665.066.066,0,0,0,.121.03,2.862,2.862,0,0,0,.251-.617,3.607,3.607,0,0,1,.2-.682,4.958,4.958,0,0,0,.271-1.262,1.665,1.665,0,0,1,.165-.64.114.114,0,0,0-.006-.1.347.347,0,0,1-.065-.276c.01-.209.032-.418.034-.626a3.346,3.346,0,0,1-.012-.584c.036-.184-.092-.393.08-.557.006,0-.074-.076-.077-.12a1.473,1.473,0,0,1,.006-.414c.031-.142-.031-.3.064-.428-.119-.13-.008-.325-.126-.457-.015-.017-.012-.051-.014-.078-.012-.179-.025-.359-.034-.539s-.016-.363-.024-.544a.181.181,0,0,0,.027-.015c.006,0,.007-.012.01-.018l-.028.043a.768.768,0,0,1-.057-.15,2.861,2.861,0,0,1-.091-.659,6.746,6.746,0,0,0-.079-.7c0-.138.017-.312-.116-.426l-.089-.085a.135.135,0,0,0-.008-.032c0-.006-.014-.007-.021-.011Zm1.172,2.266.026-.024-.017.034C404.931,59.052,404.915,59.061,404.943,59.027Zm2.526.181-.035.021.034.053a.133.133,0,0,0,.015.03s.014,0,.021.007l-.045-.028V59.2l.028-.022Zm-7.894-1.189a.121.121,0,0,0,.009.038c0,.006.017.008.025.012l-.045-.039-.02-.025Zm5.711.673a.169.169,0,0,0,.014.035c0,.006.015.006.023.01l-.046-.034-.028-.025Zm1.926-.168a.124.124,0,0,0,.03-.01c.006,0,.007-.014.01-.021l-.031.04-.025.026ZM390.324,40.883l.022-.024-.013.033a.141.141,0,0,0-.039.009c-.006,0-.006.019-.008.029Zm3.2-1.346.024.029-.034-.02-.014-.024Zm5.791,4.958.021-.023-.012.033a.216.216,0,0,0-.03.009c-.006,0-.009.011-.013.018Zm7.391,18.9.028-.027-.018.037a.161.161,0,0,0-.029.014c-.006,0-.006.013-.01.019Zm.5-1.26.025-.02-.015.03a.171.171,0,0,0-.03.012s-.006.014-.009.02Zm-6.048,3.108.1,0c.018.019.039.056.055.055a1.027,1.027,0,0,0,.2-.047c.087-.029.079-.1.068-.172a.156.156,0,0,0,.032-.013c.006,0,.007-.014.01-.021l-.036.041a.8.8,0,0,0-.144.045c-.068.036-.131.082-.2.124-.025-.041-.049-.046-.076,0a.193.193,0,0,0-.034.014c-.006,0-.009.014-.012.021Zm-6.295-.5.025.025-.035-.015-.028-.027Zm-1.008,0,.026.027-.036-.017a.113.113,0,0,0-.012-.038c0-.006-.017-.007-.026-.01Zm13.267-1.009.095,0a.276.276,0,0,1-.01.278,1.777,1.777,0,0,0-.171.336,2.933,2.933,0,0,1-.373.7.929.929,0,0,0-.1.182,7.374,7.374,0,0,1-.566,1.02c-.146.22-.263.461-.387.694-.024.045-.055.1,0,.152a.227.227,0,0,0,.264-.068c.213-.22.422-.444.628-.671a6.192,6.192,0,0,0,.612-1,1.529,1.529,0,0,0,.3-.681.155.155,0,0,1,.041-.071,1.589,1.589,0,0,0,.263-.652,1.137,1.137,0,0,1,.149-.292c.02-.033.045-.051.037-.1a1.282,1.282,0,0,1,.138-.645,2.892,2.892,0,0,0,.15-.478c.05-.3.076-.607.107-.912a.519.519,0,0,0-.031-.159c0-.012-.019-.029-.027-.028-.025,0-.064.009-.072.025a.778.778,0,0,0-.079.191,4.6,4.6,0,0,1-.544,1.4l-.206.061.14.107c-.028.116-.051.239-.088.357a.417.417,0,0,1-.191.266c-.023-.052-.049-.049-.076,0l-.027.028Zm-.167-.083a.133.133,0,0,0,.036-.01c.006,0,.007-.016.01-.025l-.037.044-.026.022Zm1.345,2.017.025-.021-.015.031-.087.088c-.026,0-.059,0-.076.01a.3.3,0,0,0-.06.083s.022.027.026.025a.283.283,0,0,0,.086-.053c.014-.016.01-.049.014-.075Zm.672-2.172q-.035-.044.01-.01l.02.03Zm-8.817.828.018.025-.028-.015,0-.095a.326.326,0,0,0,.084,0c.019-.006.034-.026.051-.04-.011-.007-.021-.018-.032-.02a.048.048,0,0,0-.039.009.567.567,0,0,0-.052.062l-.033.019A.515.515,0,0,0,400.158,64.322Zm-4.792-3.6a.316.316,0,0,0-.017-.027.058.058,0,0,0-.018-.01l.045.027.014.033Zm10.507-.418a.169.169,0,0,0-.03.01c-.006,0-.007.013-.01.02l.031-.04.024-.02Zm-5.463-.011c.026.053.053.086.08,0,.021-.014.052-.025.058-.043a.325.325,0,0,0,0-.1.307.307,0,0,0-.1,0c-.018.006-.028.039-.041.06l-.063.039Zm-12.1-.073c-.014-.021-.024-.037.01-.01a.206.206,0,0,0,.012.031s.013.006.02.01ZM407.3,58.779c.027,0,.056-.006.083-.011a.131.131,0,0,0,.035-.02c-.021-.008-.048-.028-.06-.021s-.033.041-.049.063a.684.684,0,0,0-.081.006c-.041.007-.049.027-.022.047a.041.041,0,0,0,.038,0A.659.659,0,0,0,407.3,58.779Zm.333,1c.026,0,.052,0,.078-.009a.137.137,0,0,0,.034-.017c-.018-.008-.043-.028-.053-.022a.221.221,0,0,0-.049.058.128.128,0,0,0-.035.016c-.006,0-.006.016-.01.025ZM395.868,59.7c.021-.01.05-.015.063-.032s0-.042,0-.064c-.015.01-.039.017-.045.03a.253.253,0,0,0-.01.074.153.153,0,0,0-.033.015s-.006.014-.008.021Zm9.669,5.222-.106.034c.012,0,.028.013.034.008a.555.555,0,0,0,.061-.053l.081-.012c.044-.007.051-.025.019-.045a.041.041,0,0,0-.039.006A.473.473,0,0,0,405.537,64.922Zm-.168-4.969a.145.145,0,0,0,.013.033c0,.006.014.008.021.011l-.045-.034c-.071-.076-.071-.076-.155,0a.146.146,0,0,0-.03.014s-.007.012-.01.018l.03-.042ZM397.723,64.4c.012.018.025.038-.01.01-.015-.021-.026-.049-.047-.06s-.037.014-.057.023a.115.115,0,0,0,.033.021C397.669,64.4,397.7,64.4,397.723,64.4ZM386.634,42.574l-.142.041.145.034a2.445,2.445,0,0,1-.3.262c-.117.076-.174.244-.259.371a.339.339,0,0,1-.076.1c-.162.1-.215.289-.32.434a.184.184,0,0,0,.061.284c.143.087.286.173.431.257a1.6,1.6,0,0,0,.225.111,2.457,2.457,0,0,1,.786.37,5.618,5.618,0,0,1,.99.526,2.355,2.355,0,0,0,.5.2c.121.028.24.064.377.1a3.38,3.38,0,0,1,.3-.222.3.3,0,0,0,.131-.364c-.027-.122-.086-.235-.123-.356a.867.867,0,0,1-.068-.529c.018-.06-.04-.1-.1-.1-.025,0-.051,0-.091,0-.127-.407-.261-.818-.382-1.231a.884.884,0,0,1-.041-.371,1.94,1.94,0,0,0-.138-.817,1.237,1.237,0,0,1-.415.108.3.3,0,0,0-.254.088,3.243,3.243,0,0,0-.324.261c-.085.088-.212.024-.3.12a1.322,1.322,0,0,1-.31.208c-.07.042-.146.076-.219.114C386.687,42.505,386.661,42.513,386.634,42.574Zm18.4,17.223a.57.57,0,0,0-.083.007c-.012,0-.021.015-.033.023.021.009.049.031.062.024s.03-.041.044-.064l.026-.022Zm-12.181,2.437a.346.346,0,0,0-.076.009c-.017.006-.028.025-.042.037.022,0,.049.014.065,0s.029-.039.044-.06S392.878,62.2,392.851,62.234Zm-.086.492c.026.039.053.05.082,0,.1-.025.085-.089.043-.15-.016-.024-.06-.029-.091-.043-.008.025-.017.049-.024.075a.224.224,0,0,0-.006.041l-.15.036Zm5.545-5.209a.131.131,0,0,0,.015.032c0,.006.014.006.021.01l-.045-.031a.666.666,0,0,0,0-.08.134.134,0,0,0-.017-.033c-.016.011-.039.019-.045.034a.318.318,0,0,0-.009.079c-.026,0-.052,0-.079.006a.07.07,0,0,0-.034.015c-.006,0-.006.016-.008.025.022,0,.051.014.066.006s.029-.041.044-.063Zm4.111.084a.7.7,0,0,0,.081-.006c.011,0,.021-.016.032-.024-.021-.01-.049-.032-.062-.025s-.029.041-.043.063a.153.153,0,0,0-.033.013s-.006.015-.008.023Zm3.535-.073c-.074-.014-.152-.042-.191.058a.089.089,0,0,0-.022.132c.006.01.025.021.029.018s.038-.025.04-.04a.23.23,0,0,0-.014-.075c.072,0,.138-.013.15-.1a.165.165,0,0,0,.037-.013c.006,0,.007-.016.01-.024Zm-.421.672a.223.223,0,0,0-.06.047c-.006.01.014.035.022.053.007-.01.018-.021.02-.033a.626.626,0,0,0,.008-.077l.033-.014Zm-3.787,7.631a.34.34,0,0,0,.076,0,.19.19,0,0,0,.05-.032c-.01-.006-.018-.017-.029-.018a.052.052,0,0,0-.036.009.659.659,0,0,0-.051.054l-.025.024Zm4.789-2.6c.066,0,.134,0,.166-.079l.025-.024-.016.033a.166.166,0,0,0-.165.08C406.52,63.259,406.518,63.254,406.538,63.227Zm-7.477-5.363.047.035-.037-.046c-.044-.118-.119-.076-.193-.037C398.927,57.881,398.994,57.87,399.061,57.864Zm12.189,3.265.088.087a.182.182,0,0,1-.116.286c-.006.119.027.249-.022.331-.146.247-.155.569-.411.757-.035.025-.043.095-.052.146-.02.107-.021.22-.051.323a1.069,1.069,0,0,1-.122.208c-.021.036-.035.076-.055.113l-.51.962c-.125.235-.251.469-.371.7a.264.264,0,0,0-.011.1.146.146,0,0,0,.2-.034,4.115,4.115,0,0,1,.445-.5c.248-.2.332-.513.573-.707.183-.36.407-.7.564-1.075.086-.206.182-.407.276-.609.035-.076.084-.146.111-.224.175-.5.351-1,.516-1.5a4.13,4.13,0,0,0,.2-1.1c.009-.181.037-.36.059-.539.053-.429.074-.862.105-1.293.016-.223.018-.447.039-.67.045-.485.071-.972.069-1.459,0-.363,0-.727-.029-1.088-.034-.417-.1-.83-.156-1.245a.256.256,0,0,0-.158-.24c0,.084,0,.152-.007.219-.01.251-.006.5-.037.752a4.151,4.151,0,0,0-.058.411.9.9,0,0,0,.055.434c.047.1-.025.253,0,.37a3.56,3.56,0,0,1,0,.707c-.154.225,0,.489-.091.723a.169.169,0,0,0-.01.041c-.041.3-.1.605-.12.91a14.521,14.521,0,0,1-.266,1.767,4.313,4.313,0,0,0-.16.987.316.316,0,0,1-.061.193.724.724,0,0,0-.153.5.339.339,0,0,1-.2.34l-.086-.089c0-.052,0-.107-.062-.111-.021,0-.045.046-.068.071Zm-12.519,5.8c.014.021.025.049.045.06s.044,0,.067-.007c-.015-.014-.027-.037-.044-.041a.278.278,0,0,0-.077,0,.523.523,0,0,0,0-.118c0-.016-.041-.034-.061-.033a.083.083,0,0,0-.059.045.065.065,0,0,0,.021.064A.514.514,0,0,0,398.731,66.928Zm3.356-9.148a.161.161,0,0,0-.014-.031c0-.006-.014-.007-.021-.01l.043.033c.021.03.037.074.068.089.052.025.111.088.17.007a.047.047,0,0,0,0-.039c-.023-.061-.077-.061-.13-.059S402.127,57.776,402.087,57.78Zm9.744-1.428a.123.123,0,0,0-.01-.03s-.013-.006-.02-.01l.038.032a.242.242,0,0,0,.013.078c.046.081.1.106.157.072a.055.055,0,0,0,.024-.03c.011-.056-.045-.115-.122-.125A.28.28,0,0,0,411.831,56.352Zm-9.57,9.831c-.053-.01-.107-.017-.159-.031s-.074.013-.081.058a.062.062,0,0,0,.006.04c.024.048.065.04.1.019s.084-.064.126-.1l.025-.024Zm2.6-6.734c.078-.086.084-.119.029-.15a.8.8,0,0,0-.076-.029c-.037-.016-.078-.032-.1.017-.007.017.011.052.029.068.038.037.084.068.126.1l-.025.025Zm2.107.347c-.2.195-.2.194-.155.246l.205-.089-.06-.166a.153.153,0,0,0,.04-.01c.006,0,.006-.018.01-.028Zm-9.079-2.1-.021-.025.031.015a2.416,2.416,0,0,0-.016.283.143.143,0,0,0,.127.138.182.182,0,0,0,.181-.071.12.12,0,0,0,.007-.151A.69.69,0,0,0,397.887,57.7Zm-3.451,6.541.346-.084c.025.03.014.027-.01.01.113-.381.1-.412-.239-.585-.045-.022-.089-.068-.158-.031-.032.084-.068.173-.1.264a.271.271,0,0,0,.075.3.856.856,0,0,1,.1.132l-.245.011c.1.074.163.122.229.164.016.01.045,0,.086,0Zm-1.585-7.043c-.019-.019-.052-.036-.055-.057a5.464,5.464,0,0,1-.089-.659c-.007-.235-.15-.452-.079-.7.017-.056-.031-.133-.058-.2a.084.084,0,0,0-.068-.032.081.081,0,0,0-.056.049c-.012.083-.014.166-.021.25a1.661,1.661,0,0,1-.064.558l-.187.029-.025-.026.034.016c-.016.142.09.1.168.109.046.535.09,1.072.139,1.607.027.292.085.582.09.874a8.981,8.981,0,0,0,.2,1.193,7.651,7.651,0,0,0,.228.89,4.137,4.137,0,0,0,.378.928c.128.229.29.438.434.658a1.128,1.128,0,0,1,.07.144c-.012.075-.12.093-.083.19.087.027.179.059.272.082a.3.3,0,0,0,.107-.014c-.138-.384-.278-.749-.4-1.12-.144-.436-.3-.871-.4-1.319-.137-.61-.29-1.217-.383-1.838a5.02,5.02,0,0,1-.081-.872.123.123,0,0,0,.035-.014c.006,0,.006-.016.009-.025l-.034.048a.243.243,0,0,1-.1-.22c0-.182,0-.364,0-.546C392.86,57.171,392.878,57.159,392.851,57.193Zm-5.714-11.186c-.055-.006-.122.007-.162-.021-.194-.134-.381-.278-.57-.42-.023-.13-.106-.146-.215-.11-.193-.136-.454-.111-.636-.292a.318.318,0,0,0-.4-.027.912.912,0,0,1-.049.408,2.955,2.955,0,0,0-.208.89c-.021.3-.068.6-.108.939a1.192,1.192,0,0,1,.153.7.129.129,0,0,0,.181.113c.195-.073.388-.154.585-.224a1.441,1.441,0,0,1,.406-.081,2.592,2.592,0,0,0,.418-.155c.134-.036.263-.08.394-.127.394-.141.8-.254,1.2-.371.027-.009.069.033.1.053a.112.112,0,0,0-.037.009c-.006,0-.006.018-.009.027l.038-.044c.053-.011.119-.006.157-.037A2.492,2.492,0,0,0,388.6,47c-.009-.132-.031-.231-.151-.291a4.191,4.191,0,0,0-.808-.421.738.738,0,0,1-.247-.152c-.064-.05-.11-.123-.173-.174-.011-.01-.064.032-.1.05Zm10.419,10.348a.176.176,0,0,0-.216.146,8.148,8.148,0,0,0-.21.977c-.037.3-.008.611-.025.916a10.473,10.473,0,0,0-.008,1.161,2.459,2.459,0,0,1-.024.332c.135.126.033.29.068.433.02.08.016.167.035.248a2.8,2.8,0,0,1,.056.823.839.839,0,0,0,.116.509.534.534,0,0,1,.086.36.617.617,0,0,0,.051.242c.04.148.089.294.124.443.048.2.075.412.132.612a3.219,3.219,0,0,1,.168.85,1.8,1.8,0,0,1,.4.646,1.5,1.5,0,0,0,.675.933.721.721,0,0,0,.124.556c.147.22.3.439.457.649a.741.741,0,0,0,.2.142.1.1,0,0,0,.125-.075.764.764,0,0,0-.035-.242c-.081-.208-.193-.4-.263-.617s-.163-.438-.239-.659c-.136-.4-.316-.775-.461-1.167a5.518,5.518,0,0,1-.373-1.018,2.119,2.119,0,0,0-.1-.448,3.918,3.918,0,0,1-.239-.841,1.816,1.816,0,0,0-.114-.479,2.891,2.891,0,0,1-.159-.687c-.048-.247-.074-.5-.111-.745-.01-.068,0-.156-.041-.2-.1-.106.056-.127.049-.2-.006-.054,0-.11-.013-.164s-.037-.132-.045-.2c-.019-.179-.019-.361-.05-.538a7.149,7.149,0,0,1-.123-1.249c0-.488-.014-.977-.023-1.465l.024-.019Zm-3.283-12.269-.028-.024.037.014a1.873,1.873,0,0,1-.348.356,3.412,3.412,0,0,0-.6.449.66.66,0,0,1-.208.136,6.808,6.808,0,0,0-1.048.677c-.084.049-.16.111-.24.167a.716.716,0,0,0-.3.44.2.2,0,0,0,.017.155.162.162,0,0,0,.147.031,5.739,5.739,0,0,1,.558-.144c.028.04.055.054.082,0l.77-.053.148-.14a2.775,2.775,0,0,0,.28.025c.082,0,.181-.054.243-.024.1.049.159-.011.236-.032.025-.006.063.04.095.062l-.024.025.014-.035a.314.314,0,0,1,.237-.022c.112.049.13-.127.235-.13a1.453,1.453,0,0,0,.165-.02c.068-.01.136-.017.2-.031a1.519,1.519,0,0,1,.566-.065,1.176,1.176,0,0,0,.642-.176,1.228,1.228,0,0,0-.135-.638c-.021-.029-.007-.081-.017-.121a2.329,2.329,0,0,0-.136-.511c-.161-.319-.453-.551-.614-.875a.322.322,0,0,0-.089-.088.61.61,0,0,0-.087-.047A5.822,5.822,0,0,0,394.273,44.086Zm-1.343-2.436-.021-.024.031.014a.122.122,0,0,1-.182.037,3.612,3.612,0,0,1-.619-.33.264.264,0,0,0-.114-.045,2.316,2.316,0,0,1-.477-.128.4.4,0,0,0-.406,0,1.349,1.349,0,0,0-.428-.092,3.3,3.3,0,0,0-.851.14.221.221,0,0,0-.134.233.431.431,0,0,0,.035.119,15.7,15.7,0,0,1,.468,1.595.178.178,0,0,1,.006.041,11.879,11.879,0,0,0,.365,1.406.356.356,0,0,0,.472.294.5.5,0,0,0,.191-.078c.15-.1.294-.21.438-.319.077-.058.146-.128.225-.184.189-.134.422-.212.547-.427a1.422,1.422,0,0,0,.448-.368.546.546,0,0,1,.1-.079c.234-.15.467-.3.7-.444a1.4,1.4,0,0,0,.488-.54l-.192-.155c.031-.007.09,0,.038-.058l-.033.064a.229.229,0,0,1-.076-.027c-.238-.208-.432-.483-.784-.521,0,0-.006-.024-.007-.037C393.13,41.577,393.009,41.669,392.931,41.65ZM389.205,54.12a.347.347,0,0,0-.13.274c-.017.124-.029.25-.035.375-.015.317-.025.633-.037.95a5.673,5.673,0,0,1,.1,1.239,5.364,5.364,0,0,0,.106.862c.171.745.3,1.5.515,2.236a3.532,3.532,0,0,0,.16.517c.081.175.14.36.206.541a4.564,4.564,0,0,0,.436.761,8.913,8.913,0,0,0,.943,1.47,1.834,1.834,0,0,1,.189.325,1,1,0,0,0,.152.247,5.344,5.344,0,0,1,.7.828,1.982,1.982,0,0,0,.29.3.616.616,0,0,0,.189.085c.045.017.12-.055.106-.1s-.037-.106-.058-.157a5.834,5.834,0,0,0-.506-.861c-.213-.326-.412-.662-.615-.994a6.756,6.756,0,0,1-.6-1.05,6.466,6.466,0,0,0-.34-.671c-.072-.135-.16-.263-.225-.4a12.387,12.387,0,0,1-.63-1.678c-.139-.453-.356-.88-.45-1.348-.033-.164-.071-.327-.094-.492-.053-.373-.088-.749-.15-1.12a7.881,7.881,0,0,1-.109-1.246c0-.251-.025-.5-.047-.751A.489.489,0,0,0,389.205,54.12Zm3.994,9.751c.084-.02.15-.032.214-.053a.153.153,0,0,0,.11-.189.257.257,0,0,0-.293-.222.176.176,0,0,0-.115.095A.356.356,0,0,0,393.2,63.871Zm12.333-.1c.044.114.007.257.083.379.037.061.091.045.142.021s.107-.089.066-.124c-.106-.089-.1-.22-.162-.325a.078.078,0,0,0-.069-.029C405.573,63.7,405.561,63.734,405.533,63.772Zm-9.971-6.353a.163.163,0,0,0-.179.134c-.013.078.067.146.161.14a.154.154,0,0,0,.158-.154A.137.137,0,0,0,395.562,57.419Zm-1.059-.642c0-.058-.08-.114-.156-.108a.154.154,0,0,0-.15.12.136.136,0,0,0,.13.134A.183.183,0,0,0,394.5,56.777Zm10.007,1.842a.38.38,0,0,0-.1.033.171.171,0,0,0-.055.185.132.132,0,0,0,.07.085.139.139,0,0,0,.107-.033.137.137,0,0,0,.038-.182C404.549,58.672,404.524,58.64,404.511,58.62Zm-1.961-.829a2.07,2.07,0,0,0,.2.288c.022.023.1,0,.142-.01.011,0,.013-.072,0-.1C402.845,57.85,402.734,57.838,402.55,57.791Zm-4.4.778c-.095-.006-.165.044-.158.111a.12.12,0,0,0,.076.078.1.1,0,0,0,.135-.105C398.2,58.621,398.164,58.591,398.149,58.569Zm-1.3-.76a.2.2,0,0,0-.02-.32l-.169.151ZM394.661,51l-.247.066c.008.085.068.1.112.122a.145.145,0,0,0,.114,0C394.694,51.16,394.7,51.1,394.661,51Zm17.231,4.1a.429.429,0,0,0-.114-.06c-.045-.01-.1.067-.094.113.013.064.063.084.121.085A.1.1,0,0,0,411.892,55.1Zm-.632,1.191.188.118c.029-.037.046-.057.06-.08a.11.11,0,0,0,.012-.04c.017-.089-.03-.138-.113-.106A.857.857,0,0,0,411.26,56.292ZM397.8,43.244c-.014-.093-.083-.152-.142-.137a.111.111,0,0,0-.075.13.107.107,0,0,0,.136.065C397.746,43.3,397.773,43.26,397.8,43.244Zm3.988,17.082.222.119c.049-.074,0-.115-.019-.158s-.067-.068-.088-.06C401.858,60.241,401.827,60.285,401.783,60.326Zm-1.53.426a.119.119,0,0,0-.146-.116.138.138,0,0,0-.084.074c-.023.067.087.15.166.122C400.219,60.821,400.236,60.774,400.253,60.752Zm2.643-.569a.205.205,0,0,0-.024.221c0,.017.039.027.062.034s.023-.013.035-.019C402.91,60.351,403.055,60.221,402.9,60.183Zm2.04,3.9a.1.1,0,0,0-.06-.142c-.039-.019-.138.036-.122.063a.261.261,0,0,0,.1.1C404.877,64.112,404.916,64.09,404.936,64.085Zm0-.818c-.088,0-.159.071-.139.131.01.029.062.071.08.064a.2.2,0,0,0,.121-.088C405,63.347,404.95,63.295,404.932,63.267Zm-9.757-6.272a.9.9,0,0,0,.076-.185c0-.028-.029-.062-.046-.094-.022.014-.055.024-.064.044A.2.2,0,0,0,395.175,56.995Zm11.144,2.1a.6.6,0,0,0-.116-.133c-.023-.014-.072.007-.1.022-.008,0-.006.055.007.072a.205.205,0,0,0,.089.075C406.22,59.142,406.257,59.118,406.319,59.1Zm-4.277,5.181c-.094.072-.147.147-.07.281C402.054,64.479,402.122,64.409,402.042,64.28Zm-3.6-6.009c-.019.068-.043.107-.033.133a.124.124,0,0,0,.084.064c.016,0,.064-.058.057-.071A.654.654,0,0,0,398.442,58.271Zm3.926,2.232a.119.119,0,0,0,0-.034c-.041-.078-.1-.1-.155-.065-.01.007-.022.02-.022.03,0,.058.075.1.15.091C402.347,60.523,402.356,60.511,402.368,60.5Zm6.827,2.02c.061-.045.137-.08.138-.173C409.14,62.39,409.14,62.39,409.194,62.522Zm-3.963-3.143c-.023-.044-.047-.092-.074-.139a.04.04,0,0,0-.035-.012c-.017.015-.045.043-.041.053a.978.978,0,0,0,.084.138c0,.006.027,0,.038,0S405.219,59.4,405.231,59.379Zm1.611,2.214c.107.074.205.039.352,0C407.046,61.564,406.946,61.514,406.842,61.593Zm-8.569-2.134c-.03.017-.073.034-.072.042a.159.159,0,0,0,.045.1.13.13,0,0,0,.1-.011.069.069,0,0,0,.014-.068A.374.374,0,0,0,398.273,59.46Zm-3.539-2.175-.064.034c.014.022.024.052.044.065a.159.159,0,0,0,.076.017c.01,0,.029-.014.029-.022a.1.1,0,0,0-.014-.066A.192.192,0,0,0,394.734,57.285Zm-2.728.115c-.01-.025-.014-.056-.031-.072-.033-.029-.095.016-.107.082a.085.085,0,0,0,.027.068C391.936,57.508,392,57.465,392.006,57.4Zm14.456,2.673a.37.37,0,0,0,.014-.106c0-.015-.041-.024-.063-.035a.652.652,0,0,0-.021.108C406.391,60.048,406.429,60.059,406.462,60.073Zm.78-.082c.035-.042.053-.06.068-.08s.059-.054.018-.093c-.009-.007-.029-.017-.032-.014a.25.25,0,0,0-.067.072C407.219,59.9,407.233,59.926,407.242,59.991Zm-10.315-.97c-.023-.009-.051-.031-.067-.025s-.026.041-.038.064c.023.01.051.031.069.025S396.914,59.045,396.926,59.021Zm-2.819,5.1-.029-.073a.285.285,0,0,0-.061.041.143.143,0,0,0-.035.073c0,.02.016.06.025.06a.1.1,0,0,0,.069-.029A.235.235,0,0,0,394.107,64.118Zm4.226-4.3c-.033.018-.066.024-.069.038a.071.071,0,0,0,.025.062c.012.01.04,0,.061-.006Zm-4.607,4.135c-.011-.007-.021-.019-.033-.021a.061.061,0,0,0-.039.007.051.051,0,0,0-.024.031c0,.038,0,.077,0,.115a.465.465,0,0,0,.073-.062A.214.214,0,0,0,393.726,63.95ZM387.5,48.319c.034-.018.064-.025.08-.044.04-.044.009-.079-.029-.1-.015-.008-.064.012-.064.022A.594.594,0,0,0,387.5,48.319Zm-1.054.164c.059,0,.113-.057.092-.105a.082.082,0,0,0-.056-.045c-.058-.006-.112.055-.092.1C386.4,48.457,386.427,48.468,386.447,48.483Zm8.8,15.3a.139.139,0,0,0-.008-.181.047.047,0,0,0-.038-.006c-.011,0-.029.013-.029.021A.164.164,0,0,0,395.25,63.782Zm-1.659-.061c.131.009.193.04.24-.038a.043.043,0,0,0,0-.037c0-.01-.021-.026-.027-.024C393.751,63.642,393.7,63.666,393.59,63.72Zm.786-4.891c-.036-.034-.067-.081-.083-.076-.034.01-.06.047-.09.072.028.026.053.064.087.075C394.308,58.9,394.339,58.86,394.376,58.829Zm-.889-.146-.076.051.072.085.085-.072Zm5.4-.555a.33.33,0,0,0-.074-.075c-.013-.007-.043.02-.065.031a.479.479,0,0,0,.064.084C398.817,58.173,398.851,58.146,398.886,58.127Zm13.234-2.02c-.021.013-.06.03-.059.039a.116.116,0,0,0,.116.091c.01,0,.032-.018.031-.018a.851.851,0,0,0-.053-.095C412.149,56.115,412.132,56.113,412.12,56.108Zm-2.16,5.055c-.01-.024-.015-.057-.033-.069s-.045.014-.068.023c.01.024.015.057.033.068S409.937,61.17,409.961,61.162Zm2.027-3.763a.366.366,0,0,0-.105-.014c-.013,0-.02.042-.029.064a.3.3,0,0,0,.095.028C411.959,57.477,411.97,57.435,411.987,57.4Zm-11.6-.018a.661.661,0,0,0-.144,0c-.019,0-.031.037-.046.057.02.007.044.025.059.02A.878.878,0,0,0,400.384,57.38Zm6.179,4.2c-.021.013-.053.021-.06.041a.071.071,0,0,0,.022.064c.027.023.083-.014.077-.051C406.6,61.61,406.577,61.593,406.564,61.576Zm-4.4-.154-.033-.07a.442.442,0,0,0-.094.064.07.07,0,0,0,.006.068C402.078,61.516,402.147,61.48,402.167,61.421Zm1.764,5.605-.046-.074-.083.057c.014.02.029.057.04.056A.366.366,0,0,0,403.931,67.026Zm-2.709-1.51a.1.1,0,0,0-.006-.037c-.006-.01-.021-.021-.029-.019a.37.37,0,0,0-.074.035.779.779,0,0,0-.065.049.479.479,0,0,0,.114.019C401.184,65.563,401.2,65.533,401.223,65.517ZM401.81,43c.01.019.017.05.033.054s.042-.012.064-.019l-.041-.082Zm-8.546,21.686c-.006.02-.025.046-.018.057s.04.028.061.041c.008-.023.028-.051.021-.068S393.287,64.694,393.264,64.685Zm-5.276-16.6v-.028l-.13-.006v.033Zm22.831,13.644c-.026-.019-.052-.039-.08-.056l-.023.023c.023.026.047.05.071.075ZM392.106,54.8a.439.439,0,0,0-.045.059s.019.027.022.025a.437.437,0,0,0,.062-.037Zm16.433,8.6a.694.694,0,0,0-.076-.053s-.02.013-.029.019l.074.075Zm3.548-8.5c-.037-.014-.066-.033-.079-.025a.088.088,0,0,0-.04.064c0,.014.045.044.049.041A.718.718,0,0,0,412.087,54.9Zm-7.6,6.14.07-.027c-.013-.021-.021-.05-.039-.062s-.054.014-.055.023S404.474,61.014,404.483,61.036Zm-5.424-2.895a.35.35,0,0,0-.043.049s.01.02.015.03l.06-.068Zm2.4,8.02.064-.03c-.011-.007-.021-.021-.032-.021a.512.512,0,0,0-.078.012Zm1.855-8.345c-.013-.02-.021-.048-.039-.057s-.041.006-.062.01c.01.021.016.053.033.061S403.286,57.823,403.309,57.816Zm2.639,1.037a.99.99,0,0,0,.06-.083s-.015-.018-.024-.028l-.08.076Zm-8.6,5.675-.014-.068c-.011.006-.028.011-.033.021a.364.364,0,0,0-.021.063Zm10.34-5.413.062.056c.009-.011.027-.026.025-.032a.423.423,0,0,0-.041-.064Zm-1.715-1.125.029-.058a.181.181,0,0,0-.055,0c-.009,0-.014.018-.021.028Zm-10.055-6.812c-.021.013-.052.021-.062.039s.006.045.011.068c.023-.011.058-.016.065-.033S395.925,51.2,395.919,51.178Zm3.676-6.7c.033.022.06.043.09.06,0,0,.021-.015.025-.025.018-.046-.01-.069-.049-.073C399.645,44.435,399.625,44.456,399.6,44.474ZM408.2,63.363c.026-.029.05-.054.073-.081,0,0-.018-.024-.023-.022-.03.01-.058.025-.087.037ZM394.826,51.434c.036.014.064.037.08.029a.083.083,0,0,0,.032-.066c0-.017-.027-.033-.042-.049Zm4.05,11.848a.3.3,0,0,0-.033.058c0,.006.019.03.024.029a.358.358,0,0,0,.06-.03Zm-.589-1.96c-.035-.02-.067-.038-.1-.053,0,0-.022.017-.025.029-.011.053.026.072.068.075C398.245,61.374,398.263,61.346,398.288,61.322Zm7.728-.066a.221.221,0,0,0,.068.03.254.254,0,0,0,.076-.022.215.215,0,0,0-.068-.03A.207.207,0,0,0,406.016,61.256Zm.258-4.061c-.021.012-.056.021-.059.037s.017.048.027.072l.085-.059Zm4.865,4.106c-.021-.008-.045-.027-.061-.021s-.031.034-.046.053l.088.03ZM394.4,65.291c-.024-.009-.05-.028-.069-.022s-.021.041-.03.062c.02.007.047.026.059.019S394.384,65.311,394.4,65.291Zm3.541-.368-.017-.033-.058.029.028.048Zm8.153-4.392c.02.015.04.031.06.044l.024-.025L406.1,60.5ZM391.533,49.17c-.022-.008-.05-.028-.064-.021s-.022.041-.033.062c.019.008.046.027.056.021A.207.207,0,0,0,391.533,49.17Zm10.71,8.252c.045-.007.047-.031.006-.045a.184.184,0,0,0-.077.006l0,.025A.213.213,0,0,0,402.243,57.423Zm-5.907,1.255c-.014.019-.041.038-.041.058s.021.044.034.066c.015-.02.041-.039.041-.06S396.348,58.7,396.335,58.678Zm3.332-.01-.009-.027c-.034,0-.068.011-.1.018.011.006.022.019.033.019A.639.639,0,0,0,399.668,58.668Zm-5.187-1.484.066-.04c-.021-.014-.042-.04-.063-.039s-.043.024-.065.038Zm8,4.319-.018-.068c-.021.013-.048.021-.06.04s.007.037.013.057Zm.679-1.157c-.009.006-.026.015-.025.018a.515.515,0,0,0,.026.066l.05-.032Zm.469-.512c-.022-.011-.045-.031-.068-.031s-.047.02-.071.031a.215.215,0,0,0,.07.03C403.581,59.863,403.6,59.844,403.628,59.833ZM403,63.4a.728.728,0,0,0-.045.084c0,.006.02.028.021.027.029-.018.056-.038.084-.059Zm2.835-3.565a.227.227,0,0,0-.029.07.178.178,0,0,0,.029.066.2.2,0,0,0,.031-.07C405.862,59.881,405.842,59.858,405.831,59.836Zm-10.563,1.25a.4.4,0,0,0-.041.057c0,.006.012.021.018.033l.057-.079Zm12.645-3.009c0,.011-.012.024-.01.033.009.042.026.044.043.006a.047.047,0,0,0-.006-.035S407.923,58.079,407.914,58.077Zm-13.434,5.114c-.007-.01-.016-.027-.022-.025a.366.366,0,0,0-.061.02c.007.01.017.027.022.026A.463.463,0,0,0,394.479,63.191Zm11.026-.158c-.009,0-.022,0-.025.009a.09.09,0,0,0-.008.033l.046-.011Zm-6.241-4.865c0,.01-.012.021-.01.03.008.037.024.039.039.006a.046.046,0,0,0-.006-.032S399.273,58.169,399.265,58.169Zm15.308-5.732c-.01.006-.028.014-.027.019a.468.468,0,0,0,.021.064c.01-.007.029-.016.028-.021A.338.338,0,0,0,414.574,52.436Zm-4.868-.088c0,.01,0,.023.008.026a.087.087,0,0,0,.036.007l-.011-.045Zm.512,7.937-.021-.034c-.009.01-.028.025-.025.029a.22.22,0,0,0,.035.042ZM404.759,58.4c0,.01,0,.025.006.029a.045.045,0,0,0,.037.007c.032-.019.029-.039-.008-.05C404.784,58.38,404.771,58.391,404.759,58.4Zm-1.939,0c0,.009,0,.024.006.027a.043.043,0,0,0,.035,0c.031-.016.028-.034-.008-.044C402.843,58.379,402.831,58.389,402.819,58.394Zm3.535,1.947a.134.134,0,0,0,.037.01s.009-.015.013-.022a.122.122,0,0,0-.036-.01S406.359,60.333,406.355,60.341Zm5.356,3.04-.017.032.024.006ZM401.667,58.3l-.031.017.017.025c.016-.008.031-.019.046-.029Zm-.8.041-.009.031.031-.021Zm5.2,5.008c-.011,0-.025-.014-.035-.011-.042.01-.044.028,0,.045a.043.043,0,0,0,.036-.007S406.064,63.358,406.065,63.35Zm-.3.052-.018-.029-.022.023a.212.212,0,0,0,.029.037Zm-.336-.011-.021-.031-.025.025a.211.211,0,0,0,.035.041Zm2.39-3.028.029-.02c-.009-.009-.022-.025-.025-.024a.212.212,0,0,0-.038.033Zm-1.585-2.12c0-.008-.009-.021-.017-.023a.1.1,0,0,0-.033,0,.131.131,0,0,0,.022.035ZM396.273,51.4l-.014-.031c-.007.009-.018.017-.019.026s.008.021.013.032Zm-4.036,6.343a.166.166,0,0,0,.038.009s.009-.014.013-.023a.122.122,0,0,0-.037-.009S392.242,57.731,392.237,57.74ZM395.4,56.7l.032-.006-.009-.037c-.01,0-.026,0-.027.007A.111.111,0,0,0,395.4,56.7Zm10.76.949a.364.364,0,0,0-.061-.025c-.007,0-.018.013-.026.02.012.014.026.04.037.039S406.145,57.657,406.161,57.644ZM396.072,61.6c0-.009-.009-.022-.017-.025a.082.082,0,0,0-.033,0,.187.187,0,0,0,.022.037ZM395.908,57a.119.119,0,0,0-.009.032s.015.007.023.01a.119.119,0,0,0,.009-.032S395.916,57,395.908,57Zm5.048,4.52-.064-.008c.01.007.019.019.029.02S400.944,61.522,400.956,61.517Zm.507-.076c-.006.008-.015.016-.016.025s.006.02.01.03c.006-.008.015-.016.017-.025A.081.081,0,0,0,401.463,61.441Zm-5.485-3.866c0-.008,0-.021-.006-.023a.088.088,0,0,0-.033-.006l.006.039Zm8.659,3.776c-.006-.009-.014-.025-.02-.025a.6.6,0,0,0-.061.019c.007.009.016.026.021.025A.349.349,0,0,0,404.637,61.351ZM396.462,57.2l-.057.029c.009.01.02.029.025.028a.411.411,0,0,0,.062-.031Zm-.138.294c0,.01-.012.021-.01.03.008.037.024.039.039.006a.04.04,0,0,0-.006-.032S396.332,57.5,396.324,57.5Zm13.814,5.139-.02-.033-.027.021a.405.405,0,0,0,.033.049Zm.719-7.937a.153.153,0,0,0-.037-.009s-.006.017-.01.027a.116.116,0,0,0,.036.008S410.854,54.708,410.857,54.7Zm-5.284,5.953c.009,0,.022-.007.025-.014a.1.1,0,0,0,0-.034l-.037.019Zm-8.89,5.276-.011-.032c-.007.009-.018.017-.018.026s.006.021.01.03Zm-1.028-5.275a.475.475,0,0,0-.028.079c0,.006.017.018.027.026.014-.017.037-.033.039-.052S395.671,60.674,395.655,60.654Zm-3.546-5.1c0-.008,0-.021-.006-.025a.1.1,0,0,0-.033-.008l.007.045Zm11.39,5.188c0,.007,0,.019,0,.021a.142.142,0,0,0,.032.007l-.006-.037Zm1.572.016c-.006-.008-.012-.02-.02-.022s-.021,0-.033,0a.175.175,0,0,0,.025.033Zm7.043-4.885a.363.363,0,0,0-.063-.026s-.023.023-.022.025.027.038.042.038S412.1,55.89,412.115,55.877ZM395.425,66.1l-.011-.03c-.006.009-.016.017-.017.025s.006.02.01.03Zm3.241-8.295c-.011,0-.024-.013-.034-.01-.041.009-.042.026,0,.043a.047.047,0,0,0,.035-.007S398.665,57.812,398.666,57.8Zm-1.744,4.217-.006.061c.007-.01.019-.018.02-.028S396.928,62.032,396.922,62.02ZM409.707,60.9l-.033-.028.008.037Zm-10.931-4.448a.13.13,0,0,0,.009-.033s-.015-.006-.023-.01a.1.1,0,0,0-.008.033S398.768,56.45,398.776,56.454Zm2.613,4.471c.007.009.015.025.02.025a.47.47,0,0,0,.062-.02c-.007-.009-.016-.025-.021-.025A.337.337,0,0,0,401.389,60.925Zm6.723-4.483-.007-.033-.017.042Zm-12.623,8.917.017-.033-.025-.006Zm-.326-1.173c-.01.008-.029.018-.027.023a.378.378,0,0,0,.025.062c.01-.008.028-.018.026-.024A.338.338,0,0,0,395.163,64.187Zm7.139-4.005c-.006.01-.018.02-.019.03a.094.094,0,0,0,.013.035c.008-.01.02-.02.021-.03S402.307,60.193,402.3,60.181Zm-8.1-13.6.032-.02c-.009-.009-.022-.025-.026-.023a.19.19,0,0,0-.04.032Zm17.358,18.148-.02-.031c-.009.009-.025.022-.024.025a.218.218,0,0,0,.033.039Zm-.576-5.305.034-.016c-.01-.007-.018-.02-.028-.021s-.022.009-.033.014Zm-15.067,4.784a.3.3,0,0,0,.022-.056c0-.006-.014-.016-.022-.024l-.041.041Zm6.8-4.29c.01-.009.028-.02.026-.026a.411.411,0,0,0-.027-.064c-.01.008-.029.019-.027.025A.345.345,0,0,0,402.719,59.922Zm3.044-.958-.008-.033-.017.041Zm-11,1.311-.027-.026a.381.381,0,0,0-.03.06c0,.006.016.017.025.025Zm15.851-1.116c-.008-.01-.017-.028-.022-.027a.45.45,0,0,0-.063.021c.007.01.017.028.022.027A.366.366,0,0,0,410.617,59.159Zm-.425.074.016-.051c-.009,0-.023,0-.024.008A.144.144,0,0,0,410.192,59.233Zm-.511-.011c.01,0,.026-.006.026-.009a.114.114,0,0,0-.007-.036c-.009,0-.025,0-.025.009A.113.113,0,0,0,409.681,59.222ZM399.8,64.488l-.018-.028-.022.021a.212.212,0,0,0,.029.037Zm-6.527-.055-.03.016.015.023a.381.381,0,0,0,.046-.026Zm7.7-.008-.007-.033-.019.041Zm10.388-5.148.011.037.013-.034Zm-8.793.694-.007-.03-.016.037Zm4.712-.842-.025-.056c-.009.008-.026.018-.025.025a.387.387,0,0,0,.025.059Zm-13.533.264,0-.036-.041.011a.123.123,0,0,0,.012.033Zm-.254,5.031.009-.035-.048.009a.092.092,0,0,0,.013.031S393.483,64.428,393.491,64.425Zm1.553-5.116c-.01,0-.022.008-.028.016s.006.017.01.025l.046-.027Zm-7.617-13.661c-.007.01-.02.019-.02.029s.01.023.014.035c.008-.01.02-.02.021-.03S387.433,45.66,387.427,45.648ZM394.153,63.8c-.006.008-.015.015-.016.023s.006.02.009.029c.006-.008.015-.016.017-.024S394.156,63.8,394.153,63.8Zm10.738-5.134c-.009-.006-.016-.017-.025-.017s-.021.007-.031.01c.009.006.017.017.025.017S404.88,58.665,404.89,58.661Zm-1.6,8.633c-.01,0-.021-.011-.03-.01-.037.008-.039.024,0,.039a.041.041,0,0,0,.031-.006S403.288,67.3,403.29,67.295ZM385.637,48.5l-.006-.025a.139.139,0,0,0-.036.006l.007.025A.139.139,0,0,0,385.637,48.5ZM395.689,65.5l.07-.029-.017-.029c-.028.009-.054.021-.081.032Zm-8.276-16.934c-.01,0-.021-.011-.031-.009-.037.009-.04.026-.006.042a.038.038,0,0,0,.032-.008C387.413,48.586,387.412,48.573,387.412,48.564Zm-.994.1-.059-.014c0,.009.006.024.01.025A.221.221,0,0,0,386.419,48.663Zm14.553,11.652-.007-.033-.018.04Zm5.684-1.668c-.012,0-.024-.012-.034-.01-.042.008-.044.024,0,.041a.047.047,0,0,0,.035-.006S406.654,58.655,406.655,58.646ZM399.9,64.973l.032-.011c-.009-.006-.017-.018-.027-.018s-.02.007-.03.011Zm-4.6-4.715c0-.009-.006-.023-.013-.025a.105.105,0,0,0-.035,0l.018.04Zm11.185,3.7-.05-.012.007.02A.185.185,0,0,0,406.487,63.955Zm1.379-5.208.032.008-.021-.03ZM406.74,63.6c-.012,0-.025-.014-.035-.011-.043.01-.045.028,0,.045a.046.046,0,0,0,.036-.007C406.742,63.624,406.74,63.61,406.74,63.6Zm-3.273-3.933c-.009-.006-.016-.015-.025-.016s-.021.006-.03.009c.008.006.016.016.025.017A.078.078,0,0,0,403.467,59.667ZM385.991,40.7c0,.012-.013.024-.01.034.01.041.028.042.044,0a.048.048,0,0,0-.007-.035S386,40.705,385.991,40.7Zm28.643,18.03a.166.166,0,0,0-.038-.009s-.008.016-.012.024a.113.113,0,0,0,.037.01S414.63,58.743,414.634,58.734Zm-3.953,2.274.021.014,0-.022Zm-3-.858-.016.025.024,0Zm-8.135.272-.024-.014,0,.022Zm-.612-.156.017-.024-.026,0Zm7.061.59.016-.025-.025,0Zm-5.041,3.363.014-.022-.021,0Zm2.184-.623-.014.021.024,0Zm-7.669.182.029.016,0-.028Zm11.284-.018-.016.025.027,0Zm-14.049.1.021.014,0-.021Zm-1.68.841.021.014,0-.022Zm14.13-.353-.016.023.026,0Zm1.035.273c-.007-.008-.014-.022-.022-.022s-.018.011-.027.018c.008.008.014.022.023.023S406.181,64.63,406.19,64.623Zm-6.141-2.855-.019-.013,0,.019Zm1.489.22v.052l.026-.021Zm-7.809-.709.014-.022-.023,0Zm5.131-.034-.015.021.022,0Zm1.171.253-.014.019.021,0Zm-.169,4.988.016-.025-.025,0Zm10.674-3.979-.014.02.021,0Zm1.258.367.014-.021-.024,0Zm-13.61-18.513-.014.018.022,0Zm-6.135.537.017-.024-.029,0Zm3.274,6.132.016-.022-.025,0Zm1.353.723-.014.021.021,0Zm-9.5-3.279-.015.022.025,0Zm-1.446.6.026.017,0-.026Zm11.276-6.949.016-.025-.026,0Zm2.713,1.83c-.007-.008-.014-.022-.021-.023s-.017.012-.025.019c.007.008.014.021.021.022S399.711,43.964,399.719,43.958Zm-6.327-3.851.014-.02-.022,0Zm14.118,17.78-.014.021.022,0Zm-8.166.1.022.015,0-.023Zm-2.417,1.663-.018.028.029,0Zm8.295-.656.025.016,0-.026Zm-9.9.156-.014.021.022,0Zm10.165.114.014-.02-.021,0Zm5.887-2.723-.017.025.027,0Zm-16.555.088-.014.019.021,0Zm17.327-2.172-.026-.017,0,.029ZM400.787,57.5l.014-.023-.024,0Zm-1.6.084.013-.02-.02,0Zm-.853.146.021.014,0-.022Zm4.873-.671.021.015,0-.023Zm4.807.223c-.01.01-.029.021-.028.026.014.04.034.041.053,0C408.042,57.306,408.023,57.291,408.015,57.281Z" transform="translate(-382.637 -33.945)"/><path class="a" d="M412.673,41.812a1.443,1.443,0,0,1-.282.69,2.986,2.986,0,0,0-.352.757,2.028,2.028,0,0,1-.22.492,1.7,1.7,0,0,0-.2.457,2.621,2.621,0,0,1-.237.576,2.379,2.379,0,0,0-.2.537,1.389,1.389,0,0,1-.207.5.54.54,0,0,0-.073.278.2.2,0,0,1-.146.183c-.022.006-.059.037-.056.047.052.194-.1.261-.2.373a.6.6,0,0,0-.149.274c-.033.163-.091.321-.125.484a.17.17,0,0,1-.118.135c-.047.022-.06.116-.086.178-.014.037-.014.1-.037.109a.449.449,0,0,0-.282.451l-.483.294.01-.01a1.163,1.163,0,0,1-.53.082.725.725,0,0,1-.6-.306.629.629,0,0,0-.189-.154c-.119-.082-.147-.138-.059-.256.064-.084.06-.1-.034-.125-.014,0-.034,0-.039-.012a.515.515,0,0,1-.083-.47c.085-.165.111-.343.178-.509a2,2,0,0,1,.152-.385c.085-.121,0-.278.116-.38l-.008.008c.041-.033.059-.065,0-.1l.01.008c.07-.084.165-.139.215-.249.128-.278.271-.55.419-.818a.578.578,0,0,0,.119-.305.232.232,0,0,1,.048-.115,5.754,5.754,0,0,0,.5-1.091c.072-.21.195-.4.288-.605.169-.368.336-.737.494-1.108a1.231,1.231,0,0,1,.27-.418.129.129,0,0,0,.01.037c0,.006.019.006.029.008l-.045-.037c.014-.184.166-.285.256-.422a.768.768,0,0,0,.138-.243c.059-.241.2-.453.249-.706a2.868,2.868,0,0,1,.277-.648,2.468,2.468,0,0,1,.239-.437,8.221,8.221,0,0,0,.494-.965c.064-.114.051-.272.152-.379a2.32,2.32,0,0,1,.3-.636c.087-.191.171-.382.259-.572a2.762,2.762,0,0,1,.165-.337,2.292,2.292,0,0,1,.217-.254l-.014-.294a.251.251,0,0,1,.033-.063c.076-.083.158-.158.231-.243a.7.7,0,0,1,.463-.258.581.581,0,0,0,.407-.255.528.528,0,0,1,.254-.194,1.674,1.674,0,0,0,.289-.164l.255.132c.065-.054.065-.054.035-.233a.331.331,0,0,1,.072-.013c.068,0,.134.016.2.021.007,0,.025-.021.023-.025a.861.861,0,0,0-.054-.088c.091-.021.175-.043.26-.062s.163-.026.242-.048c.094-.025.185-.06.278-.091l-.007-.01.011.18c-.047.014-.094.026-.14.042a.035.035,0,0,0-.01.033c.012.016.033.042.045.04a.622.622,0,0,0,.1-.045.114.114,0,0,0,.006.038c0,.006.017.007.027.01l-.043-.039V34c.073-.033.078-.105.095-.169l-.007.008c.072.013.135.069.216-.006a.664.664,0,0,1,.211-.089.151.151,0,0,0,.01.038c0,.006.017.007.025.01l-.045-.038c0-.026,0-.06.015-.079a.7.7,0,0,1,.384-.189c.024-.007.053.068.1.027.1-.091.258-.053.336-.187.044-.076.122-.013.185,0a.134.134,0,0,0,.013.031c0,.006.014.007.021.01l-.043-.032c.007-.011.013-.03.023-.033.13-.035.263-.063.393-.1s.233-.083.349-.125a.118.118,0,0,0,.01.036c0,.006.017.006.025.009l-.044-.037a.239.239,0,0,1,.216-.107c.208.008.386-.115.6-.115a1.59,1.59,0,0,0,.484-.171.867.867,0,0,1,.376.284.458.458,0,0,0,.127.1c.019.01.055,0,.078-.014.006,0,0-.053-.007-.059-.1-.054-.03-.115-.012-.175l-.009.01c.143.009.215.066.234.228a2.142,2.142,0,0,1,.066.383c.064.071.122,0,.182-.012a.185.185,0,0,1,.218.074c.006.1-.149.13-.111.246a.526.526,0,0,0-.113.039c-.014.008-.012.044-.018.067.023,0,.055.006.067-.006a.612.612,0,0,0,.065-.1c.184.087.189.09.074.251-.055.076.033.091.039.141-.075.212-.348.259-.4.5l-.42.049c-.029.076,0,.181-.111.2a3.13,3.13,0,0,1-.523.131,1.007,1.007,0,0,0-.278.08,2.868,2.868,0,0,1-.317.1c-.042.009-.095-.033-.146-.054a1.751,1.751,0,0,1-.955.363,2,2,0,0,0-.786.239,1.079,1.079,0,0,1-.5.2c-.053,0-.113.028-.156.01a.309.309,0,0,0-.349.051.275.275,0,0,1-.333.043c-.077.108-.134.2-.206.284a3.627,3.627,0,0,0-.652,1.2c-.025.069-.071.074-.122.088a.112.112,0,0,0-.011-.033c0-.006-.015-.006-.023-.008l.043.032a1.825,1.825,0,0,0-.293.645.765.765,0,0,1-.117-.022c-.072-.025-.139-.029-.176.049a.145.145,0,0,0,.052.182c.031.026.06.054.1.091a1.549,1.549,0,0,1-.278.677c-.068.073-.065.208-.1.312-.057.164-.1.2-.308.294l.053.068c.024.08-.041.13-.087.168a1,1,0,0,0-.285.483l.009-.008c-.041.033-.059.066,0,.1l-.01-.008c-.011.065-.021.131-.034.2s-.013.135-.042.147c-.144.057-.114.2-.165.3a1.454,1.454,0,0,1-.427.54C412.651,41.8,412.638,41.783,412.673,41.812Zm7.719-8.405a.544.544,0,0,0,.068-.081c0-.008-.02-.033-.032-.05-.008.01-.021.019-.022.029,0,.037,0,.075,0,.111a.162.162,0,0,0-.029.012c-.006,0-.009.011-.013.017Zm-4.871.964c-.02.012-.051.02-.057.036s.012.043.02.065l.08-.049Zm3.385.173h-.035a.39.39,0,0,0,.021.056c0,.006.019,0,.029.006Zm-6.693,5.027.064-.029a.468.468,0,0,0-.036-.05s-.03.007-.031.014A.359.359,0,0,0,412.213,39.571Zm5.2-5.866c-.008-.008-.017-.025-.023-.023a.285.285,0,0,0-.061.023c.009.008.018.024.025.022A.309.309,0,0,0,417.411,33.705Zm3.013.161a.167.167,0,0,0-.033-.007s-.006.014-.009.022a.124.124,0,0,0,.033.006S420.421,33.874,420.424,33.866Zm0,.168a.33.33,0,0,0-.014.062c0,.009.015.017.024.026a.182.182,0,0,0,.033-.056C420.469,34.058,420.44,34.045,420.425,34.034Zm-3.81-.1-.031.016.016.025a.526.526,0,0,0,.046-.026Zm-2.005.885.032-.02c-.009-.009-.022-.026-.025-.025a.271.271,0,0,0-.041.034Zm5.109-1.927.032-.021-.025-.025a.319.319,0,0,0-.041.034Zm.025.231c0-.009-.007-.023-.014-.025a.1.1,0,0,0-.037,0l.019.041Zm-.6-.019-.036.013.034.014Zm-4.253,1.459.014-.023-.021,0Zm4.964.046-.015.023.024,0Zm-4.624,1.766-.012.019.019,0Zm3.207-3.093-.019-.014,0,.022Zm-6.256,5.125.029.018,0-.029Z" transform="translate(-387.754 -32.687)"/><path class="a" d="M416.91,51.638c-.175.109-.348.221-.526.325a.416.416,0,0,1-.193.064.275.275,0,0,0-.192.059c-.121.1-.239.127-.358,0-.01-.011-.054,0-.079.012-.059.026-.08-.018-.083-.053a.376.376,0,0,1,.185-.393,2.027,2.027,0,0,0,.414-.4c.224-.214.359-.523.674-.642l.313-.36c.066.029.125.06.187.084a.151.151,0,0,0,.212-.064c.049-.08.04-.137-.039-.22-.028-.029-.06-.052-.094-.081.044-.136.083-.269.129-.4a.955.955,0,0,0-.271-1.062c-.138-.137-.293-.256-.445-.387l-.042-.193-.162-.021a.264.264,0,0,1-.042-.069c-.017-.081-.018-.165-.041-.244s-.142-.176-.229-.139a.8.8,0,0,1-.777-.148c-.046-.029-.111-.033-.151-.067a.486.486,0,0,1-.083-.137.553.553,0,0,0,.081,0c.011,0,.021-.016.03-.025-.02-.01-.049-.033-.059-.026s-.03.041-.044.063c-.066.014-.125.049-.2.006-.241-.138-.488-.266-.73-.4a.34.34,0,0,0-.183-.075c-.076,0-.133-.116-.105-.189a2.663,2.663,0,0,1,.37-.879.1.1,0,0,0,.023-.035c.076-.312.324-.552.35-.879a.232.232,0,0,1,.343.033.577.577,0,0,0,.231.161,3.438,3.438,0,0,1,.6.282.975.975,0,0,0,.2.065,1.584,1.584,0,0,1,.585.3c.123.124.307.183.434.317a.246.246,0,0,0,.232.063c.1-.019.1.073.125.133l-.026.022.018-.031c.107.066.218.126.32.2.085.062.208.08.228.223.016.119.171.1.234.207.144.238.325.452.482.683.061.091.07.231.147.293a.621.621,0,0,1,.185.518c0,.07,0,.141.014.209a.794.794,0,0,1-.128.633.19.19,0,0,0-.016.154.157.157,0,0,1-.074.212.321.321,0,0,0-.141.139,1.658,1.658,0,0,1-.5.7.1.1,0,0,0-.043.068c.02.294-.209.449-.375.62-.251.259-.541.48-.815.717a.627.627,0,0,1-.108.062.463.463,0,0,0-.08-.073c-.01-.006-.038.021-.058.033.01.009.019.023.03.025C416.833,51.636,416.872,51.636,416.91,51.638Zm1.082-2.692c.009,0,.04-.028.01.01l-.022.019Zm-.7-.969c.1.1.181.165.308.145a.26.26,0,0,0,.208-.266.235.235,0,0,0-.234-.191,1.278,1.278,0,0,0-.223.07Zm.678,1.964-.063-.028a.235.235,0,0,0,0,.058c0,.009.02.014.03.021Z" transform="translate(-389.052 -35.123)"/><path class="a" d="M404.24,57.763a.243.243,0,0,1,.01-.073c.006-.014.03-.021.045-.033.007.01.018.02.019.03s0,.049,0,.075l.007-.007h-.1Z" transform="translate(-387.053 -37.794)"/><path class="a" d="M407.723,43.514c.087-.088.087-.088.165,0l.006-.008h-.178Z" transform="translate(-387.766 -34.888)"/><path class="a" d="M423.546,32.842c-.026,0-.051-.006-.076-.013a.171.171,0,0,1-.034-.017c.018-.006.041-.022.051-.017a.25.25,0,0,1,.051.056Z" transform="translate(-390.981 -32.709)"/><path class="a" d="M406.75,77.738c-.027.031-.055.053-.083,0l-.007.008.1,0Z" transform="translate(-387.55 -41.9)"/><path class="a" d="M391.453,48.7l.032.014-.023-.023Z" transform="translate(-384.44 -35.961)"/><path class="a" d="M398,49.444l.035.013-.028-.021Z" transform="translate(-385.779 -36.112)"/><path class="a" d="M408.249,49.522a.342.342,0,0,1-.029-.059s.02-.014.03-.022l-.01-.008v.1Z" transform="translate(-387.869 -36.112)"/><path class="a" d="M398.747,53.763c.027-.077.054-.059.081,0l.007-.009h-.1Z" transform="translate(-385.93 -36.987)"/><path class="a" d="M419.023,53.77c.027-.034.053-.053.081,0l.008-.008-.1,0Z" transform="translate(-390.076 -36.992)"/><path class="a" d="M400.119,53.981c.028-.041.055-.039.083,0l.008-.01h-.1Z" transform="translate(-386.21 -37.036)"/><path class="a" d="M395.888,53.986l.038.014-.029-.023Z" transform="translate(-385.347 -37.041)"/><path class="a" d="M396.2,54.081l-.018.035.027-.026Z" transform="translate(-385.408 -37.062)"/><path class="a" d="M383.847,52.073l-.013.033.022-.025Z" transform="translate(-382.882 -36.652)"/><path class="a" d="M409.616,52.718l.032.014-.022-.023Z" transform="translate(-388.154 -36.781)"/><path class="a" d="M395.157,39.193c.026-.059.052-.061.08,0l.008-.009h-.1Z" transform="translate(-385.196 -34.008)"/><path class="a" d="M418.391,34.123c.026-.053.053-.065.08,0l.007-.008h-.094Z" transform="translate(-389.948 -32.971)"/><path class="a" d="M414.793,42.576a.282.282,0,0,1,.027.057c0,.006-.017.017-.027.025l.01.008v-.1Z" transform="translate(-389.213 -34.708)"/><path class="a" d="M399.382,41.31l.017-.034-.028.025Z" transform="translate(-386.059 -34.444)"/><path class="a" d="M414.379,56.626l.016-.026-.025.017Z" transform="translate(-389.126 -37.577)"/><path class="a" d="M387.651,43.52l.1,0-.1.1Z" transform="translate(-383.662 -34.902)"/><path class="a" d="M394.822,48.277h-.1C394.758,48.24,394.789,48.234,394.822,48.277Z" transform="translate(-385.109 -35.869)"/><path class="a" d="M388.283,47.86l.029.014-.021-.024Z" transform="translate(-383.792 -35.788)"/><path class="a" d="M395.455,68.853l-.1,0v-.1Z" transform="translate(-385.239 -40.064)"/><path class="a" d="M405.065,65.791l-.094,0,0-.094Z" transform="translate(-387.204 -39.438)"/></g></g></svg>