<svg xmlns="http://www.w3.org/2000/svg" width="68" height="73.275" viewBox="0 0 68 73.275"><defs><style>.a{fill:#fff;}</style></defs><g transform="translate(0 0)"><g transform="translate(0 0)"><path class="a" d="M41.1,7.625c.275.037.549.078.825.11a.655.655,0,0,0,.331,0,.983.983,0,0,1,.664-.016c.305.062.622.073.972.112l.235.549-1.716,3.634a2.55,2.55,0,0,1-.534.058c-.646-.071-1.3-.063-1.943-.138a3.839,3.839,0,0,0-1.446.032,4.673,4.673,0,0,1-1.1.083.567.567,0,0,1-.614-.4c-.117.086-.193.184-.284.2-.585.112-1.17.236-1.759.3a5.119,5.119,0,0,1-1.089-.065c-.1-.011-.182-.122-.273-.187a.421.421,0,0,0,.068-.023c.013-.008.018-.029.026-.044l-.078.083-1.049.367c-.167.2-.037.327-.026.46a3.25,3.25,0,0,1-.081,1.517,7.645,7.645,0,0,0-.156.835,1.987,1.987,0,0,1-1.545,1.188,4.639,4.639,0,0,1-1.768.2c-.054-.011-.137-.018-.162.011-.26.3-.723.054-.986.388-.081.106-.312.119-.478.13-.65.045-1.3.071-1.951.114a.668.668,0,0,0-.219.107l.015-.016c-.466.049-.916.174-1.394.2-.442.023-.885.158-1.339.2A7.416,7.416,0,0,1,21,17.673a.979.979,0,0,0-.638.158.9.9,0,0,1-.71.146c-.249-.011-.5.109-.711-.128a.2.2,0,0,0-.156-.042c-.39.055-.78.119-1.152.177-.046.065-.1.109-.106.158a5.017,5.017,0,0,0,.179,1.506,1.637,1.637,0,0,0,.492.876c.323.3.512.749.98.907.094.031.154.161.234.239a2.271,2.271,0,0,0,1.6.65,4.307,4.307,0,0,1,.893.214.554.554,0,0,0-.071.151.253.253,0,0,0,.037.135c0,.007.065,0,.073-.013.026-.044.062-.1.05-.141s-.071-.08-.11-.119c.071-.036.172-.123.206-.1a10.659,10.659,0,0,0,1.8.684.929.929,0,0,1,.583.452.251.251,0,0,0-.062.019c-.011.008-.013.029-.019.044l.063-.081a1.672,1.672,0,0,1,.816.366,1.694,1.694,0,0,0,.911.34l-.015-.015c.065.1.13.1.195,0l-.015.018c.232.046.442.27.705.094a3.17,3.17,0,0,1,1.358.25l-.018-.019c.068.1.136.123.2,0l-.016.019c.143.028.279.06.32.231.028.117.075.195.224.192.234-.008.429-.263.7-.063.231.169.5-.054.751-.006.138.028.279.041.419.06a5.355,5.355,0,0,0,1.267.156,5.224,5.224,0,0,1,1.421.2,3.1,3.1,0,0,1,.708.288c.063.028.762.258.837.266q1.053.117,2.1.237a2.409,2.409,0,0,0,.426.049,9.1,9.1,0,0,1,1.27-.1,9.189,9.189,0,0,0,1.27-.031,1.31,1.31,0,0,1,.338-.039,15.043,15.043,0,0,0,2.114,0,3.725,3.725,0,0,0,1.163-.1,13.032,13.032,0,0,0,1.662-.275.211.211,0,0,1,.164,0,.454.454,0,0,0,.494.034c.162-.068.388.018.586.028a4.833,4.833,0,0,0,.593.013,5.422,5.422,0,0,1,.59-.094,6.546,6.546,0,0,0,1.925-.292c.052-.015.132.083.211.138-.138.154-.237.357-.392.421a3.606,3.606,0,0,0-1.093.926l-.177-.179-.062-.047.078.031.179.174a.4.4,0,0,1-.457.14c-.135-.037-.265-.1-.424-.156a5.774,5.774,0,0,1-2.326.72,1.738,1.738,0,0,0-.491.11,3.393,3.393,0,0,1-1.564.349,1.336,1.336,0,0,1-.965-.239,2.04,2.04,0,0,1-1.811.322l-2.273.037a2.182,2.182,0,0,1-.424.006c-.335-.055-.663-.172-1-.195-.3-.021-.616.084-.921.071a9.336,9.336,0,0,1-2.359-.3,4.266,4.266,0,0,0-.671-.135,2.731,2.731,0,0,1-1.227-.307c-.314.033-.588-.226-.91-.12a12.712,12.712,0,0,1-2.174-.418,1.182,1.182,0,0,0-.578-.117.548.548,0,0,1-.6-.188c-.268.1-.482-.1-.729-.13-.705-.073-1.383-.318-2.1-.362-.075,0-.146-.076-.219-.119a.222.222,0,0,0,.065-.015c.011-.007.016-.026.024-.041l-.071.075c-.1-.039-.245-.049-.3-.123a1.626,1.626,0,0,0-1.012-.521,4.529,4.529,0,0,1-1.1-.406l.018.018a2.1,2.1,0,0,0-.075-.244c-.1-.224-.193-.24-.37-.067a.785.785,0,0,0-.093.141l.018-.019c-.458-.01-.773-.392-1.209-.473-.083-.015-.128-.18-.216-.244a1.293,1.293,0,0,0-.3-.12l-.06-.049.08.029a.819.819,0,0,1-.2.123c-.041.011-.106-.031-.151-.062A10.087,10.087,0,0,1,17.3,21.939c-.229-.291-.3-.64-.517-.934a2.886,2.886,0,0,1-.413-1.01,13.893,13.893,0,0,1-.447-1.54,3.118,3.118,0,0,1,.232-2.3,2.413,2.413,0,0,0,.2-.468,2.507,2.507,0,0,0,.068-.3,3.587,3.587,0,0,0-.356-.422.439.439,0,0,0-.478-.091,4.208,4.208,0,0,1-.549.227.913.913,0,0,0-.729.921l.018-.02a2.1,2.1,0,0,0-.492,1.745c.041.427.067.85.073,1.279a1.989,1.989,0,0,0,.12.822A3.078,3.078,0,0,1,14.3,21.1a4.069,4.069,0,0,0,.466,1.607c.036.091.138.149.106.281a.337.337,0,0,0,.154.364c.283.232.53.513.83.72a4.378,4.378,0,0,1,.812.726.578.578,0,0,0,.275.151,3.826,3.826,0,0,1,1.6.936,2.77,2.77,0,0,0,1.374.8,1.7,1.7,0,0,1,.664.361,1.209,1.209,0,0,0,.6.307,1.49,1.49,0,0,1,.7.292,1.01,1.01,0,0,0,.369.2,4.691,4.691,0,0,1,1.512.531,1.881,1.881,0,0,0,.575.154,1.074,1.074,0,0,1,.469.179,1.5,1.5,0,0,0,.468.179c.08.023.2-.026.252.015.57.429,1.337.257,1.92.634.866.169,1.681.539,2.572.625.258.026.51-.011.76.006a6.713,6.713,0,0,0,.746.015,3.352,3.352,0,0,1,1.342.169,3.151,3.151,0,0,0,1.662.281,1.507,1.507,0,0,1,.569.148l-.021-.018c.065.117.13.093.195,0l-.015.015c.156.042.273.18.476.107A2.651,2.651,0,0,1,37,30.847a6.06,6.06,0,0,0,1.688-.011,4.513,4.513,0,0,1,1.766-.065.211.211,0,0,0,.084,0c1.142-.239,2.315-.149,3.46-.333a2.15,2.15,0,0,0,.573-.153,6.407,6.407,0,0,1,1.461-.372c.328-.068.673.065.991-.133.284-.179.64-.115.958-.2s.676-.1,1-.179a5.206,5.206,0,0,0,.8-.286c.362-.156.718-.333,1.059-.492l.728.284-.019-.019a1.35,1.35,0,0,1,.351,1.087,26.2,26.2,0,0,0,.427,3.015,1.809,1.809,0,0,1,0,.931.854.854,0,0,0-.05.419,4.048,4.048,0,0,1,.089,1.257c.01.427-.018.855-.006,1.275a12.538,12.538,0,0,0,.278,1.771c.008.046.07.081.138.158.081-.062.214-.107.242-.19a11.207,11.207,0,0,0,.793-2.432c.026-.253.138-.5.169-.749s.223-.353.414-.455c-.052-.12-.25-.177-.128-.362a1.611,1.611,0,0,0,.214-.965,6.2,6.2,0,0,1,.174-1.781,1.975,1.975,0,0,0,.054-.928,10.2,10.2,0,0,0-.106-1.272,3.645,3.645,0,0,0,.065-1.272c.006-.109.01-.273.078-.317.273-.177.138-.521.351-.736a3.5,3.5,0,0,0,.435-.729c.029-.047.065-.117.109-.127.271-.055.385-.289.564-.455a.93.93,0,0,1,1.064-.213l.06-.452.421-.257a.182.182,0,0,0,.02.073c.008.011.036.01.055.013l-.086-.076c.143-.075.283-.161.431-.224a3.142,3.142,0,0,0,.46-.167c.093-.062.117-.221.2-.305a1.078,1.078,0,0,1,.288-.153l-.018-.023c.063.154.132.106.2,0l-.016.016c.252-.227.51-.448.752-.687.4-.4.812-.794,1.192-1.215a1.228,1.228,0,0,0,.442-.788.413.413,0,0,1,.055-.161,20.806,20.806,0,0,0,1.035-2.526,2.993,2.993,0,0,1,.213-.465.292.292,0,0,1,.443-.057,1.9,1.9,0,0,1,.309.395c.089.154-.023.421.263.465a.641.641,0,0,1-.133.679c.107.07.3.007.32.218a.558.558,0,0,0,.068.24,10.933,10.933,0,0,1,.916,2.373.4.4,0,0,1,.016.164c-.026.2-.091.408.213.445a3.391,3.391,0,0,1,.128.661c0,.175-.171.335.034.523.106.1-.057.331.125.461.049.036.054.158.047.236A8.161,8.161,0,0,0,65.761,27a1.937,1.937,0,0,1-.136,1.231c-.036.062-.045.086.031.123.353.182.3.533.31.83.019.57-.013,1.14-.016,1.711,0,.369,0,.741.023,1.11a1.35,1.35,0,0,1-.112.746c-.078.149.11.153.208.188a6.236,6.236,0,0,1,.148,1.761c.016.3.047.606.075.9a.648.648,0,0,1-.158.619c-.114.1,0,.171.026.263a1.471,1.471,0,0,1-.073,1.062c-.083.149-.237.239-.054.411a.191.191,0,0,1,.023.158,9.191,9.191,0,0,0-.3,2.185,1.736,1.736,0,0,1-.067.418,3.738,3.738,0,0,0-.179,1,2.772,2.772,0,0,1-.211.726c-.041.026-.187-.018-.071.109l.055-.123a.289.289,0,0,1,.12.372,2.4,2.4,0,0,0-.385,1.449.678.678,0,0,1-.119.406,2.142,2.142,0,0,0-.362,1.1c0,.042-.071.083-.11.123a.229.229,0,0,0-.021-.067c-.008-.011-.031-.011-.047-.018l.086.067a1.558,1.558,0,0,1-.5,1.134.235.235,0,0,0-.093.138c-.122.8-.708,1.407-.918,2.172a.385.385,0,0,1-.075.153c-.595.663-.918,1.5-1.439,2.211a12.22,12.22,0,0,0-.843,1.384,4.555,4.555,0,0,0-.291.8,2.394,2.394,0,0,1-.656.954c-.042-.055-.034-.058.018-.021-.317.279-.629.564-.954.833a4.549,4.549,0,0,1-.469.309.889.889,0,0,1-.024.327c-.149.3-.388.539-.518.855a1.079,1.079,0,0,1-.344.375c-.219.179-.457.338-.69.5-.723.5-1.467.963-2.224,1.405a4.949,4.949,0,0,1-2.07.731,4.7,4.7,0,0,0-1.766.6c-.175.093-.349.193-.52.3a2.59,2.59,0,0,1-.95.356c-.417.068-.827.175-1.241.266-.055.011-.128,0-.164.034-.369.322-.85.284-1.277.418a3.657,3.657,0,0,1-1.058.237c-.338.265-.768.164-1.147.288a7.7,7.7,0,0,1-1.087.175,3.55,3.55,0,0,0-.4.115,2.02,2.02,0,0,1-.926.1c-.176-.028-.2-.172-.21-.322.041-.028.081-.054.019.021s-.128.175-.2.26c-.094.114-.193.2-.333.047-.028-.029-.114-.052-.133-.034a.772.772,0,0,1-.77.11,1.961,1.961,0,0,0-.973.106l.018.021c-.067-.109-.133-.1-.2,0l.015-.016-1.022.057c-.055,0-.132.044-.162.021-.4-.3-.819-.021-1.228-.055-.426-.036-.856-.011-1.283-.023-.2,0-.395-.029-.591-.049-.083-.01-.176-.063-.247-.042a5.181,5.181,0,0,1-1.943-.117c-.236-.013-.39-.187-.606-.2a5.636,5.636,0,0,1-.664-.036c-.309-.054-.609-.148-.915-.218a1.8,1.8,0,0,0-.751-.13,1.056,1.056,0,0,1-.4-.093,1.617,1.617,0,0,0-.486-.127,4.674,4.674,0,0,1-1.555-.422,1.974,1.974,0,0,0-1.1-.429,5.936,5.936,0,0,1-1.41-.577c-1.048-.577-2.065-1.214-3.166-1.69-.361.008-.546-.244-.723-.5a.852.852,0,0,0-.444-.377c-.188-.063-.2-.353-.44-.375-.245-.305-.65-.392-.913-.69a9.23,9.23,0,0,0-.892-.788.271.271,0,0,0,.073-.021c.013-.008.015-.032.021-.05l-.078.089a2.114,2.114,0,0,1-.668-.51,6.885,6.885,0,0,0-1.538-1.3c-.089-.049-.141-.171-.21-.26l.046-.063-.034.075c-.369-.247-.539-.669-.843-.975-.044-.044-.023-.156-.031-.237l.047-.047-.028.067a1.242,1.242,0,0,1-.694-.807,3.133,3.133,0,0,0-.661-1.183,2.1,2.1,0,0,1-.554-.947l.05-.044-.029.063c-.3-.21-.245-.591-.411-.876a4.029,4.029,0,0,0-.422-.783c-.262-.289-.224-.694-.348-1.036a2.513,2.513,0,0,0-.281-.6,5.808,5.808,0,0,1-.981-1.982.753.753,0,0,0-.177-.279,2.306,2.306,0,0,1-.44-1.608.931.931,0,0,0-.094-.562,3.938,3.938,0,0,1-.278-.713,1.079,1.079,0,0,1-.071-.325,7.04,7.04,0,0,0-.211-1.764,2.424,2.424,0,0,1,.041-.663c-.075-.162-.18-.421-.309-.669s-.011-.515-.081-.757a10.051,10.051,0,0,1-.237-2.112A.946.946,0,0,0,8.62,35.2c-.068-.184-.232-.374-.21-.541.078-.572-.136-1.123-.068-1.686a4.97,4.97,0,0,1,.1-1.1,2.877,2.877,0,0,1-.1-1.348,7.182,7.182,0,0,1,.1-1.017c.015-.141.055-.283.059-.424a14.63,14.63,0,0,1,.34-2.27c.055-.309.151-.611.2-.92a5.978,5.978,0,0,0,.076-.833,4.036,4.036,0,0,1,.364-1.737c.1-.2.01-.47.229-.624l.055.052-.075-.032a.872.872,0,0,1,.049-.328,19.223,19.223,0,0,0,.731-1.781.658.658,0,0,0,.039-.162c.015-.081-.133-.231-.221-.21a1.055,1.055,0,0,0-.468.151,2.635,2.635,0,0,1-.98.439c.007-.123-.06-.171-.174-.169l-.054-.05.071.032c0,.115.041.184.167.177-.383.343-.882.219-1.326.305-.106.019-.249-.159-.375-.247-.159.348-.159.348-.538.642a1.085,1.085,0,0,0-.1-.107.107.107,0,0,0-.07-.019c-.021,0-.039.021-.059.034a.355.355,0,0,0,.1.067.759.759,0,0,0,.149,0,.34.34,0,0,1-.523.049,3.445,3.445,0,0,1-.265-.283c-.049.1-.093.187-.13.275a.572.572,0,0,1-.551.328c-.2.016-.4-.18-.562-.029-.188.18-.414.159-.624.229a1.894,1.894,0,0,1-2-.57l.02.018c-.063-.052-.12-.135-.192-.151a.583.583,0,0,1-.421-.385c-.032-.078-.024-.192-.08-.239a3.472,3.472,0,0,1-.755-1.581,2.514,2.514,0,0,0-.117-.227l.047-.052-.029.068-.249-.213L.37,18.4,0,18.152a.914.914,0,0,0,.213-.941,5.109,5.109,0,0,1,.4-1.943,2.03,2.03,0,0,1-.229-.325.787.787,0,0,1-.086-.4,1.586,1.586,0,0,0,.071-.755.322.322,0,0,1,.045-.24,2.651,2.651,0,0,0,.32-1.228,5.161,5.161,0,0,1,.406-1.56,1.8,1.8,0,0,0,.236-.528.913.913,0,0,1,.145-.476c.268-.4.556-.79.817-1.2.132-.206.478-.115.531-.46.031-.2.3-.351.364-.556.078-.257.307-.4.39-.638a.907.907,0,0,1,.214-.367,4.131,4.131,0,0,0,.814-1.087.484.484,0,0,1,.424-.25.319.319,0,0,0,.026.065c.008.011.028.015.041.023l-.088-.067c-.039-.359.2-.634.284-.957.011-.047.07-.114.112-.117.508-.047.687-.536,1.053-.773.047-.031.091-.089.138-.091a2.15,2.15,0,0,1,.32.029.366.366,0,0,0,.029.062c.008.011.026.016.039.023L6.94,3.336c.221-.2.37-.517.749-.466.145-.132.3-.253.432-.4.3-.341.59-.694,1.123-.588.312-.366.817-.344,1.183-.588a3.6,3.6,0,0,1,.851-.374c.08-.028.179-.11.232-.088.4.175.7-.1,1.041-.213.536-.179,1.092-.307,1.639-.458.4.125.778-.076,1.171-.073a1.013,1.013,0,0,0,.416-.063c.213-.1.312.088.482.151a3.855,3.855,0,0,0,.465-.1A.94.94,0,0,1,17.3.092a1.437,1.437,0,0,0,.918.073c.107-.037.284.13.482.229a1.659,1.659,0,0,1,1.642.2L20.327.575c.063.14.13.132.2,0l-.016.018c.276-.029.523.219.811.091.257.12.512.242.77.359a.515.515,0,0,0,.162.045.948.948,0,0,1,.7.232c.171.187.5.083.674.325.055.076.21.071.3.13a9.049,9.049,0,0,1,1.171.684,2.133,2.133,0,0,0,.794.439,1.9,1.9,0,0,1,1.079.76c-.049.3-.049.3.236.37l-.021-.019a.364.364,0,0,0-.037.076.888.888,0,0,0-.037.223.2.2,0,0,0,.146.036.4.4,0,0,1,.6.1c.266.323.677.534.772,1,.013.065.112.119.179.169A8.743,8.743,0,0,1,29.97,7a1.935,1.935,0,0,1,.076.195c-.047.073-.1.167-.167.255a.144.144,0,0,0,.039.219.2.2,0,0,0,.151.05A.534.534,0,0,1,30.644,8c.128.174.266.341.434.552l.086-.611a2.713,2.713,0,0,0,.419-.171.737.737,0,0,1,.575-.088,3.851,3.851,0,0,0,1.834-.211,2.918,2.918,0,0,0,.317-.127.126.126,0,0,1,.083-.01c.37.166.708-.151,1.074-.068.109.024.228.008.34.024s.258.013.323.081c.258.27.59.146.871.149s.551.008.827.019a2.836,2.836,0,0,0,.746-.169.21.21,0,0,1,.081-.018,8.506,8.506,0,0,1,2.1.266l-.013-.011c.2.154.2.154.364,0ZM26.5,37.283l.176-.169.052-.058-.034.076-.171.172a.309.309,0,0,0-.08.028c-.015.008-.016.033-.024.05Zm17.331-.338a.242.242,0,0,0,.073-.019c.013-.008.013-.034.018-.054l-.075.088a.239.239,0,0,0-.08.021c-.013.008-.01.039-.015.058Zm-19.383,0c.055-.018.169,0,.067-.114l-.06.12c-.052.021-.179,0-.073.115ZM48.83,38.312a.171.171,0,0,0,.169.18l.05.044-.067-.028c0-.114-.076-.156-.174-.177-.055-.1-.109-.068-.161,0a1.025,1.025,0,0,0-.115.107.094.094,0,0,0-.016.073c0,.021.024.039.037.058a.377.377,0,0,0,.07-.1.729.729,0,0,0,0-.158ZM57.047,33a.27.27,0,0,0,.071-.026c.011-.008.011-.033.016-.049l-.068.094a.293.293,0,0,0-.063.023c-.011.007-.016.026-.024.039ZM17.93,31.622l.045-.036-.024.057C17.919,31.661,17.869,31.7,17.93,31.622ZM43.16,36.6l.179.177a1.533,1.533,0,0,0-.234,1.045c.034.882-.008,1.768-.024,2.651,0,.112-.039.226-.029.336a21.243,21.243,0,0,1,.031,2.148l-.487.632.429.123c-.015.206-.211.427.07.588a14.9,14.9,0,0,1,.013,2.12,1.852,1.852,0,0,0-.008.5,4.357,4.357,0,0,1-.054,1.444.761.761,0,0,0-.015.336,4.749,4.749,0,0,1-.042,1.517,4.018,4.018,0,0,1-.239,1.756.117.117,0,0,0,.015.081.97.97,0,0,1-.14.9.323.323,0,0,0,.018.387.492.492,0,0,1,.028.317c-.093.614-.163,1.235-.309,1.836a6.937,6.937,0,0,0-.057,1.358.135.135,0,0,0,.247.062,5.841,5.841,0,0,0,.512-1.261,7.369,7.369,0,0,1,.409-1.392,10.121,10.121,0,0,0,.554-2.577,3.4,3.4,0,0,1,.336-1.306.234.234,0,0,0-.013-.213.708.708,0,0,1-.133-.564c.019-.427.065-.853.07-1.279a6.837,6.837,0,0,1-.024-1.192c.073-.375-.188-.8.164-1.137.011-.01-.151-.156-.158-.245a3.006,3.006,0,0,1,.011-.846c.063-.291-.063-.608.13-.874-.244-.266-.016-.663-.258-.933-.031-.034-.024-.1-.028-.159-.024-.366-.05-.733-.07-1.1s-.032-.741-.049-1.111a.37.37,0,0,0,.055-.031c.011-.008.015-.024.021-.037l-.057.088a1.572,1.572,0,0,1-.117-.307,5.84,5.84,0,0,1-.187-1.345,13.8,13.8,0,0,0-.161-1.426c-.008-.283.036-.637-.237-.871l-.182-.174a.272.272,0,0,0-.016-.065c-.006-.011-.028-.015-.042-.023Zm2.393,4.627.054-.049-.034.07C45.529,41.28,45.5,41.3,45.553,41.228Zm5.158.37-.071.042.07.109a.273.273,0,0,0,.031.062c.008.01.029.01.044.015l-.093-.057v-.19l.057-.045ZM34.589,39.17a.247.247,0,0,0,.018.078c.008.013.034.016.052.024l-.093-.08-.041-.05Zm11.663,1.374a.346.346,0,0,0,.028.071c.008.011.031.013.047.019l-.094-.07-.057-.052Zm3.933-.343a.253.253,0,0,0,.062-.021c.011-.006.015-.028.019-.042l-.063.081-.052.054ZM15.7,4.175l.046-.049-.026.067a.287.287,0,0,0-.08.018c-.013.008-.011.039-.016.058Zm6.534-2.749.049.06-.07-.041L22.182,1.4ZM34.059,11.55,34.1,11.5l-.024.068a.44.44,0,0,0-.062.018c-.011.006-.018.023-.026.036Zm15.094,38.6.057-.055-.037.075a.333.333,0,0,0-.058.029c-.011.008-.013.026-.019.039Zm1.028-2.573.052-.041L50.2,47.6a.35.35,0,0,0-.062.024c-.01.008-.013.028-.018.041ZM37.83,53.924l.2,0c.037.039.08.115.112.112a2.1,2.1,0,0,0,.411-.1c.177-.058.161-.206.14-.351a.32.32,0,0,0,.065-.026c.011-.008.015-.029.021-.044l-.073.083a1.627,1.627,0,0,0-.294.091c-.14.073-.268.167-.4.253-.05-.084-.1-.094-.156,0a.394.394,0,0,0-.07.029c-.013.008-.018.028-.024.042ZM24.974,52.9l.052.05-.071-.031-.057-.055Zm-2.058,0,.054.055-.073-.034a.23.23,0,0,0-.024-.078c-.008-.013-.034-.015-.054-.021Zm27.095-2.062.193,0a.563.563,0,0,1-.02.567,3.63,3.63,0,0,0-.349.686,5.988,5.988,0,0,1-.762,1.426,1.894,1.894,0,0,0-.208.372,15.063,15.063,0,0,1-1.155,2.083c-.3.45-.536.941-.791,1.418-.049.091-.112.208.01.31a.464.464,0,0,0,.539-.138c.435-.448.863-.907,1.282-1.37A12.647,12.647,0,0,0,50,54.156a3.122,3.122,0,0,0,.621-1.391.317.317,0,0,1,.085-.145,3.244,3.244,0,0,0,.538-1.331,2.324,2.324,0,0,1,.3-.6c.041-.068.093-.1.076-.211a2.62,2.62,0,0,1,.283-1.318,5.9,5.9,0,0,0,.307-.976c.1-.616.156-1.24.218-1.862A1.058,1.058,0,0,0,52.366,46c0-.024-.039-.06-.055-.057-.052.008-.13.018-.148.052a1.59,1.59,0,0,0-.161.39,9.384,9.384,0,0,1-1.111,2.859l-.421.125.286.219c-.057.237-.1.489-.18.729a.852.852,0,0,1-.39.543c-.047-.106-.1-.1-.154-.008l-.055.057Zm-.341-.169a.271.271,0,0,0,.073-.021c.013-.008.015-.032.021-.05l-.075.089-.054.045Zm2.747,4.118.05-.044-.031.063-.179.179c-.054.007-.12-.006-.154.021a.606.606,0,0,0-.122.169c0,.007.045.055.054.052a.578.578,0,0,0,.175-.107c.029-.032.02-.1.028-.153Zm1.373-4.435q-.071-.09.02-.019l.041.062ZM35.783,52.041l.037.05-.057-.031.007-.193a.664.664,0,0,0,.171,0c.039-.011.07-.054.1-.081-.023-.015-.042-.037-.065-.041a.1.1,0,0,0-.08.018,1.175,1.175,0,0,0-.107.127l-.067.039A1.059,1.059,0,0,0,35.783,52.041ZM26,44.687c-.011-.018-.021-.039-.034-.055a.118.118,0,0,0-.037-.021l.091.055.028.067Zm21.457-.855a.35.35,0,0,0-.062.021c-.011.008-.015.026-.021.041l.063-.081.049-.041ZM36.3,43.809c.054.109.109.175.164,0,.042-.029.107-.05.119-.088a.664.664,0,0,0,0-.2.628.628,0,0,0-.2.008c-.037.013-.057.08-.084.122l-.128.08ZM11.583,43.66c-.029-.042-.049-.075.019-.019a.418.418,0,0,0,.024.063c.006.01.026.013.041.02ZM50.36,40.721c.055-.008.114-.011.169-.023a.264.264,0,0,0,.071-.041c-.042-.016-.1-.057-.123-.044-.042.026-.067.084-.1.128a1.4,1.4,0,0,0-.166.011c-.083.015-.1.055-.045.1a.084.084,0,0,0,.078-.008A1.326,1.326,0,0,0,50.36,40.721Zm.679,2.052c.054,0,.107-.008.159-.018a.278.278,0,0,0,.07-.034c-.037-.016-.088-.057-.109-.045a.453.453,0,0,0-.1.119.261.261,0,0,0-.071.032c-.013.008-.013.032-.019.05ZM27.02,42.6c.044-.021.1-.031.128-.065s0-.086,0-.13c-.031.019-.08.034-.091.062a.512.512,0,0,0-.021.151.312.312,0,0,0-.067.031c-.01.008-.011.029-.016.044ZM46.766,53.266l-.216.07c.024.007.057.026.07.016a1.133,1.133,0,0,0,.125-.109c.055-.008.11-.015.166-.024.089-.015.1-.05.039-.091a.083.083,0,0,0-.08.013A.977.977,0,0,0,46.766,53.266Zm-.343-10.147a.3.3,0,0,0,.026.067c.008.013.029.016.044.023l-.091-.07c-.145-.156-.145-.156-.317,0a.3.3,0,0,0-.062.028c-.01.007-.015.024-.021.037l.062-.086ZM30.81,52.21c.024.037.052.078-.02.02-.031-.042-.054-.1-.1-.122-.023-.013-.076.029-.117.047a.236.236,0,0,0,.068.042C30.7,52.205,30.755,52.207,30.81,52.21ZM8.163,7.627l-.291.083.3.07a5,5,0,0,1-.612.534c-.239.156-.356.5-.528.759a.693.693,0,0,1-.154.2c-.331.213-.439.59-.653.887a.375.375,0,0,0,.125.58c.292.177.585.354.88.525a3.267,3.267,0,0,0,.46.227,5.017,5.017,0,0,1,1.605.755,11.474,11.474,0,0,1,2.021,1.074,4.808,4.808,0,0,0,1.017.414c.247.057.491.13.77.206a6.911,6.911,0,0,1,.611-.453.617.617,0,0,0,.268-.744c-.055-.249-.175-.481-.25-.726a1.77,1.77,0,0,1-.14-1.08c.037-.122-.081-.2-.213-.2-.052,0-.1,0-.187-.008-.26-.832-.533-1.67-.78-2.515a1.806,1.806,0,0,1-.085-.757,3.963,3.963,0,0,0-.281-1.668,2.525,2.525,0,0,1-.848.221.612.612,0,0,0-.518.179,6.627,6.627,0,0,0-.661.533c-.174.18-.434.049-.611.245a2.7,2.7,0,0,1-.634.424c-.143.086-.3.156-.447.232C8.271,7.487,8.217,7.5,8.163,7.627ZM45.736,42.8a1.163,1.163,0,0,0-.169.015c-.024,0-.044.031-.067.047.044.018.1.063.127.049.042-.023.062-.084.089-.13l.054-.045ZM20.859,47.777a.706.706,0,0,0-.156.018c-.034.011-.057.05-.086.076.045,0,.1.028.133.008s.06-.08.089-.122C20.876,47.734,20.915,47.708,20.859,47.777Zm-.175,1.006c.054.08.109.1.167,0,.2-.052.174-.182.088-.305-.033-.049-.122-.06-.187-.088-.016.052-.034.1-.049.153a.459.459,0,0,0-.011.083l-.307.073ZM32.009,38.144a.269.269,0,0,0,.031.065c.008.011.028.013.042.019l-.093-.063a1.362,1.362,0,0,0,0-.162.273.273,0,0,0-.036-.068c-.032.023-.08.039-.091.07a.649.649,0,0,0-.018.161c-.054,0-.107.007-.161.013a.143.143,0,0,0-.07.031c-.011.008-.011.032-.016.05.046,0,.1.029.135.011s.06-.084.089-.128Zm8.4.172a1.417,1.417,0,0,0,.166-.013c.023,0,.044-.032.065-.049-.044-.019-.1-.065-.127-.052s-.06.084-.088.128a.311.311,0,0,0-.068.026c-.01.008-.011.031-.016.047Zm7.22-.149c-.151-.029-.31-.086-.39.119a.182.182,0,0,0-.045.27c.013.02.052.044.06.037.034-.02.078-.05.081-.081a.47.47,0,0,0-.029-.153c.146,0,.283-.026.305-.21a.337.337,0,0,0,.075-.026c.011-.008.015-.032.021-.049Zm-.859,1.373a.455.455,0,0,0-.122.1c-.011.02.029.071.046.109.015-.021.037-.042.041-.067a1.268,1.268,0,0,0,.016-.158l.067-.029ZM39.03,55.124a.694.694,0,0,0,.154,0,.386.386,0,0,0,.1-.065c-.019-.013-.037-.034-.059-.037a.105.105,0,0,0-.073.018,1.347,1.347,0,0,0-.1.11l-.05.049Zm9.78-5.319c.135-.007.273-.01.339-.161L49.2,49.6l-.033.068a.34.34,0,0,0-.338.162C48.774,49.871,48.771,49.861,48.81,49.806ZM33.541,38.853l.1.071-.075-.094c-.089-.24-.242-.156-.395-.075C33.268,38.887,33.4,38.866,33.541,38.853Zm24.892,6.669.18.177a.372.372,0,0,1-.237.583c-.011.242.055.508-.046.676-.3.505-.317,1.162-.84,1.547-.072.052-.088.193-.106.3-.041.219-.042.448-.1.66a2.185,2.185,0,0,1-.249.426c-.042.073-.071.154-.112.231q-.519.982-1.041,1.964c-.255.479-.512.957-.759,1.438a.537.537,0,0,0-.023.208.3.3,0,0,0,.409-.07,8.4,8.4,0,0,1,.91-1.017c.507-.4.677-1.048,1.17-1.444.374-.736.832-1.43,1.152-2.195.175-.421.372-.832.564-1.244.071-.156.172-.3.227-.458.357-1.015.716-2.032,1.054-3.054A8.433,8.433,0,0,0,60.993,42c.018-.37.075-.734.12-1.1.109-.876.151-1.759.214-2.642.033-.455.037-.913.08-1.368.091-.991.145-1.985.141-2.979,0-.741,0-1.485-.059-2.222-.07-.851-.2-1.7-.318-2.542a.524.524,0,0,0-.323-.491c0,.172-.008.31-.015.447-.021.513-.011,1.03-.076,1.535a8.466,8.466,0,0,0-.119.84,1.843,1.843,0,0,0,.112.887c.1.208-.05.517.01.755a7.273,7.273,0,0,1,0,1.444c-.315.46-.01,1-.187,1.477a.34.34,0,0,0-.021.083c-.085.619-.2,1.236-.245,1.859a29.655,29.655,0,0,1-.544,3.608,8.8,8.8,0,0,0-.327,2.016A.646.646,0,0,1,59.31,44,1.479,1.479,0,0,0,59,45.024a.692.692,0,0,1-.4.694l-.175-.182c.01-.106,0-.219-.127-.227-.044,0-.093.094-.14.145ZM32.867,57.363c.029.042.05.1.091.122s.089-.008.136-.015c-.031-.029-.055-.075-.089-.084a.569.569,0,0,0-.158,0,1.068,1.068,0,0,0-.01-.24c-.008-.032-.084-.07-.125-.067a.169.169,0,0,0-.12.091.133.133,0,0,0,.044.13A1.049,1.049,0,0,0,32.867,57.363Zm6.854-18.683a.325.325,0,0,0-.028-.063c-.008-.011-.028-.015-.042-.021l.088.067c.044.062.076.151.138.182.106.052.227.179.348.015a.1.1,0,0,0,0-.08c-.047-.125-.158-.125-.265-.12C39.883,38.663,39.8,38.672,39.721,38.681Zm19.9-2.916A.256.256,0,0,0,59.6,35.7c-.007-.01-.026-.013-.041-.019l.078.065a.5.5,0,0,0,.026.159c.094.166.211.216.32.148a.113.113,0,0,0,.049-.062c.023-.114-.091-.234-.25-.255A.572.572,0,0,0,59.62,35.764ZM40.076,55.843c-.109-.021-.218-.036-.325-.063s-.151.026-.166.119a.128.128,0,0,0,.011.081c.049.1.133.081.2.039.091-.057.172-.13.257-.195l.05-.049Zm5.3-13.752c.159-.175.172-.242.058-.305a1.625,1.625,0,0,0-.156-.06c-.075-.033-.159-.065-.2.034-.015.034.023.106.058.14.078.076.171.14.257.21l-.052.05Zm4.3.708c-.409.4-.413.4-.317.5l.419-.182-.122-.34a.313.313,0,0,0,.081-.021c.013-.008.013-.037.02-.057ZM31.143,38.51l-.044-.05.063.031a4.958,4.958,0,0,0-.033.578.292.292,0,0,0,.26.283.371.371,0,0,0,.369-.145.244.244,0,0,0,.015-.309A1.408,1.408,0,0,0,31.143,38.51ZM24.1,51.867,24.8,51.7c.05.062.029.055-.019.019.231-.778.208-.842-.487-1.194-.091-.045-.182-.138-.322-.063-.065.171-.138.354-.2.539a.553.553,0,0,0,.153.622,1.748,1.748,0,0,1,.2.27l-.5.023c.206.151.333.249.468.335.033.021.091,0,.176,0ZM20.859,37.483c-.039-.039-.106-.073-.112-.117a11.174,11.174,0,0,1-.182-1.347c-.015-.479-.305-.923-.161-1.425.034-.114-.063-.271-.119-.4a.172.172,0,0,0-.14-.065.165.165,0,0,0-.115.1c-.024.169-.029.34-.044.51a3.391,3.391,0,0,1-.13,1.14l-.382.06-.05-.054.07.032c-.033.291.184.208.343.223.094,1.093.184,2.188.284,3.282.055.6.174,1.189.184,1.785a18.344,18.344,0,0,0,.413,2.437,15.629,15.629,0,0,0,.466,1.818,8.446,8.446,0,0,0,.772,1.9c.262.468.593.9.887,1.344a2.322,2.322,0,0,1,.143.294c-.024.153-.245.19-.169.388.177.055.366.12.556.167a.619.619,0,0,0,.219-.029c-.281-.785-.567-1.53-.817-2.287-.294-.89-.608-1.779-.812-2.694-.279-1.246-.593-2.486-.783-3.753a10.25,10.25,0,0,1-.166-1.781.251.251,0,0,0,.071-.028c.013-.008.013-.032.018-.05l-.07.1a.5.5,0,0,1-.2-.448c0-.372,0-.744,0-1.114C20.877,37.438,20.915,37.413,20.859,37.483ZM9.19,14.639c-.112-.011-.25.015-.331-.042-.4-.273-.778-.569-1.163-.858-.047-.266-.216-.3-.439-.224-.393-.278-.928-.227-1.3-.6a.649.649,0,0,0-.807-.055,1.863,1.863,0,0,1-.1.833,6.034,6.034,0,0,0-.426,1.818c-.042.619-.14,1.235-.221,1.917a2.435,2.435,0,0,1,.312,1.42.264.264,0,0,0,.37.231c.4-.149.793-.314,1.194-.458a2.944,2.944,0,0,1,.828-.166,5.3,5.3,0,0,0,.853-.317c.275-.073.536-.164.8-.26.8-.288,1.628-.518,2.448-.757.055-.018.141.068.213.107a.229.229,0,0,0-.075.018c-.011.008-.011.036-.018.055l.078-.089c.109-.023.244-.013.32-.076a5.083,5.083,0,0,0,.456-.463c-.018-.27-.063-.473-.309-.595a8.561,8.561,0,0,0-1.651-.859,1.507,1.507,0,0,1-.5-.31c-.13-.1-.224-.25-.353-.356-.023-.019-.13.065-.2.1ZM30.469,35.771a.358.358,0,0,0-.442.3,16.628,16.628,0,0,0-.429,1.995c-.075.622-.016,1.248-.052,1.87A21.384,21.384,0,0,0,29.53,42.3a5.016,5.016,0,0,1-.049.677c.276.258.067.593.14.884.041.164.033.341.071.507a5.722,5.722,0,0,1,.115,1.681,1.715,1.715,0,0,0,.237,1.04,1.09,1.09,0,0,1,.175.734,1.26,1.26,0,0,0,.1.494c.081.3.182.6.253.9.1.414.153.842.27,1.249a6.57,6.57,0,0,1,.343,1.737A3.665,3.665,0,0,1,32,53.532a3.054,3.054,0,0,0,1.379,1.906,1.472,1.472,0,0,0,.253,1.136c.3.45.606.9.933,1.326a1.513,1.513,0,0,0,.416.291.2.2,0,0,0,.255-.153,1.56,1.56,0,0,0-.072-.494c-.166-.424-.393-.827-.536-1.259-.15-.453-.333-.9-.489-1.345-.278-.807-.645-1.582-.942-2.383a11.262,11.262,0,0,1-.762-2.079,4.323,4.323,0,0,0-.211-.915,8,8,0,0,1-.489-1.717,3.707,3.707,0,0,0-.232-.978,5.908,5.908,0,0,1-.325-1.4c-.1-.5-.151-1.015-.227-1.522-.021-.138,0-.318-.084-.4-.2-.216.115-.26.1-.4-.013-.11-.008-.224-.026-.335-.023-.136-.076-.27-.091-.406-.039-.366-.039-.738-.1-1.1a14.589,14.589,0,0,1-.252-2.551c0-1-.029-1.995-.047-2.991l.049-.039Zm-6.7-25.056-.057-.049.075.029a3.826,3.826,0,0,1-.71.728,6.97,6.97,0,0,0-1.23.918,1.346,1.346,0,0,1-.426.278A13.906,13.906,0,0,0,19.277,14c-.172.1-.327.227-.491.341a1.463,1.463,0,0,0-.608.9.416.416,0,0,0,.034.317.33.33,0,0,0,.3.063,11.725,11.725,0,0,1,1.139-.294c.057.081.112.11.167,0l1.573-.107.3-.286a5.669,5.669,0,0,0,.572.052c.167,0,.369-.11.5-.049.208.1.325-.023.482-.065.05-.013.128.081.193.127l-.049.052.029-.071a.641.641,0,0,1,.484-.045c.229.1.266-.26.479-.265a2.966,2.966,0,0,0,.336-.041c.138-.019.278-.034.414-.063a3.1,3.1,0,0,1,1.155-.133,2.4,2.4,0,0,0,1.311-.359,2.509,2.509,0,0,0-.276-1.3c-.042-.06-.015-.166-.034-.247a4.761,4.761,0,0,0-.278-1.043c-.33-.651-.926-1.126-1.254-1.787a.658.658,0,0,0-.182-.179,1.245,1.245,0,0,0-.177-.1A11.888,11.888,0,0,0,23.764,10.715ZM21.022,5.741l-.044-.049.063.028a.25.25,0,0,1-.372.076,7.375,7.375,0,0,1-1.264-.674.538.538,0,0,0-.232-.093,4.725,4.725,0,0,1-.975-.262.823.823,0,0,0-.828,0,2.756,2.756,0,0,0-.874-.188,6.73,6.73,0,0,0-1.738.286.451.451,0,0,0-.273.476.879.879,0,0,0,.071.244,32.056,32.056,0,0,1,.955,3.257.363.363,0,0,1,.013.084,24.254,24.254,0,0,0,.746,2.871.728.728,0,0,0,.963.6,1.011,1.011,0,0,0,.39-.159c.305-.206.6-.429.9-.651.158-.119.3-.262.46-.375.387-.273.861-.432,1.116-.872a2.9,2.9,0,0,0,.915-.752,1.113,1.113,0,0,1,.2-.161c.478-.305.954-.611,1.436-.907a2.856,2.856,0,0,0,1-1.1L23.249,7.1c.063-.015.184.008.078-.119l-.068.13a.468.468,0,0,1-.156-.055c-.486-.426-.882-.986-1.6-1.064-.008,0-.011-.049-.015-.075C21.43,5.591,21.183,5.78,21.022,5.741ZM13.414,31.206a.709.709,0,0,0-.265.559c-.034.253-.059.51-.071.767-.031.647-.052,1.293-.076,1.94A11.586,11.586,0,0,1,13.2,37a10.961,10.961,0,0,0,.216,1.759c.349,1.522.612,3.064,1.053,4.567a7.208,7.208,0,0,0,.327,1.056c.166.357.286.734.421,1.1a9.318,9.318,0,0,0,.89,1.555,18.2,18.2,0,0,0,1.925,3,3.746,3.746,0,0,1,.387.663,2.034,2.034,0,0,0,.31.5A10.915,10.915,0,0,1,20.164,52.9a4.051,4.051,0,0,0,.591.612,1.259,1.259,0,0,0,.385.174c.093.034.245-.112.216-.2-.036-.109-.075-.216-.119-.32A11.919,11.919,0,0,0,20.2,51.407c-.435-.666-.842-1.352-1.256-2.031a13.791,13.791,0,0,1-1.215-2.144,13.216,13.216,0,0,0-.694-1.37c-.146-.276-.327-.536-.46-.817a25.285,25.285,0,0,1-1.287-3.426c-.284-.924-.726-1.8-.92-2.752-.067-.335-.145-.668-.192-1-.109-.762-.179-1.529-.305-2.287a16.1,16.1,0,0,1-.223-2.544c0-.512-.052-1.023-.1-1.534A1,1,0,0,0,13.414,31.206ZM21.571,51.12c.171-.041.307-.065.437-.107a.312.312,0,0,0,.224-.387.525.525,0,0,0-.6-.453.36.36,0,0,0-.236.193A.726.726,0,0,0,21.571,51.12Zm25.187-.2c.089.232.015.525.169.773.076.125.187.093.291.042s.219-.182.135-.253c-.216-.182-.211-.448-.331-.663a.158.158,0,0,0-.141-.058C46.84,50.772,46.815,50.84,46.758,50.918ZM26.4,37.945a.332.332,0,0,0-.366.273c-.026.159.136.3.33.286a.314.314,0,0,0,.322-.314A.279.279,0,0,0,26.4,37.945Zm-2.162-1.311c0-.119-.162-.232-.318-.221a.315.315,0,0,0-.307.245.278.278,0,0,0,.265.273A.373.373,0,0,0,24.234,36.634ZM44.671,40.4a.777.777,0,0,0-.211.067.349.349,0,0,0-.112.377.269.269,0,0,0,.143.174.283.283,0,0,0,.219-.067.28.28,0,0,0,.078-.372C44.749,40.5,44.7,40.438,44.671,40.4Zm-4-1.693a4.232,4.232,0,0,0,.4.588c.045.047.2.008.291-.021.023-.008.026-.146,0-.211C41.269,38.824,41.043,38.8,40.666,38.7Zm-8.987,1.589c-.193-.013-.338.089-.323.227a.245.245,0,0,0,.156.159.2.2,0,0,0,.276-.214C31.781,40.4,31.71,40.338,31.679,40.292Zm-2.661-1.553a.414.414,0,0,0-.041-.653l-.346.309Zm-4.463-13.9-.5.135c.016.174.14.2.229.249a.3.3,0,0,0,.232,0C24.624,25.161,24.645,25.049,24.555,24.842Zm35.19,8.368a.878.878,0,0,0-.232-.122c-.091-.019-.21.136-.192.231.026.132.128.172.247.174A.211.211,0,0,0,59.745,33.211Zm-1.29,2.432.383.24c.059-.075.094-.117.123-.162a.225.225,0,0,0,.024-.081c.034-.182-.062-.281-.231-.216A1.752,1.752,0,0,0,58.455,35.643ZM30.956,8.995c-.029-.19-.169-.31-.291-.279a.228.228,0,0,0-.153.266.218.218,0,0,0,.278.133C30.855,9.1,30.911,9.029,30.956,8.995ZM39.1,43.881l.453.244c.1-.151,0-.236-.039-.322-.026-.06-.136-.14-.18-.123C39.253,43.707,39.191,43.8,39.1,43.881Zm-3.124.869a.244.244,0,0,0-.3-.237.281.281,0,0,0-.171.151c-.047.136.177.305.339.249C35.906,44.891,35.942,44.8,35.976,44.75Zm5.4-1.162a.42.42,0,0,0-.049.452c.01.034.08.055.127.07.018,0,.047-.026.071-.039C41.4,43.931,41.7,43.666,41.375,43.588Zm4.165,7.969a.211.211,0,0,0-.122-.291c-.08-.039-.281.073-.25.128a.534.534,0,0,0,.208.195C45.418,51.612,45.5,51.567,45.54,51.557Zm-.008-1.67c-.18-.008-.325.145-.284.268.019.06.127.145.164.132a.407.407,0,0,0,.247-.179C45.68,50.051,45.568,49.944,45.532,49.887ZM25.6,37.077a1.836,1.836,0,0,0,.154-.377c.01-.057-.06-.127-.094-.192-.045.029-.112.049-.13.089A.407.407,0,0,0,25.6,37.077Zm22.759,4.3a1.235,1.235,0,0,0-.237-.271c-.047-.029-.146.015-.213.045-.016.008-.013.112.015.146a.42.42,0,0,0,.182.153C48.162,41.463,48.237,41.413,48.363,41.374ZM39.63,51.955c-.192.148-.3.3-.143.573C39.654,52.363,39.792,52.22,39.63,51.955ZM32.277,39.683c-.039.14-.088.219-.067.271a.254.254,0,0,0,.171.13c.033.006.13-.119.117-.145A1.338,1.338,0,0,0,32.277,39.683Zm8.017,4.559a.243.243,0,0,0-.01-.07c-.085-.159-.21-.21-.317-.133-.021.015-.046.041-.046.062,0,.119.153.213.305.187C40.252,44.282,40.271,44.258,40.294,44.241Zm13.942,4.125c.125-.093.279-.162.283-.354C54.124,48.095,54.124,48.1,54.236,48.366Zm-8.094-6.419c-.047-.089-.1-.188-.151-.284a.081.081,0,0,0-.071-.024c-.034.031-.091.088-.083.109a2,2,0,0,0,.171.281c.008.011.055.008.078,0S46.117,41.985,46.143,41.948Zm3.29,4.521c.218.151.419.08.72,0C49.848,46.409,49.644,46.306,49.432,46.469Zm-17.5-4.357c-.062.036-.149.07-.146.086a.324.324,0,0,0,.091.2.265.265,0,0,0,.21-.023.142.142,0,0,0,.028-.138A.763.763,0,0,0,31.932,42.112ZM24.7,37.67l-.132.07c.029.045.049.106.089.133a.324.324,0,0,0,.156.034c.019,0,.06-.029.06-.045a.211.211,0,0,0-.028-.135A.394.394,0,0,0,24.7,37.67Zm-5.571.236c-.02-.05-.028-.115-.063-.148-.067-.06-.193.032-.219.167a.173.173,0,0,0,.055.14C18.991,38.127,19.111,38.039,19.134,37.906Zm29.522,5.459a.753.753,0,0,0,.029-.216c0-.031-.083-.049-.128-.071a1.323,1.323,0,0,0-.044.221C48.511,43.314,48.588,43.335,48.656,43.364Zm1.592-.167c.071-.086.109-.123.138-.164.041-.057.12-.11.036-.19-.018-.015-.058-.034-.065-.028a.511.511,0,0,0-.136.148C50.2,43,50.23,43.064,50.248,43.2Zm-21.066-1.98c-.047-.018-.1-.063-.137-.05s-.054.084-.078.13c.047.019.1.063.141.05S29.158,41.264,29.182,41.217ZM23.425,51.625l-.06-.149a.583.583,0,0,0-.125.084.291.291,0,0,0-.071.149c0,.041.033.122.052.122a.211.211,0,0,0,.141-.06A.479.479,0,0,0,23.425,51.625Zm8.63-8.787c-.067.036-.135.049-.141.078a.146.146,0,0,0,.052.127c.024.02.081-.006.125-.013Zm-9.408,8.445c-.023-.015-.042-.039-.067-.044a.125.125,0,0,0-.08.015.1.1,0,0,0-.049.063c0,.078,0,.158,0,.236a.946.946,0,0,0,.149-.127A.435.435,0,0,0,22.646,51.282ZM9.933,19.36c.07-.037.132-.05.164-.089.081-.089.018-.161-.06-.2-.031-.016-.13.024-.132.045A1.219,1.219,0,0,0,9.933,19.36Zm-2.153.335c.12,0,.231-.117.188-.214a.168.168,0,0,0-.115-.091c-.119-.013-.229.112-.188.213C7.681,19.641,7.739,19.663,7.78,19.694ZM25.758,50.938a.284.284,0,0,0-.016-.37.1.1,0,0,0-.078-.011c-.023,0-.058.026-.06.042A.336.336,0,0,0,25.758,50.938Zm-3.389-.125c.268.018.393.081.491-.078a.088.088,0,0,0-.007-.075c-.01-.021-.044-.054-.055-.049C22.7,50.654,22.6,50.7,22.369,50.813Zm1.605-9.989c-.073-.07-.136-.166-.169-.156-.07.021-.124.1-.184.148.057.054.109.132.177.153C23.834,40.978,23.9,40.887,23.974,40.823Zm-1.816-.3-.156.1.148.174.174-.148ZM33.185,39.39a.676.676,0,0,0-.151-.153c-.026-.015-.088.041-.133.063a.976.976,0,0,0,.13.172C33.044,39.485,33.113,39.429,33.185,39.39Zm27.026-4.125c-.042.026-.123.062-.12.08a.237.237,0,0,0,.237.185c.021,0,.065-.036.063-.037a1.735,1.735,0,0,0-.109-.193C60.27,35.28,60.236,35.277,60.211,35.266ZM55.8,45.588c-.021-.049-.031-.117-.068-.141s-.091.029-.138.047c.021.049.031.117.068.138S55.754,45.6,55.8,45.588ZM59.94,37.9a.747.747,0,0,0-.214-.028c-.026,0-.041.086-.06.132a.612.612,0,0,0,.193.057C59.882,38.063,59.9,37.977,59.94,37.9Zm-23.7-.037a1.35,1.35,0,0,0-.294-.008c-.039.01-.063.076-.094.117.041.015.089.052.12.041A1.794,1.794,0,0,0,36.244,37.865Zm12.62,8.568c-.044.026-.107.044-.122.083a.145.145,0,0,0,.045.132c.055.047.169-.028.158-.1C48.939,46.5,48.891,46.469,48.864,46.433Zm-8.979-.315-.067-.143a.9.9,0,0,0-.192.13.142.142,0,0,0,.013.138C39.7,46.311,39.844,46.236,39.885,46.118Zm3.6,11.447-.094-.151-.171.117c.028.041.06.117.081.114A.749.749,0,0,0,43.488,57.565Zm-5.532-3.083a.213.213,0,0,0-.011-.075c-.011-.02-.044-.044-.058-.039a.756.756,0,0,0-.151.071,1.592,1.592,0,0,0-.133.1.978.978,0,0,0,.232.039C37.877,54.575,37.916,54.515,37.956,54.481Zm1.2-45.987c.021.039.036.1.067.11s.086-.024.13-.039L39.267,8.4ZM21.7,52.782c-.013.041-.05.094-.037.117.026.039.081.057.125.084.016-.047.057-.1.042-.138S21.75,52.8,21.7,52.782Zm-10.774-33.9,0-.057-.266-.011,0,.068ZM57.554,46.742c-.054-.039-.106-.08-.162-.115l-.047.047c.047.054.1.1.145.153ZM19.337,32.6a.892.892,0,0,0-.091.12c0,.006.039.055.045.052a.893.893,0,0,0,.127-.075ZM52.9,50.152a1.417,1.417,0,0,0-.156-.109c-.01,0-.041.026-.06.039l.151.153Zm7.246-17.359c-.076-.028-.135-.068-.161-.052a.179.179,0,0,0-.081.13c0,.028.093.089.1.084A1.457,1.457,0,0,0,60.143,32.793ZM44.614,45.332l.143-.055c-.026-.044-.042-.1-.08-.127-.021-.013-.111.028-.112.047C44.562,45.241,44.6,45.286,44.614,45.332ZM33.536,39.42a.722.722,0,0,0-.088.1c-.007.01.02.041.031.062l.122-.138ZM38.427,55.8l.132-.062c-.023-.015-.044-.044-.065-.044a1.043,1.043,0,0,0-.159.024Zm3.788-17.043c-.026-.041-.044-.1-.08-.117s-.084.013-.127.021c.021.044.032.109.068.125S42.169,38.768,42.216,38.755Zm5.39,2.117a2.01,2.01,0,0,0,.122-.169s-.031-.037-.049-.057l-.162.156Zm-17.56,11.59-.028-.138c-.023.013-.057.023-.067.042a.734.734,0,0,0-.042.128ZM51.163,41.407l.127.114c.018-.023.055-.054.05-.065a.859.859,0,0,0-.085-.132Zm-3.5-2.3.058-.119a.37.37,0,0,0-.112,0c-.018,0-.029.037-.042.057ZM27.125,25.2c-.044.026-.106.042-.127.08s.013.093.023.14c.047-.023.119-.032.133-.068S27.137,25.25,27.125,25.2Zm7.507-13.69c.067.045.124.088.184.123.007,0,.044-.031.052-.052.037-.094-.02-.141-.1-.149C34.733,11.427,34.693,11.471,34.632,11.508ZM52.209,50.083c.054-.058.1-.11.149-.166,0,0-.037-.049-.047-.045-.062.021-.119.05-.179.076ZM24.893,25.721c.073.029.132.075.164.06a.17.17,0,0,0,.065-.135c0-.034-.055-.067-.086-.1Zm8.271,24.2a.626.626,0,0,0-.068.119c0,.013.039.062.049.058a.732.732,0,0,0,.124-.062Zm-1.2-4c-.072-.041-.137-.078-.2-.109-.007,0-.045.036-.05.06-.023.109.054.148.138.153C31.876,46.02,31.911,45.964,31.962,45.915Zm15.783-.135a.451.451,0,0,0,.138.062.52.52,0,0,0,.154-.045.439.439,0,0,0-.14-.062A.421.421,0,0,0,47.744,45.78Zm.526-8.293c-.042.024-.114.044-.12.076s.034.1.055.146l.174-.12Zm9.936,8.386c-.042-.016-.093-.055-.125-.042s-.063.07-.094.109l.179.062ZM24.018,54.02c-.049-.018-.1-.057-.141-.045s-.042.083-.062.127c.041.015.1.054.12.039S23.99,54.062,24.018,54.02Zm7.231-.751-.034-.067-.119.06.057.1ZM47.9,44.3c.041.031.081.063.123.089l.049-.052-.161-.1ZM18.168,21.1c-.046-.016-.1-.057-.132-.044s-.046.083-.067.127c.039.016.094.055.114.042A.424.424,0,0,0,18.168,21.1ZM40.039,37.951c.091-.015.1-.063.011-.093a.376.376,0,0,0-.158.011l-.007.05A.434.434,0,0,0,40.039,37.951ZM27.975,40.515c-.029.039-.083.078-.085.119s.044.089.07.135c.031-.041.083-.08.085-.122S28,40.559,27.975,40.515ZM34.78,40.5l-.018-.055c-.07.01-.138.023-.206.036.023.013.045.039.067.039A1.3,1.3,0,0,0,34.78,40.5ZM24.188,37.464l.135-.081c-.042-.029-.086-.081-.128-.08s-.088.049-.133.078Zm16.337,8.82-.036-.14c-.042.026-.1.044-.122.081s.015.076.026.117Zm1.386-2.364c-.018.013-.054.031-.052.037a1.045,1.045,0,0,0,.054.135l.1-.065Zm.957-1.046c-.045-.023-.091-.063-.138-.063s-.1.041-.145.063a.438.438,0,0,0,.143.062C42.773,42.935,42.82,42.9,42.867,42.874Zm-1.29,7.286a1.476,1.476,0,0,0-.091.172c0,.011.041.057.044.055.058-.037.115-.078.172-.12Zm5.79-7.28a.462.462,0,0,0-.06.143.364.364,0,0,0,.06.135.412.412,0,0,0,.063-.143C47.431,42.971,47.39,42.926,47.368,42.88ZM25.8,45.432a.815.815,0,0,0-.085.117c-.007.013.024.044.037.067l.117-.161Zm25.824-6.144c-.007.023-.024.049-.021.068.018.086.054.089.088.011a.1.1,0,0,0-.013-.071C51.669,39.287,51.64,39.291,51.621,39.288ZM24.185,49.733c-.015-.019-.033-.055-.045-.052a.748.748,0,0,0-.125.041c.015.02.034.055.045.054A.944.944,0,0,0,24.185,49.733ZM46.7,49.411c-.018,0-.046,0-.052.018a.183.183,0,0,0-.016.068l.094-.023ZM33.958,39.475c-.007.021-.024.044-.02.062.016.076.049.08.08.011a.1.1,0,0,0-.013-.065C34,39.475,33.975,39.477,33.958,39.475ZM65.222,27.768c-.02.013-.057.029-.055.039a.966.966,0,0,0,.042.132c.021-.015.059-.032.057-.044A.7.7,0,0,0,65.222,27.768Zm-9.942-.18c0,.019,0,.047.016.054a.178.178,0,0,0,.073.015l-.023-.091ZM56.325,43.8l-.044-.07c-.018.02-.057.05-.052.058a.448.448,0,0,0,.071.086ZM45.178,39.94c0,.021,0,.052.013.06a.092.092,0,0,0,.075.015c.065-.039.059-.08-.016-.1C45.23,39.907,45.2,39.93,45.178,39.94Zm-3.961,0c0,.018,0,.049.013.055A.087.087,0,0,0,41.3,40c.063-.032.057-.07-.016-.089C41.266,39.905,41.24,39.925,41.217,39.935Zm7.22,3.977a.274.274,0,0,0,.075.021c.008,0,.018-.031.026-.046a.248.248,0,0,0-.073-.021C48.456,43.866,48.446,43.9,48.436,43.912Zm10.938,6.207-.034.065.049.011ZM38.863,39.745l-.063.034.036.05c.032-.016.063-.039.094-.058Zm-1.642.083-.018.063.063-.042ZM47.845,50.056c-.023-.008-.05-.028-.071-.023-.086.019-.089.057-.01.091a.087.087,0,0,0,.073-.015C47.847,50.1,47.844,50.074,47.845,50.056Zm-.611.106L47.2,50.1l-.045.047a.437.437,0,0,0,.06.075Zm-.686-.023-.044-.063-.052.052a.432.432,0,0,0,.072.083Zm4.882-6.183.06-.041c-.018-.018-.046-.052-.05-.049a.435.435,0,0,0-.078.067Zm-3.238-4.329c-.01-.016-.018-.042-.034-.047a.2.2,0,0,0-.068,0,.267.267,0,0,0,.045.071ZM27.847,25.645l-.029-.063c-.015.018-.037.034-.039.054s.016.044.026.065ZM19.605,38.6a.339.339,0,0,0,.078.018c.008,0,.018-.029.026-.047a.25.25,0,0,0-.076-.018C19.623,38.552,19.615,38.581,19.605,38.6Zm6.463-2.133.065-.013-.018-.075c-.02,0-.054.007-.055.015A.227.227,0,0,0,26.068,36.466ZM48.042,38.4a.749.749,0,0,0-.125-.05c-.015,0-.036.026-.054.041.024.029.054.081.075.08C47.975,38.469,48.008,38.43,48.042,38.4Zm-20.6,8.082c-.01-.018-.018-.045-.034-.05a.168.168,0,0,0-.068.007.377.377,0,0,0,.045.075Zm-.335-9.4a.243.243,0,0,0-.018.065c0,.006.031.015.047.021a.243.243,0,0,0,.018-.065C27.15,37.1,27.119,37.088,27.1,37.082Zm10.309,9.231-.132-.016c.019.015.039.039.06.041S37.388,46.323,37.412,46.313Zm1.035-.156c-.011.016-.031.032-.033.05s.011.041.02.062c.011-.016.031-.032.034-.05A.165.165,0,0,0,38.447,46.157Zm-11.2-7.9c0-.016,0-.042-.011-.047a.18.18,0,0,0-.067-.013l.013.08Zm17.683,7.712c-.013-.018-.029-.052-.041-.05a1.227,1.227,0,0,0-.125.039c.015.018.032.054.044.052A.712.712,0,0,0,44.929,45.973ZM28.233,37.5l-.117.06c.018.019.041.06.05.057a.836.836,0,0,0,.127-.063Zm-.281.6c-.008.021-.024.044-.019.062.016.075.049.08.08.011A.082.082,0,0,0,28,38.112C27.995,38.1,27.969,38.107,27.952,38.1ZM56.163,48.6l-.041-.068-.055.042a.832.832,0,0,0,.068.1Zm1.469-16.21a.312.312,0,0,0-.075-.018c-.006,0-.013.036-.019.055a.237.237,0,0,0,.073.016C57.62,32.442,57.625,32.408,57.632,32.389ZM46.84,44.547c.018-.008.046-.015.05-.029a.211.211,0,0,0,0-.07l-.076.039ZM28.685,55.323l-.023-.065c-.015.018-.036.034-.037.054s.013.042.021.062Zm-2.1-10.773a.974.974,0,0,0-.057.161c0,.013.036.036.055.054.028-.036.075-.068.08-.107S26.619,44.592,26.586,44.55ZM19.345,34.143c0-.016,0-.044-.013-.05a.21.21,0,0,0-.068-.016l.015.091Zm23.261,10.6c0,.015,0,.039.01.042a.29.29,0,0,0,.065.015l-.011-.075Zm3.21.033c-.013-.016-.024-.041-.041-.045s-.044,0-.067.008a.357.357,0,0,0,.052.068ZM60.2,34.795a.741.741,0,0,0-.128-.054c-.01,0-.047.047-.046.05.024.031.055.078.086.078S60.171,34.822,60.2,34.795ZM26.117,55.669l-.023-.062c-.011.018-.033.034-.034.052s.011.041.02.062Zm6.618-16.939c-.023-.008-.049-.026-.07-.021-.083.018-.086.054-.008.088a.1.1,0,0,0,.071-.015C32.738,38.776,32.733,38.747,32.735,38.729Zm-3.561,8.612-.013.125c.015-.02.039-.037.041-.057S29.185,47.364,29.174,47.341Zm26.108-2.284L55.214,45l.016.075ZM32.959,35.972a.266.266,0,0,0,.018-.068c0-.006-.031-.013-.047-.021a.208.208,0,0,0-.016.067C32.914,35.958,32.943,35.966,32.959,35.972ZM38.3,45.1c.015.018.031.052.041.05a.958.958,0,0,0,.127-.041c-.015-.018-.033-.052-.044-.05A.687.687,0,0,0,38.3,45.1ZM52.025,35.95l-.015-.068-.034.086ZM26.246,54.159l.036-.068-.052-.011Zm-.666-2.395c-.02.016-.059.037-.055.047a.764.764,0,0,0,.052.127c.019-.016.057-.037.054-.049A.7.7,0,0,0,25.58,51.765Zm14.579-8.18c-.013.021-.037.041-.039.062a.191.191,0,0,0,.026.071c.016-.021.041-.041.042-.062S40.171,43.609,40.159,43.585ZM23.621,15.818l.065-.041c-.018-.018-.046-.052-.054-.047a.385.385,0,0,0-.081.065Zm35.45,37.063-.041-.063c-.018.018-.052.045-.049.052a.446.446,0,0,0,.067.08ZM57.895,42.047l.07-.033c-.02-.015-.037-.041-.057-.042s-.045.018-.068.029Zm-30.769,9.77a.624.624,0,0,0,.045-.114c0-.011-.029-.033-.045-.049l-.085.084Zm13.887-8.761c.02-.018.057-.041.054-.054a.85.85,0,0,0-.055-.132c-.02.016-.059.039-.055.05A.7.7,0,0,0,41.012,43.056ZM47.229,41.1l-.016-.067-.034.083ZM24.77,43.777l-.055-.054a.776.776,0,0,0-.062.122c0,.011.032.034.052.052ZM57.141,41.5c-.016-.019-.034-.057-.045-.055a.92.92,0,0,0-.128.044c.015.02.034.057.045.055A.747.747,0,0,0,57.141,41.5Zm-.867.151.032-.1c-.018,0-.047.008-.049.016A.294.294,0,0,0,56.273,41.649Zm-1.043-.023c.019-.006.054-.011.054-.018a.236.236,0,0,0-.015-.073c-.018,0-.052.01-.052.018A.228.228,0,0,0,55.23,41.626ZM35.048,52.381l-.036-.057-.045.044a.433.433,0,0,0,.06.075Zm-13.33-.112-.062.032.031.047a.778.778,0,0,0,.094-.054Zm15.724-.016-.015-.067-.039.083ZM58.657,41.74l.023.075.026-.07ZM40.7,43.158l-.015-.062-.032.076Zm9.622-1.72-.05-.115c-.018.016-.054.037-.052.05a.791.791,0,0,0,.052.12Zm-27.637.539.01-.073-.083.023a.251.251,0,0,0,.024.067Zm-.518,10.275.018-.071-.1.018a.186.186,0,0,0,.026.063C22.12,52.27,22.149,52.257,22.167,52.252ZM25.338,41.8c-.02.01-.046.016-.057.033s.013.034.021.052l.094-.055ZM9.783,13.906c-.015.019-.041.039-.041.06s.019.047.029.071c.016-.021.041-.041.042-.062S9.794,13.929,9.783,13.906Zm13.734,37.06c-.011.016-.031.031-.033.047s.011.041.018.06c.011-.016.031-.032.034-.049S23.524,50.985,23.517,50.966ZM45.446,40.481c-.018-.013-.033-.034-.05-.036s-.042.015-.063.021c.018.013.034.034.052.036S45.425,40.489,45.446,40.481ZM42.177,58.112c-.021-.008-.044-.023-.062-.019-.075.016-.08.049-.01.08a.084.084,0,0,0,.063-.013C42.177,58.154,42.174,58.128,42.177,58.112ZM6.126,19.738l-.013-.052a.285.285,0,0,0-.073.011l.015.052A.284.284,0,0,0,6.126,19.738ZM26.654,54.444l.143-.058-.036-.058c-.057.018-.11.042-.166.065ZM9.752,19.86c-.021-.006-.044-.023-.063-.018-.076.018-.081.054-.011.086a.077.077,0,0,0,.065-.016C9.754,19.905,9.751,19.878,9.752,19.86Zm-2.029.2-.12-.029c.007.018.013.049.021.05A.45.45,0,0,0,7.723,20.061Zm29.72,23.8-.015-.068-.037.081ZM49.051,40.45c-.024-.006-.049-.024-.07-.019-.086.016-.089.049-.01.083a.1.1,0,0,0,.071-.013C49.051,40.5,49.047,40.468,49.051,40.45ZM35.256,53.37l.065-.023c-.018-.013-.036-.036-.055-.037s-.041.015-.062.023Zm-9.393-9.629c-.008-.018-.013-.047-.026-.052a.214.214,0,0,0-.071,0l.036.081Zm22.843,7.551-.1-.024.015.041A.376.376,0,0,0,48.706,51.292Zm2.817-10.636.065.016-.042-.062Zm-2.3,9.912c-.024-.008-.05-.028-.071-.023-.088.019-.091.057-.01.093a.093.093,0,0,0,.073-.015C49.228,50.616,49.223,50.587,49.224,50.568Zm-6.685-8.032c-.018-.011-.033-.031-.05-.032s-.042.011-.062.018c.016.011.032.032.05.034A.16.16,0,0,0,42.539,42.536ZM6.849,3.809c-.008.024-.026.049-.021.07.02.083.057.086.089.008A.1.1,0,0,0,6.9,3.816C6.9,3.808,6.867,3.811,6.849,3.809Zm58.5,36.821a.337.337,0,0,0-.078-.018c-.008,0-.016.032-.024.049a.23.23,0,0,0,.076.019C65.329,40.68,65.337,40.648,65.345,40.63Zm-8.072,4.645.044.029.006-.045Zm-6.128-1.751-.032.052.049.006Zm-16.613.556-.049-.029-.007.045Zm-1.249-.318.034-.049-.054-.008ZM47.7,44.966l.032-.052-.052-.006ZM37.407,51.833l.028-.045-.044,0Zm4.461-1.272-.029.042.049,0Zm-15.661.372.059.032,0-.057ZM49.252,50.9l-.033.05.055.007ZM20.56,51.1l.042.028.007-.042Zm-3.431,1.717.044.029,0-.045ZM45.987,52.1l-.032.047.054.006Zm2.114.557c-.015-.016-.029-.045-.045-.045s-.037.023-.055.037c.016.016.029.045.047.047S48.082,52.671,48.1,52.657ZM35.559,46.826,35.52,46.8l-.006.039Zm3.041.45v.107l.054-.044ZM22.651,45.829l.029-.045-.047-.007Zm10.478-.07L33.1,45.8l.046.007Zm2.391.517-.028.039.044.007Zm-.346,10.186.032-.052-.05-.006Zm21.8-8.126-.029.041.044.008Zm2.57.749.029-.042-.049-.007ZM31.749,11.276l-.028.037.046.008Zm-12.529,1.1.034-.049-.06,0Zm6.687,12.522.033-.045-.05-.006Zm2.763,1.477-.028.042.042.008Zm-19.4-6.7-.031.045.05.007ZM6.316,20.909l.054.034.006-.054ZM29.345,6.717l.032-.05-.054,0Zm5.54,3.737c-.015-.016-.028-.045-.044-.047s-.034.024-.052.039c.015.016.029.044.044.045S34.868,10.467,34.884,10.454ZM21.963,2.589l.029-.041-.046-.007ZM50.8,38.9l-.029.042.046.008Zm-16.676.2.045.031.007-.047Zm-4.937,3.4-.037.057.059.008Zm16.939-1.34.052.033.006-.054Zm-20.208.318-.029.042.045.008Zm20.759.232.028-.041-.042,0Zm12.022-5.561-.034.052.055.007Zm-33.809.18-.028.039.044.007Zm35.386-4.435-.054-.034,0,.06Zm-23.205,6.22.029-.047-.049,0Zm-3.267.171.026-.041-.041,0Zm-1.742.3.044.029.007-.045Zm9.952-1.371.044.031.006-.047Zm9.817.455c-.02.02-.06.044-.057.054.028.081.07.084.107.006C51.882,37.712,51.845,37.683,51.827,37.662Z" transform="translate(0 9.995)"/><path class="a" d="M10.246,18.635a2.947,2.947,0,0,1-.575,1.409,6.1,6.1,0,0,0-.718,1.545A4.143,4.143,0,0,1,8.5,22.595a3.467,3.467,0,0,0-.408.932A5.356,5.356,0,0,1,7.612,24.7,4.852,4.852,0,0,0,7.2,25.8a2.836,2.836,0,0,1-.422,1.014,1.1,1.1,0,0,0-.149.567.412.412,0,0,1-.3.374c-.046.013-.12.075-.114.1.106.4-.213.533-.417.762a1.228,1.228,0,0,0-.3.56c-.068.333-.185.655-.255.988a.347.347,0,0,1-.24.276c-.1.045-.123.237-.175.364-.029.075-.029.2-.076.223a.918.918,0,0,0-.575.921l-.986.6.019-.019a2.376,2.376,0,0,1-1.082.167,1.481,1.481,0,0,1-1.23-.625A1.285,1.285,0,0,0,.5,31.752c-.242-.167-.3-.283-.12-.523.13-.172.122-.213-.07-.255-.028,0-.07-.006-.08-.024a1.051,1.051,0,0,1-.171-.96c.174-.336.226-.7.364-1.04a4.089,4.089,0,0,1,.31-.786c.174-.247,0-.569.237-.777L.96,27.4c.085-.067.12-.133,0-.2l.02.016c.143-.171.336-.284.439-.508.262-.567.554-1.123.856-1.67a1.18,1.18,0,0,0,.242-.624.474.474,0,0,1,.1-.234,11.75,11.75,0,0,0,1.017-2.229c.148-.429.4-.822.588-1.236.344-.752.686-1.5,1.009-2.263a2.513,2.513,0,0,1,.552-.855.265.265,0,0,0,.02.075c.01.013.039.011.058.016l-.093-.076c.029-.375.34-.582.523-.863a1.569,1.569,0,0,0,.283-.5c.12-.492.406-.924.508-1.441a5.854,5.854,0,0,1,.565-1.324,5.042,5.042,0,0,1,.489-.892A16.792,16.792,0,0,0,9.141,10.63c.132-.232.1-.556.31-.775a4.736,4.736,0,0,1,.608-1.3c.177-.39.349-.78.528-1.168a5.63,5.63,0,0,1,.338-.689,4.668,4.668,0,0,1,.443-.518l-.028-.6a.514.514,0,0,1,.067-.128c.154-.169.322-.323.471-.5a1.435,1.435,0,0,1,.945-.526,1.187,1.187,0,0,0,.83-.52,1.078,1.078,0,0,1,.518-.4,3.417,3.417,0,0,0,.59-.335l.521.27c.133-.11.133-.11.071-.476a.676.676,0,0,1,.146-.026c.138.01.275.032.413.044.015,0,.052-.042.047-.05a1.757,1.757,0,0,0-.11-.18c.185-.044.357-.088.531-.127s.333-.054.494-.1c.192-.052.379-.123.567-.185l-.015-.019.023.367c-.1.029-.192.054-.286.086a.071.071,0,0,0-.021.068c.024.032.067.086.091.081a1.274,1.274,0,0,0,.213-.091.231.231,0,0,0,.013.078c.006.013.036.015.055.021l-.088-.08,0-.184c.149-.068.159-.214.193-.346l-.015.016c.146.026.276.141.44-.011a1.355,1.355,0,0,1,.431-.182.3.3,0,0,0,.019.078c.007.013.034.015.052.021l-.093-.078c.01-.054,0-.123.031-.161a1.422,1.422,0,0,1,.785-.387c.049-.015.109.14.2.055.2-.185.526-.107.686-.382.089-.154.25-.026.379,0a.273.273,0,0,0,.026.063c.008.011.028.015.042.021l-.088-.065c.015-.023.026-.062.047-.067.266-.071.538-.128.8-.21.242-.073.476-.169.713-.255A.242.242,0,0,0,22.1.861c.008.013.034.013.052.018L22.06.8A.487.487,0,0,1,22.5.585c.424.016.788-.234,1.222-.236A3.245,3.245,0,0,0,24.711,0a1.77,1.77,0,0,1,.768.58.937.937,0,0,0,.26.2c.039.021.112,0,.159-.029.013-.006.008-.109-.015-.12-.2-.11-.062-.236-.024-.357l-.018.021c.292.018.439.135.478.465a4.377,4.377,0,0,1,.135.783c.132.145.249,0,.372-.024a.377.377,0,0,1,.445.151c.011.206-.3.266-.227.5a1.076,1.076,0,0,0-.231.08c-.029.016-.024.089-.036.136.047,0,.112.013.136-.011a1.257,1.257,0,0,0,.133-.2c.375.177.385.184.151.512-.112.156.067.185.08.288-.153.434-.712.528-.812,1.022l-.858.1c-.06.154-.006.369-.226.406a6.393,6.393,0,0,1-1.069.268,2.055,2.055,0,0,0-.567.162,5.86,5.86,0,0,1-.647.206c-.086.018-.193-.068-.3-.11a3.576,3.576,0,0,1-1.95.741,4.083,4.083,0,0,0-1.605.489,2.2,2.2,0,0,1-1.019.4c-.107,0-.231.057-.318.019a.632.632,0,0,0-.713.1.562.562,0,0,1-.679.088c-.158.221-.275.414-.421.58a7.408,7.408,0,0,0-1.331,2.445c-.05.141-.145.151-.25.179A.232.232,0,0,0,14.492,10c-.008-.011-.031-.011-.047-.016l.088.065a3.727,3.727,0,0,0-.6,1.318,1.561,1.561,0,0,1-.239-.045c-.148-.052-.284-.058-.359.1a.3.3,0,0,0,.107.372c.063.054.123.11.2.185a3.164,3.164,0,0,1-.569,1.383c-.138.149-.133.424-.208.637-.117.335-.195.4-.629.6l.109.138c.049.162-.083.266-.177.343a2.031,2.031,0,0,0-.582.986l.018-.016c-.083.068-.12.135,0,.2l-.02-.016c-.023.133-.042.268-.07.4-.021.1-.026.276-.086.3-.294.117-.232.408-.338.612a2.969,2.969,0,0,1-.872,1.1C10.2,18.614,10.174,18.575,10.246,18.635ZM26.009,1.47a1.111,1.111,0,0,0,.14-.166c.01-.016-.041-.068-.065-.1-.016.019-.044.039-.046.06-.008.076-.006.153-.008.227a.335.335,0,0,0-.06.024c-.011.007-.018.023-.026.034ZM16.062,3.439c-.041.024-.1.041-.115.073s.024.088.041.133l.162-.1Zm6.913.354H22.9a.786.786,0,0,0,.044.114c.006.013.039.01.058.013ZM9.305,14.059,9.435,14a.965.965,0,0,0-.073-.1c-.008-.007-.062.015-.063.028A.717.717,0,0,0,9.305,14.059ZM19.922,2.079c-.016-.016-.036-.05-.047-.047a.581.581,0,0,0-.125.047c.018.016.037.049.052.045A.63.63,0,0,0,19.922,2.079Zm6.152.328a.34.34,0,0,0-.068-.015c-.007,0-.011.029-.018.045a.254.254,0,0,0,.067.013C26.063,2.451,26.067,2.424,26.074,2.408Zm0,.343a.67.67,0,0,0-.029.127c0,.018.031.036.049.054a.373.373,0,0,0,.067-.114C26.166,2.8,26.108,2.773,26.077,2.75Zm-7.78-.2-.063.032.032.05a1.077,1.077,0,0,0,.094-.054ZM14.2,4.359l.065-.041c-.018-.018-.045-.054-.052-.05a.554.554,0,0,0-.083.07ZM24.636.422,24.7.379,24.649.327a.65.65,0,0,0-.083.07Zm.05.473c-.01-.018-.015-.047-.029-.052a.194.194,0,0,0-.075,0l.039.084ZM23.458.856l-.073.026.07.029ZM14.773,3.836l.029-.047-.044-.006Zm10.137.094-.031.047.049.007ZM15.467,7.536l-.024.039.039,0Zm6.55-6.316-.039-.028,0,.045ZM9.242,11.687l.06.036,0-.058Z" transform="translate(40.646 0)"/><path class="a" d="M5.938,14.375c-.357.223-.71.452-1.074.664a.849.849,0,0,1-.395.13.562.562,0,0,0-.392.12c-.247.2-.487.26-.731-.01-.021-.023-.111,0-.161.024-.12.054-.162-.036-.169-.109a.769.769,0,0,1,.379-.8,4.14,4.14,0,0,0,.846-.811c.458-.437.733-1.069,1.376-1.311l.639-.736c.135.06.255.123.382.172a.309.309,0,0,0,.434-.132c.1-.162.081-.279-.08-.448-.057-.058-.123-.106-.192-.166.089-.278.169-.549.263-.814a1.951,1.951,0,0,0-.552-2.169c-.281-.279-.6-.523-.908-.791l-.086-.393-.331-.044A.541.541,0,0,1,5.1,6.609c-.034-.166-.036-.338-.085-.5-.058-.19-.291-.359-.468-.284a1.635,1.635,0,0,1-1.587-.3c-.094-.058-.227-.067-.309-.136a.993.993,0,0,1-.169-.279,1.127,1.127,0,0,0,.166,0c.023,0,.042-.032.062-.05-.041-.019-.1-.067-.12-.054-.041.024-.062.083-.089.128-.135.029-.255.1-.406.013C1.6,4.861,1.1,4.6.6,4.32a.7.7,0,0,0-.374-.153c-.154,0-.271-.237-.214-.385a5.439,5.439,0,0,1,.755-1.8.2.2,0,0,0,.047-.071c.156-.637.661-1.127.715-1.8a.474.474,0,0,1,.7.068A1.178,1.178,0,0,0,2.7.519,7.023,7.023,0,0,1,3.93,1.1a1.991,1.991,0,0,0,.4.133,3.236,3.236,0,0,1,1.194.621c.252.253.627.374.887.648a.5.5,0,0,0,.474.128c.2-.039.2.149.255.271l-.054.045.036-.063c.218.135.445.258.653.408.174.127.424.162.465.455.032.244.349.21.478.422.294.486.665.923.985,1.394.125.185.143.471.3.6a1.268,1.268,0,0,1,.377,1.058c.008.143.006.288.028.427a1.621,1.621,0,0,1-.262,1.293.388.388,0,0,0-.032.314.32.32,0,0,1-.151.432.655.655,0,0,0-.288.284A3.386,3.386,0,0,1,8.661,11.4a.2.2,0,0,0-.088.138c.041.6-.427.918-.765,1.267-.512.53-1.1.981-1.665,1.464a1.28,1.28,0,0,1-.221.127.943.943,0,0,0-.163-.149c-.019-.011-.078.042-.119.067.021.018.039.047.062.05C5.78,14.37,5.86,14.37,5.938,14.375Zm2.209-5.5c.018,0,.081-.057.019.019l-.045.039ZM6.711,6.9c.2.195.369.336.629.3a.531.531,0,0,0,.424-.544.48.48,0,0,0-.478-.39,2.612,2.612,0,0,0-.455.143ZM8.1,10.909l-.128-.057a.482.482,0,0,0,0,.119c0,.018.041.029.062.042Z" transform="translate(50.956 19.353)"/><path class="a" d="M.021.216A.5.5,0,0,1,.041.067C.054.037.1.023.133,0,.148.021.169.041.172.062c.008.05,0,.1.008.153L.195.2,0,.2Z" transform="translate(35.079 40.565)"/><path class="a" d="M.013.134c.177-.179.179-.179.338,0L.364.121,0,.122Z" transform="translate(40.744 17.483)"/><path class="a" d="M.226.1C.174.088.122.084.07.071A.345.345,0,0,1,0,.036C.036.023.084-.009.1,0a.512.512,0,0,1,.1.115Z" transform="translate(66.279 0.175)"/><path class="a" d="M.184,0C.128.063.072.109.015,0L0,.018l.2,0Z" transform="translate(39.027 73.188)"/><path class="a" d="M0,.02.065.047.018,0Z" transform="translate(14.322 26.006)"/><path class="a" d="M0,.016.071.042.015,0Z" transform="translate(24.96 27.21)"/><path class="a" d="M.06.182A.69.69,0,0,1,0,.062C0,.055.041.032.062.016L.042,0l0,.2Z" transform="translate(41.561 27.205)"/><path class="a" d="M.015.1c.055-.158.11-.12.166,0L.195.088,0,.09Z" transform="translate(26.16 34.156)"/><path class="a" d="M.018.068C.073,0,.127-.04.184.064L.2.048l-.2,0Z" transform="translate(59.097 34.198)"/><path class="a" d="M.018.062c.057-.084.112-.08.169,0L.2.042H0Z" transform="translate(28.386 34.545)"/><path class="a" d="M0,.019.078.047.018,0Z" transform="translate(21.527 34.585)"/><path class="a" d="M.037,0,0,.071.055.018Z" transform="translate(22.01 34.756)"/><path class="a" d="M.026,0,0,.068.045.018Z" transform="translate(1.945 31.494)"/><path class="a" d="M0,.02.065.047.019,0Z" transform="translate(43.829 32.525)"/><path class="a" d="M.016.092c.054-.12.107-.125.162,0L.2.073H0Z" transform="translate(20.327 10.497)"/><path class="a" d="M.015.091c.054-.109.107-.133.162,0L.192.073,0,.072Z" transform="translate(58.073 2.259)"/><path class="a" d="M0,.016A.584.584,0,0,1,.055.133C.058.145.02.167,0,.185L.02.2l0-.2Z" transform="translate(52.24 16.052)"/><path class="a" d="M.021.07.057,0,0,.05Z" transform="translate(27.187 13.953)"/><path class="a" d="M.02.054.052,0,0,.034Z" transform="translate(51.551 38.848)"/><path class="a" d="M0,0,.2,0,0,.2Z" transform="translate(8.146 17.599)"/><path class="a" d="M.2.062H0C.067-.015.132-.026.2.062Z" transform="translate(19.638 25.278)"/><path class="a" d="M0,.02.06.049.018,0Z" transform="translate(9.172 24.633)"/><path class="a" d="M.2.192,0,.2,0,0Z" transform="translate(20.669 58.601)"/><path class="a" d="M.192.188,0,.192,0,0Z" transform="translate(36.283 53.63)"/></g></g></svg>