<svg xmlns="http://www.w3.org/2000/svg" width="45.757" height="56.667" viewBox="0 0 45.757 56.667"><defs><style>.a{fill:#31506c;}</style></defs><g transform="translate(-12.357 -1053.931) rotate(-17)"><path class="a" d="M421.675,767.036a4.342,4.342,0,0,1,1.934.051c.1.041.243-.032.365-.052.207-.035.418-.053.62-.106a7.08,7.08,0,0,1,2.315.022c.349.023.652-.123.988-.123a3.664,3.664,0,0,1,1.06.107c.34.1.685.189,1.018.312a.984.984,0,0,1,.706.858c.1.975.437,1.905.493,2.886.041.723.124,1.448.1,2.236a7.739,7.739,0,0,1-.881.156c-.711.045-1.426.044-2.137.1a4.516,4.516,0,0,0-.791.211c-.591.156-1.181.316-1.775.46-.447.108-.9.192-1.35.287l.007-.008a.533.533,0,0,1-.112.061,9.015,9.015,0,0,0-.968.262c-.29.113-.552.3-.833.444-.759.38-1.524.748-2.281,1.131a3.5,3.5,0,0,0-1.292.717,3.113,3.113,0,0,1-.733.489.449.449,0,0,0-.051-.116.4.4,0,0,0-.091-.071c-.019.029-.059.069-.052.085a.163.163,0,0,0,.085.069.472.472,0,0,0,.119.022,10.187,10.187,0,0,1-1.034.756,2.369,2.369,0,0,0-.8.724c-.072.1-.161.192-.243.288-.082-.048-.156-.065-.189-.114a6.458,6.458,0,0,0-2.256-1.88c-.547-.332-1.083-.683-1.642-.992-.332-.184-.7-.287-1.048-.447-.443-.2-.872-.443-1.317-.64-.288-.128-.6-.192-.894-.312a5.969,5.969,0,0,1-.605-.334l0,0a1.818,1.818,0,0,1-.489.038c-.433-.087-.862-.208-1.292-.317l.006.007c-.207-.034-.415-.066-.622-.1a3.046,3.046,0,0,0-.371-.074c-1.073-.052-2.146-.092-3.22-.15-.5-.027-1.005-.087-1.509-.127-.166-.014-.334-.011-.5-.02-.225-.011-.451-.027-.711-.043-.016-.392-.051-.726-.038-1.057.028-.713.083-1.424.12-2.136a4.944,4.944,0,0,0,0-.667,2.877,2.877,0,0,1,.772-2.128.984.984,0,0,1,.543-.307c.453-.089.916-.113,1.374-.174.29-.039.577-.1.867-.146a1.463,1.463,0,0,1,.436-.025,22.093,22.093,0,0,0,3.033.032c.589.016,1.178.043,1.766.043.5,0,1.007-.032,1.51-.047.393-.011.788-.017,1.27-.028.112.05.1.244.107.418.026.446.038.893.062,1.34q.071,1.271.148,2.541c.014.219.006.457.243.6.247-.117.277-.374.3-.61.054-.624.1-1.25.123-1.876.019-.6,0-1.208,0-1.813,0-.38.065-.475.419-.546a2.5,2.5,0,0,1,1.374-.067,1.621,1.621,0,0,0,.566.011c.673-.019,1.348-.012,2.019-.069.712-.059,1.423.009,2.139-.083a2.792,2.792,0,0,1,1.778.183.386.386,0,0,0,.351-.069.847.847,0,0,1,1-.065Zm-15.723,6.06-.018.017.012-.023q.066-.072.132-.141l.161.085c0-.037,0-.072,0-.107l-.151.028Zm12.677,0,.008-.008Zm5.964-.545c.006-.053.011-.105.017-.158a5.449,5.449,0,0,0,.25-2.038c-.057-1.363-.13-1.68-.436-1.989-.036.019-.089.028-.106.059a.877.877,0,0,0-.1.242,9.188,9.188,0,0,0,.013,3.642,1.14,1.14,0,0,0,.1.242c-.057.038-.158.06-.05.157.014-.055.027-.11.04-.166l.131.006.134,0m-10.906,2.7-.007-.007Zm-3.3-1.479.006-.008-.006.008m9.509,0-.137-.144a.492.492,0,0,0,.027-.188c-.008-.033-.091-.044-.139-.066-.006.039-.029.09-.013.113a.884.884,0,0,0,.133.133c.046.048.091.1.136.145Zm-10.647-1.894-.007.007c-.015-.011-.031-.021-.047-.031l.054.024m-3.175-1.2,0,0Zm7.86.526c.012-.032.026-.064.04-.1-.011.034-.022.069-.032.1Zm6.34.539-.005,0-.015-.04Zm-4.306-1.2.005-.005.031.022Zm2.365,5.152.1.026c-.013-.031-.025-.062-.037-.094-.028-.028-.054-.056-.081-.086l.018.154m-12.763-3.014,0,.006Zm11.916.015.007-.008a.168.168,0,0,0,.027.045c.008.008.022.008.035.011l-.069-.048m2.792-2.553-.251-.141-.016-.016.018.015c.043.123.108.2.245.136Zm-11.542-.014a.657.657,0,0,0,.167-.028c.024-.011.034-.063.049-.1-.047-.008-.111-.041-.135-.02-.039.032-.05.1-.073.154Zm11.411,3.094.014.018-.018-.015-.253-.224a.149.149,0,0,0,.079.159,1.2,1.2,0,0,0,.178.062m-2.4.548.006-.006c.006.129-.027.286.154.306.041.005.089-.067.134-.1l-.294-.2m-3.679,1.335-.009.009a1.137,1.137,0,0,0,0-.329c-.014-.051-.127-.071-.2-.1-.017.076-.072.181-.043.223a1.028,1.028,0,0,0,.243.2m2.916-1.2a1.978,1.978,0,0,0-.234.3,1,1,0,0,0-.025.315c.256-.152.456-.258.64-.39.061-.045.078-.158.111-.229h-.494l.016-.017Zm10.9-2.3c.072.044.141.118.217.128a.267.267,0,0,0,.334-.283.3.3,0,0,0-.347-.3c-.279.044-.234.256-.195.461Zm-2.4-1.2.006-.006a.8.8,0,0,0,.138.214c.168.128.341.115.437-.026a.28.28,0,0,0-.055-.4c-.085-.074-.178-.137-.276-.211l-.25.431m-21.508-1.5a2.686,2.686,0,0,0-.209,1.27c-.037.441-.085.884-.089,1.327a7.872,7.872,0,0,0,.084,1.06c.021.171.145.3.309.26a.4.4,0,0,0,.254-.241,5.382,5.382,0,0,0,.146-.986c.022-.556.013-1.114,0-1.671a4.019,4.019,0,0,0-.1-.723.336.336,0,0,0-.391-.3m11.647,2.523c-.045.066-.122.128-.132.2a13.256,13.256,0,0,0-.028,3.141c.007.074.073.142.146.278a1.727,1.727,0,0,0,.261-.425,6.6,6.6,0,0,0,.037-2.533c-.038-.231,0-.507-.284-.661m12.077-.808a1.967,1.967,0,0,0,.278-.4.511.511,0,0,0-.018-.354c-.026-.051-.2-.058-.283-.025a.241.241,0,0,0-.132.326c.035.1.07.2.155.457m-.627,1.808c.1-.128.2-.192.215-.275a.212.212,0,0,0-.182-.287c-.155-.021-.261.054-.237.216.015.1.11.2.2.346m-7.176,3.7c-.157-.084-.25-.167-.346-.171-.047,0-.148.165-.132.228a.282.282,0,0,0,.218.157c.067,0,.136-.105.26-.214m-17.512-6.418c-.313.048-.492.11-.6.319.186-.056.446.1.6-.319m.872,2.568c-.089.094-.182.15-.181.205a.225.225,0,0,0,.133.173.215.215,0,0,0,.172-.129c.015-.054-.061-.133-.124-.249m10.084,1.515c.007.057.013.114.019.17l.406-.09-.012-.08Zm-2.89-3.547c-.091-.035-.176-.07-.264-.1a.306.306,0,0,0-.044.093c.077.053.158.1.238.147l.07-.145m6.256,7.789c.031.048.062.1.092.145.089-.073.177-.147.265-.221-.02-.031-.04-.062-.061-.093l-.3.169m-3.63-3.257.091-.013c-.01-.1-.022-.208-.034-.313l-.091.013c.012.1.023.208.034.313M421.2,771.8l.147-.13c-.039-.039-.078-.106-.119-.108s-.088.059-.132.094l.1.144m-1.917,3.617-.133.182a.764.764,0,0,0,.185.133c.023.008.117-.1.109-.126a.834.834,0,0,0-.161-.189M406.36,773.6c-.086-.065-.133-.127-.172-.122a.172.172,0,0,0-.123.108c-.011.04.042.1.067.15l.228-.136m11.708,3.112-.035-.059c-.045.036-.092.071-.135.11,0,0,.014.034.023.053l.147-.1m-5.716-7.049a.751.751,0,0,0-.113.147c-.005.015.047.083.07.081a.439.439,0,0,0,.136-.063c-.026-.045-.052-.091-.093-.165m-1.054,5.653a.5.5,0,0,0-.082-.049c-.01,0-.042.027-.04.032a.645.645,0,0,0,.044.087l.078-.07m-.878-.435a.632.632,0,0,0-.112.141c-.007.017.043.087.065.086a.413.413,0,0,0,.138-.056c-.024-.047-.049-.093-.091-.171m18.66-4.251c.025-.029.06-.053.069-.086s-.027-.053-.041-.081c-.029.027-.067.048-.081.081-.007.015.032.053.053.086m-.365.294c-.02-.032-.034-.081-.061-.091s-.068.019-.1.03l.087.13c.025-.023.052-.045.077-.069m-4.244,2.451c-.024-.028-.049-.056-.072-.084-.01.02-.033.047-.027.056a.413.413,0,0,0,.07.075l.029-.047m-16.4-3.135c-.017.005-.048.01-.048.015,0,.036.008.073.012.108a.244.244,0,0,0,.051-.013,1,1,0,0,0-.015-.11m-1.8-.063-.045-.016c0,.027,0,.053,0,.08.016,0,.037,0,.045-.014s0-.032,0-.05m.185,1.866c-.011-.039-.023-.079-.035-.118-.034.018-.087.028-.1.054s.019.075.032.114Zm11.941-.22a.763.763,0,0,0-.033-.092c0-.006-.044,0-.047.008a.6.6,0,0,0-.014.1l.094-.012m-2.094,3.424c-.012-.011-.023-.024-.035-.036-.012.026-.022.052-.033.078.015,0,.036.014.046.007s.015-.031.022-.049m-9.211-4.522c.008-.015.015-.03.022-.045-.014-.007-.031-.021-.04-.018s-.016.028-.023.041l.041.022m21.219-.052-.082.059c.015.013.034.039.041.036a.541.541,0,0,0,.08-.055l-.039-.04m-15.432,3.341c.034-.015.082-.021.094-.047s-.019-.067-.031-.1l-.119.064.056.085m12.4-1.7-.006-.057-.079.03c.011.014.02.038.034.042s.033-.009.051-.015m-20.139.532c-.018.007-.05.014-.05.02a.652.652,0,0,0,.014.107c.017-.007.05-.013.05-.019a.65.65,0,0,0-.014-.108m18.344-.051-.051,0c.01.03.02.058.03.086.014-.009.038-.018.04-.03s-.012-.035-.019-.053m-14.042-1.366a.633.633,0,0,0-.082-.049c-.012,0-.032.018-.047.027.017.028.036.056.053.084.026-.02.05-.04.076-.062m8.216-1.4-.042-.024c-.005.015-.019.033-.015.041s.024.017.037.025l.02-.042m.693,6.943a.771.771,0,0,0-.076.075s.019.033.03.049a.6.6,0,0,0,.077-.074s-.019-.032-.031-.05m-14.936-6.793.074.062c.009-.016.03-.042.027-.045a.816.816,0,0,0-.069-.063l-.032.046m1.616,1.1-.007.049.043-.016Zm9.673-1.333c0-.02.007-.039.01-.059a.773.773,0,0,0-.1-.011.417.417,0,0,0-.01.057l.1.013m-12.087,1.431-.034-.028,0,.053Zm12.838,5.247a.585.585,0,0,0-.09-.021c-.008,0-.029.042-.025.047a.654.654,0,0,0,.074.066c.014-.03.028-.061.041-.092m-1.15-6.48-.04.029.044.023Zm.971.078v-.09c-.01.014-.027.028-.027.042s.016.029.027.048m3.7-.217a.9.9,0,0,0,.037-.091c0-.005-.033-.033-.04-.029a.4.4,0,0,0-.069.061c.023.019.047.04.072.059m-5.014-.122-.076.037c.016.006.033.022.046.017s.016-.028.03-.054m-5.262,1.494a.435.435,0,0,0-.073-.055c-.007,0-.04.026-.038.031a.624.624,0,0,0,.042.086c.023-.021.047-.04.069-.062m1.091,1.491a.634.634,0,0,0-.044.1c0,.011.032.044.036.041a.547.547,0,0,0,.076-.061Zm8.088.313c.036.016.076.051.1.042s.034-.065.05-.1c-.035-.017-.076-.053-.105-.045s-.033.067-.05.1m1.588-.075.031.043.018-.045Zm-12.75.612a.693.693,0,0,0-.04-.1s-.047,0-.049.009a.736.736,0,0,0-.01.1l.1-.016m8.153-1.851-.035.027.036.017Zm-.634.5.042-.008-.027-.038Zm11.308.376c.006-.018.011-.038.017-.057l-.085.007c.006.019.006.045.017.054s.034,0,.051,0m-6.192,1.306-.024-.048a.513.513,0,0,0-.065.059l.025.043c.022-.018.043-.035.064-.054m4.505-.021,0-.057a.763.763,0,0,0-.1.018l.005.054.093-.015m-13.923.234-.072-.018.017.044c.015-.006.028-.013.055-.026m8.565.416.048-.036-.035-.047-.064.062.051.021m1.959.127c-.012.035-.041.075-.033.1s.058.031.089.045c.014-.033.044-.075.034-.1s-.058-.035-.09-.052M403.988,773.7l-.024.043.041,0Zm5.958-.211c-.012.015-.033.03-.034.045s.019.031.03.046c.012-.014.033-.028.033-.043s-.019-.032-.029-.048m2.21-.214-.047-.017c0,.016-.016.039-.011.044s.03.012.046.018q.007-.024.012-.045m-.092-.631.044-.026-.044-.022Zm3.085,3.073-.073-.013c.011.012.02.032.032.034s.027-.013.041-.021m1.789-.48-.038,0,.014.042Zm3.256-.133.02.045.02-.045Zm-7.061-.013-.039,0,.016.043Zm-1.754-.3.048-.023-.047-.025Zm6.628-.16-.034-.026-.007.041Zm5.505-.924-.026.047.044.006Zm-19.959-2.956.052.019c0-.018.015-.041.008-.051s-.031-.013-.047-.018c-.005.017-.009.034-.013.05m-1.273-.273c0-.018,0-.043-.013-.052s-.037-.01-.058-.014c.008.032.015.063.022.094l.049-.028m-.411.071-.032-.045c-.014.012-.027.024-.042.035l.055.06c.007-.017.013-.033.019-.05m8.952-.224-.041-.026,0,.045Zm12.315-.169c-.016.006-.039.008-.047.021s.007.032.011.05c.016-.006.04-.008.047-.021s-.006-.033-.011-.05m-3.525.162-.014-.045a.576.576,0,0,0-.027.056Zm2.4,2.185c-.015,0-.037,0-.044.012a.17.17,0,0,0-.013.057l.077-.016Zm-5.192.086c0-.015-.008-.029-.011-.044-.009.019-.018.036-.026.055l.037-.011m11.112-.482.021.047.022-.046Zm-20.49-.165-.089-.01c.012.014.021.037.035.04s.03-.016.054-.03m-1.66-.138.044.028.005-.048Zm23.288-.639.038-.027c-.012-.011-.024-.029-.035-.029s-.026.016-.039.025l.036.031m-15.687-.034.036.023,0-.039ZM415,777.162l-.045.013.056.031c0-.015-.007-.03-.011-.044m-.09-.391c-.007-.015-.013-.029-.021-.044-.011.011-.029.02-.031.033s.012.027.019.041c.011-.01.023-.019.033-.03m-7.529-5.092.033.024.005-.038Zm9.92,2.933-.02.029.031.005Zm4.455-.513-.032-.023,0,.036Z" transform="translate(-698.406 253.589)"/><path class="a" d="M418.385,799.58a3.928,3.928,0,0,1,.483-.125c.252-.035.5-.044.619-.354a.221.221,0,0,1,.145-.119c.708-.119,1.2-.708,1.86-.94a4.07,4.07,0,0,1,1.251-.424.449.449,0,0,0,.237-.072,3.32,3.32,0,0,1,2.488-.453c.062.008.131.054.183.036a3.43,3.43,0,0,1,1.854.207,5,5,0,0,1,1.886.871,11.337,11.337,0,0,1,1.019.885c.079.072.128.18.206.252a4.239,4.239,0,0,1,1.32,3.069,15.427,15.427,0,0,1-.018,2.265,2.278,2.278,0,0,0,.049.4c.032.421.074.843.082,1.264s-.017.846-.035,1.268a.6.6,0,0,1-.072.183l-.1-.051.1.04a15.351,15.351,0,0,1-.011,2.528c-.007.533.033,1.062-.025,1.6a3.12,3.12,0,0,1-.867,1.808c-.074.08-.182.132-.234.223a5.551,5.551,0,0,1-2.64,1.964,3.98,3.98,0,0,1-.909.242c-.12.03-.245.044-.362.081a3.56,3.56,0,0,1-2.692-.228l.15-.523c.208.123.348-.006.484-.147l.018-.041-.013.05c-.213-.025-.375-.365-.655-.115l.127.215c-.251.146-.049.383-.1.568a12.837,12.837,0,0,1-2.131-1.025c-.254-.17-.569-.209-.788-.483-.092-.115-.343-.086-.522-.123l.007.007a15.957,15.957,0,0,0-1.545-.569,5.339,5.339,0,0,0-2.793-.222,1.984,1.984,0,0,1-.748.048,2.656,2.656,0,0,0-1.177.145c-.221.073-.221.074-.532-.048l-.187.253-.372-.145.006-.005a2.8,2.8,0,0,1-1.31.983c-.289.124-.558.3-.851.414-.374.142-.763.239-1.144.356l-.015-.025.023.017a2.071,2.071,0,0,1-.362.093,2.407,2.407,0,0,0-.906.249,2,2,0,0,1-1.109.2,17.556,17.556,0,0,1-1.882-.131,4.981,4.981,0,0,1-1.667-.591,5.327,5.327,0,0,1-1.6-1.3c-.258-.348-.609-.616-.886-.951a2.678,2.678,0,0,1-.662-1.126.635.635,0,0,0-.157-.286,3.8,3.8,0,0,1-.855-1.839,13.047,13.047,0,0,1-.393-3.578c.043-.821-.063-1.65-.1-2.475a1.33,1.33,0,0,1,.035-.523c.345-.84.71-1.67,1.076-2.5a.816.816,0,0,1,.224-.321,5.728,5.728,0,0,1,2.808-1.56,1.2,1.2,0,0,0,.639-.257,3.238,3.238,0,0,1,1.768-.654,17.763,17.763,0,0,1,2.268-.169,4.088,4.088,0,0,1,2.51.768c-.007.015-.013.029-.021.043a.453.453,0,0,0,.013-.049,4.171,4.171,0,0,1,1.928.774.933.933,0,0,1,.844.144,4.02,4.02,0,0,0,.641.279c.293.117.589.226.937.359a.606.606,0,0,1,.653-.085,2.854,2.854,0,0,0,1.491-.186c.286-.072.575-.129.862-.193l-.006-.008h.146l-.011.013c0-.052,0-.1,0-.153Zm-16.362,3.234.005,0Zm.125-1.345.007-.007-.007.007m11.534,11.163.007-.006c.043.044.086.087.128.132.021.051.041.1.061.153l.069-.073-.137-.073-.128-.133m-4.051,2.287-.007-.008Zm12.928-1.077,0,0,.017-.015Zm-6.6-1.773.009.009c0,.051,0,.1,0,.154l-.008.007Zm-16.093-8.19.015.018-.018-.015Zm12.048-3.486.008-.009.013.045Zm9.89-.266-.033.046.028-.052Zm-11.411,13.711.007-.008a.14.14,0,0,0,.006.051c.005.012.021.018.032.026-.015-.024-.03-.046-.045-.069m4.3-1.6-.01-.046.017.038a.227.227,0,0,0,.018.054c.006.011.024.014.037.022-.021-.023-.041-.046-.062-.068m.008.783.045-.18h-.088l.05.188Zm1.776-.4.113-.052-.105.061Zm-.128-.525.007-.007c.006.02.007.045.02.058.049.051.1.1.151.144l.064-.092c-.061-.033-.121-.068-.183-.1a.144.144,0,0,0-.059,0m8.738,3.336c.1-.05.243-.067.2-.249,0-.016-.031-.041-.044-.04-.179.026-.1.2-.146.3,0,.019-.009.038-.014.058l.006-.067m4.07-2a.731.731,0,0,1,.17.032c.159.069.211,0,.2-.161l0,.005c-.126.035-.3-.065-.37.134-.026.024-.053.046-.079.068l.071-.078m-13.692-2.02.015.023-.025-.013.41-.185a.449.449,0,0,0-.371-.042c-.028.01-.021.142-.029.217m2.411,1.626-.324-.323c.006.246,0,.508.315.314l.019-.015Zm-5.821-.961-.082.214.083.01-.009-.218c.4-.244.8-.491,1.206-.731a.61.61,0,0,1,.239-.076,2.131,2.131,0,0,0,.885-.277,2.584,2.584,0,0,1,1.027-.295c.395-.059.8-.068,1.194-.1l.136,0,.383.145-.008-.008a2.557,2.557,0,0,1,1.986.424,3.542,3.542,0,0,0,1.011.5,1.908,1.908,0,0,1,.467.192,6.392,6.392,0,0,0,2.38.99c.088.008.167.123.25.19l-.01-.01a5.5,5.5,0,0,0,2.414-.122l-.007-.008c-.041.138-.083.276-.124.413l.008-.008a.251.251,0,0,0,.025.063c.189.264.344.331.5.2s.14-.3.024-.471a.677.677,0,0,1-.056-.166c.046-.043.074-.087.109-.1a6.72,6.72,0,0,0,2.137-1.122,1.377,1.377,0,0,1,.457-.16,3.116,3.116,0,0,1,.361-.574,4.659,4.659,0,0,0,1.26-2.278,6.922,6.922,0,0,1,.09-.709,5,5,0,0,0,.174-1.986q-.057-1.238-.167-2.472a6.4,6.4,0,0,0-.2-1.12,3.717,3.717,0,0,0-.84-1.694,8.5,8.5,0,0,0-1.636-1.121,4.281,4.281,0,0,0-.83-.319.966.966,0,0,0-.364-.088c-.481.036-.963.092-1.443.146a9.984,9.984,0,0,0-3.528,1.4,8.849,8.849,0,0,1-2.415.953c-.907.182-1.825.308-2.742.427a5.226,5.226,0,0,1-2.429-.257,1.19,1.19,0,0,1-.567-.254.318.318,0,0,0-.222-.1,2.176,2.176,0,0,1-1.35-.5,7.47,7.47,0,0,0-1.7-.7,3.276,3.276,0,0,0-.746-.08,4.948,4.948,0,0,0-1.316.1,7.037,7.037,0,0,0-3.642,1.376c-.033.027-.077.04-.112.064a5.74,5.74,0,0,0-1.973,2.213,8.808,8.808,0,0,0-.5,1.517,2.918,2.918,0,0,0-.115.851c.021.691.073,1.382.129,2.071a3.147,3.147,0,0,0,.153.917c.37.9.772,1.785,1.191,2.661a1.125,1.125,0,0,0,.453.446c.445.252.908.468,1.369.686a2.112,2.112,0,0,0,.538.193,8.551,8.551,0,0,0,2.181.282,7.349,7.349,0,0,0,1.063-.087c.529-.121,1.066-.2,1.63-.295a.566.566,0,0,1,.28-.412c.455-.224.892-.49,1.337-.739m16.212,2.564c.042-.065.144-.157.157-.26a.283.283,0,0,0-.362-.314.316.316,0,0,0-.185.21.337.337,0,0,0,.39.364m-5.427-15.123c.1-.128.2-.194.212-.277.028-.147-.054-.274-.2-.25-.081.012-.21.129-.206.187.009.1.106.193.2.34M427,814.751c-.036.043-.128.1-.147.185-.043.186.054.321.224.306a.3.3,0,0,0,.209-.175c.05-.17-.058-.293-.286-.316m.789-1.468c.1-.149.2-.236.213-.338.009-.057-.105-.182-.179-.2a.2.2,0,0,0-.257.2c0,.1.118.183.223.332m-11.375-2.215c-.051.144-.107.224-.094.289s.1.1.152.153c.041-.065.118-.132.115-.2s-.083-.125-.173-.247M412.5,812.7c-.073-.055-.12-.115-.167-.116s-.082.068-.122.106c.043.041.083.108.132.116s.088-.056.157-.106m5.221-.35.135-.042a1.841,1.841,0,0,0-.16-.145c-.005-.005-.072.062-.069.068a.865.865,0,0,0,.094.119m-13.968,2.077c-.024.032-.067.061-.067.092s.036.071.056.107l.1-.119-.09-.08M424.687,799.3l.1-.057c-.021-.026-.041-.076-.06-.075s-.067.034-.1.053c.019.027.039.052.059.079m-15.428,15.488a.314.314,0,0,0,.01-.059.856.856,0,0,0-.1-.026c0,.019-.013.055-.009.055a.652.652,0,0,0,.1.03m-6.981-1.972c-.016-.036-.033-.071-.05-.107-.032.018-.08.03-.09.057s.025.066.041.1Zm13.684.618c-.005.019-.018.04-.012.053s.029.022.045.033c.007-.026.015-.053.021-.078l-.054-.008m-6.579.861-.065.075c.016.012.041.035.045.032a.665.665,0,0,0,.066-.074l-.046-.033m-7.455-11.116c-.015-.035-.023-.087-.047-.1s-.069.013-.1.023c.021.049.041.1.062.148l.089-.072m12.962,7.955c0,.02,0,.04,0,.059l.081-.037c-.01-.015-.019-.039-.033-.042s-.034.013-.052.02m6.794-11.751c.016.011.032.031.045.029s.022-.028.032-.043l-.074-.042,0,.056m7.037,14.482c-.015-.034-.023-.081-.049-.1s-.064.006-.1.011l.057.136c.029-.015.059-.03.089-.047m-3.613.18.024-.053c-.018-.008-.037-.025-.05-.022s-.017.033-.025.05l.051.025m-8.654-.681a.919.919,0,0,0,.1.04l.021-.049c-.031-.014-.061-.03-.093-.041l-.024.05m2.06-1.586-.088-.053a.607.607,0,0,0-.01.112c0,.011.043.031.045.029.019-.027.036-.058.053-.088m9.757.875c.005-.017.018-.037.014-.05s-.026-.021-.041-.032c-.007.026-.014.053-.022.078l.049,0m-17.4.564a.922.922,0,0,0-.1-.03l-.018.051a.913.913,0,0,0,.1.031.4.4,0,0,0,.019-.052m-8.178-10.848-.034-.006.011.034Zm7.316-3.677a.668.668,0,0,0,.082.048s.033-.033.029-.042a.469.469,0,0,0-.05-.083l-.061.077m15.519,16.863a.859.859,0,0,0-.076.071s.019.03.028.046a.833.833,0,0,0,.076-.069.255.255,0,0,0-.028-.048m-1.7-.155c-.015-.007-.029-.015-.044-.021-.006.015-.019.034-.016.046a.042.042,0,0,0,.04.018c.01-.005.014-.027.02-.043m-15.152-1.07c.006-.02.01-.04.016-.06a.621.621,0,0,0-.105-.012c-.007,0-.014.036-.02.055l.109.017m11.111-14.142.008-.054-.047.015Zm-8.619-.151c-.01.011-.028.023-.029.036s.014.031.023.047l.057-.062-.051-.021M417.051,812l.01.049.04-.031Zm11.174,1.665a.166.166,0,0,0,.054,0c.006,0,.005-.031.007-.047a.118.118,0,0,0-.052,0c-.008.005-.006.031-.009.048m1.642-14.231-.021-.05c-.016.022-.034.044-.051.066.014.009.03.026.044.024s.018-.025.028-.04m-23.425,15.456a.776.776,0,0,0-.087-.042s-.03.038-.025.049a.586.586,0,0,0,.058.085l.054-.092m8.829-1.847-.008.088c.01-.013.028-.026.029-.04s-.013-.032-.021-.048m-4.655-13.869.029-.022-.03-.017Zm8.37,13.617a.433.433,0,0,0-.075.059s.013.04.026.048a.067.067,0,0,0,.052-.007.668.668,0,0,0,0-.1m5.579,2.064c.006-.016.013-.033.02-.049-.016-.006-.034-.022-.045-.018s-.015.03-.022.046l.047.021m-9.3-2.2.025-.036-.037-.007Zm-.711-.875.005-.046-.045.018Zm14.55,2.29c0-.018-.006-.037-.008-.055-.018.005-.04.006-.051.019s.005.032.009.05l.05-.014m-14.531-2.6-.005.041.039-.016Zm5,1.7-.015.044c.013,0,.033.015.037.01s.01-.027.015-.042c-.012-.005-.024-.008-.037-.012m-.253-1.209.032-.046-.047-.01Zm-11.888,2.89-.075-.009c.01.012.018.032.03.034s.025-.013.045-.025m20.527.136c0,.029-.007.058-.01.086.011-.013.029-.024.031-.039s-.013-.03-.021-.047m-16.3-14.925c-.008-.015-.012-.039-.023-.045s-.034,0-.05.007l.034.072c.013-.01.025-.022.039-.034m11.937-1.505-.006.042.043-.014Zm-2.968.855c-.009-.015-.019-.029-.029-.044-.01.014-.029.027-.03.041s.018.029.028.044c.009-.014.02-.027.031-.041m-4.883,2.5-.007.048.048-.017Zm3.894-1.159,0-.043-.043.015Zm9.481-1.1-.031-.022,0,.035Z" transform="translate(-698.406 253.589)"/><path class="a" d="M417.6,784.806a3.254,3.254,0,0,1-.954,1.194,2.341,2.341,0,0,1-.812-.81l.007.008-1.4-1.209.019-.039-.013.046a8.1,8.1,0,0,0-1.7-1.255c-.75-.483-1.532-.915-2.3-1.363-.166-.095-.353-.149-.522-.238-.789-.415-1.6-.783-2.409-1.145a3.31,3.31,0,0,0-.735-.365c-.862-.128-1.632-.568-2.474-.753-.142-.031-.285-.064-.428-.1a4.3,4.3,0,0,1-.917-.225,6.1,6.1,0,0,0-1.454-.4,5.954,5.954,0,0,0-1.883-.029c-.081.009-.163,0-.279,0a4.573,4.573,0,0,1-.121-.441,1.1,1.1,0,0,1,.012-.267c.054-.775.107-1.552.161-2.341a.763.763,0,0,1,.652-.14c.5.071.991.189,1.489.272a4.2,4.2,0,0,0,1.045.119,1.573,1.573,0,0,1,.973.187l-.057.012.049-.02,1.64.132h0l.61.143a13.849,13.849,0,0,1,1.518.375c.807.3,1.6.65,2.387,1a2.036,2.036,0,0,1,.432.369l-.008-.009c.057.113.114.227.166.333.511-.13.515-.138.96.125a2.278,2.278,0,0,1,.87.643.5.5,0,0,0,.254.183,4.2,4.2,0,0,1,2.059,1.675l.01,0a.29.29,0,0,0,0,.42l-.008-.005c.042.141.066.3.265.262l-.007.008a4.543,4.543,0,0,1,.631.035,1.481,1.481,0,0,0,1.364-.526,2.433,2.433,0,0,1,.318-.323,3.986,3.986,0,0,1,.535-.25c.006-.033,0-.208.047-.226a6.084,6.084,0,0,0,.99-.681c.177-.108.318-.072.458.111.167-.362.314-.685.721-.681a.193.193,0,0,0,.139-.1,1.858,1.858,0,0,1,1.125-.885c.386-.166.768-.338,1.153-.507l.105.033-.1-.036c.634-.294,1.254-.627,1.9-.87a7.563,7.563,0,0,1,1.766-.455,3.369,3.369,0,0,1,1.022-.158l-.007.007c.043-.049.077-.128.128-.144a6.949,6.949,0,0,1,1.876-.511,2.6,2.6,0,0,0,.97-.263,3.975,3.975,0,0,1,1.376-.234,10.737,10.737,0,0,1,.114,3.5c-.4.055-.773.1-1.142.16-.52.089-1.037.189-1.554.292-.3.059-.3.065-.8-.146l-.456.173.006-.006c-.088.091-.176.182-.262.273l0-.005a1.385,1.385,0,0,1-1.165.23,3.419,3.419,0,0,1-1.721.853c-.091.007-.175.108-.261.168-.387.264-.767.541-1.16.794-.571.367-1.124.763-1.728,1.081a7.706,7.706,0,0,0-.99.813c-.354.273-.729.516-1.1.772l-.122-.269-.145-.13c-.014.027-.029.052-.043.077.065.016.131.031.2.045l-.27.3.05.077.343-.109-.508.54,0,.007h-.144l0-.005a3.114,3.114,0,0,0-.28.419.682.682,0,0,1-.465.376l-.138.017-.037.023c.009-.011.019-.023.029-.033a.567.567,0,0,0,.121.025m-.743-.683-.009-.01Zm-.255,1.48-.007-.008Zm-4.437-4.708.005-.005Zm-4.822-1.746,0,0,.017-.016Zm2.034.808-.007-.007Zm11.284,1.747-.01-.009Zm-13.194-3.228.008-.007Zm1.4.4-.01-.01.029-.018Zm-1.9-1.344-.007-.008Zm.629-.01c-.008.019-.015.039-.022.058.008-.017.017-.035.027-.052Zm.512,2.028-.008-.008Zm3.293-.406-.008-.01.072-.069Zm3.3,4.033.007-.007.044.027-.051-.02m2.668-.56.015.052-.018-.045-.043-.028Zm1.519-1.052c-.03.023-.06.047-.092.07.029-.026.056-.054.083-.08Zm9.256-3.9c-.239.03-.239.03-.144.273l.213.164c.016-.059.033-.117.048-.176l.008.008-.28.011.146-.29Zm-12.8,6.179c-.014-.008-.028-.016-.043-.023l.052.014a.746.746,0,0,0,.042.121.56.56,0,0,0,.079.089c.023-.024.067-.059.062-.072a.2.2,0,0,0-.076-.086.641.641,0,0,0-.116-.043M418,782.1c-.139.039-.236.107-.18.432.091-.232.132-.335.173-.439Zm-8.88-4.042-.005,0c0-.022.008-.049,0-.065-.047-.082-.1-.161-.15-.24-.027.027-.072.051-.078.081-.021.138.056.2.173.211.021,0,.041.007.062.01m5.2,4.045-.091-.068c.033.02.067.04.1.058,0,.13.045.213.182.153a.119.119,0,0,0,.049-.1c-.053-.164-.151-.084-.24-.04m4.687-2-.013-.05.018.041c.127.109.246.241.444.176-.155-.257-.155-.257-.449-.167m-12.951-1.468.081-.007-.027-.05c.061-.118.124-.235.187-.355-.234-.129-.338.04-.471.118l.009-.009.221.3m15.989.206c-.029.059-.106.145-.1.232a.236.236,0,0,0,.322.2.261.261,0,0,0,.136-.185c.008-.148-.156-.272-.353-.248m-4.815,2.847a1.956,1.956,0,0,0-.209-.219c-.009-.008-.125.1-.118.112a.908.908,0,0,0,.16.229,1.339,1.339,0,0,0,.167-.122m6.806-2.2c-.061-.085-.116-.182-.128-.176a.594.594,0,0,0-.228.159c-.016.021.066.128.1.2l.254-.178m-4.921,1.684c.051-.068.113-.115.114-.162s-.06-.1-.094-.145a.589.589,0,0,0-.138.154c-.01.022.065.087.118.153m.238.99a.594.594,0,0,0-.069-.109.9.9,0,0,0-.133.085c.027.043.056.086.083.129l.119-.105m-10.916-3.082c-.065-.049-.112-.115-.15-.109s-.086.073-.129.113c.04.04.079.112.119.113s.091-.063.16-.117m17.971-1.656a.794.794,0,0,0,.092-.178c0-.024-.053-.089-.063-.085-.046.02-.109.05-.121.091s.044.089.092.172m-23.775-.307-.08-.081a.452.452,0,0,0-.053.086c0,.006.031.042.043.04a.445.445,0,0,0,.09-.045m13.171,7.549.069.081.033-.041c-.022-.028-.047-.052-.071-.078l-.031.038m-8.289-5.219-.058-.013c0,.026,0,.053-.005.079.019,0,.044,0,.057-.014s.005-.035.006-.052m11.015,2.685-.085-.065c-.017.031-.052.067-.045.093s.052.041.08.061l.05-.089m-9.835-2.118.008.046.04-.023Zm7.347,2.366c0-.017,0-.036,0-.053l-.074.026c.01.015.017.037.031.042s.031-.009.047-.015m4.818-3.708a.579.579,0,0,0-.1-.047c-.009,0-.043.035-.04.038a.752.752,0,0,0,.06.087c.026-.026.052-.051.077-.078m-17.042-2.323-.079.054c.013.014.031.044.036.042a.637.637,0,0,0,.083-.056Zm2.63,1.063c-.032-.014-.071-.047-.094-.037s-.032.062-.047.1c.033.014.071.044.1.036s.028-.061.042-.1m13.5,4.931.017.038.019-.036Zm-8.207-1.308-.019-.041-.019.04Zm1.1.329-.039-.027-.005.044Zm3.394,2.435,0-.036-.036.015Zm11.1-7.8.024-.052-.075.033.051.019m-.551,1.848-.047-.018c-.005.015-.018.039-.014.042a.071.071,0,0,0,.045.018c.006,0,.011-.027.016-.042m-17.017,2.566.034.029.009-.04Zm2.411-.133.035.029.008-.042Zm.844-.427,0,.046.044-.02Zm5.523,0,.044,0-.019-.048Zm-11.813-.492,0-.042-.04.017Zm22.009-2.462,0,.038.036-.017Zm-25.257,1.074-.021.032.034.005Z" transform="translate(-698.406 253.589)"/><path class="a" d="M420.783,796.35a2.583,2.583,0,0,1-1.126.82c-.981.394-1.946.831-2.92,1.243-.194.082-.4.128-.6.2a.859.859,0,0,1-.615-.016,4.932,4.932,0,0,0-.608-.141,1.35,1.35,0,0,1-.362-.095,8.287,8.287,0,0,0-1.808-.749.711.711,0,0,1-.29-.126,2.051,2.051,0,0,0-1.055-.462l.007.008a.747.747,0,0,1-.745-.476l.364-.319a1.907,1.907,0,0,1,.08-.6c.08-.186.284-.312.43-.468a1.519,1.519,0,0,0,.114-.159.19.19,0,0,0,.054-.008c.013-.006.02-.024.029-.036l-.076.052-.337-.056a.859.859,0,0,1,.492-.6c.264-.126.228-.29-.123-.513.208-.656.415-1.324.634-1.987.09-.271.213-.53.311-.8q.591-1.614,1.173-3.232c.075-.208.121-.426.18-.64l.133-.475.582-.177c.328.384.654.8,1.017,1.177a.819.819,0,0,0,.964.252c.484-.543.906-1.033,1.349-1.5.067-.071.232-.039.352-.054l-.007-.009.633,2.428.007-.008c-.013.087-.062.188-.037.258a20.171,20.171,0,0,1,.759,2.614c.1.449.279.88.407,1.324.1.338.154.691.263,1.025a4.443,4.443,0,0,0,.347.774,1.806,1.806,0,0,1,.164,1.533l0,.008h-.145Zm-5.45-7.384,0-.005Zm2.281,3.495.006-.007Zm-1.9-1.344.007-.008Zm-.251-2.822-.005-.007Zm-.636,5.914.008-.008-.008.008m.511-1.344c0,.047-.007.093-.011.139l-.006.009c0-.051.007-.1.01-.155Zm-2.41,3.9.005,0Zm.249.393.029-.043-.021.052Zm5.064-1.74.274.126.083.08-.09-.073-.276-.126-.035-.031Zm-1.256-4.849-.007.008-.251-.131.009-.009Zm-2.159-1.615c.016-.012.033-.025.051-.037a.628.628,0,0,0-.042.048Zm2.662,5.794.007-.008.088.039-.1-.031m1.408-.279-.042-.017.051.013.011.042Zm-4.2.683.007-.007c.011.057.023.112.007.03.04.074.013.026-.014-.023m1.528-2.966.013-.028c.013-.079,0-.022-.006.036l-.045.018Zm-4.193,3.763.193-.04c-.013-.029-.027-.06-.042-.089l-.144.136Zm6.6-7.385c0,.038,0,.076,0,.115,0-.041,0-.081,0-.121Zm-4.177,2.684.121-.1-.04-.035c-.026.046-.05.092-.075.138l-.04.012Zm5.689,4.859.008-.009a1.1,1.1,0,0,0,.018.13c.005.023.028.04.043.06a.321.321,0,0,0-.013-.063c-.017-.041-.037-.079-.056-.118m.142-1.236c.011.069.021.139.031.21l.093-.038-.134-.163-.134-.31c-.113.267.029.273.144.3m.256,1.065.01.046-.017-.037c-.027-.385-.027-.385-.331-.407,0,.245.152.336.338.4m-4.738-1.891c-.016.289-.016.289.1.48.115-.249.115-.249-.1-.48m-.358-2.094c-.005-.037-.011-.075-.016-.112l-.3.053c0,.035.01.071.015.106l.3-.047m-.379,1.859c-.014.031-.027.062-.04.093l.218.1c.012-.03.024-.059.037-.088l-.215-.108m3.747,2.577.091-.007c-.008-.093-.016-.186-.023-.279l-.084.007c.005.094.011.187.016.279m-3.992-2.842c.019-.014.036-.028.055-.041l-.126-.185-.056.042.127.184m.512-3.272-.087.067c.022.029.043.08.066.081s.058-.04.087-.063l-.066-.085m.537.214c-.032-.014-.066-.026-.1-.039a.517.517,0,0,0-.022.086s.037.021.048.015a.464.464,0,0,0,.072-.062m.825,3.42a.4.4,0,0,0-.071-.066c-.013-.008-.035,0-.054,0,.006.028.009.077.018.078a.42.42,0,0,0,.107-.012m-3.707,1.827-.034-.039-.017.043Zm-.87-.521c.008-.015.016-.03.025-.045-.015-.007-.033-.023-.046-.02s-.017.028-.026.043l.047.022m7.446-.185c-.01.037-.016.064-.024.092.016-.009.044-.014.048-.027s-.012-.035-.024-.065m-6.385,1.315h-.052l.032.085c.014-.01.038-.019.04-.033s-.013-.035-.02-.052m-.618.45c-.007-.017-.011-.041-.022-.048s-.032.009-.047.014c.007.017.011.041.023.048s.031-.009.046-.014m3.629-5.864-.039-.039c-.013.029-.024.057-.037.086.018,0,.04.016.051.008s.016-.034.025-.055m3.363,3.35-.037.029.041.022ZM417.4,792.05c.016-.008.039-.014.045-.028s-.007-.034-.011-.052l-.073.045.039.035m-1.364-.415c.006-.016.018-.035.014-.048s-.026-.017-.04-.026l-.02.079.046-.005m.615-2.318v-.047l-.043.022Zm-2.914.1c.013-.039.021-.064.028-.089l-.049.013c.005.02.011.039.021.076m4.208-.184.015-.046c-.013-.005-.033-.016-.037-.012a.116.116,0,0,0-.017.044l.039.014" transform="translate(-698.406 253.589)"/><path class="a" d="M408.243,782.372a6.669,6.669,0,0,1,1.218.505c.33.216.708.315,1.021.566.218.175.24.145.327.489.6-.16,1.007.25,1.37.621a2.139,2.139,0,0,0,1.2.712c-.318.447-.188,1.037-.63,1.369a.333.333,0,0,0-.082.232c0,.277-.193.376-.38.483l.009-.009a1,1,0,0,1-.089.935,7.4,7.4,0,0,0-.5,1.052c-.03.068,0,.163-.021.239-.045.16-.1.315-.16.473l.007-.008c-.29.741-.587,1.478-.866,2.222-.163.434-.3.88-.443,1.32a1.587,1.587,0,0,1-.158.434,3.2,3.2,0,0,0-.469,1.229,9.023,9.023,0,0,1-.353.988l.007-.007a.9.9,0,0,1-.239.074c-.966.009-1.932,0-2.9.022a2.141,2.141,0,0,0-.907.18,7.414,7.414,0,0,1-1.089.28c-.353.125-.666.372-1.016.508a8.621,8.621,0,0,0-1.829,1.142c-.1.074-.213.137-.408.259a3,3,0,0,1,.454-1.192,9.635,9.635,0,0,1,1.489-1.89.681.681,0,0,0,.126-.149c.326-.49.64-.99.98-1.469.2-.284.439-.538.663-.8a11.9,11.9,0,0,0,.881-1.041,3.34,3.34,0,0,1,1.132-1.039c.013.076.025.153.038.23l.068-.028-.115-.194c.577-.547,1.131-1.125,1.739-1.629a12.645,12.645,0,0,1,1.243-.756c.443-.291.869-.613,1.3-.925a.961.961,0,0,0,.272-1.135.154.154,0,0,0,.052-.009c.011-.005.017-.023.026-.035l-.07.055c-.143-.235-.285-.471-.462-.765a1,1,0,0,1-.753-.344,9.418,9.418,0,0,0-1.221-.808c-.579-.355-1.165-.7-1.748-1.046l.006.007a6.368,6.368,0,0,1-2.763-1.35c-.138.007-.3.065-.417.014a17.922,17.922,0,0,0-4.218-1.118,1.3,1.3,0,0,1-.206-.082,4.309,4.309,0,0,1-.045-1.59,3.241,3.241,0,0,1,1.318.149c1.446.348,2.882.747,4.319,1.133.139.037.262.146.4.175.2.042.132.238.231.369.115-.071.241-.215.351-.2a3.317,3.317,0,0,1,.654.215l-.009-.01c.3.021.349.387.574.479s.49.063.716.148c.145.055.253.218.378.333a.245.245,0,0,0-.054,0,.173.173,0,0,0-.037.025l.083-.036m3.031,7.385.009.01Zm-.5,1.088-.015-.017.017.014Zm-.509-7.126-.006-.007Zm.873,1.865-.008,0h.167l.249.127a.608.608,0,0,0,0,.121c.005.022.033.037.052.056a.3.3,0,0,0-.013-.059c-.015-.037-.033-.072-.05-.108-.026-.163-.071-.29-.248-.132l-.151,0m-2.017-2.269.007-.007Zm-.885,11.3.005-.005.042.023ZM406.7,781.9l-.119.139c.042.037.081.1.124.1s.107-.066.107-.1-.063-.083-.112-.141m2.469,9.6-.083.1c.027.025.053.065.083.071s.06-.029.09-.046l-.09-.122m2.647-4.921c-.01-.035-.018-.1-.032-.1a.44.44,0,0,0-.131.025c.021.03.037.073.066.088s.064-.008.1-.014m-4.173-3.781a.815.815,0,0,0-.131.158c-.008.017.045.094.064.092.049-.006.123-.031.136-.068s-.035-.1-.069-.182m-2.445-.276.089.054c.014-.035.042-.075.034-.1s-.054-.038-.085-.057c-.012.035-.025.071-.038.107m-1.572,12.808c.018-.008.044-.01.052-.025s-.011-.036-.018-.056c-.018.008-.046.011-.051.025s.01.037.017.056m7.263-10.144-.1-.056c-.008.021-.027.046-.022.059a.586.586,0,0,0,.063.1c.019-.033.036-.066.055-.1m-5.23,10.548c-.038-.025-.071-.064-.1-.059s-.053.05-.08.077c.033.02.066.054.1.052s.054-.044.081-.07m6.078-8.079.041.007-.013-.04Zm-1.964,3.771-.038.021.037.02Zm-.819-8.544-.024-.048-.023.048Zm-7.121,14.586-.025.04.04.006Z" transform="translate(-698.406 253.589)"/><path class="a" d="M421.789,786.144a1.081,1.081,0,0,0-.066,1.72,12.048,12.048,0,0,0,1.192.991c.235.188.489.349.726.534a6.053,6.053,0,0,1,1.1,1.007,4.95,4.95,0,0,0,.827.716c.216.176.455.323.657.516.486.461.961.935,1.431,1.415a21.582,21.582,0,0,1,1.715,2.218,4.382,4.382,0,0,1,.332.489,1.031,1.031,0,0,1,.108.445,5.44,5.44,0,0,0-2.261-.794,10.971,10.971,0,0,0-2.835-.143,1.223,1.223,0,0,0-.374.059c-.6.184-1.2.376-1.836.574a2.494,2.494,0,0,1-.3-.709c-.188-.842-.389-1.682-.611-2.515a6.18,6.18,0,0,1-.3-1.289l.007.007a.625.625,0,0,1-.325-.522c-.055-.409-.121-.817-.182-1.226.084-.09.167-.181.251-.272.029-.12.028-.208-.127-.137-.038.14-.076.279-.115.418a6.551,6.551,0,0,1-.669-2.68c-.374-.511-.374-.511-.554-1.661a.913.913,0,0,1,.721-.429c.121-.021.239-.058.358-.087l.128-.136.007.008c-.042.046-.085.091-.128.136a1.329,1.329,0,0,1-.142-.193c-.009-.016.033-.081.065-.1.515-.374.946-.863,1.493-1.2A21.792,21.792,0,0,0,424,782.038a6.356,6.356,0,0,1,2.112-1.017l-.006.008a3.88,3.88,0,0,1,1.463-.516,8.35,8.35,0,0,1,1.03-.178c-.077.256-.142.476-.208.7l-.131,0-.125-.27.01-.009c.042.09.083.18.124.271.286.522.343.539.661.226l-.55-.229a1.605,1.605,0,0,0,.64-.6,1.024,1.024,0,0,1,.685-.414,12.955,12.955,0,0,1,1.512-.071,3.433,3.433,0,0,1,.149,1.079.3.3,0,0,1-.233.349q-.988.221-1.979.419a.751.751,0,0,1-.244-.038c-.444.534-1.124.563-1.66.892l.006-.007c-1.256.672-2.523,1.324-3.763,2.027A4.376,4.376,0,0,0,421.955,786a.7.7,0,0,1-.147.127Zm1.789,4.031-.008-.009Zm-1.016-1.211.006-.005Zm-.267,3.212-.007-.005.167,0c-.006.095-.012.19-.017.286l-.007-.008c.181-.08.07-.178.015-.272H422.3m.136,1.5.007-.008ZM425.1,781.7l0-.006Zm-4.057,4.842c-.007.011-.014.024-.021.036l.015-.043Zm7.087-4.833.077.039c-.01-.031-.019-.062-.029-.092l-.125-.017c.025.024.05.047.077.07m-5.439,8.717c.029-.043.059-.086.014-.02.026-.075.009-.025-.009.026Zm-1.391-5.5c-.03.025-.059.049-.088.075l.077-.086Zm5.191-3.147c.077-.163.162-.26.146-.335s-.127-.131-.2-.194c-.048.081-.133.162-.132.242s.091.15.184.287m-3.668,10.8c-.058.047-.132.077-.138.119s.049.1.077.154l.179-.114-.118-.159m1.565.21c-.029-.05-.046-.081-.064-.114a.839.839,0,0,0-.12.1c-.006.007.044.089.054.086a.675.675,0,0,0,.13-.072m-2.406-.724.086-.077-.125-.083c-.017.034-.052.071-.047.1s.056.04.086.059m6.3,2.579a.717.717,0,0,0,.093-.173c.005-.021-.054-.084-.07-.079-.046.015-.113.048-.121.085s.048.087.1.167m-5.957-1.478c.015.009.031.028.044.026s.027-.022.041-.035l-.067-.044Zm4.147-10.728a.794.794,0,0,0-.162-.092c-.015,0-.071.059-.065.077a.516.516,0,0,0,.078.133l.149-.118m-3.566,7.512c-.008-.018-.011-.044-.023-.051s-.035.008-.052.014l.04.08.035-.043m-1.649-1.732c.009-.031.017-.053.024-.076l-.046.016.022.06m.036-2.478c-.015-.007-.032-.022-.045-.018s-.019.028-.027.042l.072.026Zm-.832.2-.071.041c.015.005.034.019.044.014s.015-.028.027-.055m4.748-3.234.035.027.007-.042Zm-3.053,1.85c-.009-.016-.017-.033-.025-.049-.012.012-.033.025-.034.039s.014.033.022.049c.013-.012.025-.026.037-.039m.5-1.152-.029-.042c-.011.013-.03.025-.03.039s.017.029.027.044Z" transform="translate(-698.406 253.589)"/><path class="a" d="M404.814,790.571l-.515.678.009-.008a4.155,4.155,0,0,1-.924,1.083,7.4,7.4,0,0,0-.826,1c-.426.522-.865,1.033-1.281,1.563q-.584.746-1.133,1.523c-.274.388-.518.8-.814,1.259a1.84,1.84,0,0,1-.119-.929,13.774,13.774,0,0,0,.056-2.47c.013-.713-.037-1.428-.061-2.143-.012-.355-.029-.71-.044-1.065a8.05,8.05,0,0,1-.04-1.248c.131-1.094-.066-2.189.051-3.281a4.149,4.149,0,0,0-.053-1.134,13.836,13.836,0,0,1,.013-2.339,1.1,1.1,0,0,1,.012-.2c.039-.218.151-.321.357-.273.576.132,1.155.26,1.721.434a13.571,13.571,0,0,0,1.365.513A10.258,10.258,0,0,1,405,784.65c.536.254,1.092.467,1.645.68a4.331,4.331,0,0,1,1.284.706,7.491,7.491,0,0,0,.809.521c.122.078.241.164.382.262a1.542,1.542,0,0,1-.918.7,3.357,3.357,0,0,0-1.062.8c-.753.779-1.552,1.509-2.332,2.259Zm1.8-3.259-.053.005,0,.056c.045.03.089.061.134.085.006,0,.028-.024.041-.039l-.119-.107m-3.447,3.79a.8.8,0,0,0,.092-.073.615.615,0,0,0,.057-.1c-.027-.014-.067-.047-.08-.038a.189.189,0,0,0-.052.094.819.819,0,0,0-.015.121Zm2.787-4.161a2.269,2.269,0,0,0-1.123-.884,8.363,8.363,0,0,1-1.164-.6l.007.007c-.525-.222-1.049-.447-1.574-.668a2.575,2.575,0,0,0-.474-.174.948.948,0,0,0-1.033,1.238c.181.617.379,1.229.586,1.837a7.03,7.03,0,0,0,1.389,2.212.8.8,0,0,0,1.42-.1,9.1,9.1,0,0,1,.572-.712c.408-.479.815-.958,1.237-1.423a.739.739,0,0,0,.157-.74.175.175,0,0,0,.05-.031c.008-.01,0-.032.005-.048-.019.026-.036.052-.055.079m-2.631-2.9-.157-.1a1.578,1.578,0,0,0-.2.329.422.422,0,0,0,.031.294.219.219,0,0,0,.209.076.386.386,0,0,0,.18-.237,1.221,1.221,0,0,0-.068-.367m-1.754.272c.073.052.12.113.163.11s.089-.067.134-.1c-.042-.039-.081-.105-.126-.109s-.093.054-.171.1m.622,8.425a.538.538,0,0,1-.018.057c.017,0,.041.017.053.009s.011-.034.016-.053l-.051-.013m2.882-6.911.005-.042-.041.017Zm-1.529-.975.033.027.008-.039Z" transform="translate(-698.406 253.589)"/><path class="a" d="M429.156,792.324c.153-.088.167-.254.028-.3a7.043,7.043,0,0,1-1.956-1.434,3.478,3.478,0,0,0-1.106-.75,1,1,0,0,1-.472-.326,9.6,9.6,0,0,0-1.783-1.483c-.165-.131-.316-.283-.484-.411a1.459,1.459,0,0,0-.315-.167c-.326-.14-.358-.328-.09-.587a3.517,3.517,0,0,1,.335-.3,13.007,13.007,0,0,1,2.224-1.525c.384-.181.744-.418,1.122-.614a1.456,1.456,0,0,1,1.031-.224c.267.064.374-.137.453-.358l-.008.008a1.341,1.341,0,0,1,.77-.282.173.173,0,0,0,.013.052c.006.011.023.015.035.023-.018-.023-.037-.045-.056-.068a1.741,1.741,0,0,1,.317-.213c.551-.214,1.1-.422,1.661-.617a2,2,0,0,1,.453-.044c.012.155.025.261.026.367.005.778.008,1.555.014,2.333a2.816,2.816,0,0,1,.013.466,6.107,6.107,0,0,1-.178.836c-.062.2.194.493.175.733-.086,1.046.08,2.084.035,3.127a3.291,3.291,0,0,0,.046.52,1.368,1.368,0,0,1,.047.261c-.062.782.167,1.555.111,2.324a10.646,10.646,0,0,0,.067,1.858,1.277,1.277,0,0,1-.062.272,14.433,14.433,0,0,1-1.105-1.835,1.659,1.659,0,0,0-.446-.633c-.329-.307-.612-.672-.915-1.012Zm1.9,1.481.007-.008.094.038-.1-.03m-3.562-4.147a3.136,3.136,0,0,1,.48-.258,2.288,2.288,0,0,0,1.487-1.242c.107-.241.242-.469.364-.7a6.422,6.422,0,0,0,.685-1.936.564.564,0,0,0-.1-.5.883.883,0,0,0-.9-.356c-.5.13-1.054.08-1.484.473-.043.038-.121.031-.182.049a7.3,7.3,0,0,0-2.484,1.428,1.483,1.483,0,0,0-.263.289.721.721,0,0,0,.075,1.107,2.037,2.037,0,0,0,.444.366c.445.256.9.5,1.352.733.352.182.355.175.524.552m-1.738-3.673c-.1-.08-.162-.167-.217-.163a.218.218,0,0,0-.143.159.214.214,0,0,0,.143.153c.055.006.118-.077.217-.149m1.058-1.12c-.058.081-.124.14-.115.168a.806.806,0,0,0,.131.182c.048-.056.131-.109.133-.165s-.084-.108-.149-.185m2.221,5.194c-.012.011-.026.023-.039.036.026.011.051.021.076.033,0-.017.015-.039.008-.05s-.029-.013-.045-.019m-.445-.378c-.037-.013-.079-.042-.111-.034s-.032.065-.047.1c.036.014.079.047.107.036s.035-.066.051-.1m0,1.238a.645.645,0,0,0-.094-.031s-.014.029-.021.046a.833.833,0,0,0,.092.034.346.346,0,0,0,.023-.049m.041.463a.77.77,0,0,0-.069.06l.028.043a.821.821,0,0,0,.07-.061.242.242,0,0,0-.029-.042" transform="translate(-698.406 253.589)"/><path class="a" d="M414.44,780.483c.122.136.163.272,0,.41l.008.005c0-.14,0-.279,0-.42Z" transform="translate(-698.406 253.589)"/><path class="a" d="M410.139,777.532l-.008-.008Z" transform="translate(-698.406 253.589)"/><path class="a" d="M414.7,781.155l-.007.008Z" transform="translate(-698.406 253.589)"/><path class="a" d="M420.917,796.347l-.134,0-.007.006h.145Z" transform="translate(-698.406 253.589)"/><path class="a" d="M418.246,799.721l.139-.142-.009-.006c0,.05,0,.1,0,.153l.011-.013h-.146Z" transform="translate(-698.406 253.589)"/><path class="a" d="M418.508,783.977l-.137,0,0,.005h.145Z" transform="translate(-698.406 253.589)"/><path class="a" d="M429.156,792.321l-.014-.023.014.027Z" transform="translate(-698.406 253.589)"/><path class="a" d="M419.008,788.826l.007-.008Z" transform="translate(-698.406 253.589)"/><path class="a" d="M424.6,772.557h-.142l.106-.085a.242.242,0,0,0,.036.086" transform="translate(-698.406 253.589)"/><path class="a" d="M410.455,805.611a1.117,1.117,0,0,1-.271.09c-.76.02-1.519.046-2.277.041-.441,0-.5-.089-.531-.559a3.113,3.113,0,0,1,0-.335,13.981,13.981,0,0,0-.122-2.462,2.185,2.185,0,0,1,.016-.374,4.07,4.07,0,0,1,3.249-.037,1.389,1.389,0,0,1-.159,1.609,3.063,3.063,0,0,1,.1,2.027m-.573-1.6-.007.007Zm.48.1c-.033-.014-.081-.05-.1-.038s-.037.071-.054.109c.036.015.082.051.1.038s.033-.07.049-.109m-2.436-1.146c-.011-.012-.021-.031-.034-.032s-.028.014-.043.021q.029.03.057.057c.007-.016.013-.031.02-.046m-.366,2.216-.047,0,.021.051Z" transform="translate(-698.406 253.589)"/><path class="a" d="M407.48,811.819c-.024-.667-.06-1.334-.067-2,0-.355.058-.71.061-1.066,0-.288-.047-.576-.058-.865-.006-.171.019-.342.034-.567a17.952,17.952,0,0,1,2.6.057c.259.031.361.2.409.43a.834.834,0,0,1,.016.2c-.027.821-.062,1.644-.083,2.465a.855.855,0,0,1-.448.741,2.817,2.817,0,0,1-1.907.551,2.793,2.793,0,0,0-.565.05Zm.3-3.821a.568.568,0,0,0-.089-.044c-.011,0-.043.034-.041.037a.91.91,0,0,0,.06.088l.07-.081m2.232,2.556-.04-.034-.032.082c.016,0,.037.01.049,0s.015-.032.023-.05" transform="translate(-698.406 253.589)"/><path class="a" d="M423.191,805.628l-.616-.054a.543.543,0,0,1-.211-.537,8.192,8.192,0,0,0-.146-2.451c-.017-.11-.028-.219-.048-.391a4.062,4.062,0,0,1,1.537-.662,1.342,1.342,0,0,0,.674-.273.781.781,0,0,1,1.047-.081c-.038.691-.11,1.413-.176,2.139s.019,1.457-.123,2.215a3.009,3.009,0,0,1-1.551-.016.339.339,0,0,0-.39.115Zm-.377-3.488-.006-.008Zm1.4-.145,0,.006Zm-.893,1.9.009-.008.26,0,.149-.01c-.012-.011-.029-.035-.038-.032a1.092,1.092,0,0,0-.1.05Zm.894,1.46.029-.039-.025.045Zm.129-2.807c.01.229.01.229.174.168-.061-.059-.12-.118-.181-.176Zm-1.648.989c-.019-.034-.032-.081-.06-.1s-.059.026-.089.041c.019.034.031.081.06.1s.059-.025.089-.04m2.014.949c-.009.016-.017.031-.024.046.013.007.031.022.042.017s.016-.027.025-.042a.35.35,0,0,1-.043-.021" transform="translate(-698.406 253.589)"/><path class="a" d="M424.84,811.147l-.128,0,.009-.01a.667.667,0,0,1-.691.229,11.726,11.726,0,0,1-1.362-.271c-.418-.112-.474-.189-.466-.663.012-.734.064-1.467.1-2.2.013-.239.036-.479.057-.744.177-.032.331-.109.457-.073a8.109,8.109,0,0,0,1.612-.029c.105.006.211-.029.316-.026.345.007.457.108.464.479.012.581,0,1.163,0,1.743,0,.469.008.938-.017,1.406-.014.255-.176.273-.361.151l.045-.02Zm-1.647-.683.008.008Zm-.292-.685-.04,0,.017.044Zm1.342.788c.012-.01.025-.016.038-.025-.011-.011-.023-.028-.035-.028s-.026.015-.038.023Zm-.489-.277.051.023c-.012-.026-.021-.05-.032-.075-.006.017-.013.034-.019.052m.811-.174-.042.013a.433.433,0,0,1,.05.03l-.008-.043" transform="translate(-698.406 253.589)"/><path class="a" d="M403.379,807.061c.605.031,1.214.05,1.82.1.376.03.566.214.538.6a15.415,15.415,0,0,1-.008,2.2,6.961,6.961,0,0,0-.017,1.387c-.008.005-.027.027-.043.024a2.161,2.161,0,0,1-1.692-1.22c-.2-.416-.369-.853-.549-1.282a2.293,2.293,0,0,1-.049-1.812" transform="translate(-698.406 253.589)"/><path class="a" d="M419.016,803.473c.016-.041.021-.1.048-.119a1.939,1.939,0,0,1,.348-.149c.439-.133.881-.258,1.37-.4a20.625,20.625,0,0,1-.134,2.752,2.985,2.985,0,0,1-.475.079c-1.006-.021-2.012-.052-3.017-.083-.028,0-.055-.063-.085-.1-.022-.225.117-.31.291-.364l-.007.007a.755.755,0,0,1-.352-.721c0-.282,0-.567,0-.885a5.211,5.211,0,0,1,2.025-.026c0,.064-.005.127-.007.19.028-.008.056-.014.083-.019-.028-.054-.057-.109-.087-.162m.38.27.02.042-.03-.032Zm-.764.552c-.037.012-.074.023-.11.037l.05.061c.017-.036.034-.071.052-.107Zm1.267-.691a.528.528,0,0,0,.1-.13c.009-.021-.033-.067-.05-.1l-.157.149.106.081m-.3,1.07.062-.1-.113-.077c-.01.039-.034.08-.027.113s.051.04.078.061m-1.947.63c.032-.018.083-.03.091-.055s-.02-.073-.032-.113c-.031.018-.083.029-.089.052s.018.077.03.116m.955-.147.03.024.007-.036Z" transform="translate(-698.406 253.589)"/><path class="a" d="M415.526,803.556v2c-.381.216-.783.005-1.172.059a6.712,6.712,0,0,1-1.135.024c-.394-.011-.8.159-1.207-.05a1.978,1.978,0,0,1-.143-1.281,4.491,4.491,0,0,0-.016-1.5c.649.216,1.254.4,1.847.616a7.278,7.278,0,0,0,1.826.124m-2.99,1.019-.012-.051.018.042c.06.037.119.075.179.11.008-.019.015-.037.022-.057l-.207-.044m.687-.581.035.006-.012-.04Z" transform="translate(-698.406 253.589)"/><path class="a" d="M428.907,805.634c-.605-.012-1.1-.017-1.6-.033-.445-.016-.543-.135-.532-.622,0-.067.022-.133.019-.2a6.619,6.619,0,0,0-.049-1.645.658.658,0,0,1,.034-.445.269.269,0,0,0-.034-.35c-.168-.214-.073-.406.093-.6-.171-.174-.345-.351-.578-.59.17-.068.285-.163.367-.137a3.852,3.852,0,0,1,1.439.8,1.416,1.416,0,0,1,.274.439,8.133,8.133,0,0,1,.529,2.125.623.623,0,0,1-.019.4.882.882,0,0,0,.061.855m-1.063-1.453c.116.1.183.207.256.212s.136-.1.2-.159c-.057-.074-.106-.194-.173-.206s-.156.078-.287.153m.147-.65h-.048c.011.023.024.046.036.07.012-.01.034-.017.036-.028s-.015-.028-.024-.042m-.229.276-.045-.017c0,.015-.016.036-.011.041s.029.013.043.018c0-.014.008-.028.013-.042m.788.7,0-.038-.037.017Z" transform="translate(-698.406 253.589)"/><path class="a" d="M417.872,808.731l-.449-.217c-.1-.051-.2-.106-.356-.186l.27-.678c-.07-.017-.128-.031-.184-.043.012-.039.021-.106.039-.108a7.152,7.152,0,0,1,.743-.082c.523-.015,1.048-.014,1.572-.013.317,0,.633,0,.948.023a.352.352,0,0,1,.356.383c.009.637,0,1.275,0,1.949a1.576,1.576,0,0,1-.818-.254,5.065,5.065,0,0,0-1.473-.557,5.532,5.532,0,0,1-.659-.229Zm.382-.145-.007.008-.023-.03Zm2.173-.362c-.076-.061-.136-.134-.162-.122a.724.724,0,0,0-.17.147c.054.052.107.146.16.146s.1-.1.172-.171m-.2.488c.006-.019.021-.041.015-.057s-.03-.019-.046-.028c-.007.029-.014.06-.022.09l.053-.005" transform="translate(-698.406 253.589)"/><path class="a" d="M415.351,807.91l-.148.408c-.023.05-.045.1-.069.15l.088.017c-.009-.058-.019-.116-.029-.174l.337.166a.808.808,0,0,1-.529.471.426.426,0,0,1-.356.016c-.1-.077-.14-.248-.206-.377l.026-.011-.017.021c-.1.036-.248.045-.276.114-.282.668-.907.735-1.444.944a4.674,4.674,0,0,1-.732.156c-.039-.159.105-.358-.02-.573-.082-.141,0-.389,0-.588.01-.22.008-.441.039-.657a1.564,1.564,0,0,1,.142-.348l-.006.005c.039-.064.071-.18.118-.186a5.868,5.868,0,0,1,.874-.083c.691,0,1.382.024,2.071.054.274.012.354.117.313.368-.008.048-.123.077-.189.114l-.041-.023Zm-1.907.541c-.019-.006-.036-.013-.055-.018a.453.453,0,0,0-.05-.01l.113.02c-.054.269.016.431.356.411l-.364-.4m.226-.773-.052.106a.062.062,0,1,0,.1-.076l-.046-.03m.649.265a.555.555,0,0,0-.086.167c0,.027.062.065.1.1a.908.908,0,0,0,.1-.144c.005-.011-.043-.051-.107-.123" transform="translate(-698.406 253.589)"/><path class="a" d="M426.881,810.747a.632.632,0,0,1-.205-.644c.044-.369.054-.743.078-1.114l-.007.007c.035-.076.1-.153.1-.229-.007-.328-.04-.656-.048-.985a.332.332,0,0,1,.3-.365c.458-.053.917-.1,1.377-.123a.358.358,0,0,1,.362.445,3.253,3.253,0,0,1-.56,1.676,4.224,4.224,0,0,1-1.117,1.07,1.609,1.609,0,0,0-.29.256Zm1.567-2.57.033-.045-.05-.011Zm-.724,1.423-.034-.023,0,.038Z" transform="translate(-698.406 253.589)"/><path class="a" d="M405.694,805.22c.055.55,0,.635-.423.657a6.113,6.113,0,0,1-.75.041,2.615,2.615,0,0,1-.559-.162l-.38.284c-.031-.075-.065-.116-.059-.149a2.709,2.709,0,0,1,.82-1.676,4.531,4.531,0,0,0,.746-.9,1.126,1.126,0,0,1,.778-.553c0,.238,0,.473,0,.708a2.5,2.5,0,0,0,0,.457.927.927,0,0,1-.187.87c-.142.152,0,.29.023.434Zm-1.389,0,.017-.014-.015.018-.017.015Z" transform="translate(-698.406 253.589)"/><path class="a" d="M426.754,808.989l-.043-.017.036.025Z" transform="translate(-698.406 253.589)"/><path class="a" d="M423.189,805.631l0,0Z" transform="translate(-698.406 253.589)"/><path class="a" d="M420.906,789.22c.046.05.093.1.139.147-.046-.048-.093-.1-.139-.147" transform="translate(-698.406 253.589)"/></g></svg>