<svg id="Group_259" data-name="Group 259" xmlns="http://www.w3.org/2000/svg" width="126.785" height="76.83" viewBox="0 0 126.785 76.83">
  <path id="Path_4214" data-name="Path 4214" d="M673.1,322.209a19.236,19.236,0,0,0,5.084-1.589c1.484-.674,3.256-.346,4.943-.749,4.633-.782,7.149-.072,9.38-.812a.144.144,0,0,0,.107.007,8.442,8.442,0,0,0,1.389-.565c.07-.033.777-.408.826-.6s1.085-1.363,1.272-1.685a3.671,3.671,0,0,1,.717-.679,3.311,3.311,0,0,0,.46-.768c.035-.051.334-.861.371-.91l.471-1.115.539-.341.7-.656s.528-.481.619-.469.385-.331.537-.57a62.181,62.181,0,0,0-17.364,4.086c-2.3.826-5.217,1.433-7.469,2.509a100.483,100.483,0,0,0-10.8,6.071C664.25,324.828,671.132,322.688,673.1,322.209Z" transform="translate(-651.212 -285.181)" fill="#31506c"/>
  <path id="Path_4215" data-name="Path 4215" d="M662,356.883a4,4,0,0,0,1.286-.031c.21-.143,1.781-.131,2.012-.215s3.658.357,3.926.194a22.369,22.369,0,0,1,3.377.224,27.307,27.307,0,0,0,5.366,1.2c2.49.163,5.041-.567,7.457.058a7.115,7.115,0,0,1,1.671.675c.112.409,1.214.969,1.214.969l1,1.331a1.665,1.665,0,0,1,1.029.726c.4.618,1.1,2.777,1.356,3.235s1.162,2.245,1.162,2.245.29,1.718.332,1.83l.562,1.533a6.965,6.965,0,0,1-.086,1.417.516.516,0,0,0,.373.668,2.815,2.815,0,0,0,1.536-1.708c.429-1.295.124-1.2.392-2.78s.649-2.973.649-2.973l.014-1.251c.138-.745.247-1.5.32-2.25l.53-1.779-.406-1.073a25.409,25.409,0,0,0-.353-3.991l-1.031-2.2a2.831,2.831,0,0,1-.227-1.246,1.509,1.509,0,0,0,.156-.735s.047-.518.11-1c.308-.43.612-.866.915-1.3a74.745,74.745,0,0,1,8.8-9.4c.625-.588,1.267-1.156,1.855-1.781.721-.764,1.356-1.606,2-2.437,3.011-3.891,4.574-6.462,8.043-9.952,1.09-1,1.975-2.731,3.011-3.592,3.428-2.854,5.653-6.549,9.532-8.727a68.755,68.755,0,0,1,7.454-3.931c2.2-.87,4.17-1.7,6.224-2.465,1.59-.36,3.088-1.146,4.659-1.583,3.623-1.011,3.324-1.559,6.393-1.419l1.9-.3c.222.052.9-.605,1.1-.721.1-.061,1.482-.476,1.568-.56,2.052-.168,1.816.135,3.9.3a17.816,17.816,0,0,1,2.215-.2,3.536,3.536,0,0,0,1.47.217,11.059,11.059,0,0,1,1.235.219c3.331.1,6.973,1.858,9.644,3.034.383.168-4.638,5.324-4.581,5.814,1.353.628,3.059,1.213,3.386,1.972.252.583-3.181,3.62-3.363,4.232-.606,2.033-3.69,4.241-5.217,5.69-.95.9-1.237,2.14-2.133,3.1-.392.42-.724.9-1.12,1.312-2.264,2.4-2.551,1.947-5.1,4.031-1.305,1.067-2.075,5.44-4.98,5.767-.023-.334.058-3.1-.192-2.7l-.024.04a43.789,43.789,0,0,0,2.325-10.906c-1.762-1.046-4.595.175-5.518,1.148-5.5,5.795-2.63,1.851-4.2,7.161-.08.273-.161.525-.241.763-1.64,2.047-4.661,3.849-5.562,6.952a16.694,16.694,0,0,0-.52,5.94c-1.4-2.061-2.156-2.478-3.277-2.269-1.06,1-2.1,1.186-2.778,2.334-.261.443-2.271.357-2.63.726-1.205,1.241-2.381.073-3.73,1.156a8.608,8.608,0,0,0-1.186,1.409c-.642.8-1.461.765-2.407,1.151.294.387-1.155,1.617-1.069,2.094,3-.359,12.864-1.344,17.35-2.8,0,.081,0,.166-.005.24-.093,1.046-.061,3.4-.059,4.442,0,.493-.11,1.613-.143,2.575-.079.649-.152,1.3-.236,1.947a3.234,3.234,0,0,0,1.342,2.812c2.115-1.788,3.517-5.508,7.793-15.532l4.526-2.68a52.253,52.253,0,0,0,9-6.162,25.19,25.19,0,0,0,4.684-4.71,24.438,24.438,0,0,1,3.059-3.48,36.458,36.458,0,0,0,4.07-4.623c1.143-1.608,2.313-3.2,3.41-4.84,5.742-8.9,3.97-7.424,1.947-10.536.513-.8,4.152-6.789,3.478-7.076-2.121-.906-4.224-1.872-6.4-2.623-1.7-.588-3.513-.847-5.254-1.33a41.546,41.546,0,0,0-17.364-1.414c-1.543.229-4.735-.068-6.971,1.253-2.869,1.692-3.4.915-6.264,1.652-3,.77-5.4,2.74-8.323,3.589a4.73,4.73,0,0,0-1.041.656c-.906.567-1.785,1.184-2.729,1.678-3.725,1.94-7.485,3.818-11.037,6.071-.535.338-1.036.731-1.55,1.1a.756.756,0,0,0,.193.2.322.322,0,0,0,.07.035,1.376,1.376,0,0,0,.88.1.883.883,0,0,1,.338.2.54.54,0,0,1-.072.091c-2.56,1.946-3.76,5.578-6.313,7.531-.735.562-.931,1.905-1.842,2.063l-.322.236a2.668,2.668,0,0,1-1.98,2.625c.03.063-.583,2.68-.6,2.726-.546,1.536-1.8,1.29-3.317,2.254l.075.864c-.381.437.439,1.169.058,1.4-.579.866-2.353.518-2.827,1.309a.987.987,0,0,0,.065.17,13.082,13.082,0,0,1-.07,2.068l-2.894.793-.248.549.3,1.788.011.833-2.56.665-.548.36.439,1.963s.327.864.1.873a12.883,12.883,0,0,0-1.317.388h0c-.488.161-.924.31-.924.31l-.654.476.4,1.335c-.2.049-.381.158-.432.572-.079.63-.562,1.318-.707,1.958l-.418.114a1.155,1.155,0,0,0-.451.194c-.3.245-.3.728-.6.975a3.892,3.892,0,0,1-.817.534,5.472,5.472,0,0,0-.94.415,2.019,2.019,0,0,1-.588.3,11.57,11.57,0,0,1-1.928.5,21.718,21.718,0,0,1-2.507.152c-.669-.245-2.056-.749-2.17-.745-.149,0-2.187.451-2.187.451l-2.241.17-1.837-.227-1.384.457-2.121.227-.808.28a74.7,74.7,0,0,0-14.065,3.218l.122.723a5.76,5.76,0,0,0,1.711.248C659.582,357.156,662,356.883,662,356.883Z" transform="translate(-657.052 -296.117)" fill="#31506c"/>
  <path id="Path_4216" data-name="Path 4216" d="M715.815,317.679c1.039-.752,4.53-3.4,5.609-4.066a3.75,3.75,0,0,0,.8-.6c.882-1.022,3.512-2.369,4.738-3.142,2.807-1.773,5.982-2.745,8.327-4.047,2.187-1.216,5.148-1.585,5.393-1.842,1.856-1.034,4.5-1.193,5.679-2.334a3.28,3.28,0,0,1-.931-.486c-2.385-.158-16.4,2.042-25.923,7.587a21.184,21.184,0,0,0-2.733,1.687c-2.231,1.688-5.123,3.365-7.594,5.56-2.385,2.119-4.29,4.1-6.812,6.726-1.338,1.393-2.554,3-4.029,4.476-1.316,1.319-2.716,2.974-3.991,4.344a9.7,9.7,0,0,1-.838.9c-2.028,1.681-3.062,3.6-4.855,5.282-1.61,1.506-3.05,3.037-4.572,4.574.439.143,1.428-.735,1.939-1.149.079-.065.145-.122.222-.185l0,.005q.155-.131.3-.252a16.927,16.927,0,0,1,2.829-1.837,12.219,12.219,0,0,0,1.338-.95,1.547,1.547,0,0,1,1-.439,2.374,2.374,0,0,0,.728-.11.8.8,0,0,0,.193-.082,2.933,2.933,0,0,0,.511-.324c.009-.007.023-.024.031-.033,1.7-1.209,3.55-3.639,4.9-4.6,1.5-1.073,2.67-2.49,4.131-3.623C708.169,324.074,710.823,321.3,715.815,317.679Z" transform="translate(-636.789 -292.345)" fill="#31506c"/>
</svg>
