<svg xmlns="http://www.w3.org/2000/svg" width="93.09" height="39.098" viewBox="0 0 93.09 39.098"><defs><style>.a{fill:#fff;}</style></defs><g transform="translate(-203.127 -41.259)"><g transform="translate(203.127 41.259)"><path class="a" d="M285.665,59.078a1.562,1.562,0,0,1,.963.1,2.38,2.38,0,0,0,1.27.173,1.567,1.567,0,0,1,.371.007.312.312,0,0,1,.264.227l-.034.029.017-.045.143.024-.018-.014a.751.751,0,0,1-.256.477,6.364,6.364,0,0,0-.426.526,1.821,1.821,0,0,1-.618.5,2.991,2.991,0,0,0-.615.508,4.015,4.015,0,0,1-.947.873c-.433.53-1.067.839-1.506,1.365a3.773,3.773,0,0,1-.421.364c-.122.108-.246.214-.358.333-.155.162-.278.361-.52.418a.165.165,0,0,0-.1.064c-.2.334-.562.474-.831.726-.239.224-.478.442-.7.691a1.915,1.915,0,0,1-1.095.748c-.109.017-.078.12-.116.172a1.851,1.851,0,0,1-.379.382c-.277.206-.586.369-.85.587a3.956,3.956,0,0,1-.934.463l-.045-.035.056.024a.5.5,0,0,1-.281.217,3.936,3.936,0,0,0-1.344.543l-.038-.036.052.021a5.254,5.254,0,0,1-1.616.878,1.7,1.7,0,0,0-.835.489.333.333,0,0,1-.147.11,10.515,10.515,0,0,1-1.423.566,6.845,6.845,0,0,0-1.217.446c-.267.106-.526.235-.789.352a.806.806,0,0,1-.284.108,2.419,2.419,0,0,0-.888.256A5.29,5.29,0,0,1,268.1,73a3.108,3.108,0,0,0-.6.148c-.385.148-.758.323-1.137.484-.074.031-.18.085-.229.057-.2-.117-.355-.015-.52.063a.173.173,0,0,1-.06.015,10.313,10.313,0,0,0-1.812.577,1.11,1.11,0,0,1-.183.025l0-.147c.074-.035.119-.071,0-.109l-.05-.087-.062.088c-.013.011-.036.027-.035.035a.376.376,0,0,0,.035.071l.126.13c-.028.029-.05.076-.082.084-.238.067-.477.129-.717.189-.08.021-.175.069-.238.043a1.085,1.085,0,0,0-.78.094c-.158.046-.322.074-.478.127a.675.675,0,0,1-.482.013c-.05-.018-.145-.015-.171.015-.14.178-.33.144-.512.136-.122-.007-.245-.057-.365-.053-.2.008-.4.05-.593.07-.164.015-.329.021-.492.028a1.7,1.7,0,0,0-.432.015,1.727,1.727,0,0,1-1.033.031c-.113-.031-.189.057-.278.1-.148.078-.3.138-.439-.027l.039-.025-.022.041a1.934,1.934,0,0,1-.6.122,7.01,7.01,0,0,1-1.162,0c-.173-.034-.369.052-.544.018a1.92,1.92,0,0,0-.551-.027.679.679,0,0,1-.185,0c-1.061-.2-2.142-.088-3.208-.217a4.174,4.174,0,0,0-.8,0,10.659,10.659,0,0,1-1.9-.151,4.159,4.159,0,0,1-1.14-.264,1.2,1.2,0,0,0-.357-.1,9.964,9.964,0,0,1-1.635-.319c-.12-.028-.243-.039-.364-.067a1.62,1.62,0,0,1-.414-.116,10.524,10.524,0,0,0-2.229-.737c-.337-.1-.668-.2-1-.323s-.66-.228-.975-.379a1.207,1.207,0,0,0-.55-.049.735.735,0,0,1-.617-.21,1.414,1.414,0,0,0-.5-.352,3.38,3.38,0,0,0-.605-.1c-.239-.048-.475-.109-.71-.164a1.206,1.206,0,0,0-.059-.238.2.2,0,0,0-.3-.106c-.091.046-.173.108-.26.162-.108-.035-.207-.062-.3-.1a6.867,6.867,0,0,0-1.661-.453.615.615,0,0,1-.39-.138,1.1,1.1,0,0,0-.639-.32c-.264-.041-.446-.268-.734-.288a2.89,2.89,0,0,1-.7-.222.285.285,0,0,1-.113-.046c-.4-.406-.991-.488-1.429-.836-.124-.1-.3-.126-.351-.319-.01-.035-.1-.077-.15-.073a.64.64,0,0,1-.568-.3c.022-.013.059-.039.015.015a3.415,3.415,0,0,1-.591-.259,2.233,2.233,0,0,1-.537-.4,2.926,2.926,0,0,0-.506-.322,6.745,6.745,0,0,1-.74-.53l.042-.034-.027.05-.59-.324a.559.559,0,0,1-.1-.064c-.473-.428-1.039-.729-1.52-1.147-.466-.4-.93-.808-1.363-1.246-.1-.1-.235-.172-.2-.351a.1.1,0,0,0-.059-.082c-.243-.014-.355-.2-.459-.371a.956.956,0,0,0-.326-.361,4.458,4.458,0,0,1-.984-.92,5.152,5.152,0,0,0-.382-.4c-.183-.162-.407-.282-.572-.46a1.444,1.444,0,0,0-.51-.431,9.1,9.1,0,0,1-1.081-1.326.922.922,0,0,1-.062-.235h.152a.779.779,0,0,0,.088.08c.008.007.034-.01.05-.015l-.155-.045c-.038-.071-.078-.052-.12,0-.088-.083-.175-.168-.266-.247-.133-.116,0-.319-.166-.44a1.027,1.027,0,0,1-.224-.358c-.06-.108-.1-.227-.165-.331-.2-.34-.394-.692-.877-.656a5.67,5.67,0,0,0-.81-.284c-.175-.053-.351-.109-.524-.171a2.309,2.309,0,0,0-.282-.116c-.257-.052-.347-.372-.615-.386a2.041,2.041,0,0,1-.65-.178c-.229-.089-.468-.155-.7-.246a4.336,4.336,0,0,1-.558-.266c-.426-.246-.86-.485-1.267-.762-.278-.189-.649-.291-.758-.677a1.95,1.95,0,0,0-.452-.312c-.351-.123-.551-.421-.832-.614l.091-.392a1.847,1.847,0,0,1-.322-.032.789.789,0,0,1-.194-.124.187.187,0,0,0,.049-.018c.008-.006.011-.021.015-.031l-.048.064c-.02-.008-.038-.017-.057-.024-.243-.088-.312-.361-.54-.488a2.35,2.35,0,0,1-.506-.524c-.027-.029-.036-.087-.067-.1-.392-.168-.51-.577-.765-.866s-.411-.618-.645-.9a11.829,11.829,0,0,1-.875-1.186c-.192-.1-.144-.344-.281-.464a.748.748,0,0,1-.242-.412,1.007,1.007,0,0,0-.2-.3,4.914,4.914,0,0,1-.654-1.026,12.13,12.13,0,0,1-.671-1.842,1.384,1.384,0,0,1,.106-1.193.5.5,0,0,1,.789-.151,6.068,6.068,0,0,1,.86.888,9.281,9.281,0,0,0,1.969,1.87c.148.112.289.231.433.347a1.055,1.055,0,0,0,.194.154c.765.355,1.491.8,2.285,1.091.213.078.422.165.638.231.183.055.3.21.471.275s.368.062.541.122c.585.2,1.168.408,1.742.635a2.767,2.767,0,0,0,.776.2c.306.025.612.049.914.1a4.554,4.554,0,0,1,.586.193,1.869,1.869,0,0,0,.411.123,7.128,7.128,0,0,1,1.168.122.132.132,0,0,0,.062.006c.522-.113,1.064-.07,1.584-.206a1.31,1.31,0,0,1,.6-.05,1.484,1.484,0,0,0,.776-.078.844.844,0,0,1,.59-.059.524.524,0,0,0,.468-.073A5.17,5.17,0,0,1,222.6,48.6a3.393,3.393,0,0,0,.688-.268,1.112,1.112,0,0,1,.344-.127.676.676,0,0,0,.442-.189.215.215,0,0,1,.109-.056c.625-.133,1.176-.471,1.8-.618a4.725,4.725,0,0,0,1.3-.565c.657-.389,1.349-.7,2.029-1.045a20.941,20.941,0,0,0,1.836-1.112,1.163,1.163,0,0,0,.287-.319,2.344,2.344,0,0,1,.758-.72.644.644,0,0,0,.247-.257,2.876,2.876,0,0,1,.352-.506,2.958,2.958,0,0,1,.5-.45.338.338,0,0,1,.527.229,3.8,3.8,0,0,1,.045,1.039c-.01.089-.108.172-.112.261,0,.066.112.136.116.206a.9.9,0,0,1-.045.481,5.612,5.612,0,0,0-.379,1.095.98.98,0,0,1-.1.218c-.233.34-.473.674-.709,1.011a.533.533,0,0,0-.092.161,1.87,1.87,0,0,1-.545.814,8.642,8.642,0,0,0-1.257,1.746,7.643,7.643,0,0,1-.917,1.309.568.568,0,0,1-.157.088.194.194,0,0,0-.025-.043c-.006-.007-.02-.007-.031-.01l.073.036a.417.417,0,0,1-.267.386.665.665,0,0,0-.043-.161.091.091,0,0,0-.168.049c0,.032.024.088.049.1a.7.7,0,0,0,.172.007c0,.267-.275.27-.41.408-.034.035-.148-.011-.227-.02l0-.138.034-.034-.02.048-.089.05.091.059a1.272,1.272,0,0,1-.547.677c-.035.021-.091.027-.106.055-.242.481-.787.629-1.114,1.019a1.33,1.33,0,0,1-.337.264,2.219,2.219,0,0,1-.327.137l.032.207a4.889,4.889,0,0,0-.452.284c-.1.073-.2-.185-.289.035-.029.077-.152.123-.239.173-.1.063-.222.1-.323.173a2.863,2.863,0,0,1-1,.454c-.185.039-.268.173-.4.259l-.035-.036.05.021a.876.876,0,0,1-.554.245,1.906,1.906,0,0,0-.561.231c-.236.127-.478.243-.726.368l-.413-.138a2.8,2.8,0,0,1-1.149.35.228.228,0,0,0-.19.264c.015.056.045.137.088.152.27.1.418.4.737.419.088.006.178.1.253.166.152.138.3.28.442.432a15.534,15.534,0,0,0,1.257,1.091.956.956,0,0,0,.329.151,2.483,2.483,0,0,1,.87.46,1.434,1.434,0,0,0,.468.3,13.516,13.516,0,0,1,1.471.888c.178.087.222.35.456.385a2.585,2.585,0,0,0,1.011.445,2.412,2.412,0,0,1,.51.213q.407.222.822.429a1.506,1.506,0,0,0,.348.126,13,13,0,0,1,2.409.783c.169.071.362.088.529.165a3.894,3.894,0,0,1,.853.352,1.178,1.178,0,0,0,.471.133,2.163,2.163,0,0,1,.822.246.723.723,0,0,0,.3.053,2.266,2.266,0,0,1,.491.049,3.709,3.709,0,0,0,1.085.213,5.1,5.1,0,0,1,1.04.126,10.2,10.2,0,0,0,2.279.122c.656.007,1.313.02,1.97.028a1.421,1.421,0,0,0,.245-.014,15.153,15.153,0,0,0,1.586-.235.58.58,0,0,1,.183-.02,1.826,1.826,0,0,0,1.025-.116c.594-.045,1.189-.094,1.783-.133a4.666,4.666,0,0,0,.92-.106c.4-.106.807-.152,1.212-.224a.5.5,0,0,0,.178-.034,1.491,1.491,0,0,1,.782-.151.621.621,0,0,0,.459-.134c.048-.048.151-.039.229-.055.122-.025.245-.042.365-.074.179-.048.354-.124.536-.154.155-.025.34.043.475-.014.171-.073.351.011.526-.113a1.758,1.758,0,0,1,.59-.141c.172-.039.343-.085.512-.129l.224.477c.26-.011.341-.18.426-.336l-.116-.366a4.374,4.374,0,0,1,.961-.235l.145-.3a2.836,2.836,0,0,0,.373.088,1.772,1.772,0,0,0,.308-.028.185.185,0,0,0,.018.049c.006.008.021.011.032.015l-.067-.048a.287.287,0,0,1,.2-.211,2.205,2.205,0,0,0,.892-.392.272.272,0,0,1,.113-.048,10.176,10.176,0,0,0,1.27-.457c.076.108.12.12.112.042,0-.028-.05-.052-.077-.078a.742.742,0,0,1,.171-.057c.1-.007.155.035.122.145-.015.053-.063.127.028.138.039.006.108-.056.13-.1a1.407,1.407,0,0,0,.063-.266,2.262,2.262,0,0,1,1.166-.287c.213-.281.214-.278.636-.474.186-.087.362-.194.545-.285a5.61,5.61,0,0,1,1.046-.362c.337-.091.668-.2,1-.306a.13.13,0,0,0,.056-.027,2.179,2.179,0,0,1,1.113-.484.565.565,0,0,0,.221-.109,2.454,2.454,0,0,1,.951-.431,2.616,2.616,0,0,0,.547-.28,3.671,3.671,0,0,1,.71-.357,3.547,3.547,0,0,0,.659-.333,11.8,11.8,0,0,0,1.749-1.029.843.843,0,0,1,.208-.131.239.239,0,0,1,.327.145,1.381,1.381,0,0,1,.731-.749,9.4,9.4,0,0,0,1.495-.87,1.787,1.787,0,0,1,.459-.178l.045.035-.055-.025a2.437,2.437,0,0,1,.687-.515.552.552,0,0,0,.2-.148c.287-.336.741-.429,1.052-.731.557-.076.919-.508,1.383-.752V52.04c.392-.235.881-.354,1.107-.845l.551-.06a.162.162,0,0,0,.015.046c.006.008.02.011.029.017l-.06-.048c.018-.238.207-.308.383-.387l.034.035-.049-.02a.5.5,0,0,1,.454-.263.342.342,0,0,0,.336-.21,1.069,1.069,0,0,1,.454-.4c.136-.085.288-.148.414-.246a2.585,2.585,0,0,0,.294-.309l.175.059-.013-.018.144.144-.017-.014a.614.614,0,0,1,.071.47,3.932,3.932,0,0,0-.206,1.33,1.111,1.111,0,0,1-.052.364.429.429,0,0,0,.011.289,6.761,6.761,0,0,1,.263,1.619.542.542,0,0,0,.07.206A4.309,4.309,0,0,1,280.213,55a.776.776,0,0,0-.162.048c-.018.01-.015.062-.022.094.034,0,.083.006.1-.013a.725.725,0,0,0,.074-.143c.337.347.678.694,1.012,1.045a1.008,1.008,0,0,1,.119.208.421.421,0,0,1-.285.027.393.393,0,0,0-.39.069c.09.179.278.091.411.148.1.046.178-.048.246-.26.122.11.25.214.361.336a1,1,0,0,1,.148.259c.025.05.011.116.1.117a1.416,1.416,0,0,1,.881.5,3.149,3.149,0,0,0,1.029.656.722.722,0,0,1,.221.108.66.66,0,0,0,.531.234,4.962,4.962,0,0,1,1.092.66C285.651,59.113,285.626,59.127,285.665,59.078Zm-62.438-5.814a.239.239,0,0,0-.017-.056c-.006-.008-.025-.01-.039-.014l.073.053c.036.1.073.1.108,0a.769.769,0,0,0,.18-.008c.025-.007.043-.057.056-.092a.061.061,0,0,0-.027-.048c-.034,0-.081-.006-.1.014a.919.919,0,0,0-.1.151Zm-2.723.229.034.036-.049-.02C220.48,53.49,220.451,53.452,220.5,53.493Zm52.633.745a.219.219,0,0,0,.015.056c.006.01.024.013.036.018l-.066-.06c-.018-.028.021-.131-.074-.056Zm-56.729.127a.173.173,0,0,0,.021.046c.006.007.022.006.035.008l-.069-.042a.172.172,0,0,0-.008-.055c-.006-.008-.027-.008-.041-.013ZM269.9,57.114a.308.308,0,0,0-.014-.048c0-.008-.017-.014-.025-.021l.056.052.039.035Zm-.731,1.366c-.034.021-.053.028-.018-.018a.269.269,0,0,0,.046-.02c.008-.006.013-.018.018-.028Zm11.277-.018c.1-.038.076-.077,0-.116-.017-.087-.077-.14-.15-.089-.106.073-.066.15.036.2C280.368,58.5,280.4,58.546,280.444,58.462Zm-11.652.141c-.042.032-.042.021-.017-.015C268.8,58.571,268.84,58.545,268.791,58.6Zm4.722-3.994-.057-.082-.053.056.088.049.055.084.053-.053Zm.868.4a.169.169,0,0,0-.046.01c-.01,0-.014.018-.02.029l.049-.055.034-.035Zm5.21,1.236-.122.129a.392.392,0,0,0-.108.014c-.015.006-.02.039-.028.06.017,0,.041,0,.05-.007a.774.774,0,0,0,.069-.084l.122-.13h.147l.12.26-.036.038.025-.049c.143-.091.154-.13.045-.185a.956.956,0,0,0-.171-.046C279.669,56.178,279.631,56.171,279.592,56.243Zm-5.969-.145.041-.034-.022.05-.045.038Zm-61.187-6.064c-.029.018-.13-.006-.043.077l.028-.091.045-.032Zm66.41.123a.217.217,0,0,0-.05.018c-.007.007-.007.024-.01.036l.049-.069h.14c.034.043.066.088.1.13a.1.1,0,0,0,.046.031c.011,0,.027-.01.039-.015-.013-.028-.02-.071-.042-.082a.825.825,0,0,0-.158-.046l-.055-.1Zm-52.144.626a.169.169,0,0,0-.015-.045c0-.007-.017-.011-.027-.017l.059.045a.146.146,0,0,0,.017.049c.006.007.022.007.034.01Zm-1.24.123-.038-.041.052.027c.014.032-.015.131.076.052Zm-16-2.107c-.039.027-.043.021-.017-.017l.042-.021ZM252.9,63.689l-.036-.035.053.018.038.048Zm19.236.358.032-.041-.017.055c-.045.007-.119-.011-.057.076Zm-42.194,1.26-.043.029.027-.046C229.938,65.286,229.994,65.241,229.94,65.307Zm-2.5-.5a.171.171,0,0,0-.007-.055c-.006-.01-.025-.011-.038-.017l.06.057a.163.163,0,0,0,.02.049c0,.007.022,0,.035.007Zm52.632-2.485c-.007-.041.017-.12-.071-.056l.085.042.036.031Zm-.359-.492-.143,0a1.36,1.36,0,0,0-.277-.218c-.117-.053-.172.031-.169.151.145.115.309.034.463.048.032.066.067.082.109.008l.039-.024ZM226.2,63.316c0-.057.006-.127-.084-.057l.1.046a.161.161,0,0,0,.018.048c.006.008.022.007.034.011Zm29.174,0a.3.3,0,0,0-.025-.046c-.007-.008-.021-.01-.031-.014l.073.043.017.05Zm.74-.744a.147.147,0,0,0-.011-.05c0-.008-.022-.01-.035-.014l.063.049.034.034Zm8.692,4.1c-.018-.028-.038-.057.017-.015C264.857,66.7,264.843,66.694,264.81,66.672Zm-1.123,1.366a.162.162,0,0,0-.006-.059c-.006-.01-.027-.013-.042-.018l.066.06.028.034Zm2.871-7.347a.31.31,0,0,0,.018.05c.006.008.021.011.031.018l-.067-.05C266.529,60.687,266.505,60.651,266.558,60.691Zm-5.349.246.041-.036-.025.052-.039.027Zm20.979-1.712-.13-.133,0-.264.262-.246.115.137a.162.162,0,0,0,.085.217c.06-.032.168-.056.193-.113a.921.921,0,0,0,.008-.316,2.412,2.412,0,0,0,.352-.064.163.163,0,0,0,.081-.138c-.01-.039-.1-.1-.136-.085a.945.945,0,0,0-.577.494l-.134-.117-.006-.385a.592.592,0,0,0,.123-.014c.024-.007.042-.034.064-.052a.208.208,0,0,0-.055-.024,1.208,1.208,0,0,0-.122-.015l-.025-.041.041.025-.007.14c-.38-.084-.38-.084-.589.215l.347.4a.984.984,0,0,0-.112.021c-.066.021-.082.066-.032.115a.777.777,0,0,0,.136.094l.131.131a.2.2,0,0,0,.017.046c.006.008.02.011.029.015Zm-.736,0-.038.038.022-.053C281.471,59.184,281.489,59.177,281.453,59.224Zm-20.864.968.045-.025-.028.042-.043.035Zm3.971,1.616a.211.211,0,0,0,.048-.015c.008-.006.01-.022.014-.034l-.046.064a.292.292,0,0,0-.045.017.105.105,0,0,0-.017.028Zm-.232-2.591c-.108.039-.07.078,0,.117-.1.306-.088.317.245.369l-.113.234c.185.048.336.1.489.123.078.014.179-.017.189-.106.011-.11-.084-.112-.165-.088a.206.206,0,0,1-.254-.092c-.027-.038-.1-.042-.152-.06a.265.265,0,0,1-.027-.326.461.461,0,0,0,.024-.175c.076-.07.158-.137.12-.259a.084.084,0,0,0-.042-.043c-.01,0-.039.01-.039.018-.008.1-.014.2-.02.3l-.141-.007C264.4,59.146,264.37,59.106,264.328,59.217Zm18.852-.242a.321.321,0,0,0-.015-.052c-.006-.01-.021-.014-.032-.02l.064.056a.176.176,0,0,0,.021.053c.006.008.025.007.038.01Zm-3.721,0-.021-.038.036.024c.015.034-.014.137.081.055ZM275.976,61.7c-.039-.078-.074-.05-.108,0-.1.01-.2.007-.253.12l-.21-.169-.165.264-.26-.22a.566.566,0,0,0,.088-.085,1.145,1.145,0,0,0,.074-.143.93.93,0,0,0-.214-.056.212.212,0,0,0-.049.152c.013.048.077.081.117.122l-.331.3c-.324-.185-.324-.185-.429.078l.015-.017c-.193.057-.259-.178-.433-.189a1.161,1.161,0,0,1-.062.169c-.1.183-.169.178-.323-.02-.042-.055-.1-.084-.14-.013a.45.45,0,0,1-.247.256c-.029.01-.1-.011-.1-.027-.011-.056,0-.136-.077-.127-.049.006-.088.073-.134.108-.1.081-.175.1-.175-.08,0-.052-.085-.077-.14-.021s-.094.161-.154.173a10.664,10.664,0,0,1-1.334.236,7.154,7.154,0,0,0-1.158.182,1.884,1.884,0,0,1-.482.087,1.028,1.028,0,0,0-.41.069c-.242.087-.481.274-.765.115-.011-.007-.053.052-.085.074a.831.831,0,0,1-.193.126c-.586.2-1.175.393-1.762.584-.029.01-.071-.022-.14-.046a.842.842,0,0,1,.137-.189,4.629,4.629,0,0,0,.984-.935.757.757,0,0,1,.133-.126q.667-.55,1.335-1.1c.246-.024.315-.383.612-.324.035.007.122-.067.126-.109.018-.166.14-.238.246-.336.329-.309.77-.485,1.026-.88a.28.28,0,0,1,.148-.1,2.119,2.119,0,0,0,.866-.582,2.694,2.694,0,0,1,.659-.453c.513-.266,1.018-.548,1.52-.833a.841.841,0,0,1,.468-.133,2.082,2.082,0,0,0,.306-.029.15.15,0,0,0,.011.045c.006.008.02.013.029.018l-.057-.048c.043-.041.08-.1.131-.12a7.222,7.222,0,0,1,.831-.225c.586-.1,1.176-.176,1.766-.257a3.606,3.606,0,0,1,.369-.017,2.116,2.116,0,0,0,.853-.2c-.036-.113-.038-.249-.1-.292-.247-.166-.456-.41-.8-.408-.266,0-.53-.053-.8-.073a2.231,2.231,0,0,0-.432,0c-.405.048-.811.106-1.215.162a6.913,6.913,0,0,1-1.163.372,2.356,2.356,0,0,1-.758.245.807.807,0,0,0-.411.194.381.381,0,0,0-.084-.087c-.015-.01-.053.021-.08.035a.393.393,0,0,0,.056.024c.041.006.081.007.123.01-.011.015-.018.038-.034.048-.253.164-.256.162-.481-.028l-.032-.039.049.024-.134.343c-.164.112-.34.256-.536.364a2.921,2.921,0,0,1-1.084.552l-.031-.039.046.022c-.224.137-.445.278-.674.406-.027.015-.1-.049-.155-.08-.05.08-.1.168-.155.246-.137.182-.19.183-.456.022-.1.077-.083.271-.28.274-.25.006-.275-.192-.359-.354h-.18a.719.719,0,0,0,.029-.117.38.38,0,0,0-.014-.1.276.276,0,0,0-.059.014c-.053.024-.1.052-.222.112l.288.067.186.473.426.076a3.663,3.663,0,0,1-.754.586.5.5,0,0,0-.178-.425l-.221.243.417.166c-.227.273-.522.478-.745.756-.056.069-.175.084-.266.124a2.483,2.483,0,0,0-.028-.355c-.021-.1-.169-.124-.247-.055a.215.215,0,0,0,.053.386.719.719,0,0,0,.235.013,4.562,4.562,0,0,1-.7.674.189.189,0,0,1-.309-.063.644.644,0,0,0-.141-.2c-.032-.027-.1,0-.159,0,0,.035-.013.081.006.1a.663.663,0,0,1,.246.5l-.32.246c-.017-.029.02-.124-.074-.062l.091.045a3.174,3.174,0,0,1-.558.729,8.359,8.359,0,0,0-1.208,1.382.231.231,0,0,1-.083.089c-.3.169-.426.494-.668.713a.668.668,0,0,0-.246.575c-.183.116-.334.221-.494.309a.946.946,0,0,1-.229.067l-.021-.042.036.027.213.252c-.07.175-.137.368-.225.551a.56.56,0,0,0,.434.793,2.264,2.264,0,0,0,.412-.238,2.361,2.361,0,0,0,.235-.351c.12-.157.183-.378.433-.4a.246.246,0,0,0,.151-.1,1.669,1.669,0,0,1,.763-.5,10.054,10.054,0,0,1,2.295-.88.5.5,0,0,0,.164-.081,4.167,4.167,0,0,1,1.506-.5c.055-.01.137.007.158-.024.137-.192.35-.185.543-.249a14.164,14.164,0,0,1,1.931-.338c.317-.06.642-.085.965-.127.006.1-.027.2.1.185a.892.892,0,0,0,.217-.094l-.01.01c.131-.091.243-.228.439-.169a.274.274,0,0,0,.171-.025,3.122,3.122,0,0,1,1.39-.189.786.786,0,0,0-.071.171.138.138,0,0,0,.144.154.95.95,0,0,0,.228-.084.122.122,0,0,0-.022-.2,1.586,1.586,0,0,0-.3-.024.47.47,0,0,1,.435-.175,3.669,3.669,0,0,0,.66-.046,3.162,3.162,0,0,0,.949-.193,6.2,6.2,0,0,1,1.018-.059c.06-.01.119-.029.178-.045l.036.043-.053-.027c.025-.031.043-.074.075-.091a.4.4,0,0,0,.2-.468.466.466,0,0,0-.351-.385,1.715,1.715,0,0,0-.417-.073,3.269,3.269,0,0,0-1.152.091c-.055.02-.141-.05-.213-.078C276.068,61.776,276.07,61.739,275.976,61.7Zm5.6-1.748.039.031-.045-.025a1.626,1.626,0,0,0,0-.165c0-.013-.035-.036-.043-.032-.028.015-.067.035-.074.06C281.42,59.929,281.489,59.952,281.575,59.954Zm-18.741-.235c-.031.021-.074.035-.09.063s.007.064.013.1c.021-.02.052-.038.059-.062a.445.445,0,0,0,0-.115C262.851,59.68,262.871,59.671,262.833,59.719Zm-18.992,5.569a.238.238,0,0,0,.018.053c.007.007.027.006.041.008l-.071-.049c-.021-.031-.035-.074-.064-.091s-.06.02-.091.032c.017.011.031.029.049.032A1.147,1.147,0,0,0,243.842,65.289Zm-8.2-.231a.274.274,0,0,0-.021-.046C235.614,65,235.6,65,235.59,65l.066.046c.021.031.035.073.064.088s.063,0,.1-.008c-.021-.02-.039-.046-.064-.055A.49.49,0,0,0,235.641,65.058ZM209.085,49.785a.367.367,0,0,0-.112.006c-.02.008-.025.052-.036.078.034,0,.077.018.1,0s.028-.063.041-.1l.036-.041ZM264.81,67.273c.041-.006.08-.008.119-.017a.18.18,0,0,0,.05-.032c-.031-.01-.073-.038-.091-.028s-.043.06-.063.092a.155.155,0,0,0-.052.01c-.008,0-.011.021-.017.034ZM208.086,48.546l-.041-.035.056.018-.008.137c-.137.02-.218-.117-.344-.141-.024.157-.049.3.134.355.1.029.154-.045.2-.227h.267a.386.386,0,0,0,.076.076c.013.007.043-.015.066-.025a.306.306,0,0,0-.05-.018c-.035-.006-.071-.008-.108-.013C208.288,48.554,208.188,48.55,208.086,48.546Zm-.361-.888V47.8l-.116.015c-.06.008-.073.032-.031.062a.059.059,0,0,0,.055-.006.736.736,0,0,0,.074-.087l.046-.034a.443.443,0,0,0-.045-.084c-.021-.031-.036-.073-.066-.088s-.056.022-.087.035a.189.189,0,0,0,.052.028C207.645,47.654,207.684,47.654,207.725,47.658Zm70.736,9.553a.453.453,0,0,0,.123,0c.017,0,.027-.043.039-.067-.02,0-.045-.008-.057,0a.992.992,0,0,0-.088.084l-.036.036Zm-4.454-2.455c-.028.021-.067.036-.084.064s.02.053.031.08a.152.152,0,0,0,.028-.048.981.981,0,0,0,.01-.112.2.2,0,0,0,.043-.018.076.076,0,0,0,.014-.028Zm2.98-2.11c-.056,0-.11,0-.165.007-.017,0-.031.021-.045.032.025.018.064.056.076.049a.9.9,0,0,0,.117-.1l.039-.036Zm-3.118,10.9c.055,0,.109,0,.164,0,.015,0,.031-.021.045-.031-.027-.018-.064-.057-.076-.05a.789.789,0,0,0-.117.1l-.035.034Zm-8.925-1.611c.021.032.031.052-.015.017-.006-.038-.008-.076-.017-.112a.184.184,0,0,0-.024-.05c-.01.027-.038.063-.029.078A.292.292,0,0,0,264.943,61.932Zm-6.076,0,0,.148c-.1,0-.2-.027-.288.055a.372.372,0,0,0,.106.052,1.332,1.332,0,0,0,.183,0l.129.263a1.821,1.821,0,0,0-.214.048c-.014,0-.024.07-.011.092s.08.038.087.028a2.023,2.023,0,0,0,.12-.187c.157-.088.108-.242.122-.376l.262.129a.211.211,0,0,0,.017.045c.006.007.018.01.028.015l-.06-.045a.41.41,0,0,0,0-.117c-.05-.147-.1-.15-.231-.01l-.129.007-.129-.133a.764.764,0,0,0-.071-.078c-.011-.01-.035,0-.053,0,.011.021.018.055.034.06A.455.455,0,0,0,258.868,61.929Zm14.892-7.94a.148.148,0,0,0,.011.056c0,.01.025.01.039.014L273.744,54a.346.346,0,0,0-.074-.076c-.013-.007-.043.018-.066.029a.205.205,0,0,0,.048.021C273.688,53.985,273.725,53.986,273.76,53.989Zm3.847-.1c-.031.021-.073.035-.089.063s0,.064.007.1c.02-.021.049-.038.057-.063a.487.487,0,0,0,.008-.112.216.216,0,0,0,.045-.02c.008,0,.013-.017.02-.027Zm1.489.225c.006.017.049.071-.017.017a.765.765,0,0,0-.073-.091.058.058,0,0,0-.055,0c-.043.029-.034.056.027.067C279.016,54.108,279.056,54.108,279.1,54.111Zm-58.227-.1c-.027-.036-.027-.046.015-.015.022.028.038.066.067.082s.052-.018.078-.029a.211.211,0,0,0-.049-.027A.979.979,0,0,0,220.869,54.01ZM277.346,53a.478.478,0,0,0,.111-.011c.024-.007.042-.034.063-.05-.032,0-.071-.02-.094-.007s-.042.056-.063.085a.185.185,0,0,0-.043.017c-.008,0-.013.015-.02.024Zm1,0,.028.039-.045-.024a.331.331,0,0,0-.074-.088c-.017-.01-.056.02-.084.032a.209.209,0,0,0,.055.024C278.266,52.988,278.307,52.991,278.347,53Zm-59.208-1.738.036.039-.053-.022a.441.441,0,0,0,0-.122c-.007-.027-.036-.048-.056-.071a.118.118,0,0,0-.029.046.077.077,0,0,0,.011.056C219.075,51.212,219.108,51.233,219.139,51.258Zm45.175,9.436a.566.566,0,0,0,.109-.011.251.251,0,0,0,.067-.046c-.032,0-.071-.02-.1-.007s-.043.053-.064.081a.188.188,0,0,0-.056.01c-.01,0-.013.022-.02.035Zm6.091,3.619c-.031.017-.073.027-.088.053s0,.063,0,.1c.022-.018.055-.031.063-.053a.36.36,0,0,0,.006-.11C270.422,64.277,270.441,64.267,270.405,64.313Zm-5.086-3.721a.612.612,0,0,0-.113,0,.332.332,0,0,0-.077.045c.014.01.027.027.042.028a.077.077,0,0,0,.053-.011c.028-.024.052-.053.078-.08l.036-.034Zm7.693,3.475c-.059.017-.117.031-.175.05a.066.066,0,0,0-.034.045.077.077,0,0,0,.007.052c.032,0,.078.01.094-.007A1.016,1.016,0,0,0,273,64.05l.13-.134c.245.085.266.07.249-.179l-.006-.059c.039-.029.049-.028.015.017a.356.356,0,0,0-.242.238Zm6.069-6.457c.007.018.008.043.021.056a.088.088,0,0,0,.148-.01.847.847,0,0,0-.092-.066c-.015-.008-.039,0-.059,0l-.015-.245.3.06c.063-.292.063-.292-.154-.692.035.291-.2.419-.129.646a.3.3,0,0,0-.1.042c-.042.038-.108.1-.1.129C278.917,57.615,279,57.619,279.082,57.609Zm3.114-.02.029.035-.046-.018c.022-.053.046-.1.063-.159,0-.01-.02-.042-.024-.041-.031.011-.062.027-.092.041Zm-5.1-1.965c-.021-.034-.036-.06.017-.017.048.07.1.123.185.048.013-.011.027-.042.02-.05s-.049-.06-.064-.055A1,1,0,0,0,277.1,55.625ZM261.347,61.21c-.029.027-.07.049-.085.082a.106.106,0,0,0,.01.1c.02.018.067.008.1.01a.381.381,0,0,0,0-.1.773.773,0,0,0-.043-.112c.018-.025.123.014.055-.076Zm-2.376,6.18c.052-.031.1-.06.155-.094a.07.07,0,0,0,.027-.053c0-.014-.02-.043-.028-.042-.034,0-.087.008-.1.029a.921.921,0,0,0-.041.176.309.309,0,0,0-.048.025.073.073,0,0,0-.011.032Zm19.87-11.147-.02-.039.034.024a.393.393,0,0,0,.014.116c.011.027.053.066.071.06a.125.125,0,0,0,.076-.073c.006-.015-.034-.059-.06-.07A.437.437,0,0,0,278.841,56.243Zm-4.107-1.366a.314.314,0,0,0,.006-.113c-.008-.022-.052-.034-.078-.049,0,.034-.025.078-.01.1s.064.035.1.052c.076.108.166.154.291.069C274.957,54.813,274.839,54.879,274.734,54.877ZM236.4,66.029a.375.375,0,0,0,0,.119c.007.024.041.041.063.062.006-.035.025-.077.011-.1s-.06-.045-.092-.066a.729.729,0,0,0-.043-.166c-.008-.018-.064-.015-.1-.021,0,.034-.011.084.006.1A.741.741,0,0,0,236.4,66.029Zm-9.436-1.988a.171.171,0,0,0,.011.046c0,.01.017.014.025.021l-.055-.05c-.069-.084-.147-.133-.259-.067a.424.424,0,0,0,.1.039A1.544,1.544,0,0,0,226.964,64.04Zm49.026-11.4a.519.519,0,0,0-.106-.041.333.333,0,0,0-.1.013c.006.031,0,.078.018.089a.114.114,0,0,0,.1,0c.031-.015.049-.053.071-.081a.5.5,0,0,0,.122,0c.017,0,.024-.043.036-.066-.02,0-.046-.007-.059,0A.968.968,0,0,0,275.99,52.641Zm3.342,2.834a1.491,1.491,0,0,0,.2-.108c.024-.015.041-.088.028-.1a.258.258,0,0,0-.131-.06c-.034,0-.07.031-.1.048-.055-.218-.145-.264-.288-.15a.235.235,0,0,0-.066.261l-.035.029.021-.043.385-.119,0,.257c-.014.007-.028.013-.042.021a.106.106,0,0,0-.018.024Zm-41.941,9.46c-.1-.014-.2-.029-.3-.039-.011,0-.032.025-.035.042a.059.059,0,0,0,.017.052c.123.076.229.071.3-.073.015-.027.126.02.057-.073Zm27.916-5.483c.069-.066.137-.129.2-.2.008-.01,0-.036,0-.055-.031,0-.07-.007-.092.008a.249.249,0,0,0-.1.257.187.187,0,0,0-.052.013c-.01.006-.011.022-.017.035Zm11.8-5.213.029.035-.043-.021c-.036-.041-.071-.112-.108-.113a.66.66,0,0,0-.22.06c-.006,0-.006.039,0,.055s.031.042.043.041C276.909,54.28,277.008,54.259,277.106,54.24Zm-5.954,7.944a.187.187,0,0,0,.014.048c.006.008.022.008.034.014l-.062-.049c-.029-.046-.049-.109-.092-.134s-.1,0-.144.01c-.008,0-.024.042-.017.05.031.042.064.1.1.11S271.1,62.2,271.152,62.183Zm-4.73-3.851c.224.091.225.089.369-.115l.041-.036-.024.052c-.129.022-.288-.056-.371.115a.161.161,0,0,0-.045.02c-.008.006-.008.02-.013.029Zm-8.065,4.228c.077.013.152.017.2-.066-.021-.032-.036-.077-.066-.094a.684.684,0,0,0-.155-.041c0,.052,0,.1,0,.155,0,.017.018.034.028.05-.1.022-.122.084-.064.162.015.022.064.021.1.031,0-.05,0-.1-.011-.15C258.385,62.592,258.367,62.576,258.356,62.561Zm-52.378-16a.513.513,0,0,0-.088-.078c-.015-.008-.046.015-.07.024.018.006.038.011.057.015.038.008.077.015.116.022.067.091.108.22.264.19C206.217,46.585,206.082,46.6,205.978,46.559ZM260.1,61.69a.4.4,0,0,0,.081.087c.015.008.052-.022.08-.035a.184.184,0,0,0-.055-.028c-.039-.006-.081,0-.122-.007a.766.766,0,0,0-.045-.171.12.12,0,0,0-.1-.05c-.028.006-.052.056-.064.092a.554.554,0,0,0-.018.12.78.78,0,0,0-.12.1c-.007.01.035.057.053.088.014-.013.041-.022.042-.036.006-.056.006-.11.007-.166Zm16.759-3.725a.948.948,0,0,0,.1.144c.017.017.062.007.094.008-.014-.032-.02-.081-.043-.092a.842.842,0,0,0-.168-.042c.1-.2.1-.2-.053-.334A.214.214,0,0,0,276.858,57.965ZM264.7,60.935a.56.56,0,0,0,.01.11c.006.017.038.027.057.038,0-.017,0-.041-.008-.052a.838.838,0,0,0-.078-.08.54.54,0,0,0-.089-.081.149.149,0,0,0-.206.069.249.249,0,0,0,0,.159.375.375,0,0,0,.062.1.919.919,0,0,0-.091.07.07.07,0,0,0-.013.053.121.121,0,0,0,.025.048c.018-.022.048-.042.055-.069a.64.64,0,0,0,.007-.117Zm-57.74-13.155a.6.6,0,0,0,.148.1.243.243,0,0,0,.157-.027c.017-.008.025-.091.01-.1a.24.24,0,0,0-.155-.059c-.052.007-.1.063-.143.1l-.036.038Zm62.954,17.5a.539.539,0,0,0,0,.116.255.255,0,0,0,.049.077.113.113,0,0,0,.029-.045.071.071,0,0,0-.013-.053c-.025-.028-.056-.052-.084-.078-.241-.152-.241-.152-.385.069Zm-4.472-4.189-.358.151c.062.067.1.136.141.147a.168.168,0,0,0,.136-.078,1.014,1.014,0,0,0,.063-.236.377.377,0,0,0,.077-.08c.007-.013-.015-.043-.024-.066-.006.017-.013.035-.017.052C265.456,61.016,265.451,61.053,265.445,61.09ZM277.11,55a.468.468,0,0,0-.14.1.185.185,0,0,0-.011.154c.036.08.158.106.2.049a.225.225,0,0,0,.015-.155.761.761,0,0,0-.076-.161.354.354,0,0,0,.11-.01c.028-.013.066-.049.063-.071a.1.1,0,0,0-.067-.071c-.022,0-.062.032-.074.059A.388.388,0,0,0,277.11,55Zm-16.644,7.078a.332.332,0,0,0-.017-.045c-.006-.008-.018-.013-.028-.018l.062.046a.593.593,0,0,0,.2.087c.124,0,.14-.057.084-.257-.052.035-.1.07-.148.1S260.518,62.049,260.466,62.078Zm7.955-4.364a.192.192,0,0,0,.015.057c.006.008.027.01.039.014l-.068-.057c.014-.1.043-.215-.074-.252s-.232.006-.247.2Zm7.217.53a.992.992,0,0,0,.235-.032.155.155,0,0,0,.073-.134.18.18,0,0,0-.131-.094.189.189,0,0,0-.227.211c-.038.032-.091.063-.021.11C275.573,58.31,275.612,58.265,275.638,58.244Zm-18.028,3.563.1.057a.129.129,0,0,0,.194-.069.162.162,0,0,0-.123-.227.136.136,0,0,0-.162.131,1.145,1.145,0,0,0,0,.12l-.035.035Zm10.81-3.7c-.035-.048-.07-.1-.106-.144-.09-.119-.175-.138-.234-.057s-.013.148.041.207a1.008,1.008,0,0,0,.136.12c.084.064.123.028.152-.138l.035-.034Zm10.54,4.324a.261.261,0,0,0,.27-.1c.056-.064.092-.137.017-.214a.182.182,0,0,0-.266.036.334.334,0,0,0-.007.294l-.035.031Zm5.1-3.6c.027.036.031.05-.015.015l.05-.341c-.173-.031-.31-.192-.467-.013l.313.354-.038.034.022-.049ZM242.6,65.907l.039.036-.053-.022a.481.481,0,0,0,.039-.471,1.192,1.192,0,0,0-.168-.032c-.1,0-.207.015-.24.137a.225.225,0,0,0,.1.264A1.28,1.28,0,0,0,242.6,65.907Zm34.36-14.412-.175-.165c-.117.035-.2.1-.192.218a1.047,1.047,0,0,0,.06.289c.008.028.063.049.1.057a.254.254,0,0,0,.28-.076c.076-.1.021-.193-.034-.282.036-.014.074-.027.11-.043a.22.22,0,0,0,.043-.038c-.034-.011-.07-.036-.1-.029S276.991,51.471,276.96,51.495Zm.635-.236a.831.831,0,0,0,.228.092.314.314,0,0,0,.31-.158.293.293,0,0,0-.034-.294.265.265,0,0,0-.315-.131.243.243,0,0,0-.206.261,1.624,1.624,0,0,0,.031.245.163.163,0,0,0-.046.015c-.008,0-.011.02-.015.029Zm-2.358,2.994.426-.2c-.259.024-.345-.168-.457-.344a.2.2,0,0,0-.316-.043.275.275,0,0,0-.151.236c.041.189.289.25.264.468l-.041.025.025-.041c.1-.014.2-.006.257-.115Zm.011,9.81-.445-.108c.113.206.221.365.294.538.081.194.231.2.4.187l-.015-.015c0,.02,0,.041,0,.06-.022.2-.014.217.157.2a.6.6,0,0,0,.162-.06.589.589,0,0,1-.036-.123.662.662,0,0,0-.292-.436,1.445,1.445,0,0,1-.231-.263l.337.062a.18.18,0,0,0-.087-.259c-.089-.038-.151.034-.2.1A.405.405,0,0,0,275.249,64.063Zm-35.012,1.721c.1-.039.192-.074.285-.117a.363.363,0,0,0,.173-.551.43.43,0,0,0-.584-.186l-.045-.035.057.021c-.045.064-.088.13-.134.193a.28.28,0,0,0-.013.373l.141.187c-.091.035-.133.1-.063.178S240.193,65.859,240.237,65.784Zm36.835-8.233c.108.386.119.4.41.26a.438.438,0,0,1,.288-.025.149.149,0,0,0,.165-.147l-.442-.287A.426.426,0,0,1,277.072,57.551Zm7.692,2.5c-.081-.213-.235-.228-.408-.2a.211.211,0,0,0-.159.229.277.277,0,0,0,.169.236.222.222,0,0,0,.274-.073A1.264,1.264,0,0,0,284.764,60.048Zm-8.2,4.059a3.256,3.256,0,0,0,.208-.428.234.234,0,0,0-.078-.206.288.288,0,0,0-.229-.024.136.136,0,0,0-.084.2C276.454,63.789,276.374,63.983,276.566,64.107Zm-4.1-7.909-.575.183.164.281c.129-.119.127-.116.294,0a.11.11,0,0,0,.1,0A.322.322,0,0,0,272.468,56.2Zm-41.223-9.81c-.015-.018-.027-.046-.038-.046a.842.842,0,0,0-.6.334c-.011.011.014.078.039.1a.168.168,0,0,0,.222,0C231,46.648,231.118,46.517,231.244,46.388ZM272.954,61.1c0-.02.008-.049,0-.059-.1-.1-.2-.193-.308-.282-.013-.01-.094.028-.1.046a.4.4,0,0,0,.154.373.248.248,0,0,0,.172,0C272.907,61.176,272.928,61.129,272.954,61.1Zm.489-2.373a2.732,2.732,0,0,0,.34-.186.132.132,0,0,0,.018-.2.164.164,0,0,0-.214-.035C273.449,58.373,273.4,58.486,273.444,58.727Zm-2.59-.92a.768.768,0,0,0-.155-.2c-.056-.039-.213.083-.235.161s.081.178.193.187C270.742,57.967,270.818,57.949,270.854,57.807Zm8.435-5.277c-.233.187-.233.187-.062.559.2-.089.2-.089.162-.229C279.363,52.764,279.332,52.669,279.288,52.529ZM257.355,67.9a.2.2,0,0,0-.193-.175.2.2,0,0,0-.157.215.166.166,0,0,0,.161.143A.193.193,0,0,0,257.355,67.9Zm18.168-14.2.085.078c.12-.067.24-.131.358-.2.011-.006.015-.041.008-.055-.017-.032-.042-.081-.066-.083a1.94,1.94,0,0,0-.259.014ZM239.041,65.478a2.312,2.312,0,0,1-.131-.385c-.034.008-.084,0-.1.025a.189.189,0,0,0,.028.264A.808.808,0,0,0,239.041,65.478Zm42.317-6.689c.2-.071.194-.214.185-.351,0-.027-.059-.076-.078-.07-.049.013-.126.049-.127.08A2.228,2.228,0,0,0,281.358,58.788Zm-11.814-1.442a.236.236,0,0,0,.074.3c.1.088.207.11.294.031Zm-.513.611-.1-.025a2.7,2.7,0,0,0-.1.268c-.007.025.034.094.048.092.052-.006.137-.025.143-.052A1.473,1.473,0,0,0,269.031,57.958Zm11.1,1.878c-.024-.076-.046-.154-.069-.231-.017-.059-.045-.064-.085-.018a.2.2,0,0,0,.028.31c.015.01.045.021.055.014A.534.534,0,0,0,280.133,59.836Zm.241-3.142c.013.155.119.18.208.2a.17.17,0,0,0,.15-.052c.046-.064-.014-.11-.073-.122C280.567,56.706,280.473,56.7,280.374,56.694Zm-41.622,9.843a.389.389,0,0,0,.1-.1c.029-.067-.071-.159-.152-.138a.218.218,0,0,0-.124.109C238.539,66.473,238.626,66.543,238.752,66.536ZM270.1,61.911a.741.741,0,0,0-.057-.158.815.815,0,0,0-.1-.1c-.025.028-.074.059-.071.084a.268.268,0,0,0,.064.141C269.948,61.9,270,61.891,270.1,61.911ZM220.54,52.756c-.029-.089-.11-.133-.178-.085a.128.128,0,0,0-.048.1.122.122,0,0,0,.182.08C220.521,52.837,220.528,52.788,220.54,52.756Zm53.3,3.065c-.113-.07-.158-.117-.21-.124s-.1.032-.138.057c-.01.006-.014.049-.007.053a.231.231,0,0,0,.1.043A2.407,2.407,0,0,0,273.838,55.821ZM243.415,67.965a1,1,0,0,0,.231.109.171.171,0,0,0,.14-.046c.039-.071-.032-.108-.087-.115A1.275,1.275,0,0,0,243.415,67.965ZM220.627,54.488c-.073-.045-.117-.091-.168-.1-.067-.01-.157.126-.113.166a.206.206,0,0,0,.157.049C220.543,54.6,220.575,54.54,220.627,54.488Zm60.44,5.4a.158.158,0,0,0-.134-.186c-.1-.02-.21.038-.178.084a.442.442,0,0,0,.173.148C280.965,59.95,281.028,59.9,281.067,59.889Zm-8,1.762.386.122C273.395,61.618,273.395,61.618,273.07,61.651Zm8.869-1.272c.024-.108.008-.19-.081-.208-.036-.007-.1.048-.129.091a.115.115,0,0,0,.084.178C281.86,60.438,281.906,60.395,281.94,60.378Zm-14.674-1.359c.052.108.162.088.25.113.028.008.066-.011.1-.018-.025-.042-.042-.108-.077-.12A.239.239,0,0,0,267.266,59.019Zm13.666-1.812a.817.817,0,0,0-.14-.07c-.008,0-.059.078-.05.089a.709.709,0,0,0,.123.1ZM263.268,60.17c-.034-.013-.076-.042-.1-.032s-.032.062-.046.094c.034.013.074.042.1.031S263.254,60.2,263.268,60.17Zm18.769-2.36a1.84,1.84,0,0,0-.2-.115c-.024-.008-.059.013-.089.021.022.031.041.081.068.089A1.071,1.071,0,0,0,282.038,57.809Zm-19.79,3.936.06-.022a.743.743,0,0,0-.013-.168c-.008-.027-.056-.041-.085-.062-.01.034-.034.069-.027.1A.92.92,0,0,0,262.247,61.746ZM274.136,55.7a.585.585,0,0,0,.1-.147c.008-.025-.029-.064-.046-.1-.045.027-.109.043-.127.081S274.1,55.618,274.136,55.7Zm4.336,3.861a.8.8,0,0,0,.078-.124c0-.008-.067-.062-.077-.056a.657.657,0,0,0-.1.1Zm-.543-6.867a1.206,1.206,0,0,0-.126.175c-.01.024.018.064.028.1.032-.021.085-.035.094-.063A.874.874,0,0,0,277.929,52.69ZM260.15,66.262c-.027-.028-.053-.074-.069-.071a.468.468,0,0,0-.157.071c-.021.015-.017.064-.024.1.036.007.081.031.106.018A.894.894,0,0,0,260.15,66.262Zm1.751-6.313a.594.594,0,0,0-.136-.1c-.025-.008-.069.028-.1.049a.073.073,0,0,0,.021.052.8.8,0,0,0,.152.082C261.846,60.037,261.874,59.987,261.9,59.949Zm15.37-6a1.063,1.063,0,0,0,.1-.183c.008-.024-.02-.062-.031-.092-.031.02-.084.035-.087.059A.991.991,0,0,0,277.271,53.944ZM266.23,65.991c-.02-.02-.031-.041-.046-.046s-.055,0-.056.006c-.017.071-.028.143-.038.215a.054.054,0,0,0,.039.021.075.075,0,0,0,.045-.035C266.195,66.1,266.212,66.043,266.23,65.991Zm6.85-10.84a.284.284,0,0,0,.294.081c.022-.006.038-.05.048-.08,0-.008-.025-.041-.036-.039C273.288,55.122,273.193,55.137,273.08,55.151Zm-21.274,8.572c-.034-.01-.078-.039-.1-.027a.46.46,0,0,0-.119.109l.021.043c.067-.027.133-.055.2-.085C251.81,63.761,251.806,63.737,251.806,63.723ZM209.178,50.359a.673.673,0,0,0-.138-.063c-.011,0-.057.074-.05.083a.7.7,0,0,0,.119.091Zm50.967,10.89a.575.575,0,0,0,.122-.05.917.917,0,0,0-.05-.155c-.034.011-.094.022-.1.036A.945.945,0,0,0,260.144,61.249Zm-6.291,2.191c-.017-.029-.028-.08-.05-.085a.118.118,0,0,0-.092.041c-.034.045.017.126.067.112C253.807,63.5,253.828,63.464,253.853,63.44Zm17.391-7.951-.074.165a.669.669,0,0,0,.141.055c.011,0,.055-.064.046-.084A.784.784,0,0,0,271.244,55.49ZM269.5,58.24l.022.05a.276.276,0,0,0,.109-.032.314.314,0,0,0,.062-.092.29.29,0,0,0-.1,0A.362.362,0,0,0,269.5,58.24Zm10.382.424a.724.724,0,0,0-.011.169.1.1,0,0,0,.082.042c.056-.029.088-.081.036-.14A.526.526,0,0,0,279.881,58.664ZM241.5,65.35l-.112.13c.017.013.038.038.049.034a1.113,1.113,0,0,0,.137-.066Zm10.831-1.514a1.632,1.632,0,0,0-.171-.01c-.014,0-.028.022-.042.036a.912.912,0,0,0,.141.053C252.276,63.919,252.3,63.875,252.333,63.836Zm-13.119,2.076.123-.05a.915.915,0,0,0-.112-.12c-.01-.007-.078.038-.077.043A.99.99,0,0,0,239.215,65.913ZM263.823,67.6c-.015-.035-.024-.084-.05-.1s-.074.01-.1.032a.075.075,0,0,0,.062.122C263.767,67.651,263.794,67.617,263.823,67.6Zm16.324-10.5.1-.053c-.029-.021-.063-.063-.088-.057a.41.41,0,0,0-.123.067ZM272.73,55.03a.469.469,0,0,0-.059.083c0,.008.028.046.031.045.032-.018.063-.039.094-.059Zm5.93,8.082-.027-.1c-.02.007-.048.008-.055.022a.485.485,0,0,0-.025.094Zm2.974-6.227a.768.768,0,0,0-.172-.028c-.024,0-.045.046-.067.071a.684.684,0,0,0,.154.043C281.572,56.973,281.6,56.927,281.635,56.885Zm-19.277,3.083a.665.665,0,0,0-.024-.091s-.048,0-.05.011a.462.462,0,0,0-.021.1Zm16.173-7.514c-.015-.011-.032-.032-.043-.029a.256.256,0,0,0-.1.038c-.01.006-.013.046-.008.049.025.013.062.032.08.022S278.508,52.482,278.531,52.454Zm-64.139.025-.123.1a.631.631,0,0,0,.152.057c.027,0,.06-.035.089-.055ZM256.661,62.9c-.031-.043-.052-.092-.067-.091a.669.669,0,0,0-.152.042c.018.027.036.073.056.074A.729.729,0,0,0,256.661,62.9Zm6.945-3.008c-.029-.022-.059-.06-.088-.062s-.067.032-.1.052c.031.022.06.06.091.063S263.574,59.917,263.607,59.9Zm-20.412,4.956c-.055-.031-.1-.062-.154-.087l-.034.043c.043.031.085.062.13.088C243.142,64.9,243.165,64.875,243.194,64.853ZM278.8,50.8l-.022-.049a.867.867,0,0,0-.1.032l.038.081ZM256.888,61.733c-.034.011-.08.014-.1.038s.015.062.025.1c.032-.017.073-.025.094-.05S256.9,61.761,256.888,61.733Zm16.689-8.165.117-.126c-.029-.02-.06-.055-.088-.052a.107.107,0,0,0-.08.063C273.52,53.483,273.553,53.521,273.576,53.568Zm4.863-3.013-.15-.094c-.018.034-.06.088-.052.1a.4.4,0,0,0,.13.088C278.377,50.649,278.409,50.594,278.44,50.555Zm-10.584,8.1c-.031.017-.073.028-.088.055s.011.06.018.092c.032-.015.08-.022.091-.046S267.864,58.688,267.856,58.653Zm-24.515,6.162a1.47,1.47,0,0,0,.134.074c.01,0,.032-.02.049-.029l-.1-.129Zm17.881-2.939-.057-.1c-.024.027-.07.057-.066.077a.492.492,0,0,0,.073.12Zm18.309-7.328a1.441,1.441,0,0,0-.056.214c0,.015.043.038.07.052,0,0,.035-.029.032-.042C279.571,54.712,279.556,54.656,279.532,54.547Zm-34.27,10.9c.015-.032.046-.067.045-.1a.312.312,0,0,0-.048-.106c-.02.034-.052.069-.052.1S245.243,65.416,245.262,65.45Zm8.223,3.652.1-.048-.057-.076c-.025.027-.053.053-.077.083Zm9.873-6.358-.048-.089a.431.431,0,0,0-.07.052.064.064,0,0,0,.021.045A.56.56,0,0,0,263.359,62.744Zm15.043-.109c.018.031.029.074.056.089s.06-.013.091-.021c-.015-.032-.024-.078-.049-.089S278.436,62.627,278.4,62.635Zm1.818-7.193a1.14,1.14,0,0,0-.14-.06c-.011,0-.031.022-.046.034l.1.123Zm1.34,2.376a1.463,1.463,0,0,0-.131-.067c-.01,0-.029.018-.045.028l.089.115Zm-24.426,4.515c-.034.039-.067.077-.1.117l.034.042.126-.109Zm4.293-2c-.031-.013-.07-.043-.09-.034s-.041.057-.059.088c.034.013.071.041.1.034S261.411,60.361,261.427,60.331Zm9.769,3.914c-.008-.013-.015-.031-.027-.035a.147.147,0,0,0-.049,0,.288.288,0,0,0,.035.056Zm3.664-8.907.042-.025-.032-.034a.321.321,0,0,0-.055.043Zm4.455-4.263a.655.655,0,0,0-.109-.036c-.011,0-.027.022-.041.034.027.02.05.049.078.053S279.286,51.095,279.314,51.074Zm1.249,4.669-.038-.042a.807.807,0,0,0-.05.089c0,.007.025.025.039.039Zm-11.077,8.974c0,.013,0,.032.013.036a.211.211,0,0,0,.052.008l-.017-.06Zm-20.345.094-.011-.052-.024.067ZM269.973,60.6a.151.151,0,0,0,.014-.049c0-.007-.02-.013-.029-.02a.157.157,0,0,0-.013.049C269.945,60.591,269.963,60.6,269.973,60.6Zm7.352,1.024a.636.636,0,0,0-.106-.034c-.011,0-.027.022-.039.034.025.018.049.048.076.052S277.3,61.648,277.325,61.627Zm-8.69.492a.427.427,0,0,0-.094-.025c-.013,0-.027.021-.041.032a.333.333,0,0,0,.084.052C268.594,62.18,268.617,62.141,268.635,62.119Zm9.8-7.8a.15.15,0,0,0,.053.014c.007,0,.013-.021.02-.034a.151.151,0,0,0-.052-.014C278.452,54.287,278.445,54.308,278.438,54.321ZM272.48,61.7l-.022-.053c-.011.015-.028.029-.029.046s.013.035.021.052Zm5.674-8.478a.772.772,0,0,0-.041.092c0,.007.034.035.038.032.022-.017.059-.039.059-.059S278.174,53.24,278.154,53.217ZM261.9,61.639l-.008.091c.011-.014.029-.027.031-.042S261.912,61.656,261.9,61.639Zm-2.832.048.1-.041c-.02-.022-.038-.063-.06-.066s-.064.024-.1.038Zm21.478-.129-.025-.045-.035.028a.614.614,0,0,0,.042.063Zm-2.258-.056a.671.671,0,0,0-.106-.042c-.013,0-.031.022-.046.034.022.022.045.063.066.062S278.262,61.522,278.292,61.5Zm-2.45-8.363-.042-.087c-.015.013-.043.028-.041.036a.611.611,0,0,0,.043.092Zm3.787.972.018.056.021-.053Zm-64.666-.284c0-.011-.006-.029-.013-.032a.138.138,0,0,0-.049-.007l.015.053ZM257.295,62.1l.027-.048-.039-.007Zm20.6-7.832.045-.008-.014-.056-.041.01A.187.187,0,0,0,277.9,54.269Zm-23.472,8.864c0-.011,0-.031-.011-.034a.179.179,0,0,0-.049-.008l.014.057Zm23.22-.021c-.015,0-.031-.015-.045-.014-.055.01-.057.032-.008.055a.061.061,0,0,0,.046-.008C277.644,63.141,277.643,63.123,277.646,63.112ZM272.2,61.118c0,.014,0,.036.013.042a.153.153,0,0,0,.052,0l-.017-.067Zm-8.279,2.24c0,.013,0,.035.007.039a.061.061,0,0,0,.052.011c.05-.022.046-.05-.008-.067C263.962,63.337,263.942,63.351,263.925,63.358Zm-9.647.165.045-.024c-.013-.011-.029-.034-.036-.031a.29.29,0,0,0-.055.041Zm4.372-2.379-.081-.022.013.032A.225.225,0,0,0,258.651,61.144Zm19.021-9.392.09-.043c-.01-.015-.018-.042-.029-.043a.521.521,0,0,0-.091.011Zm-6.228,12.119-.087-.024c0,.014.008.038.014.039A.334.334,0,0,0,271.444,63.871Zm-43.96-10.932a.223.223,0,0,0-.049-.011c-.006,0-.011.021-.015.032a.147.147,0,0,0,.049.011C227.474,52.971,227.48,52.95,227.484,52.939Zm41.62,9.577c0-.014-.007-.036-.017-.041a.173.173,0,0,0-.055,0l.022.064Zm6.183-7.832c-.011-.013-.025-.038-.034-.035a.6.6,0,0,0-.092.032c.011.014.025.039.035.036A.477.477,0,0,0,275.288,54.684Zm-16.009,6.7-.088-.007c.013.01.025.028.039.029S259.262,61.392,259.279,61.383Zm14.435-.119c-.011-.015-.025-.045-.032-.043a.628.628,0,0,0-.1.035c.011.015.024.045.032.043A.63.63,0,0,0,273.713,61.265Zm-19.108,1.622a.183.183,0,0,0,.053.013c.007,0,.014-.022.021-.034a.158.158,0,0,0-.053-.014C254.618,62.852,254.613,62.874,254.606,62.887Zm24.22-10.477-.042.027.027.035a.584.584,0,0,0,.059-.043Zm-21.24,10.51-.029-.048-.036.038a.411.411,0,0,0,.05.06Zm22.258-8.155-.076.052c.013.013.027.036.038.035a.554.554,0,0,0,.094-.028Zm-1.913,2.4c-.014-.015-.032-.046-.039-.045a.633.633,0,0,0-.1.048.706.706,0,0,0,.1.041C277.9,57.208,277.918,57.177,277.931,57.162Zm3.466.124a.772.772,0,0,0,.046-.1c0-.01-.032-.043-.035-.042-.027.017-.071.042-.07.057C281.344,57.229,281.376,57.257,281.4,57.286ZM238.661,67.965c-.013-.008-.025-.022-.039-.024s-.029.01-.045.015c.013.008.025.024.038.025A.1.1,0,0,0,238.661,67.965ZM270.72,57.408a.514.514,0,0,0,.084.041c.01,0,.027-.021.039-.032a.687.687,0,0,0-.085-.042C270.749,57.372,270.732,57.4,270.72,57.408Zm7.78,10.921-.053-.015.032.05Zm-32.116.117c0,.013,0,.034.014.038a.111.111,0,0,0,.049,0l-.018-.062Zm10.413.86a.44.44,0,0,0-.028.094c0,.011.022.027.035.039.02-.025.049-.049.053-.077S256.819,69.326,256.8,69.306ZM230.718,46.989l-.1-.008c.015.011.031.028.046.031S230.7,47,230.718,46.989ZM259.305,69.7c.011.013.024.036.032.035a.684.684,0,0,0,.091-.028c-.011-.013-.024-.038-.032-.036A.762.762,0,0,0,259.305,69.7Zm12.15-12.78a.735.735,0,0,0-.041.089c0,.008.022.024.035.036a.49.49,0,0,0,.041-.087C271.492,56.945,271.468,56.93,271.455,56.916Zm7.706,2.755-.025.049.036.007Zm-.264-2.743c-.008-.013-.015-.031-.027-.035a.123.123,0,0,0-.049.006.274.274,0,0,0,.036.053Zm-7.2,2.722c.015.013.029.036.041.034a.448.448,0,0,0,.092-.031c-.011-.013-.025-.038-.036-.036A.667.667,0,0,0,271.7,59.65ZM207.54,48.441a.115.115,0,0,0,.01-.042l-.028-.014a.115.115,0,0,0-.01.042Zm-.25,0a.17.17,0,0,0,.014-.05c0-.006-.021-.011-.032-.017a.149.149,0,0,0-.013.048C207.259,48.428,207.279,48.434,207.29,48.441Zm57.35,18.63.013-.049-.046.032Zm19.347-7.446.021-.067-.032.008A.213.213,0,0,0,283.987,59.624ZM274.245,58.3l.048-.015c-.014-.008-.025-.022-.039-.024a.117.117,0,0,0-.046.014ZM203.531,43.891l-.014-.036a.189.189,0,0,0-.055.011c.006.013.01.035.015.035A.17.17,0,0,0,203.531,43.891Zm28.829-.129a.557.557,0,0,0-.1-.042c-.011,0-.029.022-.045.035.014.014.029.042.041.041A.744.744,0,0,0,232.36,43.762Zm33.267,14.875c0,.014,0,.035.014.039a.064.064,0,0,0,.055.006c.048-.024.041-.05-.017-.062C265.663,58.616,265.644,58.632,265.627,58.637Zm15.511.006a.482.482,0,0,0-.042.1c0,.008.024.035.036.035s.043-.024.042-.032A.636.636,0,0,0,281.138,58.643ZM242.9,69.847a.2.2,0,0,0-.01.049l.029.013a.282.282,0,0,0,.008-.048Zm12.9.357-.076-.015.013.025A.227.227,0,0,0,255.8,70.2Zm-1.451,1.177-.018-.05c-.01.014-.027.028-.028.043s.011.032.017.049Zm30.145-12.249a.55.55,0,0,0-.106-.021.058.058,0,0,0-.043.039c-.01.052.11.074.145.025C284.5,59.166,284.493,59.148,284.493,59.132Zm-5.722-1.084c-.006-.014-.006-.035-.015-.041s-.042-.018-.055-.01c-.046.027-.039.056.017.069C278.733,58.071,278.753,58.055,278.771,58.048Zm6.348.989c-.006-.014-.007-.036-.018-.042a.067.067,0,0,0-.056-.006c-.043.028-.034.057.022.069C285.083,59.061,285.1,59.045,285.119,59.037Zm-17.248-.874a.523.523,0,0,0-.084-.042c-.008,0-.027.02-.039.031a.619.619,0,0,0,.085.045C267.841,58.2,267.859,58.176,267.871,58.163Zm.888-1.612a.224.224,0,0,0,.056.015c.008,0,.015-.021.024-.032a.16.16,0,0,0-.055-.015C268.776,56.519,268.768,56.54,268.759,56.551ZM233.5,65.868a.747.747,0,0,0,.1.043c.007,0,.035-.036.032-.041-.017-.025-.042-.064-.062-.063S233.526,65.845,233.5,65.868Zm35.966-9.451a.506.506,0,0,0,.094.042c.01,0,.027-.022.041-.035-.013-.014-.027-.041-.036-.039A.617.617,0,0,0,269.468,56.417Zm-2.716,9.062c.013.014.027.042.036.041a.571.571,0,0,0,.1-.034c-.013-.014-.028-.043-.039-.042A.55.55,0,0,0,266.753,65.479Zm-21.9.011-.011-.031a.206.206,0,0,0-.049.007l.011.029A.2.2,0,0,0,244.853,65.49Zm18.079-5.274-.042-.09c-.014.014-.042.031-.039.041a.493.493,0,0,0,.042.092ZM246.95,65.262l.048-.027c-.014-.011-.032-.036-.039-.032a.282.282,0,0,0-.059.042Zm26.115-9.436-.011.046.043-.032Zm2.191-.048-.056.017.053.02Zm-33.975,9.17.031-.011a.175.175,0,0,0-.007-.046l-.029.011A.174.174,0,0,0,241.281,64.949Zm35.109-9.155-.046-.014.031.045Zm-31.325,9.029-.048.028.029.041.066-.049Zm1.832.025c0,.013,0,.031.013.035a.138.138,0,0,0,.049.007l-.014-.057Zm-7.4.159.048-.017c-.014-.008-.027-.024-.039-.025a.12.12,0,0,0-.046.015Zm26.784-4.5c0-.02.007-.043,0-.056-.028-.045-.056-.038-.069.02a.062.062,0,0,0,.022.048C266.238,60.522,266.259,60.508,266.277,60.5ZM221.792,50.19l.021-.073-.029.01A.432.432,0,0,0,221.792,50.19Zm25.5,14.988-.045-.094c-.015.014-.046.031-.043.038a.472.472,0,0,0,.046.1Zm-31.477-9.13-.045-.024-.008.034Zm18.128,9.194-.071-.018.008.029A.37.37,0,0,0,233.946,65.243Zm-24.093-16.51-.011-.025a.248.248,0,0,0-.045.007l.013.025A.156.156,0,0,0,209.853,48.733ZM269.1,56.822l-.024.046.034.008Zm3.942-.263c0-.014,0-.032-.01-.038a.125.125,0,0,0-.048-.011l.014.066Zm-1.456-.008c-.011-.014-.027-.043-.035-.042a.577.577,0,0,0-.1.035c.013.014.028.043.038.042A.551.551,0,0,0,271.591,56.551Zm-4.627,3.35-.069-.018.008.029A.23.23,0,0,0,266.964,59.9ZM228.52,49.2a.3.3,0,0,0,.013-.057l-.036-.017a.21.21,0,0,0-.011.056C228.485,49.19,228.508,49.2,228.52,49.2ZM261.9,60.61l-.024.035.039,0Zm10.424-1.542.042-.034c-.011-.013-.022-.036-.036-.038s-.028.02-.042.031Zm-4.958-.315-.022.034.036.006Zm5.55.022.036.021,0-.035Zm7.851.034.025-.041-.042,0Zm-11.876.1c-.013-.014-.031-.041-.038-.038-.056.018-.057.048,0,.073C268.853,58.945,268.874,58.92,268.888,58.907Zm-4,2.45-.022.034.035.006Zm-3.978-1.363-.021.031.035,0Zm2.862,1-.022.029.035.006Zm-1.9.018.031.021.006-.034Zm3.5,7.473.024-.031-.038-.006Zm-15.608-.018-.034-.024-.006.038Zm16.985-2.142-.024.035.039.006Zm-28.552-.257-.041.032.076.006Zm20.268,3.025-.034-.042c-.014.011-.038.022-.039.035s.02.027.032.041Zm5.92-.234.021-.029-.035,0Zm14.937-6.1c-.013-.014-.031-.042-.039-.039-.059.02-.06.05,0,.076C279.283,62.8,279.3,62.768,279.318,62.755Zm-22.88-.152-.018.028.028.006Zm4.447-.1.028.02.006-.031Zm16.534.977-.02.029.029.006Zm1.236-1.07.025-.039-.042-.006Zm-22.462-.133.021-.028-.032,0Zm-13.659,2.812-.02.027.032,0Zm24.951.252-.022.029.036.006ZM239.311,65.2l-.024.038.038,0Zm14.867-1.34.035.024,0-.038Zm20.379.779.021-.032-.034,0Zm1.368-.544-.021.029.034.006ZM228.634,48.438c-.014.011-.041.028-.039.034.018.053.048.056.073.006C228.67,48.472,228.646,48.451,228.634,48.438Zm-1.321.649h-.084c.011.014.022.036.035.038S227.29,49.1,227.312,49.087Zm-17.3,1.958c-.013.011-.036.024-.036.035s.02.028.032.042c.013-.013.036-.024.036-.036S210.028,51.058,210.015,51.044Zm-2.834-3.8-.036-.024-.006.036Zm68.38,8.658-.022.031.034,0Zm4.208-.078.021-.028-.032-.006Zm-4.586-.3c-.011.01-.039.027-.036.032.02.053.049.055.076,0Zm-55.57-.59c-.013-.014-.027-.039-.041-.039s-.029.022-.043.036c.013.014.027.039.041.039S219.6,54.941,219.612,54.927Zm53.092-.15-.027.041.045.006Zm.99.619-.022.038.036,0Zm-3.125.027.031.021,0-.031Zm-52.109-.14-.021.027.031.006Zm57.472-.144c-.013.011-.038.025-.035.032.015.053.042.055.066.006C275.966,55.172,275.942,55.153,275.931,55.14Zm1.983-.113-.021.032.035,0Zm-3.845,2.736-.024.036.036.006Zm-1.389.737c-.007.013-.022.028-.02.036a.153.153,0,0,0,.035.039l.022-.073Zm-2.116-1.833.029.021,0-.034Zm.52-.1.021-.031-.035,0Zm7.445,1,.027-.036-.045,0Zm-.6-.152-.028-.021-.006.035ZM221.56,54.456l.021-.031-.035,0Zm-3.257-.77.031.018,0-.028Z" transform="translate(-203.127 -40.841)"/><path class="a" d="M225.58,63.24a1.251,1.251,0,0,1,.721-.117,3.772,3.772,0,0,0,1.681-.271.485.485,0,0,1,.415-.018c.131.056.28-.088.415.017l.036.032-.052-.015c.122-.136.3-.1.45-.151s.3-.112.447-.158c.029-.01.073.027.11.042l.024.036-.039-.02c.052-.062.109-.18.154-.176.227.024.417-.108.628-.12.329-.02.657-.006.986-.027a2.138,2.138,0,0,0,.545-.1,6.433,6.433,0,0,1,1.214-.231,1.081,1.081,0,0,1,.3.035c.038.006.1.043.109.029.245-.228.55-.152.828-.143a1.212,1.212,0,0,0,.949-.362c.07-.07.162-.176.239-.173.227.011.361-.189.566-.2a1.02,1.02,0,0,1,.183.014c.078.008.171.053.232.025.3-.13.631-.168.93-.327.337-.18.708-.3,1.032-.513a.481.481,0,0,1,.232-.076,6.519,6.519,0,0,0,1.4-.484.49.49,0,0,0,.208-.13,2.025,2.025,0,0,1,.632-.379c.622-.274,1.212-.608,1.8-.94.126-.07.263-.116.394-.176.147-.069.291-.2.436-.2.21,0,.185-.2.3-.26.09-.048.161-.129.249-.18.337-.2.678-.393,1.017-.59.124-.071.249-.144.368-.222.222-.148.447-.294.659-.456a11.236,11.236,0,0,1,1.713-.99,2.5,2.5,0,0,0,.73-.566,1.6,1.6,0,0,1,.273-.25c.236-.165.473-.331.722-.477.231-.134.351-.415.639-.47.123-.158.324-.164.488-.235a2.4,2.4,0,0,0,.815-.544.924.924,0,0,1,.343-.252,2.231,2.231,0,0,0,.7-.488c.151-.14.3-.28.463-.41a.672.672,0,0,1,.26-.147.912.912,0,0,0,.378-.2,5.049,5.049,0,0,1,1.225-.716,1.083,1.083,0,0,0,.383-.2c.4-.425.952-.647,1.373-1.049a8.411,8.411,0,0,1,.889-.666c.3-.217.6-.436.908-.643.169-.115.357-.2.534-.308a2.085,2.085,0,0,1,.474-.26,2.875,2.875,0,0,0,.817-.429,2.694,2.694,0,0,1,.555-.242,2.014,2.014,0,0,0,.825-.4c.273,0,.425-.309.713-.278a.133.133,0,0,0,.106-.042c.246-.368.674-.46,1.026-.656.482-.27,1.011-.459,1.509-.7a1.831,1.831,0,0,1,.463-.151,2.6,2.6,0,0,0,1.161-.379,1.161,1.161,0,0,1,.337-.12,2.246,2.246,0,0,1,.579-.185c.243-.007.317-.249.531-.287.3-.055.593-.147.892-.224-.006-.141.1-.194.228-.231.154-.046.331.062.474-.077.119-.115.319,0,.439-.161.045-.063.192-.049.292-.073.26-.064.52-.129.779-.2a1.137,1.137,0,0,1,.541-.092.2.2,0,0,0,.122-.007c.509-.259,1.1-.152,1.618-.354.19-.073.4.015.6-.067a3.414,3.414,0,0,1,.605-.122c.2-.041.4-.088.6-.133a.619.619,0,0,1,.474.1l.056.036c.034.01-.02,0-.073-.018.042-.041.077-.106.124-.117a1.125,1.125,0,0,1,.306-.015c.158.008.323.076.452-.081a7.994,7.994,0,0,1,1.2-.225,6.831,6.831,0,0,0,.9-.136,1.562,1.562,0,0,1,.485-.049,4.659,4.659,0,0,0,1.387,0,.237.237,0,0,1,.26.122c-.027.015-.119-.024-.057.069l.041-.087a1.028,1.028,0,0,1,.347-.087,12.948,12.948,0,0,1,1.5.254,9.945,9.945,0,0,1,1.7.457c.073.032.143.07.2.1.022.157-.085.123-.152.143l.017.015a.189.189,0,0,0-.211-.085c-.488.074-.979.129-1.46.229-.221.046-.443-.05-.66.067a3.782,3.782,0,0,1-.628.254,4.648,4.648,0,0,1-1.074.287,1.075,1.075,0,0,0-.357.087,2.138,2.138,0,0,1-.843.161l-.006-.141a.27.27,0,0,0,.046-.02.166.166,0,0,0,.021-.024l-.049.062-.042.034a.494.494,0,0,0,.048.073c-.007.275-.229.228-.394.264a.37.37,0,0,0-.006-.119c-.011-.024-.055-.038-.087-.048-.01,0-.042.027-.042.038,0,.031.011.076.032.088a.36.36,0,0,0,.119.025c-.053.2-.27.169-.383.274a.49.49,0,0,1-.445.138c-.143.183-.386-.158-.481.07s-.278.2-.438.266c-.3.124-.6.261-.906.382-.115.046-.189-.022-.217-.138.154-.084.154-.085.006-.231l-.024-.042.039.025,0,.263c-.2.21-.481.312-.681.5a2.134,2.134,0,0,1-.682.4,1.444,1.444,0,0,0-.211.129c-.292.187-.582.38-.878.559a5.955,5.955,0,0,1-.86.477c-.419.165-.791.418-1.2.6l-.073-.145c-.187-.021-.185.193-.323.263a.885.885,0,0,0-.136-.076.445.445,0,0,0-.173-.034c-.032,0-.092.049-.088.067a.752.752,0,0,0,.094.187,1.245,1.245,0,0,1-.621.691,3.325,3.325,0,0,0-.368.227,1.751,1.751,0,0,0-.31.2c-.179.178-.471.087-.643.327a1.827,1.827,0,0,1-.579.453c-.189.112-.343.3-.582.315-.02,0-.056,0-.059.008-.151.382-.545.484-.822.719-.211.028-.326-.123-.453-.247-.032.024-.085.042-.1.073-.059.19-.109.383-.166.589l-.162.039c-.017-.027-.039-.06.015-.015a.205.205,0,0,1-.018.059c-.022.034-.043.081-.076.094-.352.136-.575.464-.924.608a6.5,6.5,0,0,0-.706.382c-.413.231-.782.529-1.212.734a8.463,8.463,0,0,0-.825.543c-.47.3-.945.58-1.418.871-.157.1-.312.2-.47.292a.789.789,0,0,1-.271.133.94.94,0,0,0-.537.291,5.5,5.5,0,0,1-.6.394,2.685,2.685,0,0,1-.668.31,1.53,1.53,0,0,0-.22.109c-.4.247-.8.5-1.2.745a.533.533,0,0,1-.182.031.218.218,0,0,0-.014-.052c-.006-.008-.025-.008-.038-.013l.064.053c-.074.069-.164.208-.22.2-.225-.05-.326.089-.466.214a3.1,3.1,0,0,1-1.222.544c-.073.022-.155-.006-.207.084a.868.868,0,0,1-.5.334c-.439.171-.868.369-1.3.558-.151.066-.3.137-.45.2a4.761,4.761,0,0,0-.794.336c-.241.159-.569.11-.8.319a.221.221,0,0,1-.176.021.268.268,0,0,0-.282.074.944.944,0,0,1-.478.267,1.441,1.441,0,0,0-.492.294,2.366,2.366,0,0,1-.509.194,14.008,14.008,0,0,1-1.342.452c-.252.076-.484.243-.769.186-.211.127-.436.229-.654.34a6.5,6.5,0,0,1-1.341.452,1.476,1.476,0,0,0-.235.073,24,24,0,0,1-2.766.866,5.635,5.635,0,0,1-1.031.194,4.633,4.633,0,0,0-1.5.344,2.685,2.685,0,0,1-1.032.168,3.7,3.7,0,0,0-.791.119,1.656,1.656,0,0,1-.731.082,1.162,1.162,0,0,0-.427.034,13.888,13.888,0,0,1-2.826.271c-.618.017-1.235.073-1.853.092-.537.017-1.074,0-1.611.007-.309,0-.619.008-.928.006a2.188,2.188,0,0,1-.912-.11,1.187,1.187,0,0,0-.61-.032,5.329,5.329,0,0,1-1.991-.3c-.015-.007-.022-.035-.032-.052Zm35-9.931-.039-.043.053.029c.018.029,0,.129.078.046Zm11.8-7.2-.035-.038.052.021c.017.032.028.077.055.092s.067-.006.1-.01c-.018-.021-.034-.053-.056-.06A.4.4,0,0,0,272.378,46.11Zm4.84-2.5c.088-.025.2,0,.242-.117l.041-.036-.025.052a.257.257,0,0,0-.242.119l-.133.127a.192.192,0,0,0-.113.234.071.071,0,0,0,.036.039c.01.006.039-.006.039-.011.01-.091.017-.183.024-.275ZM257.979,53.928a.484.484,0,0,0-.018-.048c-.006-.007-.022-.007-.034-.01l.066.043c.1.126.1.126.235,0,.221-.02.228-.027.241-.246.007,0,.07-.052.014.014a.226.226,0,0,0-.243.246Zm.256.726c.017.029.041.062-.017.017a.385.385,0,0,0-.088-.084c-.014-.008-.049.021-.074.034a.275.275,0,0,0,.056.022C258.152,54.648,258.194,54.649,258.235,54.653Zm-3.485,2.383c-.013-.024-.039-.062.017-.017.049.06.1.126.18.043.01-.01,0-.035.006-.053-.05,0-.1,0-.148.008A.413.413,0,0,0,254.75,57.036Zm21.477-13.287a.37.37,0,0,0-.07-.082c-.015-.008-.05.018-.077.029a.2.2,0,0,0,.049.025,1.044,1.044,0,0,0,.112.011,1.885,1.885,0,0,0,.2.213c.014.011.089-.043.129-.077.007-.006-.025-.084-.046-.088C276.422,43.762,276.324,43.759,276.226,43.749ZM260.354,53l.544.081c.045-.145-.038-.217-.138-.211A1.915,1.915,0,0,0,260.354,53Zm15.337-9.142c-.1.1-.13.218-.036.278s.221.02.281-.144Zm-13.681,8a.833.833,0,0,0,.186-.106.311.311,0,0,0,.063-.151.144.144,0,0,0-.1-.049c-.052.01-.129.034-.144.071A.7.7,0,0,0,262.01,51.867Zm-9.128,5.567a1.361,1.361,0,0,0-.186-.12.117.117,0,0,0-.1.022c-.042.048.032.238.1.239.049,0,.1-.042.147-.07C252.852,57.495,252.859,57.472,252.882,57.433ZM272.19,44.619a1.075,1.075,0,0,0-.141.192c-.006.014.077.091.126.1.089.018.18-.067.152-.134C272.307,44.725,272.253,44.688,272.19,44.619Zm-.994,2.1c-.162-.1-.219-.145-.282-.18s-.136,0-.123.05c.008.035.034.084.06.091A2.673,2.673,0,0,0,271.2,46.715Zm-5.948,2.716c-.031-.013-.069-.043-.089-.034s-.034.056-.049.087c.031.013.07.045.091.035S265.232,49.461,265.247,49.431Zm17.5-7.366c-.014-.011-.032-.035-.043-.032a.208.208,0,0,0-.1.042.48.48,0,0,0-.071.136s.034.031.043.028a.55.55,0,0,0,.15-.073C282.738,42.147,282.736,42.1,282.743,42.064Zm-23.7,11.019-.124-.1c-.011.015-.031.031-.035.049a.088.088,0,0,0,.1.11C259,53.138,259.015,53.114,259.041,53.083Zm6.836-3.859-.038-.1-.081.045c.008.017.015.042.028.046A.467.467,0,0,0,265.878,49.224Zm-4.633,2.486a.57.57,0,0,0-.035-.046.555.555,0,0,0-.046-.034c-.008.034-.031.074-.018.1s.06.02.092.028Zm7.119-3.11-.024-.043c-.031.013-.062.028-.091.043l.043.066Zm5.814-4.09c.02-.032.053-.064.052-.1s-.032-.07-.052-.1c-.02.034-.056.067-.055.1S274.158,44.477,274.178,44.51Zm-13.853,9.413c-.041-.031-.08-.064-.123-.091-.006,0-.031.022-.046.035l.117.123Zm-3.855,2.244a1.453,1.453,0,0,0-.074.131c0,.008.02.029.029.045l.12-.091Zm24.818-13.912c-.014-.034-.02-.087-.042-.1s-.071.015-.109.024c.017.032.027.077.052.091S281.255,42.264,281.288,42.256Zm-2.376.716c-.032-.036-.05-.071-.077-.081-.071-.025-.1.025-.1.085,0,.029.034.059.052.088Zm-15.844,8.307c.01-.028.035-.066.025-.082s-.055-.035-.084-.05c-.011.031-.039.07-.029.092S263.038,51.267,263.068,51.279Zm5.809-3.052c-.017-.032-.027-.078-.052-.088s-.066.011-.1.018c.038.036.074.071.113.106Zm.4.084a1.4,1.4,0,0,0-.144-.073c-.011,0-.034.02-.05.031l.1.127Zm-10.3,5.548c-.028-.057-.038-.112-.063-.12a.117.117,0,0,0-.1.046c-.014.018.006.091.011.091A.874.874,0,0,0,258.977,53.859Zm5.27-2.82a.181.181,0,0,0-.011.043l.027.015a.114.114,0,0,0,.01-.042C264.272,51.05,264.256,51.044,264.247,51.039Zm-.454.6-.038-.041a.726.726,0,0,0-.042.088c0,.008.022.024.035.036Zm-.889.074c0-.017.014-.036.008-.05-.018-.048-.042-.043-.056.01a.068.068,0,0,0,.014.046Zm-3.524.05-.013-.038a.187.187,0,0,0-.055.01l.014.039A.258.258,0,0,0,259.38,51.766Zm-2.107,3.252.043-.038a.611.611,0,0,0-.094-.041c-.011,0-.028.022-.043.034Zm2.124-.64c-.006.015-.017.031-.014.045.01.055.032.057.055.007a.058.058,0,0,0-.007-.045C259.427,54.378,259.408,54.381,259.4,54.378Zm-1.59-.122a.541.541,0,0,0,.042-.1c0-.01-.024-.028-.038-.041-.024.022-.063.043-.066.069S257.784,54.232,257.807,54.256Zm.81-1.618V52.6l-.055.014Zm1.432.215c0,.011,0,.029.011.034a.138.138,0,0,0,.049.007l-.015-.057Zm-8.131,4.958-.046.008.059.021ZM266.559,49l-.049.01.064.021Zm-3.728.053.048-.028c-.014-.013-.034-.038-.039-.035a.3.3,0,0,0-.059.046Zm3.687-.291.045.025.008-.038Zm-1.254.085-.017-.05-.02.048Zm8.569-4.23-.017-.043c-.008.011-.022.022-.024.035s.01.029.015.043Zm2.932-.312c-.013-.01-.025-.028-.039-.028a.122.122,0,0,0-.05.018c.014.011.028.028.043.029S276.749,44.31,276.765,44.3Zm-2.1.006c-.008-.014-.014-.035-.027-.039s-.036,0-.055,0l.035.063Zm.348-.284-.049.008.06.028Zm-6.775,3.029c-.013,0-.031,0-.035.013a.139.139,0,0,0-.01.049l.06-.014Zm-1.748,2.709-.01.1c.011-.015.031-.029.032-.045S266.5,49.78,266.489,49.762Zm-.9.137c0-.015,0-.036-.011-.042a.064.064,0,0,0-.055-.013c-.049.027-.045.056.013.071C265.549,49.92,265.569,49.9,265.587,49.9Zm-9.668,6.815a.59.59,0,0,0,.1.042c.008,0,.036-.025.035-.036s-.024-.042-.034-.041A.561.561,0,0,0,255.919,56.714Zm8.056-6.358-.052.01.061.029Zm-.38-.846a.158.158,0,0,0-.049-.013c-.006,0-.011.018-.018.028a.219.219,0,0,0,.048.013C263.582,49.538,263.587,49.52,263.594,49.51Zm1.878-.626.027.021.006-.031Zm-.7.628-.034-.024,0,.039Zm12.264-6.05.022-.032-.039,0Zm-1.987,1.182-.02.032.032,0Zm1.776-.584c-.011-.013-.027-.038-.032-.036-.052.017-.055.043-.006.067C276.793,44.092,276.812,44.07,276.825,44.058Zm-8.854,3.991.025-.038-.039-.006Zm-15.362,9.037-.028-.018,0,.029ZM262.927,52.5l-.039-.046c-.015.014-.042.027-.042.041s.022.031.036.046Z" transform="translate(-194.183 -41.259)"/><path class="a" d="M273.68,47.563a1.734,1.734,0,0,1-.015.308.343.343,0,0,1-.109.211c-.052.035-.15-.008-.225,0a.521.521,0,0,0-.148.073.659.659,0,0,0,.088.15c.024.027.076.029.113.042l.025.01c-.056.148-.116.3-.168.443s-.089.306-.154.452c-.017.038-.106.043-.164.064l-.034-.043.05.027a.418.418,0,0,1-.12.5.454.454,0,0,0-.217.4c.007.2-.231.3-.271.459-.049.2-.19.243-.329.329a.586.586,0,0,1,.085.162.179.179,0,0,1-.043.152c-.032.024-.1-.007-.186-.018-.07.138.063.322-.053.488a1.611,1.611,0,0,1-.289.393c-.032.027-.024.106-.031.162a1.726,1.726,0,0,1-.608,1.078.289.289,0,0,0-.131.369.293.293,0,0,1-.015.289c-.34.589-.656,1.191-1.022,1.762-.141.221-.277.447-.431.66a7.174,7.174,0,0,1-.5.628,1.465,1.465,0,0,1-.38.308,4.454,4.454,0,0,1-1.713.475c-.2.017-.41.032-.614.039a.818.818,0,0,1-.241-.032,7.229,7.229,0,0,1-.889-.259c-.28-.116-.624-.041-.856-.3-.017-.018-.137.085-.193.071a2.107,2.107,0,0,1-.94-.428c-.045-.159.1-.213.152-.315a.358.358,0,0,0-.1-.492c-.13-.1-.278-.165-.447-.264l-.256.513c-.039,0-.085.014-.113,0q-.407-.22-.807-.452a1.619,1.619,0,0,1-.256-.175c-.148-.129-.364-.232-.242-.5l-.214.164-.765-.7-.017.013a.625.625,0,0,0,.11-.032c.022-.011.036-.036.055-.056a.35.35,0,0,0-.052-.024c-.036-.013-.073-.022-.11-.032l.014.01c-.2-.145-.4-.282-.587-.439a.332.332,0,0,1-.134-.38.16.16,0,0,0-.046-.144c-.327-.18-.27-.522-.343-.805a.688.688,0,0,1,.008-.365c.042-.133-.017-.221-.05-.337a7.661,7.661,0,0,1-.207-.956.365.365,0,0,1,.069-.281c.094-.091.029-.1-.018-.161a.381.381,0,0,1-.053-.453,1.3,1.3,0,0,0,.155-.515,4.26,4.26,0,0,1,.463-1.447,1.907,1.907,0,0,1,1.237-1.176c.021.031.028.048-.014.015.236-.161.473-.324.712-.48a2.56,2.56,0,0,0,.323-.179,1.992,1.992,0,0,1,1.045-.488c.178-.027.129-.254.3-.3a2.417,2.417,0,0,0,.185.214.156.156,0,0,0,.222,0,.15.15,0,0,0,.018-.218l-.106-.166a1.408,1.408,0,0,1,.329-.182,7.121,7.121,0,0,1,1.712-.45l.025.1.059-.046-.1-.041c.049-.059.087-.143.148-.168.2-.085.4-.148.607-.22.022.029.039.069.069.085s.055-.018.082-.028a.161.161,0,0,0-.052-.025c-.038-.007-.077-.01-.115-.014.038-.067.061-.171.119-.2a4.941,4.941,0,0,0,.845-.362c.038-.027.12-.007.175.011a.2.2,0,0,0,.261-.084.261.261,0,0,1,.14-.11c.4-.078.761-.278,1.154-.385a1.809,1.809,0,0,0,.58-.173.408.408,0,0,1,.556.085.787.787,0,0,0,.155.1l-.014-.015c.049.089.1.077.147,0l-.013.014.3.029c.1-.147-.133-.189-.1-.315.025-.028.046-.071.076-.08.275-.069.541-.215.84-.094a.2.2,0,0,0,.169-.027.646.646,0,0,1,.53-.1,7.157,7.157,0,0,1,.966.131,5.173,5.173,0,0,0,.914.085c.12.011.238.035.333.049.145.227.144.407-.041.566a.184.184,0,0,0-.041.021c-.008,0-.011.017-.015.025l.041-.062a1.769,1.769,0,0,1,.2,1.414l-.232.154c.076.084.218.052.225.248a4.7,4.7,0,0,1-.127.955.165.165,0,0,1-.056.108c-.329.2-.238.461-.141.74a.209.209,0,0,1-.122.254.42.42,0,0,0,0-.119c-.007-.024-.042-.041-.064-.06,0,.034-.025.077-.011.1S273.648,47.542,273.68,47.563Zm-12.055,4.084.05-.022-.034.038C261.565,51.733,261.633,51.65,261.625,51.647Zm1.007.9-.046.025.029-.041.041-.035Zm3.229,3.971c-.084,0-.12.045-.123.124-.006-.006-.07.049-.017-.017l.124-.123a.413.413,0,0,0,.043-.021.124.124,0,0,0,.017-.027Zm3.974-8.69c-.02.008-.061.042-.017-.017l.1-.046-.043-.036Zm-.25-.622a.182.182,0,0,0-.056.013c-.008.006-.008.028-.013.042l.055-.069a.168.168,0,0,0,.046-.018c.007-.006.007-.021.011-.032Zm1.226-3.871c.008,0,.069-.048.018.017a.309.309,0,0,0-.049.022c-.008.006-.011.018-.017.029Zm-3.461,1.64-.043.035.027-.05.038-.029Zm3.591,3.719-.035-.035.05.018C270.968,48.7,270.989,48.729,270.94,48.693Zm-11.052.473a.187.187,0,0,0,.048-.014c.008,0,.013-.018.02-.027l-.052.056C259.828,49.248,259.888,49.175,259.888,49.165Zm.386.871.035.043-.05-.027c-.021-.031-.035-.071-.064-.087s-.063,0-.1.008c.021.02.038.052.063.059A.425.425,0,0,0,260.274,50.037ZM270.7,44.469a.387.387,0,0,0-.115,0c-.021.008-.031.049-.045.074.035,0,.08.025.1.01s.034-.063.049-.1a.217.217,0,0,0,.052-.014c.008-.006.008-.024.011-.036Zm.986-1.254c.036,0,.073-.007.109-.014a.162.162,0,0,0,.046-.024c-.017-.018-.031-.046-.053-.055a.543.543,0,0,0-.108-.021c-.159-.126-.187-.11-.228.126-.027.015-.057.036-.017-.017l.129,0C271.6,43.273,271.644,43.281,271.684,43.214Zm-6.7,14.024c.057,0,.115,0,.172,0,.015,0,.029-.025.043-.038-.025-.02-.064-.06-.074-.053a.9.9,0,0,0-.126.1l-.042.036Zm-5.835-5.211a.72.72,0,0,0,.084-.074.076.076,0,0,0,.015-.052c0-.015-.017-.029-.027-.043-.018.024-.045.045-.052.071a.438.438,0,0,0,0,.113.237.237,0,0,0-.048.011c-.008.006-.011.021-.017.031Zm.25.991c.034-.02.081-.031.1-.059s-.011-.069-.018-.1c-.024.018-.062.032-.067.056a.349.349,0,0,0,0,.12C259.382,53.05,259.351,53.071,259.395,53.018Zm-.238-2.585c-.032.02-.076.034-.092.063s.02.06.032.091c.011-.017.028-.032.031-.05a1.15,1.15,0,0,0,.014-.119.217.217,0,0,0,.053-.018c.008-.006.01-.024.014-.035Zm9.676-5.094a.492.492,0,0,0-.089-.074c-.015-.007-.045.018-.068.028a.425.425,0,0,0,.057.014l.116.015a.794.794,0,0,0,.074.155c.014.02.063.011.1.015-.006-.035,0-.088-.018-.1A.844.844,0,0,0,268.833,45.338Zm-8.688,7.2a.876.876,0,0,0-.147-.1c-.014-.006-.049.039-.076.062.024.025.05.076.068.073a.818.818,0,0,0,.166-.06c0,.059-.025.126,0,.171s.09.05.138.066c.011,0,.048-.024.045-.029a.2.2,0,0,0-.045-.1A1.1,1.1,0,0,0,260.146,52.534Zm5.586-7.457a.191.191,0,0,0,.022.041c.007.008.02.008.029.013l-.066-.038c-.052-.161-.152-.138-.3-.049ZM264,49.316c-.048.032-.1.062-.144.094a.1.1,0,0,0-.032.046c0,.01.014.038.017.038.032-.008.08-.011.091-.032a.878.878,0,0,0,.052-.162c.014-.007.029-.013.043-.021s.013-.017.02-.025Zm-2.376,5.712,0-.273a.369.369,0,0,0,.12-.014c.027-.014.059-.06.053-.084s-.049-.056-.077-.084c-.024.025-.059.045-.07.074a.434.434,0,0,0-.01.122c-.122.112-.122.112,0,.243.038.187.038.187.2.137.018-.006.035-.014.052-.021a2.654,2.654,0,0,0,.2.215c.015.014.081-.006.1-.029a.121.121,0,0,0,.028-.1.261.261,0,0,0-.22-.187c-.038-.122-.077-.091-.116,0Zm10.806-10.554-.036-.042.052.027a.58.58,0,0,0,.017.122c.021.056.056.108.131.076a.075.075,0,0,0,.042-.043c.028-.077-.022-.113-.082-.131A.446.446,0,0,0,272.427,44.474Zm-11.41,4.947a.183.183,0,0,0,.017.049c.006.008.022.008.035.013L261,49.435c-.042-.218-.087-.245-.235-.131-.022.015-.027.056-.052.117Zm2.977-.979c-.07.056-.112.123-.027.19.056.043.136.07.171-.038l-.161-.172a.407.407,0,0,0,.109,0c.025-.008.043-.039.063-.06-.014-.008-.027-.022-.042-.024a.063.063,0,0,0-.048.015A.81.81,0,0,0,263.994,48.443Zm8.061-4.364h.259l.022.05L272.3,44.1a1.042,1.042,0,0,0,0-.115c0-.069.013-.172-.089-.159-.049.007-.092.1-.127.161a.291.291,0,0,0-.013.112C272.031,44.123,272.019,44.126,272.055,44.078Zm-3.84.127a.368.368,0,0,0,.02.048c.006.007.02.01.029.015l-.066-.046.124-.25a1.64,1.64,0,0,0-.323-.01c-.039.007-.074.081-.092.133-.007.018.038.076.067.082A1.947,1.947,0,0,0,268.215,44.206Zm-3.24,4.242-.017-.336a.2.2,0,0,0,.035.32.647.647,0,0,1,.236.461c0,.055.085.124.148.154.031.015.11-.034.144-.074.077-.092.138-.2.207-.3l.357.308-.172.333c.245.127.34.14.385.014a.328.328,0,0,1,.418-.247,2.657,2.657,0,0,0,.608-.052c.162-.02.322-.062.485-.076a.453.453,0,0,0,.413-.222.41.41,0,0,1,.368-.185.158.158,0,0,0,.014.048c0,.008.021.01.032.014l-.06-.046.309-.52c.239-.041.253-.041.242-.222a.186.186,0,0,1,.1-.2,1.288,1.288,0,0,1,.234-.07.246.246,0,0,0,.011.046c.006.01.02.013.029.018l-.055-.05c-.1-.162-.273-.285-.227-.524a3.338,3.338,0,0,0,.034-.615.976.976,0,0,0-.06-.234c.029-.018.059-.038.017.015a.448.448,0,0,1-.259-.323.863.863,0,0,0-.6-.566c-.094-.036-.2-.041-.3-.071a.85.85,0,0,1-.278-.116c-.057-.046-.075-.141-.123-.236-.064.126-.063.266-.193.263A3.19,3.19,0,0,0,266,45.6a1.447,1.447,0,0,0-.842,1.331,1.946,1.946,0,0,0,.379,1.387,2.254,2.254,0,0,1,.21.373.417.417,0,0,1-.324-.131A.462.462,0,0,0,264.975,48.448Zm2.741,4.946a2.229,2.229,0,0,0,.2.123c.011.006.05-.043.075-.067-.014-.013-.029-.038-.045-.038-.081,0-.162,0-.245,0a.729.729,0,0,0-.308-.362c-.338.268-.34.28-.1.565Zm-7.5-4.953c.006-.1-.143-.213-.263-.2a.229.229,0,0,0-.166.229.243.243,0,0,0,.2.206C260.091,48.7,260.208,48.578,260.217,48.441Zm4.244-1.321c-.032-.069-.039-.115-.066-.137a.259.259,0,0,0-.329,0c-.071.062-.092.22-.018.267a.284.284,0,0,0,.217.045C264.345,47.264,264.4,47.176,264.461,47.12Zm-1.145-.889c.365.1.38.091.449-.183a1.1,1.1,0,0,0,0-.224c-.137.106-.241.183-.338.267A.912.912,0,0,0,263.315,46.23Zm-4.14,5.246a.347.347,0,0,0,.358-.032.145.145,0,0,0,.052-.206.173.173,0,0,0-.262-.041A1.658,1.658,0,0,0,259.175,51.477Zm9.327-6.7a.211.211,0,0,0-.31.048.067.067,0,0,0-.017.055.071.071,0,0,0,.042.041A.226.226,0,0,0,268.5,44.775Zm-9.307,4.86c.282.035.415.069.534-.038a.063.063,0,0,0,.013-.056c0-.017-.025-.045-.034-.043C259.583,49.529,259.46,49.563,259.195,49.635Zm3.248-.515a.775.775,0,0,0,.014-.192c0-.024-.055-.039-.085-.059-.027.042-.083.094-.073.123S262.374,49.065,262.443,49.121Zm6.682,3.341a.864.864,0,0,0-.01.207c0,.027.056.045.085.066.022-.043.07-.1.06-.131S269.191,52.526,269.125,52.461Zm-.733.25c-.055-.017-.1-.042-.126-.034a.422.422,0,0,0-.134.078c-.007,0,0,.038.007.052.039.067.1.053.147.018A.857.857,0,0,0,268.393,52.712Zm2.781-.31c-.035.046-.081.094-.076.1a.9.9,0,0,0,.122.109c.022-.031.071-.076.063-.09A.669.669,0,0,0,271.174,52.4Zm.254-1.653.113-.189c-.028-.015-.073-.049-.08-.043a.454.454,0,0,0-.1.126C271.354,50.657,271.392,50.694,271.428,50.748Zm-10.09-1.856c-.064-.045-.108-.1-.148-.1s-.087.056-.13.087c.039.039.076.1.119.108S261.268,48.939,261.338,48.893Zm.485,3.2c.015.01.029.027.046.029.1.017.14-.049.175-.122,0-.008-.017-.042-.022-.041a.52.52,0,0,0-.155.042C261.843,52.018,261.837,52.064,261.823,52.1Zm3.015,4.83c-.052-.038-.1-.073-.144-.1l-.039.042c.039.035.075.073.117.1Zm7.782-7.468.006-.059c-.031-.011-.064-.017-.1-.025,0,.017-.006.043,0,.049A.55.55,0,0,0,272.62,49.458Zm-6.2,6.807-.021-.053a.883.883,0,0,0-.085.076l.024.043Zm-.545-2.9a.975.975,0,0,0-.066.084s.024.031.039.032c.057.008.108-.071.068-.106C265.907,53.365,265.888,53.366,265.874,53.363Zm-1.8,0a.5.5,0,0,0-.049.085c0,.008.029.043.038.041a.641.641,0,0,0,.092-.048Zm5.656-9.086c.123.024.175.035.227.041.013,0,.028-.02.043-.031-.021-.02-.041-.057-.06-.056A1.144,1.144,0,0,0,269.728,44.278Zm-2.1.186-.113.064c.021.032.036.074.064.089s.064-.01.1-.015Zm-.716.241c-.031-.043-.049-.094-.069-.094a.115.115,0,0,0-.091.052c-.011.029.014.071.024.108ZM265.3,53.123c-.018.031-.05.06-.052.091a.3.3,0,0,0,.043.1c.02-.032.055-.062.055-.094S265.319,53.156,265.3,53.123Zm-4.07.653c-.031-.011-.07-.039-.088-.029s-.034.056-.049.087c.032.013.07.042.094.032S261.218,53.808,261.232,53.776Zm-.863.077.1-.048-.042-.077a1.063,1.063,0,0,0-.078.081Zm-.845-3.817c-.043-.027-.085-.056-.131-.078-.008,0-.046.021-.045.025a.838.838,0,0,0,.057.137c.007.013.046.025.05.02A.938.938,0,0,0,259.525,50.035Zm9.953-6.506-.109.119.043.036a1.1,1.1,0,0,0,.115-.1Zm-8.057,10.8-.124.12.048.034a1.021,1.021,0,0,0,.122-.1Zm1.752-7.449c.025-.053.059-.091.052-.119a.115.115,0,0,0-.091-.048c-.029,0-.056.038-.084.059Zm10.725-.675c-.013-.032-.015-.081-.038-.091s-.063.015-.1.025c.014.032.022.073.046.089S273.868,46.216,273.9,46.207Zm-14.787,4.9c-.013-.017-.027-.049-.035-.046a.7.7,0,0,0-.108.036c.013.015.028.046.038.045A.577.577,0,0,0,259.111,51.106Zm1.849-.261c0,.013,0,.034.013.036a.129.129,0,0,0,.052.007l-.017-.06Zm7.81,2.376c-.01-.013-.017-.031-.028-.034a.118.118,0,0,0-.049.006.22.22,0,0,0,.036.05Zm-3.791-.175-.085.045c.013.014.029.043.036.041a.674.674,0,0,0,.089-.046Zm-.659.127-.046-.036.011.046Zm-4.175.954.041-.034a.514.514,0,0,0-.084-.041c-.008,0-.025.02-.038.031Zm2.332-1.953-.022-.05c-.011.015-.031.028-.032.043s.014.034.021.05Zm3.426-.934c-.008-.011-.015-.028-.027-.032a.132.132,0,0,0-.046,0,.2.2,0,0,0,.035.05Zm-5.555,3.416-.014-.05-.039.014a.167.167,0,0,0,.013.05ZM273.5,47.1a.153.153,0,0,0,.013-.055c0-.007-.021-.014-.032-.02a.2.2,0,0,0-.014.053C273.464,47.089,273.485,47.1,273.5,47.1Zm-12.319,1.284c0-.011,0-.029-.011-.034a.152.152,0,0,0-.05-.008l.014.057Zm4.062-.168c-.014.008-.032.013-.041.024s.013.025.018.038l.066-.041Zm-1.576,8.608c-.006.015-.017.032-.014.046.01.06.032.063.056.008a.071.071,0,0,0-.008-.049C263.7,56.827,263.676,56.828,263.665,56.827Zm6.868-13.117-.024-.045c-.011.013-.034.029-.031.035a.222.222,0,0,0,.041.055Zm-5.713,2.629-.013-.052-.025.066Zm5-.182.056-.015-.053-.02Zm-3.545-1.064h.031l-.011-.052ZM261.6,49.416l-.028-.046-.038.029a.723.723,0,0,0,.045.069Zm6.389-.046c-.007-.014-.01-.036-.021-.041a.139.139,0,0,0-.053,0l.029.064Zm-3.283.129a.21.21,0,0,0,.049.013c.006,0,.013-.02.018-.029a.218.218,0,0,0-.048-.013C264.722,49.469,264.715,49.487,264.71,49.5Zm-3.115.294-.025-.045c-.011.013-.035.029-.032.035a.322.322,0,0,0,.042.056Zm2.567,6.513c-.014,0-.031-.015-.043-.014-.056.01-.059.031-.008.053a.062.062,0,0,0,.046-.008C264.161,56.333,264.16,56.316,264.161,56.305Zm7.12-7.554.048.013-.029-.043Zm1.577-.017c-.014-.006-.029-.017-.042-.014-.054.008-.059.031-.008.053a.065.065,0,0,0,.045-.006C272.859,48.764,272.858,48.746,272.859,48.735Zm-8.583.506.028.02.006-.032Zm6.73-.849.02-.029-.031,0Zm-11.3.5.024-.034-.039-.006Zm4.136,1.842c-.011-.013-.02-.032-.031-.034s-.024.017-.036.027c.01.011.018.032.029.032S263.831,50.747,263.844,50.737Zm-.063.359.034.022.006-.034Zm-3.237.007.034.02,0-.032Zm7.359-6.727-.018.028.029,0Zm2.107.168.02-.029L270,44.509Zm2.728-1.114.024-.032-.036-.006ZM272,43.383l-.021.032.034.006Zm-7.224,3.745.035.022,0-.035Zm6.231.9.021-.031-.035,0Zm-1.591-.02-.034-.022,0,.034Zm.817-.131.029.018,0-.029Zm-6.208-2.109.036.024,0-.041Zm6.361,1.214-.02.028.029,0Zm-11.419,4.465-.022.035.038,0Zm4.572,2.011.028.02.006-.029Zm-3.725-.25.032.021.006-.031Z" transform="translate(-181.076 -40.615)"/><path class="a" d="M249.471,48.718c-.213.076-.375.277-.629.246l.015.017c-.036-.074-.085-.126-.172-.077s-.063.1.041.21l-.017-.015c-.084.211-.294.277-.457.4-.131.1-.31.1-.425.241-.032.041-.147.015-.224.014-.145,0-.145,0-.161.261a2.561,2.561,0,0,0-.921.663.756.756,0,0,1-.154.1c-.1.076-.3-.029-.338.189-.031.165-.235.123-.333.228a3.118,3.118,0,0,1-.329.275l-.038-.038.053.022c-.056.06-.1.144-.166.179a6.8,6.8,0,0,0-1.212.947.164.164,0,0,0-.021-.048c-.007-.008-.025-.006-.039-.008l.064.052a2.509,2.509,0,0,0-.368.119c-.1.05-.186.144-.288.2a.8.8,0,0,1-.221.048l.014.013c-.024-.029-.042-.069-.073-.087a.17.17,0,0,0-.1-.017.319.319,0,0,0-.028.151c0,.031.048.057.074.085L243,53.071c-.144.143-.28.294-.431.425-.233.2-.47.4-.717.586-.55.4-1.113.789-1.658,1.2a6.111,6.111,0,0,1-1.162.7,3.085,3.085,0,0,0-.87.569,2.189,2.189,0,0,1-.582.347,2.942,2.942,0,0,1-.909.382l.017.015c.345-.408.7-.81,1.033-1.226.4-.495.78-1,1.168-1.509.05-.064.073-.159.134-.2a10.737,10.737,0,0,0,1.212-1.382.329.329,0,0,1,.05-.036.118.118,0,0,0,.013.045c0,.008.018.011.028.017l-.056-.046.508-.508c.022.029.039.066.069.083s.05-.017.077-.027a.191.191,0,0,0-.048-.029c-.036-.007-.074-.007-.11-.011a.989.989,0,0,1,.34-.642,1.687,1.687,0,0,0,.359-.638c.07-.172.143-.343.207-.5.112-.06.268.007.281-.187a1.21,1.21,0,0,1,.239-.547A7.042,7.042,0,0,1,243,48.714c.025-.027.055-.07.049-.1-.045-.259.137-.421.252-.611a10.438,10.438,0,0,0,1.1-2.275c.143-.467.246-.948.369-1.423.06-.236.039-.492.078-.737a.9.9,0,0,1,1.384-.67c.052.027.123.087.155.071.246-.117.394.045.547.179a2.15,2.15,0,0,0,.86.575.135.135,0,0,1,.055.028,7.216,7.216,0,0,0,.748.629,8.035,8.035,0,0,1,.776.5,6.132,6.132,0,0,0,1.012.786.648.648,0,0,1,.187.157c.284.323.565.652.863,1a6.927,6.927,0,0,1-.537.594c-.288.259-.6.487-.906.731a1.72,1.72,0,0,0-.537.589Zm-1.731-2.086c-.014,0-.06.045-.018-.015.07-.039.1-.08,0-.119a.752.752,0,0,0-.055-.161c-.013-.022-.062-.024-.092-.034.006.029,0,.069.021.085a1.089,1.089,0,0,0,.143.094ZM246,47.251c-.011,0-.062.042-.017-.017l.087-.043-.038-.028Zm1.984.993-.144,0a1.134,1.134,0,0,0-.01-.12.17.17,0,0,0-.028-.052c-.014.029-.046.069-.036.085s.057.048.088.069c.036.053.073.067.112,0a.452.452,0,0,0,.046-.018c.008-.006.011-.02.017-.029ZM246,49.337c.034.045.022.043-.017.017l-.115-.117c-.01-.02-.05-.07.015-.015Zm-.629,1.614a.517.517,0,0,0,.1-.133c.021-.057-.056-.115-.112-.087-.027.013-.063.059-.057.078a.889.889,0,0,0,.081.158C245.362,50.977,245.318,51.011,245.366,50.951Zm3.359-3.721a1.059,1.059,0,0,0,.064.091.068.068,0,0,0,.05.015.134.134,0,0,0,.045-.022c-.022-.02-.041-.048-.064-.056a.423.423,0,0,0-.112-.007c-.2-.189-.324-.187-.4.007a.12.12,0,0,0,.021.1c.02.024.08.048.1.036C248.519,47.329,248.588,47.22,248.725,47.23Zm-2.377,1.955a.249.249,0,0,0,.263-.137.216.216,0,0,0-.039-.274.133.133,0,0,0-.1-.035.287.287,0,0,0-.211.317C246.265,49.105,246.32,49.147,246.347,49.185Zm.822.7c0-.018.015-.042.008-.053a.433.433,0,0,0-.348-.185c-.013,0-.034.021-.043.038a.071.071,0,0,0-.008.055.425.425,0,0,0,.348.183C247.139,49.926,247.154,49.9,247.17,49.887Zm-1.421-.963c-.055-.063-.1-.141-.122-.136a.415.415,0,0,0-.189.109c-.038.042.063.186.116.165A1.106,1.106,0,0,0,245.749,48.923Zm-.152.543-.136.179c.036.017.073.049.106.046.109-.006.175-.071.147-.14C245.7,49.522,245.655,49.506,245.6,49.466Zm-1.411,1.629c-.022.13-.034.186-.039.242,0,.015.018.032.029.049.017-.024.049-.046.049-.07A1.685,1.685,0,0,0,244.186,51.095Zm4.584-3.4-.028-.045a.894.894,0,0,0-.1.038l.048.087Zm1.007-1.281a.389.389,0,0,0,.082-.056c.006-.007-.02-.041-.029-.063a.581.581,0,0,0-.071.073C249.752,46.378,249.77,46.4,249.776,46.418Zm-3.065.975-.032-.083c-.013.011-.038.025-.036.034a.513.513,0,0,0,.032.088Zm.3,1c-.017,0-.038-.018-.053-.014-.063.017-.066.046-.007.073a.07.07,0,0,0,.055-.015C247.016,48.433,247.012,48.41,247.013,48.395Zm.15-2.324c-.006.014-.018.031-.015.045.011.056.034.06.059.008a.061.061,0,0,0-.007-.046C247.195,46.071,247.175,46.072,247.163,46.071Zm-1.425,2.52.094-.05c-.029-.02-.059-.052-.09-.053s-.06.029-.091.046Zm3.289-.4.022-.031-.036-.006Zm-4.174,1.716c-.013-.013-.024-.035-.036-.036s-.027.02-.041.029c.011.014.022.036.035.036S244.839,49.922,244.853,49.911Zm.868-1.986c-.013-.014-.024-.038-.035-.039s-.028.021-.042.032c.013.014.024.038.036.039S245.707,47.936,245.721,47.925Zm2.345-.741-.035-.025-.006.041Z" transform="translate(-189.764 -40.659)"/><path class="a" d="M235.081,50.834a11.826,11.826,0,0,1,1.079.673c.327.252.675.471.994.73.271.218.571.4.831.624a5.572,5.572,0,0,1,.931.885,1.416,1.416,0,0,0,.731.635.308.308,0,0,1,.137.119c.249.319.495.642.751.977a3.653,3.653,0,0,1-1.11.591c-.336.152-.682.284-1.024.425-.038.015-.081.049-.113.041-.3-.074-.524.162-.8.213a5.1,5.1,0,0,0-.87.3c-.27.1-.534.213-.8.313a.4.4,0,0,1-.235.049c-.138-.046-.217.031-.326.082a.35.35,0,0,1-.512-.183.5.5,0,0,1-.094-.347.641.641,0,0,0-.123-.463c-.234-.386-.421-.8-.691-1.165a1.52,1.52,0,0,1-.373-.9l.032-.039-.015.056A1.276,1.276,0,0,1,233,53.98a1.359,1.359,0,0,0-.446-.506c-.5-.365-.947-.787-1.426-1.173a1.972,1.972,0,0,0-.3-.213,4.309,4.309,0,0,1-1.095-.9,1.62,1.62,0,0,0-.385-.306,3.57,3.57,0,0,1-.766-.519c-.117-.11-.273-.07-.393-.117a8.56,8.56,0,0,1-.874-.46c-.042-.165-.185-.1-.288-.136s-.154-.127-.239-.18c-.228-.14-.463-.267-.688-.412a1.345,1.345,0,0,1-.277-.243.413.413,0,0,1,.231-.68,2.937,2.937,0,0,1,.794-.074,2.629,2.629,0,0,1,1.079.185c.081.042.2.011.3.02a.478.478,0,0,1,.386.164.218.218,0,0,0,.19.106,7.907,7.907,0,0,1,1.327.254,4.978,4.978,0,0,1,1.077.445,1.37,1.37,0,0,0,.348.112,4.714,4.714,0,0,1,.984.357,2.776,2.776,0,0,0,.874.291,1.964,1.964,0,0,1,.833.373,2.7,2.7,0,0,0,.7.372.558.558,0,0,1,.148.106c-.036.008-.117-.021-.059.069Zm2.857,4.714.151-.048c-.017-.006-.042-.02-.05-.014a.9.9,0,0,0-.084.08.587.587,0,0,0-.112.022c-.017.006-.027.032-.039.05.018,0,.041,0,.053-.011A1.09,1.09,0,0,0,237.938,55.547Zm-1.184.1c-.032-.036-.042-.056-.059-.064s-.05-.013-.055-.006a2.364,2.364,0,0,0-.134.249c-.006.013.031.05.055.07.007.006.042-.007.05-.021C236.661,55.8,236.709,55.719,236.754,55.648Zm1.76.341a.328.328,0,0,0,.1.043.3.3,0,0,0,.1-.036.285.285,0,0,0-.1-.045A.292.292,0,0,0,238.514,55.989Zm-9.2-6.947a.5.5,0,0,0-.1-.042c-.011,0-.028.022-.043.035.014.014.028.041.039.039A.539.539,0,0,0,229.316,49.042Zm1.217.512c-.006-.013-.01-.036-.015-.036a.2.2,0,0,0-.056.01c.006.014.01.038.015.039A.268.268,0,0,0,230.533,49.554Zm6.087,5.824c-.013-.008-.024-.021-.036-.022a.124.124,0,0,0-.043.011.09.09,0,0,0,.036.025A.112.112,0,0,0,236.619,55.378Zm1.647.386c-.014,0-.034,0-.038.01a.073.073,0,0,0-.008.053c.021.048.046.043.062-.013C238.285,55.8,238.272,55.781,238.267,55.764Zm-.755-1.045-.039.031.073.006Z" transform="translate(-194.127 -38.551)"/><path class="a" d="M223.385,69.472a.8.8,0,0,1,.519-.41,4.133,4.133,0,0,0,.987-.412.95.95,0,0,1,.364-.042l-.014-.017c.048.085.1.094.147,0l-.014.014c.229-.13.47-.243.684-.394s.429-.3.636-.457c.452-.355.921-.689,1.4-1.018a2.471,2.471,0,0,0,.955-.859.613.613,0,0,1,.282-.231,1.115,1.115,0,0,0,.555-.626,1.327,1.327,0,0,1,.3-.468c.11.052.207.088.294.14a2.823,2.823,0,0,0,.857.345.862.862,0,0,1,.5.211.137.137,0,0,0,.1.043c.334-.1.6.112.889.2.891.261,1.779.534,2.671.794a13.54,13.54,0,0,1,1.486.5,3.891,3.891,0,0,1-1.128.67,2.836,2.836,0,0,0-.485.266,1.243,1.243,0,0,1-.268.143c-.228.059-.394.273-.6.3a1.124,1.124,0,0,0-.512.3.307.307,0,0,1-.281.08.138.138,0,0,0-.1.036,2.163,2.163,0,0,1-1.021.5c-.2.046-.389.1-.589.154l-.129-.193a.913.913,0,0,0-.063.2c-.01.176-.13.246-.27.3-.124-.123-.222.228-.354.021a.073.073,0,0,0-.05-.015c-.152.3-.478.306-.738.4-.173.06-.341.119-.509.194a1.38,1.38,0,0,1-.645.187,1.457,1.457,0,0,0-.446.136c-.157.049-.315.09-.471.138-.215.069-.428.152-.646.211a.294.294,0,0,1-.331-.108c0,.007.074-.055.015.015-.131.076-.213.194-.414.2-.4,0-.805.069-1.211.052a.392.392,0,0,0-.006-.122c-.008-.024-.045-.039-.069-.059,0,.035-.021.08-.006.1s.063.042.1.063c-.048.028-.094.076-.145.081s-.136-.055-.172-.032a.643.643,0,0,1-.585.011c-.148-.049-.291-.126-.438.017-.031.031-.117.017-.175.007-.4-.073-.8-.148-1.191-.229-.053-.011-.1-.064-.147-.1l-.015.015a.736.736,0,0,0,.1-.145.07.07,0,0,0-.1-.1.728.728,0,0,0-.143.106l.014-.015c-.034-.067-.113-.151-.1-.2a1.438,1.438,0,0,1,.719-.913.212.212,0,0,0,.017.045c.006.007.021.008.032.011Zm8.071-1.856c-.031-.041-.021-.042.015-.015a.232.232,0,0,0,.017.043c.006.008.018.011.028.015ZM227.6,69.208l.317-.025c-.162-.048-.162-.048-.3.042a.237.237,0,0,0-.043.018.083.083,0,0,0-.015.027Zm3.233-1.84-.032-.043.048.028c.126.257.137.26.3.036Zm-.048.687a.448.448,0,0,0-.131.029.771.771,0,0,0-.111.113c.042.039.081.1.129.109a.164.164,0,0,0,.129-.087C230.825,68.174,230.8,68.11,230.79,68.054Zm-5.3,1.937c-.062-.06-.1-.116-.138-.127a.254.254,0,0,0-.165.027c-.046.025.034.143.119.15A.634.634,0,0,0,225.495,69.991Zm5.694-2-.056-.032c-.038.048-.074.1-.115.143s-.034.084.024.094a.119.119,0,0,0,.1-.036A.706.706,0,0,0,231.189,67.992Zm.224-1.781.1-.143c-.042-.028-.082-.078-.126-.078s-.1.071-.1.089C231.313,66.126,231.363,66.159,231.412,66.211Zm.769,1.285-.043-.069-.117.113.041.036A1.392,1.392,0,0,0,232.181,67.5Zm-3.506.769a.142.142,0,0,0,.008-.048l-.029-.014a.312.312,0,0,0-.008.048Zm-4.328,2.451-.018-.052c-.01.015-.027.029-.028.045s.011.034.017.05Zm7.092-5.17-.042-.088c-.014.011-.039.027-.038.035a.492.492,0,0,0,.036.084Zm-3.725,3.107h-.077c.01.011.02.032.032.034S227.694,68.671,227.715,68.654Zm4.547.038.018-.031-.029,0Z" transform="translate(-195.341 -31.98)"/><path class="a" d="M253.333,66.778a2.337,2.337,0,0,1-.478.784,1.379,1.379,0,0,0-.393.754.58.58,0,0,1-.141.266c-.161.213-.327.419-.5.625a5.021,5.021,0,0,1-1.194,1.06,1.162,1.162,0,0,1-.277.137.968.968,0,0,1-1.293-.531,5.274,5.274,0,0,0-.426-.817.851.851,0,0,1-.094-.288,3.084,3.084,0,0,0-.241-.928.483.483,0,0,1-.032-.241,2.98,2.98,0,0,0-.115-1.1.272.272,0,0,1,.12-.326,1.778,1.778,0,0,1,.432-.228,1.637,1.637,0,0,1,.543-.085,1.691,1.691,0,0,0,.6-.1.775.775,0,0,1,.3-.024.74.74,0,0,0,.666-.211.276.276,0,0,1,.282-.078.161.161,0,0,0,.116-.008,1.262,1.262,0,0,1,.608-.285c.2-.036.364-.193.586-.161a.242.242,0,0,0,.166-.067,9.22,9.22,0,0,1,1.319-.661,6.371,6.371,0,0,1,.719-.358.488.488,0,0,1,.236-.055c.038,0,.074.08.106.127.007.01-.006.041-.017.056a2.632,2.632,0,0,0-.32.438,1.092,1.092,0,0,1-.291.461c-.035.027-.02.112-.042.164-.115.257-.155.566-.481.68-.039.014-.06.092-.083.143a2.4,2.4,0,0,0-.186.445.836.836,0,0,1-.18.385l-.078-.052Zm-2.727,0-.021-.056.039.039.021.035Zm-.492,1.114-.032-.045.048.029.027.043Zm.829-.235v.58a.313.313,0,0,0,.264-.312C251.213,67.766,251.136,67.667,250.943,67.66Zm-1.579,1.1c-.01-.081-.083-.116-.165-.119a.176.176,0,0,0-.179.192.157.157,0,0,0,.168.138A.182.182,0,0,0,249.364,68.76Zm3.041-3.04c-.172-.1-.289-.231-.48-.137l.254.236Zm-1.021.119c-.063.042-.127.082-.189.127-.007,0,0,.043.007.052.028.022.081.06.092.052a1,1,0,0,0,.148-.159Zm.584,1.4c.029-.038.06-.076.088-.116l-.035-.035c-.041.034-.078.07-.116.1Zm-.3-.334.11-.06a.4.4,0,0,0-.113-.078c-.024-.006-.06.031-.092.049Zm-1,1.159a.669.669,0,0,0,.034-.088c0-.011-.021-.025-.032-.039-.013.013-.036.028-.034.038A.363.363,0,0,0,250.672,68.067Zm-1.029-1.345-.011-.036a.243.243,0,0,0-.055.007l.011.036A.244.244,0,0,0,249.643,66.722Zm.534,2.32-.02.029.029.006Z" transform="translate(-185.2 -32.259)"/><path class="a" d="M257.724,47.432a.543.543,0,0,1,.115-.134c.039-.022.1-.006.151-.007,0,.053.015.119-.01.158s-.092.064-.141.1l.017.014-.144-.144Z" transform="translate(-181.385 -38.858)"/><path class="a" d="M264.3,54.734a.61.61,0,0,1,.024-.169c.01-.027.061-.046.1-.052.06-.008.077.08.017.129a.849.849,0,0,1-.155.078Z" transform="translate(-178.768 -35.98)"/><path class="a" d="M225.524,56.964a.867.867,0,0,1-.082.078c-.01.007-.034-.008-.052-.013l.15-.048Z" transform="translate(-194.259 -35.004)"/><path class="a" d="M266.559,43.083l.045-.013a.129.129,0,0,1,.02.049.131.131,0,0,1-.048-.006C266.567,43.111,266.565,43.094,266.559,43.083Z" transform="translate(-177.861 -40.538)"/><path class="a" d="M224.523,67.472c.039-.063.08-.11.119,0l.014-.014-.147,0Z" transform="translate(-194.61 -30.845)"/><path class="a" d="M222.881,68.995l-.134-.136-.014.015.133.136Z" transform="translate(-195.317 -30.266)"/><path class="a" d="M225.5,56.991c.039-.063.078-.07.116,0l.015-.018-.147,0Z" transform="translate(-194.221 -35.012)"/><path class="a" d="M245.414,47.2l-.133.134.017.015.131-.133Z" transform="translate(-186.336 -38.893)"/><path class="a" d="M245.814,47.039l.046.018-.029-.035Z" transform="translate(-186.124 -38.963)"/><path class="a" d="M267.841,41.962c-.045.055,0,.022.017.015Z" transform="translate(-177.359 -40.979)"/><path class="a" d="M266.6,43.328c.041-.1.08-.1.12,0l.013-.014h-.147Z" transform="translate(-177.85 -40.464)"/><path class="a" d="M259.511,51.416a.579.579,0,0,1-.042-.089c0-.006.027-.021.042-.032l-.014-.01,0,.144Z" transform="translate(-180.685 -37.265)"/><path class="a" d="M236.68,53.145l-.02.045.036-.029Z" transform="translate(-189.77 -36.525)"/><path class="a" d="M241.329,50.041l-.129.131.014.014.129-.133Z" transform="translate(-187.962 -37.761)"/><path class="a" d="M254.958,56.257h.274C255.108,56.365,255.108,56.365,254.958,56.257Z" transform="translate(-182.482 -35.286)"/><path class="a" d="M255.279,56.167v.141h-.141v-.141Z" transform="translate(-182.41 -35.321)"/><path class="a" d="M253.981,56.449l.039.018L254,56.432Z" transform="translate(-182.871 -35.215)"/><path class="a" d="M252.859,57.605l-.066-.053c.014,0,.034,0,.041.011a.159.159,0,0,1,.015.052Z" transform="translate(-183.344 -34.769)"/><path class="a" d="M229.715,59.152a.162.162,0,0,1-.141-.143Z" transform="translate(-192.592 -34.189)"/><path class="a" d="M254.884,58.326l.063-.063c-.006.014-.008.035-.02.041a.26.26,0,0,1-.059.007Z" transform="translate(-182.517 -34.486)"/><path class="a" d="M254.73,50.865l-.1-.045c.081-.069.081,0,.087.053Z" transform="translate(-182.611 -37.462)"/><path class="a" d="M246.882,54.536v-.145h.143Z" transform="translate(-185.699 -36.028)"/><path class="a" d="M242.976,56.434h.145l-.144.141Z" transform="translate(-187.254 -35.215)"/><path class="a" d="M258.475,53.768v.144h-.147Z" transform="translate(-181.139 -36.277)"/><path class="a" d="M246.4,65.186h-.141v-.145l.14,0Z" transform="translate(-185.946 -31.786)"/><path class="a" d="M260.908,51.551h.143l-.141.141Z" transform="translate(-180.112 -37.16)"/><path class="a" d="M267.976,43.172h-.148l.147-.145Z" transform="translate(-177.356 -40.555)"/></g></g></svg>