<svg xmlns="http://www.w3.org/2000/svg" width="44.383" height="16.345" viewBox="0 0 44.383 16.345"><defs><style>.a{fill:none;stroke:#fff;stroke-miterlimit:10;stroke-width:2px;}</style></defs><g transform="translate(-1223.137 -68.826)"><path class="a" d="M44.172,1.736a37.44,37.44,0,0,1-13.454-.021L25.673.62A37.373,37.373,0,0,0,12.151.613l-5.2,1.119A33.97,33.97,0,0,1,0,2.345" transform="translate(1267.516 72.271) rotate(180)"/><path class="a" d="M44.172,1.736a37.44,37.44,0,0,1-13.454-.021L25.673.62A37.373,37.373,0,0,0,12.151.613l-5.2,1.119A33.97,33.97,0,0,1,0,2.345" transform="translate(1267.516 84.056) rotate(180)"/></g></svg>