<svg xmlns="http://www.w3.org/2000/svg" width="149.359" height="49.552" viewBox="0 0 149.359 49.552">
  <g id="Group_408" data-name="Group 408" transform="translate(-11436 -1910)">
    <g id="LOGO" transform="translate(10607.309 871.703)">
      <path id="Path_10" data-name="Path 10" d="M963.708,1047.633a5.829,5.829,0,0,0,1.617-.105,8.45,8.45,0,0,1,1.515.133c1.426.1,2.119.49,2.832.432a.04.04,0,0,0,.031.009,2.471,2.471,0,0,0,.452-.067c.023-.005.259-.065.286-.12s.419-.325.5-.407a1.125,1.125,0,0,1,.261-.149.987.987,0,0,0,.191-.194c.014-.012.161-.23.175-.242l.219-.3.184-.062.254-.144a.923.923,0,0,1,.217-.094c.026.01.137-.071.2-.13a18.9,18.9,0,0,0-5.426-.036c-.74.079-1.645.05-2.388.207a30.669,30.669,0,0,0-3.629,1.021c-.292.386,1.9.247,2.514.245" transform="translate(-64.109 -3.719)" fill="#4c6f91"/>
      <path id="Path_11" data-name="Path 11" d="M951.745,1049.72a1.23,1.23,0,0,0,.383.083c.072-.027.536.089.61.08s1.056.368,1.147.339a6.784,6.784,0,0,1,.983.308,8.2,8.2,0,0,0,1.5.74,12.293,12.293,0,0,1,2.2.551,2.218,2.218,0,0,1,.446.32c0,.129.289.374.289.374l.2.464a.511.511,0,0,1,.252.289c.073.211.127.9.169,1.054s.183.747.183.747-.038.529-.034.564l.057.493a2.166,2.166,0,0,1-.127.412.157.157,0,0,0,.062.225.858.858,0,0,0,.576-.4c.219-.352.122-.345.315-.793s.4-.833.4-.833l.093-.369q.142-.316.256-.643l.284-.488-.043-.347a7.738,7.738,0,0,0,.182-1.205l-.148-.723a.862.862,0,0,1,.022-.385.46.46,0,0,0,.1-.207s.051-.149.1-.288c.122-.105.242-.212.363-.317a22.755,22.755,0,0,1,3.276-2.149c.227-.129.458-.251.676-.393.268-.175.516-.378.765-.578a27.377,27.377,0,0,1,3.091-2.366c.393-.217.779-.666,1.148-.847,1.217-.6,2.14-1.531,3.443-1.9a20.889,20.889,0,0,1,2.485-.629c.713-.1,1.355-.2,2.016-.283.5.007,1-.117,1.491-.134,1.144-.039,1.095-.223,1.992.039l.585.048c.061.031.311-.115.377-.135.035-.01.472-.034.5-.053a4.674,4.674,0,0,1,1.133.369,5.28,5.28,0,0,1,.669.1,1.088,1.088,0,0,0,.419.169,3.473,3.473,0,0,1,.35.153,8.541,8.541,0,0,1,2.634,1.589c.1.077-1.753,1.242-1.771,1.391.355.282.817.578.86.825.032.191-1.2.843-1.3,1.011-.325.557-1.395.989-1.95,1.308-.346.2-.52.544-.853.763-.146.1-.278.213-.425.308a10.182,10.182,0,0,1-1.795.827c-.463.222-1,1.459-1.886,1.348.017-.1.239-.912.137-.812l-.01.01a13.324,13.324,0,0,0,1.469-3.058,1.62,1.62,0,0,0-1.714-.056c-2.042,1.319-.91.359-1.755,1.816-.043.075-.085.144-.126.208-.631.488-1.654.8-2.142,1.657a5.091,5.091,0,0,0-.58,1.719c-.267-.71-.46-.887-.806-.906-.386.221-.708.2-.988.491-.109.113-.7-.057-.83.026-.445.281-.709-.149-1.185.075a2.611,2.611,0,0,0-.452.331c-.247.189-.487.122-.794.168.059.135-.457.4-.466.543a36.982,36.982,0,0,0,5.33.415c-.007.024-.012.049-.019.07-.1.3-.262,1-.336,1.309-.035.146-.148.469-.227.751-.07.186-.138.374-.21.559a.984.984,0,0,0,.195.927c.754-.377,1.435-1.377,3.417-4.034l1.53-.468a15.911,15.911,0,0,0,3.1-1.177,7.7,7.7,0,0,0,1.722-1.058,7.467,7.467,0,0,1,1.153-.809,11.112,11.112,0,0,0,1.534-1.075c.454-.394.914-.781,1.355-1.187,2.335-2.219,1.706-1.91,1.33-2.975.209-.2,1.714-1.71,1.535-1.844-.562-.42-1.114-.855-1.7-1.233-.461-.3-.979-.5-1.458-.769a12.632,12.632,0,0,0-5.032-1.663,5.374,5.374,0,0,0-2.15-.129c-.97.3-1.07.027-1.97.04-.941.013-1.794.423-2.718.464a1.464,1.464,0,0,0-.355.12c-.308.1-.612.223-.927.3-1.24.307-2.487.592-3.7,1-.182.062-.359.142-.537.213a.243.243,0,0,0,.043.074.127.127,0,0,0,.019.015.422.422,0,0,0,.253.091.283.283,0,0,1,.086.082.139.139,0,0,1-.028.022c-.9.392-1.512,1.38-2.406,1.774-.257.113-.411.5-.692.478l-.112.047a.812.812,0,0,1-.774.634c0,.02-.364.75-.372.763-.272.415-.625.252-1.142.428l-.04.261c-.144.1.047.377-.083.419-.234.214-.733-.016-.93.184a.431.431,0,0,0,.006.055,3.972,3.972,0,0,1-.169.607l-.912.026-.113.145-.04.55-.056.247-.805.014-.187.067-.011.612s.035.279-.032.266a3.721,3.721,0,0,0-.418.021h0l-.3.025-.228.094.021.423c-.063,0-.124.02-.169.138-.068.181-.26.349-.349.529l-.132,0a.351.351,0,0,0-.148.025c-.105.051-.14.194-.246.245a1.165,1.165,0,0,1-.28.1,1.654,1.654,0,0,0-.307.055.614.614,0,0,1-.2.048,3.562,3.562,0,0,1-.606.01,6.777,6.777,0,0,1-.752-.135c-.18-.121-.554-.369-.588-.376s-.679-.024-.679-.024l-.675-.11-.526-.2-.442.036-.643-.085-.259.025a22.775,22.775,0,0,0-4.389-.056l-.015.222a1.754,1.754,0,0,0,.488.2c.211.032.945.125.945.125" transform="translate(-58.856 0)" fill="#4c6f91"/>
      <path id="Path_12" data-name="Path 12" d="M989.993,1047.591c.361-.148,1.583-.682,1.949-.8a1.147,1.147,0,0,0,.28-.122,8.319,8.319,0,0,1,1.626-.589c.956-.323,1.965-.382,2.751-.6a10.866,10.866,0,0,1,1.726-.158c.623-.173,1.416-.031,1.847-.283a1.007,1.007,0,0,1-.241-.21,20.372,20.372,0,0,0-8.208.386,6.4,6.4,0,0,0-.929.3c-.781.339-1.756.627-2.643,1.1-.857.456-1.562.9-2.5,1.5-.495.316-.97.7-1.511,1.035-.484.3-1.016.685-1.492,1a2.982,2.982,0,0,1-.312.205c-.72.352-1.164.846-1.814,1.214-.584.33-1.12.68-1.68,1.025.12.074.475-.115.656-.2l.079-.039h0l.108-.053a5.133,5.133,0,0,1,.968-.341,3.628,3.628,0,0,0,.464-.185.468.468,0,0,1,.327-.058.744.744,0,0,0,.223.02.241.241,0,0,0,.062-.011.86.86,0,0,0,.174-.06l.011-.007c.588-.236,1.311-.822,1.778-1.01.521-.21.968-.544,1.481-.776,2.1-.942,3.079-1.573,4.814-2.285" transform="translate(-72.664 -3.04)" fill="#4c6f91"/>
      <path id="Path_13" data-name="Path 13" d="M846.753,1081.465c-1.977-4.293-8.62-4.314-15.922-2-1.527.483-2.712,1.95-1.848,2.441.708.4,2.24-.138,2.149.382a122.551,122.551,0,0,0-1.783,17.656c.029,1.993.066,2.885.292,5.341,1.869-.036,2.526-2.89,2.958-4.975.395-1.908.782-5.809,1.425-7.685a1.412,1.412,0,0,1,.783-.785c3.131-.937,8.426-3.433,10.693-5.6a4.143,4.143,0,0,0,1.254-4.771m-5.4,4.532a19.025,19.025,0,0,1-6.394,2.359c.53-2.458.7-4.125,1.214-6.2.3-1.223,1.534-1.277,2.263-1.369,1.885-.238,4.731.3,5.143,1.678.493,1.643-.976,2.749-2.226,3.528" transform="translate(0 -19.178)" fill="#4c6f91"/>
      <path id="Path_14" data-name="Path 14" d="M885.625,1097.6a14.151,14.151,0,0,0-6.849,8.039,5,5,0,0,0,.112,2.944,4.594,4.594,0,0,0,5.859,2.747c2.785-.735,5.878-2.454,5.684-4.167a24.061,24.061,0,0,1-3.04.653,12.83,12.83,0,0,1-3.646.186c-1.244-.186-1.315-.941-.915-2.069a10.188,10.188,0,0,1,1.193-2.389c.928-1.408,3-4.332,4.9-4.655.8-.137,1.907.178,1.576-.743-.2-.57-2.2-1.824-4.874-.546" transform="translate(-24.155 -28.43)" fill="#4c6f91"/>
      <path id="Path_15" data-name="Path 15" d="M964.972,1107.2c-.7.2-4.777,1.508-6.949,1.48a1.967,1.967,0,0,1-1.78-2.586c.375-1.338,3.352-6.837,5.372-7.258,2-.416,2.8-.608,1.677-1.353-1.761-1.165-4.068-.192-5.471.758a13.811,13.811,0,0,0-5.52,8.485c-.626,2.671,1.326,4.574,4.261,4.888,5.863.627,10.1-4.687,8.41-4.415" transform="translate(-59.762 -28.383)" fill="#4c6f91"/>
      <path id="Path_16" data-name="Path 16" d="M1075.138,1097.5c-3.028,1.758-6.56,4.474-7.767,7.722a4.611,4.611,0,0,0,3.772,5.93,9.942,9.942,0,0,0,7.337-2.568c.59-.5-.546-1.028-1.225-.953-1.91.209-2.5.637-4.413.631-1.457-.006-1.635-1.037-1.486-2.454a7.946,7.946,0,0,1,2.049-3.512c1.35-1.419,3.837-3.51,5.738-3.25.72.1,1.2-.263.819-1.02-.528-1.045-2.73-1.742-4.824-.526" transform="translate(-115.385 -28.338)" fill="#4c6f91"/>
      <path id="Path_17" data-name="Path 17" d="M929.631,1089.5c.035-.386-.552-.536-1.246-.513-1,.034-2.266.022-2.266.022,1.207-3.548,3.953-7.649,7.888-9.015,2.035-.707,1.817-1.287,1.672-1.776a4,4,0,0,0-3.258-1.056,12.87,12.87,0,0,0-4.09,2.058,16.25,16.25,0,0,0-4.914,6.22c-.525,1.1-1.436,3.92-1.436,3.92a16.174,16.174,0,0,0-2.532.6c-.533.183-1.055.309-.926,1.005.011.547,2.785,1.3,2.76,2.007-.563,4.852-.85,13.777.215,13.662a3.9,3.9,0,0,0,1.81-2.3c.388-3.1.682-8.708,1.529-11.529,0,0-.037-.77,3.291-1.766a2,2,0,0,0,1.505-1.541" transform="translate(-43.462 -18.792)" fill="#4c6f91"/>
      <path id="Path_18" data-name="Path 18" d="M912.732,1094.455c.6-.848.932-1.212.17-2.065s-2.61-.543-2.945.346c-.446,1.183-.578,2.279-.053,2.7.409.369,2.152-.025,2.828-.981" transform="translate(-39.136 -25.934)" fill="#4c6f91"/>
      <path id="Path_19" data-name="Path 19" d="M949.317,1092.658a2.161,2.161,0,0,0-2.4.8,2.106,2.106,0,0,0,1.09,2.422c.948.422,1.432.292,2.12-.62a1.721,1.721,0,0,0-.808-2.6" transform="translate(-57.164 -26.28)" fill="#4c6f91"/>
      <path id="Path_20" data-name="Path 20" d="M859.37,1112.148c.2.5.6.928,1.637.575.529-.24.882-3.116,1-4.808.133-1.855.475-4.928.541-6.787.066-1.825-.561-2.094-2.164-2.146a3.451,3.451,0,0,0-3.771.069c-2.858,1.693-4.219,3.581-6.043,6.332a7.667,7.667,0,0,0-1.122,3.133,2.689,2.689,0,0,0,1.459,2.865,3.763,3.763,0,0,0,3.8.016,7.645,7.645,0,0,0,2.459-2.1c.524-.626,1.041-1.157,1.435-1.737a22.036,22.036,0,0,0,.766,4.587m-5.932-3.364c-3.07-.856,2.489-8.39,5.808-7.879l.3.255a26.031,26.031,0,0,1-6.106,7.623" transform="translate(-10.03 -29.115)" fill="#4c6f91"/>
      <path id="Path_21" data-name="Path 21" d="M1029.822,1109.925c.623,2.179,1.578,2.151,3.089,1.586a3.428,3.428,0,0,1-.6-1.848,23.381,23.381,0,0,1,.494-4.573c.315-1.821,1-3.584,1.246-5.41.242-1.792-.745-2.877-2.4-2.125-.653-.656-2.224-.723-3.621.082a16.005,16.005,0,0,0-6.374,5.924,7.778,7.778,0,0,0-1.209,3.444,2.918,2.918,0,0,0,1.338,2.95c1.174.636,1.908.523,3.206-.19a8.573,8.573,0,0,0,2.562-2.069c.563-.616,1.111-1.14,1.546-1.711a26.578,26.578,0,0,0,.719,3.939m-5.613-2.818c-2.858-.828,3.21-8.246,6.341-7.757l.26.25a29.605,29.605,0,0,1-6.6,7.507" transform="translate(-92.785 -28.432)" fill="#4c6f91"/>
      <path id="Path_22" data-name="Path 22" d="M943.448,1101.969a1.444,1.444,0,0,0-1.492.161,12.829,12.829,0,0,0-2.63,9.528c.274,1.96.85,2.3,2.048,2.135a2.337,2.337,0,0,0,1.671-1.106c.308-.509-.654-.2-.558-1,.492-2.575,1.184-5.231,1.728-7.128a2.115,2.115,0,0,0-.767-2.591" transform="translate(-53.486 -30.746)" fill="#4c6f91"/>
      <path id="Path_23" data-name="Path 23" d="M910.728,1113.392c.259-.418-1.107-.2-1.025-.884a64.624,64.624,0,0,1,.948-6.869c.216-1.184.44-2.063-.406-2.652a1.52,1.52,0,0,0-1.846.591c-1.787,2.184-2.765,4.181-2.2,8.223.286,2.063.879,3.292,2.15,3.146a3.1,3.1,0,0,0,2.385-1.555" transform="translate(-37.429 -31.242)" fill="#4c6f91"/>
      <path id="Path_24" data-name="Path 24" d="M1062.221,1090.373c.571-.4.788-1.37.343-1.53-2.153-.264-3.734.149-3.723-.107.15-.751.25-1.754.322-2.361.134-1.119.338-2.054-.59-2.5-.975-.472-1.625.375-2.082,1.277a17.139,17.139,0,0,0-.732,1.639c-.967,2.513-1.245,2.512-3.106,2.854a11.043,11.043,0,0,0-1.441.359.943.943,0,0,0-.689,1.4c.22.616,2.635,1.211,2.512,1.7-.313.776-.922,2.465-1.028,2.944-.429,1.927-1.132,3.795-.8,5.863.287,1.807,1.554,3.437,2.992,3.3,1.812-.172,3.075-3.162,2.233-3.2-1.095.379-1.514.138-1.244-1.793.091-.653.162-1.3.267-1.948a21.612,21.612,0,0,1,.749-3.361,20.752,20.752,0,0,1,.936-2.66,8.54,8.54,0,0,1,2.269-.975,19.577,19.577,0,0,0,2.817-.894" transform="translate(-107.3 -21.99)" fill="#4c6f91"/>
      <path id="Path_25" data-name="Path 25" d="M1103.56,1090.143c-1.614-.258-3.761,1.1-4.722,1.964-.008.033.038-.194.1-.416.566-2.084,1.658-5.593,2.125-7.7.112-.5.354-1.949-.931-1.665-.526.314-1.712.536-1.914.994a49.4,49.4,0,0,0-2.327,7.3c-1.1,4.133-2.036,7.573-2.963,11.753a2.015,2.015,0,0,0,1.116,2.561c1.294.42,1.475-.935,1.748-1.8a54.023,54.023,0,0,1,2.22-6.329c.516-1.2,2.925-2.9,4.524-3.157,1.613-.279-.97,7.115-1.579,9.692h0c-.09.377-.093.879.46.731a3.5,3.5,0,0,0,1.9-1.58,24.576,24.576,0,0,0,2.546-8.337c.151-1.771-.568-3.739-2.3-4.017" transform="translate(-127.832 -21.289)" fill="#4c6f91"/>
      <path id="Path_26" data-name="Path 26" d="M1004.736,1101.514c-1.3.283-7.583.622-7.64-3.679s2.881-9.566,4.636-11.773c1.617-2.034,3.128-4.107,5.66-3.891a3.772,3.772,0,0,0,2.374-.682c.366-.35.235-.5-.348-.818-3.26-1.642-8.27-2.516-14.4,8.22-7.074,12.393.487,15.49,4.5,15.32s5.721-1.057,6.456-2.018.057-.962-1.245-.68" transform="translate(-79.084 -20.029)" fill="#4c6f91"/>
    </g>
  </g>
</svg>
