<svg xmlns="http://www.w3.org/2000/svg" width="38" height="54" viewBox="0 0 38 54">
  <g id="Group_3" data-name="Group 3" transform="translate(-869 -194)">
    <g id="Group_2" data-name="Group 2">
      <g id="Group_1" data-name="Group 1" transform="translate(869 194)">
        <path id="Union_1" data-name="Union 1" d="M0,18.947a19,19,0,0,1,38,0C38,29.412,19,54,19,54S0,29.412,0,18.947Z" fill="#43a9e2"/>
        <path id="Path_4439" data-name="Path 4439" d="M951.32,1046.33a.863.863,0,0,0,.269.058c.051-.019.377.063.429.056s.743.259.806.239a4.8,4.8,0,0,1,.691.217,5.775,5.775,0,0,0,1.055.521,8.652,8.652,0,0,1,1.547.388,1.561,1.561,0,0,1,.314.225c0,.091.2.263.2.263l.14.326a.359.359,0,0,1,.177.2c.051.149.089.633.119.741s.129.526.129.526-.026.372-.024.4l.04.347a1.514,1.514,0,0,1-.089.29.111.111,0,0,0,.044.158.6.6,0,0,0,.405-.278c.154-.247.086-.242.222-.558s.285-.586.285-.586l.066-.259q.1-.222.18-.452l.2-.343-.03-.244a5.427,5.427,0,0,0,.128-.848l-.1-.509a.605.605,0,0,1,.016-.27.323.323,0,0,0,.069-.145s.036-.105.073-.2l.255-.223a16,16,0,0,1,2.3-1.511c.159-.09.322-.176.475-.277.188-.123.363-.266.538-.406a19.239,19.239,0,0,1,2.174-1.664c.277-.152.548-.468.807-.6a8.956,8.956,0,0,1,4.169-1.776c.5-.07.953-.143,1.418-.2.349,0,.7-.083,1.049-.094.8-.028.77-.157,1.4.027l.411.034c.043.022.219-.081.265-.095.024-.007.332-.024.354-.037a3.3,3.3,0,0,1,.8.259,3.739,3.739,0,0,1,.471.069.761.761,0,0,0,.295.119,2.414,2.414,0,0,1,.246.107,6.008,6.008,0,0,1,1.852,1.117c.071.054-1.233.873-1.245.978.249.2.575.406.6.58.023.134-.844.593-.913.711-.228.392-.981.7-1.371.92-.243.14-.365.382-.6.536-.1.068-.2.15-.3.217a7.148,7.148,0,0,1-1.262.581c-.325.156-.706,1.026-1.326.948.012-.07.168-.641.1-.571l-.007.007a9.364,9.364,0,0,0,1.033-2.15,1.14,1.14,0,0,0-1.205-.039c-1.436.927-.64.252-1.234,1.277-.03.053-.06.1-.089.147-.444.343-1.163.565-1.506,1.165a3.583,3.583,0,0,0-.408,1.209c-.188-.5-.323-.624-.567-.637-.271.155-.5.141-.7.346-.077.079-.49-.04-.584.018-.313.2-.5-.1-.834.053a1.837,1.837,0,0,0-.318.233c-.173.133-.342.085-.559.118.042.095-.322.278-.327.382a26.015,26.015,0,0,0,3.748.292c0,.017-.009.035-.013.049-.072.213-.184.7-.236.92-.025.1-.1.33-.159.528-.049.131-.1.263-.147.393a.692.692,0,0,0,.137.652c.53-.266,1.009-.968,2.4-2.837l1.076-.329a11.2,11.2,0,0,0,2.182-.828,5.421,5.421,0,0,0,1.211-.744,5.256,5.256,0,0,1,.811-.569,7.811,7.811,0,0,0,1.079-.756c.319-.277.642-.549.953-.834,1.642-1.56,1.2-1.343.935-2.092.147-.142,1.205-1.2,1.08-1.3-.395-.3-.783-.6-1.2-.867-.324-.208-.688-.353-1.026-.541a8.885,8.885,0,0,0-3.539-1.169,3.78,3.78,0,0,0-1.512-.09c-.682.207-.752.019-1.386.028-.662.009-1.262.3-1.911.326a1.025,1.025,0,0,0-.25.084c-.217.072-.43.156-.652.211-.872.216-1.749.417-2.6.706-.128.043-.252.1-.378.15a.174.174,0,0,0,.03.052.092.092,0,0,0,.013.011.3.3,0,0,0,.178.064.2.2,0,0,1,.06.058.11.11,0,0,1-.02.015c-.63.276-1.063.97-1.692,1.248-.181.08-.289.35-.487.336l-.079.033a.571.571,0,0,1-.544.446c0,.014-.256.528-.262.536-.191.292-.44.177-.8.3l-.028.184c-.1.072.033.265-.058.295-.164.151-.515-.011-.654.13a.322.322,0,0,0,0,.038,2.781,2.781,0,0,1-.119.427l-.641.018-.079.1-.028.387-.04.174-.566.01-.132.047-.008.43s.025.2-.023.187a2.644,2.644,0,0,0-.294.014h0l-.208.017-.16.066.015.3c-.044,0-.087.014-.119.1-.048.127-.183.246-.245.372l-.092,0a.252.252,0,0,0-.1.018c-.074.036-.1.137-.173.172a.813.813,0,0,1-.2.07,1.158,1.158,0,0,0-.216.039.425.425,0,0,1-.138.034,2.509,2.509,0,0,1-.426.007,4.741,4.741,0,0,1-.529-.095c-.127-.085-.39-.259-.413-.264s-.478-.017-.478-.017l-.475-.077-.37-.14-.311.025-.452-.06-.182.017a16.015,16.015,0,0,0-3.086-.039l-.011.156a1.231,1.231,0,0,0,.343.138c.148.023.665.088.665.088" transform="translate(-946.209 -1026.916)" fill="#fff"/>
      </g>
    </g>
  </g>
</svg>
