<svg xmlns="http://www.w3.org/2000/svg" width="85.748" height="91.72" viewBox="0 0 85.748 91.72"><defs><style>.a,.b{fill:#fff;}.b{opacity:0.31;}.c{fill:#4378a7;}</style></defs><g transform="translate(24.847 0)"><g transform="translate(0 0)"><path class="a" d="M38.467,36.546V67.631a5.269,5.269,0,0,1-5.1,5.429c-.193.012-.385.016-.578.016q-13.558,0-27.116.006A5.4,5.4,0,0,1,.951,70.788,5.019,5.019,0,0,1,0,67.817Q0,36.539,0,5.264A5.265,5.265,0,0,1,4.767.063C5.214.026,5.662,0,6.11,0Q19.453,0,32.794,0a5.42,5.42,0,0,1,4.457,1.954,5.208,5.208,0,0,1,1.215,3.411ZM3.5,10.35V58.269H34.878V10.35Zm15.651,51.8a3.535,3.535,0,1,0,0,7.071A3.522,3.522,0,0,0,22.7,65.6,3.577,3.577,0,0,0,19.15,62.153Zm.043-58.218c-1.457,0-2.914-.012-4.369,0a1.16,1.16,0,0,0-1.28,1.14,1.2,1.2,0,0,0,1.268,1.315c2.914.018,5.826.02,8.74-.012a1.667,1.667,0,0,0,.973-.413,1.076,1.076,0,0,0,.218-1.286,1.18,1.18,0,0,0-1.182-.747C22.108,3.929,20.651,3.934,19.194,3.934Z" transform="translate(0.335 0.354)"/><g transform="translate(0)"><path class="a" d="M38.467,36.546V67.631a5.269,5.269,0,0,1-5.1,5.429c-.193.012-.385.016-.578.016q-13.558,0-27.116.006A5.4,5.4,0,0,1,.951,70.788,5.019,5.019,0,0,1,0,67.817Q0,36.539,0,5.264A5.265,5.265,0,0,1,4.767.063C5.214.026,5.662,0,6.11,0Q19.453,0,32.794,0a5.42,5.42,0,0,1,4.457,1.954,5.208,5.208,0,0,1,1.215,3.411ZM3.5,10.35V58.269H34.878V10.35Zm15.651,51.8a3.535,3.535,0,1,0,0,7.071A3.522,3.522,0,0,0,22.7,65.6,3.577,3.577,0,0,0,19.15,62.153Zm.043-58.218c-1.457,0-2.914-.012-4.369,0a1.16,1.16,0,0,0-1.28,1.14,1.2,1.2,0,0,0,1.268,1.315c2.914.018,5.826.02,8.74-.012a1.667,1.667,0,0,0,.973-.413,1.076,1.076,0,0,0,.218-1.286,1.18,1.18,0,0,0-1.182-.747C22.108,3.929,20.651,3.934,19.194,3.934Z" transform="translate(0.335 0.354)"/><g transform="translate(13.472 4.05)"><path class="a" d="M.27.678.205.8A1.4,1.4,0,0,1,1.222,0,1.369,1.369,0,0,0,.056.956,1.316,1.316,0,0,0,.335,2.238c-.041.061.057.328.263.515a.982.982,0,0,0,.462.267,2.032,2.032,0,0,0,.592.041,1.993,1.993,0,0,1-.4-.016,1.993,1.993,0,0,0,.4.016,24.53,24.53,0,0,1,3.231-.008l2.969.083.281.012L7.82,3.126,8.91,3.038A1.066,1.066,0,0,0,8.7,2.979l.175.012a5.378,5.378,0,0,1,.7-.071c-.037.028.1.031.22.035l-.047-.018.726,0a1.85,1.85,0,0,0,.747-.244.726.726,0,0,1,.132-.059,1.618,1.618,0,0,0,.336-.315c.016.067.26-.33.147-.112a1.311,1.311,0,0,0,.077-1.052A1.407,1.407,0,0,0,10.644.041c-.564-.01-1.054.03-1.581.053l.026.014A8.014,8.014,0,0,1,7.97.179a4.489,4.489,0,0,0-.883.147c-.362.01-.505.047-.861.065.092.037-.344.045-.169.075.236.051.248.008.448.049L6.5.5c.93.055,1.862.087,2.808.1C9.926.613,10.7.5,11.013.763c.4.277.541,1.064.169,1.31a.662.662,0,0,1-.279.142c-.344.265-1.07.116-1.709.175h.032l-.908-.024c0,.01-.049.012-.075.016-.057-.049-1.915.1-2.029.077l-.106.006c-.686-.022-1.4-.116-1.986-.106l-.379.071c-.1-.022-.126.02-.252.014-.318-.1-.505-.057-.34-.022l-.759.008-.324.024a.32.32,0,0,1-.191-.029A1.052,1.052,0,0,1,1.5,2.389c-.049-.012-.486-.087-.511-.161l.029.014a.847.847,0,0,1-.236-.509A.864.864,0,0,1,1.692.584C1.7.549,1.56.6,1.55.553,1.922.543,2.392.6,2.81.6a1.534,1.534,0,0,1,.208.039C3.156.653,3.1.621,3.2.625l.014.033c.148-.028.216.035.354.022.008-.012.057-.014.106-.014,0,.035.153,0,.145.029l0,0a.444.444,0,0,1,.086,0L4.549.576l.027.006c.079,0,.112-.028.065-.033l.1,0-.012,0,.1,0c.018,0,.037.02.01.033A.558.558,0,0,1,5.007.576L4.505.49c.065-.012.183.008.256,0,.085.022.26.041.4.057.029,0,.049-.041.118-.024.033.026.077,0,.132.018a.788.788,0,0,1-.193.006c.012.031.159.022.212.031.024-.01.149,0,.23-.01-.035.031.063.02.11.035S5.854.6,5.832.588C5.85.556,5.618.57,5.693.535a.62.62,0,0,0,.183.01c0-.02-.039-.014,0-.031.063,0,.13-.018.165,0a.176.176,0,0,1-.057,0c.083,0-.442.118-.336.106-.028-.016.466-.106.411-.106S6.092.482,6.041.476L5.984.5C5.913.492,5.884.46,5.909.448c.118,0-.336.122-.236.1L5.632.543a.44.44,0,0,1,.2,0c0-.018.057-.024.106-.031l.016,0c.051-.01.12-.006.086-.029-.289,0,.193-.179-.09-.189.12.039-.039.039-.163.045A.32.32,0,0,0,5.634.3c-.077,0-.045.014-.061.024C5.532.313,5.449.3,5.459.285,5.4.309,5.364.269,5.292.277S5.3.289,5.25.3l-.3-.012C4.916.271,4.828.236,4.893.206c.144,0-.055.049.094.041C4.922.2,5.121.236,5.148.2A.623.623,0,0,0,4.922.189l.016.006A.983.983,0,0,1,4.645.187c.02-.016-.016-.028.037-.031l-.1,0c-.012,0-.026.01,0,.012a.261.261,0,0,1-.13,0c-.012-.018-.525.069-.507.059C3.878.222,3.862.2,3.791.214c-.006.014.68-.057.586-.051-.061-.018-.8.083-.849.051-.053,0-.116.006-.1.022C3.335.228,3.451.2,3.388.189c0,0,0,.008-.016.008L3.312.175C3.174.2,2.972.169,2.826.2A.7.7,0,0,1,3.009.136l.016.01c.014-.006.091-.012.089-.028a.813.813,0,0,0-.258.008L2.8.112l0,.008C2.775.108,2.779.108,2.791.1L2.8.1C2.74.049,2.449.128,2.287.1c-.047.006,0,.008-.063.016L1.772.077c-.055.02-.059.029.008.051L1.648.122c.128-.065-.267-.035-.13-.1A.5.5,0,0,0,1.3.047C1.3.063,1.29.083,1.19.112A2.105,2.105,0,0,0,.958.163C.923.159.962.134.952.124.787.232.775.165.62.285.52.358.366.554.392.578.3.714.286.706.27.678Z" transform="translate(0)"/></g><g transform="translate(15.532 62.568)"><path class="a" d="M.143,2.874l-.02.1A3.291,3.291,0,0,1,.41,2.015,2.135,2.135,0,0,0,.2,4.125c-.139.083.033.8.081.8.073.136.167.258.246.389L.355,5.047l.167.269A4.861,4.861,0,0,0,2.876,7.208a3.8,3.8,0,0,0,1.41.185A4.212,4.212,0,0,0,5.7,7.064a2.061,2.061,0,0,0,.25-.116,2.985,2.985,0,0,1-.283.12,4,4,0,0,0,.84-.645c-.053.028-.073.022-.2.085l.14-.094c.083-.136.326-.378.411-.519,0,.045.087-.049.153-.14l-.041.026a3.569,3.569,0,0,0,.588-1.154.434.434,0,0,1,.053-.106l.063-.36c.031.035.075-.295.071-.118a3.716,3.716,0,0,0-.014-.812A3.407,3.407,0,0,0,6.435.776L6.443.8A8.845,8.845,0,0,0,5.587.285a1.8,1.8,0,0,0-.769-.14A2.433,2.433,0,0,0,4.1.1c.075.039-.289.033-.142.065.189.065.2.016.358.073l0-.014A3.6,3.6,0,0,1,6.23,1.288a2.914,2.914,0,0,1,.794,1.3,3.391,3.391,0,0,1,.092,1.622A.67.67,0,0,1,7,4.489a3.338,3.338,0,0,1-.755,1.288l.02-.016a3.348,3.348,0,0,1-.578.431c.006.008-.028.029-.041.043-.029-.006-.342.212-.71.354a2.524,2.524,0,0,1-.82.181l-.087.008a3.5,3.5,0,0,1-1.51-.464c-.1-.018-.208-.071-.3-.09-.061-.061-.1-.037-.175-.1-.151-.226-.275-.3-.2-.189A2.741,2.741,0,0,1,1.409,5.5L1.23,5.3a.217.217,0,0,1-.057-.147c-.114-.155-.065-.118-.146-.3,0-.051-.25-.438-.244-.5L.8,4.378a3.376,3.376,0,0,1-.045-.608,3.252,3.252,0,0,1,.385-1.785c-.03-.024-.049.116-.094.1a3.362,3.362,0,0,1,.633-.8A.6.6,0,0,1,1.822,1.2c.088-.063.035-.055.1-.1l.029.016c.069-.094.153-.073.228-.149,0-.012.027-.039.059-.059.022.028.1-.063.11-.033v0A.4.4,0,0,1,2.4.837,3.371,3.371,0,0,1,2.8.507l.022,0c.057-.022.075-.057.037-.049L2.927.43,2.921.436,2.994.411c.014,0,.033.008.018.029A.326.326,0,0,1,3.137.393C3.014.4,2.866.428,2.73.44A1.735,1.735,0,0,1,2.925.371l.32-.033c.022-.008.029-.053.087-.045.031.022.061-.01.108,0a.669.669,0,0,1-.151.031c.016.026.13,0,.171,0,.018-.012.116-.02.177-.037-.024.031.053.018.09.031S3.8.31,3.778.3C3.79.267,3.609.291,3.664.253a.394.394,0,0,0,.146,0c0-.018-.032-.012,0-.029.051,0,.1-.024.134-.008a.111.111,0,0,1-.045,0c.061,0-.344.136-.26.122-.026-.016.36-.126.319-.126S3.983.183,3.94.179L3.894.2C3.837.2,3.812.169,3.831.157c.094,0-.261.136-.181.112l-.034,0A.275.275,0,0,1,3.777.251c0-.018.045-.026.084-.033l.014,0c.039-.012.094-.012.069-.033C3.7.2,4.1,0,3.865,0c.1.033-.033.041-.138.053A.227.227,0,0,0,3.592.019c-.065.014-.037.02-.049.031-.035,0-.106,0-.1-.02-.047.031-.085,0-.145.016s.006.01-.029.028L3.012.129C2.982.118,2.9.106,2.943.063c.124-.03-.033.059.092.02C2.968.053,3.145.039,3.159,0a.5.5,0,0,0-.2.037l.016,0A1.211,1.211,0,0,1,2.73.116C2.74.1,2.709.1,2.75.074L2.668.1c-.008.008-.018.018.008.012a.231.231,0,0,1-.11.037,3.243,3.243,0,0,0-.374.256c-.051.033-.077.022-.12.067L2.5.183a6.142,6.142,0,0,0-.621.423C1.844.635,1.8.672,1.82.678c-.067.041,0-.039-.055-.018,0,0,.008,0-.006.014L1.7.69c-.079.1-.234.195-.3.309A.411.411,0,0,1,1.476.839l.016,0C1.5.824,1.545.774,1.531.763a.644.644,0,0,0-.163.163L1.327.949l.006,0c-.026.014-.026.01-.024,0l0-.008c-.069.006-.195.25-.3.356-.02.037,0,.008-.02.055a2.2,2.2,0,0,0-.263.319c-.008.053,0,.059.049.02l-.065.1c0-.124-.145.175-.142.041a.43.43,0,0,0-.083.157C.5,2,.515,2.017.485,2.1l-.094.165c-.026.016-.02-.022-.033-.022-.031.151-.087.112-.12.256-.016.09-.063.265-.027.277C.19,2.894.166,2.89.143,2.874Z" transform="translate(0 0)"/></g><g transform="translate(3.408 10.482)"><path class="a" d="M.108,35.866l0,.659c.008-2.114.016-4.343.024-6.575-.11,4.8-.2,10.47.026,14.18a12.566,12.566,0,0,0-.1,1.573L0,48.568l1.229,0c.2,0,.328,0,.342-.008l2.938-.057-2.033.031,2.033-.031c6.262-.094,13.064-.053,20.1-.006l7.588.031c.02-4.31.043-9.161.055-11.7l.012-1.742-.022,1.941c-.032-2.464-.059-4.717-.087-6.791L32.1,31.576l.012-1.091c-.051-.995-.047-3.291-.069-4.369a9.441,9.441,0,0,0,.035-1.368l-.018.3c0-2.867-.006-6.15-.008-8.693l.02-.781-.022-2.438c.037.187.032-2.023.055-.859-.024-2.145-.037-3.3-.061-5.417Q32.036,3.5,32.028,0L19.175.079l.157.014C17.081.116,15.1.187,12.36.163,10.407.21,7.627.236,6.85.311L1.486.378C2.055.415-.663.423.427.45L3.219.5,3.181.488l17.513.1L31.45.58l0,.808c.024,4.347.047,9.078.069,12.928.01.9-.022,1.549-.039,2.316.008,3.5.018,7.837.026,11.8v-.193c-.008,2.053-.016,3.663-.024,5.667.01-.01.01.3.016.458.01,1.628.067,11.526.075,12.67l0,.651,0,.226-11.711-.106-2.369.069c-.651-.02-.777.02-1.561.016-1.99-.1-3.156-.057-2.127-.024l-4.737.008L7.045,47.9a11.893,11.893,0,0,1-1.192-.03l-2.593-.02c-.116-.012-.533-.01-1.068,0l-1.5.028L.676,46.649l0,.254c.026-1.565.051-3.215.077-4.737,0-4.937.008-10.177.012-14.7-.037-.045.008.995-.041,1.046.02-2.59.039-5.415.057-8.028l.039-1.3c.014-.857-.018-.507-.012-1.135l.031-.085c-.026-.918.037-1.343.024-2.206a6.454,6.454,0,0,1-.014-.669c.033-.016,0-.946.03-.9l0-.008,0-.543c-.01-.378-.108-3.579-.12-4.005l.006-.167c0-.494-.028-.7-.033-.415l0-.61,0,.071,0-.6c0-.112.02-.238.035-.067L.763,6.774.678,9.906l0-1.593L.737,5.846a6.788,6.788,0,0,1-.024-.737c.027-.206,0-.478.02-.83L.739,5.488c.031-.071.022-1,.029-1.319L.761,2.729c.03.216.02-.4.035-.694,0-.334-.008-.549-.02-.413-.031-.108-.02,1.331-.053.865.016-.122.01-.779.008-1.131-.018,0-.014.24-.029.012C.706.975.684.56.7.334l0,.35c0-.511.116,2.77.106,2.11L.7.222C.694.535.671,0,.665.322L.686.68c-.006.44-.037.621-.051.466,0-.737.122,2.1.1,1.467l-.008.256C.72,2.6.71,1.886.727,1.61A5.185,5.185,0,0,1,.7.95L.7.844C.692.535.7.1.672.3.676,2.116.494-.889.484.867.523.13.523,1.115.527,1.886.515,1.96.5,2.3.486,2.861c0,.48.014.283.024.374a4.714,4.714,0,0,1-.037.71c.026.376-.016.6-.006,1.048.01.4.01-.026.022.256l-.01,1.9c-.02.183-.055.739-.084.334,0-.9.049.344.043-.6-.045.405-.012-.83-.045-1-.02.3-.02.906-.016,1.412l.006-.1C.387,7.645.4,8.537.374,9.021c-.016-.114-.028.1-.032-.232l0,.615c0,.079.01.157.014-.02.012.291,0,.58,0,.8.008.454.053,2.875.057,3.17,0,.442-.024.551-.006.981C.4,13.948.358,11.221.35,10.692c.006.651.041,4.308.051,5.3a3.893,3.893,0,0,0,.02.647c-.008.554-.031-.167-.047.228,0,0,.01-.031.008.094l-.02.379.026,3.026C.37,20.1.338,19.8.322,19.222l.008-.1A5.292,5.292,0,0,0,.3,18.575c-.01.551-.008,1.022.008,1.6L.3,20.492.3,20.484c-.01.189-.012.169-.02.1l0-.039c-.049.344.03,2.163,0,3.17l.018.4L.26,26.926c.022.344.03.37.051-.045L.3,27.692C.248,26.955.252,29.21.2,28.4c-.014.238-.016.724-.008,1.178a2.576,2.576,0,0,1,.037.69L.2,31.531c-.02.155-.026-.087-.041-.057C.179,32.49.116,32.36.12,33.32c.006.6.008,1.789.039,1.817C.157,35.947.134,35.947.108,35.866Z" transform="translate(0 0)"/></g><path class="a" d="M24.965,73.114l-.887,0,8.868.02c-6.475-.106-14.121-.2-19.127.031-.271-.063-1.978-.106-3.634-.132l-2.257-.024-1.064.006a6.669,6.669,0,0,1-3.665-.6,5.376,5.376,0,0,0,2.462.621A5.376,5.376,0,0,1,3.2,72.41,5.1,5.1,0,0,1,1.16,70.281a5.9,5.9,0,0,1-.505-3.034c0-2.21-.006-4.434-.008-6.7C.663,56.047.68,51.376.7,46.6.716,41.313.765,27.13.783,21.638l.012-2.35L.773,21.906C.741,18.595.714,15.58.686,12.747l-.059,1.8.012-1.473C.59,11.734.592,8.64.57,7.185c.031.32.018-.847.049-1.829l-.031.383A5.063,5.063,0,0,1,3.447,1.129,6.27,6.27,0,0,1,6.235.613L8.972.6l1.052.02L13.313.6c-.252.035,2.729.031,1.158.053L21.778.592l6.38-.01L31.4.574a16.309,16.309,0,0,1,3.207.142A5.1,5.1,0,0,1,38.583,5.1c.081,2.143.043,4.359.075,6.516l.012-.212c.026,3.038.094,5.712.071,9.4.049,2.635.075,6.382.149,7.432.026,2.912.039,4.33.067,7.236.035-.769.043,2.9.073,1.429.031-2.359.024-1.807.049-3.767l-.012.051c.035-7.961.069-15.755.1-23.622-.006-1.345-.014-2.694-.02-4.06a5.663,5.663,0,0,0-1.768-3.932A5.845,5.845,0,0,0,33.329,0H29.155L11.717.071C10.5.083,9.627.051,8.592.033,7.42.043,6.184.008,4.837.134a5.544,5.544,0,0,0-3.6,2.061A5.8,5.8,0,0,0,.027,6.253c0,1.37.006,2.729.01,4.056l0-.26c-.01,2.784-.018,4.925-.026,7.645.01-.014.01.411.016.615C.037,20,.1,34.073.1,35.4l.006.881C.073,41.95.031,48.165,0,53c.024,1.072.047,2.177.071,3.2-.022.877.02,1.044.014,2.1-.1,2.684-.057,4.255-.024,2.871l.008,6.386A6.043,6.043,0,0,0,.543,70.33a7.532,7.532,0,0,0,.879,1.427,5.639,5.639,0,0,0,1.37,1.158,5.179,5.179,0,0,0,1.746.676c.574.289,5.291.031,5.885.092l-.34,0,6.388.075,10.095.008,4.99,0c.818-.012,1.606.029,2.446-.047a6.043,6.043,0,0,0,2.34-.728,6.866,6.866,0,0,1-1.4.523,5.528,5.528,0,0,0,3.944-3.793,9.411,9.411,0,0,0,.262-2.782l.012-2.715.037-1.75-.012-1.53.033-.114c-.028-1.239.035-1.811.022-2.977-.014-.061-.014-.488-.014-.9.035-.022,0-1.276.029-1.215l0-.012,0-.733c-.012-.5-.11-4.851-.122-5.4l.006-.224c0-.667-.028-.95-.033-.562l0-.82,0,.094,0-.814c0-.151.02-.32.035-.09l-.012-1.443c-.026,1.211-.057,2.757-.087,4.225l0-2.149.059-3.327c0-.252-.041-.425-.024-.995.025-.279,0-.645.018-1.119L39.114,44c.031-.094.022-1.343.029-1.779l-.008-1.941c.031.293.02-.539.035-.936,0-.452-.008-.741-.018-.558-.033-.145-.02,1.8-.055,1.168.016-.165.01-1.05.01-1.526-.018-.006-.014.326-.031.018,0-.531-.018-1.091,0-1.394v.472c0-.69.118,3.736.106,2.843-.012-.4-.1-3.156-.106-3.466-.01.419-.033-.3-.039.134l.022.484c-.006.594-.037.838-.049.629,0-1,.122,2.827.1,1.976l-.008.346c-.012-.362-.022-1.325,0-1.7,0,0-.024-.49-.031-.893l0-.144c-.01-.417-.006-1-.028-.728,0,2.444-.181-1.606-.191.761.039-.995.039.332.045,1.374-.014.1-.034.564-.043,1.313,0,.649.014.381.024.505a9.428,9.428,0,0,1-.035.958c.024.505-.016.808-.008,1.414.012.535.01-.035.022.344l-.01,2.564c-.02.246-.053,1-.083.45,0-1.215.047.464.041-.8-.043.545-.012-1.119-.045-1.349-.02.4-.02,1.219-.014,1.9l.006-.138c0,.6.014,1.807-.01,2.46-.016-.153-.028.13-.031-.313l0,.83c0,.106.01.214.014-.026.012.391.006.783,0,1.083l.059,4.277c0,.6-.026.741-.008,1.323l-.051-4.92c.006.751.043,6.086.051,7.141a6.317,6.317,0,0,0,.022.871c-.008.749-.031-.222-.047.309,0,.012.008-.043.008.128l-.022.511c.008,1.382.016,2.485.026,4.08L38.7,62.526l.008-.138c0-.11-.01-.755-.028-.737l.01,2.163-.014.427.006-.014c-.01.256-.012.23-.018.136l0-.053c-.063.46.061,2.934-.026,4.261l-.055.521a5.049,5.049,0,0,1-1.9,3.067c-.35.279-.374.315.077,0a4.7,4.7,0,0,1-.906.566c.413-.262-.018,0-.478.147s-.916.254-.415.083a6.9,6.9,0,0,1-1.51.224,3.614,3.614,0,0,1-.922.045l-1.707-.03c-.21-.018.116-.024.079-.039-1.372.024-1.2-.039-2.493-.035-.81.006-2.411.008-2.45.039C24.857,73.163,24.857,73.14,24.965,73.114Z" transform="translate(0 0)"/></g></g></g><path class="b" d="M.053,8.333,0,8.138l.1.193.026.191ZM43.578,19.995l-.022-.177.067.175.029.181Zm1.239,19.1-.181.03.177-.067a1.533,1.533,0,0,0,.313.248c.083.035.2-.012.3-.024-.079-.087-.147-.222-.238-.246A.932.932,0,0,0,44.816,39.091ZM22.956,43.6a3.841,3.841,0,0,0-.346-.25.545.545,0,0,0-.2-.028c.047.1.083.265.147.281a1.078,1.078,0,0,0,.4-.043c.195.09.4.263.58.252.23-.016.232-.409-.022-.706-.167-.2-.366-.2-.454.079C23.015,43.32,22.989,43.462,22.956,43.6ZM48.489,58.071l-.2.033.195-.061a1.26,1.26,0,0,0,.932.482.563.563,0,0,0,.608-.44.466.466,0,0,0-.094-.391c-.224-.142-.554-.362-.72-.291C48.922,57.522,48.725,57.837,48.489,58.071ZM27.673,37.608l.049.334c.35.006.7.035,1.05.012.283-.018.493-.411.324-.621a.626.626,0,0,0-.519-.191A5.71,5.71,0,0,0,27.673,37.608Zm-8.655-7.631c.181,0,.376.055.476-.016.077-.053.055-.271.031-.409a.393.393,0,0,0-.181-.267.885.885,0,0,0-.452-.033c-.047.01-.094.187-.075.273A2.691,2.691,0,0,0,19.017,29.977Zm7,.179c.364.354.755.116,1.119.083.079-.008.147-.309.151-.48,0-.061-.222-.214-.307-.195C26.6,29.647,26.186,29.714,26.019,30.156ZM21.593,27.6c-.047.191-.134.332-.1.448.063.22.57.252.7.01.071-.128-.039-.364-.067-.551ZM55.839,41.269l.564-.25a2.665,2.665,0,0,0-.342-.47c-.041-.037-.307.051-.313.1A2.832,2.832,0,0,0,55.839,41.269Zm-7.584-7.761c-.094-.173-.14-.354-.212-.368a.576.576,0,0,0-.356.112c-.033.018-.016.185-.012.187C47.854,33.467,48.033,33.485,48.255,33.509Zm3.464,5.273c.094-.055.256-.1.264-.169.012-.108-.079-.234-.126-.354-.1.061-.261.1-.277.185C51.56,38.54,51.669,38.668,51.72,38.782Zm-14.7-2.92a.725.725,0,0,0-.106-.159c-.016-.014-.085.031-.128.051a.578.578,0,0,0,.1.155C36.906,35.925,36.973,35.88,37.018,35.862ZM34.608,22.134l.173.026A.671.671,0,0,0,34.767,22a1.14,1.14,0,0,0-.246-.012Zm-1.068,9.09c-.043-.02-.094-.063-.126-.053-.051.016-.087.069-.13.108l.206.1Zm-3.468-1.27.177.059c-.014-.059-.008-.134-.043-.171s-.114-.043-.173-.063Zm24.291,11.18.183.028c0-.061,0-.169-.016-.171a1.378,1.378,0,0,0-.256-.014Zm6.487,11.029c-.039-.039-.116-.045-.177-.065.014.059.01.136.045.173M42.14,36.015c.053.012.116.041.159.026.024-.01.018-.092.028-.142l-.26-.031ZM11.687.175c.057.008.124.037.165.018s.069-.092.1-.142L11.709,0ZM10.543,4.88c.065.008.144.041.191.018s.073-.108.108-.165l-.283-.051ZM3.026,7.248l.027.114L3.136,7.3ZM27.7,32.242l.032.118.083-.069Zm15.885.161c.138.024.275.059.413.069.063,0,.124-.045.187-.069-.088-.069-.2-.2-.26-.189-.12.029-.214.146-.32.224-.208.008-.466-.057-.615.039-.189.12-.006.48.35.633.236.1.409.016.354-.283C43.666,32.687,43.623,32.545,43.585,32.4Zm-7.354,10.57-.2-.283c-.3.155-.619.293-.906.476a.447.447,0,0,0,.014.716.577.577,0,0,0,.535-.065A5.5,5.5,0,0,0,36.232,42.974Zm14.469.269c-.206.11-.464.163-.533.311-.053.112.106.366.222.519a.534.534,0,0,0,.374.214,1.1,1.1,0,0,0,.537-.24c.049-.041-.008-.285-.087-.379A3.491,3.491,0,0,0,50.7,43.243Zm-3.425,2.841c-.48-.155-.7.244-1,.442-.063.043.02.348.1.507a.391.391,0,0,0,.356.035C47.016,46.816,47.339,46.564,47.276,46.085Zm5.368,3.223c-.049-.2-.041-.366-.124-.456-.159-.171-.608.035-.61.317,0,.151.2.315.317.472ZM42.528,50.774c.061-.031.161-.047.175-.094a.728.728,0,0,0-.016-.258l-.3.136Zm1.366-2.631-.181.029c.039.047.071.118.118.136s.118-.014.179-.024Zm.958-3.183-.083-.094-.039.1ZM43.3,23.158a3.4,3.4,0,0,0-.2.346.53.53,0,0,0,0,.2c.092-.049.254-.088.261-.153a1.116,1.116,0,0,0-.1-.391c.065-.195.212-.4.175-.58-.049-.226-.442-.22-.708.035-.175.169-.151.368.144.45C43.015,23.105,43.161,23.127,43.3,23.158Zm-6.7-4.731.248-.041c-.031-.262-.047-.525-.1-.783-.043-.208-.362-.36-.5-.23a.417.417,0,0,0-.088.389A4.775,4.775,0,0,0,36.609,18.428Zm-2.208,8.8c-.024-.179,0-.374-.081-.47-.065-.075-.281-.049-.419-.022a.345.345,0,0,0-.244.185.848.848,0,0,0,.032.446c.016.047.2.09.285.069A2.357,2.357,0,0,0,34.4,27.226ZM21.772,21.67c.2.043.352.126.464.09.214-.067.173-.57-.087-.7-.14-.067-.362.047-.547.079Zm7.621-8.734c-.016.043-.053.1-.037.128.024.049.083.085.126.126l.075-.206ZM27.956,15.85l.053-.267c-.087.022-.2.016-.252.071s-.041.169-.057.258ZM31.9,19.3l.171-.049-.12-.122Zm-.328,3.866c-.045.008-.112,0-.13.03a.442.442,0,0,0-.035.167l.22-.035Zm-3.437.971.173-.057c-.045-.041-.086-.108-.138-.118s-.112.029-.169.049Zm-.466,3.315.1.081.024-.106Zm16.817,3.4c-.037-.028-.081-.083-.114-.079a.422.422,0,0,0-.149.079l.181.142ZM41.318,28.9l.163.094c0-.059.02-.132-.006-.175s-.1-.065-.159-.1ZM38.489,30.62l.008.12.1-.047Zm7.232,12.4c-.039-.029-.083-.083-.116-.079a.451.451,0,0,0-.15.077l.181.142Zm-4.748-4.172.275.033c-.035-.083-.051-.2-.114-.242s-.179-.029-.271-.041ZM38.222,42.96l.083.167L38.4,43ZM18.65,34.924c.029.065.045.165.092.187a.747.747,0,0,0,.26.02l-.13-.317Zm2.676,4.861-.144-.244c-.047.075-.132.147-.13.222s.086.161.136.242Zm5.1.065.087-.153-.165-.016ZM54.72,52.526l.028.114.083-.065ZM72.129,43.31l.075.195-.037-.2Z" transform="translate(13.544 33.194)"/><path class="c" d="M7.233,0l.822,19.633,9.109.349-1.591,3.388L8.219,28.823,0,31.307.657,11.56,1.713,5.949Z" transform="translate(22.373 37.694)"/><path class="a" d="M44.24,13.14c1.133-.378,2.306-.643,3.419-1.068a3.477,3.477,0,0,0,.936-6.08c-.393-.33-.84-.6-1.19-.842C47.591,1.254,46.871.32,43.4,0c-1.241,2.2-3.543,3.386-5.5,4.959A2.917,2.917,0,0,1,35.67,5.6a6.575,6.575,0,0,0-4.756,1.19l-.02-.018a10.533,10.533,0,0,0-6.616,5.362c-1.984,3.437-5.667,7.413-7.68,10.832-.11.187-15.313,15.807-15.447,15.98-3.982,4.027,3.62-.039,4,.8C7.961,36.363,24.208,17.6,26.464,13.862A11.076,11.076,0,0,1,32.38,8.767,6.384,6.384,0,0,1,33.534,8.6c-.849,2.517-.877,2.763-2.312,3.909a12,12,0,0,0-3.095,3.6c-.132.238.069.659.122,1.054,2.33-1.339,5.964-4.459,6.825-6.121a21.681,21.681,0,0,0,1.113-3.563A7,7,0,0,0,38.273,7.3c.551-.208.954-.806,1.414-1.251l5.051-3.787c.749.155.647.765.527,1.213A5.342,5.342,0,0,1,44.4,5.639c-3.8,4.279-6.892,9.082-10.354,13.606a30.013,30.013,0,0,0-2.922,5.277c.454.847.881,1.648,1.266,2.369,1.5.429,2.873,1.064,4.32.425a25.486,25.486,0,0,0,2.456-1.323,31.465,31.465,0,0,1,6.485-2.936c.187.287.492.57.437.7A5.3,5.3,0,0,1,43.236,26.8a18.224,18.224,0,0,0-3.7,2.326c-3.659,2.641-7.428,5.128-11.048,7.82C26.7,38.271,18.373,39.38,16.33,39.616c2.051,1.251.267,2.4,8.154,1.416.429-.024,5.584-1.461,5.962-1.416,2.216-1.911,4.623-2.7,6.579-4.552a33.792,33.792,0,0,1,5.551-4.473,15.891,15.891,0,0,0,4.56-3.848,7.423,7.423,0,0,0,1.091-1.66,3.887,3.887,0,0,0-.153-3.822c-.657-.946-2.472-1.133-4.052-.482-.124.049-.234.128-.354.185-2.529,1.164-5.045,2.35-7.59,3.476a1.552,1.552,0,0,1-2.159-.21c2.017-3.423,5.012-6.286,6.907-9.865C41.993,13.944,43.108,13.518,44.24,13.14ZM39.608,5.712a.528.528,0,0,1,.053.212l-.3-.309C39.447,5.645,39.573,5.651,39.608,5.712ZM44.744,8.74a7.965,7.965,0,0,1,1.905-1.17c.625-.238,1.616.606,1.681,1.274.049.511-.6,1.172-1.247,1.249-.256.029-.517,0-1.127,0-.033,0-.417-.031-.794-.1C44.724,9.906,44.4,9,44.744,8.74Z" transform="translate(0 28.554)"/></svg>