<svg xmlns="http://www.w3.org/2000/svg" width="49.481" height="56.336" viewBox="0 0 49.481 56.336"><defs><style>.a{fill:#31506c;}</style></defs><g transform="matrix(0.829, -0.559, 0.559, 0.829, -819.419, -362.417)"><path class="a" d="M466.229,803.556c-.192-.605-.8-.954-1.146-1.476v-.02a.38.38,0,0,1-.01.122c-.146.533-.2,1.086-.323,1.625a2.265,2.265,0,0,0,.009.766q.049-.035.108-.072a5.7,5.7,0,0,0,1.363-.945m-.835-.722c.035-.053.127-.072.195-.106.018.065.07.147.043.191s-.129.065-.2.095c-.016-.062-.065-.142-.04-.18"/><path class="a" d="M483.172,795.691l.012.013.1.053-.092-.063-.021,0"/><path class="a" d="M481.576,795.734l-.02.01c.536.137.628.279.428.71a.994.994,0,0,1,.44.13,28.042,28.042,0,0,1,3.26,2.146,5.535,5.535,0,0,0,1.907,1.016,16.985,16.985,0,0,1,1.415-.983.58.58,0,0,1,.06-.063l.008.014a3.335,3.335,0,0,0,.7-.659.3.3,0,0,1,.209-.119c.167.018.345.1.36-.154a.78.78,0,0,1,.379-.594c.2-.142.4-.271.715-.479a5.691,5.691,0,0,0-.566-.386c-1.1-.571-2.027-1.349-3.063-1.993a11.433,11.433,0,0,1-1.992-1.491,3.4,3.4,0,0,0-1.029.722,13.576,13.576,0,0,1-3.215,2.173m1.608-.03-.012-.013c-.069-.009-.14-.017-.208-.031a.4.4,0,0,1-.1-.054c.053-.019.123-.066.158-.051a.594.594,0,0,1,.148.136l.022,0,.091.063-.1-.053m1.2-.849c-.19.014-.293-.127-.336-.29-.029-.112.111-.264.226-.223a3.207,3.207,0,0,1,.445.256c-.155.125-.24.251-.335.257"/><path class="a" d="M466.639,810.715a9.181,9.181,0,0,0,1.8-.551,9.475,9.475,0,0,1,2.233-.934,4.108,4.108,0,0,0,.861-.4c.034-.3-.159-.429-.3-.56-.692-.653-1.363-1.329-2.111-1.925a22.543,22.543,0,0,1-1.938-1.892,1,1,0,0,0-.848.2,8.91,8.91,0,0,1-1.639.869c-.09.429.309.859.094,1.322-.054.118.073.3.1.455a5.812,5.812,0,0,1,.151,1.287,2.858,2.858,0,0,0,.013.586,8.913,8.913,0,0,1,1.581,1.55"/><path class="a" d="M478.236,808.552l0,.005.1.058-.1-.059Z"/><path class="a" d="M470.287,816.406c.275-.111.552-.224.823-.347s.276-.353.228-.588a1.746,1.746,0,0,1-.55-.2,22.808,22.808,0,0,1-2.985-2.453,6.439,6.439,0,0,0-.861-.722.668.668,0,0,0-.6-.093,1,1,0,0,1-.209.02,1.557,1.557,0,0,0,.259.665,1.675,1.675,0,0,1,.352.853c.087.348.419.559.478.939a4.032,4.032,0,0,0,.519,1.079c.28.552.8.955,1.132,1.48-.011-.017-.02-.033-.03-.05.475-.19.96-.383,1.443-.579"/><path class="a" d="M477.863,820.607a2.75,2.75,0,0,0,.465-.277c-1.386-.85-2.714-1.656-4.03-2.478-.357-.222-.678-.491-1.012-.741a1.12,1.12,0,0,0-1.2-.193c-.682.321-1.508.3-2.126.785a.765.765,0,0,1-.519.063c.032.029.064.06.093.09.225.239.439.486.668.724a1.535,1.535,0,0,0,.453.409,1.951,1.951,0,0,1,1.079.967.633.633,0,0,0,.231.281,21.411,21.411,0,0,1,2.448,1.51,4.068,4.068,0,0,1,1.253-.444c.741-.207,1.471-.453,2.2-.7"/><path class="a" d="M483.356,822.794l-2.342-1.1a4.87,4.87,0,0,1-.566-.292,1.4,1.4,0,0,0-1.572-.033,9.14,9.14,0,0,1-2.588.76,1.535,1.535,0,0,1-.424.012l-.044,0a1.662,1.662,0,0,0,.178.026,6.986,6.986,0,0,1,1.546.551,1.846,1.846,0,0,0,.637.087,16.574,16.574,0,0,0,2.579.049,1.432,1.432,0,0,1,.517.021,5.09,5.09,0,0,0,2.09-.063l-.011-.018"/><path class="a" d="M469.394,801.908c0-.007-.007-.016-.011-.022l-.111-.058.1.064.019.016"/><path class="a" d="M468.3,794.224l.079-.117-.079.117"/><path class="a" d="M481.653,795.323l-.023.009.021.011Z"/><path class="a" d="M477.733,798.816a.207.207,0,0,0-.012-.026l-.013.006,0,0,.021.018"/><path class="a" d="M469.82,795.2a.634.634,0,0,0,.894.168c.519-.284,1.026-.588,1.559-.848,1.031-.5,1.887-1.235,2.879-1.656a.564.564,0,0,0-.258-.6c-.692-.6-1.4-1.179-2.083-1.786a1.988,1.988,0,0,1-.332-.474,2.985,2.985,0,0,0-.484.338c-.89.81-1.776,1.626-2.649,2.453a4.413,4.413,0,0,0-.54.664c-.105.146-.2.3-.3.452a.22.22,0,0,1,.113.046c.4.409.8.826,1.2,1.243"/><path class="a" d="M490.351,819.143a.986.986,0,0,1-.744-.114c-.625-.273-1.237-.57-1.856-.855l-1.739-.8a3.058,3.058,0,0,0-.592.249c-1.465,1.03-3.127,1.8-4.622,2.86.516.588,1.319.607,1.9.987.558.365,1.191.637,1.773.941l-.006.021a.676.676,0,0,1,.1.049l.428-.136a21.414,21.414,0,0,0,2.091-.918l-.1-.069.123.044c.591-.355,1.187-.7,1.768-1.068a1.585,1.585,0,0,0,.305-.345h0l-.009-.02-.1-.084c.022.007.052.009.066.024a.168.168,0,0,1,.033.06l.016.013,0,.006a2.211,2.211,0,0,0,.436-.235c.239-.211.483-.416.735-.613Z"/><path class="a" d="M493.342,795.667c-.187-.314-.35-.635-.78-.748a.313.313,0,0,1-.154-.281c.1-.279-.1-.449-.231-.648a13.959,13.959,0,0,0-3.165-3.278,11.5,11.5,0,0,0-2.594-1.551c-.744-.3-1.5-.584-2.252-.867a3.749,3.749,0,0,0-1.5-.377l0,.006c.04.045.077.1.071.138a.95.95,0,0,1-.131.33c-.164.269-.34.532-.5.785a18.012,18.012,0,0,0,3.73,2.671c.365-.3.743-.62,1.128-.932.258-.209.52-.413.791-.6.03-.022.143.043.206.082.022.013.028.082.011.107a2.709,2.709,0,0,1-.356.486,7.988,7.988,0,0,0-1.232,1.4c.061,0,.123,0,.184-.01l.107.171-.057.035c.859.553,1.7,1.085,2.523,1.635a21.37,21.37,0,0,0,2.291,1.341.789.789,0,0,0,.839.028c.163-.094.4.059.363.2-.1.471.268.615.582.794.216.121.487.164.7.294a1.9,1.9,0,0,1,.268.2h.019c-.281-.475-.577-.944-.858-1.42m-.5-.323c-.028-.026-.084-.061-.078-.078a1.082,1.082,0,0,1,.1-.188c.026.029.053.057.08.085-.034.061-.066.12-.1.181"/><path class="a" d="M481.408,796.964c-.14-.091-.3-.151-.45-.234a1.1,1.1,0,0,0-.748-.06,14.223,14.223,0,0,1-2.93,1.986c.1-.036.2.01.428.14l.013-.007c.005.009.008.018.012.027l.1.079c-.023-.008-.053-.01-.067-.025a.234.234,0,0,1-.03-.054l-.021-.018,0,0a3.325,3.325,0,0,1-.432.192c-.051.016-.138-.052-.2-.093-.012-.008.007-.076.03-.1s.052-.052.075-.072a1.2,1.2,0,0,1-.362.091l0,0-1.356,1.067a.764.764,0,0,1,.087.126c.006.015-.069.082-.075.079a1.58,1.58,0,0,1-.147-.1l-.16.126a9.231,9.231,0,0,0,.756.83c.5.432,1.046.815,1.546,1.246.752.648,1.483,1.318,2.217,1.983a1.5,1.5,0,0,0,.881.467,9.7,9.7,0,0,1,1.347-.893,13.073,13.073,0,0,0,1.8-1.126c.523-.346,1.068-.668,1.562-1.046a3.682,3.682,0,0,0,1.26-1.205,4.688,4.688,0,0,0-.386-.314q-2.365-1.547-4.739-3.085m-4.357,3.313c-.031-.063-.085-.125-.083-.187s.067-.111.105-.166c.03.062.087.124.084.184s-.068.112-.106.169m3.51,2.293c-.073.014-.148.019-.222.027l-.012.013-.015-.006c-.056.052-.105.127-.173.146a.376.376,0,0,1-.216-.056c-.026-.012-.041-.1-.036-.1a.521.521,0,0,1,.2-.063.8.8,0,0,1,.222.072l0-.005.022,0a.559.559,0,0,1,.151-.148c.036-.016.112.038.17.06a.344.344,0,0,1-.1.061m.843-5.273a.338.338,0,0,1-.1-.025c.009-.026.019-.073.03-.073a.363.363,0,0,1,.1.026c-.01.025-.02.072-.033.072m.393,3.562a.587.587,0,0,1-.16-.155h-.014l-.1-.062.112.055.006.008a2.22,2.22,0,0,1,.235.029c.037.006.067.041.1.062-.06.024-.138.08-.176.064m1.127-1.9c-.032,0-.058-.039-.087-.059l.187.015c-.034.017-.069.046-.1.044m.221.47c-.016-.01-.011-.048-.016-.073l.094-.032c.007.042.015.084.023.126a.347.347,0,0,1-.1-.021m.471,1.117-.1-.1c.027-.02.052-.041.078-.061l.06.078c-.012.027-.023.056-.035.084"/><path class="a" d="M481.207,788.536c.318-.168.651-.344.989-.52h0l-.014,0c-.1.038-.247-.066-.373-.069a26.672,26.672,0,0,0-3.108-.045c-.681.061-1.373.126-2.052.226a5.073,5.073,0,0,0-2.19.678c-.51.346-1.052.651-1.586.964a.3.3,0,0,1,.068.038c.182.144.27.433.465.5a2.243,2.243,0,0,1,.656.35c.522.414,1.048.821,1.576,1.229a1.021,1.021,0,0,0,.31.207c.159.046.4.115.491.046.5-.363,1.186-.418,1.61-.922a2.465,2.465,0,0,1,1.043-.685c.8-.276,1.143-.912,1.636-1.425-.142-.523-.731-.706-.884-1.166.423-.021.423-.021,1.367.589"/><path class="a" d="M472.511,789.987c.119-.072.238-.143.358-.213-.12.07-.239.141-.358.213"/><path class="a" d="M495.417,809.123c-1.023,1.023-2.005,2.081-2.99,3.135a4.647,4.647,0,0,0-.424.656,13.842,13.842,0,0,1,2.015,1.066c.037.553-.253.544-.6.481-.424-.076-.628-.481-1.094-.53a5.043,5.043,0,0,1-1.1-.377c-.851.285-1.241,1.089-1.993,1.488a11.1,11.1,0,0,0-1.961,1.452.352.352,0,0,0,.27.4,6.161,6.161,0,0,1,1.588.787,10.063,10.063,0,0,0,1.511.666,3.636,3.636,0,0,1,.42.256l-.079.076a.791.791,0,0,0,.442-.648c0-.054.091-.112.146-.163a4.337,4.337,0,0,0,1.269-1.929l-.009,0-.093-.065.1.054,0,.006a1.432,1.432,0,0,0,.753-.768c.2-.437.407-.874.637-1.3.44-.814.755-1.678,1.122-2.516a6.148,6.148,0,0,0,.514-2.425c0-.149.005-.3.016-.446v0a2.116,2.116,0,0,1-.459.635m-4.672,8.883c-.028,0-.052-.035-.079-.055l.173.017c-.032.015-.064.041-.094.038m1.3-1.991a1.964,1.964,0,0,1-.077-.191.656.656,0,0,1,.1-.04l.152.155Z"/><path class="a" d="M492.732,815.879l.094.064.009,0v-.006l-.1-.054"/><path class="a" d="M480.312,802.6l.015.006.011-.013-.021,0,0,.005"/><path class="a" d="M481.52,800.641c.033.021.068.041.1.062h.014l-.007-.007Z"/><path class="a" d="M466.445,797.271a3.117,3.117,0,0,1,.716-.3,8.252,8.252,0,0,0,2.129-.944,4.891,4.891,0,0,0-.366-.636c-.225-.288-.5-.546-.733-.826a.951.951,0,0,1-.072-.094c.019-.024.036-.05.055-.075-.042.056-.083.112-.127.165a10.591,10.591,0,0,0-1.594,2.691l-.008.018"/><path class="a" d="M470.272,796.893a6.177,6.177,0,0,0-1.754.627,12.959,12.959,0,0,1-1.991.52.851.851,0,0,1-.384-.021l-.012-.005c-.184.448-.361.9-.545,1.348a.554.554,0,0,0,.283.721c-.3.277-.607.544-.532.995.018.1-.079.221-.123.334a2.377,2.377,0,0,1,.239.037.306.306,0,0,1,.1.063c-.021.008-.044.019-.067.03.57.523,1.14,1.047,1.721,1.579a6.754,6.754,0,0,0,.889-.285c1.488-.72,2.967-1.457,4.448-2.188a1.077,1.077,0,0,0,.684-.747c-.812-1.121-2.08-1.909-2.952-3.008m-1.781,4.82c-.028-.01-.08-.02-.081-.032a.27.27,0,0,1,.032-.1c.028.011.08.021.08.032a.281.281,0,0,1-.031.1m.936.253a.155.155,0,0,1-.033-.057l-.019-.016-.1-.064.111.057.011.023.1.082c-.022-.008-.052-.01-.066-.025m.935-3.756a.906.906,0,0,1,.051-.182c.013-.025.07-.03.108-.044l.049.187c-.069.013-.138.027-.208.039m2.14,1.458-.165-.127.142-.105c.04.058.083.115.117.176a.9.9,0,0,1-.094.056m.377.515a.432.432,0,0,1-.11.042l-.065.1c.021-.033.041-.066.062-.1l.134-.12c-.005.027,0,.066-.021.081"/><path class="a" d="M480.107,796.555l.061.039,0-.007c-.011-.015-.037-.022-.057-.032"/><path class="a" d="M476.7,798.7l.079.043a.2.2,0,0,0-.012-.019c-.012-.014-.044-.016-.067-.024"/><path class="a" d="M479.417,806.311c-.255.126-.49.285-.735.429-.582.339-1.155.693-1.75,1.011a1.965,1.965,0,0,1-.539.232.591.591,0,0,1,.118.13.332.332,0,0,1,.027.1c-.044.061-.074.155-.135.176a.512.512,0,0,1-.628-.211.108.108,0,0,1-.007-.061c-.2.352-.592.443-.919.623-.176.1-.359.182-.6.3a30.207,30.207,0,0,0,3.555,2.432,8.967,8.967,0,0,0,.97.588.868.868,0,0,0,.968.015c.1-.072.216-.131.321-.2a19.707,19.707,0,0,1,1.9-1.224c.724-.366,1.2-1.01,1.942-1.338.053-.023.059-.134.108-.26-1.28-.952-2.386-2.115-3.8-3.054-.338.127-.581.2-.8.307m-4.23,2.643a.127.127,0,0,1-.1.018c-.106-.046-.1-.1.015-.122.028-.007.064.019.1.029,0,.027,0,.065-.013.075m3.051-.4,0-.005-.123-.108c.027.006.066,0,.08.019a.305.305,0,0,1,.043.089l0,0c.033.02.067.039.1.06l-.1-.059m1.147.091c-.309-.021-.444-.11-.457-.349-.011-.2.175-.22.343-.229l.13-.1-.108.119c.03.186.06.371.092.559m.575-1.211c-.03-.011-.085-.022-.086-.032a.34.34,0,0,1,.032-.1c.03.012.085.022.086.034a.27.27,0,0,1-.032.1m2.412,1.667a.328.328,0,0,1,.1.024c-.01.025-.02.069-.031.069a.4.4,0,0,1-.1-.025c.01-.024.019-.068.032-.068m-1.961,1.5a.471.471,0,0,1-.13.023c-.011,0-.015-.045-.022-.07l.152.047"/><path class="a" d="M489.171,819.969l.009.02h0l0-.006-.016-.013"/><path class="a" d="M479.549,794.271l-.011-.005-.007.008.017,0v-.006"/><path class="a" d="M495.913,808.091l-.005.048.005-.048"/><path class="a" d="M477.412,812.511a6.926,6.926,0,0,1-.99-.552c-.975-.837-2.273-1.286-3.154-2.234a.743.743,0,0,0-.725-.156c-.33.086-.653.2-.978.3a30.522,30.522,0,0,0-3.859,1.67,1.3,1.3,0,0,0,.209.309c.833.687,1.674,1.365,2.514,2.044a2.949,2.949,0,0,1,.577.47,3.784,3.784,0,0,0,1.643,1.113,29.55,29.55,0,0,0,5.294-2.549,5.3,5.3,0,0,0-.531-.416m-6.162.17a.2.2,0,0,1-.034-.061l-.017-.014V812.6a.6.6,0,0,1-.2-.094.923.923,0,0,1-.132-.262c0-.008.079-.06.087-.053a.957.957,0,0,1,.225.2c.035.053.019.134.022.206h.008l.009.021.1.085c-.022-.007-.053-.008-.067-.024m.5-2.614c-.058-.036-.08-.123-.118-.187.074-.025.165-.083.216-.063s.065.121.1.188c-.067.023-.16.083-.194.062m.363,4.513c-.033-.065-.093-.132-.09-.2s.071-.124.111-.185l.1.2-.121.179m2.519-3.713a.327.327,0,0,1-.1-.024c.01-.025.02-.07.031-.07a.41.41,0,0,1,.1.025c-.011.025-.02.068-.032.069"/><path class="a" d="M483.386,804.359l.069-.082c.02-.031.039-.063.06-.094l-.07.084c-.02.03-.039.062-.059.092"/><path class="a" d="M482.486,811.569c-.591.39-1.142.828-1.707,1.248-.029.022-.032.071-.06.136a5.608,5.608,0,0,0,1.892,1.356c.93.49,1.863.975,2.785,1.477a.8.8,0,0,0,.95-.015c1.108-.811,2.221-1.617,3.321-2.436.112-.084.15-.25.243-.412-1.665-.993-3.308-1.907-4.816-2.985-.911.567-1.774,1.081-2.608,1.631"/><path class="a" d="M496.053,805.065a7.591,7.591,0,0,0,.085-2.235c-.242-1.121-.526-2.235-.794-3.351a.572.572,0,0,0-.087-.223,3.64,3.64,0,0,1-.522-1.113.439.439,0,0,0-.207-.106h0l0,.02-2.663-1.063c-.262.214-.508.44-.745.669.052.139.1.277.156.415.076.036.182.054.221.111a.576.576,0,0,1,.083.289.448.448,0,0,1-.226.055c-.141-.011-.233-.085-.188-.231a1.756,1.756,0,0,1,.1-.217,1.341,1.341,0,0,1-.4-.17,12.913,12.913,0,0,1-2.5,2.174c0,.4.245.5.471.612a5.124,5.124,0,0,1,1.667,1.091l-.423.252a3.609,3.609,0,0,1-1.328-.464c-.407-.212-.806-.437-1.212-.658a5.405,5.405,0,0,0-1.2.77c-1.043.761-2.079,1.531-3.135,2.279-.3.215-.675.346-.99.549s-.6.442-.918.686c.042.107.048.248.128.311,1.243.967,2.284,2.138,3.663,3.03.395-.228.809-.438,1.188-.692,1.252-.841,2.5-1.684,3.733-2.553.682-.483,1.326-1.014,1.974-1.537.31-.25.256-.488-.112-.616-.162-.056-.336-.082-.494-.145a1.572,1.572,0,0,1-.322-.2.424.424,0,0,1-.013-.546.339.339,0,0,1,.451-.094c.152.068.273.2.426.263.268.12.551.215.872.336a13.2,13.2,0,0,0,2.409-2.618.716.716,0,0,1,.123,1.138c-.337.41-.628.85-.939,1.278-.143.194-.286.389-.394.538,0,.3.19.4.387.489a.7.7,0,0,1,.42.661l.032-.007-.03.028,0-.021c-.54.132-.944-.284-1.416-.335-.786.67-1.535,1.324-2.3,1.957-.287.237-.621.426-.93.642-.753.53-1.5,1.071-2.259,1.592-.585.4-1.19.775-1.756,1.143.017.362.324.411.507.533,1.052.693,2.123,1.361,3.192,2.033a6.848,6.848,0,0,0,.666.369.555.555,0,0,0,.7-.116c.648-.638,1.259-1.309,1.943-1.911.838-.74,1.573-1.576,2.487-2.242a2.443,2.443,0,0,1,.331-.175,6.425,6.425,0,0,0,.03-2.33c-.025-.1.058-.229.067-.346m-12.6-.788c-.024.027-.046.054-.07.082l.059-.092.07-.084c-.02.031-.04.062-.059.094m.137,2.493c-.024,0-.061-.082-.053-.089a1.412,1.412,0,0,1,.16-.1c.035.062.07.124.106.185a1.184,1.184,0,0,1-.213.008m1.13-2.566c-.013,0-.021-.053-.031-.083l.18.049a.558.558,0,0,1-.149.034m3.02-1.273c-.019-.032-.054-.065-.051-.1s.045-.055.069-.083c.019.033.038.066.055.1l-.073.081m.95,5.789a.461.461,0,0,1-.1-.024c.011-.025.02-.068.032-.069a.311.311,0,0,1,.1.026c-.009.023-.019.067-.029.067m1.531-1.429c-.027,0-.051-.035-.077-.054l.17.016c-.032.014-.064.04-.093.038m4.891-2.777-.057.017.026-.024.012-.012.019.019a3.258,3.258,0,0,1,.543-.14.414.414,0,0,1,.31.122c.058.073.033.2.047.335a1.161,1.161,0,0,1-.9-.317"/><path class="a" d="M473.883,808.187c.918-.527,1.94-.861,2.882-1.353.117-.061.233-.124.349-.186a.146.146,0,0,1-.02-.081.121.121,0,0,1,.085-.079.338.338,0,0,1,.177.03,16.51,16.51,0,0,0,1.465-.9.626.626,0,0,0,.31-.384c-.015-.014-.029-.029-.044-.042.017-.015.033-.029.05-.042a.184.184,0,0,0,0-.024q-.773-.714-1.545-1.433c-.044.019-.1.031-.147.049-.022-.063-.079-.144-.054-.185a.068.068,0,0,1,.027-.026q-.909-.843-1.827-1.684a13.372,13.372,0,0,0-1.07-.859.747.747,0,0,0-.846-.059c-.148.081-.282.184-.432.264-.337.178-.67.365-1,.548a.23.23,0,0,1,.214.243.309.309,0,0,1-.288.332c-.191.029-.384-.089-.369-.236a.387.387,0,0,1,.031-.118c-.348.184-.7.359-1.066.511a8.853,8.853,0,0,0-1.218.64c-.429.259-.923.428-1.383.647-.062.029-.091.12-.145.2a1.755,1.755,0,0,0,.216.283c.952.867,1.892,1.743,2.87,2.583.532.458,1.124.858,1.7,1.275a.938.938,0,0,0,1.085.086m4.064-3.367a.346.346,0,0,1,.1.025c-.011.024-.02.07-.033.07a.312.312,0,0,1-.1-.025c.01-.024.02-.07.031-.07m-.155.715c.019.011.017.051.024.078l-.1.038c-.012-.044-.022-.088-.034-.133a.354.354,0,0,1,.107.017m-1.533-2.561c.2.673.19.7-.53,1.083.19-.487.105-.885.53-1.083m-1.217,2.443c.005.034.023.071.012.1s-.054.034-.082.051l-.06-.08.13-.069m-.656,1.3c.008-.005.06.043.091.066l-.222.231c-.051-.054-.1-.1-.1-.106a2.505,2.505,0,0,1,.23-.191"/><path class="a" d="M471.2,812.6v.009l.017.013-.009-.02-.008,0"/><path class="a" d="M484.182,816.343a39.829,39.829,0,0,1-4.2-2.362,1.172,1.172,0,0,0-1.224-.1c-.19.092-.4.156-.588.247-.917.438-1.831.882-2.747,1.323a7.307,7.307,0,0,0-1.543.916c.358.265.64.5.953.7,1.36.846,2.732,1.676,4.094,2.521a1.013,1.013,0,0,0,1.063.062c.011-.028.022-.071.033-.071a.2.2,0,0,1,.071.016l.03-.017c1.194-.712,2.411-1.39,3.607-2.1a11.077,11.077,0,0,0,.939-.711,2.749,2.749,0,0,0-.487-.421m-7.859.3a.663.663,0,0,1-.469.095.55.55,0,0,1-.382-.263c-.032-.109.1-.282.2-.391a1.41,1.41,0,0,1,.407-.178c.137.106.343.2.423.349.046.087-.071.3-.183.388m3.078.821c-.018-.031-.052-.064-.049-.093s.044-.054.068-.08l.053.1-.072.077m1.484-2.543a.419.419,0,0,1-.112-.029c.012-.028.023-.077.036-.077a.336.336,0,0,1,.109.028c-.011.027-.021.077-.033.078"/><path class="a" d="M474.293,799.4a1.494,1.494,0,0,0,.408-.1q2.462-1.528,4.91-3.076c.055-.034.058-.136.085-.208a21.463,21.463,0,0,0-3.612-2.485c-.744.409-1.521.833-2.292,1.263-.367.2-.72.426-1.083.634-.474.271-.955.531-1.425.807-.057.033-.069.135-.12.245a31.291,31.291,0,0,0,3.129,2.916m3.164-4.417.119.111c-.027-.006-.061-.006-.075-.022a.274.274,0,0,1-.044-.089l-.109-.057Zm-1.008.511c.153-.016.307-.02.462-.026l.018-.011c.024-.03.047-.06.072-.088-.021.031-.04.064-.061.1h-.029a3.153,3.153,0,0,1-.383.208c-.031.013-.111-.072-.169-.11.03-.025.058-.07.09-.072m-1.294,1.7c.012,0,.018.054.027.084a.431.431,0,0,1-.114.025c-.013,0-.02-.057-.028-.086a.347.347,0,0,1,.115-.023m-1.691,1.046a.63.63,0,0,1-.16-.15l-.02,0-.1-.065c.035.02.07.036.106.055l.009.013c.077.006.156.01.231.023a.373.373,0,0,1,.1.061c-.059.025-.136.082-.173.066m.227-.663c-.066,0-.132-.059-.2-.092.066-.03.134-.086.2-.084s.133.058.2.09c-.066.031-.133.088-.2.086"/><path class="a" d="M477,795.369l-.071.088-.019.012.029,0c.021-.033.04-.066.061-.1"/><path class="a" d="M478.8,794.217l.019-.04.709.1.007-.008.011.005c.022-.265.151-.462.465-.449.418.017.834.076,1.25.116.021.4-.258.521-.535.613a.874.874,0,0,1-.491.013,5.264,5.264,0,0,1-.689-.293v.006l-.017,0a.958.958,0,0,1-.286.256,11.311,11.311,0,0,0,1.6.83,28.242,28.242,0,0,0,4.259-2.92c-1.187-.905-2.307-1.759-3.465-2.64-.207.181-.391.337-.572.5a9.666,9.666,0,0,1-1.016.9c-.694.464-1.44.861-2.145,1.312-.228.146-.554.261-.525.606C478.033,793.63,478.47,793.97,478.8,794.217Zm4.115-1.794c.068.03.168.043.2.092s-.042.12-.067.183c-.069-.034-.158-.055-.2-.107-.021-.03.042-.11.067-.168m-1.849-1.89a.313.313,0,0,1,.1.024c-.01.025-.019.068-.029.068a.328.328,0,0,1-.1-.025c.011-.023.02-.066.032-.067m-1.037.948a.356.356,0,0,1,.106.028c-.011.027-.023.075-.034.075a.4.4,0,0,1-.108-.029c.012-.026.022-.074.036-.074"/><path class="a" d="M473.19,798.022l.094.064.021,0-.011-.011c-.035-.019-.07-.036-.1-.055"/><path class="a" d="M484.557,780.135l-.068.082-.059.094.069-.084.058-.092"/><path class="a" d="M468.853,783.076l.01.008.059-.094-.069.086"/><path class="a" d="M471.359,775.162l.1.064.111.056-.1-.064-.109-.056"/><path class="a" d="M488.163,766.939a5.83,5.83,0,0,0-2.68.787c-.4.3-.835.558-1.258.831-.349.224-.7.444-1.059.659a.194.194,0,0,1-.091.024,2.376,2.376,0,0,1-.31.135c-.2.206-.353.376-.523.526a19.747,19.747,0,0,0-4,5.219,11.186,11.186,0,0,0-.615,1.592c.428.48.836.932,1.239,1.386a2.8,2.8,0,0,1,.462.566c.057.118-.059.289.2.323a.648.648,0,0,0,.6-.143c.244-.273.457-.571.672-.866a3.4,3.4,0,0,1,.333-.506q1.176-1.1,2.387-2.167a1.2,1.2,0,0,1,.653-.262c.007-.158,0-.319,0-.489.729-.294.88-.939,1.06-1.545a1.152,1.152,0,0,1,.528-.767.809.809,0,0,0,.37-1.1,6.139,6.139,0,0,0,.79-.686c.592-.728,1.155-1.479,1.716-2.229a1.486,1.486,0,0,0,.264-.529.628.628,0,0,0-.731-.757m-6.5,7.023a.311.311,0,0,1-.1-.024c.01-.025.019-.07.029-.07a.364.364,0,0,1,.1.025c-.011.024-.02.068-.032.069m3.306-3.338c-.01,0-.014-.047-.022-.071l.152.047a.523.523,0,0,1-.13.024m3.1-3.405q.054-.015.108-.027c.009.028.019.055.028.084-.045-.02-.091-.038-.136-.057"/><path class="a" d="M477.456,768.658c-.016.123-.035.246-.054.369.82.523,1.364,1.3,2.179,1.847.879-.815,1.42-1.932,2.658-2.318l.013.006c.079-.02.163-.045.245-.061-.039-.107-.077-.214-.117-.32a8.043,8.043,0,0,0-1.193-2.22c-.3-.383-.758-.673-1.017-1.074a4.516,4.516,0,0,0-1.867-1.5,3.26,3.26,0,0,0-.922-.2c-.006-.116-.339.284-.349.209s-.03-.14-.045-.209c-.112.033-.263.038-.326.108a.377.377,0,0,0-.068.32q.252.858.545,1.706c.074.214.064.472.312.612h0l.071-.088-.06.1-.012-.009c-.271.53.024,1.082-.067,1.621-.012.072.154.172.243.253s.185.152.433.353c-.576-.06-.567.216-.6.5m2.78.417a.186.186,0,0,1,.067-.03l.017-.017h.009a.648.648,0,0,1,.034-.208c.028-.053.11-.126.152-.118a.224.224,0,0,1,.153.137c.01.043-.057.124-.112.151a.72.72,0,0,1-.227.038v.01l-.025.008-.1.093c.009-.022.01-.051.028-.063m-.29-.833c.017.032.035.063.052.1-.023.027-.048.053-.072.08-.018-.032-.052-.065-.049-.1s.044-.055.069-.081m-.708.622a.377.377,0,0,1,.1.024c-.01.027-.019.074-.029.074a.372.372,0,0,1-.106-.026c.011-.025.021-.071.033-.072m-.313-2.3a2.172,2.172,0,0,1,.183.124l-.13.113a1.124,1.124,0,0,1-.122-.164c-.007-.011.063-.076.069-.073"/><path class="a" d="M474.47,774.579c.485.258.959.53,1.438.8.215.12.429.243.707.4l2-3.472-.765-1.137.006,0c-.222-.262-.45-.521-.657-.792a.476.476,0,0,1-.068-.135c.006-.005-.087.058-.152.11l-1.958-1.512c-.165-.127-.326-.333-.508-.353a1.49,1.49,0,0,1-.83-.473,2.127,2.127,0,0,0-1.516-.574c-.058.107-1.191-.336-1.315.015-.147.416.838.792.906.961.417.356.833.654.844,1.177,0,.1.138.2.19.3a9.8,9.8,0,0,0,.788,1.618c.392.537.237,1.114.365,1.665.045.193.112.382.144.577.076.461.123.8.123.8a.313.313,0,0,1,.257.025m1.639-2.068a.334.334,0,0,1,.044.091h0l.108.06-.108-.059v0l-.125-.112c.027.006.065,0,.081.021m-.927-1.088c.019-.061.1-.1.152-.152.223-.011.461.313.358.5a.256.256,0,0,1-.216.077.319.319,0,0,1-.294-.426m-.655-2.053c.071.028.178.042.2.089s-.046.125-.074.19c-.07-.029-.176-.042-.2-.091s.045-.124.073-.188"/><path class="a" d="M476.263,772.663l-.108-.06h0v0Z"/><path class="a" d="M476.4,786.636l.007.018.008-.005-.015-.013"/><path class="a" d="M489.144,781.451c-.472.283-.922-.013-1.379-.054a.414.414,0,0,1-.351-.234c-.066,0-.482.141-.633.192a22.694,22.694,0,0,0-3.323,1.611,19.794,19.794,0,0,0-2.336,1.445l0,0a.31.31,0,0,1,.117,0c.1.02.233.144.236.226s-.137.169-.216.256c-.151-.05-.276-.082-.388-.131a.171.171,0,0,1-.093-.093,15.207,15.207,0,0,0-1.379,1.183,1.615,1.615,0,0,1-.686.512l0,.019c.111,0,.221,0,.333-.006a5.3,5.3,0,0,0,1.278-.1c.5-.162.919.1,1.4.052a5.158,5.158,0,0,1,1.792.159,2.324,2.324,0,0,0,1.943-.359,14.97,14.97,0,0,0,1.4-1.047c.323-.264.619-.618,1.052-.659a5.04,5.04,0,0,0,2.067-1.1,4.193,4.193,0,0,0,1.358-.54c0-.144.875-.171,1.162-.328,1.24-.681-2.617-1.012-3.343-1"/><path class="a" d="M484.226,784.751l-.093-.063.1.053.094.064-.1-.054"/><path class="a" d="M477.522,765.846l-.07.088h0l.01.009c.021-.034.04-.066.061-.1"/><path class="a" d="M485.016,775.94v0h0l0,0"/><path class="a" d="M480.329,769.027h-.01l-.016.017.025-.008v-.01"/><path class="a" d="M484.133,784.688l.093.063c.035.018.07.037.1.054-.032-.02-.063-.042-.094-.063l-.1-.054"/><path class="a" d="M490.834,774.064a.677.677,0,0,0-.434-.2,12.4,12.4,0,0,0-3.336.861,15.34,15.34,0,0,0-2.049,1.215v0c.06.051.138.094.169.155.019.036-.042.106-.067.16-.024-.031-.059-.058-.068-.092a2.076,2.076,0,0,1-.034-.223l0,0h0a3.428,3.428,0,0,0-.467.4.7.7,0,0,1-.778.29,1.8,1.8,0,0,1-.323-.122c.011.331-.25.551-.459.781-.825.911-1.617,1.847-2.421,2.774A8.457,8.457,0,0,0,479,782.328c-.311.748-.393.716.243,1.257.251.214.476.469.869.445a.445.445,0,0,0,.126-.041,15.61,15.61,0,0,1,3.744-2.1c.659-.3,1.313-.6,1.983-.875a7.06,7.06,0,0,1,1.1-.332h.02a.726.726,0,0,1,.159-.052c.114-.023.162-.02.228-.112l.012-.018a1.228,1.228,0,0,1,.084-.184c.393-.7.864-1.371,1.193-2.095a17.049,17.049,0,0,1,1.193-2.091c.293-.458.722-.88.662-1.48,0-.053.11-.114.167-.172.126-.13.187-.29.045-.417m-6.984,7.161c-.023.047-.122.062-.188.091l-.125-.157c.082-.038.165-.077.248-.114.025.062.086.138.065.18"/><path class="a" d="M484.488,780.217l.068-.082c-.019.031-.039.061-.057.092s-.047.055-.07.084Z"/><path class="a" d="M466.78,782.777a4.368,4.368,0,0,0,.9.056c.4-.046.592.3.933.322a.8.8,0,0,0,.247-.069h0l-.01-.008.07-.087-.06.1a1.249,1.249,0,0,0,.289.209,4.929,4.929,0,0,1,1.067.381,9.534,9.534,0,0,0,.995.735c.037.019.065.053.1.071a4.92,4.92,0,0,1,2,1.962,3.272,3.272,0,0,0,.382.613c.129.13.4.284.537.242a6.946,6.946,0,0,0,2.176-.644l-.007-.018-.1-.088c.024.007.056.008.07.023a.254.254,0,0,1,.035.065l.015.013-.008.005v0a2.454,2.454,0,0,0,.893-.082,2.162,2.162,0,0,1,1.142-.2h0a.768.768,0,0,1-.211-.09.2.2,0,0,1-.021-.213c.275-.4.565-.789.871-1.209-.027-.267-.249-.442-.5-.6a28.1,28.1,0,0,0-4.048-2.121c-.471-.2-.951-.376-1.42-.578-.089-.038-.224-.063-.206-.033a1.382,1.382,0,0,1-1.05.066,5.825,5.825,0,0,0-1.017-.151,16.944,16.944,0,0,0-3.44.5,1.816,1.816,0,0,0-.464.2,1.5,1.5,0,0,0-.275.247c-.112.112-.036.374.117.389"/><path class="a" d="M473.414,780.831a25.5,25.5,0,0,1,3.9,1.592,1.584,1.584,0,0,0,.311.07c.534-.684.719-1.561,1.3-2.22-.328-.872-1.112-1.411-1.562-2.149-.084-.037-.163-.091-.248-.139.011-.013.022-.023.032-.033a7.111,7.111,0,0,1-1.138-.957,11.32,11.32,0,0,0-1.567-1.233,1.009,1.009,0,0,1-.318-.371l0,0a.339.339,0,0,1-.3.047,7.734,7.734,0,0,1-.91-.445,11.351,11.351,0,0,0-3.182-1.276,2.147,2.147,0,0,0-1.271-.023,1.161,1.161,0,0,0-.524.488c-.115.2.08.367.242.5.127.106.274.192.406.294.217.169.654.147.641.5-.013.394.588.362.545.741.411.443.359,1.082.815,1.524a5.064,5.064,0,0,1,.755,1.087c.377.633.744,1.274,1.111,1.915a1.484,1.484,0,0,1,.956.086M473.4,777.3c.03.011.083.021.083.033a.262.262,0,0,1-.031.1c-.029-.01-.083-.02-.083-.031a.325.325,0,0,1,.031-.1m-2.559-.582c-.028-.01-.08-.017-.081-.029a.253.253,0,0,1,.027-.1c.029.009.082.018.082.027a.3.3,0,0,1-.028.1m.621-1.5-.1-.064.11.055.1.065Z"/></g></svg>