<svg xmlns="http://www.w3.org/2000/svg" width="115.506" height="87.072" viewBox="0 0 115.506 87.072"><defs><style>.a,.b,.c{fill:#fff;}.a{stroke:#2c4454;stroke-miterlimit:10;stroke-width:0.043px;}.c{opacity:0.31;}</style></defs><g transform="translate(0 0)"><g transform="translate(21.271 5.38)"><rect class="a" width="27.548" height="35.659" rx="2.295" transform="translate(4.502 31.254)"/><rect class="a" width="27.548" height="35.659" rx="2.295" transform="translate(38.254 31.254)"/><rect class="a" width="32.508" height="10.047" rx="2.074" transform="translate(38.254 16.014)"/><rect class="a" width="32.508" height="10.047" rx="2.197" transform="translate(0 16.014)"/><g transform="translate(14.655 0.039)"><path class="b" d="M16.972,18.423c-.119,0-.241-.005-.36-.014h0l-4.652-.331a5.128,5.128,0,0,1-1.553-.36C-.492,13.288-.362,7.948.2,5.859,1.295,1.8,6.416-.654,12.118.153s9.2,5.345,9.854,12.791a5.025,5.025,0,0,1-5,5.479Zm-.116-3.434A1.567,1.567,0,0,0,18.1,14.52a1.591,1.591,0,0,0,.454-1.274c-.355-4.029-1.845-8.982-6.918-9.7-4.314-.614-7.583,1.187-8.124,3.2C2.989,8.7,4.864,11.763,11.7,14.542a1.726,1.726,0,0,0,.505.114l4.652.333Z" transform="translate(0.336 0.403)"/><path class="b" d="M16.972,18.423c-.119,0-.241-.005-.36-.014h0l-4.652-.331a5.128,5.128,0,0,1-1.553-.36C-.492,13.288-.362,7.948.2,5.859,1.295,1.8,6.416-.654,12.118.153s9.2,5.345,9.854,12.791a5.025,5.025,0,0,1-5,5.479Zm-.116-3.434A1.567,1.567,0,0,0,18.1,14.52a1.591,1.591,0,0,0,.454-1.274c-.355-4.029-1.845-8.982-6.918-9.7-4.314-.614-7.583,1.187-8.124,3.2C2.989,8.7,4.864,11.763,11.7,14.542a1.726,1.726,0,0,0,.505.114l4.652.333Z" transform="translate(0.336 0.403)"/><g transform="translate(3.281 3.399)"><path class="b" d="M14.075,3.6l-.094-.159a8.282,8.282,0,0,1,.836,1.629,5.048,5.048,0,0,0-2.286-3.195C12.585,1.65,11.5.82,11.443.861l-.8-.3.545.214L10.644.564A13.334,13.334,0,0,0,5.078.114,8.791,8.791,0,0,0,2.586.878,5.674,5.674,0,0,0,.45,2.6a3.78,3.78,0,0,0-.288.478A3.562,3.562,0,0,1,.5,2.561,3.143,3.143,0,0,0,.028,4.637C.033,4.521.068,4.5.1,4.223l-.022.337a5.475,5.475,0,0,0,.4,1.227c-.052-.053.015.192.125.375L.589,6.076a7.012,7.012,0,0,0,1.5,1.91,1.21,1.21,0,0,1,.139.168l.527.416c-.076.013.413.371.139.2a13.58,13.58,0,0,0,1.254.791,20.4,20.4,0,0,0,4.721,2.2l-.04-.027c.666.145,1.157-.009,1.9.105a9.28,9.28,0,0,0,1.484-.094c.6.029.845,0,1.437.013-.092-.038.158-.036.286-.043l-.02.545c-.076.009-.109.02,0,.034h0l.022-.614v0h0l0,0-.009,0-.016,0-.034-.007-.06-.014-.1-.018-.159-.018a1.85,1.85,0,0,1-.349-.053l.009.016-2.321-.255a8.327,8.327,0,0,1-2.154-.337A23.68,23.68,0,0,1,5.806,9.628,19.207,19.207,0,0,1,2.971,7.819a1.911,1.911,0,0,1-.407-.438,5.428,5.428,0,0,1-1.595-2.4l.011.043A2.206,2.206,0,0,1,1.025,3.77c-.013,0,.009-.069.014-.1a3.713,3.713,0,0,1,.818-1.2,4.673,4.673,0,0,1,1.327-.932l.147-.081A9.957,9.957,0,0,1,6.447.9L7.055.792c.168.027.2-.02.4-.005.509.145.807.145.55.063a6.822,6.822,0,0,1,1.2.174,3.005,3.005,0,0,1,.509.1A.6.6,0,0,1,10,1.254a1.724,1.724,0,0,1,.6.27c.076.054.894.4.976.489l-.058-.029a6.02,6.02,0,0,1,.847.844,8.876,8.876,0,0,1,1.9,3.179c.049-.007-.094-.239-.04-.275a14.747,14.747,0,0,1,.521,2.015,2.149,2.149,0,0,1,.022.339c.022.223.045.125.069.286l-.038.031a3.7,3.7,0,0,1,.065.568c.02.009.034.09.043.168-.045.011.038.243-.005.237l0,0a1.039,1.039,0,0,1,.014.141c.022.08.25.959.25.959l-.011.031c-.009.094.016.141.034.087l-.029.116,0-.014-.038.112c-.013.02-.04.033-.049-.005a.365.365,0,0,1-.072.188,1.358,1.358,0,0,0,.279-.565,1,1,0,0,1-.052.331,1.78,1.78,0,0,1-.3.4c-.022.029,0,.085-.08.129-.054,0-.072.067-.145.087.053-.062.118-.1.176-.165-.038-.014-.161.116-.223.138a.9.9,0,0,1-.233.132c.023-.051-.08,0-.138-.009-.06.009-.1.029-.069.04-.013.054.252-.034.177.033a1.229,1.229,0,0,0-.221.034c0,.024.051.013.007.04-.08,0-.167.034-.214.005a.32.32,0,0,1,.073,0c-.074.034.5-.237.371-.208.067.043-.514.235-.467.206.065.015-.053.042.018.053l.078-.027c.092.009.136.045.1.063-.139.031.4-.237.268-.2l.051-.007a.356.356,0,0,1-.237.069c0,.024-.067.043-.129.054l-.023,0c-.063.014-.156,0-.114.036.411,0-.293.239.129.257-.186-.054.063-.042.246-.089a.411.411,0,0,0,.248-.013c.111-.051.058-.047.073-.067.067-.014.181-.074.181-.043.062-.078.141-.067.221-.154s-.013-.005.027-.067a1.7,1.7,0,0,0,.3-.378c.045-.025.147-.147.139-.031-.114.217-.014-.109-.123.118.109-.062-.1.2-.1.255a.767.767,0,0,0,.228-.315l-.02.02c.054-.112.123-.346.17-.474.015.034.042-.022.029.071l.031-.174c-.005-.022-.009-.045-.018,0a.9.9,0,0,1,.013-.226c.031-.034-.181-.867-.161-.844a1.137,1.137,0,0,0-.025-.262l.177.965c.023-.107-.261-1.325-.241-1.4-.013-.087-.036-.19-.054-.167-.016-.148.049.036.051-.071,0,0-.009.011-.015-.024l.009-.1c-.076-.221-.087-.563-.192-.789a1.183,1.183,0,0,1,.152.281l-.005.029c.011.022.042.147.061.138a1.252,1.252,0,0,0-.1-.42l0-.087-.007,0c0-.052.005-.049.018-.033l.007.011a5,5,0,0,0-.219-.831c-.031-.074-.013,0-.052-.1a5.155,5.155,0,0,0-.176-.744c-.056-.08-.069-.081-.06.034l-.065-.212c.139.163-.072-.413.074-.232a1.113,1.113,0,0,0-.12-.3c-.022,0-.058-.009-.119-.154l-.1-.335c0-.049.042.007.056-.009-.159-.235-.067-.243-.194-.478-.076-.148-.248-.431-.3-.413C14.006,3.618,14.033,3.6,14.075,3.6Z"/></g><path class="b" d="M4.3,13.989l-.2-.168a21.431,21.431,0,0,0,2.073,1.549A37.479,37.479,0,0,1,2.038,11.7c0-.208-.755-1.776-.738-1.817A5.09,5.09,0,0,1,.93,8.852c.054.248.147.487.219.726C1.077,9.339.985,9.1.93,8.852c-.648-2.317.762-5.029,3.132-6.321A11.089,11.089,0,0,1,7.356,1.266a12.356,12.356,0,0,1,3.577-.239c.224.013.447.024.673.058a7.464,7.464,0,0,0-.749-.074,12.732,12.732,0,0,1,2.621.224,2.115,2.115,0,0,0-.491-.181l.414.092a8.337,8.337,0,0,1,1.646.44c-.1.005.214.112.465.262l-.092-.074a9.449,9.449,0,0,1,2.753,1.94,1.232,1.232,0,0,1,.2.232l.637.71c-.078-.031.42.672.136.319A11.732,11.732,0,0,1,20.3,6.754a19.837,19.837,0,0,1,1.828,7.36l.02-.06a4.308,4.308,0,0,1-.793,2.587,6.846,6.846,0,0,1-1.508,1.631,5.159,5.159,0,0,1-2.091.742c.243.047-.894.092-.443.118a4.766,4.766,0,0,0,1.2-.069l-.02-.013a5.413,5.413,0,0,0,4.328-5.564,24.7,24.7,0,0,0-.965-4.971,13.091,13.091,0,0,0-2.6-4.672L18.634,3.1A10.247,10.247,0,0,0,14.414.591l.076.024a12.773,12.773,0,0,0-2.3-.527c0,.014-.129,0-.192,0A10.6,10.6,0,0,0,9.435.057,17.5,17.5,0,0,0,6.8.527L6.544.6A9.87,9.87,0,0,0,1.987,2.98a5.794,5.794,0,0,0-.6.815c-.2.192-.17.282-.362.554C.467,5,.348,5.518.567,5.127a6.593,6.593,0,0,0-.545,1.94,6,6,0,0,0-.007.863A1.952,1.952,0,0,1,0,8.44c.119.619.02.449.176,1.092a6.627,6.627,0,0,0,.733,1.674l-.056-.09A8.35,8.35,0,0,0,1.874,12.82a16.314,16.314,0,0,0,4.715,3.8c.04-.033-.357-.2-.342-.268a26.258,26.258,0,0,0,2.878,1.582c.176.092.387.212.465.262a4.509,4.509,0,0,0,.431.17l.015.054c.358.114.472.273.862.382a1.413,1.413,0,0,1,.293.067c-.005.052.413.094.385.129l.005,0,.241.047c.208.029,1.517-.025,1.667-.029l.067.013c.2.013.284-.015.17-.033l.244.02-.029,0,.242.02c.045.007.094.033.024.049a2.464,2.464,0,0,1,.433.013l-1.253-.2c.166-.005.462.042.641.049.21.045.648.1.987.148a.836.836,0,0,1,.3-.011c.081.042.194.013.333.049a3.992,3.992,0,0,1-.487-.025,2.543,2.543,0,0,0,.527.078c.063-.009.38.027.579.031-.089.034.159.036.277.067.134.014.221,0,.168-.014.047-.04-.534-.063-.344-.1a2.719,2.719,0,0,0,.454.043c0-.024-.1-.025,0-.042l.1.007.018,0h.009l-.027,0a1.563,1.563,0,0,1,.339.014,1.113,1.113,0,0,1-.152,0c.071,0-.029.016-.19.031l.031,0h-.031a5.707,5.707,0,0,0-.681.054,5.311,5.311,0,0,1,.681-.047l.031,0h0l-.031,0a2.5,2.5,0,0,0,.391-.034c-.136-.016.1-.04-.043-.054l-.156.025a.664.664,0,0,1-.185-.036l.023,0h0l-.023,0c-.04-.016-.043-.033-.009-.04l.011,0h0c.056,0,.045.011,0,.022l.022,0h0l-.023,0c-.165.033-.805.08-.608.074l-.1-.018a2.077,2.077,0,0,1,.507.031c0-.018.1-.022.2-.022l.027,0h0l-.027,0,.072,0,.045.005c.134-.007.32.005.235-.029-.769-.024.5-.224-.23-.264.2.042.089.051-.1.051h0l-.309-.016a1.405,1.405,0,0,0-.388-.085c-.194-.011-.116.011-.152.022-.107-.02-.311-.045-.282-.071a2.86,2.86,0,0,1-.422-.04c-.159,0,.011.016-.105.024l-.762-.069c-.072-.033-.293-.094-.127-.121.362.031-.143.054.233.072-.157-.071.337.009.407-.031a2.806,2.806,0,0,0-.567-.062l.042.011a4.458,4.458,0,0,1-.733-.063c.047-.018-.036-.04.1-.034l-.246-.022c-.033,0-.065.009.005.018a1.18,1.18,0,0,1-.322-.029c-.025-.025-1.323.005-1.28-.02-.176-.022-.214-.062-.385-.074a10.389,10.389,0,0,0,1.463.081c-.074-.022-.586-.018-1.081-.045A3.357,3.357,0,0,1,11,18.182c-.125-.042-.273-.1-.253-.065-.2-.1.078-.013-.06-.1,0,0,.007.016-.038-.005l-.13-.087c-.331-.107-.778-.353-1.13-.456a2.556,2.556,0,0,1,.456.1l.033.027c.033.007.212.076.216.054a3.623,3.623,0,0,0-.594-.248l-.109-.067v.009c-.065-.043-.056-.042-.027-.04l.016,0c-.1-.1-.807-.319-1.148-.543-.11-.045-.014.005-.152-.051l-.97-.577c-.132-.045-.147-.042-.018.069l-.275-.174c.291.085-.483-.373-.167-.272a2.415,2.415,0,0,0-.4-.248c-.025.007-.065.018-.262-.1a4.37,4.37,0,0,1-.4-.311c-.036-.056.047-.009.049-.033-.348-.2-.257-.246-.568-.46a6.687,6.687,0,0,0-.606-.387C4.229,14.02,4.248,14,4.3,13.989Z"/></g><g transform="translate(34.143 0)"><path class="b" d="M5.019,18.422a5.025,5.025,0,0,1-5-5.479C.677,5.5,4.176.956,9.872.152S20.7,1.8,21.789,5.858c.563,2.091.7,7.431-10.207,11.858a5.041,5.041,0,0,1-1.55.36l-4.652.331C5.26,18.417,5.139,18.422,5.019,18.422Zm7.022-15a12.222,12.222,0,0,0-1.689.121c-5.072.717-6.562,5.669-6.917,9.7a1.591,1.591,0,0,0,.454,1.274,1.561,1.561,0,0,0,1.245.469l4.65-.333a1.712,1.712,0,0,0,.505-.114c6.837-2.779,8.71-5.847,8.187-7.793C18.009,5.005,15.506,3.425,12.041,3.425Z" transform="translate(0.529 0.443)"/><path class="b" d="M5.019,18.422a5.025,5.025,0,0,1-5-5.479C.677,5.5,4.176.956,9.872.152S20.7,1.8,21.789,5.858c.563,2.091.7,7.431-10.207,11.858a5.041,5.041,0,0,1-1.55.36l-4.652.331C5.26,18.417,5.139,18.422,5.019,18.422Zm7.022-15a12.222,12.222,0,0,0-1.689.121c-5.072.717-6.562,5.669-6.917,9.7a1.591,1.591,0,0,0,.454,1.274,1.561,1.561,0,0,0,1.245.469l4.65-.333a1.712,1.712,0,0,0,.505-.114c6.837-2.779,8.71-5.847,8.187-7.793C18.009,5.005,15.506,3.425,12.041,3.425Z" transform="translate(0.529 0.443)"/><g transform="translate(3.516 3.918)"><path class="b" d="M1.2,4.631,1.123,4.8a8.607,8.607,0,0,1,.853-1.616A5.925,5.925,0,0,0,.553,6.809c-.2.063-.523,1.312-.48,1.347l-.038.809.038-.558-.038.558A5.629,5.629,0,0,0,.068,10.4a2.106,2.106,0,0,0,1,1.292,2.65,2.65,0,0,0,1.566.234l1.4-.056,2.462-.125a3.361,3.361,0,0,0,.838-.118,4.8,4.8,0,0,0,.693-.248l1.017-.411.436-.19-.491.2c.585-.32,1.106-.625,1.6-.93a1.949,1.949,0,0,0-.358.1l.268-.125c.212-.177.748-.5.985-.672-.038.062.168-.043.342-.152l-.08.024a14.441,14.441,0,0,0,1.9-1.419.793.793,0,0,1,.179-.121l.463-.492c.005.08.409-.389.217-.125a6.767,6.767,0,0,0,.834-1.278A3.343,3.343,0,0,0,15.729,3.1a3.979,3.979,0,0,0-1.792-2.035l.025.04A12.111,12.111,0,0,0,12.218.365,4.583,4.583,0,0,0,10.744.205,8.234,8.234,0,0,0,9.33.167c.148.052-.565.047-.277.091.378.083.4.016.72.094L9.765.334a8.243,8.243,0,0,1,4.093,1.519A2.515,2.515,0,0,1,15.068,4.2a5.1,5.1,0,0,1-1.51,2.708,1.946,1.946,0,0,1-.472.366,15.938,15.938,0,0,1-2.5,1.772l.045-.024c-.471.277-.86.42-1.33.67.009.011-.065.047-.1.071-.06-.014-.744.375-1.473.713l-.534.259-.413.123a5.574,5.574,0,0,1-.594.051l-.174.02c-1.144.052-2.333.009-3.314.09l-.614.136c-.136-.027-.166.029-.328-.009-.355-.224-.512-.366-.389-.2a1.2,1.2,0,0,1-.541-.784,1.3,1.3,0,0,1-.043-.438.635.635,0,0,1,.072-.308,3.338,3.338,0,0,1,.11-.673c.049-.09.087-1.017.127-1.13l-.005.067c.105-.458.253-.744.384-1.178A10.629,10.629,0,0,1,3.06,3.12c-.033-.036-.148.2-.2.181A6.808,6.808,0,0,1,4.278,1.882a1.346,1.346,0,0,1,.282-.157c.188-.1.092-.085.226-.163l.042.025A1.922,1.922,0,0,1,5.3,1.34c0-.022.071-.056.139-.087.023.04.206-.1.215-.06v0a1.142,1.142,0,0,1,.121-.052A9.975,9.975,0,0,1,6.668.674h.043C6.832.649,6.876.6,6.8.611L6.955.582,6.937.589l.15-.027c.029,0,.063.013.025.042A1.031,1.031,0,0,1,7.373.533c-.239.02-.539.04-.8.043.1-.036.29-.049.4-.076.141.013.409-.045.634-.025.049-.005.076-.06.187-.043.058.031.123-.011.217.009A1.621,1.621,0,0,1,7.7.471c.024.04.259.011.344.016.038-.016.241-.016.367-.038-.053.045.1.018.181.034.085,0,.139-.022.105-.033C8.72.4,8.351.45,8.469.4A1.113,1.113,0,0,0,8.76.385c0-.024-.062-.013,0-.04A1.15,1.15,0,0,1,9.024.327a.448.448,0,0,1-.091.007c.129-.007-.708.21-.538.183-.047-.018.742-.2.657-.192S9.111.278,9.026.274L8.934.31C8.82.31,8.773.27,8.813.252c.19-.011-.538.2-.375.167L8.371.412A.889.889,0,0,1,8.695.385c0-.024.092-.038.17-.052l.027,0c.08-.018.192-.02.139-.049-.472.04.311-.264-.15-.244.2.038-.063.058-.268.08A.637.637,0,0,0,8.355.08c-.129.014-.074.025-.1.04C8.186.113,8.05.113,8.065.084c-.1.042-.161-.009-.279.011S7.8.109,7.723.129a3.712,3.712,0,0,0-.5.042C7.169.155,7.013.14,7.113.079c.239-.042-.078.083.166.025C7.164.059,7.495.05,7.536.012a.775.775,0,0,0-.378.034l.029,0A2.09,2.09,0,0,1,6.7.133C6.727.106,6.668.1,6.754.08L6.59.109C6.572.12,6.552.131,6.6.126a.833.833,0,0,1-.212.043C6.36.155,5.574.533,5.6.515c-.107.051-.145.033-.241.1C5.335.6,6.4.153,6.257.213a5.97,5.97,0,0,0-.675.27,4.241,4.241,0,0,1-.623.326c-.081.036-.168.1-.139.107-.13.071.016-.062-.083-.022,0,0,.013.005-.016.022l-.1.033c-.176.158-.5.288-.652.494a1,1,0,0,1,.19-.262l.029-.005c.016-.018.121-.094.1-.11a.981.981,0,0,0-.348.266l-.078.04.007.005c-.049.022-.047.016-.038,0l.005-.011c-.116.011-.438.4-.637.592-.049.065,0,.013-.058.094a3.711,3.711,0,0,0-.547.547c-.034.092-.031.1.063.033l-.145.17c.058-.21-.3.293-.234.069a1.161,1.161,0,0,0-.183.272c.009.022.024.054-.06.186-.136.176-.11.13-.215.279-.042.027-.018-.038-.04-.04-.1.264-.161.192-.279.433-.08.148-.2.453-.167.478C1.252,4.678,1.223,4.666,1.2,4.631Z"/></g><path class="b" d="M2.279,7.687l.1-.239a21.662,21.662,0,0,0-.84,2.444,39.477,39.477,0,0,1,2.255-5.05,3.863,3.863,0,0,0,.8-.688,7.155,7.155,0,0,0,.684-.643,10.725,10.725,0,0,1,.831-.755c-.21.154-.395.34-.588.509.194-.168.378-.355.588-.509A10.389,10.389,0,0,1,13.52.963a13.538,13.538,0,0,1,3.47.784A8.824,8.824,0,0,1,19.957,3.6c.145.159.306.3.442.471-.23-.275-.242-.264-.485-.532a6,6,0,0,1,1.593,1.948A2.75,2.75,0,0,0,21.352,5c.067.119.114.252.172.377a4.569,4.569,0,0,1,.6,1.539c-.054-.08.007.239.011.523l.018-.114a6.381,6.381,0,0,1-.6,3.233,1.7,1.7,0,0,1-.161.257,5.589,5.589,0,0,1-.46.824c.005-.083-.478.623-.242.235A12.443,12.443,0,0,1,19.338,13.5a25.394,25.394,0,0,1-6.444,4.1l.065-.009a5.5,5.5,0,0,1-2.614.858,20.336,20.336,0,0,0-2.2.357l-2.152.244c.244.047-.892.089-.442.116.641.053.637-.027,1.151,0l-.016-.014,3.517-.161a6.155,6.155,0,0,0,1.861-.3c.594-.226,1.115-.465,1.678-.7A27.859,27.859,0,0,0,18.116,15.5,12.937,12.937,0,0,0,21.8,11.621c.179-.335.329-.565.5-.845a6.741,6.741,0,0,0,.286-4.94l.024.08a6.563,6.563,0,0,0-1.1-2.152c-.007.011-.094-.092-.141-.138a6.908,6.908,0,0,0-1.984-1.7A13.12,13.12,0,0,0,16.93.827L16.672.749A13.712,13.712,0,0,0,11.614.021c-.329.042-.7.127-.968.185A3,3,0,0,0,10.01.32c-.842,0-1.3.224-.872.145a14.853,14.853,0,0,0-1.864.648l-.739.411a2.634,2.634,0,0,1-.447.221c-.5.36-.393.2-.907.6A8.768,8.768,0,0,0,3.9,3.613l.063-.085a12.281,12.281,0,0,0-1.289,1.5,16.332,16.332,0,0,0-2.2,5.649c.038.027.081-.4.148-.409a23.458,23.458,0,0,0-.563,3.262L0,14.106a2.552,2.552,0,0,0,.063.5l-.038.043a7.544,7.544,0,0,0,.2.97,1.5,1.5,0,0,1,.12.277c-.045.025.172.389.127.387l.005,0,.107.223a6.066,6.066,0,0,0,1.209,1.314l.047.056c.165.143.257.176.167.087l.2.17-.025-.016.21.161c.036.031.069.081,0,.054l.406.241a4.71,4.71,0,0,1-1.01-.918c.134.114.358.34.516.453a4.308,4.308,0,0,0,.869.626,1.124,1.124,0,0,1,.306.1,1.771,1.771,0,0,0,.329.148,2.265,2.265,0,0,1-.494-.185,1.9,1.9,0,0,0,.525.248c.067.013.4.119.615.152-.1.022.167.06.293.1.147.024.243.018.185,0,.051-.029-.576-.112-.366-.127a2.073,2.073,0,0,0,.487.08c0-.024-.1-.027,0-.042.17.022.351,0,.447.024a1.068,1.068,0,0,1-.15,0,6.727,6.727,0,0,1-.936.029,8.44,8.44,0,0,0,1.135-.025c-.134-.014.1-.042-.042-.053l-.156.025c-.19-.016-.262-.069-.2-.08.32.051-.918.053-.646.056L4.4,19.153a4.022,4.022,0,0,1,.543.085c0-.022.159-.016.29-.016l.045.007c.134-.009.32,0,.234-.033-.767-.018.5-.226-.228-.261.3.06-.107.06-.424.02a2.072,2.072,0,0,0-.386-.127c-.194-.04-.118-.007-.157,0-.1-.038-.3-.107-.268-.125a1.992,1.992,0,0,1-.4-.154c-.156-.045.005.02-.107-.011a4.654,4.654,0,0,1-.682-.373c-.051-.063-.214-.223-.054-.168.3.2-.154-.016.172.176-.11-.13.3.154.384.138-.1-.076-.308-.186-.48-.293l.029.029a2.326,2.326,0,0,1-.577-.44c.049.015-.005-.051.1.029l-.181-.163c-.027-.015-.056-.031-.007.018a.977.977,0,0,1-.224-.224A6.8,6.8,0,0,1,1.2,16.3c-.085-.156-.078-.208-.17-.355a3.561,3.561,0,0,0,.425.688,3.951,3.951,0,0,0,.425.483,7.762,7.762,0,0,1-.652-.842,3.31,3.31,0,0,1-.438-.943c-.043-.123-.083-.277-.1-.241-.047-.219.058.052.038-.105,0,0-.007.016-.018-.034l0-.152a5.509,5.509,0,0,1-.125-1.195c.02.1.056.224.089.451l-.009.04c.005.033.029.219.053.21l-.034-.625.025-.121-.009,0c.018-.072.02-.065.027-.038l.005.016c.063-.123.053-.862.129-1.258,0-.119-.009-.013-.005-.161l.246-1.1c0-.141-.013-.154-.071,0l.067-.317c.007.3.208-.574.208-.243a2.328,2.328,0,0,0,.114-.454c-.013-.022-.036-.056.016-.279a4.6,4.6,0,0,1,.174-.472c.042-.052.024.042.045.036.087-.393.154-.319.259-.682a3.851,3.851,0,0,0,.2-.688C2.23,7.631,2.259,7.644,2.279,7.687Z"/></g><rect class="b" width="10.858" height="3.534" transform="translate(30.699 16.231)"/></g><path class="c" d="M.06,9.2,0,8.987.109,9.2l.027.212ZM48.121,22.08l-.024-.2.074.194.033.2Zm1.367,21.088-.2.031.2-.074a1.626,1.626,0,0,0,.346.275c.092.038.219-.014.329-.025-.087-.1-.161-.248-.262-.273A1.016,1.016,0,0,0,49.488,43.169Zm-24.14,4.978a3.959,3.959,0,0,0-.38-.275.582.582,0,0,0-.223-.031c.054.109.092.293.163.31a1.2,1.2,0,0,0,.44-.049c.214.1.44.293.641.279.252-.018.255-.451-.023-.778-.185-.217-.405-.223-.5.087C25.413,47.837,25.386,47.994,25.348,48.147Zm28.2,15.98-.217.036.214-.065a1.394,1.394,0,0,0,1.028.53.622.622,0,0,0,.672-.487.517.517,0,0,0-.1-.431c-.248-.157-.612-.4-.8-.322C54.022,63.522,53.805,63.87,53.544,64.127ZM30.557,41.53l.054.369c.387.007.777.04,1.16.013.311-.02.545-.454.358-.686a.688.688,0,0,0-.574-.21A6.062,6.062,0,0,0,30.557,41.53ZM21,33.1c.2,0,.414.062.525-.016.083-.06.06-.3.033-.454a.444.444,0,0,0-.2-.3.952.952,0,0,0-.5-.034c-.054.009-.1.2-.083.3A2.868,2.868,0,0,0,21,33.1Zm7.729.2c.4.393.834.13,1.236.092.087-.007.163-.34.167-.529,0-.067-.244-.235-.339-.215C29.372,32.738,28.915,32.813,28.731,33.3Zm-4.886-2.818c-.052.21-.148.367-.112.494.071.244.63.277.778.011.078-.141-.043-.4-.074-.608ZM61.659,45.574l.625-.277a3.048,3.048,0,0,0-.378-.518c-.045-.043-.339.056-.344.116A3.116,3.116,0,0,0,61.659,45.574ZM53.286,37c-.1-.192-.154-.389-.234-.407a.655.655,0,0,0-.393.125c-.036.02-.018.2-.013.206C52.844,36.958,53.041,36.978,53.286,37Zm3.827,5.825c.1-.062.282-.11.291-.188.013-.119-.089-.259-.141-.391-.107.067-.286.116-.3.2C56.937,42.56,57.054,42.7,57.112,42.828ZM40.877,39.6a.744.744,0,0,0-.118-.176c-.016-.014-.092.036-.141.058a.65.65,0,0,0,.114.172C40.754,39.671,40.828,39.621,40.877,39.6ZM38.214,24.443l.192.029a.739.739,0,0,0-.015-.179,1.508,1.508,0,0,0-.271-.013ZM37.038,34.482c-.047-.022-.107-.072-.141-.06-.054.018-.094.078-.141.119l.226.112Zm-3.832-1.4.2.065c-.014-.065-.009-.148-.049-.19s-.125-.047-.19-.069ZM60.03,45.422l.2.031c-.005-.065,0-.186-.016-.188a1.484,1.484,0,0,0-.284-.014Zm7.208,12.367c-.013-.063-.007-.147-.045-.186s-.128-.049-.194-.072c.014.065.009.148.049.192S67.173,57.769,67.238,57.789Zm-20.7-18.017c.06.011.129.043.176.027.027-.011.022-.1.031-.156l-.286-.034ZM12.906.194c.062.009.138.042.181.02s.076-.1.114-.156L12.93,0Zm-1.263,5.2c.071.009.159.045.21.018s.08-.118.118-.181l-.311-.056ZM3.342,8l.031.127.091-.072ZM30.588,35.6l.036.13.091-.074Zm17.542.179a4.433,4.433,0,0,0,.456.076c.069,0,.136-.049.2-.076-.1-.074-.217-.224-.286-.208-.132.033-.237.161-.353.248-.232.007-.516-.063-.681.042-.208.134-.007.53.385.7.261.112.453.016.391-.313C48.219,36.094,48.17,35.939,48.13,35.783ZM40.01,47.455l-.221-.313c-.337.174-.686.326-1,.527a.494.494,0,0,0,.016.791.639.639,0,0,0,.59-.072A6.2,6.2,0,0,0,40.01,47.455Zm15.978.3c-.228.123-.512.181-.59.346-.058.123.118.4.246.572a.587.587,0,0,0,.413.235,1.176,1.176,0,0,0,.592-.264c.054-.045-.007-.313-.094-.418A4.026,4.026,0,0,0,55.988,47.752ZM52.2,50.891c-.53-.172-.775.268-1.1.489-.071.047.022.386.107.559a.429.429,0,0,0,.391.04C51.919,51.7,52.276,51.421,52.2,50.891Zm5.928,3.559c-.054-.217-.047-.4-.138-.5-.174-.19-.672.038-.672.349,0,.167.224.348.349.521ZM46.963,56.068c.067-.033.176-.051.192-.1a.769.769,0,0,0-.016-.284l-.331.148Zm1.508-2.9-.2.031c.043.052.078.132.13.152s.13-.015.2-.027Zm1.057-3.515-.091-.1-.043.11ZM47.819,25.574a3.661,3.661,0,0,0-.224.382.575.575,0,0,0,0,.223c.1-.056.282-.1.29-.17a1.241,1.241,0,0,0-.11-.433c.072-.215.235-.443.192-.641-.053-.25-.489-.243-.78.04-.192.188-.168.405.157.5C47.5,25.516,47.66,25.539,47.819,25.574ZM40.426,20.35,40.7,20.3c-.034-.288-.051-.579-.11-.863-.047-.23-.4-.4-.556-.255a.465.465,0,0,0-.1.431A5.28,5.28,0,0,0,40.426,20.35Zm-2.438,9.717c-.027-.2,0-.413-.091-.52-.071-.081-.31-.054-.46-.024a.372.372,0,0,0-.27.2.942.942,0,0,0,.033.494c.018.052.221.1.315.076A2.508,2.508,0,0,0,37.988,30.067ZM24.041,23.93c.219.049.391.139.512.1.237-.074.194-.63-.094-.769-.154-.076-.4.051-.6.085Zm8.415-9.645c-.014.049-.056.107-.04.141.025.054.091.092.139.138l.083-.226ZM30.872,17.5l.056-.293c-.1.022-.221.016-.277.078s-.045.186-.063.284Zm4.353,3.807.19-.054-.132-.134Zm-.362,4.27c-.049.009-.125,0-.145.031a.532.532,0,0,0-.038.185l.243-.038Zm-3.8,1.07.19-.06c-.049-.047-.094-.119-.15-.132s-.125.034-.188.054Zm-.514,3.662.1.09.027-.118Zm18.57,3.754c-.042-.031-.089-.091-.127-.087a.518.518,0,0,0-.165.087l.2.156Zm-3.5-2.149.181.1c0-.065.024-.145-.007-.194s-.114-.071-.174-.1Zm-3.122,1.9.007.134.107-.054Zm7.985,13.7c-.043-.031-.09-.091-.127-.087a.525.525,0,0,0-.167.087l.2.156Zm-5.244-4.605.306.036c-.04-.092-.058-.217-.129-.268s-.2-.033-.3-.045Zm-3.036,4.534.089.185.11-.139ZM20.594,38.567c.033.071.049.181.1.2a.783.783,0,0,0,.286.022l-.143-.348Zm2.954,5.365-.159-.268c-.051.083-.143.163-.141.246s.1.177.148.266ZM29.185,44l.1-.168L29.1,43.82Zm31.24,14,.033.125.089-.072ZM79.649,47.826l.083.217-.04-.219Z" transform="translate(0 0)"/><path class="c" d="M.058,9.2,0,8.987.107,9.2l.029.21ZM48.121,22.08l-.025-.2.076.192.031.2Zm1.367,21.086-.2.031.194-.072a1.684,1.684,0,0,0,.348.273c.091.04.217-.013.328-.025-.085-.1-.161-.246-.261-.271A1.013,1.013,0,0,0,49.488,43.167Zm-24.14,4.98a4.6,4.6,0,0,0-.38-.277.588.588,0,0,0-.223-.029c.052.109.092.291.163.31a1.231,1.231,0,0,0,.438-.049c.215.1.442.293.641.279.253-.018.255-.451-.024-.778-.185-.217-.4-.224-.5.085C25.413,47.837,25.384,47.993,25.348,48.147Zm28.2,15.98-.219.034.215-.065a1.393,1.393,0,0,0,1.028.532.619.619,0,0,0,.67-.489.512.512,0,0,0-.1-.431c-.248-.156-.614-.4-.8-.322C54.022,63.52,53.8,63.868,53.544,64.127Zm-22.989-22.6.056.371c.386.007.776.038,1.16.013.311-.022.545-.454.357-.686a.681.681,0,0,0-.572-.212A6.305,6.305,0,0,0,30.555,41.529ZM21,33.1c.2,0,.415.062.525-.016.083-.06.062-.3.034-.453a.436.436,0,0,0-.2-.3.977.977,0,0,0-.5-.036c-.053.011-.105.2-.082.3A2.839,2.839,0,0,0,21,33.1Zm7.731.2c.4.393.833.129,1.236.092.087-.009.161-.34.167-.53,0-.067-.244-.235-.339-.215C29.372,32.738,28.915,32.813,28.731,33.3Zm-4.887-2.82c-.052.212-.147.367-.11.5.069.244.63.277.777.011.08-.143-.042-.4-.072-.608ZM61.659,45.573l.623-.275a2.964,2.964,0,0,0-.377-.52c-.045-.042-.339.056-.344.116A2.9,2.9,0,0,0,61.659,45.573ZM53.286,37c-.105-.192-.154-.391-.234-.407a.648.648,0,0,0-.395.125c-.034.02-.016.2-.013.2C52.842,36.958,53.041,36.978,53.286,37Zm3.827,5.823c.1-.062.282-.11.292-.186.013-.121-.089-.261-.141-.393-.109.067-.288.116-.306.2C56.937,42.559,57.054,42.7,57.112,42.826ZM40.877,39.6a.765.765,0,0,0-.118-.176c-.018-.016-.092.036-.141.056a.62.62,0,0,0,.114.172C40.752,39.671,40.826,39.621,40.877,39.6Zm-2.663-15.16.192.031c-.005-.063,0-.177-.016-.181a1.479,1.479,0,0,0-.27-.013ZM37.038,34.48c-.049-.022-.107-.071-.141-.06-.056.018-.1.078-.141.119l.226.114Zm-3.832-1.4.2.065c-.015-.065-.009-.148-.047-.19s-.127-.047-.192-.069ZM60.03,45.422l.2.031a.71.71,0,0,0-.016-.19,1.468,1.468,0,0,0-.282-.013Zm7.208,12.367c-.015-.065-.007-.147-.047-.188s-.127-.049-.194-.071c.015.065.009.148.049.19S67.173,57.768,67.238,57.789Zm-20.7-18.018c.058.013.127.045.174.027.029-.011.022-.1.031-.154l-.286-.036ZM12.906.192c.062.009.136.043.181.02s.076-.1.112-.156L12.93,0Zm-1.265,5.2c.072.009.159.045.21.018s.081-.118.12-.179l-.311-.058ZM3.34,8l.033.127.089-.071ZM30.588,35.6l.034.13.092-.074Zm17.542.177a4,4,0,0,0,.456.076c.067,0,.136-.049.2-.076-.1-.074-.217-.224-.286-.206a1.11,1.11,0,0,0-.353.248c-.232.007-.516-.063-.681.042-.208.134-.007.529.386.7.26.114.452.016.391-.311C48.219,36.095,48.17,35.939,48.13,35.781ZM40.008,47.455l-.221-.313c-.335.172-.684.324-1,.525a.5.5,0,0,0,.016.793.64.64,0,0,0,.59-.074A6.09,6.09,0,0,0,40.008,47.455Zm15.98.3c-.23.121-.512.181-.59.344-.058.123.118.4.246.572a.593.593,0,0,0,.413.237,1.214,1.214,0,0,0,.592-.264c.054-.045-.007-.315-.094-.418A4.028,4.028,0,0,0,55.988,47.752ZM52.2,50.889c-.53-.17-.777.27-1.1.489-.072.047.02.386.1.561a.433.433,0,0,0,.393.04C51.919,51.7,52.274,51.419,52.2,50.889Zm5.926,3.559c-.053-.215-.045-.4-.136-.5-.175-.192-.671.038-.673.349,0,.165.226.346.349.52Zm-11.171,1.62c.069-.034.177-.052.194-.1a.777.777,0,0,0-.018-.286l-.331.15Zm1.51-2.905-.2.033c.042.052.076.13.13.15s.129-.014.2-.025Zm1.057-3.515-.091-.1-.043.11ZM47.819,25.572a3.736,3.736,0,0,0-.226.384.566.566,0,0,0,0,.221c.1-.056.281-.1.29-.168a1.3,1.3,0,0,0-.11-.434c.073-.214.234-.443.192-.641-.053-.25-.489-.243-.78.04-.194.188-.168.407.157.5C47.5,25.514,47.66,25.54,47.819,25.572ZM40.424,20.35,40.7,20.3c-.036-.288-.052-.577-.11-.862-.049-.232-.4-.4-.556-.255a.462.462,0,0,0-.1.429A5.358,5.358,0,0,0,40.424,20.35Zm-2.438,9.715c-.025-.2.005-.411-.089-.519-.071-.081-.31-.054-.462-.024a.379.379,0,0,0-.268.2.924.924,0,0,0,.033.494c.016.053.221.1.315.074A2.553,2.553,0,0,0,37.986,30.065ZM24.041,23.93c.219.047.389.138.512.1.237-.074.192-.63-.1-.771-.154-.074-.4.051-.6.087Zm8.415-9.645c-.016.047-.058.107-.042.139.027.056.092.094.141.139l.081-.228ZM30.87,17.5l.058-.3c-.1.024-.223.018-.277.078s-.045.188-.065.286Zm4.353,3.807.19-.056-.132-.134Zm-.36,4.268c-.051.009-.125,0-.145.033a.491.491,0,0,0-.038.183l.243-.038Zm-3.8,1.072.19-.062c-.051-.047-.1-.119-.15-.132s-.125.034-.188.056Zm-.514,3.662.105.089.025-.116Zm18.57,3.754c-.043-.031-.09-.091-.127-.087a.486.486,0,0,0-.166.085l.2.157Zm-3.5-2.149.181.1c0-.067.022-.145-.007-.194s-.114-.072-.176-.107Zm-3.122,1.9.007.132.105-.053Zm7.985,13.7c-.043-.031-.09-.091-.127-.087a.469.469,0,0,0-.167.085l.2.158ZM45.243,42.9l.3.038c-.04-.092-.056-.219-.127-.27s-.2-.033-.3-.043Zm-3.036,4.536.089.183.11-.138ZM20.594,38.565c.033.072.049.183.1.206a.794.794,0,0,0,.288.022l-.143-.349Zm2.954,5.367-.159-.268c-.051.081-.143.161-.141.244s.094.177.148.266ZM29.185,44l.1-.17-.183-.016Zm31.24,14,.031.127.091-.072ZM79.649,47.826l.083.215-.042-.217Z" transform="translate(35.774 22.444)"/></g></svg>