<svg xmlns="http://www.w3.org/2000/svg" width="182.367" height="184.188" viewBox="0 0 182.367 184.188"><defs><style>.a{fill:#fff;}</style></defs><g transform="translate(27.062 62.8)"><path class="a" d="M672.594,321.5a18.048,18.048,0,0,0,4.771-1.491c1.392-.632,3.055-.325,4.638-.7,4.347-.734,6.708-.067,8.8-.762a.135.135,0,0,0,.1.007,7.931,7.931,0,0,0,1.3-.53c.066-.031.729-.382.775-.566s1.018-1.279,1.194-1.581a3.445,3.445,0,0,1,.673-.637,3.115,3.115,0,0,0,.432-.721c.033-.048.313-.808.348-.854l.442-1.046.505-.32.657-.616s.5-.452.581-.44.361-.31.5-.535a58.344,58.344,0,0,0-16.292,3.833c-2.162.775-4.9,1.345-7.009,2.354a94.28,94.28,0,0,0-10.136,5.7C664.287,323.957,670.744,321.949,672.594,321.5Z" transform="translate(-652.053 -286.756)"/><path class="a" d="M661.7,353.134a3.756,3.756,0,0,0,1.207-.03c.2-.135,1.671-.123,1.888-.2s3.433.335,3.684.182a21,21,0,0,1,3.169.21,25.625,25.625,0,0,0,5.035,1.13c2.336.153,4.73-.532,7,.054a6.677,6.677,0,0,1,1.568.634c.105.384,1.139.91,1.139.91l.936,1.249a1.563,1.563,0,0,1,.965.681c.371.58,1.034,2.605,1.272,3.036s1.09,2.106,1.09,2.106.273,1.612.312,1.717l.527,1.438a6.536,6.536,0,0,1-.08,1.33.484.484,0,0,0,.35.627,2.642,2.642,0,0,0,1.442-1.6c.4-1.215.117-1.123.368-2.609s.609-2.789.609-2.789l.013-1.174c.13-.7.231-1.4.3-2.111l.5-1.67-.381-1.006a23.852,23.852,0,0,0-.332-3.745l-.967-2.062a2.656,2.656,0,0,1-.213-1.169,1.416,1.416,0,0,0,.146-.69s.044-.486.1-.939c.289-.4.575-.813.859-1.217a70.119,70.119,0,0,1,8.261-8.819c.586-.552,1.189-1.085,1.74-1.671.676-.717,1.272-1.507,1.875-2.287,2.825-3.651,4.292-6.063,7.547-9.338,1.023-.934,1.854-2.563,2.825-3.37,3.216-2.678,5.3-6.145,8.944-8.189a64.5,64.5,0,0,1,6.994-3.689c2.064-.816,3.912-1.6,5.84-2.313,1.492-.338,2.9-1.075,4.372-1.486,3.4-.949,3.119-1.463,6-1.332l1.786-.279c.208.049.849-.568,1.033-.676.1-.057,1.391-.447,1.471-.525,1.926-.158,1.7.126,3.663.282a16.718,16.718,0,0,1,2.078-.19,3.318,3.318,0,0,0,1.379.2,10.387,10.387,0,0,1,1.159.205c3.126.092,6.542,1.743,9.049,2.847.36.158-4.352,5-4.3,5.455,1.269.589,2.87,1.138,3.177,1.85.236.547-2.985,3.4-3.155,3.971-.568,1.908-3.462,3.98-4.9,5.339-.892.847-1.161,2.008-2,2.908-.368.394-.68.841-1.051,1.231-2.124,2.252-2.394,1.827-4.781,3.783-1.225,1-1.947,5.1-4.672,5.411-.021-.314.054-2.907-.181-2.533l-.023.038a41.09,41.09,0,0,0,2.182-10.233c-1.653-.982-4.311.164-5.178,1.077-5.165,5.437-2.467,1.737-3.942,6.72-.075.256-.151.492-.226.716-1.538,1.921-4.374,3.612-5.219,6.523a15.665,15.665,0,0,0-.488,5.574c-1.315-1.934-2.023-2.325-3.075-2.129-.995.941-1.975,1.113-2.607,2.19-.245.415-2.131.335-2.468.681-1.131,1.164-2.234.069-3.5,1.085a8.072,8.072,0,0,0-1.113,1.322c-.6.747-1.371.717-2.259,1.08.276.363-1.083,1.517-1,1.965,2.814-.337,12.07-1.261,16.28-2.627,0,.076,0,.156,0,.225-.087.982-.057,3.193-.056,4.168,0,.463-.1,1.514-.135,2.417-.074.609-.143,1.22-.221,1.827a3.034,3.034,0,0,0,1.259,2.638c1.985-1.678,3.3-5.168,7.312-14.574l4.247-2.515a49.032,49.032,0,0,0,8.443-5.782,23.64,23.64,0,0,0,4.395-4.42,22.923,22.923,0,0,1,2.87-3.265,34.205,34.205,0,0,0,3.819-4.337c1.072-1.509,2.17-3,3.2-4.541,5.388-8.347,3.725-6.966,1.827-9.887.481-.755,3.9-6.37,3.264-6.639-1.99-.85-3.963-1.757-6-2.461-1.6-.552-3.3-.795-4.93-1.248a38.982,38.982,0,0,0-16.293-1.327c-1.448.215-4.443-.064-6.541,1.175-2.692,1.588-3.188.859-5.877,1.55-2.811.722-5.07,2.571-7.81,3.367a4.439,4.439,0,0,0-.977.616c-.85.532-1.674,1.111-2.561,1.574-3.5,1.821-7.023,3.582-10.356,5.7-.5.317-.972.686-1.454,1.029a.709.709,0,0,0,.181.189.3.3,0,0,0,.066.033,1.291,1.291,0,0,0,.826.09.829.829,0,0,1,.317.186.5.5,0,0,1-.067.085c-2.4,1.826-3.528,5.234-5.923,7.066-.69.527-.873,1.788-1.729,1.936l-.3.222a2.5,2.5,0,0,1-1.858,2.463c.028.059-.547,2.515-.563,2.558-.512,1.441-1.691,1.21-3.113,2.115l.07.811c-.358.41.412,1.1.054,1.317-.543.813-2.208.486-2.653,1.228a.938.938,0,0,0,.061.159,12.274,12.274,0,0,1-.066,1.941l-2.715.744-.233.515.279,1.678.01.781-2.4.624-.514.338.412,1.842s.307.811.1.819a12.084,12.084,0,0,0-1.236.364h0c-.458.151-.867.291-.867.291l-.614.447.371,1.253c-.192.046-.358.148-.405.537-.074.591-.527,1.236-.663,1.837l-.392.107a1.086,1.086,0,0,0-.424.182c-.277.23-.281.683-.56.914a3.649,3.649,0,0,1-.767.5,5.133,5.133,0,0,0-.882.389,1.9,1.9,0,0,1-.552.286,10.857,10.857,0,0,1-1.809.471,20.38,20.38,0,0,1-2.353.143c-.627-.23-1.929-.7-2.036-.7-.14,0-2.052.424-2.052.424l-2.1.159-1.724-.213-1.3.428-1.99.213-.758.263a70.087,70.087,0,0,0-13.2,3.019l.115.678a5.4,5.4,0,0,0,1.606.233C659.426,353.39,661.7,353.134,661.7,353.134Z" transform="translate(-657.052 -296.117)"/><path class="a" d="M713.857,316.659c.975-.706,4.25-3.195,5.263-3.815a3.521,3.521,0,0,0,.749-.566c.827-.959,3.295-2.223,4.446-2.949,2.633-1.663,5.613-2.576,7.813-3.8,2.052-1.141,4.83-1.487,5.06-1.729,1.742-.97,4.222-1.12,5.329-2.19a3.075,3.075,0,0,1-.873-.456c-2.238-.148-15.39,1.916-24.324,7.119a19.88,19.88,0,0,0-2.564,1.583c-2.093,1.584-4.807,3.157-7.125,5.217-2.238,1.988-4.026,3.847-6.391,6.311-1.256,1.307-2.4,2.811-3.781,4.2-1.235,1.238-2.548,2.791-3.745,4.076a9.107,9.107,0,0,1-.786.842c-1.9,1.578-2.873,3.382-4.556,4.956-1.51,1.413-2.862,2.85-4.29,4.291.412.135,1.34-.69,1.819-1.079.074-.061.136-.115.208-.174l0,0q.145-.123.286-.236a15.878,15.878,0,0,1,2.655-1.724,11.479,11.479,0,0,0,1.256-.891,1.45,1.45,0,0,1,.939-.412,2.226,2.226,0,0,0,.683-.1.75.75,0,0,0,.181-.077,2.753,2.753,0,0,0,.479-.3c.008-.007.021-.023.03-.031,1.591-1.134,3.331-3.415,4.6-4.319,1.409-1.006,2.505-2.336,3.876-3.4C706.683,322.659,709.173,320.052,713.857,316.659Z" transform="translate(-639.706 -292.888)"/></g><g transform="translate(0 0)"><path class="a" d="M649.348,305.171l-8.78-2.788,1.305-4.108a2.965,2.965,0,1,1,5.646,1.794l-.711,2.238,3.132.995Zm-4.314-7.036a1.247,1.247,0,0,0-1.6.928l-.627,1.973,2.356.749.627-1.973A1.244,1.244,0,0,0,645.034,298.135Z" transform="translate(-640.568 -233.349)"/><path class="a" d="M653.508,293.1l-1.66-.135-1.671,3.581,1.169,1.185-.941,2.016-6.848-7.115L644.6,290.4l9.852.68Zm-7.654-.752,2.985,2.98,1.217-2.6Z" transform="translate(-638.65 -236.986)"/><path class="a" d="M649.551,291.207a4.676,4.676,0,0,1-1.315-6.72,4.188,4.188,0,0,1,3.981-1.993l-.225,1.865a2.492,2.492,0,0,0-2.3,1.075,3.028,3.028,0,0,0,5.073,3.3,2.5,2.5,0,0,0,.051-2.536l1.6-.969a4.218,4.218,0,0,1-.194,4.454A4.685,4.685,0,0,1,649.551,291.207Z" transform="translate(-636.211 -242.067)"/><path class="a" d="M658.3,285.8l-7.124-5.85,1.245-1.517,7.123,5.851Z" transform="translate(-633.762 -244.668)"/><path class="a" d="M660.715,284.153l-6.482-6.546,4.631-4.587,1.215,1.226-3.239,3.208,1.361,1.374,3.17-3.139,1.215,1.226-3.17,3.139,2.693,2.719Z" transform="translate(-631.799 -248.139)"/><path class="a" d="M665.277,278.6l-5.781-7.178,1.529-1.231,5.781,7.178Z" transform="translate(-628.421 -249.956)"/><path class="a" d="M664.809,273.472a4.677,4.677,0,0,1,1.591-6.659,4.19,4.19,0,0,1,4.448-.163l-.977,1.6a2.491,2.491,0,0,0-2.536.026,3.027,3.027,0,0,0,3.246,5.1,2.5,2.5,0,0,0,1.1-2.287l1.858-.217a4.223,4.223,0,0,1-2.024,3.971A4.685,4.685,0,0,1,664.809,273.472Z" transform="translate(-625.517 -252.587)"/><path class="a" d="M675.244,267.254a4.677,4.677,0,0,1,3.026-6.143,4.188,4.188,0,0,1,4.375.829l-1.308,1.348a2.49,2.49,0,0,0-2.481-.537,3.029,3.029,0,0,0,2.037,5.7,2.5,2.5,0,0,0,1.578-1.988l1.862.2a4.223,4.223,0,0,1-2.853,3.426A4.685,4.685,0,0,1,675.244,267.254Z" transform="translate(-618.512 -255.965)"/><path class="a" d="M690.021,267.628l-.878-1.415-3.871.781-.259,1.643-2.18.44,1.66-9.731,2.41-.486,5.3,8.328Zm-3.937-6.6-.625,4.168,2.815-.566Z" transform="translate(-613.446 -257.226)"/><path class="a" d="M692.872,267.39l-.545-7.465-2.684.2-.126-1.721,7.327-.537.125,1.722-2.671.2.545,7.463Z" transform="translate(-609.156 -257.865)"/><path class="a" d="M696.614,262.376A4.681,4.681,0,0,1,701.8,257.9a4.192,4.192,0,0,1,3.705,2.471l-1.732.731a2.491,2.491,0,0,0-2.075-1.463,3.028,3.028,0,0,0-.348,6.042,2.5,2.5,0,0,0,2.229-1.213l1.635.911a4.218,4.218,0,0,1-3.965,2.041A4.687,4.687,0,0,1,696.614,262.376Z" transform="translate(-604.607 -257.85)"/><path class="a" d="M710.374,268.878l.793-3.8-4.26-.888-.793,3.8-1.921-.4,1.883-9.02,1.919.4-.739,3.543,4.26.89.739-3.544,1.936.4-1.883,9.021Z" transform="translate(-599.738 -257.414)"/><path class="a" d="M720.346,272.709l-.282-3.732-1.307-.6-1.363,2.978-1.785-.816,3.835-8.381,3.92,1.794a2.88,2.88,0,0,1,1.591,3.994,2.667,2.667,0,0,1-2.985,1.643l.437,4.058Zm2.781-5.611a1.243,1.243,0,0,0-.732-1.688l-1.885-.862-1.036,2.261,1.886.864A1.25,1.25,0,0,0,723.128,267.1Z" transform="translate(-592.411 -255.108)"/><path class="a" d="M722.037,273.482l4.914-7.795,5.516,3.477-.921,1.461-3.856-2.431-1.031,1.637,3.774,2.379-.921,1.461-3.774-2.379-1.12,1.775,3.856,2.431-.921,1.461Z" transform="translate(-588.286 -252.845)"/><path class="a" d="M732.383,281.638l2.939-5.83-5.365,3.715-1.571-1.369,4.065-8.678,1.655,1.443L730.948,277l5.7-3.865,1.156,1.008-3.062,6.162,5.592-3.957,1.655,1.443-8.032,5.219Z" transform="translate(-584.213 -250.414)"/><path class="a" d="M738.584,286.64l.822-1.448-2.543-3.024-1.568.56-1.43-1.7,9.336-3.211,1.583,1.883-4.769,8.645Zm3.907-6.623-3.958,1.451,1.849,2.2Z" transform="translate(-580.695 -245.063)"/><path class="a" d="M741.663,292.415l1.816-3.269-.762-1.218-2.774,1.735L738.9,288l7.81-4.883L749,286.772a2.878,2.878,0,0,1-.87,4.208,2.664,2.664,0,0,1-3.4-.273l-1.868,3.628Zm5.406-3.152a1.244,1.244,0,0,0,.318-1.811l-1.1-1.757-2.108,1.318,1.1,1.757A1.249,1.249,0,0,0,747.069,289.263Z" transform="translate(-577.463 -241.659)"/><path class="a" d="M742.534,293.7l8.435-3.71,1.463,3.326c1.162,2.643.287,5.217-2.243,6.329-2.555,1.125-5.03.025-6.188-2.605Zm6.849,4.113a2.69,2.69,0,0,0,1.473-3.788l-.678-1.543L744.9,294.8l.673,1.53A2.763,2.763,0,0,0,749.383,297.809Z" transform="translate(-575.133 -237.252)"/><path class="a" d="M746.342,299.343l1.767.624a4.042,4.042,0,0,0-.42,3.159c.294,1.051.9,1.414,1.415,1.267,1.543-.432-.964-5.237,2.376-6.173,1.476-.412,3.057.522,3.643,2.61a5.129,5.129,0,0,1-.269,3.8l-1.7-.655a3.968,3.968,0,0,0,.248-2.853c-.223-.8-.7-1.153-1.228-1-1.4.391.974,5.222-2.338,6.148-1.624.455-3.175-.373-3.842-2.755A5.319,5.319,0,0,1,746.342,299.343Z" transform="translate(-573.082 -232.029)"/></g><g transform="translate(0.09 109.827)"><path class="a" d="M746.534,326.308l8.78,2.788-1.3,4.108a2.966,2.966,0,1,1-5.648-1.794l.711-2.238-3.133-.995Zm4.314,7.036a1.247,1.247,0,0,0,1.6-.928l.627-1.973-2.356-.749-.627,1.973A1.246,1.246,0,0,0,750.848,333.344Z" transform="translate(-573.036 -323.77)"/><path class="a" d="M742.968,338.477l1.66.135,1.671-3.581-1.169-1.185.941-2.016,6.848,7.115-1.039,2.228-9.852-.68Zm7.654.752-2.985-2.98-1.217,2.6Z" transform="translate(-575.548 -320.227)"/><path class="a" d="M746.423,340.441a4.675,4.675,0,0,1,1.315,6.72,4.186,4.186,0,0,1-3.981,1.993l.225-1.865a2.492,2.492,0,0,0,2.3-1.075,3.028,3.028,0,0,0-5.073-3.3,2.5,2.5,0,0,0-.051,2.536l-1.6.969a4.218,4.218,0,0,1,.194-4.454A4.685,4.685,0,0,1,746.423,340.441Z" transform="translate(-577.484 -315.221)"/><path class="a" d="M737.194,345.005l7.122,5.849-1.244,1.517-7.124-5.851Z" transform="translate(-579.449 -311.772)"/><path class="a" d="M734.768,348.12l6.483,6.546-4.633,4.587-1.215-1.226,3.239-3.208-1.361-1.374-3.168,3.139-1.215-1.226,3.168-3.139-2.692-2.719Z" transform="translate(-581.406 -309.773)"/><path class="a" d="M729.8,352.609l5.781,7.178-1.528,1.231-5.779-7.178Z" transform="translate(-584.376 -306.892)"/><path class="a" d="M731.132,358.206a4.677,4.677,0,0,1-1.589,6.659,4.193,4.193,0,0,1-4.449.163l.978-1.6a2.488,2.488,0,0,0,2.535-.026,3.027,3.027,0,0,0-3.246-5.1,2.491,2.491,0,0,0-1.1,2.287l-1.86.217a4.223,4.223,0,0,1,2.024-3.971A4.685,4.685,0,0,1,731.132,358.206Z" transform="translate(-588.146 -304.73)"/><path class="a" d="M720.648,364.416a4.678,4.678,0,0,1-3.027,6.143,4.189,4.189,0,0,1-4.375-.829l1.308-1.348a2.49,2.49,0,0,0,2.481.537,3.028,3.028,0,0,0-2.036-5.7,2.5,2.5,0,0,0-1.579,1.988l-1.862-.2a4.223,4.223,0,0,1,2.855-3.426A4.686,4.686,0,0,1,720.648,364.416Z" transform="translate(-595.101 -301.344)"/><path class="a" d="M705.86,364.287l.877,1.415,3.871-.782.259-1.643,2.18-.44-1.66,9.731-2.408.486-5.3-8.329Zm3.937,6.6.624-4.168-2.816.566Z" transform="translate(-600.157 -300.328)"/><path class="a" d="M702.259,364.254l.545,7.465,2.686-.2.125,1.721-7.326.537-.126-1.722,2.671-.2-.545-7.463Z" transform="translate(-603.697 -299.419)"/><path class="a" d="M699.083,369.273a4.679,4.679,0,0,1-5.185,4.477,4.188,4.188,0,0,1-3.705-2.471l1.73-.731A2.491,2.491,0,0,0,694,372.012a3.029,3.029,0,0,0,.348-6.042,2.5,2.5,0,0,0-2.23,1.213l-1.635-.911a4.22,4.22,0,0,1,3.965-2.041A4.686,4.686,0,0,1,699.083,369.273Z" transform="translate(-608.812 -299.439)"/><path class="a" d="M685.751,363.231l-.793,3.8,4.26.888.793-3.8,1.921.4-1.883,9.02-1.919-.4.739-3.543-4.26-.89-.739,3.545-1.934-.4,1.881-9.021Z" transform="translate(-614.111 -300.335)"/><path class="a" d="M675.643,359.7l.282,3.732,1.307.6,1.363-2.978,1.785.816-3.835,8.381-3.92-1.794a2.88,2.88,0,0,1-1.591-3.994,2.668,2.668,0,0,1,2.986-1.643l-.438-4.058Zm-2.781,5.611a1.246,1.246,0,0,0,.732,1.688l1.885.862,1.036-2.261-1.885-.863A1.251,1.251,0,0,0,672.862,365.315Z" transform="translate(-621.301 -302.944)"/><path class="a" d="M674.258,358.845l-4.914,7.795-5.516-3.477.921-1.459,3.856,2.43,1.033-1.637-3.776-2.379.921-1.461,3.774,2.379,1.12-1.775-3.856-2.431.921-1.461Z" transform="translate(-625.731 -305.121)"/><path class="a" d="M665.151,351.573l-2.939,5.83,5.365-3.715,1.571,1.369-4.065,8.678-1.655-1.443,3.157-6.079-5.7,3.865-1.156-1.008,3.063-6.16-5.593,3.955-1.655-1.443,8.031-5.219Z" transform="translate(-631.044 -308.437)"/><path class="a" d="M657.9,345.4l-.822,1.448,2.543,3.024,1.568-.56,1.43,1.7-9.336,3.211-1.581-1.883,4.768-8.645Zm-3.907,6.623,3.958-1.451-1.849-2.2Z" transform="translate(-633.513 -312.613)"/><path class="a" d="M654.717,339.891,652.9,343.16l.762,1.218,2.774-1.735,1.039,1.663-7.81,4.883-2.284-3.655a2.879,2.879,0,0,1,.87-4.208,2.664,2.664,0,0,1,3.4.273l1.868-3.628Zm-5.406,3.152a1.245,1.245,0,0,0-.319,1.811l1.1,1.757,2.108-1.318-1.1-1.757A1.248,1.248,0,0,0,649.311,343.043Z" transform="translate(-636.64 -316.286)"/><path class="a" d="M653.751,338.17l-8.434,3.71-1.464-3.326c-1.162-2.643-.286-5.217,2.243-6.329,2.555-1.125,5.03-.025,6.188,2.605Zm-6.849-4.112a2.69,2.69,0,0,0-1.473,3.787l.678,1.543,5.273-2.32-.671-1.53A2.765,2.765,0,0,0,646.9,334.058Z" transform="translate(-638.875 -320.254)"/><path class="a" d="M649.64,331.808l-1.766-.624a4.049,4.049,0,0,0,.422-3.159c-.294-1.051-.9-1.414-1.417-1.267-1.543.432.964,5.239-2.374,6.173-1.478.414-3.059-.522-3.643-2.61a5.122,5.122,0,0,1,.269-3.8l1.7.655a3.951,3.951,0,0,0-.248,2.853c.223.8.695,1.153,1.226,1,1.4-.391-.973-5.222,2.339-6.148,1.622-.455,3.174.373,3.84,2.755A5.312,5.312,0,0,1,649.64,331.808Z" transform="translate(-640.623 -324.762)"/></g></svg>