<svg xmlns="http://www.w3.org/2000/svg" width="194.357" height="196.297" viewBox="0 0 194.357 196.297"><defs><style>.a{fill:#31506c;}</style></defs><g transform="translate(28.842 66.928)"><path class="a" d="M673.1,322.209a19.236,19.236,0,0,0,5.084-1.589c1.484-.674,3.256-.346,4.943-.749,4.633-.782,7.149-.072,9.38-.812a.144.144,0,0,0,.107.007,8.442,8.442,0,0,0,1.389-.565c.07-.033.777-.408.826-.6s1.085-1.363,1.272-1.685a3.671,3.671,0,0,1,.717-.679,3.311,3.311,0,0,0,.46-.768c.035-.051.334-.861.371-.91l.471-1.115.539-.341.7-.656s.528-.481.619-.469.385-.331.537-.57a62.181,62.181,0,0,0-17.364,4.086c-2.3.826-5.217,1.433-7.469,2.509a100.483,100.483,0,0,0-10.8,6.071C664.25,324.828,671.132,322.688,673.1,322.209Z" transform="translate(-651.212 -285.181)"/><path class="a" d="M662,356.883a4,4,0,0,0,1.286-.031c.21-.143,1.781-.131,2.012-.215s3.658.357,3.926.194a22.369,22.369,0,0,1,3.377.224,27.307,27.307,0,0,0,5.366,1.2c2.49.163,5.041-.567,7.457.058a7.115,7.115,0,0,1,1.671.675c.112.409,1.214.969,1.214.969l1,1.331a1.665,1.665,0,0,1,1.029.726c.4.618,1.1,2.777,1.356,3.235s1.162,2.245,1.162,2.245.29,1.718.332,1.83l.562,1.533a6.965,6.965,0,0,1-.086,1.417.516.516,0,0,0,.373.668,2.815,2.815,0,0,0,1.536-1.708c.429-1.295.124-1.2.392-2.78s.649-2.973.649-2.973l.014-1.251c.138-.745.247-1.5.32-2.25l.53-1.779-.406-1.073a25.409,25.409,0,0,0-.353-3.991l-1.031-2.2a2.831,2.831,0,0,1-.227-1.246,1.509,1.509,0,0,0,.156-.735s.047-.518.11-1c.308-.43.612-.866.915-1.3a74.745,74.745,0,0,1,8.8-9.4c.625-.588,1.267-1.156,1.855-1.781.721-.764,1.356-1.606,2-2.437,3.011-3.891,4.574-6.462,8.043-9.952,1.09-1,1.975-2.731,3.011-3.592,3.428-2.854,5.653-6.549,9.532-8.727a68.755,68.755,0,0,1,7.454-3.931c2.2-.87,4.17-1.7,6.224-2.465,1.59-.36,3.088-1.146,4.659-1.583,3.623-1.011,3.324-1.559,6.393-1.419l1.9-.3c.222.052.9-.605,1.1-.721.1-.061,1.482-.476,1.568-.56,2.052-.168,1.816.135,3.9.3a17.816,17.816,0,0,1,2.215-.2,3.536,3.536,0,0,0,1.47.217,11.059,11.059,0,0,1,1.235.219c3.331.1,6.973,1.858,9.644,3.034.383.168-4.638,5.324-4.581,5.814,1.353.628,3.059,1.213,3.386,1.972.252.583-3.181,3.62-3.363,4.232-.606,2.033-3.69,4.241-5.217,5.69-.95.9-1.237,2.14-2.133,3.1-.392.42-.724.9-1.12,1.312-2.264,2.4-2.551,1.947-5.1,4.031-1.305,1.067-2.075,5.44-4.98,5.767-.023-.334.058-3.1-.192-2.7l-.024.04a43.789,43.789,0,0,0,2.325-10.906c-1.762-1.046-4.595.175-5.518,1.148-5.5,5.795-2.63,1.851-4.2,7.161-.08.273-.161.525-.241.763-1.64,2.047-4.661,3.849-5.562,6.952a16.694,16.694,0,0,0-.52,5.94c-1.4-2.061-2.156-2.478-3.277-2.269-1.06,1-2.1,1.186-2.778,2.334-.261.443-2.271.357-2.63.726-1.205,1.241-2.381.073-3.73,1.156a8.608,8.608,0,0,0-1.186,1.409c-.642.8-1.461.765-2.407,1.151.294.387-1.155,1.617-1.069,2.094,3-.359,12.864-1.344,17.35-2.8,0,.081,0,.166-.005.24-.093,1.046-.061,3.4-.059,4.442,0,.493-.11,1.613-.143,2.575-.079.649-.152,1.3-.236,1.947a3.234,3.234,0,0,0,1.342,2.812c2.115-1.788,3.517-5.508,7.793-15.532l4.526-2.68a52.253,52.253,0,0,0,9-6.162,25.19,25.19,0,0,0,4.684-4.71,24.438,24.438,0,0,1,3.059-3.48,36.458,36.458,0,0,0,4.07-4.623c1.143-1.608,2.313-3.2,3.41-4.84,5.742-8.9,3.97-7.424,1.947-10.536.513-.8,4.152-6.789,3.478-7.076-2.121-.906-4.224-1.872-6.4-2.623-1.7-.588-3.513-.847-5.254-1.33a41.546,41.546,0,0,0-17.364-1.414c-1.543.229-4.735-.068-6.971,1.253-2.869,1.692-3.4.915-6.264,1.652-3,.77-5.4,2.74-8.323,3.589a4.73,4.73,0,0,0-1.041.656c-.906.567-1.785,1.184-2.729,1.678-3.725,1.94-7.485,3.818-11.037,6.071-.535.338-1.036.731-1.55,1.1a.756.756,0,0,0,.193.2.322.322,0,0,0,.07.035,1.376,1.376,0,0,0,.88.1.883.883,0,0,1,.338.2.54.54,0,0,1-.072.091c-2.56,1.946-3.76,5.578-6.313,7.531-.735.562-.931,1.905-1.842,2.063l-.322.236a2.668,2.668,0,0,1-1.98,2.625c.03.063-.583,2.68-.6,2.726-.546,1.536-1.8,1.29-3.317,2.254l.075.864c-.381.437.439,1.169.058,1.4-.579.866-2.353.518-2.827,1.309a.987.987,0,0,0,.065.17,13.082,13.082,0,0,1-.07,2.068l-2.894.793-.248.549.3,1.788.011.833-2.56.665-.548.36.439,1.963s.327.864.1.873a12.883,12.883,0,0,0-1.317.388h0c-.488.161-.924.31-.924.31l-.654.476.4,1.335c-.2.049-.381.158-.432.572-.079.63-.562,1.318-.707,1.958l-.418.114a1.155,1.155,0,0,0-.451.194c-.3.245-.3.728-.6.975a3.892,3.892,0,0,1-.817.534,5.472,5.472,0,0,0-.94.415,2.019,2.019,0,0,1-.588.3,11.57,11.57,0,0,1-1.928.5,21.718,21.718,0,0,1-2.507.152c-.669-.245-2.056-.749-2.17-.745-.149,0-2.187.451-2.187.451l-2.241.17-1.837-.227-1.384.457-2.121.227-.808.28a74.7,74.7,0,0,0-14.065,3.218l.122.723a5.76,5.76,0,0,0,1.711.248C659.582,357.156,662,356.883,662,356.883Z" transform="translate(-657.052 -296.117)"/><path class="a" d="M715.815,317.679c1.039-.752,4.53-3.4,5.609-4.066a3.75,3.75,0,0,0,.8-.6c.882-1.022,3.512-2.369,4.738-3.142,2.807-1.773,5.982-2.745,8.327-4.047,2.187-1.216,5.148-1.585,5.393-1.842,1.856-1.034,4.5-1.193,5.679-2.334a3.28,3.28,0,0,1-.931-.486c-2.385-.158-16.4,2.042-25.923,7.587a21.184,21.184,0,0,0-2.733,1.687c-2.231,1.688-5.123,3.365-7.594,5.56-2.385,2.119-4.29,4.1-6.812,6.726-1.338,1.393-2.554,3-4.029,4.476-1.316,1.319-2.716,2.974-3.991,4.344a9.7,9.7,0,0,1-.838.9c-2.028,1.681-3.062,3.6-4.855,5.282-1.61,1.506-3.05,3.037-4.572,4.574.439.143,1.428-.735,1.939-1.149.079-.065.145-.122.222-.185l0,.005q.155-.131.3-.252a16.927,16.927,0,0,1,2.829-1.837,12.219,12.219,0,0,0,1.338-.95,1.547,1.547,0,0,1,1-.439,2.374,2.374,0,0,0,.728-.11.8.8,0,0,0,.193-.082,2.933,2.933,0,0,0,.511-.324c.009-.007.023-.024.031-.033,1.7-1.209,3.55-3.639,4.9-4.6,1.5-1.073,2.67-2.49,4.131-3.623C708.169,324.074,710.823,321.3,715.815,317.679Z" transform="translate(-636.789 -292.345)"/></g><g transform="translate(0 0)"><path class="a" d="M649.925,305.77l-9.357-2.971,1.391-4.378a3.16,3.16,0,1,1,6.017,1.912l-.758,2.385,3.338,1.06Zm-4.6-7.5a1.329,1.329,0,0,0-1.7.989l-.668,2.1,2.511.8.668-2.1A1.326,1.326,0,0,0,645.327,298.271Z" transform="translate(-640.568 -229.225)"/><path class="a" d="M654.162,293.273l-1.769-.143-1.781,3.816,1.246,1.263-1,2.149-7.3-7.583,1.107-2.374,10.5.724Zm-8.157-.8,3.181,3.176,1.3-2.775Z" transform="translate(-638.327 -233.475)"/><path class="a" d="M649.695,291.781a4.984,4.984,0,0,1-1.4-7.161,4.463,4.463,0,0,1,4.243-2.124l-.24,1.988a2.656,2.656,0,0,0-2.448,1.146,3.227,3.227,0,0,0,5.406,3.515,2.66,2.66,0,0,0,.054-2.7l1.706-1.032a4.5,4.5,0,0,1-.207,4.747A4.993,4.993,0,0,1,649.695,291.781Z" transform="translate(-635.479 -239.41)"/><path class="a" d="M658.765,286.28l-7.592-6.234,1.326-1.617,7.592,6.236Z" transform="translate(-632.618 -242.449)"/><path class="a" d="M661.141,284.885l-6.908-6.976,4.936-4.889,1.295,1.307-3.452,3.419,1.451,1.464,3.379-3.345,1.295,1.307-3.378,3.345,2.869,2.9Z" transform="translate(-630.324 -246.504)"/><path class="a" d="M665.657,279.152,659.5,271.5l1.629-1.312,6.161,7.65Z" transform="translate(-626.378 -248.625)"/><path class="a" d="M664.861,273.957a4.984,4.984,0,0,1,1.7-7.1,4.466,4.466,0,0,1,4.74-.173l-1.041,1.709a2.655,2.655,0,0,0-2.7.028,3.226,3.226,0,0,0,3.459,5.44,2.659,2.659,0,0,0,1.172-2.437l1.981-.231a4.5,4.5,0,0,1-2.157,4.232A4.993,4.993,0,0,1,664.861,273.957Z" transform="translate(-622.986 -251.7)"/><path class="a" d="M675.264,267.677a4.985,4.985,0,0,1,3.224-6.547,4.463,4.463,0,0,1,4.663.884l-1.394,1.437a2.654,2.654,0,0,0-2.644-.572,3.228,3.228,0,0,0,2.171,6.073,2.662,2.662,0,0,0,1.682-2.119l1.984.214a4.5,4.5,0,0,1-3.041,3.652A4.992,4.992,0,0,1,675.264,267.677Z" transform="translate(-614.802 -255.646)"/><path class="a" d="M690.494,268.2l-.936-1.508-4.126.833-.276,1.751-2.324.469,1.769-10.37,2.568-.518,5.646,8.876Zm-4.2-7.035-.666,4.442,3-.6Z" transform="translate(-608.884 -257.118)"/><path class="a" d="M693.092,268.017l-.581-7.956-2.861.21-.135-1.834,7.809-.572.133,1.835-2.847.208.581,7.954Z" transform="translate(-603.873 -257.865)"/><path class="a" d="M696.614,262.671a4.988,4.988,0,0,1,5.527-4.771,4.468,4.468,0,0,1,3.949,2.633l-1.846.779a2.655,2.655,0,0,0-2.212-1.559,3.228,3.228,0,0,0-.371,6.439,2.659,2.659,0,0,0,2.376-1.293l1.743.971a4.5,4.5,0,0,1-4.225,2.175A5,5,0,0,1,696.614,262.671Z" transform="translate(-598.559 -257.847)"/><path class="a" d="M710.78,269.556l.845-4.05-4.54-.947-.845,4.05-2.047-.429,2.007-9.613,2.045.427-.787,3.776,4.54.948.787-3.778,2.063.43-2.007,9.614Z" transform="translate(-592.87 -257.338)"/><path class="a" d="M720.658,273.4l-.3-3.977-1.393-.637-1.452,3.174-1.9-.87,4.088-8.932,4.178,1.912a3.069,3.069,0,0,1,1.7,4.257,2.842,2.842,0,0,1-3.181,1.751l.465,4.325Zm2.964-5.98a1.325,1.325,0,0,0-.78-1.8l-2.009-.919-1.1,2.409,2.01.92A1.332,1.332,0,0,0,723.622,267.422Z" transform="translate(-584.311 -254.645)"/><path class="a" d="M722.037,273.994l5.237-8.307,5.879,3.706-.982,1.557-4.11-2.591-1.1,1.744,4.023,2.535L730,274.2l-4.022-2.535-1.193,1.891,4.11,2.591-.982,1.557Z" transform="translate(-579.493 -252.001)"/><path class="a" d="M732.646,282.438l3.132-6.213-5.718,3.96-1.675-1.459,4.332-9.249,1.764,1.538-3.364,6.479,6.071-4.119,1.232,1.074-3.263,6.567,5.959-4.217,1.764,1.538-8.56,5.562Z" transform="translate(-574.734 -249.161)"/><path class="a" d="M738.894,287.22l.877-1.543-2.71-3.223-1.671.6-1.524-1.814,9.95-3.422,1.687,2.007-5.083,9.214Zm4.164-7.058-4.218,1.547,1.97,2.345Z" transform="translate(-570.626 -242.91)"/><path class="a" d="M741.844,293.026l1.935-3.484-.812-1.3-2.957,1.849-1.108-1.772,8.323-5.2,2.434,3.895a3.067,3.067,0,0,1-.927,4.484,2.839,2.839,0,0,1-3.618-.29l-1.991,3.867Zm5.762-3.359a1.325,1.325,0,0,0,.339-1.93l-1.171-1.872-2.247,1.405,1.171,1.872A1.331,1.331,0,0,0,747.606,289.667Z" transform="translate(-566.849 -238.934)"/><path class="a" d="M742.534,293.94l8.99-3.954,1.559,3.545c1.239,2.817.306,5.56-2.39,6.745-2.723,1.2-5.361.026-6.595-2.777Zm7.3,4.383a2.866,2.866,0,0,0,1.569-4.037l-.722-1.645-5.62,2.472.717,1.631A2.944,2.944,0,0,0,749.834,298.323Z" transform="translate(-564.128 -233.785)"/><path class="a" d="M746.382,299.423l1.883.665a4.307,4.307,0,0,0-.448,3.366c.313,1.12.955,1.507,1.508,1.351,1.645-.46-1.027-5.581,2.532-6.579,1.573-.439,3.258.556,3.882,2.782a5.466,5.466,0,0,1-.287,4.054l-1.816-.7a4.229,4.229,0,0,0,.264-3.041c-.238-.85-.742-1.228-1.309-1.071-1.489.416,1.037,5.566-2.492,6.552-1.73.485-3.384-.4-4.094-2.936A5.669,5.669,0,0,1,746.382,299.423Z" transform="translate(-561.731 -227.683)"/></g><g transform="translate(0.096 117.048)"><path class="a" d="M746.573,326.308l9.357,2.971-1.389,4.378a3.161,3.161,0,1,1-6.019-1.912l.757-2.385-3.339-1.06Zm4.6,7.5a1.329,1.329,0,0,0,1.7-.988l.669-2.1-2.511-.8-.668,2.1A1.328,1.328,0,0,0,751.171,333.807Z" transform="translate(-561.669 -323.603)"/><path class="a" d="M743.03,338.914l1.769.143,1.781-3.816-1.246-1.263,1-2.149,7.3,7.583-1.108,2.374-10.5-.724Zm8.157.8-3.181-3.176-1.3,2.775Z" transform="translate(-564.603 -319.464)"/><path class="a" d="M746.91,340.494a4.982,4.982,0,0,1,1.4,7.161,4.461,4.461,0,0,1-4.243,2.124l.24-1.988a2.656,2.656,0,0,0,2.448-1.146,3.227,3.227,0,0,0-5.407-3.515,2.661,2.661,0,0,0-.054,2.7l-1.706,1.032a4.5,4.5,0,0,1,.206-4.747A4.993,4.993,0,0,1,746.91,340.494Z" transform="translate(-566.865 -313.616)"/><path class="a" d="M737.276,345.005l7.59,6.234-1.326,1.617-7.592-6.236Z" transform="translate(-569.161 -309.587)"/><path class="a" d="M734.891,348.12l6.91,6.976-4.938,4.889-1.295-1.307,3.452-3.419-1.45-1.464-3.377,3.345-1.295-1.307,3.377-3.345-2.869-2.9Z" transform="translate(-571.447 -307.252)"/><path class="a" d="M729.9,352.609l6.161,7.649-1.629,1.312-6.159-7.649Z" transform="translate(-574.916 -303.886)"/><path class="a" d="M731.706,358.352a4.984,4.984,0,0,1-1.694,7.1,4.468,4.468,0,0,1-4.742.173l1.043-1.709a2.651,2.651,0,0,0,2.7-.028,3.226,3.226,0,0,0-3.459-5.44,2.655,2.655,0,0,0-1.171,2.437l-1.982.231a4.5,4.5,0,0,1,2.157-4.232A4.993,4.993,0,0,1,731.706,358.352Z" transform="translate(-579.32 -301.361)"/><path class="a" d="M721.246,364.623a4.986,4.986,0,0,1-3.226,6.547,4.465,4.465,0,0,1-4.663-.884l1.394-1.436a2.654,2.654,0,0,0,2.644.572,3.227,3.227,0,0,0-2.17-6.073,2.66,2.66,0,0,0-1.683,2.119l-1.984-.213A4.5,4.5,0,0,1,714.6,361.6,4.994,4.994,0,0,1,721.246,364.623Z" transform="translate(-587.445 -297.405)"/><path class="a" d="M706,364.382l.934,1.508,4.126-.833.277-1.751,2.323-.469-1.769,10.37-2.567.518-5.648-8.876Zm4.2,7.035.665-4.442-3,.6Z" transform="translate(-593.351 -296.219)"/><path class="a" d="M702.528,364.254l.581,7.956,2.862-.21.133,1.834-7.807.572-.135-1.835,2.847-.208-.581-7.954Z" transform="translate(-597.487 -295.157)"/><path class="a" d="M699.667,369.605a4.987,4.987,0,0,1-5.525,4.771,4.463,4.463,0,0,1-3.949-2.633l1.844-.779a2.654,2.654,0,0,0,2.211,1.559,3.228,3.228,0,0,0,.371-6.439,2.659,2.659,0,0,0-2.376,1.293l-1.743-.971a4.5,4.5,0,0,1,4.226-2.175A4.994,4.994,0,0,1,699.667,369.605Z" transform="translate(-603.461 -295.18)"/><path class="a" d="M686,363.257l-.845,4.05,4.54.947.845-4.05,2.047.429-2.007,9.613-2.045-.427.787-3.776-4.54-.948L684,372.872l-2.061-.43,2.005-9.614Z" transform="translate(-609.651 -296.226)"/><path class="a" d="M675.966,359.765l.3,3.977,1.393.637,1.452-3.174,1.9.87-4.087,8.932-4.178-1.912a3.07,3.07,0,0,1-1.7-4.257,2.844,2.844,0,0,1,3.183-1.751l-.467-4.325ZM673,365.746a1.328,1.328,0,0,0,.78,1.8l2.009.919,1.1-2.409-2.008-.92A1.334,1.334,0,0,0,673,365.746Z" transform="translate(-618.051 -299.274)"/><path class="a" d="M674.944,359.074l-5.237,8.307-5.879-3.706.982-1.555,4.11,2.589,1.1-1.744L666,360.43l.982-1.557L671,361.408l1.193-1.891-4.11-2.591.981-1.557Z" transform="translate(-623.226 -301.818)"/><path class="a" d="M665.783,351.663l-3.132,6.213,5.718-3.96,1.674,1.459-4.332,9.249-1.764-1.538,3.365-6.479-6.071,4.119-1.232-1.074,3.265-6.565-5.961,4.215-1.764-1.538,8.559-5.562Z" transform="translate(-629.433 -305.691)"/><path class="a" d="M658.309,345.508l-.876,1.543,2.71,3.223,1.671-.6,1.524,1.814-9.95,3.422-1.685-2.007,5.081-9.214Zm-4.164,7.058,4.219-1.547-1.97-2.345Z" transform="translate(-632.317 -310.57)"/><path class="a" d="M655.236,340.017,653.3,343.5l.812,1.3,2.957-1.849,1.108,1.772-8.323,5.2-2.434-3.895a3.068,3.068,0,0,1,.927-4.484,2.839,2.839,0,0,1,3.618.29l1.991-3.867Zm-5.762,3.359a1.326,1.326,0,0,0-.339,1.93l1.17,1.872,2.246-1.405-1.171-1.872A1.33,1.33,0,0,0,649.474,343.377Z" transform="translate(-635.97 -314.861)"/><path class="a" d="M654.435,338.59l-8.988,3.954L643.886,339c-1.239-2.817-.3-5.56,2.39-6.745,2.723-1.2,5.361-.026,6.594,2.777Zm-7.3-4.383a2.866,2.866,0,0,0-1.57,4.036l.723,1.645,5.62-2.472-.716-1.631A2.947,2.947,0,0,0,647.135,334.207Z" transform="translate(-638.581 -319.496)"/><path class="a" d="M650.232,332.271l-1.883-.665a4.314,4.314,0,0,0,.45-3.366c-.313-1.12-.957-1.507-1.51-1.351-1.645.46,1.027,5.583-2.53,6.579-1.575.441-3.26-.556-3.882-2.782a5.458,5.458,0,0,1,.287-4.054l1.816.7a4.21,4.21,0,0,0-.264,3.041c.238.85.74,1.228,1.307,1.071,1.489-.416-1.038-5.566,2.493-6.553,1.729-.485,3.382.4,4.092,2.936A5.662,5.662,0,0,1,650.232,332.271Z" transform="translate(-640.623 -324.762)"/></g></svg>