<svg xmlns="http://www.w3.org/2000/svg" width="194.357" height="196.297" viewBox="0 0 194.357 196.297">
  <g id="Group_411" data-name="Group 411" transform="translate(-1212.168 -603)">
    <g id="Group_260" data-name="Group 260" transform="translate(1212.168 603)">
      <path id="Path_4217" data-name="Path 4217" d="M649.925,305.77l-9.357-2.971,1.391-4.378a3.16,3.16,0,1,1,6.017,1.912l-.758,2.385,3.338,1.06Zm-4.6-7.5a1.329,1.329,0,0,0-1.7.989l-.668,2.1,2.511.8.668-2.1A1.326,1.326,0,0,0,645.327,298.271Z" transform="translate(-640.568 -229.225)" fill="#fff"/>
      <path id="Path_4218" data-name="Path 4218" d="M654.162,293.273l-1.769-.143-1.781,3.816,1.246,1.263-1,2.149-7.3-7.583,1.107-2.374,10.5.724Zm-8.157-.8,3.181,3.176,1.3-2.775Z" transform="translate(-638.327 -233.475)" fill="#fff"/>
      <path id="Path_4219" data-name="Path 4219" d="M649.695,291.781a4.984,4.984,0,0,1-1.4-7.161,4.463,4.463,0,0,1,4.243-2.124l-.24,1.988a2.656,2.656,0,0,0-2.448,1.146,3.227,3.227,0,0,0,5.406,3.515,2.66,2.66,0,0,0,.054-2.7l1.706-1.032a4.5,4.5,0,0,1-.207,4.747A4.993,4.993,0,0,1,649.695,291.781Z" transform="translate(-635.479 -239.41)" fill="#fff"/>
      <path id="Path_4220" data-name="Path 4220" d="M658.765,286.28l-7.592-6.234,1.326-1.617,7.592,6.236Z" transform="translate(-632.618 -242.449)" fill="#fff"/>
      <path id="Path_4221" data-name="Path 4221" d="M661.141,284.885l-6.908-6.976,4.936-4.889,1.295,1.307-3.452,3.419,1.451,1.464,3.379-3.345,1.295,1.307-3.378,3.345,2.869,2.9Z" transform="translate(-630.324 -246.504)" fill="#fff"/>
      <path id="Path_4222" data-name="Path 4222" d="M665.657,279.152,659.5,271.5l1.629-1.312,6.161,7.65Z" transform="translate(-626.378 -248.625)" fill="#fff"/>
      <path id="Path_4223" data-name="Path 4223" d="M664.861,273.957a4.984,4.984,0,0,1,1.7-7.1,4.466,4.466,0,0,1,4.74-.173l-1.041,1.709a2.655,2.655,0,0,0-2.7.028,3.226,3.226,0,0,0,3.459,5.44,2.659,2.659,0,0,0,1.172-2.437l1.981-.231a4.5,4.5,0,0,1-2.157,4.232A4.993,4.993,0,0,1,664.861,273.957Z" transform="translate(-622.986 -251.7)" fill="#fff"/>
      <path id="Path_4224" data-name="Path 4224" d="M675.264,267.677a4.985,4.985,0,0,1,3.224-6.547,4.463,4.463,0,0,1,4.663.884l-1.394,1.437a2.654,2.654,0,0,0-2.644-.572,3.228,3.228,0,0,0,2.171,6.073,2.662,2.662,0,0,0,1.682-2.119l1.984.214a4.5,4.5,0,0,1-3.041,3.652A4.992,4.992,0,0,1,675.264,267.677Z" transform="translate(-614.802 -255.646)" fill="#fff"/>
      <path id="Path_4225" data-name="Path 4225" d="M690.494,268.2l-.936-1.508-4.126.833-.276,1.751-2.324.469,1.769-10.37,2.568-.518,5.646,8.876Zm-4.2-7.035-.666,4.442,3-.6Z" transform="translate(-608.884 -257.118)" fill="#fff"/>
      <path id="Path_4226" data-name="Path 4226" d="M693.092,268.017l-.581-7.956-2.861.21-.135-1.834,7.809-.572.133,1.835-2.847.208.581,7.954Z" transform="translate(-603.873 -257.865)" fill="#fff"/>
      <path id="Path_4227" data-name="Path 4227" d="M696.614,262.671a4.988,4.988,0,0,1,5.527-4.771,4.468,4.468,0,0,1,3.949,2.633l-1.846.779a2.655,2.655,0,0,0-2.212-1.559,3.228,3.228,0,0,0-.371,6.439,2.659,2.659,0,0,0,2.376-1.293l1.743.971a4.5,4.5,0,0,1-4.225,2.175A5,5,0,0,1,696.614,262.671Z" transform="translate(-598.559 -257.847)" fill="#fff"/>
      <path id="Path_4228" data-name="Path 4228" d="M710.78,269.556l.845-4.05-4.54-.947-.845,4.05-2.047-.429,2.007-9.613,2.045.427-.787,3.776,4.54.948.787-3.778,2.063.43-2.007,9.614Z" transform="translate(-592.87 -257.338)" fill="#fff"/>
      <path id="Path_4229" data-name="Path 4229" d="M720.658,273.4l-.3-3.977-1.393-.637-1.452,3.174-1.9-.87,4.088-8.932,4.178,1.912a3.069,3.069,0,0,1,1.7,4.257,2.842,2.842,0,0,1-3.181,1.751l.465,4.325Zm2.964-5.98a1.325,1.325,0,0,0-.78-1.8l-2.009-.919-1.1,2.409,2.01.92A1.332,1.332,0,0,0,723.622,267.422Z" transform="translate(-584.311 -254.645)" fill="#fff"/>
      <path id="Path_4230" data-name="Path 4230" d="M722.037,273.994l5.237-8.307,5.879,3.706-.982,1.557-4.11-2.591-1.1,1.744,4.023,2.535L730,274.2l-4.022-2.535-1.193,1.891,4.11,2.591-.982,1.557Z" transform="translate(-579.493 -252.001)" fill="#fff"/>
      <path id="Path_4231" data-name="Path 4231" d="M732.646,282.438l3.132-6.213-5.718,3.96-1.675-1.459,4.332-9.249,1.764,1.538-3.364,6.479,6.071-4.119,1.232,1.074-3.263,6.567,5.959-4.217,1.764,1.538-8.56,5.562Z" transform="translate(-574.734 -249.161)" fill="#fff"/>
      <path id="Path_4232" data-name="Path 4232" d="M738.894,287.22l.877-1.543-2.71-3.223-1.671.6-1.524-1.814,9.95-3.422,1.687,2.007-5.083,9.214Zm4.164-7.058-4.218,1.547,1.97,2.345Z" transform="translate(-570.626 -242.91)" fill="#fff"/>
      <path id="Path_4233" data-name="Path 4233" d="M741.844,293.026l1.935-3.484-.812-1.3-2.957,1.849-1.108-1.772,8.323-5.2,2.434,3.895a3.067,3.067,0,0,1-.927,4.484,2.839,2.839,0,0,1-3.618-.29l-1.991,3.867Zm5.762-3.359a1.325,1.325,0,0,0,.339-1.93l-1.171-1.872-2.247,1.405,1.171,1.872A1.331,1.331,0,0,0,747.606,289.667Z" transform="translate(-566.849 -238.934)" fill="#fff"/>
      <path id="Path_4234" data-name="Path 4234" d="M742.534,293.94l8.99-3.954,1.559,3.545c1.239,2.817.306,5.56-2.39,6.745-2.723,1.2-5.361.026-6.595-2.777Zm7.3,4.383a2.866,2.866,0,0,0,1.569-4.037l-.722-1.645-5.62,2.472.717,1.631A2.944,2.944,0,0,0,749.834,298.323Z" transform="translate(-564.128 -233.785)" fill="#fff"/>
      <path id="Path_4235" data-name="Path 4235" d="M746.382,299.423l1.883.665a4.307,4.307,0,0,0-.448,3.366c.313,1.12.955,1.507,1.508,1.351,1.645-.46-1.027-5.581,2.532-6.579,1.573-.439,3.258.556,3.882,2.782a5.466,5.466,0,0,1-.287,4.054l-1.816-.7a4.229,4.229,0,0,0,.264-3.041c-.238-.85-.742-1.228-1.309-1.071-1.489.416,1.037,5.566-2.492,6.552-1.73.485-3.384-.4-4.094-2.936A5.669,5.669,0,0,1,746.382,299.423Z" transform="translate(-561.731 -227.683)" fill="#fff"/>
    </g>
    <g id="Group_261" data-name="Group 261" transform="translate(1212.264 720.048)">
      <path id="Path_4236" data-name="Path 4236" d="M746.573,326.308l9.357,2.971-1.389,4.378a3.161,3.161,0,1,1-6.019-1.912l.757-2.385-3.339-1.06Zm4.6,7.5a1.329,1.329,0,0,0,1.7-.988l.669-2.1-2.511-.8-.668,2.1A1.328,1.328,0,0,0,751.171,333.807Z" transform="translate(-561.669 -323.603)" fill="#fff"/>
      <path id="Path_4237" data-name="Path 4237" d="M743.03,338.914l1.769.143,1.781-3.816-1.246-1.263,1-2.149,7.3,7.583-1.108,2.374-10.5-.724Zm8.157.8-3.181-3.176-1.3,2.775Z" transform="translate(-564.603 -319.464)" fill="#fff"/>
      <path id="Path_4238" data-name="Path 4238" d="M746.91,340.494a4.982,4.982,0,0,1,1.4,7.161,4.461,4.461,0,0,1-4.243,2.124l.24-1.988a2.656,2.656,0,0,0,2.448-1.146,3.227,3.227,0,0,0-5.407-3.515,2.661,2.661,0,0,0-.054,2.7l-1.706,1.032a4.5,4.5,0,0,1,.206-4.747A4.993,4.993,0,0,1,746.91,340.494Z" transform="translate(-566.865 -313.616)" fill="#fff"/>
      <path id="Path_4239" data-name="Path 4239" d="M737.276,345.005l7.59,6.234-1.326,1.617-7.592-6.236Z" transform="translate(-569.161 -309.587)" fill="#fff"/>
      <path id="Path_4240" data-name="Path 4240" d="M734.891,348.12l6.91,6.976-4.938,4.889-1.295-1.307,3.452-3.419-1.45-1.464-3.377,3.345-1.295-1.307,3.377-3.345-2.869-2.9Z" transform="translate(-571.447 -307.252)" fill="#fff"/>
      <path id="Path_4241" data-name="Path 4241" d="M729.9,352.609l6.161,7.649-1.629,1.312-6.159-7.649Z" transform="translate(-574.916 -303.886)" fill="#fff"/>
      <path id="Path_4242" data-name="Path 4242" d="M731.706,358.352a4.984,4.984,0,0,1-1.694,7.1,4.468,4.468,0,0,1-4.742.173l1.043-1.709a2.651,2.651,0,0,0,2.7-.028,3.226,3.226,0,0,0-3.459-5.44,2.655,2.655,0,0,0-1.171,2.437l-1.982.231a4.5,4.5,0,0,1,2.157-4.232A4.993,4.993,0,0,1,731.706,358.352Z" transform="translate(-579.32 -301.361)" fill="#fff"/>
      <path id="Path_4243" data-name="Path 4243" d="M721.246,364.623a4.986,4.986,0,0,1-3.226,6.547,4.465,4.465,0,0,1-4.663-.884l1.394-1.436a2.654,2.654,0,0,0,2.644.572,3.227,3.227,0,0,0-2.17-6.073,2.66,2.66,0,0,0-1.683,2.119l-1.984-.213A4.5,4.5,0,0,1,714.6,361.6,4.994,4.994,0,0,1,721.246,364.623Z" transform="translate(-587.445 -297.405)" fill="#fff"/>
      <path id="Path_4244" data-name="Path 4244" d="M706,364.382l.934,1.508,4.126-.833.277-1.751,2.323-.469-1.769,10.37-2.567.518-5.648-8.876Zm4.2,7.035.665-4.442-3,.6Z" transform="translate(-593.351 -296.219)" fill="#fff"/>
      <path id="Path_4245" data-name="Path 4245" d="M702.528,364.254l.581,7.956,2.862-.21.133,1.834-7.807.572-.135-1.835,2.847-.208-.581-7.954Z" transform="translate(-597.487 -295.157)" fill="#fff"/>
      <path id="Path_4246" data-name="Path 4246" d="M699.667,369.605a4.987,4.987,0,0,1-5.525,4.771,4.463,4.463,0,0,1-3.949-2.633l1.844-.779a2.654,2.654,0,0,0,2.211,1.559,3.228,3.228,0,0,0,.371-6.439,2.659,2.659,0,0,0-2.376,1.293l-1.743-.971a4.5,4.5,0,0,1,4.226-2.175A4.994,4.994,0,0,1,699.667,369.605Z" transform="translate(-603.461 -295.18)" fill="#fff"/>
      <path id="Path_4247" data-name="Path 4247" d="M686,363.257l-.845,4.05,4.54.947.845-4.05,2.047.429-2.007,9.613-2.045-.427.787-3.776-4.54-.948L684,372.872l-2.061-.43,2.005-9.614Z" transform="translate(-609.651 -296.226)" fill="#fff"/>
      <path id="Path_4248" data-name="Path 4248" d="M675.966,359.765l.3,3.977,1.393.637,1.452-3.174,1.9.87-4.087,8.932-4.178-1.912a3.07,3.07,0,0,1-1.7-4.257,2.844,2.844,0,0,1,3.183-1.751l-.467-4.325ZM673,365.746a1.328,1.328,0,0,0,.78,1.8l2.009.919,1.1-2.409-2.008-.92A1.334,1.334,0,0,0,673,365.746Z" transform="translate(-618.051 -299.274)" fill="#fff"/>
      <path id="Path_4249" data-name="Path 4249" d="M674.944,359.074l-5.237,8.307-5.879-3.706.982-1.555,4.11,2.589,1.1-1.744L666,360.43l.982-1.557L671,361.408l1.193-1.891-4.11-2.591.981-1.557Z" transform="translate(-623.226 -301.818)" fill="#fff"/>
      <path id="Path_4250" data-name="Path 4250" d="M665.783,351.663l-3.132,6.213,5.718-3.96,1.674,1.459-4.332,9.249-1.764-1.538,3.365-6.479-6.071,4.119-1.232-1.074,3.265-6.565-5.961,4.215-1.764-1.538,8.559-5.562Z" transform="translate(-629.433 -305.691)" fill="#fff"/>
      <path id="Path_4251" data-name="Path 4251" d="M658.309,345.508l-.876,1.543,2.71,3.223,1.671-.6,1.524,1.814-9.95,3.422-1.685-2.007,5.081-9.214Zm-4.164,7.058,4.219-1.547-1.97-2.345Z" transform="translate(-632.317 -310.57)" fill="#fff"/>
      <path id="Path_4252" data-name="Path 4252" d="M655.236,340.017,653.3,343.5l.812,1.3,2.957-1.849,1.108,1.772-8.323,5.2-2.434-3.895a3.068,3.068,0,0,1,.927-4.484,2.839,2.839,0,0,1,3.618.29l1.991-3.867Zm-5.762,3.359a1.326,1.326,0,0,0-.339,1.93l1.17,1.872,2.246-1.405-1.171-1.872A1.33,1.33,0,0,0,649.474,343.377Z" transform="translate(-635.97 -314.861)" fill="#fff"/>
      <path id="Path_4253" data-name="Path 4253" d="M654.435,338.59l-8.988,3.954L643.886,339c-1.239-2.817-.3-5.56,2.39-6.745,2.723-1.2,5.361-.026,6.594,2.777Zm-7.3-4.383a2.866,2.866,0,0,0-1.57,4.036l.723,1.645,5.62-2.472-.716-1.631A2.947,2.947,0,0,0,647.135,334.207Z" transform="translate(-638.581 -319.496)" fill="#fff"/>
      <path id="Path_4254" data-name="Path 4254" d="M650.232,332.271l-1.883-.665a4.314,4.314,0,0,0,.45-3.366c-.313-1.12-.957-1.507-1.51-1.351-1.645.46,1.027,5.583-2.53,6.579-1.575.441-3.26-.556-3.882-2.782a5.458,5.458,0,0,1,.287-4.054l1.816.7a4.21,4.21,0,0,0-.264,3.041c.238.85.74,1.228,1.307,1.071,1.489-.416-1.038-5.566,2.493-6.553,1.729-.485,3.382.4,4.092,2.936A5.662,5.662,0,0,1,650.232,332.271Z" transform="translate(-640.623 -324.762)" fill="#fff"/>
    </g>
  </g>
</svg>
