<svg id="Symbol_209_1" data-name="Symbol 209 – 1" xmlns="http://www.w3.org/2000/svg" width="18" height="18" viewBox="0 0 18 18">
  <rect id="Rectangle_693" data-name="Rectangle 693" width="18" height="18" transform="translate(0 0)" fill="none"/>
  <path id="Path_208" data-name="Path 208" d="M17.745,16.183,14.062,12.5a7.641,7.641,0,0,0,1.562-4.687A7.764,7.764,0,0,0,7.812,0,7.764,7.764,0,0,0,0,7.812a7.764,7.764,0,0,0,7.812,7.812A7.641,7.641,0,0,0,12.5,14.062l3.683,3.683ZM2.232,7.812a5.526,5.526,0,0,1,5.58-5.58,5.526,5.526,0,0,1,5.58,5.58,5.526,5.526,0,0,1-5.58,5.58A5.526,5.526,0,0,1,2.232,7.812Z" transform="translate(0 0)" fill="#31506c"/>
</svg>
