<svg xmlns="http://www.w3.org/2000/svg" width="64.266" height="61.269" viewBox="0 0 64.266 61.269"><defs><style>.a{fill:#31506c;}</style></defs><path class="a" d="M346.037,782.749a1.709,1.709,0,0,1-.074-1.233,2.109,2.109,0,0,0,.039-1.031,4.9,4.9,0,0,1-.038-.7,2.025,2.025,0,0,0-.232-1.239.325.325,0,0,1-.051-.218,21.441,21.441,0,0,0-.176-3.12,1.518,1.518,0,0,0-.387-1.181c-.039-.038-.068-.155-.044-.187.274-.357-.2-.679-.011-1.083a1.7,1.7,0,0,0-.092-1.143,14.3,14.3,0,0,1-.508-1.915,8.349,8.349,0,0,1-.3-1.908,1.584,1.584,0,0,0-.556-1.227,2.478,2.478,0,0,0-.229-1.348,2.717,2.717,0,0,0-.365-.422c-.12-.142-.234-.289-.35-.435l.417-.174a11.533,11.533,0,0,0-.868-2.181h0c-.044-.509-.153-1.055-.621-1.231a2.544,2.544,0,0,0-.189-1.618c-.3-.518-.768-.951-.7-1.644-.436-.723-.833-1.477-1.324-2.155a7.724,7.724,0,0,1-.765-1.085c-.223-.453-.623-.737-.871-1.186-.385-.7-.561-1.349-1.455-1.381-.085,0-.166-.129-.25-.2h0c.044-.1.139-.255.116-.278a13.705,13.705,0,0,0-1.073-1,.608.608,0,0,0-.735-.025,3.981,3.981,0,0,0-1.22.991,15.69,15.69,0,0,1-1.943,2.531.432.432,0,0,0-.071.089c-.615,1.063-1.509,1.962-2.053,3.079a6.422,6.422,0,0,0-.317.612,2.536,2.536,0,0,0-.064.555h-.4c-.476.981-1.371,2.264-1.822,3.194l.066.146-.138-.067c-.327.309-.031.744-.127.949-.219.24-.412.354-.451.511-.3,1.173-.727,2.293-1.117,3.429a3.315,3.315,0,0,0-.206.79,5.478,5.478,0,0,1-.394,1.584c-.244.617-.11,1.321-.421,1.918a2.531,2.531,0,0,1-.281,1.57.878.878,0,0,0-.022.46,2.431,2.431,0,0,0,.209.471c-.416.416-.426.416-.448.662-.025.273-.031.548-.046.822h0a1.967,1.967,0,0,0-.182.508c-.036.457-.033.919-.045,1.378l0,0a2.307,2.307,0,0,0-.321.574,9.194,9.194,0,0,0-.191,1.268c-.062.659-.114,1.32-.137,1.981a6.868,6.868,0,0,1-.164,1.866,1.7,1.7,0,0,0-.048.7c.064.5-.013,1.016.064,1.506.077.475-.192,1.025.246,1.437.033.032-.018.231-.082.3a.883.883,0,0,0-.227.64c0,.235.006.472.028.705.027.31.064.62.112.928a4.689,4.689,0,0,1,.079,1.742,13.9,13.9,0,0,0,.435,2.51.565.565,0,0,1,.081.319,5.255,5.255,0,0,0,.173,2.548,3.11,3.11,0,0,0,.737,1.543c.042.045.033.146.053.25-.087.146-.2.3-.278.475a.291.291,0,0,0,.106.394,7.211,7.211,0,0,1,.225,1.124,5.529,5.529,0,0,0,.435,1.673,7.315,7.315,0,0,1,.519,1.516,4.772,4.772,0,0,0,.378,1.554,10.373,10.373,0,0,0,.668,1.438h0c.028.269.04.541.09.8a8.536,8.536,0,0,0,.242,1.007c.1.328.247.643.376.962.124.3.085.691.417.884.357.206-.058.674.267.9.052.036.068.134.1.206a3.178,3.178,0,0,0,.535.714c.19.245.109.676.423.885.048-.052.088-.126.146-.151.037-.017.1.038.153.061-.027.022-.051.056-.082.065a2.085,2.085,0,0,1-.208.037,4.685,4.685,0,0,0,1.173,2.043,1.973,1.973,0,0,0,.637.429.56.56,0,0,0,.707-.116c.355-.383.687-.79,1.029-1.186l.008.008c-.152-.26-.154-.409.014-.432a1.068,1.068,0,0,0,.84-.661,6.571,6.571,0,0,1,.717-1.037,3.752,3.752,0,0,1,.575-.544c.222-.183.354-.511.721-.51l2.241,2.235c.121.271.242.541.363.812.388.046.42.476.658.693a19.377,19.377,0,0,0,1.87,1.293,8.921,8.921,0,0,0,1-.452c.329-.2.151-.649.341-.931.127-.134.321-.247.363-.407.341-1.283,1.035-2.421,1.345-3.715a1.409,1.409,0,0,1,.191-.545,2.384,2.384,0,0,0,.357-1.1,9.367,9.367,0,0,0,.225-1.016c.039-.359.177-.751-.134-1.071-.095-.1-.081-.254.041-.254.355,0,.419-.242.474-.528a27.545,27.545,0,0,1,.707-2.956,13.362,13.362,0,0,0,.294-1.372c.014-.073.023-.184-.014-.225-.294-.31-.08-.545.058-.828a.793.793,0,0,0,.107-.769l-.523-.173.4-.263-.422-.49c.125-.53.677-.471.946-.849-.011-.25-.033-.52-.031-.791a4.55,4.55,0,0,1,.045-1.268c.077-.262.121-.534.2-.794.092-.3-.143-.588.052-.9a2.212,2.212,0,0,0,.167-.784,1.778,1.778,0,0,0,.024-.469,6.978,6.978,0,0,1,.137-2.324.415.415,0,0,0-.06-.325.42.42,0,0,1-.064-.525,1.917,1.917,0,0,0,.159-.558,1,1,0,0,0-.149-.39l0,0c0-.08-.005-.159-.008-.24-.145-.08-.138-.159,0-.237l.109-1.029c.077-.73-.032-1.462.061-2.2a2.515,2.515,0,0,0-.123-1.253m-9.529-10.123q.023-1.171.038-2.342c.011-.784.02-1.566.03-2.351a4.052,4.052,0,0,0,0-1.041c-.149-.555.09-1.073.028-1.618s.046-1.085-.029-1.613c-.126-.9.052-1.792-.044-2.689a1.767,1.767,0,0,1,.2-1.251c.039-.055.074-.181.05-.2-.325-.325-.127-.735-.175-1.1a4.265,4.265,0,0,1,.074-1.858,2.666,2.666,0,0,0-.04-.9c.074-.071.121-.148.184-.169.284-.1.489-.011.514.234a7.681,7.681,0,0,1,.076,2.784,1.036,1.036,0,0,0,0,.579,5.119,5.119,0,0,1,.06,1.857.511.511,0,0,1-.158.407.326.326,0,0,0-.023.3.947.947,0,0,1,.219.758c0,.619-.043,1.237-.069,1.856a1.168,1.168,0,0,0-.008.347,15.434,15.434,0,0,1,.134,3.046,2.2,2.2,0,0,1-.01.353c-.04.42-.265.814-.091,1.266.155.4-.118.845.067,1.267a.757.757,0,0,1,.017.464,6.4,6.4,0,0,0-.118,1.739c0,.468-.011.938.017,1.4.057.925.012,1.855.121,2.778a.687.687,0,0,1-.182.635c.033.348.092.7.09,1.045s-.1.7-.093,1.049a9.862,9.862,0,0,0,.1,1.635c.074.414-.156.765-.095,1.16a11.325,11.325,0,0,1,.144,1.161c.02.366-.286.518-.5.671-.062.357.41.16.369.509a3.385,3.385,0,0,0,.093.8c.108.77-.1,1.548.061,2.322a2.164,2.164,0,0,1-.069.694c-.017.116-.1.243-.069.34a7.657,7.657,0,0,1,.071,2.32,5.38,5.38,0,0,1-.012.692,7.074,7.074,0,0,0-.014,2.082,10.592,10.592,0,0,1-.006,2.446c-.025.326.221.7-.139,1-.049.039.028.292.085.429a2.154,2.154,0,0,1,.138,1.268,3.02,3.02,0,0,0-.079,1.384c.048.187-.28.315-.13.518a.683.683,0,0,1,.149.417c0,.155.1.325.063.461a17.221,17.221,0,0,0,.006,2.791c-.022.207-.212.394-.353.641a2.478,2.478,0,0,1,.275.565,2.407,2.407,0,0,1-.054.569,2.207,2.207,0,0,0,.046.461c.036.195.1.4-.16.465a.456.456,0,0,1-.473-.234,2.21,2.21,0,0,1-.37-1.092c-.04-.342-.169-.678.052-1.005a.357.357,0,0,0,.054-.214c-.064-.738-.143-1.476-.2-2.216a2.577,2.577,0,0,1,.022-.809,4.471,4.471,0,0,0,.023-1.863,1.725,1.725,0,0,1-.064-.693,10.424,10.424,0,0,0,.142-2.809c.018-3.966,0-7.93,0-11.9,0-2-.019-4,.023-6.005s-.043-4,0-5.993m.473-18.172a.468.468,0,0,0,.05.052.64.64,0,0,0,.1.073,4.6,4.6,0,0,1-.016.592c-.008.072-.165.171-.255.172s-.244-.1-.253-.168a5.009,5.009,0,0,1-.034-1.535c.217.263.216.584.412.812m-3.738,1.1c-.008.782-.056,1.565-.087,2.347a12.453,12.453,0,0,0,.1,2.794,4.613,4.613,0,0,1-.052,1.382,17.419,17.419,0,0,1-.167,2.575c-.049.172.166.41.192.627s-.06.468-.036.7a8.046,8.046,0,0,1-.013,1.622,8.874,8.874,0,0,0-.013,1.294c.015.3.166.611-.092.887a.274.274,0,0,0-.02.22c.341,1.029-.018,2.1.171,3.144.08.445-.095.937-.061,1.4a16.754,16.754,0,0,1-.095,3.715c-.021.146.052.306.046.457-.02.509.243.991.115,1.508-.122.492.195,1.007-.073,1.491a22.4,22.4,0,0,1-.027,2.69,3.807,3.807,0,0,1-.115,1.515,1,1,0,0,0,.046.451,3.6,3.6,0,0,1,0,1.953.44.44,0,0,0-.046.226,17.749,17.749,0,0,1,.108,3.869,18.583,18.583,0,0,1-.092,3.639c.271,1.547-.134,3.109.093,4.659a1.7,1.7,0,0,1-.012.7,5.63,5.63,0,0,0-.025,1.722c0,.313.02.625.024.937a16.874,16.874,0,0,0-.026,1.852,1.978,1.978,0,0,1-.935,1.937,3.3,3.3,0,0,1-.075-.469c-.005-.9,0-1.805,0-2.708a1.819,1.819,0,0,1,.265-1.232c.055-.07-.05-.282-.08-.429h0c-.045-.058-.116-.112-.124-.174a3.2,3.2,0,0,1,.116-1.941c.029-.055.055-.16.029-.193-.31-.384-.17-.81-.129-1.233a3.77,3.77,0,0,0-.018-.576c-.017-.312-.058-.624-.057-.937,0-.9.088-1.786.024-2.686a25.173,25.173,0,0,1-.011-2.707q.063-1.63.079-3.26c.008-.964,0-1.927.09-2.888a2.8,2.8,0,0,0-.04-.82,2.448,2.448,0,0,1-.027-1.151,3.845,3.845,0,0,0-.018-1.037,7.928,7.928,0,0,1-.049-1.158,2.755,2.755,0,0,0,.057-1.157.374.374,0,0,1,0-.231,4.024,4.024,0,0,0,.036-1.962,3.842,3.842,0,0,1,0-.576c.011-.2.048-.389.05-.584a14.65,14.65,0,0,1-.032-2.091,10.365,10.365,0,0,0,.014-2.115c-.064-1.135.029-2.266.018-3.4s.113-2.277.055-3.409c-.039-.773.041-1.541-.031-2.317a18.432,18.432,0,0,1,0-2.589c.046-.939-.029-1.875,0-2.813.011-.349.067-.7.105-1.045.014-.118-.019-1.082-.024-1.191a13.566,13.566,0,0,1-.049-1.735c.017-.2.03-.407.046-.611.092-.115.187-.227.28-.341.159-.2.319-.4.482-.591a17.816,17.816,0,0,1,.1,2.051" transform="translate(390.049 -741.196) rotate(48)"/></svg>