<svg xmlns="http://www.w3.org/2000/svg" width="51.729" height="5.543" viewBox="0 0 51.729 5.543">
  <path id="Path_3822" data-name="Path 3822" d="M1205.529,1639.215a9.381,9.381,0,0,0,1.165-.176,7.8,7.8,0,0,0,2.3.047,8.21,8.21,0,0,1,2.373.035,19.012,19.012,0,0,1,4.182.688c1.1-.438,2.968.778,4.52.679.856.108,1.51-.012,1.009-.237,1.108.22.577.4,1.584.5l-.5.119a2.656,2.656,0,0,0,.9.337l.644-.091a2.417,2.417,0,0,0,.672.23,7.506,7.506,0,0,0,.761.091,8.021,8.021,0,0,1,1.63.236c-.715-.283.467-.053.488-.231.133.106.881.248.578.273a8.015,8.015,0,0,0,1.584.1,2.287,2.287,0,0,1,1.155.2l.442-.06a7.436,7.436,0,0,1,1.869.2l.114-.111a4.8,4.8,0,0,1,1.564.11,10.059,10.059,0,0,0,1.826-.072c.631-.085,1.256-.178,1.811-.272,1.142.078.6-.225,1.572-.358a19.438,19.438,0,0,1,2.116-.077c-.857.084-.87.421-1.838.4.4.091-1.579.2-.695.315a13.255,13.255,0,0,1,1.414-.2c.488-.056.99-.1,1.488-.144s.98-.11,1.438-.177a9.14,9.14,0,0,0,1.228-.289c.048.164.577.126,1.181.027a14.872,14.872,0,0,0,1.564-.374l.126.068a7.655,7.655,0,0,0,1.855-.464,15.541,15.541,0,0,1,3.164-.6,6.146,6.146,0,0,0,3.2-1.094c-1.915.119-3.012.884-4.732.692a4.2,4.2,0,0,0,1.912-.641l-.563.01.313-.144c-.3-.056.106-.255-.06-.344l-1.366.309c.828-.076.465.145.366.3l-.745.121c.216.012.7-.043.249.134a5.925,5.925,0,0,1-1.009.187l.328-.344c-.677.365-1.781.086-2.459.452l-.506-.168-.8.2.007-.1c-.335.062-.69.13-.96.168-.412.128-.382.25-.391.349a3.549,3.549,0,0,1-.889.146l.315-.216-.431.021c.308,0-.259.144-.318.218a4.3,4.3,0,0,1-1.32.03c-.564.161-1.4.066-1.347.262-1.193-.019-2.41.062-3.525.083l-.474.142a31.655,31.655,0,0,0-3.329.056l.117-.056-.785.135a24.93,24.93,0,0,1-2.651-.166,4.661,4.661,0,0,0-2.479.135,6.514,6.514,0,0,1-1.87-.365l.424-.029c-.119-.058-.245-.111-.353-.174-.78-.111-.695-.173-1.854-.314-1.32-.419-1.511.013-2.268.019l-1.118-.535-.024.058c-1.1.095-.743-.023-2.67-.437l-.076.172c-.465-.311-.995-.135-1.813-.329a6.982,6.982,0,0,0-2.394-.55c-1.467-.417-2.546-.017-3.86-.175-.77-.2-1.457.06-1.524-.232l.15.007-.226-.3-.1.2a6.446,6.446,0,0,1-1.62-.306c-.418.107-.827.219-1.226.334a4.6,4.6,0,0,1,.916.035l-.023-.058a6.815,6.815,0,0,1,1.379.088l-.433.045c.467.07.046.145-.092.17-.932-.135-.711.071-1.434.093-.159-.029-.466-.059-.346-.116-.427.026-1.558-.127-1.593.077-.038-.01-.052-.018-.085-.028A3.006,3.006,0,0,0,1205.529,1639.215Z" transform="translate(-1232.748 -1615.355) rotate(-1)" fill="#fff"/>
</svg>
