<svg xmlns="http://www.w3.org/2000/svg" width="278.767" height="214.505" viewBox="0 0 278.767 214.505"><defs><style>.a{fill:#54ade3;}.b{fill:#1a2732;}</style></defs><g transform="matrix(0.985, 0.174, -0.174, 0.985, -613.141, -567.198)"><path class="a" d="M789.952,531.193l-6.331-16.436h3.965l4.559,12.615,4.557-12.615h3.969l-6.333,16.436Z" transform="translate(50.399 66.206)"/><rect class="a" width="3.499" height="16.436" transform="translate(857.52 580.964)"/><path class="a" d="M801.427,531.194V514.756h7.688a5.291,5.291,0,1,1,0,10.573h-4.188v5.865Zm9.634-11.138a2.223,2.223,0,0,0-2.438-2.219h-3.7v4.411h3.7a2.218,2.218,0,0,0,2.438-2.193" transform="translate(67.768 66.205)"/><path class="b" d="M750.21,517.847c-.614.051-1.231-.152-1.742.257h-3.074a.664.664,0,0,1-.612-.616v-2.1a6.891,6.891,0,0,0,.255-2.712,2.979,2.979,0,0,0-.255-1.74c-.1-.152,0-.462,0-.717,0-1.126,0-2.3-.051-3.429a3.9,3.9,0,0,0-.255-2.3v-2.1c0-2.149,0-4.3.051-6.4a1.993,1.993,0,0,1,.152-1.077,1.467,1.467,0,0,0,.051-.666v-4.607a1.3,1.3,0,0,0-.1-.664,2.147,2.147,0,0,1-.152-.82c0-2.305,0-4.609.051-6.962,0-.306.051-.411.409-.411a1.728,1.728,0,0,0,1.021-.3,2.346,2.346,0,0,1,1.027-.257h5.425c.614,0,1.177.152,1.742-.257.2-.1.456,0,.713,0,1.231,0,2.511.051,3.738,0,.719-.049,1.331.306,2.049.257a.173.173,0,0,1,.1.049,3.578,3.578,0,0,0,1.691.873c.409.409,1.021.612,1.434,1.075.154.154.46.253.664.409a5.725,5.725,0,0,1,1.128,1.383,8.022,8.022,0,0,1,1.533,3.275,11.412,11.412,0,0,1,.051,3.738c-.306.306-.154.715-.255,1.075a6.455,6.455,0,0,1-1.638,2.764A10.44,10.44,0,0,1,763,497.014c-.1.051-.1.152.051.2a13.6,13.6,0,0,0,1.539.565,2.515,2.515,0,0,1,1.177.563c.612.51,1.328.818,1.942,1.329a12.716,12.716,0,0,1,2.459,3.277,2.7,2.7,0,0,1,.512,1.638,6.508,6.508,0,0,1,.255,2.61c.051.82,0,1.691.051,2.511a4.475,4.475,0,0,1-.357,1.173,12.266,12.266,0,0,1-.717,1.74,4.614,4.614,0,0,1-1.126,1.691,18.1,18.1,0,0,1-2.918,2.3c-.717.1-1.278.666-2.047.666-.362,0-.612.358-1.025.306a6.151,6.151,0,0,0-.972,0,1.638,1.638,0,0,0-1.077.205c-.152.1-.458.051-.664.051H750.21Zm6.345-24.827c.205-.049.358-.2.512-.2a2.342,2.342,0,0,0,1.432-.768,3.146,3.146,0,0,0,1.021-2.712c.055-.921,0-.972-.664-1.535a3.525,3.525,0,0,0-.561-.359c-.257-.1-.512-.255-.766-.36-.257-.152-.565-.2-.871-.356-.358-.154-.82.051-1.177-.308-.051-.051-.154,0-.255,0a4.393,4.393,0,0,0-.818-.051c-.409.051-.822-.152-1.231.1a5.651,5.651,0,0,1-.1.972c0,.1-.051.154-.051.257a6.937,6.937,0,0,0-.1,2.712c.306.36.152.818.2,1.229v1.381a.272.272,0,0,0,.306.31h1.227c.512.253,1.179-.207,1.9-.31m-3.173,16.738v1.383c.049.154.255.359.407.255a1.071,1.071,0,0,1,.869-.2,2.709,2.709,0,0,0,1.284-.1,5.61,5.61,0,0,1,1.586-.207,7.747,7.747,0,0,0,1.582-.356,4.088,4.088,0,0,0,1.027-.616,2.159,2.159,0,0,0,1.075-1.944V507a1.44,1.44,0,0,0-.2-.614,3.42,3.42,0,0,0-1.689-1.895c-.409-.205-.822-.359-1.231-.563a1.818,1.818,0,0,0-1.023-.306,2.489,2.489,0,0,1-1.075-.1,5.3,5.3,0,0,0-1.794-.154c-.1,0-.458.356-.51.46v1.689a14.316,14.316,0,0,0,0,1.486c.051.512-.306.869-.257,1.329v1.432Z" transform="translate(12.215 32.226)"/><path class="b" d="M761.262,500.066a7.526,7.526,0,0,1,.257-2.61,2.944,2.944,0,0,0,.049-.972c0-2.1-.049-4.249,0-6.4,0-.666-.2-1.381.257-2v-1.282c-.46-.561-.257-1.227-.257-1.841-.049-1.383-.049-2.712-.049-4.044,0-.308.1-.409.46-.409a7.508,7.508,0,0,1,1.075,0c.563.051,1.075-.358,1.638-.308a3.136,3.136,0,0,0,1.537,0c1.329-.512,2.712-.1,4.093-.2a.574.574,0,0,1,.666.666,2.319,2.319,0,0,1-.154,1.329c-.1.154-.049.46-.049.666-.051,2.406-.051,4.812-.051,7.27a2.1,2.1,0,0,1-.205,1.33c-.1.154-.051.46-.051.666v16.687a4.471,4.471,0,0,0,.1.82.3.3,0,0,1,0,.358,1.811,1.811,0,0,0-.1.512c0,.257-.051.563.051.666.205.255-.051.512.051.717.051.154.1.255.154.409.1.257-.308.46-.1.717a1.514,1.514,0,0,1,.1.666c0,.255.051.563-.154.768-.051.049,0,.152.051.257a14.855,14.855,0,0,1,.1,3.018,1.158,1.158,0,0,1-.308.612c-.051.1-.152.257-.255.257a4.619,4.619,0,0,1-2.049-.2,2.2,2.2,0,0,0-.818-.053h-4.044c-.205,0-.514.053-.666-.049-.306-.2-.666-.154-.871-.306-.306-.257-.154-.616-.154-.923,0-1.64,0-3.277-.049-4.915a3.466,3.466,0,0,0-.206-1.893c-.1-.154,0-.409,0-.666v-5.427h-.051Z" transform="translate(28.589 32.246)"/><path class="b" d="M786.374,498.551a6.566,6.566,0,0,1,.255-1.742c.051-.2.205-.255.411-.3.46-.051,1.023.152,1.432-.257h1.537c.512-.051,1.021,0,1.533-.051a3.084,3.084,0,0,0,.668-.1,4.977,4.977,0,0,1,2.458,0,2.873,2.873,0,0,0,.921.1c.869.051,1.792.051,2.661.051a1.093,1.093,0,0,1,.769.205c.2.1.409.154.462.409a3.347,3.347,0,0,0,.409.717.3.3,0,0,1-.053.356,4.211,4.211,0,0,0-.1,1.385c-.051.46.512.869.154,1.432-.306.46-.1,1.075-.154,1.638,0,.512.049,1.023,0,1.537-.051.666-.308,1.278-.359,2-.049.206-.2.409-.2.614a1.747,1.747,0,0,1,0,.715,2.952,2.952,0,0,1-.1.666,2.567,2.567,0,0,0-.152.668,1.32,1.32,0,0,1-.257.614c-.053.2,0,.46-.053.715a3.006,3.006,0,0,1-.255.614c-.1.154-.255.308-.255.46.049.82-.615,1.331-.974,1.946a3.7,3.7,0,0,1-1.381,1.434c-.614.358-1.023.922-1.638,1.278a8.536,8.536,0,0,1-1.946.972c-.563.1-1.074.411-1.638.512a4.513,4.513,0,0,1-1.638.257,2.874,2.874,0,0,1-1.74.306,1.448,1.448,0,0,0-.614.207.723.723,0,0,1-.563,0,1.875,1.875,0,0,0-1.179-.207h-2.507a6.117,6.117,0,0,1-1.638-.253c-.871-.31-1.74-.666-2.663-.923a4.568,4.568,0,0,1-1.126-.512c-.717-.46-1.432-.922-2.149-1.381-.205-.154-.462-.257-.563-.411a20.952,20.952,0,0,1-1.329-1.895,19.022,19.022,0,0,1-1.075-2.047c-.208-.768-.514-1.486-.771-2.2-.154-.358-.1-.715-.255-1.021a2.68,2.68,0,0,1-.2-1.075,7.8,7.8,0,0,1-.308-1.59c.049-.563,0-1.124,0-1.687,0-.154,0-.409-.1-.512a1.475,1.475,0,0,1-.152-.923v-3.481a1.49,1.49,0,0,1,.152-.82,1.5,1.5,0,0,0,.1-.666c0-.764.049-1.584,0-2.353a8.962,8.962,0,0,1,.612-3.329,11.451,11.451,0,0,1,1.742-3.532,2.36,2.36,0,0,0,.359-.715,8.817,8.817,0,0,1,.972-1.687,2.042,2.042,0,0,1,.666-.666,4.491,4.491,0,0,0,.766-.565c.308-.255.614-.512.972-.768a15.413,15.413,0,0,0,2.1-1.484,1.124,1.124,0,0,1,.768-.308.582.582,0,0,0,.612-.255c.257-.308.719-.205.972-.409a1.772,1.772,0,0,1,.666-.154,3.875,3.875,0,0,0,1.894-.257h3.072c.512.308,1.075.154,1.586.308a6.053,6.053,0,0,0,1.638.255.914.914,0,0,1,.358.1,5.553,5.553,0,0,0,1.586.409c.563,0,1.027.36,1.59.308a3.394,3.394,0,0,1,1.381.46c1.023.512,2.047,1.023,3.07,1.484.154.1.257.205.36.257a.469.469,0,0,1,.1.512,5.564,5.564,0,0,1-.462,1.229c-.2.257-.512.409-.563.666-.152.82-.766,1.432-.92,2.252-.1.664-.614,1.073-.921,1.638-.051.1-.205.1-.359.1-.358.1-.612-.2-.921-.2-.719,0-1.329-.359-2-.359a4.01,4.01,0,0,1-1.077-.257c-.306-.049-.614.053-.923-.152a1.366,1.366,0,0,0-.664-.1h-1.689c-1.383-.563-2.815-.2-4.2-.3a1.437,1.437,0,0,0-.766.3,5.913,5.913,0,0,0-2.049,2.151c-.614.923-1.229,1.894-1.843,2.866a3.355,3.355,0,0,0-.717,2.2c.1.458-.357.818-.255,1.329a9.425,9.425,0,0,1,.051,1.229,3.471,3.471,0,0,0,.2,1.894c.051.051,0,.1,0,.152a4.641,4.641,0,0,0,.308,1.843,12.05,12.05,0,0,0,1.075,3.224,4.324,4.324,0,0,1,.306.873.814.814,0,0,0,.205.356,6.992,6.992,0,0,0,2.1,1.792,4.351,4.351,0,0,0,.871.308c.359.154.82.051,1.177.308.308.2.82,0,1.177.306.82,0,1.689.051,2.507,0a.55.55,0,0,0,.359-.154c.306-.1.565-.257.869-.358a1.421,1.421,0,0,0,1.077-.921,5.082,5.082,0,0,0,.512-1.383c.049-.358.2-.719.257-1.075.1-.308.049-.616.253-.921a2.071,2.071,0,0,0,.053-.82.625.625,0,0,0-.616-.717H787.96c-.257,0-.512.2-.768.255a.785.785,0,0,1-.818-.563v-2.663c0-.561.051-1.124,0-1.687" transform="translate(37.052 32.123)"/><path class="b" d="M795.511,504.982a2.091,2.091,0,0,1,.205-1.229,2.1,2.1,0,0,0,.051-.818c0-2.3,0-4.607.049-6.91a3.194,3.194,0,0,1,.1-1.383c.205-.409,0-.974.205-1.329a4.492,4.492,0,0,0,.205-1.638,7.066,7.066,0,0,1-.257-3.123c-.051-1.025,0-2.049,0-3.072-.051-.409.306-.717.257-1.177a2,2,0,0,1,.2-1.177,2.486,2.486,0,0,0,.1-1.075,10.661,10.661,0,0,1,0-1.282c0-.2.308-.561.512-.561h1.381a3.5,3.5,0,0,0,1.638-.205,1.04,1.04,0,0,1,.565-.051h10.134a2.1,2.1,0,0,1,1.231.207c.152.1.409.049.662.049h4.609a.769.769,0,0,1,.717.715v6.655c0,.358-.1.46-.511.46h-1.792c-.512.411-1.075.206-1.638.259h-2.357a2.705,2.705,0,0,0-1.075.2,2.05,2.05,0,0,1-.818.053h-4.146a.492.492,0,0,0-.511.358,2.73,2.73,0,0,0-.255.921c0,.717,0,1.485-.051,2.2,0,.154-.257.308-.051.462.2.2.409.512.614.512a9.317,9.317,0,0,0,3.173-.156c.154-.049.359-.049.512-.1h4.352c.3,0,.358.1.358.46v7.471c0,.308-.1.409-.409.409-2.406,0-4.812.053-7.218.053h-.972a.652.652,0,0,0-.563.563,3.3,3.3,0,0,0,.049,1.229,3.122,3.122,0,0,1,.207,1.177v2.815c.049.409-.1.921.2,1.329.1.1.053.36.053.512a11.723,11.723,0,0,0,.257,3.021,7.072,7.072,0,0,1,.051,1.792c.049.462-.1.923.2,1.383.1.1.051.358.051.512-.051.666.205,1.383-.1,2.048-.666,0-1.278.049-1.944.049h-3.892c-.512,0-1.021-.154-1.484.257-.563,0-1.126-.049-1.638,0a1.081,1.081,0,0,1-.972-.411,1,1,0,0,1-.257-.766V504.982Z" transform="translate(61.993 32.243)"/><path class="b" d="M809.4,500.066a7.433,7.433,0,0,1,.257-2.61,3,3,0,0,0,.049-.972c0-2.1-.049-4.249,0-6.4,0-.666-.2-1.381.257-2v-1.282c-.46-.561-.257-1.227-.257-1.841-.049-1.383-.049-2.712-.049-4.044,0-.308.1-.409.458-.409a7.536,7.536,0,0,1,1.077,0c.561.051,1.075-.358,1.638-.308a3.128,3.128,0,0,0,1.535,0c1.331-.512,2.714-.1,4.1-.2a.575.575,0,0,1,.666.666,2.336,2.336,0,0,1-.154,1.329c-.1.154-.051.46-.051.666-.049,2.406-.049,4.812-.049,7.27a2.085,2.085,0,0,1-.208,1.33c-.1.154-.049.46-.049.666v16.687a4.308,4.308,0,0,0,.1.82.306.306,0,0,1,0,.358,1.745,1.745,0,0,0-.1.512c0,.257-.051.563.049.666.208.255-.049.512.053.717.049.154.1.255.154.409.1.257-.308.46-.1.717a1.485,1.485,0,0,1,.1.666c0,.255.049.563-.154.768-.053.049,0,.152.049.257a14.714,14.714,0,0,1,.1,3.018,1.158,1.158,0,0,1-.308.612c-.053.1-.154.257-.255.257a4.618,4.618,0,0,1-2.048-.2,2.2,2.2,0,0,0-.818-.053H811.39c-.2,0-.512.053-.664-.049-.308-.2-.666-.154-.873-.306-.3-.257-.152-.616-.152-.923,0-1.64,0-3.277-.049-4.915a3.449,3.449,0,0,0-.208-1.893c-.1-.154,0-.409,0-.666v-5.427H809.4Z" transform="translate(75.541 32.246)"/><path class="b" d="M828.116,518.628a2.92,2.92,0,0,1-1.485-.152c-.46-.257-1.027.049-1.484-.308a10.113,10.113,0,0,1-2.408-.768,12.865,12.865,0,0,1-2.969-1.638,4.768,4.768,0,0,0-.867-.462,3.955,3.955,0,0,1-.717-.612.321.321,0,0,1-.1-.359c.306-.46.306-1.075.563-1.535.257-.512.1-1.075.46-1.535a5.485,5.485,0,0,1,.358-1.586,10.348,10.348,0,0,0,.306-1.74c0-.308.409-.46.766-.362.67.257,1.335.516,2,.719a4.893,4.893,0,0,1,.512.205c.306.2.46.614.869.666.409,0,.664.255,1.021.358s.664.358.976.46c.409.049.664.306,1.023.409a4.682,4.682,0,0,0,1.841.462,9.772,9.772,0,0,1,1.227,0,2.055,2.055,0,0,0,1.59-.666,18.381,18.381,0,0,0,1.484-1.843,1.383,1.383,0,0,0,.306-1.025,1.451,1.451,0,0,1,0-.664,1.819,1.819,0,0,0-1.073-1.946c-1.126-.612-2.307-1.278-3.483-1.841a21.555,21.555,0,0,1-2.455-1.128c-.1-.051-.205-.051-.257-.1a5.972,5.972,0,0,1-3.018-1.484c-.308-.255-.666-.46-.972-.717a5.03,5.03,0,0,0-.974-.818c-.31-.205-.719-.409-.771-.717a3.067,3.067,0,0,1-.357-1.28,11.184,11.184,0,0,0-.257-1.486,14.5,14.5,0,0,0-.1-1.535c-.46-1.278-.1-2.558-.205-3.838a4.569,4.569,0,0,1,.358-1.432,11.44,11.44,0,0,0,.67-1.64,11.048,11.048,0,0,1,1.533-3.018,2.807,2.807,0,0,1,1.229-1.077,7.755,7.755,0,0,0,1.64-.972,18.093,18.093,0,0,1,1.738-.717,7.57,7.57,0,0,1,1.843-.46,14.669,14.669,0,0,0,1.43-.358,2.138,2.138,0,0,1,.822-.154c.972,0,1.946-.051,2.916,0a2.84,2.84,0,0,1,1.59.205,1.132,1.132,0,0,0,.818.051,3.2,3.2,0,0,1,1.738.306,2.71,2.71,0,0,0,1.233.257c.563-.1,1.021.358,1.584.306.36.205.818.154,1.177.306a7.333,7.333,0,0,0,1.025.257,1.482,1.482,0,0,1,.66.257c.055.049.209.2.209.306a1.916,1.916,0,0,1-.209,1.177c-.354.82-.762,1.537-1.073,2.355-.2.563-.358,1.124-.512,1.687a8.992,8.992,0,0,0-.46,1.539,1.944,1.944,0,0,1-.255.766.378.378,0,0,1-.46.205,3,3,0,0,1-1.025-.308c-.409-.308-.869-.1-1.175-.308a2.1,2.1,0,0,0-1.231-.2c-.458.051-.715-.306-1.175-.255a2.6,2.6,0,0,1-1.229-.207,6.149,6.149,0,0,0-1.381-.1,2.428,2.428,0,0,1-1.332-.152c-.051-.051-.205-.1-.257-.051A6.31,6.31,0,0,0,829.6,489.4c-.409.458-.766.921-1.124,1.381a.868.868,0,0,0-.1.257,4.049,4.049,0,0,1-.255,1.177,3.215,3.215,0,0,0,.867,2.663c.357.409.77.765,1.179,1.175.306.308.563.614,1.025.563a8.692,8.692,0,0,0,2.866,1.177,15.2,15.2,0,0,1,3.631,1.843,3,3,0,0,0,.67.46,6.168,6.168,0,0,1,2.5,1.946,2.651,2.651,0,0,1,.614,1.329,7.594,7.594,0,0,1,.257,1.843c.51.715.051,1.588.565,2.254a9.113,9.113,0,0,1-.208,2.61,1.469,1.469,0,0,0-.051.666,3.962,3.962,0,0,1-.46,2,4.565,4.565,0,0,1-.766,1.687,17.339,17.339,0,0,1-1.638,2.2,3.7,3.7,0,0,1-1.027.719c-.255.1-.512.358-.818.51a4.444,4.444,0,0,1-2.4.768h-3.736c-1.025,0-2.046.049-3.072,0" transform="translate(83.996 32.213)"/><path class="b" d="M860.057,502.112a3.062,3.062,0,0,0,.257,1.892,2.11,2.11,0,0,1,0,.563V515.83c0,.614-.359,1.126-.359,1.738.051.154-.2.411-.46.411-.818-.049-1.691.205-2.455-.257a.588.588,0,0,0-.411,0c-.512.409-1.177.257-1.74.257a8.9,8.9,0,0,1-2.866-.152c0-.923-.051-1.845-.051-2.764v-4.046c-.051-.512.1-1.075-.257-1.586-.1-.152,0-.46,0-.666,0-1.124-.051-2.25-.051-3.378a.74.74,0,0,0-.255-.612c-.154-.1-.308-.207-.46-.053-.154.1-.36.255-.512.1a.856.856,0,0,0-1.126,0c-.051.051-.205.051-.257.051-.462-.411-1.023-.1-1.484-.308a8.421,8.421,0,0,0-2.969-.255.733.733,0,0,0-.717.717c0,2.049.051,4.1,0,6.142,0,.257.411.512.051.82a5.858,5.858,0,0,1-.051.972v3.787c0,.306-.205.616-.411.616-.46.049-.869.356-1.329.356-1.023-.049-2.047-.049-3.072-.049-.46,0-.818-.306-1.332-.257a6.214,6.214,0,0,1-1.381.051c-.46,0-.923-.051-1.381-.051-.922,0-.82,0-.82-.818a17.939,17.939,0,0,0,.257-4.658c.049-1.586,0-3.175,0-4.763a2.074,2.074,0,0,1,.2-1.328c.1-.156.049-.462.049-.666v-6.146a1.465,1.465,0,0,0-.152-.919,1.435,1.435,0,0,1-.1-.666V493.41a2.089,2.089,0,0,0-.207-1.229c-.1-.1-.049-.358-.049-.512,0-.717,0-1.383-.051-2.1,0-.51.2-1.124-.205-1.584,0-.31-.051-.666-.051-.976a7.588,7.588,0,0,1,.257-2.609.768.768,0,0,0,0-.666c-.462-1.075-.1-2.2-.257-3.275a.183.183,0,0,1,.051-.152c.051-.051.1-.154.154-.154a.623.623,0,0,1,.306-.053h7.473a3.032,3.032,0,0,1,.717.053c.1,0,.205.255.205.255a1.8,1.8,0,0,0-.257,1.229c0,4.146.051,8.242,0,12.386a1.922,1.922,0,0,0,.92,1.588c.051.051.154.051.257.1a4.38,4.38,0,0,1,2.151.257h4.3a.89.89,0,0,0,.512-.207,2.045,2.045,0,0,0,.768-1.535V490.6c.049-.512-.1-.972.2-1.484.154-.207.051-.514.051-.82,0-2.457,0-4.915.051-7.374a4.348,4.348,0,0,1,0-.818.33.33,0,0,1,.257-.255.721.721,0,0,1,.563,0,3.415,3.415,0,0,0,1.586.255c.563.053,1.126-.1,1.638.207.207.152.563.049.818.049.922,0,1.845,0,2.766.051a.69.69,0,0,1,.717.666v21.039Z" transform="translate(99.394 32.094)"/><path class="b" d="M858.21,620.174a9.27,9.27,0,0,1-2.211-.269L739.005,591.164a9.246,9.246,0,0,1-7.052-9V484.885a9.242,9.242,0,0,1,7.052-8.992L856,447.15a9.31,9.31,0,0,1,4.419,0l117,28.743a9.24,9.24,0,0,1,7.05,8.992v97.283a9.245,9.245,0,0,1-7.05,9l-117,28.741a9.254,9.254,0,0,1-2.208.269m0-170.005a5.913,5.913,0,0,0-1.428.174L739.79,479.083a5.961,5.961,0,0,0-4.551,5.8v97.283a5.966,5.966,0,0,0,4.551,5.806l116.994,28.743a6.005,6.005,0,0,0,2.853,0l116.992-28.743a5.964,5.964,0,0,0,4.552-5.806V484.885a5.962,5.962,0,0,0-4.549-5.8h0L859.636,450.341a6.009,6.009,0,0,0-1.426-.172" transform="translate(0 0)"/><rect class="b" width="217.582" height="1.213" transform="translate(749.42 502.11)"/><rect class="b" width="217.582" height="1.213" transform="translate(749.42 562.331)"/><path class="a" d="M762.461,473.813l-2.641-9.5,4.441-1.235a3.174,3.174,0,1,1,1.7,6.11l-2.42.672.942,3.39Zm3.777-7.983a1.335,1.335,0,0,0-1.768-.889l-2.135.595.711,2.548,2.135-.595a1.332,1.332,0,0,0,1.057-1.659" transform="translate(27.183 15.647)"/><path class="a" d="M773.674,470.805l-.976-1.49-4.121.936-.237,1.77-2.319.526,1.513-10.456,2.566-.585,5.893,8.771Zm-4.391-6.959-.555,4.48,3-.683Z" transform="translate(33.232 14.264)"/><path class="a" d="M772.06,466.188a5,5,0,0,1,4.312-5.924,4.468,4.468,0,0,1,4.459,1.671l-1.622,1.181a2.675,2.675,0,0,0-2.519-1.019,3.241,3.241,0,0,0,1.11,6.381,2.674,2.674,0,0,0,2.027-1.808l1.924.549a4.51,4.51,0,0,1-3.635,3.092,5.012,5.012,0,0,1-6.057-4.123" transform="translate(39.039 12.97)"/><rect class="a" width="2.099" height="9.866" transform="translate(823.934 472.076) rotate(-7.489)"/><path class="a" d="M783.086,469.323l-.919-9.814,6.946-.652.172,1.841-4.855.452.192,2.06,4.755-.443.172,1.837-4.753.446.383,4.073Z" transform="translate(48.982 11.679)"/><rect class="a" width="2.099" height="9.863" transform="translate(842.784 470.226) rotate(-3.204)"/><path class="a" d="M791.562,463.576a5.005,5.005,0,0,1,5.186-5.182,4.486,4.486,0,0,1,4.15,2.347l-1.794.917a2.666,2.666,0,0,0-2.327-1.4,3.243,3.243,0,0,0,.1,6.479,2.675,2.675,0,0,0,2.288-1.472l1.817.845A4.523,4.523,0,0,1,796.9,468.6a5.016,5.016,0,0,1-5.342-5.024" transform="translate(58.145 11.227)"/><path class="a" d="M801.715,463.432a5.007,5.007,0,0,1,5.585-4.753,4.48,4.48,0,0,1,3.947,2.669l-1.857.77a2.678,2.678,0,0,0-2.211-1.582,3.244,3.244,0,0,0-.417,6.47,2.672,2.672,0,0,0,2.4-1.286l1.742.99a4.513,4.513,0,0,1-4.259,2.155,5.015,5.015,0,0,1-4.927-5.432" transform="translate(68.037 11.492)"/><path class="a" d="M815.568,469.539l-.421-1.732-4.2-.494-.812,1.588-2.367-.277,4.931-9.356,2.614.306,2.621,10.245Zm-1.81-8.03-2.023,4.036,3.052.362Z" transform="translate(73.953 12.081)"/><path class="a" d="M816.205,470.053l1.306-7.908-2.847-.468.3-1.823,7.761,1.278-.3,1.825-2.829-.466-1.3,7.908Z" transform="translate(80.681 12.651)"/><path class="a" d="M820.2,465.284a5,5,0,0,1,6.221-3.866,4.48,4.48,0,0,1,3.5,3.226l-1.95.482a2.671,2.671,0,0,0-1.95-1.889,3.239,3.239,0,0,0-1.371,6.325,2.663,2.663,0,0,0,2.556-.915l1.576,1.237a4.521,4.521,0,0,1-4.528,1.5,5.014,5.014,0,0,1-4.06-6.1" transform="translate(85.95 14.04)"/><path class="a" d="M832.769,473.74l1.106-4.006-4.492-1.241-1.106,4.006-2.025-.557,2.623-9.514,2.027.559-1.031,3.738,4.492,1.239,1.031-3.736,2.039.563-2.625,9.512Z" transform="translate(91.984 15.162)"/></g></svg>