<svg xmlns="http://www.w3.org/2000/svg" width="138.018" height="18.244" viewBox="0 0 138.018 18.244"><defs><style>.a{fill:#31506c;}</style></defs><path class="a" d="M532.179,411.468l1.612-.708c1.116-.477,2.334-.961,3.746-1.45-3.733,1.169,1.546-.874,1-1.011.454-.1,1.525-.459,2.344-.728s1.37-.386.836-.134a32.845,32.845,0,0,1,6.35-1.474,23.3,23.3,0,0,1,7.025-.49,37.5,37.5,0,0,1,12.655,3.18c.135-.135.263-.277.4-.409l-1.186-.492c-1.123-.643-2.084-1.149-3.006-1.6a20.128,20.128,0,0,0-3.038-1.155,49.82,49.82,0,0,0-7.422-1.481,24.32,24.32,0,0,0-8.019.435,13.183,13.183,0,0,0-4.145,1.673c-.8.342-1.545.676-2.341,1s-1.62.626-2.442.921c-1.639.589-3.258,1.131-4.576,1.643l1.633-.85-2.272.691a17.681,17.681,0,0,1-3.809,1.132,39.433,39.433,0,0,1-4.935.617c-3.472-.1-4.925-.275-5.933-.212-.5.013-.892.079-1.337.083a6.923,6.923,0,0,1-1.708-.139c-.534-.183-1.034-.432-1.543-.648-.5-.254-.963-.484-1.472-.774l-3.018-1.688.085.161a24.463,24.463,0,0,1-4.091-1.53c-.682-.318-1.463-.736-2.777-1.3a25.528,25.528,0,0,0-5.59-1.5l.393.4a13.578,13.578,0,0,0-4.2-.5c-1.334.034-2.781.13-4.932.346a31.92,31.92,0,0,0-5.508.958c-1.153.364-2.253.809-3.3,1.25a29.349,29.349,0,0,0-2.8,1.339c-1.739.623-3.242,1.3-4.552,1.81a36.3,36.3,0,0,1-3.9,1.168,24.244,24.244,0,0,1-8.327.559c-1.915-.326-3.54-.6-4.779-.9s-2.055-.627-2.275-1c.207.093.431.156.645.236a13.593,13.593,0,0,1-1.052-1.012l-.339.278c-1.994-1.1-5.039-2.407-6.6-3.623-.864-.274-1.7-.566-2.6-.824a22.308,22.308,0,0,0-2.686-.565,15.882,15.882,0,0,1,3.918,1.547l-.078-.159c1.254.586,4.332,1.96,5.7,2.781l-1.794-.715c1.947,1.027.194.4-.394.185a21.548,21.548,0,0,0-3.352-1.552c-.325-.11-.622-.2-1.037-.344l-1.679-.585c-.665-.309-2.024-.729-1.481-.695a35.72,35.72,0,0,0-4.264-.879c-1.568-.21-2.933-.213-3.022-.022l-.39-.064c.634.7,2.816,1.412,5.234,2.559a28.439,28.439,0,0,1,4.961,1.218c1.98,1.092,3.763,1.967,5.455,2.73.846.382,1.668.735,2.482,1.075.422.174.92.357,1.373.524s.933.289,1.4.43a33.654,33.654,0,0,0,5.806.99,51.607,51.607,0,0,0,6.784.154,28.232,28.232,0,0,0,6.275-1.137c.486-.151.965-.3,1.43-.494l.7-.273.623-.268,2.438-1.051c1.616-.695,3.227-1.38,4.9-2.064a18.881,18.881,0,0,1,5.083-1.306c1.071-.786,4.96-1.175,9.077-.451a25.338,25.338,0,0,1,5.882,1.72c.427.174.908.4,1.36.606s.9.4,1.33.579c.86.36,1.664.667,2.383.9,3.685,1.566,5.873,2.078,3.21.615l2.781,1.3c.679.275,1.124.512,1.565.678a10.189,10.189,0,0,0,1.451.507,16.028,16.028,0,0,0,2.59.464c-.559.066-1.113.073-1.683.109a20.3,20.3,0,0,0,5.417.863c.8-.118,1.589-.229,2.366-.4a19.006,19.006,0,0,0,7.345-1.108C531.093,411.939,531.625,411.689,532.179,411.468Z" transform="translate(-408.285 -424.548) rotate(3)"/></svg>