<svg xmlns="http://www.w3.org/2000/svg" width="93.155" height="10.67" viewBox="0 0 93.155 10.67"><defs><style>.a,.b{fill:none;stroke:#f4ca79;}.a{stroke-miterlimit:10;}.b{stroke-linecap:round;stroke-linejoin:round;stroke-width:1.5px;}</style></defs><g transform="translate(-381.831 -1807.5)"><path class="a" d="M380.016,430.295a14.1,14.1,0,0,1-8.994-3.059,14.549,14.549,0,0,0-17.745,0,14.755,14.755,0,0,1-17.99,0,14.549,14.549,0,0,0-17.745,0,14.755,14.755,0,0,1-17.99,0,13.911,13.911,0,0,0-8.873-3.019v-.507a14.1,14.1,0,0,1,8.995,3.059,14.545,14.545,0,0,0,17.745,0,14.755,14.755,0,0,1,17.99,0,14.546,14.546,0,0,0,17.745,0,14.755,14.755,0,0,1,17.99,0,13.905,13.905,0,0,0,8.872,3.02C384.451,429.789,380.016,430.295,380.016,430.295Z" transform="translate(91.652 1384.289)"/><path class="b" d="M20214.518,1806.672l2.908,2.909-2.908,2.909" transform="translate(-19743.189 4.62)"/></g></svg>