<svg xmlns="http://www.w3.org/2000/svg" width="346.217" height="17.252" viewBox="0 0 346.217 17.252">
  <path id="Path_3631" data-name="Path 3631" d="M1076.3,1576.1a40.715,40.715,0,0,1,7.16,1.559c2.88,1.492,5.471,2.679,7.926,3.709,1.227.516,2.42.992,3.6,1.448.611.233,1.333.477,1.988.7.672.214,1.349.379,2.021.564a48.243,48.243,0,0,0,8.363,1.2,73.935,73.935,0,0,0,9.735-.035,40.506,40.506,0,0,0,8.955-1.867c.691-.236,1.373-.466,2.033-.763l.991-.418.884-.408,3.457-1.6c2.291-1.057,4.575-2.1,6.953-3.145a27.1,27.1,0,0,1,7.24-2.065c1.506-1.168,7.068-1.872,13-.99a36.411,36.411,0,0,1,8.5,2.245c.619.234,1.317.544,1.974.818s1.305.537,1.929.78c1.247.484,2.411.894,3.452,1.2,5.343,2.107,8.5,2.758,4.626.76l4.037,1.766c.984.369,1.631.693,2.27.914a14.575,14.575,0,0,0,2.1.673,22.923,22.923,0,0,0,3.732.567c-.8.115-1.594.147-2.41.22a29.143,29.143,0,0,0,7.8,1.033c1.142-.2,2.27-.388,3.378-.668a27.248,27.248,0,0,0,10.492-1.867c.786-.27,1.54-.649,2.325-.986l2.285-1.077c1.582-.726,3.31-1.466,5.317-2.22-5.309,1.817,2.184-1.312,1.4-1.489.648-.155,2.169-.716,3.335-1.133,1.165-.4,1.95-.6,1.194-.223a47.135,47.135,0,0,1,9.671-2.459,20.3,20.3,0,0,1,7.8.144c.881-.022,1.767-.033,2.652.009a21.246,21.246,0,0,1,6.113,1.212,35.76,35.76,0,0,1,5.324,2.489l.681-.032c1.671.672,4.175,1.849,6.262,2.942l.213.113.248-.12.018-.009-.443.017c1.152.536,2.148,1.065,2.893,1.469a31.624,31.624,0,0,0,11.85,2.353,45.843,45.843,0,0,0,12.074-1.36,20.391,20.391,0,0,0,2.294-.457,10.718,10.718,0,0,0,1.5-.457,6.5,6.5,0,0,0,1.622-.82,23.87,23.87,0,0,1,4.468-2.574c2-.762,4.641-1.986,7.1-3.1,1.226-.557,2.407-1.088,3.54-1.493a13.047,13.047,0,0,1,2.766-.7,18.875,18.875,0,0,0-3.507,1.376c-.924.462-1.626.914-2.379,1.346a39.513,39.513,0,0,1-5.932,2.9c1.164-.344-1.218.785-3.228,1.771-1,.5-1.925.939-2.275,1.143s-.083.2,1.28-.238c2.665-1.366,5.537-2.727,8.5-4.076,1.482-.668,2.98-1.366,4.5-2a31.2,31.2,0,0,1,4.7-1.524,54.08,54.08,0,0,1,18.689-.74c-.516.385,2.915.973,6.646,2.592,3.764,1.672,8.232,3.559,10.466,4.491l.17.337c.92.461,1.822.865,2.751,1.253a26.133,26.133,0,0,0,2.941.961,34.193,34.193,0,0,0,7.967,1.1,49.8,49.8,0,0,0,11.868-.688,46.291,46.291,0,0,0,5.47-1.364c1.748-.592,3.358-1.254,4.939-1.815,2.32-.857,4.7-1.852,7.017-2.9,1.164-.517,2.3-1.082,3.4-1.539s2.23-.863,3.333-1.208a64.092,64.092,0,0,1,10.615-2.2,34.133,34.133,0,0,0-17.166,3.379c-2.471,1.125-4.865,2.192-7.191,3.125-1.164.466-2.31.9-3.441,1.288-.562.183-1.109.329-1.652.476s-1.1.217-1.641.307l1.361-.408,1.172-.444c.732-.272,1.423-.6,2.021-.859,1.208-.541,2.154-1,3.034-1.446,1.76-.9,3.26-1.779,6.076-3.281l-3.222,1.115,2.425-1.28c-1.426.3,1.762-1.417,1.24-1.529l-9.125,4.063c5.023-1.935,1.961-.189.69.74-1.57.65-3.232,1.379-4.638,1.877,1.031-.239,3.952-1.349.728.216a24.8,24.8,0,0,1-6.514,1.674,33.5,33.5,0,0,0,3.585-1.487,21.536,21.536,0,0,1-8.013,1.207c-2.626-.029-5.208-.259-8.174-.347-.567-.281-1.1-.624-1.636-.938a30.741,30.741,0,0,1-5.167-1.243l.646-.041c-.48-.177-.986-.323-1.433-.536-.479-.212-.871-.353-1.445-.63l-3.223-1.5c-3.563-1.474-4.237-1.422-4.974-1.483l-2-.866c-.668-.281-1.213-.537-1.9-.8-1.293-.548-2.37-.889-2.985-1.174.636.14,1.278.266,1.919.429l1.918.553a36.31,36.31,0,0,0-3.356-1.41c1.155.462.409.275-.728-.025l-1.828-.385a10.039,10.039,0,0,0-1.305-.176c-.964-.234-1.779-.371-2.469-.489s-1.26-.2-1.74-.26c-.959-.129-1.559-.2-2.067-.248-1.019-.116-1.663-.254-4.137-.444-2.558.126-5.4.326-7.635.668-2.238.325-3.861.772-3.918,1.078a34.577,34.577,0,0,0-3.476.952l-1.733.639-1.505.615-5.98,2.5-5.836,2.491a27.544,27.544,0,0,1-5.168,1.551c-.5.169-1.011.331-1.536.462s-1.041.3-1.577.4a57.4,57.4,0,0,1-5.874.154c-1.764-.016-3.371-.148-4.982-.3a38.84,38.84,0,0,1-4.9-.844,25.1,25.1,0,0,1-2.595-.8l-.678-.248-.788-.325-1.654-.691.792.16-.933-.314-1.984-.67-1.238.792-.018.012,3.358-.06-4.146-1.594c-1.635-.879-3.031-1.569-4.371-2.183a28.914,28.914,0,0,0-4.4-1.542,71.472,71.472,0,0,0-10.7-1.844,34.883,34.883,0,0,0-11.483.927,18.917,18.917,0,0,0-5.881,2.555c-1.133.52-2.19,1.028-3.32,1.516s-2.3.959-3.467,1.413c-2.329.907-4.63,1.746-6.5,2.529l2.31-1.281-3.232,1.076a25.3,25.3,0,0,1-5.419,1.768,56.717,56.717,0,0,1-7.053,1.071c-4.983-.014-7.073-.208-8.516-.08-.717.038-1.276.147-1.914.169a9.926,9.926,0,0,1-2.455-.135c-.772-.243-1.5-.58-2.237-.872-.727-.346-1.4-.657-2.141-1.054l-4.392-2.307.128.228a35.142,35.142,0,0,1-5.925-2.04c-.99-.43-2.126-1-4.032-1.762a36.575,36.575,0,0,0-8.073-1.934l.579.557a19.5,19.5,0,0,0-6.039-.556c-1.913.1-3.983.292-7.06.683a45.865,45.865,0,0,0-7.862,1.582c-1.64.565-3.2,1.245-4.681,1.917a41.942,41.942,0,0,0-3.97,2.026c-2.47.96-4.6,1.986-6.46,2.768a52.089,52.089,0,0,1-5.545,1.822,34.8,34.8,0,0,1-11.921,1.116c-2.758-.394-5.1-.731-6.888-1.108s-2.97-.821-3.3-1.35c.3.126.623.208.933.314a19.476,19.476,0,0,1-1.546-1.412l-.476.412c-2.9-1.5-7.317-3.262-9.6-4.946-1.25-.36-2.466-.747-3.765-1.083a32.215,32.215,0,0,0-3.873-.71,22.788,22.788,0,0,1,5.676,2.071l-.118-.225c1.821.792,6.287,2.646,8.278,3.773l-2.6-.957c2.83,1.4.293.562-.558.28a30.933,30.933,0,0,0-4.865-2.1c-.47-.145-.9-.26-1.5-.453l-2.429-.776c-.966-.418-2.93-.969-2.151-.94a51.121,51.121,0,0,0-6.148-1.1c-2.257-.242-4.214-.195-4.334.082l-.562-.077C1069.633,1573.6,1072.789,1574.545,1076.3,1576.1Z" transform="translate(-1068.697 -1568.172)" fill="#fff"/>
</svg>
