<svg xmlns="http://www.w3.org/2000/svg" width="1363" height="34" viewBox="0 0 1363 34">
  <path id="Intersection_4" data-name="Intersection 4" d="M1363.67,577.3c-11.246-1.984-21.828-3.443-32.307-4.455-12.972-1.254-26.018-1.863-39.886-1.863-.62,0-1.262,0-1.907,0-19.186-1.484-38.44-2.452-58.861-2.96-18.238-.454-35.8-.508-52.79-.562-27.423-.086-55.779-.175-88.642-1.908-13.1,1.53-79.357,5.851-95.982,6.874-41.479-2.433-78.942-4.219-114.528-5.461-39.868-1.392-76.353-2.068-111.54-2.068-34,0-66.794.665-97.454,1.977-32.606,1.395-64.083,3.575-93.553,6.479-18.287,2.135-36.2,3.438-54.335,3.942H486.772c-10.4-.277-21.261-.794-32.818-1.561-16.339-1.084-32.672-2.565-48.468-4l-1.921-.174c-15.259-1.382-32.554-2.948-50.482-4.1-19.469-1.256-37.363-1.867-54.706-1.867-3.466,0-6.98.024-10.443.073,1.319.207,1.978.44,1.958.691-.14,1.8-35.019,4.469-109.439,4.469-9.575,0-19.66-.045-29.976-.134L6.975,552.738c-.02-.005-2.255-.635-5.977-1.723V543.3H1364v34Z" transform="translate(-0.998 -543.299)" fill="#4b8ebe"/>
</svg>
