<svg xmlns="http://www.w3.org/2000/svg" width="1365" height="52.992" viewBox="0 0 1365 52.992">
  <path id="Subtraction_1" data-name="Subtraction 1" d="M1454.5,164.492a355.22,355.22,0,0,0-53.293-3.963c-19.289-1.853-38.659-3.109-59.218-3.839-18.358-.652-36.052-.838-53.164-1.018h-.013c-27.62-.29-56.179-.59-89.221-2.824-13.47,1.714-80.195,6.239-96.912,7.3-44.812-3.338-85.137-5.788-123.277-7.49-42.967-1.918-82.177-2.85-119.871-2.85-31.317,0-61.653.676-90.163,2.009-30.143,1.409-59.379,3.605-86.9,6.527a538.975,538.975,0,0,1-68.566,4.364c-16.541,0-33.848-.753-52.909-2.3-17.044-1.386-34.043-3.281-50.482-5.113l-2.073-.231c-19.182-2.137-35.241-3.881-52.678-5.258-20.364-1.609-39.162-2.391-57.469-2.391-1.991,0-4.016.01-6.019.028,1.322.248,1.978.522,1.951.813-.1,1.033-8.677,2.139-22.954,2.958-12.118.7-34.124,1.524-70.143,1.524-14.769,0-30.746-.142-47.487-.424l-144.021-21.8c-.085-.028-8.623-2.878-20.122-7.066V111.5h1365Z" transform="translate(-89.5 -111.5)" fill="#e2d4bb"/>
</svg>
