<svg xmlns="http://www.w3.org/2000/svg" xmlns:xlink="http://www.w3.org/1999/xlink" width="1366" height="115" viewBox="0 0 1366 115"><defs><style>.a{fill:#fff;}.b{clip-path:url(#a);}.c{fill:#f7ead1;}</style><clipPath id="a"><rect class="a" width="1366" height="115" transform="translate(0 887)"/></clipPath></defs><g class="b" transform="translate(0 -887)"><path class="c" d="M1367.6,278.629c90.89-1.121,148.573-12.376,241.281-11.589,104.021-8.887,142.2,22.283,247.834,15.764,24.4-3.559,48.819-3.7,65.065-10.639,11.04-8.924,23.82-17.633,32.193-26.749-30.381,1.439-27.061-9.815-17.126-10.132l14.887-.422a12.928,12.928,0,0,0,3.749-.609,22.293,22.293,0,0,0,4.127,5.925c-.281-.282-.654-.9-.958-1.263.148.175.3.313.453.472l-.677-.773c-.329-.386-.631-.8-.958-1.261a26.646,26.646,0,0,1-1.61-2.662c.326.594.6,1.259.956,1.785-.378-.578-.63-1.173-.98-1.841l.024.055-.05-.088a26.239,26.239,0,0,1-1.083-2.629,25.514,25.514,0,0,1-1.357-4.243,21.194,21.194,0,0,1-1.007-7.484l-.025.543c0,.175.025.367.025.542l-.025-.015v.015h.025c.026.263.054.512.077.775,0-.23-.125-.582-.1-.775l-1.885-.033-3.873-.071c-51.861-.472-31.013-11.025-13.128-11.656l13.379-.595,3.318-.159,2.088-.1c.077,4.574-.024-10.253.2,10.253h0c-51.962-36.035-148.113-44.906-181.64-43.678,11.519-8.627,24.021-14.481,43.011-19.544l-.1-.368,1.561-.018c4.5-1.174,9.2-2.313,14.433-3.453v-.123c-94.817-26.064-5.735-40.263,28.85-78.929a128.181,128.181,0,0,0-29.555.123l-.123-10.29c-73.339-6.433-122.36-19.876-187.7-36.651-16.323-3.349-2.7-57.035-27.121-56.914-65.09.368-140.845-4.444-205.96-.654-138.808,12.042-169.833,33.88-303.935,38.962.906.735-133.158,7.036-133.284,7.805-32.32.8-73.982,12.37-106.954,13.213-32.57.192-107.56,12.074-140.181,12.264-109.881.616-102.667,17.827-209.783,21.75C460.414,64.428,386.341,85.915,332.9,88.581L297.979,82.6l-24.387,2.274-10.808,1.008-17.8,10.361L212.8,99.779c-34.633,1.317-26.64-26.436-76.186-7.7a328.68,328.68,0,0,0-37.98,17.811,253.464,253.464,0,0,0-36.344,24.627C39.435,153.2,19.84,177.232,9.226,204.4a128.67,128.67,0,0,0-3.772,84.887,153.962,153.962,0,0,0,19.267,40c8.347,12.146,96.207,33.155,96.207,33.155L288.7,373.021c123.885-8.744,172.931-18.162,158.9-19.547,123.966-12.009,204.753,11.533,334.734-16.65,147.685-28.87,312.4-37.983,483.3-40.192C1290.741,292.818,1416.946,273.054,1367.6,278.629Z" transform="matrix(-0.996, -0.087, 0.087, -0.996, 1544.571, 1020.361)"/></g></svg>