<svg xmlns="http://www.w3.org/2000/svg" width="1359.001" height="55.476" viewBox="0 0 1359.001 55.476">
  <path id="Subtraction_14" data-name="Subtraction 14" d="M355.468,674.976c-41.085-.076-86.109-5.523-129.651-10.792h-.025l-.039-.006h-.012l-.095-.012-.019,0c-26.3-3.182-51.137-6.188-75.253-8.1-2.559-.205-5.589-.305-9.264-.305-3.333,0-7.131.082-11.612.25V619.5h1359v31.424l-73.437-16.432c-6.89-.1-14.016-.144-21.786-.144-15.747,0-31.53.2-46.794.388h-.04l-.185,0-.139,0h-.022l-.063,0h-.374l-.3,0h-.071c-15.335.193-31.192.391-47.057.391-16.168,0-30.416-.212-43.556-.65-24.34-.816-45.169-1.2-65.548-1.2-7.92,0-14.549.051-22.392.118l-1.087.009h-.161l-.637.005c-5.2.045-11.666.1-18.134.1-24.492,0-49.8-.8-100.24-4.8-3.322-.262-7.294-.4-11.808-.4-16.062,0-37.772,1.661-58.766,3.267l-.048,0h-.046l-.024,0h-.005l-.06.005c-20.971,1.6-42.657,3.264-58.707,3.264h-.021c-4.482,0-8.429-.132-11.732-.392-1.861-.093-3.83-.141-5.853-.141-15.123,0-32.09,2.623-48.5,5.16l-.019,0-.193.031h-.008l-.03,0c-16.312,2.521-33.179,5.127-47.909,5.127-1.924,0-3.853-.047-5.733-.139-.041.2-4.42.3-13.387.3-12.772,0-32.9-.2-52.361-.388l-.178,0-.692-.007H730.3l-.787-.007h-.029l-.367,0h-.006c-19.4-.189-39.466-.384-52.243-.384-9.063,0-13.519.1-13.623.3a.014.014,0,0,0,0,.016c-8.763-.276-17.409-.417-25.7-.417-14.057,0-27.274.387-40.406,1.183-11.761.714-23.229,1.745-35.06,3.153-22.017,2.621-41.674,6.117-62.485,9.817l-.064.011-.005,0-.024,0-.019,0-.045.005-.007,0-.024,0-.032,0c-19.45,3.461-39.562,7.039-62.789,10.076C410.345,671.637,383.813,673.851,355.468,674.976Z" transform="translate(-129.499 -619.5)" fill="#f7ead1"/>
</svg>
