<svg xmlns="http://www.w3.org/2000/svg" xmlns:xlink="http://www.w3.org/1999/xlink" width="1366" height="133" viewBox="0 0 1366 133"><defs><style>.a{fill:#fff;stroke:#707070;}.b{clip-path:url(#a);}.c{fill:#4378a7;}</style><clipPath id="a"><rect class="a" width="1366" height="133" transform="translate(573.294 218.65)"/></clipPath></defs><g class="b" transform="translate(-573.294 -218.65)"><path class="c" d="M1630.848,517.866c108.385-1.982,177.172-21.878,287.725-20.486,124.044-15.709,169.575,39.39,295.539,27.865,29.091-6.291,58.216-6.541,77.589-18.807,13.165-15.775,28.4-31.17,38.39-47.285-36.229,2.545-32.27-17.351-20.423-17.91l17.752-.747c3.359-.459,4.019-.8,4.47-1.077a43.384,43.384,0,0,0,4.921,10.473c-.335-.5-.78-1.583-1.142-2.232.177.309.363.553.541.835l-.808-1.366c-.392-.682-.752-1.423-1.142-2.23-.659-1.425-1.317-3.006-1.92-4.706.389,1.049.721,2.226,1.14,3.156-.45-1.022-.751-2.073-1.169-3.254l.029.1-.059-.156c-.512-1.425-.869-3.066-1.292-4.647a61.779,61.779,0,0,1-1.618-7.5,54.507,54.507,0,0,1-1.2-13.229l-.03.96c0,.309.03.649.03.958l-.03-.027v.027h.03c.031.465.065.9.092,1.37,0-.407-.149-1.028-.122-1.37l-2.248-.059-4.618-.125c-61.844-.835-36.982-19.489-15.655-20.6l15.954-1.051,3.957-.281,2.49-.184c.092,8.085-.029-18.125.242,18.124h0c-61.964-63.7-176.623-79.381-216.6-77.21,13.736-15.25,28.645-25.6,51.29-34.549l-.121-.651,1.861-.031c5.367-2.075,10.976-4.088,17.211-6.1v-.217c-113.068-46.074-6.839-71.173,34.4-139.524-9.839-1.862-21.864-1.948-35.244.217l-.146-18.189c-87.455-11.372-145.913-35.135-223.829-64.788-19.465-5.92-3.217-100.822-32.342-100.607-77.619.651-167.956-7.856-245.6-1.156C1513.609-9.124,1476.612,29.479,1316.7,38.463c1.081,1.3-158.789,12.437-158.939,13.8-38.541,1.423-88.223,21.867-127.541,23.357-38.839.34-128.264,21.344-167.164,21.68-131.031,1.089-122.429,31.512-250.163,38.448-63.853,3.477-152.183,41.46-215.915,46.172l-41.639-10.572-29.081,4.02-12.889,1.781-21.224,18.315-38.377,6.251c-41.3,2.328-31.768-46.731-90.851-13.613a354.637,354.637,0,0,0-45.291,31.484c-14.066,11.314-30.263,27.791-43.34,43.533A327.085,327.085,0,0,0,11,386.654,331.477,331.477,0,0,0,6.5,536.71a342.256,342.256,0,0,0,22.976,70.708c9.954,21.47,114.726,58.609,114.726,58.609l200.067,18.7C492,669.267,550.491,652.618,533.757,650.171c147.828-21.228,244.165,20.388,399.165-29.432C1109.035,569.7,1305.45,553.6,1509.245,549.69,1539.19,542.948,1689.688,508.011,1630.848,517.866Z" transform="translate(107.114 32.59) rotate(9)"/></g></svg>