<svg xmlns="http://www.w3.org/2000/svg" width="1359.001" height="42.226" viewBox="0 0 1359.001 42.226">
  <path id="Subtraction_15" data-name="Subtraction 15" d="M1911.5,42.226H552.5V15.189c7.1.062,13.569.092,20.36.092,17.268,0,31.618-.225,43.871-.688A779.949,779.949,0,0,0,696.1,18.358c17.194,0,33.975-.427,50.2-.839h.219l.118,0,.268-.006h.046l.116,0h.014l.125,0c16.363-.416,33.282-.845,51.013-.845,21.565,0,40.694.628,60.2,1.976,5.547-.362,11.721-.723,17.855-1.044,16.09-.842,40.21-1.845,63.74-1.845,23.3,0,41.536.976,54.215,2.9,28.417-1.613,54.393-2.4,79.413-2.4,44.59,0,77.849,2.576,105.523,4.991,2.905.252,5.707.5,8.3.732l.335.029.274.025.138.011.63.056.319.029.011,0c24.839,2.2,46.287,4.106,70.448,4.106a457.833,457.833,0,0,0,47.656-2.524c18.233-1.888,37.649-4.865,59.356-9.1,12.223-2.753,24.754-5.133,37.244-7.075,11.8-1.832,23.973-3.34,36.191-4.484C1461.911.993,1484.807,0,1510.074,0c30.148,0,60.187,1.415,89.236,2.784l.069,0,.068,0,.054,0h.006l.181.008c29.232,1.378,59.459,2.8,89.965,2.8,15.915,0,30.63-.378,44.988-1.157-.7-.165-1.05-.313-1.033-.437.052-.444,4.656-.652,14.487-.652,10.357,0,25.429.218,44.512.494h.038l.491.007h.006l.28,0h.054l.337.005h.046l.68.01,2.141.032,1.567.023,1.189.016c3.891.057,8.429.122,13.072.188,26.2.364,60.887.781,96.819.781h2.172v37.3Z" transform="translate(-552.499 0)" fill="#fff"/>
</svg>
