<svg xmlns="http://www.w3.org/2000/svg" width="1363" height="29" viewBox="0 0 1363 29">
  <path id="Intersection_4" data-name="Intersection 4" d="M1,29.5V5.251c1.928-.1,3.957-.15,6.049-.15h.375c14.531.028,14.531.028,21.25,1.942l.014,0c1.586.452,3.56,1.014,6.187,1.708,13.6,3.587,43.62,6.237,43.922,6.263,6.323.485,12.735.721,19.6.721,17.781,0,35.406-1.644,52.45-3.234l.016,0,.057-.005c17.005-1.588,34.59-3.229,52.267-3.229,8.5,0,16.384.368,24.095,1.123,15.511,1.521,29.326,2.261,42.236,2.261,22.964,0,39.214-2.393,53.551-4.5l1.251-.185c15.073-2.223,29.309-4.323,48.82-4.323,16.672,0,35.426,1.588,57.333,4.853,7.546,1.122,18.072,1.645,33.124,1.645,10.889,0,22.909-.274,34.532-.541h.017l.2,0h.01c11.584-.263,23.562-.534,34.345-.534,15,0,25.489.52,33,1.638a118.586,118.586,0,0,0,13.745.723c12.29,0,25.672-1.435,38.614-2.823l.218-.023c12.859-1.376,26.156-2.8,38.139-2.8a114.369,114.369,0,0,1,13.39.711c.015-.059.381-.09,1.084-.09,5.8,0,34.531,2.066,62.314,4.063l.054,0,.32.023c27.96,2.011,56.872,4.09,62.774,4.09a2.933,2.933,0,0,0,1.1-.086.018.018,0,0,0,0-.019c21.443,2.06,41.139,3.063,60.214,3.063,37.239,0,66.374-3.852,97.219-7.93q2.773-.367,5.566-.735c16.078-2.117,33.391-4.321,52.7-5.959C1027.433,1.7,1041.639.9,1056.123.5h40.111c9.008.575,17.412,1.141,25.561,1.69h.01c38.347,2.583,68.633,4.622,116.876,4.622,11.131,0,22.676-.107,35.3-.328,23.012-.4,42.545-1.015,58.24-1.508h.02c12.221-.383,22.836-.717,31.761-.85V29.5Z" transform="translate(-0.998 -0.5)" fill="#4b8ebe"/>
</svg>
