<svg xmlns="http://www.w3.org/2000/svg" width="1365.937" height="79.174" viewBox="0 0 1365.937 79.174">
  <path id="Path_4397" data-name="Path 4397" d="M-1581.022-456.131c9.805.175,19.532-.061,29.124-.756,39.927-2.893,72.842-11.875,106.484-18.917,16.756-3.507,34.211-6.764,53.1-8.9a396.307,396.307,0,0,1,67.574-1.617c54.567,3.251,96.839,15.533,145.081,23.451,25.046,4.111,53.115,7.057,81.479,6.306a308.8,308.8,0,0,0,59.789-7.8c33.291-7.453,61.689-17.935,100.906-22.207,48.394-5.271,95.381,2.812,134.45,11.591,42.268,9.5,91.534,23.32,147.054,19.724,44.8-2.9,105.654-22.207,144.525-28.825,45.487-7.745,98.511-3.588,142.072,3.523,47.124,7.692,103.988,26.466,154.3,32.116v39.371H-1581.022Z" transform="translate(1581.022 488.245)" fill="#2c4454"/>
</svg>
