<svg xmlns="http://www.w3.org/2000/svg" width="68.392" height="33.048" viewBox="0 0 68.392 33.048"><defs><style>.a{isolation:isolate;}.b{fill:#5284b0;stroke:#fcf8f0;stroke-width:0.3px;}</style></defs><g class="a" transform="translate(452.533 -1090.368) rotate(-7)"><path class="b" d="M174.969,794.994a1.139,1.139,0,0,1,.7.073,1.713,1.713,0,0,0,.915.126,1.135,1.135,0,0,1,.267,0,.226.226,0,0,1,.192.164l-.024.021c0-.011.008-.021.013-.032l.1.017-.012-.01a.546.546,0,0,1-.185.344,4.884,4.884,0,0,0-.308.379,1.312,1.312,0,0,1-.446.36,2.2,2.2,0,0,0-.444.368,2.888,2.888,0,0,1-.683.629c-.313.383-.77.605-1.086.985a2.627,2.627,0,0,1-.3.262c-.088.078-.178.154-.259.24-.112.117-.2.261-.376.3a.121.121,0,0,0-.073.045c-.141.242-.406.343-.6.526a6.947,6.947,0,0,0-.5.5,1.373,1.373,0,0,1-.791.539c-.078.014-.056.087-.082.125a1.325,1.325,0,0,1-.275.276c-.2.149-.422.266-.613.424a2.852,2.852,0,0,1-.674.335l-.032-.026.04.018a.36.36,0,0,1-.2.156,2.819,2.819,0,0,0-.97.392l-.027-.027.038.015a3.786,3.786,0,0,1-1.167.634,1.222,1.222,0,0,0-.6.354.243.243,0,0,1-.106.079,7.685,7.685,0,0,1-1.027.408,4.809,4.809,0,0,0-.878.322c-.193.077-.379.17-.57.254a.584.584,0,0,1-.2.079,1.741,1.741,0,0,0-.64.183,3.8,3.8,0,0,1-.774.206,2.285,2.285,0,0,0-.431.107c-.277.108-.546.234-.82.349-.053.023-.13.062-.166.041-.144-.084-.255-.01-.375.047a.13.13,0,0,1-.043.01,7.656,7.656,0,0,0-1.309.416.646.646,0,0,1-.132.019c0-.035,0-.07,0-.106.053-.025.086-.051,0-.078l-.036-.063c-.015.021-.03.043-.044.064s-.026.019-.025.025a.281.281,0,0,0,.025.053l.091.093c-.019.022-.036.054-.059.061-.172.049-.345.093-.518.137-.057.015-.126.049-.171.03a.789.789,0,0,0-.563.068c-.115.033-.233.055-.345.093a.491.491,0,0,1-.349.009c-.036-.014-.1-.011-.122.011-.1.128-.238.1-.369.1-.088,0-.176-.041-.264-.038-.143.006-.285.036-.428.05-.118.011-.236.015-.355.02a1.206,1.206,0,0,0-.312.012,1.254,1.254,0,0,1-.745.022c-.082-.023-.136.041-.2.075-.107.057-.218.1-.317-.019l.027-.019-.016.03a1.391,1.391,0,0,1-.434.087,5.075,5.075,0,0,1-.837,0c-.125-.025-.268.037-.393.013a1.4,1.4,0,0,0-.4-.019.456.456,0,0,1-.133,0c-.765-.145-1.545-.065-2.314-.158a2.964,2.964,0,0,0-.58,0,7.863,7.863,0,0,1-1.371-.111,2.968,2.968,0,0,1-.822-.19.835.835,0,0,0-.258-.069,7.3,7.3,0,0,1-1.179-.231c-.087-.02-.175-.028-.263-.048a1.2,1.2,0,0,1-.3-.083,7.561,7.561,0,0,0-1.609-.532c-.243-.069-.482-.143-.719-.233s-.477-.165-.7-.274a.874.874,0,0,0-.4-.036.526.526,0,0,1-.445-.151,1.032,1.032,0,0,0-.358-.254,2.529,2.529,0,0,0-.437-.077c-.172-.034-.343-.078-.512-.117a.854.854,0,0,0-.042-.171.142.142,0,0,0-.218-.078c-.065.034-.125.078-.188.117-.077-.024-.148-.044-.217-.071a4.981,4.981,0,0,0-1.2-.327.443.443,0,0,1-.281-.1.8.8,0,0,0-.462-.231c-.192-.029-.323-.193-.53-.207a2.151,2.151,0,0,1-.506-.162.188.188,0,0,1-.081-.034c-.29-.292-.715-.352-1.031-.6-.09-.071-.22-.09-.254-.229-.006-.025-.072-.055-.108-.052a.467.467,0,0,1-.411-.218c.016-.009.044-.027.012.012a2.452,2.452,0,0,1-.428-.187,1.627,1.627,0,0,1-.387-.286,2.147,2.147,0,0,0-.365-.232,4.89,4.89,0,0,1-.535-.382l.032-.024c-.006.012-.014.023-.019.036l-.426-.234a.4.4,0,0,1-.075-.048c-.341-.308-.749-.525-1.1-.827s-.67-.583-.983-.9c-.072-.071-.171-.124-.146-.253a.074.074,0,0,0-.043-.059c-.175-.01-.256-.145-.331-.268a.709.709,0,0,0-.235-.26,3.247,3.247,0,0,1-.711-.664,3.548,3.548,0,0,0-.274-.288,5.257,5.257,0,0,1-.413-.333,1.05,1.05,0,0,0-.369-.31,6.556,6.556,0,0,1-.78-.957.681.681,0,0,1-.044-.17l.11,0a.587.587,0,0,0,.063.057c.006,0,.024-.006.037-.01l-.112-.032c-.028-.052-.057-.037-.087,0-.064-.06-.126-.122-.192-.179-.1-.082,0-.23-.12-.318a.735.735,0,0,1-.162-.258c-.043-.078-.073-.163-.119-.24-.144-.244-.285-.5-.633-.472a4.12,4.12,0,0,0-.584-.205c-.127-.038-.253-.079-.379-.123a1.536,1.536,0,0,0-.2-.083c-.186-.038-.25-.269-.444-.279a1.491,1.491,0,0,1-.47-.129c-.165-.065-.338-.112-.5-.177a3.343,3.343,0,0,1-.4-.192c-.309-.177-.621-.35-.914-.55-.2-.137-.469-.21-.547-.489a1.486,1.486,0,0,0-.326-.225c-.253-.088-.4-.3-.6-.443.022-.1.041-.176.065-.282a1.339,1.339,0,0,1-.232-.023.544.544,0,0,1-.14-.089.15.15,0,0,0,.036-.014c.006,0,.007-.015.011-.022l-.035.047-.04-.019c-.176-.062-.226-.26-.39-.351a1.716,1.716,0,0,1-.365-.378c-.019-.022-.027-.063-.049-.073-.282-.121-.368-.418-.551-.625s-.3-.446-.466-.652a8.694,8.694,0,0,1-.632-.855c-.137-.071-.1-.248-.2-.335a.538.538,0,0,1-.175-.3.718.718,0,0,0-.145-.219,3.566,3.566,0,0,1-.473-.74,8.8,8.8,0,0,1-.484-1.33,1.2,1.2,0,0,1-.038-.573,1.154,1.154,0,0,1,.116-.287.361.361,0,0,1,.569-.109,4.421,4.421,0,0,1,.621.64,6.693,6.693,0,0,0,1.42,1.35c.107.08.209.167.313.251a.738.738,0,0,0,.14.11c.553.257,1.076.575,1.65.788.153.057.3.119.46.166.133.04.219.152.34.2s.265.044.39.086c.422.146.842.3,1.258.459a1.982,1.982,0,0,0,.56.141c.22.019.442.036.66.075a3.165,3.165,0,0,1,.424.139,1.292,1.292,0,0,0,.3.088,5.154,5.154,0,0,1,.842.09.119.119,0,0,0,.044,0c.377-.083.768-.052,1.144-.149a.949.949,0,0,1,.435-.037,1.081,1.081,0,0,0,.561-.056.605.605,0,0,1,.425-.043.383.383,0,0,0,.338-.052,3.743,3.743,0,0,1,1.029-.415,2.536,2.536,0,0,0,.5-.193.791.791,0,0,1,.247-.093.474.474,0,0,0,.319-.136.152.152,0,0,1,.078-.04c.451-.1.85-.34,1.3-.446a3.408,3.408,0,0,0,.938-.408c.474-.28.974-.507,1.464-.753a14.813,14.813,0,0,0,1.326-.8.8.8,0,0,0,.206-.23,1.728,1.728,0,0,1,.546-.52.451.451,0,0,0,.179-.184,2.019,2.019,0,0,1,.618-.691.244.244,0,0,1,.381.166,2.772,2.772,0,0,1,.032.749c-.007.065-.077.125-.081.189,0,.048.081.1.083.148a.642.642,0,0,1-.032.348,4.007,4.007,0,0,0-.273.79.725.725,0,0,1-.069.158c-.168.245-.342.486-.512.729a.408.408,0,0,0-.065.116,1.356,1.356,0,0,1-.394.587,6.2,6.2,0,0,0-.908,1.26,5.458,5.458,0,0,1-.661.944.432.432,0,0,1-.113.065.173.173,0,0,0-.018-.032c0-.006-.015-.006-.023-.008l.052.027a.3.3,0,0,1-.192.279.449.449,0,0,0-.032-.116.066.066,0,0,0-.12.035c0,.024.018.065.035.069a.455.455,0,0,0,.124,0c0,.194-.2.195-.3.3-.023.025-.107-.008-.163-.015,0-.034,0-.067,0-.1l.025-.023a.3.3,0,0,0-.015.034l-.065.036.065.042a.921.921,0,0,1-.394.489c-.025.015-.065.018-.076.039-.175.347-.569.454-.805.736a.974.974,0,0,1-.243.191,1.528,1.528,0,0,1-.235.1c.008.057.015.1.022.15a3.683,3.683,0,0,0-.325.205c-.07.052-.148-.133-.209.025-.022.056-.11.088-.172.125s-.161.075-.233.124a2.061,2.061,0,0,1-.72.328c-.133.029-.193.126-.289.187l-.025-.026.036.015a.632.632,0,0,1-.4.177,1.391,1.391,0,0,0-.4.166c-.17.093-.344.176-.523.266l-.3-.1a2,2,0,0,1-.83.252.167.167,0,0,0-.137.192c.012.04.033.1.065.11.194.07.3.286.532.3.063,0,.128.072.182.12.111.1.219.2.319.311a11.034,11.034,0,0,0,.907.787.719.719,0,0,0,.237.11,1.751,1.751,0,0,1,.627.332,1.041,1.041,0,0,0,.339.212,9.851,9.851,0,0,1,1.061.64c.128.063.161.253.329.278a1.88,1.88,0,0,0,.73.322,1.722,1.722,0,0,1,.368.152c.2.108.394.211.594.31a1,1,0,0,0,.251.091,9.327,9.327,0,0,1,1.738.566c.122.052.262.063.382.119a2.879,2.879,0,0,1,.615.254.831.831,0,0,0,.34.1,1.591,1.591,0,0,1,.593.179.521.521,0,0,0,.217.038,1.756,1.756,0,0,1,.355.035,2.633,2.633,0,0,0,.783.154,3.653,3.653,0,0,1,.75.092,7.482,7.482,0,0,0,1.645.087c.474,0,.948.015,1.423.02a1.179,1.179,0,0,0,.177-.01,11.232,11.232,0,0,0,1.144-.171.424.424,0,0,1,.132-.014,1.31,1.31,0,0,0,.74-.084c.428-.032.858-.067,1.287-.1a3.358,3.358,0,0,0,.664-.077c.285-.077.583-.11.875-.162a.354.354,0,0,0,.129-.024,1.081,1.081,0,0,1,.565-.108.449.449,0,0,0,.331-.1c.034-.035.109-.029.165-.04.088-.019.177-.03.263-.054.129-.034.255-.089.386-.11.112-.019.245.031.344-.01.123-.052.253.008.379-.082a1.246,1.246,0,0,1,.426-.1c.124-.028.247-.062.369-.093l.161.344c.188-.008.247-.13.308-.243-.028-.089-.055-.173-.083-.264a3.108,3.108,0,0,1,.694-.17l.1-.214a1.838,1.838,0,0,0,.269.063,1.1,1.1,0,0,0,.222-.019.134.134,0,0,0,.013.036c0,.006.015.008.023.012l-.048-.036a.206.206,0,0,1,.147-.152,1.6,1.6,0,0,0,.644-.283.174.174,0,0,1,.082-.034,7.5,7.5,0,0,0,.917-.331c.053.078.087.087.08.03,0-.019-.036-.036-.056-.056a.556.556,0,0,1,.124-.041c.07,0,.112.026.088.1-.011.039-.046.092.02.1.028,0,.078-.041.093-.075a.936.936,0,0,0,.046-.192,1.621,1.621,0,0,1,.841-.206c.153-.2.154-.2.458-.343.134-.062.262-.139.394-.205a4.01,4.01,0,0,1,.754-.262c.243-.065.483-.146.723-.221a.084.084,0,0,0,.04-.019,1.577,1.577,0,0,1,.8-.348.406.406,0,0,0,.159-.079,1.775,1.775,0,0,1,.686-.311,1.85,1.85,0,0,0,.394-.2,2.71,2.71,0,0,1,.512-.257,2.559,2.559,0,0,0,.476-.241,8.516,8.516,0,0,0,1.262-.742.6.6,0,0,1,.15-.1.173.173,0,0,1,.236.106,1,1,0,0,1,.528-.542,6.762,6.762,0,0,0,1.079-.627,1.257,1.257,0,0,1,.331-.129l.032.026-.04-.019a1.769,1.769,0,0,1,.5-.372.393.393,0,0,0,.141-.107c.207-.242.535-.31.759-.528.4-.054.664-.366,1-.543v-.136c.283-.17.637-.255.8-.61l.4-.043a.121.121,0,0,0,.011.034c0,.006.014.007.022.011l-.044-.035c.014-.171.15-.221.277-.278.008.007.016.016.024.025l-.036-.015a.36.36,0,0,1,.327-.19.247.247,0,0,0,.243-.151.773.773,0,0,1,.327-.285c.1-.062.209-.107.3-.178a1.859,1.859,0,0,0,.211-.223l.127.043-.01-.014.1.1-.012-.01a.443.443,0,0,1,.052.339,2.822,2.822,0,0,0-.149.96.819.819,0,0,1-.037.261.313.313,0,0,0,.008.21,4.884,4.884,0,0,1,.19,1.168.369.369,0,0,0,.05.147,3.1,3.1,0,0,1,.343.863.509.509,0,0,0-.116.035c-.014.007-.011.044-.016.068.024,0,.059,0,.07-.01a.481.481,0,0,0,.053-.1c.244.251.489.5.73.755a.731.731,0,0,1,.087.149.3.3,0,0,1-.205.02.283.283,0,0,0-.282.049c.065.129.2.065.3.108.076.033.129-.035.178-.188.087.079.18.154.26.242a.758.758,0,0,1,.107.187c.018.037.008.083.074.084a1.025,1.025,0,0,1,.636.365,2.3,2.3,0,0,0,.743.474.493.493,0,0,1,.159.077.475.475,0,0,0,.384.168,3.6,3.6,0,0,1,.787.477c-.021.014-.039.024-.011-.011m-45.057-4.2a.137.137,0,0,0-.013-.041c0-.006-.018-.006-.027-.009l.052.037c.027.074.053.076.078,0a.62.62,0,0,0,.129,0c.019,0,.032-.042.04-.066a.042.042,0,0,0-.019-.035c-.024,0-.058,0-.071.009a.613.613,0,0,0-.069.109h-.1m-1.965.165.024.027-.036-.015c-.006-.014-.027-.041.011-.012m37.983.537a.136.136,0,0,0,.011.041c0,.007.017.009.026.013l-.048-.044c-.013-.02.015-.094-.054-.04l.065.03m-40.938.091a.106.106,0,0,0,.015.034c0,.006.017,0,.026.006l-.05-.031a.125.125,0,0,0-.006-.039c0-.006-.019-.006-.03-.009l.045.038m38.6,1.985a.151.151,0,0,0-.011-.034c0-.007-.012-.011-.019-.016l.04.038.028.024-.04-.012m-.529.985c-.024.016-.038.022-.013-.012a.242.242,0,0,0,.034-.015c.006,0,.008-.014.013-.02l-.034.047m8.139-.012c.07-.027.054-.056,0-.084-.012-.063-.056-.1-.108-.065-.077.052-.048.108.026.146.027.031.052.063.082,0m-8.409.1c-.031.022-.03.014-.012-.012s.047-.031.012.012m3.408-2.883c-.015-.019-.028-.04-.042-.06l-.039.041.064.036.04.061.039-.039-.061-.039m.626.287a.233.233,0,0,0-.034.006c-.006,0-.01.014-.015.022l.036-.04.024-.024-.012.036m3.759.892-.087.093a.265.265,0,0,0-.077.011c-.011,0-.015.028-.021.044.013,0,.029,0,.037-.006a.686.686,0,0,0,.048-.06l.089-.094h.105l.087.187-.027.028c.006-.011.012-.024.019-.036.1-.065.11-.093.032-.132a.657.657,0,0,0-.124-.033c-.027-.048-.054-.053-.082,0m-4.307-.105.029-.023-.016.036-.032.027.019-.04m-44.155-4.375c-.021.013-.094,0-.032.056.006-.023.014-.044.021-.066l.032-.024c-.007.011-.014.023-.021.034m47.924.088a.139.139,0,0,0-.036.014c-.006,0,0,.017-.007.025.011-.016.023-.033.036-.048h.1c.024.031.048.063.074.094a.062.062,0,0,0,.032.022c.008,0,.019-.006.029-.01-.01-.021-.015-.052-.031-.06a.547.547,0,0,0-.115-.034c-.013-.024-.025-.048-.039-.071l-.043.069m-37.629.452a.164.164,0,0,0-.012-.031c0-.006-.012-.009-.019-.012l.043.033a.123.123,0,0,0,.012.034c0,.006.015,0,.024.008l-.048-.031m-.9.09-.027-.03.037.019c.011.023-.01.094.055.037l-.065-.027m-11.548-1.521c-.027.02-.032.015-.012-.011l.03-.015-.018.027m31.347,10.746-.026-.025.037.013.027.035-.039-.023m13.882.258.023-.029-.012.04c-.032,0-.086-.008-.041.053.01-.021.02-.043.031-.065m-30.449.909-.031.022.019-.034c.011,0,.052-.036.012.012m-1.8-.359a.115.115,0,0,0-.006-.039c0-.007-.018-.009-.027-.013l.044.041a.234.234,0,0,0,.014.036s.017,0,.026.006Zm37.981-1.793c0-.029.012-.087-.052-.04l.062.03.026.023-.036-.013m-.259-.356-.1,0a.964.964,0,0,0-.2-.158c-.085-.039-.124.023-.122.109.105.083.223.023.334.035.023.047.048.059.078,0l.029-.017-.017.028m-38.617,1.071c0-.041,0-.092-.06-.042l.069.034a.128.128,0,0,0,.013.035c0,.006.016,0,.024.007l-.046-.034m21.053,0a.226.226,0,0,0-.018-.034.061.061,0,0,0-.023-.01l.053.031.013.036Zm.534-.537a.1.1,0,0,0-.008-.036c0-.006-.016-.007-.025-.011l.044.036.025.023-.036-.011m6.273,2.958c-.014-.022-.027-.043.011-.012.023.03.012.027-.011.012m-.81.984a.12.12,0,0,0,0-.042c0-.007-.019-.009-.03-.013l.048.044.02.023-.033-.012m2.071-5.3a.14.14,0,0,0,.014.036c0,.006.014.009.022.012l-.049-.036c-.008-.017-.026-.042.013-.013m-3.86.177.03-.026-.019.037-.028.019.017-.031m15.14-1.235-.095-.1,0-.19.188-.179.082.1a.117.117,0,0,0,.061.157c.044-.024.121-.04.139-.082a.647.647,0,0,0,.006-.228,1.858,1.858,0,0,0,.255-.047.117.117,0,0,0,.058-.1c-.006-.027-.074-.07-.1-.061a.677.677,0,0,0-.417.355l-.1-.083c0-.092,0-.185,0-.278a.473.473,0,0,0,.088-.01c.017-.006.031-.025.046-.039a.249.249,0,0,0-.039-.016c-.029-.006-.059-.008-.088-.011-.006-.009-.012-.019-.019-.029l.03.019c0,.033,0,.067-.006.1-.274-.061-.274-.061-.424.155l.25.29a.678.678,0,0,0-.08.015c-.048.015-.06.048-.024.083a.547.547,0,0,0,.1.067c.032.033.063.065.095.1a.2.2,0,0,0,.012.033c0,.006.014.007.021.011l-.044-.032m-.532,0-.027.027.015-.038c.025-.019.039-.024.011.01m-15.056.7.032-.018-.02.03-.031.025Zm2.865,1.166a.115.115,0,0,0,.035-.011c.006,0,.006-.015.01-.024l-.032.046a.146.146,0,0,0-.033.012c-.006,0-.008.013-.012.02l.033-.044m-.167-1.87c-.078.029-.05.057,0,.086-.069.221-.063.229.177.267l-.082.168c.133.034.241.069.352.088.056.01.129-.011.137-.075.007-.081-.061-.082-.119-.065a.149.149,0,0,1-.184-.066c-.019-.027-.073-.031-.11-.044a.192.192,0,0,1-.019-.235c.021-.032.012-.084.017-.125.055-.051.114-.1.086-.188a.058.058,0,0,0-.03-.031c-.006,0-.028.007-.028.012-.006.073-.01.145-.015.217l-.1-.006c-.025-.053-.051-.082-.081,0m13.6-.173a.139.139,0,0,0-.011-.038c0-.007-.015-.01-.023-.015l.046.04a.161.161,0,0,0,.015.039c0,.006.019,0,.027.006l-.055-.033m-2.684,0-.016-.028.027.018c.011.024-.01.1.059.04l-.07-.029m-2.514,1.968c-.028-.056-.053-.036-.078,0-.071.007-.147,0-.183.087l-.152-.123-.119.191-.188-.158a.45.45,0,0,0,.063-.061.877.877,0,0,0,.054-.1.722.722,0,0,0-.155-.04.154.154,0,0,0-.035.11c.009.034.056.058.086.087l-.24.22c-.234-.134-.234-.134-.31.056l.011-.011c-.14.04-.187-.129-.313-.137a1.2,1.2,0,0,1-.044.121c-.07.133-.123.129-.233-.014-.03-.038-.076-.061-.1-.009a.324.324,0,0,1-.178.184c-.022.007-.071-.007-.074-.019-.008-.04,0-.1-.056-.091-.034,0-.062.052-.1.077-.077.058-.127.073-.127-.057,0-.037-.062-.055-.1-.016s-.067.118-.111.127a7.877,7.877,0,0,1-.963.171,5.166,5.166,0,0,0-.836.13,1.348,1.348,0,0,1-.348.063.721.721,0,0,0-.3.048c-.175.064-.347.2-.552.083-.008,0-.039.037-.061.053a.6.6,0,0,1-.14.091q-.634.216-1.271.422c-.021.006-.051-.016-.1-.034a.58.58,0,0,1,.1-.136,3.338,3.338,0,0,0,.711-.676.533.533,0,0,1,.1-.09l.963-.791c.178-.018.228-.276.442-.234.026,0,.088-.048.091-.078.013-.12.1-.171.177-.242.238-.223.556-.351.741-.635a.2.2,0,0,1,.107-.073,1.536,1.536,0,0,0,.626-.421,1.914,1.914,0,0,1,.474-.327c.37-.192.734-.4,1.1-.6a.612.612,0,0,1,.337-.1,1.462,1.462,0,0,0,.221-.021.1.1,0,0,0,.009.032c0,.006.014.009.02.013l-.04-.033c.032-.03.057-.076.095-.087a4.891,4.891,0,0,1,.6-.162c.422-.072.849-.128,1.274-.186a2.253,2.253,0,0,1,.267-.012,1.514,1.514,0,0,0,.615-.142c-.026-.082-.027-.179-.074-.21-.179-.121-.329-.3-.578-.3-.192,0-.383-.039-.576-.053a1.667,1.667,0,0,0-.311,0c-.293.034-.585.078-.878.117a4.973,4.973,0,0,1-.839.269,1.747,1.747,0,0,1-.547.176.584.584,0,0,0-.3.14.279.279,0,0,0-.061-.063c-.011-.006-.038.017-.057.025a.163.163,0,0,0,.04.018.822.822,0,0,0,.089.007c-.008.011-.013.027-.024.035-.182.117-.185.117-.347-.02l-.023-.028.036.017c-.032.078-.061.156-.1.246a4.225,4.225,0,0,1-.386.263,2.109,2.109,0,0,1-.782.4l-.023-.029.034.017c-.162.1-.321.2-.487.292-.019.011-.07-.035-.112-.057-.036.058-.07.121-.112.178-.1.132-.137.133-.329.015-.076.057-.06.2-.2.2-.181,0-.2-.139-.259-.255h-.13a.515.515,0,0,0,.021-.086.258.258,0,0,0-.01-.068.19.19,0,0,0-.042.01c-.038.018-.075.037-.161.082l.209.048.134.341.307.055a2.653,2.653,0,0,1-.543.423.362.362,0,0,0-.129-.307l-.159.176.3.119c-.164.2-.377.345-.538.546-.04.049-.126.061-.191.091a2.063,2.063,0,0,0-.02-.257c-.015-.071-.123-.089-.179-.039a.155.155,0,0,0,.037.278.508.508,0,0,0,.17.009,3.28,3.28,0,0,1-.505.487.137.137,0,0,1-.223-.046.437.437,0,0,0-.1-.141c-.023-.02-.076,0-.116,0,0,.025-.008.059,0,.074a.471.471,0,0,1,.178.36l-.231.177c-.012-.022.014-.09-.053-.044l.065.032a2.273,2.273,0,0,1-.4.526,5.986,5.986,0,0,0-.872,1,.168.168,0,0,1-.06.066c-.214.122-.308.356-.483.515a.484.484,0,0,0-.178.415c-.131.083-.24.159-.356.223a.689.689,0,0,1-.166.048c0-.01-.011-.019-.015-.03l.026.019c.046.054.093.108.154.181-.05.127-.1.265-.162.4a.368.368,0,0,0-.036.211.373.373,0,0,0,.348.361,1.585,1.585,0,0,0,.3-.171,1.63,1.63,0,0,0,.17-.254c.087-.112.133-.272.314-.289a.182.182,0,0,0,.108-.073,1.211,1.211,0,0,1,.551-.364,7.187,7.187,0,0,1,1.656-.635.366.366,0,0,0,.118-.059,3.009,3.009,0,0,1,1.087-.363c.038-.006.1.006.114-.016.1-.138.252-.133.39-.179a10.206,10.206,0,0,1,1.394-.245c.229-.044.462-.061.7-.091,0,.07-.019.147.073.133a.694.694,0,0,0,.157-.068l-.007.007c.1-.066.175-.165.316-.123a.2.2,0,0,0,.124-.018,2.243,2.243,0,0,1,1-.137.592.592,0,0,0-.051.123.1.1,0,0,0,.1.112.675.675,0,0,0,.165-.061.088.088,0,0,0-.017-.146,1.08,1.08,0,0,0-.213-.016.343.343,0,0,1,.314-.128,2.5,2.5,0,0,0,.475-.033,2.262,2.262,0,0,0,.685-.139,4.467,4.467,0,0,1,.735-.041c.044-.008.086-.022.129-.032l.026.031-.038-.019c.018-.022.031-.053.054-.066a.286.286,0,0,0,.141-.339.334.334,0,0,0-.253-.276,1.171,1.171,0,0,0-.3-.052,2.343,2.343,0,0,0-.831.065c-.04.015-.1-.036-.154-.055.066-.028.067-.054,0-.081m4.04-1.261c.01.007.019.015.028.023l-.032-.019a1.183,1.183,0,0,0,0-.12c0-.009-.025-.026-.031-.023-.021.01-.048.025-.054.043-.023.077.027.094.089.1m-13.524-.169c-.023.014-.053.024-.065.045s0,.047.009.071c.015-.015.037-.027.043-.044a.312.312,0,0,0,0-.082c.024-.017.039-.024.011.011m-13.706,4.017a.128.128,0,0,0,.014.039c0,.006.019,0,.028.006l-.051-.035c-.015-.023-.026-.054-.047-.066s-.043.015-.065.023c.012.008.023.021.036.024.028,0,.057.006.086.008m-5.919-.166a.2.2,0,0,0-.015-.033c0-.006-.014-.007-.021-.011l.048.032c.015.022.025.052.045.065s.046,0,.07-.007c-.015-.014-.028-.033-.046-.039a.341.341,0,0,0-.082-.006m-19.163-11.021a.263.263,0,0,0-.081,0c-.015.006-.018.037-.027.057.024,0,.057.012.07,0s.02-.046.029-.07l.027-.03Zm40.214,12.62a.742.742,0,0,0,.086-.013.125.125,0,0,0,.036-.023c-.022-.007-.052-.027-.065-.02s-.031.043-.045.066a.1.1,0,0,0-.036.006c-.007,0-.009.017-.013.025l.039-.042m-40.936-13.515-.029-.025.041.014c0,.033,0,.066-.006.1-.1.013-.158-.086-.249-.1-.017.112-.036.217.1.256.07.02.111-.032.143-.163h.192a.286.286,0,0,0,.054.054c.01,0,.032-.011.048-.018a.2.2,0,0,0-.036-.014c-.025,0-.052-.006-.078-.009-.03-.086-.1-.089-.177-.092m-.26-.641v.107l-.084.011c-.044.006-.053.023-.023.044a.041.041,0,0,0,.04,0,.507.507,0,0,0,.054-.063c.011-.007.034-.019.033-.023a.484.484,0,0,0-.032-.061c-.016-.022-.027-.053-.048-.063s-.041.015-.062.025a.116.116,0,0,0,.037.019c.027,0,.057.006.085.008m51.046,6.895a.353.353,0,0,0,.088,0c.014,0,.02-.031.029-.048-.014,0-.032-.006-.041,0a.555.555,0,0,0-.063.061l-.027.026c0-.012.01-.025.014-.038m-3.214-1.773c-.02.015-.048.026-.06.047s.014.038.022.057c.007-.011.019-.022.02-.034s0-.054.007-.082a.1.1,0,0,0,.031-.012c.006,0,.006-.014.01-.021-.01.015-.019.03-.03.044m2.15-1.522c-.04,0-.08,0-.119,0-.012,0-.022.015-.032.023.019.012.047.04.054.034a.484.484,0,0,0,.085-.073l.029-.027-.017.038m-2.25,7.864c.04,0,.079,0,.119,0,.011,0,.021-.015.032-.023-.019-.013-.047-.041-.055-.036a.489.489,0,0,0-.084.071l-.025.024c0-.012.009-.024.013-.035m-6.441-1.163c.015.023.023.037-.011.012,0-.027-.006-.054-.011-.082a.177.177,0,0,0-.017-.036c-.008.019-.027.046-.022.057a.217.217,0,0,0,.061.049m-4.383,0,0,.107c-.071,0-.147-.019-.208.04a.281.281,0,0,0,.077.037,1.043,1.043,0,0,0,.133,0c.031.063.061.127.093.19a1.443,1.443,0,0,0-.155.034c-.01,0-.017.051-.007.067a.078.078,0,0,0,.062.02,1.47,1.47,0,0,0,.087-.135c.112-.064.077-.175.086-.272l.189.093a.16.16,0,0,0,.012.031c0,.006.014.007.021.011l-.044-.031a.327.327,0,0,0,0-.085c-.036-.107-.072-.109-.167-.007l-.093,0-.093-.1a.568.568,0,0,0-.052-.057c-.008-.006-.025,0-.038,0,.008.015.013.04.024.043a.312.312,0,0,0,.078,0m10.747-5.729a.105.105,0,0,0,.007.04c0,.007.019.007.029.01l-.049-.04a.243.243,0,0,0-.053-.054c-.009,0-.031.013-.048.02a.128.128,0,0,0,.036.016c.025,0,.052,0,.078.006m2.775-.074c-.022.014-.053.024-.065.044s0,.046.006.07c.015-.015.036-.027.041-.044a.345.345,0,0,0,.006-.082.219.219,0,0,0,.033-.014c.006,0,.009-.013.013-.019Zm1.074.162c0,.013.036.051-.011.012a.523.523,0,0,0-.053-.065.045.045,0,0,0-.04,0c-.032.022-.023.041.019.049a.764.764,0,0,0,.084.006m-42.018-.073c-.019-.027-.019-.034.011-.012a.194.194,0,0,0,.049.061c.01.006.037-.014.057-.022a.151.151,0,0,0-.036-.019c-.027,0-.054-.006-.081-.008m40.757-.732a.361.361,0,0,0,.079-.008c.017-.006.031-.024.045-.037-.023,0-.051-.014-.068,0s-.031.04-.044.061a.183.183,0,0,0-.032.012.084.084,0,0,0-.014.019c.011-.015.023-.029.034-.042m.722,0,.02.028-.032-.017c-.018-.022-.032-.051-.055-.064s-.039.015-.06.023a.216.216,0,0,0,.04.017c.028.006.057.008.087.012m-42.727-1.255.026.028-.038-.016a.349.349,0,0,0,0-.087c0-.019-.026-.036-.04-.052-.007.01-.019.021-.021.033a.051.051,0,0,0,.009.04.526.526,0,0,0,.066.053m32.6,6.809a.507.507,0,0,0,.078-.007.185.185,0,0,0,.048-.034c-.023,0-.051-.015-.068-.006s-.032.039-.047.058a.166.166,0,0,0-.04.007c-.007,0-.01.017-.015.026l.043-.044m4.4,2.612c-.023.012-.053.019-.065.038s0,.045,0,.069c.016-.013.04-.023.045-.039a.25.25,0,0,0,0-.078c.023-.016.036-.023.011.01m-3.671-2.685a.377.377,0,0,0-.081,0,.2.2,0,0,0-.057.031c.01.007.02.019.031.02a.052.052,0,0,0,.038-.008.533.533,0,0,0,.056-.057.262.262,0,0,0,.027-.024c0,.012-.011.023-.015.036m5.552,2.507c-.042.011-.084.022-.125.036a.051.051,0,0,0-.025.032.058.058,0,0,0,.006.037c.023,0,.057.007.067,0a.772.772,0,0,0,.066-.112l.094-.1c.176.061.192.05.179-.129,0-.015,0-.029,0-.043.028-.02.035-.02.011.012a.262.262,0,0,0-.175.171c-.032.032-.062.065-.094.1m4.379-4.66a.109.109,0,0,0,.015.041.063.063,0,0,0,.107-.007.521.521,0,0,0-.065-.048.111.111,0,0,0-.044,0c0-.059-.007-.118-.011-.176l.215.042c.044-.21.044-.21-.111-.5.025.21-.145.3-.094.466a.235.235,0,0,0-.074.031c-.03.028-.078.068-.072.094.015.062.076.066.133.057m2.247-.015.022.027-.033-.015c.015-.038.032-.076.045-.115,0-.006-.015-.03-.017-.029-.023.008-.044.019-.067.029l.05.1m-3.677-1.418c-.016-.023-.027-.042.012-.011.034.05.072.088.133.034.009-.008.019-.03.015-.036s-.036-.044-.047-.04a.777.777,0,0,0-.112.053m-11.367,4.031c-.022.019-.051.035-.062.059a.079.079,0,0,0,.007.073c.014.013.049.006.074.008a.347.347,0,0,0,0-.071.587.587,0,0,0-.032-.082c.014-.017.09.011.04-.053-.009.022-.019.044-.027.066m-1.714,4.459c.037-.022.076-.042.112-.067a.052.052,0,0,0,.019-.038c0-.01-.015-.031-.02-.031-.024,0-.062.006-.069.021a.6.6,0,0,0-.029.128.236.236,0,0,0-.035.018c-.006,0-.006.015-.008.023l.03-.054m14.338-8.044c0-.01-.009-.019-.014-.029l.025.019a.276.276,0,0,0,.01.083c.008.019.038.048.051.044a.094.094,0,0,0,.055-.053c0-.01-.024-.041-.044-.051a.277.277,0,0,0-.083-.012m-2.962-.986a.235.235,0,0,0,0-.082c-.006-.017-.037-.023-.057-.036,0,.024-.018.056-.007.071s.047.025.072.037c.055.077.12.11.21.049-.062-.086-.146-.039-.221-.04m-27.665,8.048a.323.323,0,0,0,0,.084c.006.018.03.03.046.045,0-.025.018-.056.008-.073s-.044-.031-.066-.048a.576.576,0,0,0-.032-.12c-.006-.014-.047-.011-.071-.016,0,.025-.007.061,0,.07a.613.613,0,0,0,.109.057m-6.809-1.436a.155.155,0,0,0,.009.033c0,.006.011.01.018.015l-.04-.036c-.049-.061-.105-.1-.187-.049a.354.354,0,0,0,.07.029c.043.006.086.006.13.008m35.379-8.227a.4.4,0,0,0-.076-.028.209.209,0,0,0-.07.009c0,.022,0,.056.012.064a.079.079,0,0,0,.071,0c.022-.011.035-.038.052-.058a.346.346,0,0,0,.087,0c.012,0,.018-.031.026-.048-.014,0-.032-.006-.041,0a.74.74,0,0,0-.061.061M170.4,792.4a1.228,1.228,0,0,0,.148-.078c.016-.011.028-.063.019-.071a.176.176,0,0,0-.1-.044c-.023,0-.05.022-.075.034-.039-.157-.105-.191-.208-.107a.168.168,0,0,0-.048.188l-.026.022c.006-.01.011-.021.016-.031l.277-.087c0,.062,0,.124,0,.186a.246.246,0,0,0-.03.015.1.1,0,0,0-.014.017l.032-.044m-30.267,6.825c-.072-.01-.144-.02-.216-.027-.007,0-.023.018-.025.03a.043.043,0,0,0,.013.037c.088.055.164.052.216-.052.011-.019.09.015.041-.053l-.029.066m20.146-3.957c.049-.046.1-.093.147-.141.006-.007,0-.027,0-.04-.023,0-.05,0-.067.006a.182.182,0,0,0-.069.186.136.136,0,0,0-.038.01c-.006,0-.008.016-.012.025l.039-.046m8.515-3.762c.007.009.014.018.021.025l-.032-.014c-.026-.029-.052-.082-.078-.082a.482.482,0,0,0-.158.043.07.07,0,0,0,0,.04c.006.011.022.03.031.028.072-.011.144-.026.215-.04m-4.3,5.733a.155.155,0,0,0,.011.034c0,.006.015.006.023.01-.015-.012-.029-.024-.044-.035-.021-.034-.036-.079-.066-.1s-.069,0-.1.006c-.006,0-.017.031-.012.037.022.03.046.075.075.08s.078-.022.116-.036m-3.413-2.78c.162.066.162.066.267-.082l.029-.025c-.006.011-.011.024-.017.037-.093.015-.209-.041-.268.082a.158.158,0,0,0-.033.015c-.006,0-.006.014-.009.022Zm-5.821,3.052c.057.009.111.012.145-.048-.016-.023-.026-.056-.048-.067a.487.487,0,0,0-.112-.03c0,.037,0,.075,0,.112,0,.012.014.024.021.036-.074.015-.087.06-.047.116.012.016.047.015.07.023,0-.036,0-.073-.007-.108,0-.013-.015-.024-.023-.035m-37.8-11.548a.354.354,0,0,0-.064-.057c-.011,0-.033.011-.051.018a.406.406,0,0,0,.042.011l.084.015c.048.066.077.158.191.138-.029-.107-.128-.1-.2-.125m39.055,10.919a.277.277,0,0,0,.06.063c.011.006.037-.017.057-.027a.152.152,0,0,0-.039-.019.767.767,0,0,0-.088-.006.519.519,0,0,0-.032-.123.084.084,0,0,0-.073-.036c-.019,0-.037.041-.046.066a.431.431,0,0,0-.014.087.538.538,0,0,0-.086.073c-.006.006.024.041.038.063.011-.008.029-.016.03-.027,0-.04,0-.08.006-.12l.188,0m12.094-2.688a.745.745,0,0,0,.074.1c.012.013.044.006.067.007-.01-.023-.015-.059-.032-.067a.63.63,0,0,0-.121-.03c.072-.146.072-.146-.038-.242a.154.154,0,0,0,.05.228m-8.772,2.144a.365.365,0,0,0,.008.079c0,.012.027.019.04.027,0-.012,0-.029-.006-.037a.619.619,0,0,0-.057-.057.443.443,0,0,0-.065-.059.107.107,0,0,0-.148.05.18.18,0,0,0,0,.115.277.277,0,0,0,.044.075.563.563,0,0,0-.065.049.05.05,0,0,0-.01.039.113.113,0,0,0,.019.035c.013-.016.034-.031.039-.049a.33.33,0,0,0,0-.085l.194-.181m-41.667-9.495a.4.4,0,0,0,.107.074.173.173,0,0,0,.112-.019c.013-.006.019-.065.008-.074a.184.184,0,0,0-.112-.042c-.037.006-.069.046-.1.071l-.027.027c0-.012.011-.025.015-.038m45.431,12.629a.358.358,0,0,0,0,.083.164.164,0,0,0,.036.055c.007-.01.019-.02.02-.032a.049.049,0,0,0-.009-.038.821.821,0,0,0-.061-.057c-.173-.11-.173-.11-.277.05l.292-.061m-3.228-3.024-.257.11c.043.048.067.1.1.105a.119.119,0,0,0,.1-.057.78.78,0,0,0,.044-.17.264.264,0,0,0,.055-.058c.006-.009-.011-.032-.017-.047a.277.277,0,0,0-.011.037c-.006.027-.009.053-.014.079m8.419-4.394a.307.307,0,0,0-.1.07.134.134,0,0,0-.007.11c.026.057.113.077.141.036a.163.163,0,0,0,.011-.112.508.508,0,0,0-.055-.116.258.258,0,0,0,.08-.008c.02-.008.048-.036.046-.051a.074.074,0,0,0-.049-.051c-.015,0-.044.023-.053.042a.259.259,0,0,0-.011.08m-12.012,5.107a.153.153,0,0,0-.013-.032c0-.006-.012-.009-.019-.013l.044.033a.432.432,0,0,0,.146.062c.09,0,.1-.041.061-.185-.037.025-.071.051-.107.073s-.074.041-.112.062m5.741-3.148a.124.124,0,0,0,.011.04c0,.007.019.007.028.011l-.05-.042c.011-.069.032-.155-.053-.181s-.167,0-.179.141l.242.03m5.208.381a.637.637,0,0,0,.169-.023.109.109,0,0,0,.053-.1.126.126,0,0,0-.095-.067.135.135,0,0,0-.163.151c-.027.023-.065.045-.015.08,0,0,.034-.029.052-.045m-13.011,2.571c.026.015.05.029.077.042a.093.093,0,0,0,.139-.049.116.116,0,0,0-.088-.163.1.1,0,0,0-.117.095.786.786,0,0,0,0,.087l-.026.024Zm7.8-2.672-.077-.1c-.065-.085-.126-.1-.169-.041s-.009.108.03.15a.912.912,0,0,0,.1.086c.06.046.089.02.109-.1l.026-.025Zm7.606,3.121a.192.192,0,0,0,.195-.074c.04-.047.067-.1.011-.155a.13.13,0,0,0-.191.027.238.238,0,0,0,0,.212l-.026.022c0-.01.01-.022.015-.031m3.68-2.6c.019.027.022.036-.011.011l.036-.246c-.124-.023-.225-.139-.338-.01l.227.255-.028.025.017-.036Zm-29.92,5.108.028.026a.3.3,0,0,1-.038-.015.346.346,0,0,0,.028-.34.773.773,0,0,0-.121-.023c-.076,0-.15.011-.173.1a.164.164,0,0,0,.074.191.962.962,0,0,0,.2.063m24.8-10.4-.126-.119c-.085.025-.141.073-.138.157a.744.744,0,0,0,.043.209c.006.019.045.036.073.04a.18.18,0,0,0,.2-.054c.054-.073.015-.139-.024-.2.027-.01.053-.019.079-.031a.164.164,0,0,0,.032-.027c-.024-.009-.051-.026-.073-.022s-.044.031-.066.049m.458-.17a.618.618,0,0,0,.165.065.227.227,0,0,0,.225-.114.214.214,0,0,0-.025-.211.191.191,0,0,0-.227-.1.176.176,0,0,0-.149.188,1.33,1.33,0,0,0,.023.177.261.261,0,0,0-.033.01c-.006,0-.008.015-.011.022l.033-.043m-1.7,2.161.307-.142c-.186.018-.25-.12-.33-.249a.145.145,0,0,0-.228-.031.2.2,0,0,0-.109.171c.03.137.209.181.192.338l-.031.019.019-.029c.07-.01.147,0,.186-.083Zm.008,7.079c-.1-.024-.192-.047-.321-.078a4.3,4.3,0,0,1,.211.387c.059.141.167.141.286.136l-.011-.01,0,.042c-.016.146-.01.157.113.148a.422.422,0,0,0,.117-.044.376.376,0,0,1-.026-.088.484.484,0,0,0-.212-.314,1.089,1.089,0,0,1-.167-.191l.243.045a.129.129,0,0,0-.062-.187c-.065-.027-.109.024-.143.072a.278.278,0,0,0-.027.082m-25.266,1.242c.069-.028.138-.055.205-.086a.261.261,0,0,0,.125-.4.309.309,0,0,0-.421-.134l-.032-.025.041.015c-.032.047-.063.094-.1.138a.2.2,0,0,0-.009.271c.035.045.068.091.1.135-.066.024-.1.076-.046.128s.1.01.131-.045m26.582-5.942c.078.279.087.289.3.188a.321.321,0,0,1,.208-.019.107.107,0,0,0,.12-.106l-.319-.206a.308.308,0,0,1-.3.143m5.552,1.8c-.058-.154-.17-.164-.3-.142a.152.152,0,0,0-.115.165.2.2,0,0,0,.122.171.159.159,0,0,0,.2-.052.973.973,0,0,0,.09-.141m-5.916,2.929a2.364,2.364,0,0,0,.15-.309.172.172,0,0,0-.057-.15.216.216,0,0,0-.166-.017.1.1,0,0,0-.061.143c.052.1-.006.242.133.332m-2.958-5.708-.414.132.118.2c.092-.085.091-.084.211,0a.078.078,0,0,0,.074,0,.23.23,0,0,0,.011-.336m-29.749-7.08c-.01-.013-.019-.033-.026-.033a.609.609,0,0,0-.436.241c-.007.009.011.057.028.069a.121.121,0,0,0,.161,0c.094-.088.182-.183.272-.276m30.1,10.617c0-.015.006-.036,0-.043-.072-.07-.145-.139-.222-.2-.009-.007-.067.019-.068.032a.285.285,0,0,0,.11.269.176.176,0,0,0,.124,0c.023,0,.038-.038.057-.059m.354-1.714a1.9,1.9,0,0,0,.245-.134.1.1,0,0,0,.012-.148.119.119,0,0,0-.154-.024c-.1.052-.138.133-.1.306m-1.869-.663a.587.587,0,0,0-.113-.142c-.04-.027-.154.06-.169.116s.059.129.14.136c.061.006.116-.007.142-.109m6.086-3.808c-.169.134-.169.134-.044.4.146-.065.146-.065.118-.166-.02-.069-.042-.137-.074-.238m-15.828,11.089a.139.139,0,0,0-.139-.126.143.143,0,0,0-.113.156.12.12,0,0,0,.116.1.141.141,0,0,0,.136-.133m13.111-10.25.062.056c.086-.047.173-.094.258-.145.008,0,.011-.03.006-.04s-.03-.059-.047-.06a1.442,1.442,0,0,0-.187.011c-.028.055-.06.116-.092.177m-26.326,8.5a1.573,1.573,0,0,1-.095-.276c-.024,0-.061,0-.071.017a.137.137,0,0,0,.02.191.571.571,0,0,0,.146.069m30.537-4.828c.144-.051.141-.154.134-.254,0-.019-.043-.053-.057-.049-.036.009-.091.036-.093.057a1.865,1.865,0,0,0,.015.246m-8.525-1.039a.167.167,0,0,0,.053.219c.074.064.149.081.212.023l-.265-.242m-.371.441-.069-.018a1.921,1.921,0,0,0-.074.192c0,.019.025.068.035.067.037,0,.1-.017.1-.037a1.074,1.074,0,0,0,0-.2m8.012,1.356c-.016-.055-.033-.111-.049-.167s-.032-.045-.061-.012a.142.142,0,0,0,.019.223c.011.008.032.015.04.011a.427.427,0,0,0,.052-.055m.174-2.268c.009.113.086.131.15.148a.126.126,0,0,0,.108-.037c.033-.046-.01-.079-.053-.088-.065-.013-.134-.015-.205-.023m-30.036,7.1a.279.279,0,0,0,.069-.076c.021-.049-.052-.116-.11-.1a.152.152,0,0,0-.09.079c-.022.051.04.1.131.1m22.621-3.338a.587.587,0,0,0-.041-.113.6.6,0,0,0-.076-.075c-.019.02-.053.042-.052.061a.2.2,0,0,0,.046.1c.015.016.051.012.123.026m-35.762-6.606c-.022-.065-.081-.1-.129-.061a.091.091,0,0,0-.035.072.089.089,0,0,0,.132.057c.017-.01.022-.044.032-.067m38.461,2.211c-.082-.05-.115-.084-.151-.089s-.068.023-.1.041a.043.043,0,0,0,0,.038.185.185,0,0,0,.074.031,1.473,1.473,0,0,0,.182-.022m-21.955,8.764a.791.791,0,0,0,.167.08.122.122,0,0,0,.1-.034c.028-.053-.023-.078-.063-.083a1.018,1.018,0,0,0-.2.037m-16.444-9.725a.442.442,0,0,0-.12-.07c-.049-.007-.113.091-.082.12a.147.147,0,0,0,.112.036c.03-.006.053-.047.091-.085m43.616,3.9a.113.113,0,0,0-.1-.133c-.072-.015-.151.026-.128.06a.318.318,0,0,0,.125.107c.025.011.071-.023.1-.034m-5.771,1.271.28.088c-.044-.111-.044-.111-.28-.088m6.4-.917c.017-.078.006-.137-.058-.151-.027-.006-.075.034-.093.065a.082.082,0,0,0,.06.128c.034,0,.068-.031.091-.042m-10.59-.981c.038.077.117.064.181.082.021.006.048-.008.072-.014-.019-.029-.031-.078-.056-.086a.174.174,0,0,0-.2.019m9.862-1.308a.6.6,0,0,0-.1-.051c-.006,0-.043.057-.036.064a.477.477,0,0,0,.089.07l.048-.083m-12.746,2.138c-.024-.009-.054-.031-.07-.023s-.023.044-.034.067c.024.008.054.03.072.023s.022-.044.032-.067m13.544-1.7A1.258,1.258,0,0,0,172.2,794c-.017-.006-.042.01-.064.015.016.023.028.059.049.065a.783.783,0,0,0,.161,0m-14.281,2.84.043-.016a.5.5,0,0,0-.009-.121c-.006-.019-.04-.03-.061-.044-.007.023-.024.048-.019.07a.6.6,0,0,0,.047.111m8.579-4.366a.459.459,0,0,0,.075-.1c0-.019-.022-.048-.035-.071-.032.019-.078.031-.091.058s.024.062.051.118m3.129,2.786a.49.49,0,0,0,.057-.09c0-.006-.048-.045-.056-.041a.5.5,0,0,0-.072.076l.071.054m-.391-4.956a.937.937,0,0,0-.091.127c-.008.016.012.045.02.07.023-.015.061-.026.067-.045a.671.671,0,0,0,0-.151m-12.83,9.8c-.019-.021-.038-.054-.049-.052a.342.342,0,0,0-.113.051c-.015.011-.012.046-.017.07.026,0,.058.023.077.013a.587.587,0,0,0,.1-.082m1.263-4.557a.423.423,0,0,0-.1-.07c-.019-.006-.049.019-.074.035a.06.06,0,0,0,.015.038.638.638,0,0,0,.111.059c.006,0,.026-.035.045-.062m11.092-4.333a.92.92,0,0,0,.076-.133c.006-.017-.015-.043-.023-.066-.022.015-.059.026-.062.043a.733.733,0,0,0,.01.156m-7.968,8.693c-.014-.014-.022-.029-.034-.034s-.039,0-.04,0c-.011.052-.02.1-.027.157a.039.039,0,0,0,.028.014.048.048,0,0,0,.032-.024c.016-.039.028-.079.041-.116m4.944-7.821a.2.2,0,0,0,.212.057c.016,0,.027-.036.034-.057s-.018-.031-.027-.03c-.069.007-.137.018-.219.029m-15.352,6.184c-.024-.007-.056-.028-.073-.019a.358.358,0,0,0-.086.078s.015.032.015.031c.048-.019.1-.039.142-.061,0,0,0-.019,0-.03M119.773,788.7a.487.487,0,0,0-.1-.044c-.008,0-.042.053-.036.059a.5.5,0,0,0,.086.066l.05-.081m36.78,7.859c.04-.017.088-.03.087-.037a.576.576,0,0,0-.036-.112c-.023.009-.068.017-.068.027a.622.622,0,0,0,.017.122m-4.54,1.581c-.011-.021-.019-.057-.036-.061a.079.079,0,0,0-.067.029c-.024.031.012.09.049.08.021-.006.036-.032.054-.048m12.55-5.737-.053.12a.535.535,0,0,0,.1.039c.008,0,.04-.047.033-.061a.469.469,0,0,0-.082-.1M163.3,794.39a.146.146,0,0,0,.015.036.2.2,0,0,0,.079-.023.234.234,0,0,0,.044-.066.2.2,0,0,0-.075,0,.262.262,0,0,0-.064.055m7.492.306a.508.508,0,0,0-.009.123.071.071,0,0,0,.061.03c.04-.021.062-.058.026-.1a.422.422,0,0,0-.078-.052m-27.7,4.826-.081.093c.012.009.027.027.035.025.034-.013.066-.031.1-.048l-.053-.07m7.816-1.094c-.05,0-.086-.008-.124-.007-.01,0-.02.017-.03.026a.508.508,0,0,0,.1.039c.011,0,.027-.028.052-.057m-9.468,1.5.09-.037a.743.743,0,0,0-.082-.086c-.006,0-.057.027-.055.031a.691.691,0,0,0,.047.091m17.759,1.217c-.011-.024-.016-.061-.036-.071s-.054.007-.071.023a.055.055,0,0,0,.044.088c.022,0,.041-.026.062-.04m11.78-7.574.076-.038c-.021-.015-.045-.045-.063-.042a.293.293,0,0,0-.089.049l.076.031m-5.352-1.5a.394.394,0,0,0-.042.059c0,.006.02.033.022.032.023-.012.045-.027.068-.042l-.048-.049m4.28,5.832-.019-.073c-.014.006-.035.007-.04.017a.3.3,0,0,0-.018.068l.077-.012m2.146-4.493a.6.6,0,0,0-.124-.021c-.018,0-.033.034-.049.052a.572.572,0,0,0,.111.031c.016,0,.034-.033.062-.063m-13.911,2.224a.66.66,0,0,0-.017-.066s-.034,0-.036.009a.3.3,0,0,0-.015.072l.069-.015m11.671-5.423c-.011-.007-.023-.023-.032-.021a.223.223,0,0,0-.068.027c-.007,0-.01.034-.006.036s.044.024.057.017.033-.038.049-.058m-46.286.019-.089.075a.457.457,0,0,0,.111.041c.019,0,.043-.025.065-.039-.026-.024-.053-.048-.086-.078m30.5,7.522c-.022-.032-.036-.067-.048-.066a.461.461,0,0,0-.11.031c.014.018.027.052.041.053a.515.515,0,0,0,.117-.019m5.012-2.17c-.022-.016-.042-.044-.064-.045s-.049.024-.073.037c.022.017.044.045.065.046s.048-.025.071-.038m-14.731,3.576c-.04-.023-.074-.044-.111-.062l-.023.032c.031.021.061.044.093.062,0,0,.02-.015.041-.032m25.7-10.144c0-.012-.012-.036-.015-.036-.025.006-.049.015-.074.023l.027.06.061-.047M154.2,796.911c-.023.007-.057.01-.068.027s.01.044.018.069a.209.209,0,0,0,.068-.036c.007-.009-.011-.039-.018-.059m12.043-5.892.086-.092c-.022-.012-.044-.038-.064-.036a.078.078,0,0,0-.058.045c0,.022.02.048.036.083m3.51-2.175-.108-.068c-.014.024-.044.064-.038.07a.3.3,0,0,0,.095.063c.006,0,.029-.036.051-.065m-7.637,5.844c-.023.012-.053.019-.064.038s.008.044.013.067c.023-.01.058-.015.066-.033s-.009-.048-.015-.072m-17.691,4.447a.907.907,0,0,0,.1.053c.006,0,.023-.014.035-.021l-.071-.093-.061.061m12.9-2.121-.04-.07c-.017.019-.051.041-.048.055a.372.372,0,0,0,.052.086Zm13.213-5.288a1.134,1.134,0,0,0-.04.154c0,.011.031.027.05.037,0,0,.025-.021.023-.03-.006-.042-.016-.083-.034-.161m-24.73,7.867c.012-.023.034-.048.033-.072a.218.218,0,0,0-.036-.077c-.013.025-.036.05-.036.074s.024.05.039.074m5.935,2.636.072-.035-.04-.054a.66.66,0,0,0-.057.06l.025.029m7.125-4.588-.035-.065a.323.323,0,0,0-.05.038s.009.031.015.032a.337.337,0,0,0,.07,0m10.855-.079c.014.023.022.053.041.064s.043-.009.065-.015c-.011-.023-.017-.057-.035-.065s-.047.009-.072.015m1.313-5.191c-.038-.016-.069-.033-.1-.043-.008,0-.023.015-.034.024l.07.088.065-.07m.967,1.714c-.036-.019-.064-.036-.1-.048-.006,0-.021.014-.033.02l.065.083.063-.055m-17.627,3.259c-.023.027-.048.054-.07.084,0,0,.015.02.024.03l.091-.078-.044-.036m3.1-1.445c-.022-.01-.05-.031-.065-.025s-.029.042-.043.064c.024.009.052.03.073.024s.023-.041.035-.063m7.049,2.824c-.006-.009-.011-.023-.019-.025a.107.107,0,0,0-.036,0,.2.2,0,0,0,.025.04s.019-.01.03-.016m2.643-6.428.031-.019-.023-.024a.239.239,0,0,0-.039.031l.032.012m3.215-3.077a.446.446,0,0,0-.078-.026c-.008,0-.019.015-.029.025.019.014.036.034.057.038s.031-.022.051-.037m.9,3.37-.027-.03a.419.419,0,0,0-.036.064c0,.006.018.019.028.028l.036-.062m-7.994,6.476c0,.008,0,.023.01.026a.108.108,0,0,0,.036.006c0-.015-.007-.029-.011-.044l-.035.011m-14.681.068c0-.013-.006-.025-.009-.037l-.017.048.026-.01m15.034-3.036a.153.153,0,0,0,.01-.036s-.014-.009-.021-.014a.165.165,0,0,0-.01.035c0,.006.014.01.021.015m5.3.738a.334.334,0,0,0-.076-.023c-.009,0-.019.015-.029.023.019.013.036.034.055.037s.031-.023.05-.037m-6.271.355a.575.575,0,0,0-.067-.019c-.01,0-.019.015-.03.023a.243.243,0,0,0,.061.038c.007,0,.023-.027.036-.043m7.075-5.627a.127.127,0,0,0,.038.01s.009-.015.014-.024a.115.115,0,0,0-.037-.01c-.006,0-.011.016-.015.024m-4.3,5.321-.016-.037c-.008.01-.021.021-.022.033s.01.025.015.037l.023-.033m4.095-6.117a.427.427,0,0,0-.029.066c0,.006.024.026.027.023s.043-.028.042-.042-.025-.031-.04-.048m-11.728,6.078c0,.022,0,.044-.006.066.008-.01.022-.02.023-.03s-.01-.024-.016-.036m-2.043.035.071-.03c-.015-.016-.027-.045-.044-.047s-.046.016-.069.027l.041.05m15.5-.094c-.006-.01-.012-.021-.018-.032l-.025.021a.336.336,0,0,0,.03.045c0-.01.009-.023.013-.034m-1.63-.04a.55.55,0,0,0-.077-.031c-.009,0-.022.016-.033.025.016.015.032.045.048.044s.041-.024.062-.038m-1.768-6.035c-.011-.02-.02-.042-.031-.063-.011.008-.031.02-.029.026a.492.492,0,0,0,.032.066c.009-.01.018-.019.028-.029m2.733.7.013.04.015-.039Zm-46.666-.205c0-.008,0-.02-.009-.023a.125.125,0,0,0-.036-.006c0,.012.008.026.011.039l.034-.01m30.55,5.971.018-.034-.028-.006Zm14.867-5.652.032-.006-.01-.04-.03.008a.173.173,0,0,0,.007.039m-16.937,6.4c0-.009,0-.023-.009-.026a.118.118,0,0,0-.035,0l.01.041.034-.01m16.756-.015c-.011,0-.022-.012-.032-.01-.04.007-.042.023-.006.04a.041.041,0,0,0,.032-.006s0-.015,0-.023m-3.926-1.439c0,.01,0,.026.009.029a.1.1,0,0,0,.037,0l-.012-.048-.034.015m-5.975,1.616c0,.01,0,.025.006.028a.044.044,0,0,0,.037.009c.036-.017.033-.037-.006-.049-.01,0-.024.008-.036.012m-6.961.119.032-.016c-.009-.008-.021-.025-.027-.023a.161.161,0,0,0-.039.029l.033.01m3.156-1.716-.059-.016c0,.008,0,.023.009.023a.188.188,0,0,0,.05-.007m13.726-6.778.065-.032c-.006-.01-.013-.03-.021-.03a.293.293,0,0,0-.065.008l.022.054m-4.5,8.746-.062-.018c0,.01.006.027.01.027a.169.169,0,0,0,.053-.01m-31.722-7.89a.142.142,0,0,0-.036-.007s-.007.015-.011.023a.137.137,0,0,0,.036.007s.008-.015.011-.023m30.035,6.912c0-.01,0-.026-.012-.029a.107.107,0,0,0-.04,0c0,.015.011.032.016.046l.036-.014m4.462-5.652c-.009-.01-.018-.027-.024-.026a.418.418,0,0,0-.067.024c.008.009.019.027.025.026a.492.492,0,0,0,.066-.024m-11.553,4.835-.064-.006c.01.007.019.021.029.022s.023-.01.035-.016m10.417-.086c-.008-.011-.018-.033-.023-.031a.382.382,0,0,0-.07.025c.007.01.018.032.023.031a.408.408,0,0,0,.071-.024m-13.789,1.17a.139.139,0,0,0,.039.009s.01-.016.015-.025a.132.132,0,0,0-.038-.009c-.006,0-.011.015-.015.025m17.478-7.561-.03.019a.157.157,0,0,0,.019.025.409.409,0,0,0,.043-.03l-.032-.014m-15.327,7.584-.022-.035-.026.027a.272.272,0,0,0,.036.044l.011-.036m16.061-5.885-.053.037c.009.01.019.027.027.025a.407.407,0,0,0,.068-.019l-.041-.043m-1.38,1.731c-.01-.011-.023-.033-.028-.032a.453.453,0,0,0-.07.033.414.414,0,0,0,.074.031s.017-.021.025-.032m2.5.09a.574.574,0,0,0,.033-.076c0-.007-.023-.031-.025-.03-.019.012-.053.03-.05.041s.027.043.042.065m-30.841,7.706c-.009-.006-.019-.016-.027-.017a.072.072,0,0,0-.033.01c.009.007.018.018.027.02s.023-.008.033-.012m23.135-7.619a.3.3,0,0,0,.061.029c.006,0,.019-.015.027-.023a.392.392,0,0,0-.061-.03c-.006,0-.018.015-.027.023m5.615,7.881-.039-.011.023.036.015-.025m-23.176.085c0,.009,0,.024.01.027a.084.084,0,0,0,.036,0c0-.015-.009-.03-.014-.045Zm7.514.62a.311.311,0,0,0-.019.068c0,.009.016.019.025.028.014-.018.036-.035.038-.055s-.027-.027-.044-.041m-18.818-16.1-.07-.006c.011.006.021.02.033.021s.024-.01.036-.015m20.629,16.386c.008.009.016.026.023.025a.4.4,0,0,0,.066-.019c-.007-.01-.017-.027-.023-.026a.32.32,0,0,0-.065.02m8.768-9.222a.413.413,0,0,0-.029.064c0,.006.016.017.025.027a.4.4,0,0,0,.029-.063c0-.007-.016-.019-.025-.027m5.56,1.987-.018.036.027,0Zm-.191-1.979c-.006-.009-.011-.022-.019-.025a.087.087,0,0,0-.035,0,.212.212,0,0,0,.025.039l.028-.017m-5.2,1.964c.011.01.021.026.029.025a.371.371,0,0,0,.067-.023c-.009-.009-.019-.027-.027-.026a.482.482,0,0,0-.07.024m-46.3-8.088a.13.13,0,0,0,.007-.031s-.014-.007-.021-.01a.1.1,0,0,0-.006.031s.013.006.02.01m-.181,0a.113.113,0,0,0,.011-.036s-.015-.008-.023-.012a.085.085,0,0,0-.009.035s.015.009.022.013M159.8,800.762c0-.01.006-.023.009-.035l-.033.023Zm13.962-5.373c.006-.023.011-.036.015-.048l-.023.006a.245.245,0,0,0,.009.042m-7.03-.954.033-.01c-.009-.006-.018-.016-.028-.018a.1.1,0,0,0-.033.01l.028.018m-51.03-10.4c0-.009-.006-.025-.011-.026a.178.178,0,0,0-.04.008c0,.009.007.026.011.026a.134.134,0,0,0,.039-.008m20.8-.092a.313.313,0,0,0-.072-.03c-.008,0-.021.015-.032.025.011.01.022.03.03.028a.5.5,0,0,0,.074-.023m24.006,10.734c0,.01,0,.025.011.028a.052.052,0,0,0,.04,0c.033-.018.028-.036-.013-.045-.011,0-.025.008-.038.013m11.194,0a.377.377,0,0,0-.031.069c0,.006.018.025.027.025s.031-.017.03-.023a.441.441,0,0,0-.026-.071m-27.6,8.086a.157.157,0,0,0-.006.035s.013.006.021.009a.165.165,0,0,0,.006-.035l-.02-.009m9.312.257-.054-.012c0,.006.006.019.009.019a.243.243,0,0,0,.045-.007m-1.048.849-.013-.036c-.007.01-.019.02-.02.031s.008.023.012.036l.021-.031m21.754-8.839a.425.425,0,0,0-.077-.015.042.042,0,0,0-.032.028c-.006.037.08.053.105.018.006-.006,0-.02,0-.031m-4.13-.782c0-.01,0-.026-.011-.03a.053.053,0,0,0-.04-.007c-.033.019-.027.04.013.05.011,0,.025-.009.038-.013m4.582.713c0-.01,0-.027-.013-.031a.049.049,0,0,0-.04,0c-.032.021-.024.041.016.05.011,0,.025-.01.037-.015m-12.447-.63a.3.3,0,0,0-.06-.031c-.007,0-.019.015-.028.022a.29.29,0,0,0,.061.032c.006,0,.019-.015.027-.023m.641-1.163a.2.2,0,0,0,.041.01c.006,0,.011-.015.016-.023a.147.147,0,0,0-.04-.011c-.006,0-.011.015-.018.024m-25.443,6.723a.518.518,0,0,0,.071.031s.025-.026.023-.03-.03-.046-.044-.045-.032.027-.049.044m25.954-6.821a.388.388,0,0,0,.068.031c.006,0,.019-.017.029-.026-.009-.01-.019-.029-.027-.028a.45.45,0,0,0-.07.023m-1.96,6.54c.01.01.019.03.027.029a.415.415,0,0,0,.075-.024c-.009-.01-.02-.031-.027-.03a.446.446,0,0,0-.074.025m-15.8.008c0-.008,0-.022-.008-.023a.2.2,0,0,0-.036.006c0,.007,0,.02.008.02a.14.14,0,0,0,.036,0m13.046-3.806-.03-.064c-.011.01-.03.022-.028.028a.33.33,0,0,0,.03.067l.028-.032m-11.533,3.641.034-.019c-.01-.008-.023-.026-.027-.024a.179.179,0,0,0-.042.031l.036.011m18.846-6.808-.009.032.032-.022-.023-.01m1.581-.035-.04.012.039.015Zm-24.517,6.618c.007,0,.022,0,.022-.008a.165.165,0,0,0,0-.034c-.008,0-.021,0-.022.009a.165.165,0,0,0,0,.033m25.335-6.606-.032-.01.021.031a.192.192,0,0,0,.011-.022m-22.605,6.516-.033.02.02.029.049-.035-.036-.015m1.322.018c0,.009,0,.023.009.025a.1.1,0,0,0,.036,0c0-.014-.006-.028-.01-.041l-.034.011m-5.343.114a.278.278,0,0,0,.034-.01c-.01-.006-.019-.018-.028-.019a.089.089,0,0,0-.033.011l.027.018m19.329-3.249c0-.014,0-.031,0-.04-.02-.032-.04-.027-.049.015a.043.043,0,0,0,.016.035s.021,0,.035-.009m-32.1-7.443.015-.052c-.007,0-.021,0-.021.007a.165.165,0,0,0,.006.045m18.4,10.817-.033-.067c-.011.009-.032.022-.031.027a.452.452,0,0,0,.033.069l.031-.029m-22.715-6.589-.032-.016-.006.024Zm13.082,6.635-.053-.013c0,.007,0,.02.007.02a.2.2,0,0,0,.045-.007M120.261,787.53c0-.006-.006-.018-.009-.018a.156.156,0,0,0-.032,0c0,.006.006.018.009.018a.119.119,0,0,0,.032,0m42.758,5.838L163,793.4l.024.006Zm2.845-.191c0-.009,0-.023-.007-.027a.092.092,0,0,0-.035-.007c0,.015.007.031.011.047l.032-.012m-1.05,0c-.009-.011-.019-.032-.027-.031a.394.394,0,0,0-.075.025c.009.01.02.031.027.031a.455.455,0,0,0,.074-.025m-3.34,2.418-.049-.015c0,.008,0,.023.006.023a.178.178,0,0,0,.043-.008m-27.742-7.723a.178.178,0,0,0,.009-.041s-.017-.007-.026-.011a.149.149,0,0,0-.008.04s.016.008.025.012m24.085,8.234-.017.025.028,0Zm7.522-1.113.031-.025c-.009-.009-.016-.026-.026-.027s-.02.015-.031.023c.009.009.017.019.026.029m-3.578-.228-.017.025.027,0Zm4.005.017.026.015,0-.025Zm5.666.024.019-.029-.031,0Zm-8.57.071c-.01-.01-.022-.03-.027-.027-.04.014-.041.035,0,.052,0,0,.019-.016.03-.025m-2.889,1.768-.016.024.025,0Zm-2.87-.984-.016.022.026,0Zm2.065.721-.016.022.025,0Zm-1.369.014.023.015,0-.024Zm2.523,5.392.017-.023-.028,0Zm-11.264-.014-.024-.017,0,.027Zm12.258-1.546-.018.026.028,0Zm-20.6-.185-.029.023.054,0-.025-.027m14.627,2.182-.025-.03c-.01.008-.027.015-.027.025s.015.019.023.03l.03-.025m4.273-.167.015-.022-.026,0Zm10.779-4.4c-.01-.01-.023-.031-.028-.029-.043.014-.044.036,0,.055,0,0,.019-.017.031-.026m-16.512-.111-.013.02.02,0Zm3.209-.075.02.015,0-.023Zm11.932.706-.015.022.022,0Zm.892-.772.019-.028-.031,0Zm-16.209-.1.015-.019-.023,0Zm-9.857,2.03-.014.019.023,0Zm18.007.18-.016.022.025,0Zm-20.332-.1-.016.027.027,0Zm10.729-.968.025.017,0-.027Zm14.707.563.015-.023-.023,0Zm.987-.393-.015.022.024,0Zm-34.127-11.3c-.01.009-.029.021-.028.025.014.039.034.04.053,0,0,0-.015-.019-.024-.03m-.954.47h-.06c.008.009.015.025.025.026s.019-.014.035-.026M120.378,789.2c-.011.007-.027.016-.027.025s.015.019.023.029c.01-.009.026-.017.027-.025s-.015-.02-.023-.029m-2.047-2.745-.025-.017,0,.026Zm49.346,6.248-.016.022.024,0Zm3.037-.057.015-.02-.023,0Zm-3.31-.218c-.008.007-.028.019-.027.023.015.039.036.04.055,0l-.028-.026M127.3,792c-.01-.01-.019-.028-.029-.029s-.022.018-.032.026c.01.011.019.029.03.03s.021-.017.032-.027m38.313-.108-.02.028.032,0Zm.715.447-.017.027.027,0Zm-2.255.019.021.015,0-.022Zm-37.6-.1-.015.019.021,0Zm41.474-.105c-.009.009-.027.019-.026.024.012.038.032.04.049,0,0,0-.015-.018-.023-.027m1.431-.082-.015.023.026,0Zm-2.775,1.975-.017.026.026,0Zm-1,.532c0,.009-.016.019-.014.025a.1.1,0,0,0,.025.028c.006-.017.01-.035.016-.052l-.027,0m-1.526-1.323.021.016,0-.025Zm.375-.073.015-.021-.026,0Zm5.373.72.019-.025-.032,0Zm-.432-.109-.02-.015,0,.025Zm-40.681-2.134.015-.023-.025,0Zm-2.35-.556.022.014,0-.021Z" transform="translate(-698.406 253.338)"/><path class="b" d="M143.435,797.446a.9.9,0,0,1,.522-.085,2.7,2.7,0,0,0,1.212-.2.359.359,0,0,1,.3-.012c.095.04.2-.064.3.012l.027.023-.038-.01c.088-.1.217-.072.325-.11s.214-.081.323-.114c.021-.006.053.02.08.031l.017.026-.028-.014c.037-.045.078-.13.111-.127.163.017.3-.079.453-.087.237-.014.474,0,.711-.019a1.593,1.593,0,0,0,.394-.076,4.516,4.516,0,0,1,.876-.167.754.754,0,0,1,.214.025c.027,0,.068.032.078.021.177-.164.4-.11.6-.1a.874.874,0,0,0,.685-.261c.051-.051.117-.127.173-.125.162.008.26-.137.408-.146a.912.912,0,0,1,.132.01c.057.006.123.038.168.019.218-.093.455-.122.67-.237.243-.129.511-.218.745-.369a.34.34,0,0,1,.168-.055,4.725,4.725,0,0,0,1.008-.349.37.37,0,0,0,.151-.093,1.43,1.43,0,0,1,.457-.274c.448-.2.874-.439,1.3-.677.091-.051.19-.084.285-.128s.21-.142.315-.142c.152,0,.133-.142.218-.187.065-.036.116-.095.18-.133.243-.143.489-.282.733-.425.09-.051.179-.1.266-.16.16-.107.323-.211.475-.328a8.014,8.014,0,0,1,1.236-.715,1.788,1.788,0,0,0,.526-.409,1.16,1.16,0,0,1,.2-.18c.17-.119.342-.238.521-.344s.254-.3.462-.339c.088-.114.234-.118.352-.169a1.745,1.745,0,0,0,.588-.393.687.687,0,0,1,.247-.183,1.588,1.588,0,0,0,.508-.351c.109-.1.218-.2.334-.3a.5.5,0,0,1,.188-.107.648.648,0,0,0,.272-.144,3.639,3.639,0,0,1,.884-.516.771.771,0,0,0,.276-.143c.29-.307.688-.467.992-.757a5.779,5.779,0,0,1,.642-.479c.217-.158.432-.315.654-.465.124-.082.258-.149.386-.222a1.5,1.5,0,0,1,.342-.188,2.051,2.051,0,0,0,.589-.31,1.93,1.93,0,0,1,.4-.174,1.46,1.46,0,0,0,.6-.29c.2,0,.308-.223.515-.2a.092.092,0,0,0,.077-.031c.177-.265.487-.332.74-.473.348-.2.73-.331,1.09-.507a1.281,1.281,0,0,1,.334-.108,1.882,1.882,0,0,0,.837-.273.858.858,0,0,1,.244-.087,1.591,1.591,0,0,1,.418-.133c.175,0,.229-.179.383-.207.216-.038.427-.105.643-.161,0-.1.076-.141.165-.167.111-.034.239.045.342-.055.085-.083.23,0,.316-.117.033-.044.139-.035.211-.052.188-.046.376-.092.563-.141a.814.814,0,0,1,.39-.067.145.145,0,0,0,.087-.006c.368-.186.792-.108,1.169-.254.137-.054.286.01.432-.049a2.473,2.473,0,0,1,.436-.087c.145-.029.29-.063.435-.1a.445.445,0,0,1,.342.068c.031.021.061.04.04.026.024.008-.014,0-.052-.013.029-.03.055-.076.09-.084a.776.776,0,0,1,.221-.013c.114.008.234.055.325-.057a5.7,5.7,0,0,1,.867-.162,5.167,5.167,0,0,0,.648-.1,1.114,1.114,0,0,1,.35-.036,3.414,3.414,0,0,0,1,0,.17.17,0,0,1,.188.087c-.019.011-.086-.017-.042.049l.03-.062a.683.683,0,0,1,.25-.062,8.9,8.9,0,0,1,1.086.183,7.217,7.217,0,0,1,1.227.329c.053.023.1.051.147.073.016.113-.061.089-.11.1l.011.011a.133.133,0,0,0-.152-.061c-.352.053-.706.093-1.054.165-.159.033-.319-.037-.475.048a2.573,2.573,0,0,1-.453.184,3.32,3.32,0,0,1-.774.207.784.784,0,0,0-.259.062,1.53,1.53,0,0,1-.608.116l0-.1a.243.243,0,0,0,.033-.014c.006,0,.01-.011.015-.017l-.036.045c-.011.006-.032.021-.03.023a.277.277,0,0,0,.034.053c0,.2-.165.164-.285.192a.247.247,0,0,0,0-.086c-.008-.018-.04-.028-.061-.035s-.032.019-.031.027.008.055.023.064a.24.24,0,0,0,.085.017c-.038.146-.195.123-.276.2a.351.351,0,0,1-.321.1c-.1.131-.278-.114-.347.05s-.2.143-.315.191c-.219.091-.435.188-.654.276-.083.033-.137-.016-.157-.1.111-.06.111-.061,0-.166-.006-.011-.012-.021-.017-.031l.028.019,0,.189c-.143.151-.347.225-.491.363a1.55,1.55,0,0,1-.492.29.9.9,0,0,0-.152.093c-.212.134-.42.273-.635.4a4.283,4.283,0,0,1-.62.344c-.3.12-.571.3-.865.435,0,0-.032-.067-.052-.105-.136-.013-.133.14-.234.19a.764.764,0,0,0-.1-.055.392.392,0,0,0-.125-.024c-.023,0-.066.036-.064.05a.6.6,0,0,0,.068.135.9.9,0,0,1-.448.5,2.048,2.048,0,0,0-.265.162,1.212,1.212,0,0,0-.224.146c-.129.129-.34.063-.464.237a1.332,1.332,0,0,1-.418.327c-.137.08-.247.213-.42.227-.015,0-.04,0-.043.006-.109.276-.394.349-.593.518-.153.021-.234-.088-.327-.179-.023.017-.061.031-.069.053-.043.137-.079.276-.12.425l-.118.028c-.012-.02-.028-.044.012-.012a.242.242,0,0,1-.014.043c-.016.024-.031.058-.055.068-.254.1-.414.335-.667.438a4.7,4.7,0,0,0-.509.276c-.3.166-.564.381-.875.529a6.227,6.227,0,0,0-.595.39c-.339.213-.682.42-1.023.63-.113.069-.225.142-.339.21a.58.58,0,0,1-.2.1.686.686,0,0,0-.388.209,3.98,3.98,0,0,1-.431.286,1.947,1.947,0,0,1-.483.223,1.39,1.39,0,0,0-.158.079c-.289.179-.576.361-.867.538a.392.392,0,0,1-.131.022.116.116,0,0,0-.011-.037c0-.006-.018-.006-.027-.009l.045.038c-.053.05-.117.15-.158.141-.162-.036-.235.065-.336.154a2.245,2.245,0,0,1-.881.394c-.053.015-.113,0-.15.06a.623.623,0,0,1-.361.241c-.318.123-.627.268-.939.4-.11.047-.217.1-.326.147a3.514,3.514,0,0,0-.573.242c-.173.116-.411.079-.575.231a.162.162,0,0,1-.128.015.191.191,0,0,0-.2.052.683.683,0,0,1-.345.193,1.035,1.035,0,0,0-.355.213,1.734,1.734,0,0,1-.367.139,9.678,9.678,0,0,1-.969.326c-.182.055-.349.177-.555.135-.153.092-.314.164-.473.245a4.716,4.716,0,0,1-.968.326,1.086,1.086,0,0,0-.17.053,17.576,17.576,0,0,1-2,.626,4,4,0,0,1-.744.14,3.318,3.318,0,0,0-1.082.248,1.941,1.941,0,0,1-.744.121,2.617,2.617,0,0,0-.572.086,1.2,1.2,0,0,1-.528.059.782.782,0,0,0-.308.025,10.093,10.093,0,0,1-2.039.195c-.446.011-.892.053-1.337.066-.387.012-.775,0-1.162,0-.224,0-.447.007-.671.006a1.609,1.609,0,0,1-.658-.08.842.842,0,0,0-.439-.023,3.838,3.838,0,0,1-1.437-.221c-.011-.006-.016-.024-.024-.037Zm25.26-7.166c-.01-.012-.019-.022-.028-.032l.038.021c.013.021,0,.092.057.033a.682.682,0,0,0-.066-.022m8.513-5.2-.027-.027.038.015c.012.023.02.057.04.067s.048,0,.073-.008c-.014-.015-.024-.038-.04-.044a.356.356,0,0,0-.083,0m3.491-1.807c.063-.018.143,0,.175-.085l.029-.026-.019.037a.184.184,0,0,0-.174.086l-.1.092a.137.137,0,0,0-.082.168.06.06,0,0,0,.026.029c.007,0,.028,0,.028-.008.007-.067.012-.133.017-.2l.095-.095m-13.884,7.449a.147.147,0,0,0-.014-.036s-.015,0-.023-.006l.048.031c.07.092.07.092.17,0,.159-.014.164-.019.173-.178,0,0,.05-.037.01.01a.164.164,0,0,0-.175.179Zm.185.524c.013.02.029.043-.012.011a.328.328,0,0,0-.064-.061c-.01,0-.036.016-.053.025a.431.431,0,0,0,.04.016c.029,0,.059,0,.089.009m-2.515,1.719c-.01-.018-.028-.044.011-.011s.073.091.131.031c.007-.008,0-.025,0-.039l-.106.006c-.014,0-.027.01-.04.013m15.5-9.587a.23.23,0,0,0-.05-.06c-.011-.006-.036.014-.055.022a.146.146,0,0,0,.036.017c.026,0,.053.006.08.009a1.324,1.324,0,0,0,.141.152c.01.009.065-.03.093-.055,0,0-.019-.06-.034-.064-.07-.012-.141-.015-.211-.021m-11.454,6.678.393.058c.032-.1-.027-.156-.1-.152a1.407,1.407,0,0,0-.293.094m11.068-6.6c-.075.074-.095.159-.027.2s.16.015.2-.1c-.059-.031-.12-.065-.176-.1m-9.873,5.776a.537.537,0,0,0,.133-.077.213.213,0,0,0,.045-.109c0-.008-.048-.038-.07-.034-.038.006-.094.023-.1.051a.513.513,0,0,0,0,.169m-6.587,4.017a1.11,1.11,0,0,0-.134-.086.082.082,0,0,0-.075.016c-.03.034.023.17.07.172s.073-.03.107-.05c.01-.007.015-.024.032-.053m13.933-9.246a.741.741,0,0,0-.1.139c0,.009.056.065.091.072.064.012.129-.049.111-.1s-.055-.065-.1-.114m-.718,1.512c-.117-.074-.158-.106-.2-.13s-.1,0-.088.037.023.061.042.066a2.253,2.253,0,0,0,.25.027m-4.293,1.96c-.022-.01-.049-.031-.065-.024s-.024.04-.035.063c.023.009.05.031.065.025s.023-.042.034-.064m12.626-5.316c-.011-.008-.023-.025-.032-.023a.147.147,0,0,0-.075.03.343.343,0,0,0-.052.1s.023.023.032.02a.375.375,0,0,0,.108-.053c.015-.012.013-.047.019-.072m-17.1,7.952c-.028-.024-.059-.048-.09-.072-.008.011-.023.022-.025.035a.064.064,0,0,0,.075.08c.012,0,.02-.021.04-.043m4.933-2.786c-.01-.026-.019-.048-.027-.072l-.059.034c.006.011.011.029.02.032a.281.281,0,0,0,.065.006m-3.342,1.794c-.009-.01-.016-.022-.026-.032a.235.235,0,0,0-.033-.024c-.006.023-.022.053-.013.068s.044.014.067.021l0-.033m5.137-2.242-.017-.032a.712.712,0,0,0-.066.032c.011.015.021.031.032.047l.052-.047m4.2-2.953c.014-.022.038-.046.037-.068s-.023-.05-.037-.076c-.015.025-.04.048-.04.072s.025.049.04.072m-10,6.794c-.029-.023-.058-.046-.089-.067,0,0-.022.017-.033.026.029.029.057.059.085.089l.037-.048m-2.781,1.618c-.02.036-.04.063-.054.1,0,.006.014.021.022.034l.086-.067-.053-.062M183.637,782.3c-.01-.025-.014-.063-.03-.069s-.052.01-.078.018c.012.022.019.055.037.064s.047-.008.071-.013m-1.714.516c-.023-.025-.036-.052-.056-.057-.052-.019-.074.018-.074.061,0,.021.024.042.037.063l.093-.066m-11.434,6c.007-.02.025-.049.018-.06s-.039-.025-.06-.037c-.009.023-.029.051-.023.067s.042.019.065.03m4.191-2.2c-.012-.023-.019-.056-.036-.064s-.048.008-.073.014l.082.077.027-.027m.291.061a.9.9,0,0,0-.1-.053c-.007,0-.023.015-.036.023l.073.091.066-.061m-7.436,4c-.019-.042-.027-.081-.044-.088a.091.091,0,0,0-.071.033c-.011.014,0,.066.008.066a.667.667,0,0,0,.108-.011m3.8-2.035a.115.115,0,0,0-.008.031s.012.008.019.01a.1.1,0,0,0,.008-.03s-.012-.008-.019-.011m-.328.435c-.009-.01-.018-.02-.027-.029a.5.5,0,0,0-.03.063s.017.018.025.026l.032-.06m-.641.053c0-.013.009-.027,0-.036-.013-.034-.03-.032-.04.006a.052.052,0,0,0,.011.036l.024-.006m-2.543.037c0-.01-.006-.028-.01-.028a.142.142,0,0,0-.04.006c0,.01.006.027.01.028a.142.142,0,0,0,.039-.007m-1.521,2.346c.011-.009.021-.017.031-.027a.5.5,0,0,0-.067-.029c-.008,0-.02.016-.031.025l.067.031m1.533-.46c0,.009-.011.021-.01.031.007.04.023.04.04,0a.043.043,0,0,0-.006-.032s-.015,0-.024,0m-1.147-.089a.416.416,0,0,0,.03-.071c0-.006-.017-.02-.027-.029-.017.016-.046.031-.047.049s.027.034.044.051m.584-1.169v-.024l-.039.009Zm1.033.155c0,.009,0,.023.008.027a.169.169,0,0,0,.036,0l-.011-.04Zm-5.868,3.578-.034.007a.379.379,0,0,1,.043.015l-.009-.023m10.566-6.361-.036.007.047.015-.011-.023m-2.691.039.035-.021c-.011-.008-.024-.027-.028-.025a.189.189,0,0,0-.042.035l.036.011m2.661-.209.033.018,0-.027Zm-.905.061-.012-.036-.014.034ZM178.257,784l-.011-.03c-.006.008-.016.016-.018.025s.007.02.011.03l.018-.025m2.117-.224c-.01-.007-.019-.02-.029-.02s-.023.008-.036.013c.01.008.02.02.032.021s.023-.009.034-.014m-1.517,0c-.006-.009-.011-.025-.019-.028a.081.081,0,0,0-.039,0l.026.045c.01-.006.021-.015.032-.02m.251-.205-.036,0,.044.023-.008-.027m-4.89,2.186c-.008,0-.022,0-.025.008a.145.145,0,0,0-.007.037l.044-.011-.011-.034m-1.26,1.955c0,.023-.006.047-.008.07.008-.01.022-.021.023-.033s-.01-.023-.015-.036m-.652.1c0-.01,0-.027-.008-.03s-.031-.015-.04-.01c-.035.019-.031.04.01.052.011,0,.025-.008.038-.012m-6.977,4.918a.349.349,0,0,0,.07.03c.006,0,.026-.018.026-.026s-.018-.03-.025-.03a.464.464,0,0,0-.071.026m5.813-4.587-.037.006c.015.006.03.013.044.021l-.007-.028m-.274-.613a.133.133,0,0,0-.035-.008s-.009.013-.013.021a.1.1,0,0,0,.033.008s.01-.013.015-.021m1.355-.451.019.015,0-.021Zm-.505.453-.024-.017,0,.028Zm8.85-4.366.016-.024-.027,0Zm-1.433.852-.014.024.022,0Zm1.281-.421c-.009-.01-.019-.028-.024-.026-.036.011-.038.031,0,.047,0,0,.018-.013.027-.021m-6.39,2.879.019-.027-.029,0Zm-11.086,6.522-.02-.014,0,.022Zm7.447-3.312-.029-.032c-.011.01-.03.019-.03.03s.017.022.026.033l.033-.031" transform="translate(-703.779 253.589)"/><path class="b" d="M195.48,786.984a1.452,1.452,0,0,1-.011.222.253.253,0,0,1-.078.153c-.038.025-.108-.007-.162,0a.383.383,0,0,0-.108.053.544.544,0,0,0,.063.107c.018.019.055.02.082.03l.018.007c-.04.107-.083.213-.121.32s-.065.221-.11.325c-.013.028-.078.032-.119.046a.32.32,0,0,1-.024-.03l.036.019a.3.3,0,0,1-.087.363.327.327,0,0,0-.156.286c.006.142-.167.216-.2.332-.036.144-.137.174-.237.237a.408.408,0,0,1,.061.117.131.131,0,0,1-.032.11c-.023.017-.074,0-.135-.013-.049.1.047.231-.037.352a1.218,1.218,0,0,1-.209.282c-.023.019-.017.078-.022.118a1.247,1.247,0,0,1-.44.778c-.094.074-.143.154-.095.265a.212.212,0,0,1-.011.209c-.244.425-.472.86-.737,1.272-.1.158-.2.323-.31.476a5.132,5.132,0,0,1-.361.453,1.015,1.015,0,0,1-.273.222,3.205,3.205,0,0,1-1.237.343c-.148.012-.3.024-.444.029a.576.576,0,0,1-.173-.024,5.048,5.048,0,0,1-.642-.187c-.2-.084-.449-.029-.618-.214-.011-.013-.1.061-.139.051a1.507,1.507,0,0,1-.678-.308c-.032-.115.075-.153.11-.227a.258.258,0,0,0-.074-.355,3.6,3.6,0,0,0-.323-.192c-.069.138-.126.255-.184.37-.028,0-.061.011-.082,0-.195-.107-.39-.216-.582-.327a1.107,1.107,0,0,1-.184-.126c-.107-.093-.262-.167-.174-.363l-.155.118-.552-.5-.012.008a.4.4,0,0,0,.08-.024c.015-.007.026-.025.039-.039a.159.159,0,0,0-.036-.017l-.08-.024.01.008c-.141-.105-.288-.205-.424-.317a.241.241,0,0,1-.1-.276.112.112,0,0,0-.033-.1c-.236-.129-.195-.378-.247-.58a.514.514,0,0,1,.006-.264.366.366,0,0,0-.036-.244,5.653,5.653,0,0,1-.149-.69.265.265,0,0,1,.049-.2c.069-.065.022-.067-.012-.116a.275.275,0,0,1-.039-.326.952.952,0,0,0,.112-.372,3.047,3.047,0,0,1,.334-1.044,1.372,1.372,0,0,1,.893-.85c.015.021.02.034-.01.011.171-.116.341-.234.514-.347a2.155,2.155,0,0,0,.234-.128,1.427,1.427,0,0,1,.753-.353c.128-.02.092-.183.214-.215a1.69,1.69,0,0,0,.133.154.114.114,0,0,0,.161,0,.108.108,0,0,0,.013-.157l-.077-.12a1.034,1.034,0,0,1,.238-.132,5.14,5.14,0,0,1,1.234-.325c.006.024.013.048.019.074.015-.011.028-.023.043-.033-.024-.011-.048-.02-.071-.03.036-.042.062-.1.107-.121.142-.062.292-.107.438-.159.016.022.028.05.049.063s.039-.014.06-.021a.134.134,0,0,0-.037-.019c-.027-.006-.056-.006-.083-.01.028-.048.044-.124.086-.141a3.656,3.656,0,0,0,.609-.262c.027-.019.086-.006.126.008a.144.144,0,0,0,.189-.061.194.194,0,0,1,.1-.08c.289-.055.549-.2.833-.276a1.308,1.308,0,0,0,.419-.126.3.3,0,0,1,.4.062.522.522,0,0,0,.112.07l-.01-.012c.035.065.07.055.106,0l-.01.011.217.022c.069-.106-.1-.136-.076-.227.019-.02.033-.052.055-.058.2-.048.39-.155.606-.068a.14.14,0,0,0,.121-.017.464.464,0,0,1,.383-.075,5.3,5.3,0,0,1,.7.093,3.549,3.549,0,0,0,.66.062c.086.009.171.026.24.035.106.164.1.294-.029.409-.01.006-.021.01-.03.015s-.007.013-.01.019c.009-.015.019-.031.028-.045a1.273,1.273,0,0,1,.146,1.019c-.053.036-.11.073-.167.112.054.06.157.036.162.179a3.445,3.445,0,0,1-.092.69.117.117,0,0,1-.04.077c-.238.141-.171.333-.1.534a.151.151,0,0,1-.088.183.281.281,0,0,0,0-.086c0-.017-.03-.029-.046-.043,0,.025-.018.056-.008.072s.044.031.068.046m-8.7,2.947.036-.016-.024.028c-.056.051-.006-.011-.011-.012m.727.648-.033.018.02-.029.03-.026c-.006.013-.012.025-.017.037m2.329,2.865c-.06,0-.086.032-.088.091,0,0-.05.035-.013-.012l.091-.088a.141.141,0,0,0,.031-.016c.006,0,.008-.013.012-.019Zm2.868-6.27c-.014.006-.044.029-.012-.012l.072-.034-.032-.026c-.009.024-.019.048-.028.072m-.18-.448a.129.129,0,0,0-.04.007c-.006,0-.006.02-.009.031l.039-.049a.109.109,0,0,0,.033-.013c.006,0,.006-.016.008-.024l-.031.049m.885-2.794c.006,0,.049-.034.013.012a.152.152,0,0,0-.035.016c-.006,0-.009.014-.013.021Zm-2.5,1.183-.031.025.019-.036.027-.021c0,.011-.011.023-.015.032M193.5,787.8a.245.245,0,0,0-.025-.025l.037.013c.009.017.024.039-.012.012m-7.976.342a.127.127,0,0,0,.035-.011c.006,0,.01-.013.014-.02l-.036.041c-.055.049-.011,0-.012-.01m.279.628.025.03-.036-.018c-.015-.023-.025-.052-.046-.063s-.045,0-.069,0c.015.016.027.038.046.044a.328.328,0,0,0,.08,0m7.523-4.018a.285.285,0,0,0-.083,0c-.015.006-.022.036-.032.054.024,0,.057.017.073.007s.023-.046.035-.071a.12.12,0,0,0,.036-.01c.006,0,.006-.018.01-.027l-.039.044m.711-.906c.026,0,.053,0,.078-.01a.088.088,0,0,0,.034-.017c-.013-.013-.023-.034-.039-.04a.27.27,0,0,0-.078-.015c-.115-.091-.136-.08-.165.091-.019.011-.041.026-.011-.011l.092,0c.029.044.059.049.088,0m-4.839,10.12c.042,0,.083,0,.124,0,.011,0,.021-.019.032-.027-.019-.013-.046-.043-.053-.038a.626.626,0,0,0-.091.076l-.031.025.019-.037m-4.21-3.76a.546.546,0,0,0,.061-.054.052.052,0,0,0,.011-.038c0-.01-.012-.02-.019-.03a.214.214,0,0,0-.038.051.35.35,0,0,0,0,.082.1.1,0,0,0-.035.009c-.006,0-.008.014-.012.022l.035-.042m.18.715c.024-.014.058-.021.07-.043s-.007-.049-.012-.074c-.018.013-.044.024-.049.04a.27.27,0,0,0,0,.088c-.019.01-.042.027-.011-.011M185,789.055c-.023.014-.055.025-.067.046s.015.043.023.064a.1.1,0,0,0,.023-.036c.006-.027.006-.056.01-.086a.152.152,0,0,0,.039-.012c.006,0,.007-.017.01-.026-.012.017-.024.034-.037.05m6.982-3.675a.337.337,0,0,0-.065-.054c-.011,0-.032.013-.049.021a.369.369,0,0,0,.04.009l.084.011a.634.634,0,0,0,.053.113c.01.013.046.006.07.01,0-.025,0-.063-.013-.071a.588.588,0,0,0-.121-.039m-6.269,5.192a.71.71,0,0,0-.105-.069c-.01,0-.036.029-.055.044.017.02.036.055.049.054a.856.856,0,0,0,.12-.043c0,.04-.019.09,0,.123s.064.034.1.047c.008,0,.034-.018.032-.022a.15.15,0,0,0-.032-.07.838.838,0,0,0-.107-.064m4.031-5.381a.044.044,0,0,0,.038.039l-.048-.029c-.037-.115-.11-.1-.22-.035l.23.025m-1.251,3.059c-.036.023-.07.044-.1.069a.064.064,0,0,0-.023.032.04.04,0,0,0,.012.028c.023,0,.057-.008.065-.024a.536.536,0,0,0,.037-.116l.032-.015a.146.146,0,0,0,.015-.017Zm-1.715,4.123,0-.2a.271.271,0,0,0,.087-.011c.019-.01.043-.043.039-.06s-.036-.04-.055-.06c-.018.018-.044.032-.052.053a.315.315,0,0,0-.006.088c-.088.08-.088.08,0,.176.028.134.028.134.142.1l.037-.014c.048.052.092.108.145.155.011.009.058,0,.075-.021a.089.089,0,0,0,.02-.076.189.189,0,0,0-.158-.136c-.027-.087-.056-.065-.083,0l-.192,0m7.8-7.618-.026-.031.037.02a.351.351,0,0,0,.012.088c.015.04.04.078.095.055a.064.064,0,0,0,.031-.033c.019-.054-.017-.08-.061-.094a.35.35,0,0,0-.088-.006m-8.234,3.569a.181.181,0,0,0,.012.037s.016,0,.025.008c-.015-.012-.032-.023-.047-.034-.031-.158-.063-.177-.17-.1-.016.011-.019.04-.038.084Zm2.149-.7c-.05.039-.081.088-.019.136.04.032.1.051.122-.026l-.116-.124a.286.286,0,0,0,.079,0c.018,0,.031-.027.045-.043-.011-.006-.02-.017-.03-.017a.048.048,0,0,0-.036.011.616.616,0,0,0-.047.064m5.817-3.149h.187c0,.012.01.024.016.036-.01-.008-.019-.018-.027-.027,0-.027,0-.053,0-.081,0-.051.009-.126-.065-.116-.036,0-.067.073-.092.116a.234.234,0,0,0-.01.081c-.028.021-.038.023-.011-.01m-2.771.092a.129.129,0,0,0,.015.032c0,.007.014.008.02.011l-.047-.032c.025-.049.049-.1.089-.181a1.109,1.109,0,0,0-.233-.006c-.028,0-.053.059-.066.095,0,.015.027.055.048.059a1.235,1.235,0,0,0,.174.023m-2.338,3.061c0-.07-.006-.138-.012-.243a.145.145,0,0,0,.026.232.468.468,0,0,1,.17.332c0,.039.062.09.107.111.022.011.079-.023.1-.053.055-.066.1-.142.148-.214.088.076.175.152.259.222-.049.1-.087.168-.124.24.177.093.245.1.277.01a.237.237,0,0,1,.3-.179,1.89,1.89,0,0,0,.439-.037c.117-.015.233-.045.35-.054a.328.328,0,0,0,.3-.16.292.292,0,0,1,.265-.133.118.118,0,0,0,.01.034c0,.006.015.007.023.01l-.044-.034.224-.374c.173-.03.182-.031.175-.161a.13.13,0,0,1,.072-.142.825.825,0,0,1,.168-.051.188.188,0,0,0,.008.034c0,.006.015.009.021.014l-.039-.038c-.076-.117-.2-.205-.164-.378a2.38,2.38,0,0,0,.024-.443.68.68,0,0,0-.043-.17c.02-.012.042-.027.011.011a.322.322,0,0,1-.187-.233.624.624,0,0,0-.436-.409c-.068-.026-.145-.029-.216-.051a.617.617,0,0,1-.2-.084c-.042-.033-.055-.1-.09-.171-.045.091-.044.193-.138.19a2.323,2.323,0,0,0-1.052.319,1.046,1.046,0,0,0-.608.96,1.407,1.407,0,0,0,.273,1,1.556,1.556,0,0,1,.152.269.3.3,0,0,1-.234-.1.337.337,0,0,0-.32-.082m1.978,3.568a1.1,1.1,0,0,0,.143.088c.009,0,.036-.03.055-.047-.01-.01-.021-.027-.032-.028-.059,0-.118,0-.176,0a.529.529,0,0,0-.223-.263c-.243.2-.245.2-.07.408l.3-.16m-5.412-3.574c0-.071-.1-.153-.189-.146a.167.167,0,0,0-.12.166.175.175,0,0,0,.144.148c.074.021.16-.069.165-.168m3.064-.952c-.023-.051-.028-.084-.047-.1a.189.189,0,0,0-.238,0c-.052.043-.066.158-.013.193a.207.207,0,0,0,.156.032.551.551,0,0,0,.141-.128m-.827-.642c.263.069.275.065.324-.133a.821.821,0,0,0,0-.161c-.1.077-.174.132-.244.193a.835.835,0,0,0-.082.1m-2.988,3.786a.254.254,0,0,0,.259-.024.1.1,0,0,0,.037-.148.127.127,0,0,0-.189-.03,1.262,1.262,0,0,0-.107.2m6.73-4.837a.151.151,0,0,0-.223.034.048.048,0,0,0-.012.04.051.051,0,0,0,.03.029.164.164,0,0,0,.205-.1m-6.715,3.507c.2.026.3.05.386-.027a.051.051,0,0,0,.009-.041c0-.012-.019-.032-.024-.031-.09.022-.179.047-.37.1m2.344-.371a.612.612,0,0,0,.01-.138c0-.018-.04-.028-.061-.043-.019.03-.061.068-.053.089s.056.051.105.092m4.822,2.41a.71.71,0,0,0-.008.15c0,.02.041.033.062.047.016-.031.05-.068.044-.094s-.051-.056-.1-.1m-.529.181c-.039-.01-.068-.03-.091-.023a.335.335,0,0,0-.1.056s0,.027,0,.038c.029.048.071.038.106.012a.448.448,0,0,0,.077-.082m2.007-.224c-.025.033-.058.068-.054.074a.687.687,0,0,0,.088.078c.016-.022.051-.055.045-.063a.426.426,0,0,0-.079-.088m.184-1.192.081-.136c-.019-.011-.052-.036-.057-.031a.345.345,0,0,0-.073.091c0,.01.023.037.049.076m-7.282-1.339c-.046-.034-.078-.072-.107-.071s-.063.04-.094.063c.028.027.054.073.086.077s.064-.036.115-.069m.35,2.311c.011.008.022.02.034.021.07.013.1-.035.126-.087,0-.006-.012-.03-.016-.029a.391.391,0,0,0-.112.029c-.018.01-.022.043-.032.066m2.176,3.485c-.037-.027-.07-.053-.1-.074l-.028.03c.028.025.055.053.085.074,0,0,.024-.014.048-.03m5.615-5.389c0-.016.007-.041,0-.042a.661.661,0,0,0-.07-.019c0,.013,0,.032,0,.036a.363.363,0,0,0,.063.026m-4.474,4.911c0-.011-.01-.026-.016-.038-.02.019-.042.036-.061.054l.018.032.06-.049m-.394-2.094a.733.733,0,0,0-.046.061.059.059,0,0,0,.027.023c.042.006.078-.051.049-.077-.007-.006-.02,0-.031-.007m-1.3,0a.359.359,0,0,0-.035.062c0,.006.021.031.027.029a.424.424,0,0,0,.066-.034Zm4.082-6.556c.088.017.125.025.163.029.009,0,.02-.014.031-.022-.015-.015-.029-.041-.043-.041a.922.922,0,0,0-.151.034m-1.52.134-.081.047c.015.022.025.053.047.064s.045-.006.07-.012c-.011-.032-.023-.064-.036-.1m-.516.173c-.022-.031-.036-.067-.05-.067a.086.086,0,0,0-.065.038c-.007.02.01.051.017.077l.1-.048M189.434,791c-.013.021-.036.044-.036.066s.019.048.031.074c.015-.023.039-.044.04-.068s-.021-.048-.034-.072m-2.937.471c-.022-.008-.049-.029-.064-.022s-.023.04-.035.063c.023.009.051.031.068.023s.021-.042.031-.064m-.622.055.07-.034-.032-.056a.77.77,0,0,0-.056.059s.011.019.018.031m-.609-2.754a.942.942,0,0,0-.095-.057c-.006,0-.033.016-.033.019a.666.666,0,0,0,.042.1.054.054,0,0,0,.036.015.819.819,0,0,0,.049-.075m7.183-4.7-.078.087c.011.009.028.027.031.025a.694.694,0,0,0,.082-.072l-.035-.04m-5.814,7.8c-.031.03-.06.058-.09.086.012.01.03.028.034.027a1.108,1.108,0,0,0,.088-.073l-.032-.04m1.264-5.375c.018-.038.042-.065.037-.085s-.043-.036-.065-.035-.04.027-.06.043l.088.077m7.74-.487c-.009-.023-.011-.057-.027-.065s-.045.012-.069.018c.01.023.016.053.034.065s.04-.011.062-.018m-10.671,3.536c-.009-.012-.019-.035-.026-.034a.545.545,0,0,0-.078.028c.009.01.02.031.027.031a.516.516,0,0,0,.076-.025m1.333-.188c0,.009,0,.023.01.027a.14.14,0,0,0,.038,0c0-.015-.008-.029-.013-.044l-.035.014m5.636,1.714c-.007-.008-.012-.023-.02-.024a.078.078,0,0,0-.036,0,.118.118,0,0,0,.027.036s.019-.01.029-.015m-2.736-.126c-.019.01-.04.022-.061.031.009.011.022.032.027.03a.413.413,0,0,0,.065-.034l-.03-.027m-.475.092a.183.183,0,0,0-.032-.025c0,.01,0,.021.008.031Zm-3.013.688.029-.024a.42.42,0,0,0-.06-.03c-.006,0-.019.015-.027.023.019.01.039.022.058.031m1.683-1.41c0-.012-.011-.023-.016-.036-.008.01-.021.019-.023.031s.01.025.015.036c.008-.01.017-.02.024-.031m2.473-.674c-.006-.008-.011-.02-.019-.022a.08.08,0,0,0-.034,0,.221.221,0,0,0,.024.036s.019-.01.029-.016m-4.01,2.466-.01-.037c-.01,0-.028.006-.028.01a.137.137,0,0,0,.009.037l.029-.01m9.49-5.451a.171.171,0,0,0,.01-.039s-.016-.01-.024-.015a.2.2,0,0,0-.01.039c0,.006.016.011.024.015m-8.89.926c0-.008,0-.021-.008-.024a.09.09,0,0,0-.036-.006l.011.042.034-.012m2.931-.12c-.01.006-.023.009-.028.017s.008.018.013.027c.015-.01.031-.02.047-.029l-.032-.015m-1.136,6.21c0,.012-.013.023-.011.034.007.043.023.046.04.006a.054.054,0,0,0-.006-.035s-.016,0-.024,0m4.956-9.466-.017-.031c-.007.009-.024.021-.022.026a.182.182,0,0,0,.029.039l.01-.033m-4.123,1.9c0-.013-.006-.025-.009-.038-.006.017-.012.032-.017.048l.026-.01m3.606-.131.04-.012-.038-.013Zm-2.558-.77.022,0-.008-.039Zm-3.369,3.122c-.006-.011-.013-.023-.02-.034l-.027.022a.391.391,0,0,0,.032.048l.015-.036m4.611-.034c0-.01-.007-.027-.015-.029a.106.106,0,0,0-.039,0l.021.047.032-.019m-2.369.091a.111.111,0,0,0,.036.011s.008-.013.013-.02a.112.112,0,0,0-.035-.01s-.01.014-.014.019m-2.249.213c-.006-.011-.011-.021-.018-.032-.008.01-.024.021-.023.025a.165.165,0,0,0,.03.04Zm1.853,4.7c-.011,0-.022-.012-.032-.01-.04.007-.042.022-.006.038a.049.049,0,0,0,.033,0s0-.016,0-.023m5.138-5.452.034.01-.022-.031-.012.021m1.138-.011c-.011,0-.021-.012-.031-.011-.04.007-.042.023-.006.04a.04.04,0,0,0,.032-.006s0-.015,0-.023m-6.194.364.021.015,0-.024Zm4.856-.612.015-.021-.023,0Zm-8.154.363.018-.023-.028,0Zm2.985,1.33c-.007-.009-.014-.023-.022-.024s-.018.011-.027.019c.007.009.014.022.022.023s.018-.011.027-.018m-.045.26.024.016,0-.025Zm-2.335,0,.024.014,0-.024Zm5.311-4.854-.014.02.021,0Zm1.52.121.015-.023-.021,0Zm1.97-.8.016-.023-.026,0Zm-.533-.035-.015.024.023,0Zm-5.213,2.7.024.017,0-.025Zm4.5.651.015-.023-.026,0Zm-1.148-.016-.024-.015,0,.023Zm.589-.094.021.013,0-.021Zm-4.48-1.523.027.019,0-.03Zm4.59.876-.014.021.021,0Zm-8.239,3.224-.017.024.027,0Zm3.3,1.451.021.014,0-.021Zm-2.688-.182.023.016,0-.023Z" transform="translate(-711.653 253.202)"/><path class="b" d="M166.521,787.758c-.154.054-.271.2-.454.179l.011.011c-.027-.053-.062-.091-.124-.056s-.045.072.03.151l-.013-.011c-.06.153-.212.2-.33.288-.095.068-.223.073-.306.174-.023.028-.107.011-.162.01-.105,0-.105,0-.116.188a1.867,1.867,0,0,0-.664.479.6.6,0,0,1-.111.074c-.075.054-.216-.021-.245.136-.022.12-.17.09-.24.166a2.435,2.435,0,0,1-.237.2c-.009-.009-.019-.017-.027-.027l.038.016c-.039.043-.07.1-.12.129a4.9,4.9,0,0,0-.875.683.15.15,0,0,0-.015-.035s-.019,0-.028,0l.046.036a1.857,1.857,0,0,0-.266.087c-.074.036-.133.1-.208.144a.621.621,0,0,1-.159.033l.01.009a.249.249,0,0,0-.053-.063.12.12,0,0,0-.073-.011.226.226,0,0,0-.021.108c0,.023.035.042.054.063l-.011-.011c-.1.1-.2.213-.31.307-.167.146-.338.29-.517.424-.4.291-.8.568-1.2.863a4.392,4.392,0,0,1-.839.507,2.234,2.234,0,0,0-.627.411,1.586,1.586,0,0,1-.42.251,2.185,2.185,0,0,1-.655.275l.011.01c.249-.293.5-.583.746-.884.288-.358.563-.725.843-1.089.036-.048.052-.116.1-.147a7.993,7.993,0,0,0,.875-1,.142.142,0,0,1,.036-.026.157.157,0,0,0,.009.032c0,.006.013.008.02.011l-.04-.033.367-.366a.2.2,0,0,0,.049.061c.01.006.036-.012.056-.02a.15.15,0,0,0-.035-.02c-.027,0-.053-.006-.08-.008a.71.71,0,0,1,.246-.464,1.209,1.209,0,0,0,.259-.46c.05-.125.1-.247.149-.361.081-.043.194,0,.2-.135a.885.885,0,0,1,.172-.4,5.123,5.123,0,0,1,.582-.89.111.111,0,0,0,.036-.073c-.033-.187.1-.3.181-.441a7.609,7.609,0,0,0,.794-1.641c.1-.337.176-.685.265-1.027.044-.172.028-.357.057-.533a.648.648,0,0,1,1-.483c.037.018.088.061.112.05.178-.084.285.033.394.129a1.548,1.548,0,0,0,.621.415.111.111,0,0,1,.04.021,5.218,5.218,0,0,0,.54.453,6.068,6.068,0,0,1,.559.359,4.336,4.336,0,0,0,.732.568.459.459,0,0,1,.134.113c.205.233.407.47.623.72a5.408,5.408,0,0,1-.387.43c-.209.186-.436.35-.654.526a1.246,1.246,0,0,0-.388.425Zm-1.25-1.505c-.009,0-.043.033-.013-.011.05-.029.074-.057,0-.086a.577.577,0,0,0-.039-.116c-.01-.016-.044-.017-.067-.024,0,.02,0,.049.015.062a.807.807,0,0,0,.1.067v.108m-1.254.447c-.008,0-.045.03-.012-.012.02-.011.041-.021.062-.031l-.027-.021c-.007.022-.015.043-.023.064m1.431.716c-.034,0-.069,0-.1,0,0-.027,0-.057-.006-.085a.157.157,0,0,0-.02-.038c-.01.021-.033.05-.027.062s.042.033.065.05c.025.037.052.048.08,0a.249.249,0,0,0,.034-.013c.006,0,.007-.014.011-.021l-.033.046m-1.436.79c.025.031.016.031-.011.011s-.056-.056-.083-.085c-.007-.014-.036-.05.011-.01.028.027.056.057.083.084m-.453,1.164a.357.357,0,0,0,.076-.1c.015-.04-.04-.082-.082-.063-.019.011-.045.044-.04.057a.654.654,0,0,0,.057.114c-.015.007-.046.031-.011-.012m2.423-2.685a.635.635,0,0,0,.047.065.047.047,0,0,0,.036.012.112.112,0,0,0,.032-.017c-.015-.015-.028-.036-.046-.04a.3.3,0,0,0-.081,0c-.145-.135-.234-.134-.288,0a.087.087,0,0,0,.014.074c.015.018.058.035.07.027.068-.049.117-.128.217-.121m-1.715,1.41a.179.179,0,0,0,.19-.1.157.157,0,0,0-.028-.2.094.094,0,0,0-.074-.025.206.206,0,0,0-.153.228c.006.036.045.066.065.092m.593.508c0-.014.011-.032.006-.04a.318.318,0,0,0-.251-.133c-.009,0-.024.017-.032.028s-.011.031-.006.04a.306.306,0,0,0,.251.132c.009,0,.021-.017.032-.026m-1.025-.7c-.04-.044-.071-.1-.088-.1a.288.288,0,0,0-.136.078c-.027.03.045.135.083.119a.781.781,0,0,0,.141-.1m-.111.393c-.032.043-.065.086-.1.128.026.013.052.035.077.034.078,0,.126-.051.105-.1-.008-.021-.041-.031-.085-.061m-1.018,1.175c-.016.094-.024.134-.028.174,0,.012.014.024.021.035.012-.017.036-.032.036-.049a1.1,1.1,0,0,0-.028-.159m3.308-2.451c-.008-.013-.018-.034-.021-.033a.62.62,0,0,0-.074.027l.035.062.06-.057m.727-.925a.277.277,0,0,0,.059-.04c0-.006-.014-.031-.022-.046a.519.519,0,0,0-.051.052s.008.022.014.034m-2.213.7c-.007-.018-.015-.039-.023-.06-.01.009-.027.018-.026.026a.422.422,0,0,0,.023.063l.026-.029m.219.724c-.013,0-.027-.014-.039-.01-.045.011-.048.032,0,.053a.05.05,0,0,0,.039-.012c.006,0,0-.019,0-.03m.107-1.679c0,.011-.013.023-.011.032.007.042.024.044.042.007a.044.044,0,0,0,0-.033c0-.006-.017,0-.026-.006m-1.028,1.819c.023-.011.045-.023.068-.036-.022-.014-.043-.038-.065-.039s-.044.022-.066.034l.063.04m2.373-.286.016-.022-.026,0Zm-3.013,1.24c-.008-.01-.016-.026-.025-.027s-.02.015-.031.023c.009.009.017.025.027.026s.019-.014.029-.021m.626-1.435c-.008-.009-.016-.026-.025-.026s-.019.014-.029.022c.008.011.016.027.025.028s.019-.015.029-.024m1.693-.533-.025-.018,0,.029Z" transform="translate(-706.434 253.228)"/><path class="b" d="M150.368,792.073a8.93,8.93,0,0,1,.778.486c.236.181.487.341.718.526.2.158.411.291.6.451a4.019,4.019,0,0,1,.673.639,1.02,1.02,0,0,0,.527.458.233.233,0,0,1,.1.086c.179.231.356.464.542.706a2.619,2.619,0,0,1-.8.427c-.242.111-.492.205-.74.307-.027.011-.057.036-.081.029-.22-.053-.379.117-.577.154a3.7,3.7,0,0,0-.627.22c-.194.073-.385.154-.579.226a.288.288,0,0,1-.169.035c-.1-.034-.157.023-.235.06a.254.254,0,0,1-.37-.133.364.364,0,0,1-.067-.251.467.467,0,0,0-.089-.334c-.169-.278-.3-.574-.5-.84a1.1,1.1,0,0,1-.27-.649l.023-.028c0,.013-.007.027-.011.04a.914.914,0,0,1-.344-.343.985.985,0,0,0-.322-.365c-.36-.264-.684-.568-1.03-.847a1.424,1.424,0,0,0-.22-.153,3.169,3.169,0,0,1-.79-.647,1.144,1.144,0,0,0-.277-.222,2.55,2.55,0,0,1-.553-.374c-.085-.079-.2-.05-.283-.085a6.261,6.261,0,0,1-.631-.331c-.031-.12-.133-.073-.208-.1s-.112-.092-.173-.13c-.163-.1-.334-.193-.5-.3a.938.938,0,0,1-.2-.176.3.3,0,0,1,.166-.49,2.1,2.1,0,0,1,.574-.053,1.9,1.9,0,0,1,.779.133c.059.031.145.007.217.014a.343.343,0,0,1,.279.119.156.156,0,0,0,.137.075,5.849,5.849,0,0,1,.957.184,3.66,3.66,0,0,1,.778.32.968.968,0,0,0,.251.082,3.409,3.409,0,0,1,.711.257,2.012,2.012,0,0,0,.631.21,1.414,1.414,0,0,1,.6.269,1.94,1.94,0,0,0,.5.268.433.433,0,0,1,.107.078c-.027.006-.085-.016-.043.049l.033-.061m2.061,3.4.108-.034c-.012,0-.03-.014-.036-.009a.492.492,0,0,0-.061.057.542.542,0,0,0-.081.015c-.012,0-.019.024-.028.036.013,0,.03,0,.04-.006a.8.8,0,0,0,.058-.059m-.855.073c-.023-.025-.03-.04-.042-.046s-.036-.008-.04,0a1.731,1.731,0,0,0-.1.179c0,.01.022.037.039.051s.03-.006.036-.015c.036-.055.071-.112.1-.165m1.271.247a.243.243,0,0,0,.074.031.219.219,0,0,0,.074-.027.226.226,0,0,0-.074-.031.191.191,0,0,0-.074.027m-6.638-5.013a.309.309,0,0,0-.07-.03c-.008,0-.021.015-.032.025.01.01.02.029.028.028a.454.454,0,0,0,.074-.023m.878.369c0-.01-.006-.027-.01-.027a.144.144,0,0,0-.04.008c0,.01.006.027.011.027a.14.14,0,0,0,.04-.008m4.392,4.2c-.009-.006-.017-.016-.026-.017a.1.1,0,0,0-.032.009c.01.006.018.017.027.018s.02-.006.031-.01m1.188.279c-.009,0-.023,0-.027.006a.054.054,0,0,0-.006.038c.015.035.033.032.044-.008,0-.01-.007-.025-.011-.036m-.545-.754c-.009.007-.018.015-.027.022l.052,0c-.007-.009-.016-.017-.024-.026" transform="translate(-703.813 251.962)"/><path class="b" d="M183.557,789.212c.027-.033.048-.077.082-.1s.072,0,.109-.006c0,.039.011.085-.007.114s-.066.046-.1.07l.012.009-.1-.1Z" transform="translate(-711.468 252.147)"/><path class="b" d="M191.763,798.288a.493.493,0,0,1,.017-.121c.008-.02.045-.033.07-.037.044-.008.055.057.012.092a.6.6,0,0,1-.112.056Z" transform="translate(-713.04 250.417)"/><path class="b" d="M143.295,801.189a.553.553,0,0,1-.059.056c-.007,0-.025-.006-.038-.009l.108-.033Z" transform="translate(-703.733 249.831)"/><path class="b" d="M194.593,783.853c.011,0,.028-.013.032-.01a.129.129,0,0,1,.014.036.1.1,0,0,1-.035,0c-.006,0-.008-.015-.011-.023" transform="translate(-713.585 253.156)"/><path class="b" d="M143.329,801.2c.029-.047.057-.05.084,0l.011-.014-.107,0Z" transform="translate(-703.756 249.836)"/><path class="b" d="M168.126,789l-.1.1.012.011.095-.1Z" transform="translate(-708.493 252.168)"/><path class="b" d="M168.7,788.789l.033.014-.021-.026Z" transform="translate(-708.621 252.21)"/><path class="b" d="M196.183,782.46c-.032.04,0,.017.011.012Z" transform="translate(-713.887 253.421)"/><path class="b" d="M194.639,784.127c.028-.07.057-.071.086,0l.009-.011h-.106Z" transform="translate(-713.592 253.111)"/><path class="b" d="M185.772,794.194a.528.528,0,0,1-.03-.065s.019-.015.03-.022l-.01-.008,0,.1Z" transform="translate(-711.888 251.19)"/><path class="b" d="M157.283,796.42l-.015.033.027-.021Z" transform="translate(-706.43 250.745)"/><path class="b" d="M163.028,792.545l-.093.1.011.01.093-.1Z" transform="translate(-707.517 251.488)"/><path class="b" d="M180.11,800.306l.2,0c-.091.079-.091.079-.2,0" transform="translate(-710.809 250)"/><path class="b" d="M180.437,800.194v.1h-.1v-.1h.1" transform="translate(-710.852 250.022)"/><path class="b" d="M178.891,800.536l.029.013-.018-.025Z" transform="translate(-710.575 249.958)"/><path class="b" d="M177.456,801.961l-.048-.038c.01,0,.024,0,.029.008a.106.106,0,0,1,.011.037Z" transform="translate(-710.291 249.69)"/><path class="b" d="M148.525,803.844a.116.116,0,0,1-.1-.1l.1.1" transform="translate(-704.735 249.341)"/><path class="b" d="M180.01,802.855l.046-.044c0,.01-.007.025-.015.027a.145.145,0,0,1-.043.007Z" transform="translate(-710.788 249.52)"/><path class="b" d="M179.776,793.535l-.07-.031c.06-.051.059,0,.063.039Z" transform="translate(-710.731 251.308)"/><path class="b" d="M170.029,798.082v-.105h.1l-.1.1" transform="translate(-708.877 250.446)"/><path class="b" d="M165.152,800.527h.105c-.035.034-.07.068-.1.1,0-.035,0-.069,0-.1" transform="translate(-707.942 249.957)"/><path class="b" d="M184.424,797.2v.1h-.105Z" transform="translate(-711.616 250.596)"/><path class="b" d="M187.538,794.431l.1,0-.1.1c0-.034,0-.069,0-.1" transform="translate(-712.233 251.126)"/><path class="b" d="M196.285,783.894h-.107l.106-.106Z" transform="translate(-713.889 253.166)"/></g></svg>