<svg xmlns="http://www.w3.org/2000/svg" width="1206.474" height="1356.177" viewBox="0 0 1206.474 1356.177"><defs><style>.a{opacity:0.236;}.b{fill:#f4ca79;}</style></defs><g class="a" transform="matrix(0.961, 0.276, -0.276, 0.961, 315.629, 0)"><path class="b" d="M367.758,302.34c1.142.316,2.291.632,3.528.977a31.387,31.387,0,0,1,.555,3.131c.079.859.259,2.111-.2,2.534-1.011.913-1.99.119-2.713-.817a2.621,2.621,0,0,0-1.653-1.129c.318,2.051.633,4.1.957,6.2-2.214,2.982-1.483,6.38,1.962,8.757.4.278.894.407,1.29.664,2.7,1.805,2.7,3.594.057,5.46a12.377,12.377,0,0,0-1.1,1.095c2.131,2.3,6.211,4.149,3.375,8.343-3.362-.522-3.362-.522-3.565-3.35a3.591,3.591,0,0,0-3.614-3.625,4.374,4.374,0,0,0-3.668,4.649c.771,3.882,1.682,7.735,2.542,11.6.049.237.216.484.172.705-.768,3.81.5,7.3,1.668,10.818.228.677.141,1.578.566,2.054.658.741,1.676,1.74,2.452,1.671,1.375-.123,1.376-1.548,1-2.617-.579-1.687.1-2.7,1.357-3.74a2.5,2.5,0,0,0,.8-2.129c-.727-2.028-1.367-4.312-2.766-5.818-1.512-1.624-1.412-3.524-2.026-5.276-.448-1.263.43-2.142,1.731-2.178,1.894-.057,3.8.082,6.006.144-.131,2.124-.241,4-.363,6.026-.822.44-1.63.881-2.439,1.312.848,2.488,2.872.413,4.342,1.38-.385.583-.736,1.123-1.095,1.658-.324.5-1.062,1.141-.938,1.458,1.221,3.3-1.635,5.51-2.074,8.327-.082.507.385,1.115.653,1.65.6,1.182,1.229,2.345,1.912,3.653-2.257.773-2.548-2.136-4.384-1.99-1.241.9-.57,1.689.152,2.627a28.807,28.807,0,0,1,3.195,4.694,5.876,5.876,0,0,1,.29,3.471c-.643,3.483-.056,4.926,3.294,6.721a15.368,15.368,0,0,1-.735,1.84,10.22,10.22,0,0,1-1.069,1.4,47.84,47.84,0,0,0,5.751,1.1c-.295,2.067-.588,4.088-.993,6.906-.738-1.385-1.095-2.059-1.534-2.867-2.046.727-1.794,2.2-1.365,3.569.684,2.168,1.2,4.227-1.543,5.674,4.252,1.218,4.838,2.267,4.142,6.284a3.286,3.286,0,0,0,.38,2.3c1.047,1.4,1.043,2.8.944,4.45a32.064,32.064,0,0,0,.345,7.173,6.108,6.108,0,0,1-.509,4.522,9.765,9.765,0,0,0-1.481,6.923c.394,2.471.2,5.021.511,7.512.129,1,.9,1.913,1.5,3.1a16.5,16.5,0,0,0-1.576,2.637,10.2,10.2,0,0,0-.727,3.334c-.241,5.972.936,11.934-.232,17.948-.594,3.038-.165,6.263-.249,9.409-.062,2.155.136,4.4-.417,6.445a21.252,21.252,0,0,0-.306,8.625c.586,4.348.751,8.672-1.509,12.711a1.721,1.721,0,0,0-.237,1.362c1.19,2.244,0,3.853-1.19,5.625-.628.946-1.3,2.412-1,3.348.939,2.967-.293,5.483-1.121,8.1-.676,2.155-.959,4.474-3.371,5.731-1.247.643-.992,2.087-.53,3.283.594,1.548,1.5,2.808,3.3,2.979a9.866,9.866,0,0,0,1.943-.239c-.007-2.547.537-4.514,2.82-6.185a6.639,6.639,0,0,0,2.808-6.006,2.36,2.36,0,0,1,.165-1.419c1.478-2.427,3.075-4.785,4.553-7.219,1.761-2.9,3.4-5.859,5.17-8.746,1.692-2.756,3.686-5.345,5.183-8.2a93.255,93.255,0,0,0,3.812-9.016c1.858-4.708,3.439-9.54,5.559-14.129,1.2-2.6,3.182-4.831,2.717-7.982a1.377,1.377,0,0,1,.319-1.02c3.913-4.085,3.653-9.865,5.965-14.59.481-.979.977-1.948,1.388-2.952.46-1.1,1.213-2.25,1.186-3.371-.128-5.672,2.324-10.852,2.959-16.382.617-5.393,2.038-10.687,2.774-16.073a17.165,17.165,0,0,0-.414-7.139,39.2,39.2,0,0,1-1.966-10.482c-.02-.638-.656-1.252-.989-1.884-.28-.527-.9-1.267-.736-1.575,1.614-3.033-1.087-5.771-.5-8.71a2.389,2.389,0,0,0-.437-1.7c-2.962-3.81-3.326-8.467-4.075-12.932-.612-3.65-.085-4.046,3.522-4.921a20.554,20.554,0,0,0,2.774-1.136c-1.746-1.777-3.465-1.411-5.086-1.375-2.7.07-3.44-.355-4.229-2.9-.448-1.473-.679-3.031-1.033-4.692,1.9-.154,3.877.666,5.2-1.311.229-3.131-3.869-2.465-4.679-5.082,2.488-1.429,3-4.085,3.99-6.478.221-.55.643-1.314.44-1.687a33.33,33.33,0,0,0-3.337-5.1,4.52,4.52,0,0,0-2.586-.962c-1.26-.21-3.023.332-3.222-1.5-.214-1.965,1.615-1.635,2.844-1.943a13.832,13.832,0,0,0,2.2-1.074c-.871-1.133-1.57-2.034-2.353-3.054-1.38.411-2.609.777-3.893,1.157-1.728-1.943-1.357-4.236-1.285-6.307.072-1.962.306-3.787-.786-5.6-.329-.548.03-1.51.072-2.281a12.254,12.254,0,0,1,2.229.484,15.587,15.587,0,0,1,2.29,1.573c-.047-1.332.206-2.416-.147-2.686a14.475,14.475,0,0,0-4.257-2.435c-2.255-.7-2.8-1.046-2.448-3.077.389-2.26,1.488-4.583,1.178-6.727-.278-1.957-2-3.718-3.129-5.546a8.558,8.558,0,0,1-1.021-5.176,37.946,37.946,0,0,0-.918-8.175,4.454,4.454,0,0,1,1.468-4.537c3.132-2.879,3.095-2.926.612-6.383-.1-1.581,2.65-3,.108-4.918a7.341,7.341,0,0,1-1.766,1.614c-.774.344-1.969.674-2.555.314-1.1-.681-.822-1.962-.119-2.885a14.158,14.158,0,0,1,1.956-1.573,9.987,9.987,0,0,0,1.725-1.8c.172-.257-.052-.908-.291-1.259a1,1,0,0,0-.972-.154c-.794.509-1.507,1.131-2.223,1.689-2.635-2.1-2.833-4.028-1.155-6.055-.265-2.273-.376-4.139-.75-5.956a7.1,7.1,0,0,0-1.344-2.859c-.938-1.2-1.326-2.28-.19-3.771.925.083,1.949.185,3.059.285.645-1.45,1.259-2.839,1.756-3.951-2.25-1.09-4.43-2.147-6.188-3-.53-2.134-1.008-3.9-1.4-5.685a31.247,31.247,0,0,1-.466-3.162,13.331,13.331,0,0,0-.195-2.38c-.8-2.566-.448-4.2,1.88-5.483,1.975-1.09,2.975-2.363,2.455-4.643a2.364,2.364,0,0,1,.124-1.427c1.023-2.09.168-3.474-1.211-5.134a13.015,13.015,0,0,1-2.319-5.265c-.728-3.164-1.069-6.414-1.579-9.623a2.948,2.948,0,0,0-.208-1.059c-2.056-3.443-1.18-6.895-.165-10.376a4.623,4.623,0,0,0-.008-1.767c-.178-1.671-.5-3.322-.573-4.992-.188-4.2-.425-8.41-.352-12.6a78.464,78.464,0,0,1,.948-7.869c.077-.589.309-1.416.026-1.751-1.859-2.216-1.494-4.514-.985-7.122.443-2.295-.156-4.776,0-7.157a11.784,11.784,0,0,1,1.206-3.3c-2.422-4.314-2.443-4.324.776-8.212,1.141-1.389,2.1-2.656.691-4.474-.993-1.283-.663-2.425.7-3.391a9.2,9.2,0,0,0,1.946-2.073,25.581,25.581,0,0,0,1.463-2.6,14.416,14.416,0,0,1,1.537,2.083,11.219,11.219,0,0,1,.291,1.787c.9,3.3,2.281,3.957,5.45,2.589a3,3,0,0,1,.633.314c2.867,2.345,4.735,5.158,4.681,9.078a9.092,9.092,0,0,0,1.038,3.456c1.393,3.311,1.424,3.294-1.085,5.887-.332.335-.64.7-1.18,1.294.486.926.941,1.869,1.47,2.772.363.62,1.177,1.182,1.191,1.772.074,3.525,2.4,5.654,4.916,7.978-2.165,1.722-2.578,3.517-.606,5.594a3.143,3.143,0,0,1,.393,4.046c-1.168,1.822-.543,3.343.9,4.473a6.581,6.581,0,0,1,2.676,6,6.688,6.688,0,0,0,2.2,5.888c1.123.961,1.327,2.359,1.064,3.984-.435,2.633-.427,5.3,2.224,7.113,1.419.975,1.45,2.442.841,3.92a4.646,4.646,0,0,0,.473,5.127,2.953,2.953,0,0,1,.517,1.34c.684,3.769,1,7.694,4.677,9.856-.856,2.6-3.059.885-4.466,2.291-.34,1.432-.776,3.25-1.211,5.08,4.255,1.26,5.674,3.182,5.934,7.54a41.981,41.981,0,0,0,.93,4.111c.2,1.242.2,2.522.3,4.109.938-.612,1.835-1.185,3.013-1.951-.151,3.35-.285,6.35-.414,9.343,2.481,2.015,1.473,5.658,4.291,7.918a6.968,6.968,0,0,1-1.869.321c-1.182-.272-2.731-.931-3.242.445-.54,1.457-.988,3.817-.223,4.728,2.355,2.807,2.481,5.632,1.535,8.829-.088.293.142.682.265,1.216a17.071,17.071,0,0,1,4.178.519c.828.3,1.353,1.44,2.021,2.206a8.688,8.688,0,0,1-2.092,1.628,23.387,23.387,0,0,1-3.857.717c1.183,1.708,2.9,1.823,4.435,2.237,3.425.924,3.47,1.023,3.9,4.607a26.611,26.611,0,0,0,1.044,3.718c-.872.187-1.733.357-2.707.561.057.3.015.7.2.917a5.092,5.092,0,0,1,1.393,3.584,4.629,4.629,0,0,0,1.347,3.2c2.087,1.728,2.092,3.792,1.278,5.89a8.416,8.416,0,0,0-.075,5.983,4.6,4.6,0,0,1-.2,3.068c-.763,1.609-.56,2.668.861,3.761a3.663,3.663,0,0,1,1.1,2.142c.687,3.782,1.353,7.566,1.815,11.382a11.443,11.443,0,0,1-.66,4.352c1.07,3.088,2.792,6.09,2.283,9.666a13.611,13.611,0,0,1-.563,3.172c-.679,1.658-1.047,3.178.023,4.823a2.02,2.02,0,0,1-.606,2.884,2.594,2.594,0,0,0-.547,3.846,3.6,3.6,0,0,1,.049,3.8,4.647,4.647,0,0,0-.1,3.825c1.1,2.87,2.5,5.807.935,8.99,1.162,3.024-1.8,6.072.046,9.091-1,3.838.281,7.775-1.131,11.744s-2.139,8.379.065,12.667A6.718,6.718,0,0,1,446.32,400c-1.193,4.059-2.846,7.977-2.222,12.374a4.629,4.629,0,0,1-.548,2.45c-2.353,4.92-2.772,10.235-3.455,15.525-.263,2-1.224,3.918-1.664,5.911a7.517,7.517,0,0,0,.1,3.129c.3,1.38.9,2.69,1.288,4.054.578,2.046,2.088,2.7,3.841,1.448a21.214,21.214,0,0,0,2.941-2.705c3.816-4.008,7.622-8.027,11.374-12.086a19.552,19.552,0,0,0,1.53-2.422c.728-1.095,1.507-2.15,2.242-3.234a20.027,20.027,0,0,0,1.679-2.656c.948-2.067,1.537-4.335,2.713-6.249a78.168,78.168,0,0,1,5.046-6.615c.439-.57.92-1.124,1.3-1.733,3.1-4.88,6.481-9.723,8.26-15.179,1.448-4.424,3.445-8.638,5.285-12.8,1.911-4.322,2.183-9.181,4.843-13.165a3.006,3.006,0,0,0,.535-1.705c-.362-5.173,1.527-9.9,2.805-14.757.119-.46.381-.989.254-1.389-1.6-5.047,1.754-9.266,2.309-13.952.124-1.06.784-2.082.8-3.136a11.832,11.832,0,0,1,1.722-6.186c.7-1.132.561-2.781.825-4.19.388-2,.715-4.013,1.2-5.993.843-3.394,1.794-6.771,2.691-10.152a9.066,9.066,0,0,1,.606-2.458c2.474-3.889,2.119-8.111,2.147-12.463.02-3.62,1.371-7.229,2.064-10.852a42.656,42.656,0,0,0,.511-4.237c.311-3.218.488-6.453.905-9.658.493-3.8,1.029-7.617,1.843-11.367.719-3.294.679-6.81,2.884-9.759.9-1.2,1.175-2.867,1.925-4.8.2.294.059-.165-.2-.244-1.987-.6-1.776-1.591-1.11-3.3a21.944,21.944,0,0,0,1.833-7.617c.02-2.5.08-4.563,1.967-5.525.347-2.329.637-4.167.894-6.013.113-.831.106-1.686.254-2.514a14.928,14.928,0,0,1,.949-4.172,19.353,19.353,0,0,0,2.083-6.87c.241-2.074,1.345-4.039,1.921-6.095.809-2.893,1.48-5.831,2.218-8.756,1.054-4.178,2.553-8.3,3.042-12.553a33.04,33.04,0,0,1,3.208-10.837c1.375-2.851,1.751-6.17,3.368-9.111,1.1-2,1.226-4.6,1.5-6.97.313-2.715-.083-5.566,1.851-7.9-1.313-2.978.73-5.594,1.074-8.386.376-3.051,1.826-5.97,2.854-8.931.193-.56.861-1.02.9-1.555.448-6.186,4.538-11.214,5.481-17.161a57.173,57.173,0,0,1,2.871-10.026c1.229-3.488,2.658-6.908,3.882-10.4a52.575,52.575,0,0,0,1.918-6.609c1.355-6.509,4.818-12.132,7.54-18.05,1.517-3.281,3.352-6.419,5.16-9.561,1.607-2.769,4.265-3.293,7.234-3.108,1.967.123,3.956.095,6.707.155-1.134.877-1.7,1.234-2.164,1.691-1.843,1.8-2.252,4.789-.44,6.519,2.056,1.954,1.836,3.581.949,6.08a22.117,22.117,0,0,0-1.511,10.569c.116.784.113,1.992-.355,2.376-1.947,1.63-.975,3.385-.781,5.295.254,2.594-.146,5.248-.162,7.875-.042,5.073.038,10.144-.046,15.215a38.6,38.6,0,0,1-.619,4.9c-.1.705-.506,1.473-.35,2.095.609,2.4-.635,3.61-2.537,4.6-.946.488-1.943,1.1-1.542,2.82,1.111.432,2.393.921,4.3,1.661-1.332.7-2.087,1.1-2.6,1.363-.155,3.407-.313,6.607-.479,10.135.624.242,1.57.6,2.565.99-.142.547-.124,1.01-.337,1.191-2.425,2-2.385,1.972-.985,5.006a4.95,4.95,0,0,1,.226,2.427c-.26,2.834-1.427,5.668.663,8.382.7.907-.013,1.908-1.043,2.3a3.873,3.873,0,0,0-2.422,3.366c-.421,2.848-.668,5.725-1.029,8.584a14.441,14.441,0,0,1-.553,2.83c-1.229,3.71-2.244,7.414-.439,10.941-.378.55-.479.836-.664.918-3.473,1.511-3.509,1.586-.974,4.149a7.257,7.257,0,0,1,1.72,7.417c-.712,2.659-1.8,5.216-2.654,7.842a12.509,12.509,0,0,0-.3,2.113,5.138,5.138,0,0,1-.334,1.74c-1.4,2.358-2.8,4.718-4.348,6.978a3.6,3.6,0,0,0-.55,3.391c.383,1.267.44,2.63.825,3.9a3.03,3.03,0,0,1-1.139,3.81,2.732,2.732,0,0,0-.934,3.823c.206.408.419,1.124.226,1.358-2.422,2.934-.6,6.944-2.571,10.013-.478.743-.35,1.877-.489,2.828-.1.712.07,1.69-.331,2.091-2.817,2.8-1.782,6.546-2.607,9.823-.416,1.625-.573,3.42-1.394,4.82-1.283,2.209-2.45,4.142,1.3,6.046-4.671,1.324-5.019,4.378-4.455,7.325.483,2.507-.281,4.2-2.175,5.211-2.041,1.093-2.378,2.656-2.751,4.681a61.387,61.387,0,0,1-2.425,7.9c-.267.8-1.02,1.588-.943,2.316.342,3.263-1.587,5.748-2.628,8.538-1.064,2.822-2.142,5.638-3.01,8.52-.656,2.159-1.419,4.085-3.6,5.176a3.588,3.588,0,0,0-1.972,3.618c.036.72-.095,1.468.007,2.18.442,3.126.35,5.834-3.037,7.654-1.023.557-1.625,2.722-1.643,4.167-.049,3.381-.353,6.378-3.37,8.682-.949.717-1.115,2.512-1.524,3.862-.35,1.128-.232,2.524-.859,3.424-1.083,1.55-1.911,2.938-1.506,4.972a2.954,2.954,0,0,1-1.326,2.278c-2.538,1.623-3.831,3.376-2.583,6.625.882,2.3-.01,3.861-2.4,4.959a6.285,6.285,0,0,0-3.857,4.862,27.162,27.162,0,0,1-5.072,10.49c-1.836,2.55-3.79,5.029-3.461,8.294-2.193,1.4-4.267,2.75-6.155,3.969a57.8,57.8,0,0,1,3.51,5.185c1.092,2.034,1.5,2.514,3.6,1.537a50.379,50.379,0,0,0,9.51-5.2c4.242-3.27,8.97-5.607,13.485-8.355,3.286-2,6.376-4.335,9.535-6.546,1.286-.9,2.527-1.858,3.767-2.82,5.62-4.386,11.176-8.856,16.875-13.135,2.882-2.162,6.054-3.943,9.027-5.992a7.167,7.167,0,0,0,2.216-2.324c2.231-4.126,5.743-6.785,9.739-8.967a5.137,5.137,0,0,0,1.9-1.584c2.859-4.473,5.635-8.986,8.425-13.5.447-.72,1.147-1.453,1.2-2.211.234-3.574,2.767-6.132,3.908-9.283a41.243,41.243,0,0,0,1.938-6.134c.543-2.753.966-5.488,2.8-7.751a3.063,3.063,0,0,0,.81-1.6c.09-5.489,3.965-9.831,4.519-15.215.331-3.214,1.514-6.337,1.89-9.545.478-4.141,3-7.533,3.8-11.536.424-2.128,1.372-4.152,1.835-6.28s.769-4.267,2.229-6.041a3.052,3.052,0,0,0,.637-1.678c.193-3.276,1.28-6.276,2.152-9.386,1.278-4.592,3.278-8.834,4.944-13.238a6.239,6.239,0,0,1,1.2-2.224,12.014,12.014,0,0,0,3.406-9.607,4.285,4.285,0,0,1,.115-1.078c2.039-9.086,4.106-18.156,6.126-27.241.941-4.249,1.817-8.5,2.717-12.76a9.109,9.109,0,0,1,.57-2.44,28.875,28.875,0,0,0,2.913-8.874c.619-3.532,2.17-6.9,3.411-10.305,2.137-5.885,4.71-11.635,6.455-17.636,2.941-10.15,8.337-19.23,11.968-29.061,1.717-4.638,3.083-9.411,4.764-14.065,1.35-3.738,2.961-7.376,4.434-11.072.57-1.421,1.085-2.869,1.627-4.3a5.207,5.207,0,0,1,.678-1.662c3.054-3.426,4.015-7.937,6.232-11.788,2.53-4.393,5.088-8.769,7.718-13.094.412-.679,1.309-1.036,1.9-1.632a8.675,8.675,0,0,0,1.5-1.922c1.473-2.741,2.655-5.667,4.375-8.243,1.3-1.948,2.011-4.478,4.451-5.555a.968.968,0,0,0,.411-.586c1.624-5.764,6.641-9.208,9.584-14.075a34.133,34.133,0,0,1,1.831-3.113,59.574,59.574,0,0,1,5.759-6.916c1.443-1.38,2.836-2.589,3.29-4.6.4-1.773,1.571-2.36,3.329-2.772,2.9-.676,5.646-1.308,8.654.753-.01.766-.025,1.923-.039,3.29-3.612.645-5.3,3.145-6.337,6.263,2.507,3.075,2.339,2.979.3,6.448a26.447,26.447,0,0,0-3.988,15.171c.214,3.918-.768,7.892-1.255,11.844a18.07,18.07,0,0,0-.525,2.481,5.394,5.394,0,0,1-2.71,5.159,3.339,3.339,0,0,0-1.722,4c.548,2.016-.159,3.756-1.137,5.522a49.092,49.092,0,0,0-4.631,11.741c-.628,2.442-1.052,4.943-1.794,7.36-1.1,3.569-2.2,7.167-5.108,9.836a3.2,3.2,0,0,0-.836,1.591c-.723,3.25-1.524,6.476-2.021,9.755-.447,2.961-1.221,5.917-.321,8.987.188.63-.7,1.725-1.326,2.389a25.979,25.979,0,0,1-2.928,2.332c.45,2.165.19,3.993-1.969,5.285-.761.46-1.116,1.769-1.4,2.771-.912,3.109-1.612,6.278-2.558,9.371-1.267,4.152-2.6,8.294-4.063,12.386q-2.791,7.826-5.862,15.544c-2.278,5.707-4.61,11.387-7.124,16.978-1.226,2.73-2.936,5.232-4.4,7.842-.414.73-1.136,1.55-1.044,2.244.473,3.8-1.5,6.964-2.521,10.372-.172.576-.273,1.34-.679,1.651-2.407,1.83-2.429,4.635-3.026,7.17a40.508,40.508,0,0,1-4.628,11.4c-1.028,1.735-1.43,3.82-2.317,5.64-1.1,2.265-2.353,4.455-3.635,6.612a39.356,39.356,0,0,1-2.358,3.195c-3.838,5.173-4.687,11.6-7.253,17.3-.586,1.294-1.245,2.569-1.885,3.843-.1.209-.386.361-.432.576-.632,2.833-.686,5.91-3.71,7.646-.3.173-.031,1.349-.023,2.268-2.391.314-3.633,1.956-4.8,3.921-1.041,1.733-2.676,3.1-3.892,4.741a27.68,27.68,0,0,0-3.28,5.137c-1.347,3.078-2.286,6.335-3.542,9.461-.483,1.214-1.638,2.18-2.024,3.4-1.222,3.918-3.888,7.2-4.988,11.068-.735,2.578-2.483,4.993-1.9,7.972.113.594-.65,1.465-1.191,2.039-.381.408-1.136.44-1.607.792-1.018.753-2.633,9.995-1.938,11.08a2.037,2.037,0,0,0,1.088.833c1.768.462,5.334-1.231,6.564-2.857a5.974,5.974,0,0,1,2.332-2.062,5.916,5.916,0,0,0,3.154-2.19c.534-.764,1.782-1.075,2.748-1.5,1.394-.611,2.831-1.139,4.183-1.678.34,4.152-.89,5.831-4.7,5.8a6.97,6.97,0,0,1-4.188,3.388c-2.4.8-4.793,2.385-5.293,5.717-2.3-1.6-3.505-.314-4.756,1.479-2.046,2.954-3.743,6.219-7.013,8.188-.579.345-.617,1.571-1.049,2.787a10.361,10.361,0,0,0,2.63-.115q8.337-3.032,16.626-6.181c2.445-.926,5.339-.558,7.427-2.532.146-.142.468-.128.709-.133,4.191-.07,8.394-.031,12.582-.239,2.375-.121,5-.1,7.05-1.087,3.219-1.545,6.7-1.646,9.949-2.738,1.582-.519,3.021-1.565,4.623-1.911,2.52-.539,5.026-1.722,7.741-.468a2.866,2.866,0,0,0,2.414-.394c2.313-1.792,4.954-.6,7.4-.974.763-.119,1.686.753,2.763,1.28,1.309-3.008,3.992-3.4,6.828-3.862a150.55,150.55,0,0,1,21.852-1.481,7.024,7.024,0,0,1,2.8.591c1.582.655,3.083,1.437,4.864.67a1.833,1.833,0,0,1,1.4.057c4.609,2.373,9.708,1.943,14.593,2.316,3.519.26,7.124-.8,10.7-1.1a103.644,103.644,0,0,1,11.541-.524c3.4.113,6.672,1.167,10.2,1.028,3.432-.134,6.893,1.145,10.371,1.546,4.712.553,9.1,2.09,13.564,3.566,3.186,1.054,6.6,1.411,9.911,2.115a6.5,6.5,0,0,1,2.728.833c1.7,1.424,3.275,2.42,5.52,1.026.437-.268,1.391.111,2.042.357,3.947,1.457,7.883,2.931,11.8,4.463,1.461.571,2.816,1.4,4.288,1.948a53.387,53.387,0,0,0,17.638,3.019c3.759.087,7.554-1.293,11.33-2.029.465-.1.92-.486,1.36-.462,3.858.25,6.9-1.979,10.258-3.258a27.906,27.906,0,0,1,3.823-.992c1.295-.3,2.75-.259,3.872-.854,3.01-1.6,6.283-1.594,9.494-2.087,4.661-.7,9.3-1.5,13.593-3.635a20.907,20.907,0,0,1,2.759-.828c1.331-.445,2.645-.959,3.982-1.4,1.805-.607,3.627-1.151,5.433-1.751,2.628-.871,5.217-1.913,7.888-2.607a18.116,18.116,0,0,1,4.69-.308,4.793,4.793,0,0,1,4.44,3.235,3.34,3.34,0,0,1,.049,2.691c-.363.553-1.61.61-2.483.737a17.27,17.27,0,0,1-2.455.059c-.43.007-1.159.136-1.245-.036-1.17-2.455-2.65-.471-4.178-.53-.177,1.066-.328,1.972-.4,2.458-1.547,1.124-2.789,2.015-4.031,2.916-.192.142-.352.429-.551.453-4.538.538-7.823,4.363-12.589,4.591-2.435.108-4.8,1.457-7.224,2.167-1.286.373-2.705,2.272-3.893-.169a21.481,21.481,0,0,0-4.581,1.791,12.434,12.434,0,0,1-5.733,2.023,6.155,6.155,0,0,0-2.691.964c-1.478.99-2.72,2.358-4.258,3.232a42.582,42.582,0,0,1-5.435,2.118c.8,1.065,1.466,1.948,2.232,2.971-.415,1.077-.874,2.244-1.378,3.566,4.334.244,6.872,3.624,10.422,4.988.479.185.8.869,1.134,1.363a3.6,3.6,0,0,1,.435.992c.88,2.923,4.831,3.018,5.505,6.437.645,3.283,4.309,3.448,6.684,4.978,3.979,2.561,7.671,5.555,11.448,8.35-2.443,3.7-3.943,4.162-7.5,2.972a35.27,35.27,0,0,0-13.469-2.252,9.26,9.26,0,0,1-2.5-.372c-2.948-.664-5.87-1.435-8.962-.82a3.266,3.266,0,0,1-2.435-.316c-2.2-1.962-4.424-1.029-6.386.008a7.4,7.4,0,0,1-8.191-.491,2.856,2.856,0,0,0-3.389-.165c-1.722,1.095-3.416.853-5.178.01-3.617-1.745-7.585-1.3-11.42-1.687a.6.6,0,0,0-.353.044c-3.44,2.139-6.419.337-9.453-1.08a6.326,6.326,0,0,0-1.376-.412,2.965,2.965,0,0,0-.864.133c-.257.679-.545,1.419-.843,2.187a9.107,9.107,0,0,1-1.12.028c-1.661-.123-3.324-.265-4.985-.386a7.727,7.727,0,0,1-1.439-.067c-3.244-.9-6.476-1.843-9.705-2.772a1.791,1.791,0,0,0-.334-.121c-5.641-.465-11.278-1-16.922-1.345-2.751-.172-5.525,0-8.293.02-.848,0-1.826-.311-2.519.008-4.654,2.147-10.057.642-14.917,3.556-.07-1.591-.116-2.7-.172-3.9-1.5-.815-2.532.239-3.687.772-2.275,1.038-4.533,2.111-6.867,2.992a2.535,2.535,0,0,1-1.946-.578c-1.939-1.493-4.226-1.173-6.512-1.768.155.583.162.948.293,1.01,1.439.653,3.132,1.1,2.262,3.321-.818,2.1-2.892,3.725-4.692,3.155-2.843-.912-5.276,0-7.651,1.2a3.909,3.909,0,0,1-4.052.185,5.11,5.11,0,0,0-3.381-.049c-2.759.731-5.522,1.312-8.08,2.913-1.159.723-3.407-.3-5.625-.589-2.758,3.226-7.253,2.994-11.4,3.743-1.9.337-3.841.414-5.741.745-1.843.311-3.466.38-5.163-.835a3.711,3.711,0,0,0-3.294.183c-1.565.928-2.718,1.1-4.275-.025-2.136-1.548-2.731-1.4-4.7.355-1.072.948-2.106,1.943-3.255,3.011-1.3-.975-2.306-1.6-4-1.226-1.62.368-3.519-.514-5.3-.785-4.659-.715-6.88.187-9.594,3.777-2.967,1.147-2.633-3.091-5.262-3.123-.047,1.1-.09,2.082-.159,3.494-3.339.461-6.738,1.344-10.125,1.3a57.471,57.471,0,0,0-12.021,1.026,2.349,2.349,0,0,1-1.419-.067c-2.584-1.362-4.956-.514-7.275.651-3.116,1.578-6.407.9-9.646.792-3.736-.116-7.471-.538-11.206-.524-2.075.007-3.167-.8-3.618-2.887-1.3.139-2.463.263-3.875.411.011,1.1.018,2.108.028,3.576-1.9-.121-3.7-.244-5.735-.38-1.344,2.033-1.344,2.033-4.075-.114a6.6,6.6,0,0,1-6.19,1.452,4.389,4.389,0,0,0-3.123.686c-5.234,3.653-11.7,3.674-17.338,6.067-7.337-.074-13.729,4.348-21.037,4.456a5.61,5.61,0,0,0-2.061.658c-3.458,1.575-7.157,2.087-10.841,2.82-2.761.553-5.361,1.926-8.013,2.984-.661.257-1.183.889-1.851,1.095-4.607,1.414-9.222,2.81-13.863,4.1-1.849.522-3.831.609-5.645,1.2-2.977.972-5.831,2.3-8.8,3.295-2.383.8-4.864,1.864-7.284,1.834a6.331,6.331,0,0,0-6.278,3.979c-.923,1.9-2.268,2.367-4.091,3-3.853,1.334-7.6,3.075-10.561,6.057-.255.26-.439.733-.725.794-4.039.939-5.589,4.8-8.378,7.194a37.047,37.047,0,0,0-5.456,6.613,39.593,39.593,0,0,1-8.229,8.617,79.2,79.2,0,0,0-7.185,6.532,4.964,4.964,0,0,0-1.124,2.227c-.671,2.46-1.3,4.882-3.61,6.445a2.479,2.479,0,0,0-.858,1.522,2.083,2.083,0,0,0,.332,1.651,1.674,1.674,0,0,0,1.619.206c1.682-1.252,4.26-1.313,5.083-3.766a1.714,1.714,0,0,1,.982-.988c3.139-.862,6.314-2.3,9.461-2.252a19.615,19.615,0,0,0,8.108-1.355c8.839-3.854,18.294-5.453,27.485-8,3.289-.913,6.916-.583,10.382-.91,2.931-.275,5.854-.673,8.784-1.006a3.169,3.169,0,0,1,1.375-.083c5.031,1.936,10.3.818,15.441,1.3,2.01.2,3.992.651,5.982,1.008,10.409,1.851,20.85,3.546,31.211,5.651a74.305,74.305,0,0,1,15.187,4.769c3.327,1.461,6.474,3.471,10.311,4.083,3.111.5,5.969,2.492,8.97,3.756,2.342.987,4.972,1.5,7.041,2.879,3.592,2.394,6.988,5.046,11.2,6.284,1.779,2.733,4.82,2.864,7.528,3.862a38.788,38.788,0,0,0,12.4,2.43c.486.018,1.077.318,1.429.139,4.07-2.16,8.785.128,12.855-1.933a2.792,2.792,0,0,1,1.394-.342c4.91.463,9.744-.635,14.625-.677.242,0,.545-.08.715.029,3.817,2.633,7.949.219,11.911.745,3.931.517,7.921.576,11.895.759,2.16.1,4.579-.581,6.446.168,3.422,1.383,6.923,1.273,10.394,1.833,4.383.7,8.574,2.551,12.911,3.627,2.992.741,4.3,3.029,5.6,5.306.931,1.623-.594,3.933-2.751,4.185a44.049,44.049,0,0,1-5.707-.044,7.678,7.678,0,0,1-1.286,1.805c-.869.74-2,1.871-2.874,1.756-4.114-.534-6.767,1.843-9.576,4.134-.694.57-1.766,1.308-2.453,1.131-2.658-.679-4.721.376-6.885,2.007-.5-.65-.9-1.188-1.3-1.727a1.957,1.957,0,0,0-2.884-.449c-1.082.655-.967,1.587-.4,2.517a2.94,2.94,0,0,1-.534,3.951c-.91.934-1.967,1.476-3.247.732-1.357-.781-.8-1.8-.286-2.805a5.127,5.127,0,0,0,.229-1.178c-3.574-2.983-7.779-2.121-11.844-1.993-1.522.049-2.885.432-3.478,2.262A3.986,3.986,0,0,0,653.516,536c2.655-.723,3.584,1.54,5.136,2.622.372.262.041,1.779-.219,2.64-.948,3.128-.538,3.913,2.463,5.321a27.133,27.133,0,0,1,4.157,2.741,25.643,25.643,0,0,0,2.209,1.877c6.258,3.478,10.013,9.376,14.114,14.855,1.278,1.691,3.18,2.607,4.278,4.633.853,1.568,2.168,3.039,3.028,4.769a3,3,0,0,0,2.124,1.548c1.83-.095,2.536,1.308,3.515,2.258a2.188,2.188,0,0,1,.316,2.09,1.75,1.75,0,0,1-2.828.157,12.653,12.653,0,0,1-.9-1.561c-1.342-1.938-1.944-2.223-4.185-1.216a3.86,3.86,0,0,1-3.763-.381c-5.091-2.743-10.7-3.628-16.305-4.561a25.359,25.359,0,0,1-5.314-1.149c-6.255-2.484-12.947-3.27-19.443-4.052a80.329,80.329,0,0,1-16.927-3.623c-5.946-2.092-12.245-2.709-18.045-5.268a28.226,28.226,0,0,0-9.694-2.193c-3.2-.182-6.455.879-9.689.917a40.159,40.159,0,0,0-10.168,1.548c-4.649,1.27-9.464,1.952-14.235,2.781a40.365,40.365,0,0,1-4.983.311c-.352.011-.737-.255-1.06-.183-2.876.673-5.751,1.352-8.6,2.108-3.36.884-6.559,2.321-10.207,2.075-1.745-.118-3.54.579-5.321.869-1.543.249-3.1.427-4.653.663-1.046.154-2.087.349-3.129.529-1.19.2-2.476.781-3.548.514-4.083-1.033-7.842.956-11.664,1.006-4.538.056-8.651,2.35-13.166,1.748a.72.72,0,0,0-.367-.013,13.716,13.716,0,0,1-8.244.62c-4.078-.766-7.618,1.784-11.42,2.733-4.371,1.1-8.684,2.2-13.2,1.563a5.3,5.3,0,0,0-4.3,1.246,30.928,30.928,0,0,1-5.556,3.314c-.764.362-1.872-.038-2.817.033-1.159.084-2.489-.015-3.409.53a20.989,20.989,0,0,1-6.659,2.522,32.752,32.752,0,0,0-7.767,2.789,13.637,13.637,0,0,1-6.949,1.65,3.664,3.664,0,0,0-3.147,1.391c-2.366,2.63-5.077,3.753-8.761,2.579-1.943-.619-4.206-.223-6.33-.236a1.215,1.215,0,0,0-.938.448c-1.509,3.456-6.424,3.532-7.448,7.582-.183.74-1.648,1.313-2.625,1.648-3.6,1.232-6.936,2.81-9.461,5.8a4.973,4.973,0,0,1-1.861,1.02c-2.885,1.234-5.8,2.422-8.671,3.689a2.636,2.636,0,0,0-1.349,1.146c-.961,2.278-3.057,3.229-4.857,4.631-5.726,4.471-12.15,7.787-18.209,11.692a69.381,69.381,0,0,1-6.88,3.8,6.558,6.558,0,0,0-3.278,3.139c-1.133,3.378-3.844,4.854-6.54,6.464-1.959,1.175-4,2.222-5.908,3.474a3.682,3.682,0,0,0-1.27,1.992c-.538,2.051-1.416,3.576-3.789,3.771-1.915.149-2.936,1.62-3.851,3.044-1.206,1.88-2.417,3.4-4.923,3.844-2.36.408-3.479,2.882-4.049,4.794-1.046,3.551-3.445,6.085-5.594,8.792a7.6,7.6,0,0,0-1.869,5.63,9.26,9.26,0,0,1-.759,3.385c-.612,1.831-1.46,3.589-1.99,5.437-.849,2.977-1.427,6.039-2.309,9.014-1.023,3.476-2.188,6.911-3.388,10.33-1.515,4.313-3.836,8.386-3.674,13.166-2.438,3.7-1.89,8.16-3.09,12.173a7.233,7.233,0,0,1-.861,1.967,4.449,4.449,0,0,0-.53,4.145,5.727,5.727,0,0,1-.679,5.211,3.69,3.69,0,0,0-.643,2.69c.756,2.167-.321,3.659-1.188,5.424-2.782,5.69-4.08,11.87-5.435,18.019-.2.939-.368,1.887-.553,2.83-.092.476-.429,1.139-.234,1.388,1.722,2.224,1.07,4.571.826,7.062-.229,2.334.363,4.756.609,7.129,0,.1.147.192.47.589a6.883,6.883,0,0,0,1.987-.787c2.771-2.272,5.085-4.869,5.419-8.684.039-.475.046-1.168.34-1.375,2.445-1.736,2.6-4.766,4.085-7,2.384-3.6,5.177-6.931,7.548-10.533a35.886,35.886,0,0,0,3.376-6.808c2.563-6.569,7.036-11.788,11.6-16.979a14.179,14.179,0,0,0,2.263-2.8c2.29-4.7,6.348-7.864,9.906-11.436a17.606,17.606,0,0,0,2.9-3.483c.936-1.571,2.713-2.677,4.236-3.844,2.295-1.745,4.96-3.1,6.967-5.114,2.925-2.944,6.782-4.555,9.729-7.353,4.3-4.08,9.186-7.35,13.906-10.875,2.722-2.039,5.6-3.673,8.433-5.469,1.882-1.2,3.355-3.044,5.136-4.438a79.48,79.48,0,0,1,6.7-4.833c3.147-1.974,6.163-4.056,9.806-5.337,3.663-1.28,6.771-4.059,10.283-5.869,3.859-1.98,7.913-3.583,11.864-5.393,4.26-1.954,8.5-3.944,12.752-5.929,1.087-.512,2.183-1.516,3.24-1.468,2.6.111,4.316-1.4,6.19-2.674a63.92,63.92,0,0,1,14.919-7.154c.232-.075.478-.1.7-.2,5.042-2.023,10.054-4.121,15.127-6.044,3.028-1.147,6.121-2.116,9.234-2.993,3.786-1.072,7.62-1.766,11.255-3.538s7.685-2.714,11.622-3.8c3.088-.856,6.062-1.907,9.469-1.967,3.088-.059,6.134-1.954,9.211-3.018,2.267-.792,4.542-1.57,6.821-2.312a7.882,7.882,0,0,1,2.468-.591c3.558.106,6.558-1.321,9.474-3.142a8.375,8.375,0,0,1,2.407-.55,14.088,14.088,0,0,0,3.137-.777,12.205,12.205,0,0,1,7.733-1.321,8.815,8.815,0,0,0,2.468-.278c1.651-.216,3.311-.373,4.949-.653,2.949-.5,5.882-1.082,8.816-1.637.588-.111,1.25-.56,1.74-.4,3.522,1.129,6.628-.65,9.9-1.267a83.3,83.3,0,0,1,14.31-1.9c4.447-.062,7.767,1.939,9.189,5.7-1.877,1.3-3.438,3.27-6.3,2.373-.543-.173-1.317.437-2,.651q-2.376.761-4.754,1.491c-3.988,1.236-8.289,1.9-11.9,3.844-4.029,2.18-8.54,3.368-12.263,6.234-1.276.987-3.407.764-4.275,2.746-.178.4-1.309.442-2.016.54-1.43.209-2.87.334-4.437.512-.55,3.28-2.6,5.036-5.738,5.654-.586.118-1.478.195-1.655.563-1.088,2.262-3.479,2.57-5.34,3.471-2.276,1.095-4.677,1.7-6.306,3.961-.5.694-2.167.54-3.548.833-.6,1.759-1.337,3.745-4.16,3.026-.439-.1-1.049.455-1.581.691q-2.244,1.038-4.5,2.042a8.325,8.325,0,0,0-1.635.678c-2.1,1.583-4.155,3.226-6.214,4.864-2.116,1.7-4.33,2.974-7.222,2.93a8.313,8.313,0,0,0-6.081,2.9,9.068,9.068,0,0,1-5.085,2.519,61.745,61.745,0,0,0-7.68,2.074,11.828,11.828,0,0,0-3.365,2.118c-4.528,3.7-10.073,5.4-15.222,7.884-1.529.73-2.97,1.651-4.532,2.288a11.008,11.008,0,0,1-4.006.72,6.035,6.035,0,0,1-3.911,2.929,77.932,77.932,0,0,0-11.242,3.959,16.477,16.477,0,0,0-3.947,2.535c-1.034.827-1.992,1.329-3.291.745-1.715-.782-2.81.044-3.537,1.5a5.679,5.679,0,0,1-3.514,2.933,11.952,11.952,0,0,0-2.373,1.578c-.7.452-1.416,1.18-2.15,1.2a5.34,5.34,0,0,0-4.412,2.044,1.9,1.9,0,0,1-1.286.583c-4.528.3-7.908,3.3-11.783,5.09a16.292,16.292,0,0,0-5.176,3.523c-1.365,1.44-4.159,1.5-6.288,2.247a32.834,32.834,0,0,0-3.177,1.462c-.209.1-.421.463-.555.434-3.127-.8-4.334,1.825-6.167,3.383a14.59,14.59,0,0,1-2.78,1.714c-4.959,2.489-9.842,5.152-14.929,7.343a26.935,26.935,0,0,0-8.5,6.006,11.782,11.782,0,0,1-4.8,3.072,19.668,19.668,0,0,0-5.132,3.2c-2.039,1.519-3.723,3.815-5.97,4.664-2.939,1.113-4.941,3.114-7.273,4.916-2.553,1.965-5.681,3.193-8.221,5.17-2.812,2.193-5.226,4.874-7.823,7.334-2.363,2.244-4.861,4.358-7.062,6.746s-4,5.152-6.206,7.533c-2.939,3.183-5.334,6.767-8.083,10.07a12.98,12.98,0,0,0-2.913,4.407,5.807,5.807,0,0,1-2.581,3.288c-1.758.843-2.381,2.2-3.167,3.725-1.046,2.01-2.026,4.239-3.625,5.743-2.894,2.705-3.416,6.643-5.684,9.612-.252.337-.077.962-.252,1.4a30.317,30.317,0,0,1-2.609,5.825c-.982,1.421-1.964,2.678-2.177,4.453a5.522,5.522,0,0,1-.969,2.321c-2.468,3.522-3.6,7.633-5.062,11.587a13.632,13.632,0,0,0-.357,3.211,15.293,15.293,0,0,1-.411,3.576c-.781,2.2-1.493,4.167-.221,6.545.475.89-.206,2.586-.707,3.764-.934,2.185-1.5,4.258-.645,6.663.368,1.037-.013,2.345-.115,3.533a32.329,32.329,0,0,0-.442,3.906c.159,5.167.466,10.333.656,15.5a6.547,6.547,0,0,1-.309,2.853,9.3,9.3,0,0,0,.079,8.036,9.167,9.167,0,0,1,.547,7.065c-.4,1.082.2,2.594.507,3.869a48.848,48.848,0,0,0,1.756,6.268,3.11,3.11,0,0,0,2.123,1.543c.434.077,1.293-.962,1.56-1.655.478-1.221.437-2.666.985-3.844,1.208-2.609,2.645-5.111,4-7.654a12.566,12.566,0,0,0,1.195-2.242c1.17-4.193,3.54-7.815,5.468-11.636a55.953,55.953,0,0,1,3.676-5.8c3.165-4.705,6.384-9.379,9.528-14.1.871-1.308,1.245-3.091,2.371-4.033a27.218,27.218,0,0,0,6.494-8.44c2.016-3.785,5.152-6.972,7.733-10.469,1.134-1.55,2.1-3.224,3.134-4.846a5.624,5.624,0,0,1,.537-.948c5.114-5.363,9.981-10.977,15.968-15.459,2.805-2.1,5.255-4.654,7.865-7,5.6-5,11.4-9.792,16.688-15.091,2.123-2.121,4.494-3.817,6.72-5.736a10.984,10.984,0,0,1,1.8-1.162c.525-.293,1.3-.355,1.615-.779,3.717-5,9.855-7.173,13.824-11.872a8.7,8.7,0,0,1,2.866-2.193c5.676-2.656,10.022-7.142,14.932-10.826a25.477,25.477,0,0,1,6.775-4.072c2.1-.748,3.939-2.267,5.884-3.453,2.574-1.581,4.952-3.7,7.738-4.638,4.031-1.365,6.96-4.317,10.59-6.193,2.561-1.314,4.939-3.165,7.64-3.993a22.894,22.894,0,0,0,8.51-5.258,13.824,13.824,0,0,1,6.24-3.528,6.05,6.05,0,0,0,3.064-1.755,18.513,18.513,0,0,1,6.289-4.134c3.136-1.5,6.042-3.46,9.093-5.145,1.242-.689,2.592-1.175,3.9-1.741a9.4,9.4,0,0,0,1.354-.512c4.991-3.114,9.893-6.393,14.993-9.312,2.245-1.295,4.89-1.879,7.355-2.763,2.018-.738,4.083-1.365,6.067-2.177,3.01-1.231,5.964-2.592,8.96-3.882,5.869-2.522,11.726-5.07,17.631-7.505a30.182,30.182,0,0,1,4.505-1.188c.583-.142,1.353-.028,1.732-.362,2.445-2.214,5.712-1.825,8.528-2.818,3.815-1.329,7.808-1.885,11.589-3.643,2.619-1.223,6.136-.772,9.232-.65,1.733.067,3.645,2.812,3.51,4.545a3.657,3.657,0,0,1-1.169,2.07,4.763,4.763,0,0,1-1.977.869c-2.437.679-5.3.737-7.222,2.129a45.7,45.7,0,0,1-6.253,4.129,16.907,16.907,0,0,0-4.173,3.4c-1.173,1.188-2.352,2.116-4.1,1.841-2.5-.38-3.8,1.106-4.854,3.013a13.3,13.3,0,0,1-1.218,2.219c-2.822,3.391-4.2,3.586-8.505,1.195-.47.756-.951,1.516-1.54,2.462,1.113.818,2.047,1.512,3.111,2.309-2.137,1.686-4.247,3.33-6.334,5.009-.933.748-1.758,1.632-2.723,2.332a6.936,6.936,0,0,1-2.735,1.506c-4.64.609-7.615,4.036-11.233,6.376-.188.119-.434.4-.412.571.46,3.321-2.337,3.09-4.2,3.893-1.457.635-2.89,1.255-3.088,3.2a2.78,2.78,0,0,1-1,1.848c-4.021,2.609-6.826,6.63-11.384,8.81-3.337,1.6-6.168,4.276-9.869,5.633-2.131.777-3.612,3.186-5.669,4.36-3.79,2.151-7.073,4.571-7.648,9.52-.974-.435-1.478-.707-2.01-.9-2.046-.748-2.784-.483-2.939,1.594a5.434,5.434,0,0,1-2.232,3.944c-.91.786-1.679,1.755-2.645,2.453a8.417,8.417,0,0,1-3.406,1.882,12.1,12.1,0,0,0-7.671,4.33c-1.527,1.709-3.267,3.235-4.964,4.789a3.513,3.513,0,0,1-1.828,1.061c-1.8.144-3,1.46-4.447,2.029-2.754,1.082-3.9,3.535-5.776,5.3-3.543,3.316-8.07,4.851-12.055,7.338-1.524.945-3,1.962-4.52,2.92-3.147,1.974-6.329,3.879-9.451,5.888-2.227,1.435-4.389,2.982-6.581,4.484-5.162,3.546-10.355,7.05-15.474,10.664-1.768,1.249-3.293,2.813-5.019,4.118a38.682,38.682,0,0,1-3.412,2,8.109,8.109,0,0,0-2.388,1.56,22.727,22.727,0,0,1-8.553,6.458c-2.134,1.02-3.97,2.663-5.969,3.992-6.9,4.609-13.937,9.026-20.641,13.9-2.314,1.681-5.306,3.054-6.229,6.283a1.624,1.624,0,0,1-1.023.93c-3.344.841-5.45,3.476-7.694,5.685-2.615,2.573-5.468,5.08-7.044,8.577a4.784,4.784,0,0,1-1.209,1.317c-3.155,2.974-6.111,5.974-7.458,10.371-.633,2.077-2.605,3.73-3.861,5.633-1.651,2.509-3.2,5.077-4.8,7.63-.133.2-.188.493-.362.619-3.47,2.641-4.684,6.949-7.461,10.137-1.712,1.954-2.84,4.424-4.222,6.671-.19.3-.272.81-.532.928-4.222,1.836-4.71,6.533-7.113,9.728a21.154,21.154,0,0,0-3.866,11.44,41.189,41.189,0,0,1-1.622,10.2,45.136,45.136,0,0,0-1.56,16.433c.4,4.293.866,8.546,1.083,12.869.211,4.167.463,8.348.553,12.543.072,3.355.894,6.689,1.286,10.044a31.233,31.233,0,0,1,.448,6.8c-.514,4.74,1.925,8.92,2.16,13.489a2.788,2.788,0,0,0,.465,1.718c.826.768,1.826,1.728,2.817,1.815.712.064,1.705-1.051,2.254-1.856a4.561,4.561,0,0,0,.555-2.452c0-1.79.962-3.116,1.7-4.638a32.679,32.679,0,0,0,2.872-8.528,24.62,24.62,0,0,1,3.159-8.042c2.928-5.146,5.813-10.307,8.777-15.425,1.245-2.146,3.625-3.664,3.53-6.566-.01-.352.5-.9.884-1.054,2.185-.818,2.894-2.589,3.63-4.631a23.721,23.721,0,0,1,3.155-5.253c2.288-3.234,4.708-6.378,7-9.61a28.659,28.659,0,0,0,1.923-3.43c.556-1.06.767-2.633,1.632-3.146,3.255-1.9,4.208-5.466,6.424-8.1,2.178-2.586,4.687-5.023,6.28-7.947,3.023-5.543,7.718-9.589,11.688-14.274.381-.458.774-1.082,1.285-1.236,3.021-.926,3.9-3.659,5.51-5.915,1.928-2.7,4.514-4.929,6.852-7.325.748-.771,1.715-1.342,2.393-2.162,3.294-4.01,6.527-8.063,9.77-12.112,1.132-1.412,2.141-2.948,3.384-4.242,1.838-1.892,3.826-3.625,5.776-5.406,2.3-2.1,4.582-4.226,6.96-6.242,2.473-2.087,4.982-4.15,7.6-6.047,7.1-5.129,12.954-11.569,19.238-17.572,4.36-4.165,9-8.047,13.634-11.919,3.388-2.826,6.864-5.584,10.494-8.086,3.265-2.244,6.789-4.119,10.214-6.114,1.982-1.151,4.1-2.1,5.985-3.38q9.284-6.321,18.418-12.867c2.411-1.746,4.177-4.268,6.992-5.6,3.686-1.738,7.237-3.761,10.86-5.636,1.5-.779,3.057-1.432,4.537-2.249,3.486-1.925,6.865-3.977,10.828-5.006,2.391-.625,4.535-2.155,6.8-3.25,3.353-1.628,6.744-3.154,10.057-4.847,2.124-1.1,4-2.835,6.232-3.547a105.615,105.615,0,0,0,12.042-4.843c2.718-1.262,5.717-1.146,8.635-1.164l.3.766a10.455,10.455,0,0,1-1.677,1.447c-2.926,1.646-5.9,3.213-8.852,4.81-.319.17-.628.468-.959.489-4.959.3-6.952,4.8-10.327,7.322-1.866,1.4-3.213,3.568-5.17,4.749-2.219,1.337-4.874,1.951-7.33,2.9a18.879,18.879,0,0,0-3.687,1.517c-1.064.692-2.339,1.645-2.674,2.738a7.919,7.919,0,0,1-3.97,4.471,45.026,45.026,0,0,1-5.409,2.859c-1.731.735-2.226,1.807-1.376,3.414.9,1.719.046,2.548-1.267,3.565-3.052,2.366-6.062,4.826-8.88,7.464-1.725,1.628-3.018,3.713-4.622,5.491a24.139,24.139,0,0,1-2.776,2.288c-.748.607-1.812,1.092-2.159,1.884-1.825,4.181-5.769,6.463-8.484,9.826-.907,1.123-1.748,2.3-2.669,3.422a9.015,9.015,0,0,1-1.745,1.743c-2.008,1.357-2.033,1.321-1.812,4.343-3.987,2.363-6.445,6.812-10.834,9.044a3.143,3.143,0,0,0-.82.707c-3.43,3.825-6.9,7.605-10.268,11.48-2.774,3.195-5.432,6.492-8.142,9.744-.232.283-.425.679-.725.8-3.766,1.5-5.962,4.885-8.7,7.52-4.609,4.439-8.746,9.355-13.071,14.071-.488.543-.8,1.444-1.37,1.658-4.579,1.64-6.561,6.023-9.806,9.06-4.815,4.5-9.7,8.931-14.6,13.345-.61.553-1.525.761-2.173,1.286-1.974,1.581-3.9,3.214-5.816,4.852a30.308,30.308,0,0,1-3.808,3.3c-1.625.964-3.019,1.9-3.668,3.794a3.569,3.569,0,0,1-1.614,1.857c-3.674,1.836-6.226,5.407-10.361,6.568-.661.193-1.231,1.406-1.488,2.247a7.811,7.811,0,0,1-3.146,4.273,64.5,64.5,0,0,0-6.432,5.321c-1.5,1.406-2.625,3.137-5.1,3.024-.519-.028-1.538,1.252-1.584,1.984-.162,2.573-1.689,3.9-3.769,4.9a8.912,8.912,0,0,0-5.008,5.422c-.319.972-1.753,1.579-2.879,2.52,1.221,1.745.3,2.635-1.512,3.961-2.15,1.578-3.6,4.113-5.326,6.25-2.177,2.7-3.8,5.965-7.464,6.957-1.17,6.648-5.581,11.09-10.094,15.444-.957.92-2.095,1.655-3.039,2.587-.571.565-1.309,1.355-1.309,2.041.021,2.89-1.959,4.9-2.933,7.342-.537,1.319-1.1,2.636-1.637,3.956-.136.33-.1.856-.327,1-3.612,2.29-3.483,6.741-5.717,9.882-1.314,1.841-1.427,4.545-2.036,6.872q-1.915,7.308-3.754,14.634c-.17.679-.465,1.589-.173,2.1,1.236,2.186.723,4.5.768,6.776a14.917,14.917,0,0,0,2.219,8.244c1.723,2.7,2.691,5.893,3.822,8.942,1.042,2.8,1.9,5.662,2.777,8.52,1.455,4.831,2.815,9.685,4.316,14.512a34.726,34.726,0,0,0,1.877,4.281c.2.439.782.838.743,1.214-.281,2.915.488,5.139,3.427,6.365.391.162.494,1.311.52,2.006.059,1.807.007,3.623,0,5.63.8-.066,1.571-.134,2.605-.223.051,2.494.1,4.859.146,7.2-2.645.645-3.659.2-4.849-1.728-1.062-1.731-2.288-3.37-3.447-5.037-.27-.391-.781-.727-.851-1.142-.777-4.79-4.149-8.15-6.753-11.854-2.745-3.9-6.006-7.438-9.04-11.134a12.957,12.957,0,0,1-1.4-1.664c-2.53-4.437-5.944-8.152-9.309-11.937a75.431,75.431,0,0,1-4.782-6.609c-.275-.384-.371-1.013-.732-1.224-5.137-3.065-6.561-9.139-10.657-13.026a45.5,45.5,0,0,0-4.483-3.641,18.9,18.9,0,0,1-6.172-6.492c-.846-1.627-2.6-2.789-3.957-4.144-.848-.843-1.779-1.617-2.586-2.5-2.01-2.221-3.961-4.489-5.954-6.733-.236-.265-.566-.674-.831-.656-3.144.244-3.838-2.479-5.129-4.332a16.194,16.194,0,0,0-4.522-4.592c-1.208-.792-1.962-2.311-2.875-3.532-.282-.376-.314-.961-.63-1.295q-4.873-5.15-9.811-10.243c-.838-.863-1.682-1.731-2.584-2.53-1.137-1.023-2.293-2.029-3.515-2.944a52.955,52.955,0,0,1-10.392-9.427,12.466,12.466,0,0,0-2.6-2.3c-2.645-1.864-5.357-3.627-8-5.5-.429-.306-.607-.957-.959-1.54,1.849-.679,3.726-.98,5.085-1.99,1.281-.948,2.008-2.637,2.933-3.933-2.226-4.3-5.96-5.46-10.247-5.69a6.3,6.3,0,0,1-2.37-.683c-3.154-1.545-4.2-.966-4.535,2.589a3.232,3.232,0,0,1-.363.809c-1.646.47-2.625-.691-3.5-1.784-1.928-2.409-3.715-4.939-5.632-7.361-1.835-2.335-3.753-4.6-5.818-7.122.918-.7,2.023-1.555,3.769-2.9a12.752,12.752,0,0,0-2.823-.5,5.876,5.876,0,0,1-4.779-1.2,4.386,4.386,0,0,0-4.416-.862c-2,.625-3.465-.031-4.638-1.82a18.555,18.555,0,0,0-2.581-2.458,70.955,70.955,0,0,1-5.458-5.736c-.637-.817-.475-2.268-.7-3.533-.3-.034-.7-.208-.951-.079-2.718,1.313-3.348,1.391-4.723-.93s-3.448-3.35-5.739-4.134c-2.4-.815-3.977-2.228-4.311-4.9.357-1.031,2.853-1.239,1.434-3-1.155-1.438-2.543-.987-3.862-.074a7.8,7.8,0,0,1-1.376.6c.015-2.489,2.566-1.926,3.27-3.581-.183-1.232-.65-1.887-2.365-1.394-3.4.979-6.643,1.272-10.1-.655-2.784-1.552-5.479-3.023-7.63-5.384a2.214,2.214,0,0,0-1.223-.751c-4.308-.517-5.718-4.392-8.322-6.932-2.3-2.245-4-5.556-8.428-5.352-.162-1.052-.326-2.129-.529-3.45-6.625,2.154-8.693-3.046-11.793-6.335-.55-.586-.234-2.056-.2-3.1.087-2.545-.494-3.119-3.579-3.2.221,1.378.444,2.715.791,4.854-1.224-.876-2.024-1.182-2.4-1.756-3.409-5.263-3.479-5.353-9.784-7.342l4.6-1.44c-.5-1.449-1.7-1.221-2.663-1.365-4.8-.722-4.975-.956-4.874-5.71a17.113,17.113,0,0,0-.434-2.9l-.946-.041c-.308,1-.61,1.99-.915,2.967-.156.018-.322.085-.381.034-4.741-4.2-10.49-6.987-15.392-10.957-.566-.46-1.087-1.178-1.722-1.3-3.529-.658-4.83-3.587-6.792-6.018a99.581,99.581,0,0,0-7.887-7.952c-1.545-1.527-3-3.178-4.679-4.545-3.276-2.655-6.708-5.126-10.016-7.751a15.336,15.336,0,0,1-3.06-3.072c-1.445-2.036-.612-3.81,1.854-4.2a3.053,3.053,0,0,1,1.781.088c2.728,1.473,5.414,3.031,8.093,4.6.507.3.828.944,1.352,1.16,2.879,1.168,5.815,2.206,8.69,3.393,2.558,1.051,4.977,2.511,7.607,3.286,3.807,1.113,7.037,3.654,11.137,4.059,1.971.2,3.843,1.2,5.792,1.7a12.672,12.672,0,0,0,3.476.4c2.483-.057,3.491.395,3.875,2.782.3,1.857,1.17,2.514,2.784,3.263,1.547.725,2.759,2.308,3.908,3.692,1.095,1.3,2.2,2.121,4.016,1.918a2.665,2.665,0,0,1,2.2.754c1.036,1.9,2.749,2.183,4.566,2.5.82.141,1.889.226,2.358.761,2.119,2.425,4.646,2.794,7.563,1.7a16.13,16.13,0,0,1,1.589,2.149,4.668,4.668,0,0,0,4.016,2.7c2.111.177,3.4,1.306,4.573,3.095a11.5,11.5,0,0,0,7.8,4.8c2.111.394,3.993.772,4.947,3.064a2.765,2.765,0,0,0,2.039,1.18,5.9,5.9,0,0,1,5.343,3.745,4.362,4.362,0,0,0,5.309,2.712,3.29,3.29,0,0,1,1.425-.2,4.033,4.033,0,0,1,2.028,1.136c.219.306-.223,1.432-.678,1.821-1.628,1.375-1.872,2.632-.331,4.285.617.656.661,1.82,1.2,2.583a31.815,31.815,0,0,0,2.643,2.908c1.026-1.152,1.692-1.907,2.6-2.918,1.254,1.432,2.334,2.671,3.564,4.082-.54.653-1.041,1.257-1.725,2.072.719.853,1.46,1.722,2.385,2.823,3.434-3.687,6.607-1.29,9.659.165a4.424,4.424,0,0,1,2.093,3.06c.193,1.786.892,2.843,2.542,2.933,2.236.118,3.167,1.427,3.591,3.5,3.622-.352,5.98,1.2,7.959,4.078,1.47,2.124,3.767,3.658,5.594,5.556a34.178,34.178,0,0,1,3.643,4.358c1.16,1.686,2.064,3.555,3.08,5.344.182.318.321.8.588.9,2.8,1.013,4.422,3.584,6.82,5.131a8.282,8.282,0,0,1,2.44,2.424c1.555,2.4,2.776,4.838,5.988,5.789,2.879.841,4.191,3.345,3.846,6.705-3.146-.352-2.7-3.137-3.632-4.844-2.437,1.267-3.139,2.677-2.655,5.074a25.2,25.2,0,0,1,.576,3.9c.18,4.6,2.9,7.208,7.638,7.427,1.137.051,2.617.247,3.294.98a6.51,6.51,0,0,0,7.271,1.825c1.619-.486,2.62-.093,2.93,1.625a4.417,4.417,0,0,0,3.034,3.337c2.473,1,3.949,3.016,5.581,4.977,1.969,2.365,4.252,4.468,6.4,6.679.419.43,1.144.759,1.27,1.247,1.044,4.306,4.618,8.04,2.818,12.747,2.128,3.018,4.438,1.036,6.674.468,1.226,2.331,2.366,4.542,3.555,6.72.345.63.74,1.5,1.3,1.689,3.124,1.028,3.864,3.712,5.35,6.232,1.956,3.326,4.321,6.74,8.047,8.677a5.146,5.146,0,0,1,2.9,3.948,3.071,3.071,0,0,0,.848,1.9c1.579,1.111,2.782,2.3,2.579,4.419-.025.27.35.615.609.864a102,102,0,0,1,12.145,15.142c3.33,4.843,6.916,9.515,10.35,14.3a22.242,22.242,0,0,1,1.414,2.681c.558-.03,1.139-.021,1.712-.1,3.072-.4,2.779-.557,2.5-3.656-.427-4.651-2.038-8.723-3.813-12.978-2.078-4.964-2.866-10.463-4.242-15.719-.27-1.026-.71-2.01-1.039-3.034-.709-2.154-1.766-4.165-1.507-6.633a9.142,9.142,0,0,0-1.052-4.162c-2.241-5.32-4.636-10.577-6.851-15.909-1.01-2.424-1.689-4.972-2.586-7.442-1.609-4.432-3.348-8.81-4.9-13.261a89.547,89.547,0,0,0-8.363-16.724c-2.725-4.536-5.265-9.168-8.158-13.587a74.928,74.928,0,0,0-5.923-7.273c-3.45-4.057-6.682-8.211-8.712-13.245a19.8,19.8,0,0,0-6.415-8.577c-2.155-1.656-4.836-3.339-5.4-6.542a1.772,1.772,0,0,0-.887-1.1c-3.27-1.473-3.591-4.882-5.62-7.957,2.52.474,4.258.273,5.083-1.956a3.641,3.641,0,0,0-.561-4.033c-2.249-2.63-3.365-6.078-6.458-8.18-1.466-1-2.275-3-3.317-4.582a12.331,12.331,0,0,0-4.591-4.517c-.661-.337-1.016-1.311-1.457-2.021a8.883,8.883,0,0,0-1.056-1.889c-3.149-2.944-6.35-5.823-9.556-8.7-.53-.483-1.394-.717-1.718-1.285-1.6-2.833-4.674-3.763-7.047-5.581-1.527-1.17-3.236-1.679-5.186.044,2.471-3.224.646-5.638-.874-8.083-.245-.4-.6-1-.949-1.026-3.867-.386-4.633-4.754-7.785-6.019-.213-.077-.511-.275-.534-.463-.551-3.9-4.555-4.913-6.51-7.7-1.921-2.735-4.648-4.888-6.944-7.363-4.35-4.689-8.718-9.365-12.923-14.184-1.725-1.975-4.234-3.111-5.424-5.721-1.121-2.481-2.979-4.637-4.175-7.095-.859-1.776-1.79-3.039-3.839-3.4a6.782,6.782,0,0,1-4.812-3.543,3.113,3.113,0,0,0-3.933-1.718c-4.222,1.244-4.54,1.008-5.195-3.417a33.411,33.411,0,0,1-4.237-2.713c-2.088-1.794-1.923-3.106.571-4.275a57.749,57.749,0,0,1,6.191-2.126c.509-1.067-.257-1.777-1.209-2.033a6.275,6.275,0,0,0-3.2-.162c-2.293.641-3.938.268-5.253-1.889-.835-1.366-2.186-1.311-3.447-.295-.939.743-1.753.822-2.218-.466.952-1.488,1.939-2.921,2.808-4.412,1.116-1.913.874-3.308-.745-4.839a4.677,4.677,0,0,0-1.154-.884c-1.843-.812-4.02-1.192-5.484-2.429-1.889-1.61-3.666-1.463-5.744-1.051a2.017,2.017,0,0,1-2.457-1.653c-.746-3-2.592-5.213-4.353-7.694-2.236-3.16-5.62-5.566-6.725-9.617-.422-1.529-1.925-2.748-2.849-4.162-1.448-2.226-2.966-4.417-4.193-6.761-1.057-2.013-1.826-3.857-4.037-5.271a7.444,7.444,0,0,1-3.337-6.433c.061-1.209,0-2.429.136-3.628a5.288,5.288,0,0,0-2.139-5.034c-1.278-1.1-1.88-2.969-2.785-4.5a31.425,31.425,0,0,1-2.334-3.957c-1.4-3.453-3.875-6.564-4.5-10.132-.476-2.71-1.183-4.857-3.223-6.514-1.183-.964-2.276-1.784-1.841-3.561.317-1.293-.576-1.875-1.494-2.592-.881-.689-2.1-1.8-2.049-2.648.18-2.849-1.7-4.774-2.782-6.972-2.1-4.288-2.3-4.191-1.162-7.923-5.854-.065-7.851-2.668-6.792-9.093,3.591.147,4.141,2.979,4.767,5.481.426.164.671.362.869.319,4.653-.983,3.779-.336,5.787,3.357,1.668,3.054,2.551,6.63,5.666,8.806.571.4.746,1.45.961,2.241.663,2.478.638,2.487,3.167,4.992.425-.673.813-1.288,1.414-2.2.424.64,1.164,1.286,1.044,1.642-.913,2.672.113,4.165,2.623,4.988.409.144.709.61.943.823.445,1.552-1.884,2.74-.254,4.146,1.753,1.516,2.367-1.034,4.026-1.245,1.188,1.645,2.37,3.394,3.681,5.041,1.19,1.493,2.5,2.887,3.794,4.294,2.532,2.753,5.365,5.188,8.1,7.718,2.146,1.99,3.6,4.8,6.144,6.52.884.6,1.821,1.115,2.651,1.764.629.484,1.468,1.042,1.648,1.718.768,2.838,2.859,4.4,5.16,5.8,1.461.9,2.869,1.673,2.889,3.792.016,2.206,2.321,1.669,3.638,2.453.237,1.944.6,3.6,2.692,4.7,1.131.6,1.83,2.51,2.178,3.97a5.42,5.42,0,0,0,2.862,3.893,23.2,23.2,0,0,1,3.038,2.566c1.586,1.262,3.2,2.486,4.818,3.705.388.285,1.059.38,1.226.732,1.28,2.709,3.843,3.792,6.286,4.869,2.8,1.239,2.848,3.995,3.753,6.194a3.731,3.731,0,0,0,2.658,2.607c.912.247,1.732.859,2.651,1.116,2.728.789,4.083,2.353,2.848,5.856a19.21,19.21,0,0,0,4.129-.409c2.542-.894,2.99-.91,4.632,1.018.709.833,1.363,1.7,2.021,2.581a3.32,3.32,0,0,1,.25.921,17.369,17.369,0,0,0-2.941.89c-1.239.648-2.249,1.686-1.635,3.231a2.38,2.38,0,0,0,3.293,1.385c1.1-.37,2.206-.755,3-1.021,2.406,1.455-.72,4.555,2.53,5.443.429-.659.861-1.34,1.432-2.227,4.692,3.016,7.985,7.438,12.047,11.752-1.551.067-2.772.118-3.962.165-.362,2.317.421,4.221,2.322,4.5,1.61.247,3.355-.391,5.427-.69-.421,1.409-.725,2.4-.948,3.132a40.022,40.022,0,0,0,4,4.7,6.2,6.2,0,0,0,3.317.9,20.161,20.161,0,0,0,3.327-.246c.069.246.133.5.2.746-.956.789-1.918,1.568-2.961,2.432.365.368.632.831.823.8,2.7-.4,4.365.555,5.095,3.313a8.519,8.519,0,0,0,1.9,3.456c.72.768,1.951,1.047,2.987,1.566-.655,3.5-.655,3.5,3.816,4.28-.1,1.247-.2,2.512-.321,4.036,2.276.242,3.4,1.607,4.285,3.668.93,2.144,2.56,3.995,4.047,6.209,2.414-.01,4.967.036,6.168,3.331.808,2.219,4.069,3.823.712,6.7a16.476,16.476,0,0,1,2.6,1.306c1.794,1.412,3.561,2.725,3.486,5.515a5.491,5.491,0,0,0,3.463,5.5c.524.222,1.319.733,1.327,1.124.041,2.939,2.975,3.92,4.162,6.4-1.46,2.152-.694,4.4.522,6.54a3.81,3.81,0,0,0,1.71,1.533c2.113.889,3.674,2.7,3.273,4.861-.5,2.727.516,4.411,2.676,5.779.588.365,1.322.987,1.4,1.578.422,3.075,2.656,5.093,4.2,7.5a8.94,8.94,0,0,1,1.856,5.375c-.026.586,0,1.581.295,1.715,3.329,1.465,2.782,5.319,4.8,7.626a17.824,17.824,0,0,1,2.668,5.132c1.249,3.1,2.705,5.975,5.97,7.559a12.885,12.885,0,0,0-.1,2.979,8.378,8.378,0,0,0,1.3,3.587c.81,1.018,1.527,1.858,1.155,3.2s.385,2.18,1.133,3.211c1.255,1.714,2.73,3.453,2.45,5.857a1.517,1.517,0,0,0,.108.719c.835,1.961,1.221,4.415,2.646,5.762,1.825,1.722,2.681,3.9,4.116,5.749a19.229,19.229,0,0,1,3.674,9.345,6.921,6.921,0,0,0,1.944,4.137,48.774,48.774,0,0,1,3.8,5.129c2.718-2.123,3.042-3.258,2.2-5.671a13.348,13.348,0,0,1-.753-3.8c-.216-4.466-.106-8.954-.535-13.4-.27-2.839-.5-5.685-.723-8.492-.27-3.263-1-6.564-1.047-9.921-.03-1.89-.347-3.785-.54-5.674q-.835-8.469-1.694-16.929c-.061-.6-.47-1.268-.3-1.772,1.146-3.327-.414-6.034-1.648-8.954a66.7,66.7,0,0,1-2.249-7.952c-.686-2.435-1.408-4.856-2.123-7.288-.067-.226-.3-.5-.232-.664,1.286-3.507-1.129-6.535-1.329-9.867a7.151,7.151,0,0,0-1.935-4.111,17.8,17.8,0,0,1-4.659-8.846,10.227,10.227,0,0,0-1.337-3.715c-3.776-5.433-5.738-11.729-8.607-17.595-2.494-5.1-5.283-10.055-7.893-15.1-1.713-3.309-3.29-6.687-5.014-9.99-1.223-2.344-2.591-4.612-3.874-6.923-2.908-5.227-5.677-10.543-8.761-15.662-1.527-2.543-3.656-4.723-5.476-7.106a19.88,19.88,0,0,1-1.277-2.142c-.705-1.232-1.393-2.468-2.118-3.684-.311-.511-.979-.951-1.006-1.45-.273-4.505-3.766-7.108-5.975-10.474a24.069,24.069,0,0,1-2.91-6.139c-.7-2.26-2.679-4.224-4.386-6.052-1.383-1.476-3.447-2.378-3.237-4.872-2.65-1.738-1.936-5.294-3.985-7.412-.522-.524-.555-1.538-.791-2.334-.165-.56-.128-1.473-.483-1.651-2.226-1.157-2.609-2.9-2.137-5.17a2.545,2.545,0,0,0-.874-1.8c-2.921-2.835-5.627-5.73-6.864-9.795-.326-1.044-1.846-1.727-3.023-2.758-.206-1.456.146-3.492-2.07-4.309a1.222,1.222,0,0,1-.578-.877c-.211-3.573-2.967-6.023-3.974-9.224a17.284,17.284,0,0,1-.264-3.944c-4.6-4.124-7.671-9.618-10.18-15.52a58.774,58.774,0,0,0-3.147-6.06c-1.848-3.247-3.8-6.43-5.661-9.667-2.872-5-5.594-10.091-8.625-14.994a54.219,54.219,0,0,0-5-6.08,9.94,9.94,0,0,1-1.412-1.609c-1.345-2.663-2.661-5.348-3.89-8.065-1.619-3.615-3.818-6.89-5.358-10.613-1.89-4.548-4.321-8.965-6.577-13.417a29.8,29.8,0,0,0-3.388-5.082c-2.26-2.825-4.5-5.618-5.046-9.347-.015-.115-.056-.288-.138-.322-3.925-1.967-3.415-6.646-5.882-9.6-2.457-2.936-4.28-6.409-6.28-9.716a12.28,12.28,0,0,1-1.29-3.322c-.769-3.074-1.749-5.735-4.468-7.98-2.411-1.982-3.741-5.262-5.7-7.842a33.578,33.578,0,0,1-5.407-10.746,86.4,86.4,0,0,0-4.16-11.381,30.438,30.438,0,0,0-2.034-3.375c-.494-.787-1.4-1.5-1.5-2.322a3.144,3.144,0,0,0-2.075-2.64,3.72,3.72,0,0,1-1.784-2.146,8.368,8.368,0,0,0-2.362-4.758c-.331-.3-.1-1.542.218-2.162.293-.545,1.087-.833,1.91-1.411-1.858-1.568-5.5-1.263-4.733-5.309,1.974.437,3.933.8,5.862,1.3,1.267.329,1.558,1.318,1.457,2.565-.167,2.142.843,3.463,2.731,4.589a16.34,16.34,0,0,1,4.011,3.949,38.943,38.943,0,0,1,3.7,5.3c1.255,2.183,2.689,4.4,3.257,6.79,1.095,4.6,4.363,7.294,7.538,10.281,2.853,2.694,5.888,5.195,7.924,8.744,1.4,2.455,3.183,4.911,6.14,5.8.72,3.216,1.172,6.517,4.882,7.8a1.728,1.728,0,0,1,.918.56,69.331,69.331,0,0,1,4.226,7.024,41.635,41.635,0,0,0,9.71,13.762,11.25,11.25,0,0,1,1.282,1.723c.99,1.3,1.983,2.592,3.33,4.352-.519,2.213,1.041,3.537,3.443,4.861a30.5,30.5,0,0,1,12,12.156,7.844,7.844,0,0,0,3.077,2.876c1.836.975,3.239,2.031,3.537,4.235a3.4,3.4,0,0,0,.838,1.979c2.8,2.432,3.132,6.1,4.749,9.121a4.848,4.848,0,0,0,1.3,1.669c3.252,2.332,5.257,5.586,7.14,9a14.188,14.188,0,0,0,2.908,3.64c2.18,1.959,4.222,3.962,5.139,6.854a2.419,2.419,0,0,0,.653,1.278c2.99,1.911,3.452,5.5,5.42,8.085,2.039,2.676,3.923,5.468,5.8,8.26a17.935,17.935,0,0,1,1.666,3.2c1.169,2.815,2.265,5.627,5.026,7.363a4.4,4.4,0,0,1,1.306,1.7c3.055,6.006,6.037,12.045,9.134,18.019a24.616,24.616,0,0,0,2.447,3.064,12.584,12.584,0,0,1,1.239,2.054c.255.539.236,1.226.553,1.7,2.229,3.253,4.7,6.365,6.72,9.729a66.157,66.157,0,0,1,3.524,7.9c.375.869.419,2.24,1.043,2.589,2.655,1.457,2.857,4.122,3.4,6.5.47,2.006,1.043,3.543,2.951,4.674.985.576,1.586,2.011,2.069,3.173a11.407,11.407,0,0,1,.768,3.537,7.853,7.853,0,0,0,3.813,6.271c1.736,1.106,2.365,2.349,1.63,4.229a3.705,3.705,0,0,0,.964,4.288,7.734,7.734,0,0,1,1.537,2.841c.445,1.337.334,2.983,2.286,3.24,1.717,3.668,4.992,6.617,5.252,10.973a4.739,4.739,0,0,0,2.07,3.99c2.062,1.419,2.3,3.885,3.1,6.019a36.649,36.649,0,0,0,1.633,3.509c.26.53.844,1.026.841,1.543a14.682,14.682,0,0,0,2.614,8.515c1.224,1.782-.578,3.12-.846,4.916,1.028.4,1.987.763,3.146,1.214.039.1.169.411.3.72.316.759.43,1.907,1,2.2,2.633,1.388,3.209,4.119,4.532,6.366a20.125,20.125,0,0,0,2.232,3.245c.507.558,1.656,1.254,2.042,1.042a3.433,3.433,0,0,0,1.519-2.2,28.212,28.212,0,0,0,.4-5.777,49.489,49.489,0,0,1,.412-7.443c.388-3.535,1.759-7.425-.545-10.975a2.4,2.4,0,0,1-.188-2.061c1.717-2.777,1.155-5.915,1.412-8.878.435-5.016,1.5-10.026.694-15.138-.177-1.121.4-2.353.624-3.538.524-2.7,1.563-5.357.129-8.152-.4-.781-.11-1.9-.182-2.857a116.282,116.282,0,0,0-2.831-16.1c-.771-3.406-1.267-6.969-3.772-9.875-1.18-1.363-1.484-3.474-2.247-5.216-1.247-2.869-2.681-5.666-3.772-8.6a70.478,70.478,0,0,1-1.867-6.96c-.509-1.967-.951-3.965-1.535-5.911a7.5,7.5,0,0,0-1.17-1.769c-.407-.6-1.28-1.371-1.129-1.743,1.185-3-1.73-4.789-2.034-7.319a2.52,2.52,0,0,0-.916-1.506c-3.322-2.532-5.082-5.965-6.118-9.926a11.045,11.045,0,0,0-1.8-3.542,10.074,10.074,0,0,1-2.219-5.252,6.411,6.411,0,0,0-1.484-2.777c-.409-.576-1.3-.884-1.548-1.494a40.405,40.405,0,0,0-5.3-8.7c-2.746-3.751-4.712-8.054-7.16-12.031a7.524,7.524,0,0,1-1.471-3.954,5.308,5.308,0,0,0-1.432-3.533c-4.386-3.915-6.8-9-9.193-14.179-1-2.162-2.679-3.993-3.893-6.065-1.766-3-3.7-5.946-4.186-9.53a4.933,4.933,0,0,0-1-1.849c-.27-.391-.812-.651-.967-1.069-2.311-6.163-7.032-10.9-9.808-16.8q-3.066-6.54-6.347-12.968c-.92-1.807-2.116-3.461-3.2-5.183-.187-.3-.583-.542-.642-.862-.835-4.461-3.836-7.893-5.646-11.9-2.781-6.157-6.086-12.073-7.481-18.791a14.8,14.8,0,0,0-2.069-5c-2.781-4.237-2.666-9.481-5.055-13.831.934-4.89-3.44-8.342-3.506-13.075-.026-2.021-1.651-3.977-2.3-6.039-1.211-3.8-1.745-7.883-3.478-11.407a76.132,76.132,0,0,1-3.8-10.445,30.884,30.884,0,0,1-1.8-10.947c.095-2.3.128-4.92-2.095-6.69a2.984,2.984,0,0,1-.876-1.545c-.939-3.614-1.741-7.265-2.738-10.864-.705-2.56-1.7-5.042-2.479-7.592-.845-2.776-1.606-5.576-2.37-8.388a3.262,3.262,0,0,1-.151-1.764,13.1,13.1,0,0,0,.463-6.443c-.223-1.435-.025-1.473,2.229-2.11.352.956.705,1.925,1.133,3.106.7-.242,1.514-.277,1.7-.633a2.427,2.427,0,0,1,2.817-1.535c1.841.206,2.677-1.38,3.291-2.879a3.314,3.314,0,0,0-.548-3.714c-1.152-1.347-2.15-2.838-3.2-4.283s-2.72-1.4-3.887.2c-.426.581-.614,1.329-1.011,1.933a9.644,9.644,0,0,1-1.2,1.265c-.462-.3-.956-.452-1-.694-.55-2.938-1.036-5.882-1.548-8.829a15.06,15.06,0,0,0-.563-2.831,7.761,7.761,0,0,1,.092-6.325c.412-.946.3-2.114.628-3.121a1.777,1.777,0,0,1,1.18-1.092c.437-.054,1.316.458,1.35.794a4.042,4.042,0,0,0,2.592,3.234c.208.1.511.337.5.494-.154,3.056,2.507,4.944,3.165,7.592a7.309,7.309,0,0,0,2.27,3.908,12.147,12.147,0,0,1,3.394,4.983,47.062,47.062,0,0,0,7.083,13.379c1.175,1.659,1.661,3.852,2.952,5.378,2.718,3.213,3.936,7.44,7.19,10.266a3.321,3.321,0,0,1,.671,1.268c1.095,2.687,2.02,5.486,5.352,6.828a22.919,22.919,0,0,0-2.16,2.452,19.91,19.91,0,0,0-1.2,3.028,16.052,16.052,0,0,1,2.959-.951,6.31,6.31,0,0,1,1.913.471,6.755,6.755,0,0,1-.959,2.038c-.434.452-1.245.539-1.962.815.668,1.408,1.769,1.324,2.838,1.252,3.412-.236,5.283,1.6,6.6,4.532a36.741,36.741,0,0,0,3.224,5.206,11.406,11.406,0,0,1,2.342,7.851c2.224.458,4.136,1.817,4.453,4.037.29,1.975,2.89,3.746-.046,6.379,2.416.52,4.145.889,6.172,1.326-.381.987-.648,1.751-.969,2.489-.818,1.89-1.108,3.676.426,5.427a3.945,3.945,0,0,1,1,2.262c.1,2.553,1.34,4.432,2.694,6.525a14.776,14.776,0,0,0,5.6,5.419c1.142.591,1.99,1.421,1.781,2.858a4.215,4.215,0,0,0,2.977,5.042c1.115,3.075,2.1,5.764,3.082,8.458a11.7,11.7,0,0,1,.892,2.372,8.27,8.27,0,0,0,4.663,6.486,2.511,2.511,0,0,1,1.3,3.056c-.607,3.137.81,5.594,2.723,7.874.154.183.484.326.5.507a8.543,8.543,0,0,0,4.365,6.836c.807.5.591,1.834-.632,2.3a9.669,9.669,0,0,1-1.754.334c.11,1,0,1.588.234,1.911A24.853,24.853,0,0,1,224,599.635a6.645,6.645,0,0,0,1.691,2.764,13.5,13.5,0,0,1,3.046,8.743,6.82,6.82,0,0,0,1.37,3.548c1.686,2.876,2.851,6.042,4.281,9.068a57.25,57.25,0,0,0,3.4,6.7,26.507,26.507,0,0,1,3.492,9.086,10.321,10.321,0,0,0,.329,1.774c1.434,3.535,3.01,7.011,4.355,10.576.715,1.9.944,3.966,1.579,5.9,1.242,3.785,3.245,7.445,3.772,11.31.6,4.407,2.51,8,4.527,11.715.9,1.655,1.3,3.558,2.031,5.311,1.193,2.864,2.727,5.62,3.658,8.567,1.782,5.633,3.47,11.291,2.712,17.4-.3,2.414,1.093,4.913.044,7.44a1.666,1.666,0,0,0,.363,1.365c2.8,3.247,2.186,7.379,2.975,11.148.228,1.049.7,2.056.9,3.116.29,1.5.457,3.026.637,4.538s-.016,3.177.507,4.563a31.029,31.029,0,0,0,5.967,9.767c1.732-.735,2.5-1.723,1.808-3.239a4.273,4.273,0,0,1,.486-4.448,2.064,2.064,0,0,0,.435-1.347c-.759-2.949.38-5.689.664-8.532a21.546,21.546,0,0,1,1.754-5.708c.941-2.545,1.118-5.368,1.727-8.055a18.839,18.839,0,0,1,1.326-4.1,30.746,30.746,0,0,0,3.373-12.15,13.575,13.575,0,0,1,1.278-4.494,23.154,23.154,0,0,0,2.124-8.751,49.388,49.388,0,0,1,1.085-7.87,14.626,14.626,0,0,0-.61-7.847,16.047,16.047,0,0,1-.478-3.455,8.672,8.672,0,0,0-.347-2.786,6.113,6.113,0,0,1,.177-5.9c.345-.7.676-1.879.336-2.373-2.006-2.928-.787-6.088-.908-9.142a6.894,6.894,0,0,0,.023-1.786c-2.234-6.708-.849-13.728-1.869-20.544-.462-3.059.381-6.311-.1-9.36-.642-4.01-2.052-7.892-3.029-11.859a12.32,12.32,0,0,1,.034-2.794c-.006-1.92.363-3.956-.165-5.72a13.6,13.6,0,0,1-.247-5.671,20.283,20.283,0,0,0-.337-6.1c-1-4.939-2.366-9.813-3.36-14.759-1.085-5.437-1.857-10.926-2.892-16.376a122.123,122.123,0,0,0-2.74-12.359c-.956-3.208-2.591-6.206-3.911-9.309-.237-.553-.74-1.242-.576-1.666,1.051-2.82,0-5.448-.579-8.113a27.848,27.848,0,0,0-.92-3.028c-.254-.784-.913-1.645-.748-2.317.47-1.913.494-3.476-1.172-4.918-.448-.4-.309-1.607-.226-2.422a15.242,15.242,0,0,0-1.383-8.437c-1.2-2.563-1.172-5.663-2.093-8.389-1.27-3.738-1.912-7.635-3.841-11.232-1.373-2.566-1.5-5.825-2.137-8.782a43.569,43.569,0,0,0-1.137-5.6c-.617-1.727-.848-3.227.54-4.743-.794-.935-1.479-1.738-2.129-2.507-.029-.18-.1-.321-.057-.417,2.1-4.6-2.825-7.954-2.226-12.319.07-.543-.9-1.162-1.087-1.831-.409-1.471-.633-2.985-.923-4.484-.15-.805-.308-1.609-.421-2.417-.167-1.149-.3-2.3-.429-3.442-.286-2.655.445-5.468-1.543-7.829a3.659,3.659,0,0,1-.494-2.388c.164-2.28.519-4.545.743-6.811.337-3.43.317-3.429-2.861-4.848a5.616,5.616,0,0,1-.913-.573c-.092-.061-.141-.193-.367-.543.355-1.735,1.1-3.772-.326-5.635.887-3.137-.174-5.934-1.391-8.777-.45-1.054-.018-2.486-.461-3.54-1.02-2.4-1.3-4.576.259-6.877a3.081,3.081,0,0,0-.372-4.036c-1.329-1.417-1.327-3.051-1.666-4.849-.732-3.934.54-8.315-2.3-11.813a1.16,1.16,0,0,1-.247-.682c0-4.06-.162-8.135.118-12.179.128-1.838.766-3.445-.954-4.951a2.528,2.528,0,0,1-.548-3.571c.941-1.421-.043-2.791-1.047-3.476-1.954-1.334-1.859-3.115-1.985-5.1-.278-4.55-.8-9.083-1.229-13.63-.023-.244-.2-.522-.126-.709,1.805-4.276-.827-8.479-.228-12.759a21.615,21.615,0,0,0-.239-4.176c-.714-.382-1.524-.818-2.573-1.375.866-1.192,1.671-2.3,2.589-3.538-.841-1.006-1.584-1.9-2.365-2.831.6-2,1.409-3.941-.154-5.879a2.837,2.837,0,0,1-.08-2.085A5.767,5.767,0,0,0,227.568,289c2.489-.568,2.7-2.121,2.031-3.933a3.259,3.259,0,0,1,.98-3.871c1.065-1.064,1.486-2.748,2.417-3.985,1.309-1.728,2.036-1.72,3.91-.44,1,.673,2.016,1.313,3.131,2.044.139,5.33,3.021,9.705,5.271,14.314a12.026,12.026,0,0,1,1.46,3.276c.322,2.245.867,4.026,2.98,5.438,1.272.838,1.966,2.717,2.632,4.255.956,2.195,1.645,4.514,2.463,6.771,2,5.515,3.956,11.047,6.028,16.533.874,2.336,1.026,4.956,2.84,6.952a2.145,2.145,0,0,1,.047,2.033c-1.144,1.759-.363,3.108.421,4.708a70.843,70.843,0,0,1,4.569,10.626c.807,2.682.73,5.677.787,8.536.044,2.378.088,4.6,2.347,6.08a2.192,2.192,0,0,1,.838,1.131c.858,3.368,1.651,6.746,2.471,10.125a19.687,19.687,0,0,0,.576,2.092,29.882,29.882,0,0,1,1.884,12.039,5.628,5.628,0,0,0,1.344,3.551,7.42,7.42,0,0,1,1.587,7.447,3.2,3.2,0,0,0,.383,3.394,2.354,2.354,0,0,1,.547,1.944c-1.013,2.173.162,3.931.642,5.916a39.456,39.456,0,0,1,1.023,8.553c.021,1.558-.27,2.849,1.52,3.556a2.114,2.114,0,0,1,1.2,1.216c.655,3.252,2.209,6.24,2.448,9.62.226,3.119.583,6.237,2.717,8.882a3.956,3.956,0,0,1,.435,3.074,7.172,7.172,0,0,0,.47,4.933,3.157,3.157,0,0,1,.252,2.059,2.37,2.37,0,0,0,1.1,2.8c1.239,1,2.065,2.456,1.43,3.828-.928,2.021-.247,4-.442,5.977a4.488,4.488,0,0,0,.705,3.041c1.568,1.911,1.506,3.7.493,5.067a74.577,74.577,0,0,1,2.381,7.108c1.07,4.838,1.938,9.72,2.8,14.6a7.206,7.206,0,0,1-.178,2.792,21.032,21.032,0,0,0,.393,12.032c1.042,3.013.484,6.661.267,10-.113,1.679-.35,3.093,1.19,4.2a1.957,1.957,0,0,1,.856,1.121c.281,3.036.46,6.083.7,9.124.223,2.872.535,5.74.7,8.618a9.8,9.8,0,0,1-.241,4.2c-1.031,2.406-2.592,4.576-3.789,6.918a6.362,6.362,0,0,0-.735,3,13.872,13.872,0,0,0,.853,4.231,9.367,9.367,0,0,0,1.885,2.532c.73.851,1.54,1.64,2.5,2.658-2.391,1.7-4.11,3.339-3.519,6.178.075.357-.332.923-.666,1.226-1.563,1.419-1.116,2.664.106,4.062a3.034,3.034,0,0,1,.836,2.242c-.992,3.889.069,7.684.406,11.489.167,2-.133,3.334-2.182,3.781a41.809,41.809,0,0,0-.628,15.836,11.427,11.427,0,0,1-.308,2.494c-.09,1.174-.129,2.353-.128,3.535,0,.465.4,1.049.229,1.383-1.718,3.391-.231,5.782,2.373,7.676-.466,2.532-.9,4.87-1.4,7.61-.678.173-1.7.391-2.7.691A2.711,2.711,0,0,0,295.4,642.9c.087,1.388.35,2.9,1.959,3.085,2.843.329,3.509,2.186,3.725,4.537a7.248,7.248,0,0,0,.134.723c.259,1.2.512,2.673,1.984,2.635a3.888,3.888,0,0,0,2.558-1.614,43.131,43.131,0,0,0,4.964-8.283c2.764-6.425,6.306-12.523,9.608-18.714,3.348-6.288,6.554-12.677,10.253-18.76a58.519,58.519,0,0,0,7.032-17.785c.792-3.551,1.358-6.854,4.213-9.463,1.4-1.277,1.265-3.311.939-5.172-.277-1.61-.249-3.136,1.4-4.175.468-.291,1.038-.962,1.008-1.422-.2-2.83,1.822-5.488.525-8.43a4.119,4.119,0,0,1-.178-3.152c1.372-2.455,1.309-5.137,1.635-7.751.352-2.884.331-5.82,2.159-8.33a2.177,2.177,0,0,0,.316-1.723c-1.578-4.605.01-9.288-.4-13.952-.4-4.64.453-9.389.856-14.088.155-1.874.3-3.622-1.332-5-.349-.29-.759-.861-.694-1.227.439-2.438-.977-4.713-.9-6.839.1-2.519-.633-4.741-.872-7.116-.66-6.586-1.358-13.181-2.044-19.778,1.655-4.6-1.432-8.581-1.733-12.952-.313-4.409-1.661-8.736-.589-13.256a9.675,9.675,0,0,0-.406-4.306c-.674-2.779-1.781-5.469-2.268-8.27a78.077,78.077,0,0,1-.466-7.949,56.5,56.5,0,0,0-.614-5.692c-.57-3.19-1.316-6.35-1.91-9.535-.119-.658-.173-1.73.2-2.031,1.637-1.3,1.039-2.864.155-3.844-2.352-2.612-1.139-5.5-.9-8.217s1.043-5.339-.088-8.067a9.138,9.138,0,0,1-.195-2.856c-.034-.6.146-1.475-.175-1.743-2.131-1.774-1.725-4.006-1.463-6.33a11.143,11.143,0,0,0-.561-2.818c-.118-.7-.484-1.71-.162-2.064,2.673-2.913.959-5.916.308-8.88-.7-3.187-1.46-6.358-2.247-9.52a6.582,6.582,0,0,1,.47-4.159c.961-2.488,1.673-4.933.4-7.944-1.221-2.874-1.118-6.388-1.221-9.627-.07-2,.748-4.016.82-6.031a7.187,7.187,0,0,0-1.07-3.3c-.871-1.656-1.54-3.28-.925-5.19.365-1.123.329-2.417,2.083-2.555.44-.028,1.2-1.276,1.092-1.8a3.492,3.492,0,0,0-1.586-2.118c-.871-.442-2.016-.354-3.458-.555,1.813-3.057-.808-6.7,2.736-9.049-.81-.957-1.385-1.645-2.118-2.509.926-2.131,1.448-4.422.121-6.779a2.434,2.434,0,0,1,.013-1.759c.543-1.633,1.187-3.208-.29-4.745-.239-.245-.182-.951-.034-1.353a11.661,11.661,0,0,0-.334-9.461c-.984-2.067.943-3.023,1.653-4.52-.43-1.385-.938-2.753-1.268-4.162-1.079-4.641-1.516-9.263.535-13.824a2.5,2.5,0,0,0-.434-2.26c-2.492-2.429-1.892-5.625-1.995-8.479-.126-3.537-.268-7.085-.355-10.615-.136-5.782-2.517-11.4-1.173-17.272a1.991,1.991,0,0,0-.16-1.411c-1.522-2.229-.812-4.633-.746-7.026a44.589,44.589,0,0,0-.537-4.538,19.35,19.35,0,0,1-.057-4.239c.178-1.262.4-2.366-.658-3.34-1.473-1.354-.835-2.537.308-3.721,1.049-1.082,2.641-1.938,1.933-4.1l-2.836-1.337c-.087-3.052-1.934-5.817-.956-8.9a14.2,14.2,0,0,1,1.237-2.367c.666.416,1.365.787,1.988,1.246a12.621,12.621,0,0,1,3.27,4.131c.807,1.411,1.34,2.409.257,3.907a2.787,2.787,0,0,0,.149,2.326c.771,1.494,1.825,2.846,2.694,4.288.537.907,1.406,1.923,1.342,2.838-.252,3.643,1.748,5.3,4.687,6.1.668,1.3,1.322,2.417,1.833,3.6.869,1.975,2.083,3.936,2.324,6,.259,2.17.393,3.9,3.6,3.922-2.9,3.653-1.473,6.358.4,9.211,1.029,1.573,1.363,3.594,2,5.424a15.985,15.985,0,0,0,1.227,3.4c2.265,3.5,1.92,7.654,2.993,11.446a2.5,2.5,0,0,1-.444,2.028c-1.319,1.442-.866,2.954-.4,4.45a20.077,20.077,0,0,0,5.538,9.371,4.668,4.668,0,0,1-.154.926c-.429.921-.884,1.833-1.327,2.743,1.188.219,2.373.447,3.99.75.835.735.414,1.993-.244,2.962-1.131,1.687-.664,3.047.115,4.7a14.879,14.879,0,0,1,.863,4.523c.406,3.36,1.077,6.648,3.077,9.432.622.864,1.874,1.267,2.8,1.857-.686,1.221-1.475,2.4-2.044,3.674-.63,1.4-.809,2.828.833,3.808.3.178.738.471.764.743.365,3.872,3.725,6.825,3.365,10.911-2.175.527-2.175.527-1.632,3.041.676-1.357,1.126-2.26,1.578-3.159M252.392,877.956c.172-.9.293-1.768-1.322-1.57.481.5.967,1.012,1.448,1.52-.065,1.393-.509,2.929-.09,4.163.573,1.687,1.664,3.128,1.4,5.106a1.373,1.373,0,0,0,1.844,1.563,2.886,2.886,0,0,0,1.247-2.172c.082-1.036-.493-2.1-.558-3.165-.162-2.7-1.352-4.581-3.974-5.446M520.446,509.8a46.031,46.031,0,0,1-6.4-1.186c-2.137-.75-4.083-2.033-6.181-2.944-3.447-1.483-6.982-2.774-9.756-5.476a5.017,5.017,0,0,0-4.679-1.358c-2.309.4-4.447-.252-6.7-1-3.622-1.208-7.371-2.432-11.358-1.29a3.382,3.382,0,0,1-2.368-.466c-2.553-1.483-5.293-1.355-8.081-1.352-4.923.01-9.824.624-14.775-.231-3.908-.663-7.937-.938-11.872.321a8.919,8.919,0,0,1-3.506.8,9.406,9.406,0,0,0-6.24,1.2,4.17,4.17,0,0,1-3.347-.236c-3.092-1.561-6.8-1.406-9.144,1.208a11.113,11.113,0,0,1-9.266,3.9,6.3,6.3,0,0,0-4.083,1.2,64.075,64.075,0,0,0-6.3,6.787,44.815,44.815,0,0,0-2.533,3.949c-2.484,3.7-5.885,6.8-7.191,11.266-.146.507-.81.849-1.191,1.308a18.249,18.249,0,0,0-2.6,3.311c-2.049,4.216-3.5,8.756-7.533,11.726a4.319,4.319,0,0,0-1.232,2.561c-.586,3.265-2.494,5.8-4.55,8.16a35.57,35.57,0,0,0-6.085,10.178,42.91,42.91,0,0,1-5.042,8.762c-1.925,2.679-3.815,5.255-4.564,8.561-.254,1.128-.805,2.6-1.684,3.093-3.309,1.876-4.393,5.391-6.36,8.2-1.807,2.579-3.843,5.306-2.907,9.036.221.907-.923,2.386-1.756,3.3-3.229,3.551-3.164,8.011-4.19,12.583,3.185-.5,4.913-1.53,6.291-4.188a22.417,22.417,0,0,1,6.774-8.283c2.335-1.56,4.126-2.936,5.234-5.514.975-2.257,1.876-2.327,4.263-1.118a6.561,6.561,0,0,0,1.63.139c-1.884-4.438,1.638-5.805,4.013-7.952,1.952-1.759,3.664-3.781,5.51-5.659.579-.593,1.185-1.406,1.9-1.571,3.73-.836,5.623-3.558,7.093-6.689.728-1.566,1.64-2.658,3.514-2.607,2.01.047,3.386-1.088,4.592-2.542a6.2,6.2,0,0,1,1.74-1.789c3.792-1.875,6.411-5.384,10.325-7.172,1.565-.72,2.6-1.514,4.167-.321a1.442,1.442,0,0,0,2.448-.589c-.913-.73-1.8-1.442-2.759-2.208.754-1.725,2.019-2.062,3.586-2.119a5.168,5.168,0,0,0,2.659-.789,44.63,44.63,0,0,1,13.777-6.78,9.751,9.751,0,0,0,3.748-2.079,8.1,8.1,0,0,1,4.545-1.975c2.484-.352,5.476-.293,7.257-1.687,2.569-1.993,5.235-2.3,8.106-2.543a5.81,5.81,0,0,0,4.221-1.733c1.483-1.645,3.447-1.619,5.4-1.115a25.017,25.017,0,0,1,2.9,1.1c.538-.342.866-.5,1.146-.717,3.111-2.486,6.162-4.708,10.556-4.816,3.776-.1,7.306-2.419,11.278-2.025a1.249,1.249,0,0,0,.668-.258c3.149-2.059,6.82-2.378,10.358-3.029,5.542-1.026,10.962-2.9,16.726-2.537a5.792,5.792,0,0,0,2.843-.525c3.484-1.779,7.276-2.056,11.047-2.571a3.329,3.329,0,0,0,2.353-1.732c.273-.812-.268-2.024-.754-2.905-.311-.563-1.175-.8-1.758-1.227-2.088-1.534-3.985-3.208-3.918-5.749m-36.052-89.051c3.093,1.352,5.142,1.818,6.839.434,3.836-3.116,9.487-2.249,12.877-6.185.3-.358,1.155-.214,1.736-.376a27.774,27.774,0,0,0,3.09-1c2-.835,3.992-1.7,5.931-2.654a70.357,70.357,0,0,0,7.314-3.89c3.723-2.429,7.361-4.874,11.728-6.168a86.1,86.1,0,0,0,12.114-4.576,23.809,23.809,0,0,1,8.543-2.655,32.65,32.65,0,0,0,5.384-.551c2.805-.669,5.53-1.671,8.3-2.475,2.3-.668,4.605-1.637,6.957-1.789a20.943,20.943,0,0,0,9.854-3.311c3.794-2.34,8.147-3.164,12.366-3.91,2.313-.408,4.685-.5,6.962-1.324,2.151-.781,4.383-1.316,6.551-2.059a20.433,20.433,0,0,0,4.589-1.93c2.524-1.635,4.975-2.51,7.79-.591,1.921-2.54,4.55-3.157,7.427-3.177a14.5,14.5,0,0,0,2.89-.082c2.483-.525,4.525-.111,5.664,2.309,4.273-1.745,4.883-3.414,2.445-6.792a4.288,4.288,0,0,0-2.65-1.574,14.958,14.958,0,0,0-5.394.106,14.248,14.248,0,0,1-9.243-.615c-1.687-.707-3.3-.8-4.654.715a2.559,2.559,0,0,1-3.3.648c-2.17-1.183-4.18-.689-6.262.169-2.175.9-4.172.917-5.949-1.067-.545-.6-1.713-.709-2.623-.885-2.8-.537-5.417.24-8.109.97-4.505,1.226-9.143,1.957-13.664,3.119-1.7.439-3.219,1.552-4.864,2.257-.862.367-1.912.913-2.689.7-1.483-.419-2.7-.759-3.938.537-.308.318-1.165.195-1.746.136-1.805-.183-3.6-.427-5.4-.656-2.36-.285-3.581.349-4.8,2.373a32.293,32.293,0,0,1-2.038,2.934,15.76,15.76,0,0,1-5.592,4.4c-3.61,1.859-5.957,5.831-10.405,6.515-.424.064-.864.838-1.072,1.378-.581,1.489-1.73,1.872-3.173,1.911a12.956,12.956,0,0,0-9.509,4.42,9.165,9.165,0,0,1-2.1,1.373q-2.762,1.682-5.535,3.317c-1.547.917-3.057,1.905-4.676,2.658-1.291.6-2.772.779-4.067,1.349-2.992,1.327-5.8,3.195-8.906,4.052a18.139,18.139,0,0,0-8.067,5.15,14.219,14.219,0,0,1-2.2,1.229,12.093,12.093,0,0,0-4.718,5.139M815.01,345.166c-1.769-.736-3.262-1.357-4.761-1.975-3.573-1.481-7-3.352-10.99-3.594a7.443,7.443,0,0,1-2.357-.9,24.983,24.983,0,0,0-11.623-2.224,8.591,8.591,0,0,1-2.451-.443c-2.318-.578-4.614-1.308-6.954-1.751-2.7-.512-5.428-.81-8.148-1.162-1.3-.174-2.614-.228-3.924-.373-1.556-.168-3.142-.692-4.663-.525-3.074.345-6.006.385-8.841-1.108a3.823,3.823,0,0,0-2.136-.214c-6.944.944-13.75-.558-20.582-1.254-2.407-.247-5.108-.059-7.252-1.933-.439-.376-1.841-.047-2.545.386a8.245,8.245,0,0,0-1.764,2.116c-3.686-.97-4.33-.9-8.016.664-1.118.47-2.285.817-3.414,1.242a2.778,2.778,0,0,1-3.566-.856c-1.159-1.51-2.491-1.777-4.046-.5a4.247,4.247,0,0,1-1.591.817c-4.974,1.3-9.945,2.618-14.945,3.8a22.066,22.066,0,0,1-4.648.44,7.094,7.094,0,0,0-5.83,2.473c.543.435.861.887,1.255.969,2.707.615,5.411,1.295,8.155,1.637a10.885,10.885,0,0,0,4.154-.594c2.416-.689,4.649-1.584,7.371-1.388,2.851.191,5.748-.373,8.563.69.375.137.918-.222,1.384-.254,1.54-.072,3.082-.118,4.625-.151,3.421-.073,6.941.944,10.178-1.25.728-.5,2.031-.321,3.046-.2,4.055.488,8.271,2.059,12.109,1.393,5.985-1.042,11.7,1.62,17.578.311,1.15-.267,2.525.728,3.825.882a25.381,25.381,0,0,0,3.808-.09c1.041-.036,2.085-.157,3.118-.1,2.026.116,4.039.4,6.06.483,1.681.069,3.384-.206,5.059-.072,3.239.255,6.473.635,9.7,1.056s6.456.769,9.6,1.486c2.545.574,4.969,1.643,7.51,2.348,4.368,1.208,8.782,1.26,13.168,1.82a4.69,4.69,0,0,0,4.782-2.11M380.3,811.651c2.535-.038,4.852-.159,6.913-1.358,3.533-2.06,7.009-4.237,10.492-6.4,4.81-2.993,9.659-5.952,14.389-9.067a60.263,60.263,0,0,0,5.546-4.509c2.221-1.866,4.293-3.923,6.632-5.613,4.4-3.178,8.982-6.1,13.408-9.242a7.014,7.014,0,0,0,3.291-5.322c-4.1,1.8-7.769,3.417-11.451,5.018-1.866.817-3.97,1.291-5.584,2.455-2.27,1.619-3.745,4.384-7.078,4.37-.45,0-.879.761-1.365,1.115-2.687,1.942-4.708,4.679-8.279,5.589-2.046.519-3.892,2.345-5.509,3.908-1.052,1.011-1.925,1.725-3.407,1.5a2.482,2.482,0,0,0-2.849,1.735c-1.493,3.756-4.911,5.37-7.991,7.42a18,18,0,0,0-3.628,3.312c-1.191,1.414-2.123,3.036-3.528,5.09M357.835,544.319a33.6,33.6,0,0,0-1.893,4.412c-.131.48.466,1.355.969,1.723.309.229,1.234,0,1.605-.327,1.619-1.44,3.157-2.9,3.633-5.247.556-2.805,1.961-5.414,1.636-8.428-.079-.735.581-1.542.876-2.329.386-1,.807-1.993,1.106-3.016,1.165-4.021,2.363-8.034,3.407-12.088a9.163,9.163,0,0,0,.3-4.209,7.824,7.824,0,0,1,.949-6.209,7.118,7.118,0,0,0,.383-6.664c-1.949-4.232-1.026-7.834,1.646-11.381a6.589,6.589,0,0,0,1.111-3.723c.008-.719-1.2-1.373-1.6-2.193a13.1,13.1,0,0,1-.833-2.954,14.265,14.265,0,0,1-.154-1.9,2.737,2.737,0,0,0-1.445,1.9c-.84,3.853-1.3,7.834-2.546,11.551-.876,2.6-1.134,4.854.273,7.17.812,1.337.628,2.4-.746,2.959-1.612.655-2.052,1.846-2.237,3.384-.566,4.9-2.965,9.453-2.641,14.546a8.267,8.267,0,0,1-.966,3.463,19.346,19.346,0,0,0-1.772,9.5,3.382,3.382,0,0,1-.558,2.362,5.647,5.647,0,0,0-.506,7.7m-208.4,398.673c-.1.108-.2.219-.293.336a15.967,15.967,0,0,0-2.095-.573c-2.157-.29-2.979.679-2.332,2.7,1.417,4.417,4.047,7.378,9.014,7.774.771.062,2.039.977,2.093,1.579.281,3.087,2.867,4.682,4.168,7.083,1.164,2.142,3.237,2.376,5.307,2.429a2.03,2.03,0,0,0,2.064-2.7c-1.054-2.948-2.368-5.777-5.016-7.777-2.195-1.656-4.257-3.5-6.363-5.278-2.191-1.848-4.361-3.717-6.548-5.576m47.044-182.813c-2.525-1.532-1.745-3.686-2.34-5.35-1.54-4.291-3.748-8.342-5.587-12.525-1.542-3.514-5.483-5.08-6.841-8.8-.45-1.219-2.679-1.031-3.817.129-1.18,1.195-.584,2.37.493,3.054a4.678,4.678,0,0,1,2.36,4.176,8.189,8.189,0,0,0,1.216,2.933c.36.746,1.11,1.425,1.162,2.177a3.772,3.772,0,0,0,2.731,3.471,3.841,3.841,0,0,1,2.389,3.291,27.573,27.573,0,0,0,2.141,6.054c.7,1.525,3.046,2.088,6.093,1.388m173.188-337.22c2.052-.684,3.157-1.524,2.132-3.756a7.712,7.712,0,0,1-.254-2.81c-.039-.956.072-1.917-.051-2.853-.244-1.892-.579-3.771-.933-5.633-.561-2.982-.882-6.122-4.119-7.7-2.776,4.2-1.083,16.276,3.224,22.755M357.426,932.074a3.682,3.682,0,0,1-1.151.573c-2.764.352-4.132,1.879-4.83,4.6a7.753,7.753,0,0,1-2.843,3.921A7.287,7.287,0,0,0,345.8,945.6a1.76,1.76,0,0,0,.517,1.55,2.077,2.077,0,0,0,1.645-.006,2.835,2.835,0,0,0,1.424-1.064,10.623,10.623,0,0,1,4.247-3.759,5.106,5.106,0,0,0,1.666-1.851c1.751-2.977,3.548-5.941,5.088-9.029a60.443,60.443,0,0,0,2.394-6.361c-3.975-.25-5.126,1.388-5.353,6.992M213.37,787.739c-.745-1.286-1.4-2.394-2.024-3.512-1.4-2.5-2.977-4.938-4.127-7.558a9.94,9.94,0,0,0-3.555-4.267c-2.967,2.748-2.931,2.992-1.506,5.867a33.381,33.381,0,0,1,1.774,5.1c.352,1.154.421,2.406.851,3.522.894,2.339,2.488,2.926,4.9,2.036,1-.37,2.034-.661,3.687-1.185m52.652-314.68c.376,2.8.859,5.5,1.062,8.216a3.219,3.219,0,0,0,1.9,3.124c1.738.858,2.222,2.411,1.494,4.3a15.085,15.085,0,0,0-.483,1.974c1.7.6,2.7-.064,3.062-1.335a20.082,20.082,0,0,0,.494-4.214c.061-.943-.35-2-.038-2.81a4.94,4.94,0,0,0-.661-4.484c-1.024-1.8-2.088-3.5-1.2-5.743a1.98,1.98,0,0,0-.8-1.751,2.4,2.4,0,0,0-1.933.37,31.9,31.9,0,0,0-2.892,2.358M567.005,501.8c.093-.254.18-.512.272-.771-1.867-1.43-3.745-2.844-5.589-4.3-1.316-1.034-2.432-2.517-3.91-3.118A27.164,27.164,0,0,0,544.271,492c-.156.011-.264.363-.669.99,2.414,1.368,4.324,3.622,7.553,3.219a6.274,6.274,0,0,1,4.078.93c3.245,1.808,6.7,3.252,10.1,4.774.455.2,1.11-.059,1.671-.108M403.687,215.159a40.341,40.341,0,0,0-1.851-4.18,1.636,1.636,0,0,0-1.55-.444c-.5.324-1.092,1.165-1,1.656a7.825,7.825,0,0,0,1.313,2.87c1.389,1.957,1.728,4.033.46,6.029-1.581,2.506-.843,4.682.226,7.117,2-1.278,4.051-2.118,4.023-4.851-.02-2.231.254-4.465.421-6.993-.655-.39-1.555-.913-2.042-1.206M369.392,427.191c0,3.645.012,6.954-.006,10.261a14.562,14.562,0,0,1-.18,4.221c-1.051,3.257.36,6.134,1.01,9.129.128.56.846.987,1.609,1.833a8.483,8.483,0,0,0,.57-2.434c-.38-2.774-2.574-5.542.064-8.314.087-.095-.173-.455-.155-.686.067-1.047.187-2.093.267-3.142a23.943,23.943,0,0,0,.157-3.192c-.116-1.64-.46-3.255-.583-4.9-.1-1.3-.37-2.37-2.751-2.777m135.031,66.475c.121-.288.236-.576.352-.864-2.641-1.133-4.55-3.707-7.965-3.38a3.172,3.172,0,0,1-2.283-.723c-1.461-1.429-3.145-1.1-4.789-.869-1.92.268-2.137.9-1.357,3.576,1.768-.336,3.713-1.182,5.312.614a6.755,6.755,0,0,0,7.906,1.949,12.777,12.777,0,0,1,2.823-.3m-21.6,256.667c-1.218.939-2.018,1.592-2.851,2.2-.869.628-1.7,1.579-2.664,1.756-3.383.638-3.8,3.718-5.2,5.969a1.7,1.7,0,0,0,.286,1.6,1.906,1.906,0,0,0,1.6.221,14.711,14.711,0,0,0,7.978-6.335,5.41,5.41,0,0,0,.851-5.412m-118.58,173.4c1.956.771,3.1-.036,4.14-1.372.876-1.119,1.887-2.139,2.741-3.268a19.106,19.106,0,0,0,2.367-3.6,2.3,2.3,0,0,0-.512-2.15c-.681-.434-2.373-.6-2.538-.3-1.152,2.154-3.262,3.059-5.044,4.4a2.029,2.029,0,0,0-.635,1.26c-.224,1.627-.35,3.262-.519,5.021M402.36,181.958c.522-1.069,1.506-2.367-.278-2.964-1.4-.475-2.09.584-2.52,1.923-.473,1.463-1.237,2.843-1.846,4.27-.5,1.157-.9,2.52.417,3.241a7.9,7.9,0,0,1,3.756,4.149c.151.373,1.414.3,2.16.42a9.6,9.6,0,0,0,.257-2.265c-.038-.362-.812-.606-.966-1.005-.928-2.51-2.643-4.939-.98-7.769M534.874,526.949c.016-.295.033-.584.056-.881-.943.246-2.183.2-2.758.789-1.043,1.08-.367,2.278.712,3.028,1.763,1.219,3.564,2.383,5.424,3.429,1.3.735,2.74-.082,3.365-1.692.5-1.3-.059-2.064-1.239-2.527q-2.776-1.078-5.559-2.146m-3.648-289.533c-.16-.033-.327-.059-.488-.09a23.005,23.005,0,0,0-.56,4.542,2.63,2.63,0,0,0,1.838,1.72c1.2.114,1.5-1.039,1.345-2.072a6.993,6.993,0,0,1,1.686-5.692,2.773,2.773,0,0,0,.735-1.939c-.257-.921-.8-2.154-1.558-2.466-1.244-.514-1.871.6-2.111,1.789-.285,1.406-.589,2.807-.887,4.21M180.914,877.672c-2.664,1.224-5.481.144-7.813,1.8.975,1.232,1.746,2.3,2.617,3.285,1.285,1.462,3.581,2.034,4.921,1.244,1.7-1.02,1.509-2.6,1.085-4.19-.154-.561-.416-1.1-.81-2.134m63.092-522.026c.759,1.507,1.327,2.776,2.028,3.962.322.55,1.133,1.409,1.344,1.313.66-.311,1.6-.993,1.612-1.55a12.255,12.255,0,0,0-.674-4.209c-.584-1.677-1.527-3.24-2.258-4.882-.461-1.052-.961-1.918-2.571-1.375.282,2.4,2.733,4.659.52,6.741m-1.833-29.28c1.19-2.543.239-4.5-.879-6.424a2.082,2.082,0,0,0-3.042-.944,2.864,2.864,0,0,0-.928,2.327,19.914,19.914,0,0,0,1.17,4.852,2.533,2.533,0,0,0,1.825,1.3c.592.038,1.239-.707,1.854-1.11M536.836,220.133a42.1,42.1,0,0,0,2.241-6.054,6.781,6.781,0,0,0-.745-3.618,1.949,1.949,0,0,0-1.841-.525c-.859.491-2.119,1.411-2.1,2.113a40.765,40.765,0,0,0,1.067,6.98c.088.409.807.673,1.376,1.1M348.321,348.976c-1.931,4.157-.866,8.427,2.234,10.325a2.672,2.672,0,0,0,4.3-1.874c-5.324-.018-5.285-4.633-6.536-8.451m307.337,7.469a66.237,66.237,0,0,0,7.435,1.1c.637.02,1.321-1.378,1.987-2.118-.7-.5-1.362-1.353-2.11-1.447a42.645,42.645,0,0,0-5.352-.067,3.179,3.179,0,0,0-1.424.149c-.466.254-1.033.748-1.093,1.2s.445.971.556,1.18M409.566,574.433c1.88.8,3.5.4,3.972-1s-.962-3.944-2.645-4.625a1.787,1.787,0,0,0-2.579,1.126c-.951,2.149-.527,3.736,1.252,4.5m-28.673,17.53c-3.5-.6-5.535.131-6.479,2.337-.609,1.421-.013,2.81,1.309,2.627a10.856,10.856,0,0,0,3.969-1.558,2.616,2.616,0,0,0,1.2-3.406M368.209,328.681c.9-1.889-.228-5.478-1.488-5.949s-2.052.147-2.584,1.237c-.913,1.869-.25,4.242,1.553,4.831a6.574,6.574,0,0,0,2.519-.119m318.968,30.66a15.473,15.473,0,0,0-1.771-3.46,2.488,2.488,0,0,0-3.582-.2c-.375.3-.741,1.313-.576,1.481a25.55,25.55,0,0,0,3.723,3.2c.272.195,1.146-.507,2.206-1.023M428.545,237.935a46.546,46.546,0,0,0-2.414-5.561,2.626,2.626,0,0,0-2.278-1.007,1.747,1.747,0,0,0-.769,2.732c1.182,1.54,2.4,3.239,5.461,3.836m92.976,265.153c-.339,3.2,1.062,5.132,3.546,5.162a2.009,2.009,0,0,0,1.5-.682,1.745,1.745,0,0,0-.087-1.614c-1.234-1.429-2.6-2.764-4.964-2.866M372.3,470.035a18.045,18.045,0,0,0-2.561,3.018,3,3,0,0,0-.057,2.514c.422.615,1.833,1.2,2.334.921a3.247,3.247,0,0,0,1.484-2.427c0-1.209-.681-2.412-1.2-4.026m45.739-168.822a12.213,12.213,0,0,0-1.435-7.119,1.622,1.622,0,0,0-1.488-.568,1.577,1.577,0,0,0-.73,1.389,52.091,52.091,0,0,0,1.944,5.417c.124.311.763.409,1.709.88M137.33,956.664c-1.475-1.047-2.6-1.9-3.776-2.658a5.126,5.126,0,0,0-1.948-.872,2.038,2.038,0,0,0-1.506.565c-.192.193-.046.952.187,1.3,1.054,1.561,4.368,2.394,7.042,1.669m29.017,28.365c2.632.473,5.082.9,8,1.433-3.07-4.952-3.568-5.023-8-1.433m468.865-632.2c.766,1.289,1.211,2.731,2.867,2.5,1.455-.213,1.753-1.568,1.779-2.785a2.242,2.242,0,0,0-.818-1.774c-2.029-.835-2.524,1.2-3.828,2.064M516.05,483.1c-1.936-1.735-3.888-1.678-5.7-1.763-.458-.021-.975,1.087-1.465,1.676.519.4,1.01,1.1,1.558,1.154a7.922,7.922,0,0,0,5.608-1.067m25.02,8.788c-2.548-2.358-3.957-2.774-6.384-1.893,1.409,2.908,3.456,3.512,6.384,1.893M695.258,384.033c-.046-.322-.092-.635-.144-.956a9.173,9.173,0,0,0-7.021.784c-.358.175-.538.987-.515,1.493.01.242.761.717,1.057.635,2.227-.579,4.421-1.286,6.623-1.956M532.124,227.713c1.833.564,3.578-.224,3.682-1.491a2.9,2.9,0,0,0-1.129-2.232c-1.1-.727-2.684.16-2.965,1.638a5.051,5.051,0,0,0,.412,2.085M131.468,831c-.254-2.965-.871-3.9-2.376-3.705a1.841,1.841,0,0,0-1.764,2.216c.154,1.529,1.255,1.935,4.141,1.489m581.17-451.149c.193.244.391.481.591.723,2.023-.391,3.777-1.365,4.43-3.443.435-1.347-.067-2.722-1.965-3.721.173,1.519.3,2.548.429,3.656-.682.456-1.3.813-1.846,1.245-.581.478-1.095,1.023-1.638,1.54M277.8,502.091c-1.931-1.486-3.263-.682-4.823.71.589,1.232,1.162,2.443,1.974,4.159,1.133-1.941,1.9-3.229,2.849-4.869M192.337,883.481a10.888,10.888,0,0,0,2.925,7.974c.455-3.262.116-5.65-2.925-7.974M413.759,280.855c-1.866,1.339-3.162,2.268-4.44,3.19,1.149,1.753,1.391,2.029,1.956,1.836,2.057-.741,2.211-2.517,2.484-5.026m35.964,273.81c-1.988-1.466-3.175-1.072-4.2-.09-.813.766-1.417,1.709,0,3.116,1.231-.884,2.509-1.805,4.206-3.026m-186.31-99.414c.422,2.267.805,4.329,1.2,6.448,2.308-2.17,1.933-4.468-1.2-6.448M163.757,974.688c-1-2.031-1.479-3.011-1.961-4-.543.367-1.321.619-1.591,1.136-.668,1.27-.124,2.875.92,3.021a16.073,16.073,0,0,0,2.632-.154m80.659-119.466c.663,1.264,1.335,2.527,2.042,3.87,2.653-2.221,2.409-2.771-2.042-3.87m-7.771-538.344a14.244,14.244,0,0,0,2.848-1.918c.16-.177-.478-1.547-1.029-1.833a1.675,1.675,0,0,0-2.6,1.019c-.157.633.378,1.429.786,2.732m166.529-32.287c-1.165,1.038-2.083,1.5-2.348,2.206a2.123,2.123,0,0,0,.851,1.922c1.041.506,1.887-.259,2.075-1.286.115-.655-.263-1.406-.578-2.841M244.827,382.869c1.262-.782,2.229-1.1,2.625-1.753.234-.381-.481-1.906-.743-1.9a3.535,3.535,0,0,0-2.362.917c-.295.311.206,1.365.479,2.736M547.991,626.334c-.376-.894-.655-1.558-.935-2.236-.641.406-1.62.682-1.813,1.24-.19.527.445,1.337.727,2.034.566-.285,1.124-.583,2.021-1.039M239.932,354.442c1.64-1.116,1.952-2.186,1.319-3.355-.517-.962-1.407-1.252-2.663-.1.381.979.81,2.082,1.344,3.453m-50.79,520.412c-1.051.861-1.988,1.262-2.056,1.774a2.522,2.522,0,0,0,1.052,1.817c.195.152,1.4-.447,1.537-.894.182-.6-.234-1.37-.534-2.7m212.482-735.9c-.664-1.049-.957-2.05-1.461-2.172a2.153,2.153,0,0,0-1.92.858,2.085,2.085,0,0,0,.792,1.92c.481.247,1.368-.285,2.589-.606M237.937,296.6c.542,1.645,1.232,2.7,2.694,2.048a2.261,2.261,0,0,0,.822-2.034c-.938-1.628-2.152-.833-3.515-.013M492.46,744.818c1.764-.1,3.255-.295,3.52-2.5-2.9-.388-2.961-.34-3.52,2.5M692.267,356.383a10.133,10.133,0,0,0-2.371,1.54c-.188.219.4,1.1.638,1.684a13.383,13.383,0,0,0,2.252-1.236c.16-.124-.234-.946-.519-1.988M174.5,989.78c-.853-.993-1.185-1.728-1.71-1.913a1.513,1.513,0,0,0-2.106,1.3c-.07.388.514,1.27.808,1.275a15.124,15.124,0,0,0,3.008-.658M510.471,728.272c1.466.826,2.576.612,3.3-.79a1.256,1.256,0,0,0-.406-1.178c-1.345-.637-2.237.021-2.834,1.231a3.665,3.665,0,0,0-.059.738M417.663,200.69c-.818,1.484-.489,2.561.822,3.288a1.228,1.228,0,0,0,1.131-.46,1.9,1.9,0,0,0-1.234-2.766,3.52,3.52,0,0,0-.719-.062M583.824,507.037c-.617-1.087-.833-1.9-1.136-1.918a11.309,11.309,0,0,0-2.556.247c.187.5.269,1.334.581,1.425a14.573,14.573,0,0,0,3.111.246m111.69-132.72c2.612,1.116,2.946.964,3.427-1.552-1.479-.19-2.758-.124-3.427,1.552m-293-173.12c-.882.63-1.573.912-1.882,1.421-.174.288.28.957.445,1.453a4.892,4.892,0,0,0,1.643-.933c.224-.294-.077-1-.206-1.941m221.739,179.3a9.342,9.342,0,0,0-1.232-2.1c-.147-.144-1.363.385-1.352.532a4.887,4.887,0,0,0,.692,2.02c.088.133.934-.213,1.892-.448m76-23.49c1.173-.869,2.281-1.468,1.406-2.908a1.3,1.3,0,0,0-1.227-.319c-1.44.718-1.2,1.759-.178,3.227M169.119,968.727c-.543-.651-.828-1.316-1.244-1.408s-.966.385-1.447.615c.316.542.53,1.234,1,1.555.221.156.923-.4,1.689-.763M711.193,354.3c1.741.525,2.879,1.116,3.843-.72-1.222-1.278-2.236-1.285-3.843.72M400.077,282.385c1.013,1.07,1.876,1.4,2.807.314a1,1,0,0,0,.025-.97c-.982-1.028-1.844-.712-2.831.656m319.957,74.992c-.686-.791-1.006-1.443-1.527-1.681-.309-.138-.915.355-1.393.569.339.521.573,1.2,1.049,1.511.3.192.958-.175,1.871-.4M172.6,858.451c-1.9-.61-3.01-1.329-4.239.1,1.268,1.286,2.357,1.154,4.239-.1m-5.042,120.721c-1.443.908-1.879,1.772-.686,3.247,1.321-.941,1.637-1.835.686-3.247m240.52-719.725c-.794.4-1.494.543-1.676.931-.167.34.236.962.381,1.461.517-.162,1.234-.172,1.471-.521.223-.321-.062-.99-.177-1.872m37.578,508.315c.059-.367.126-.72.191-1.088-1.011-.8-2.042-.9-3.2.614,1,.159,2,.317,3,.474m259.309-387.2c-.358-.74-.478-1.437-.846-1.627s-1,.142-1.519.246a4.3,4.3,0,0,0,.547,1.682c.182.208.975-.137,1.818-.3m201.394-46.533c-.332-1.011-.787-1.8-2.011-1.281a1.268,1.268,0,0,0-.406,1.16c.617,1.087,1.452.977,2.417.121M176.894,973.976c-1.787.547-2.149,1.434-1.823,2.962,1.6-.316,2.167-1.077,1.823-2.962M277.5,514.256c1.132-.715,1.563-1.473.8-2.47a.982.982,0,0,0-.941-.106c-.9.73-.99,1.558.141,2.576M681.163,383.537c.385.905.925,1.584,2.051,1.119a1.2,1.2,0,0,0,.3-1.115c-.633-.9-1.43-1.111-2.352,0m-51-32.008c-.367-.209-.73-.407-1.093-.61a15.22,15.22,0,0,0-.926,1.877,6.146,6.146,0,0,0,1.049.617c.327-.628.648-1.263.97-1.884m-378.18,512.6c-.219-.777-.439-1.548-.818-2.892-1.5,1.74-1.249,2.55.818,2.892M407.7,177.979c.311-.234.63-.463.947-.692-.547-.676-1.1-1.36-1.655-2.036-.25.188-.509.375-.766.565.486.717.98,1.44,1.473,2.164m-289.914,608-.319-.9c-1.036-.407-1.741-.2-2.126,1.718,1.09-.37,1.767-.591,2.445-.823m57.171,197.5c.308-.046.615-.1.923-.147.357-.39.857-.725,1.029-1.183.108-.295-.265-.777-.417-1.17a6.4,6.4,0,0,0-1.447,1.144c-.231.309-.072.9-.088,1.357M561.972,82.334c1.115,1.627,2.131,1.4,3.581.011-1.561-.005-2.574-.01-3.581-.011m-158.9,217.138c1.3,1.213,2.016.889,2.627.01.1-.136-.033-.434-.106-1.083-.813.34-1.509.642-2.52,1.074m-4.6-48.415c-.057-.306-.113-.605-.178-.918-.295-.272-.571-.714-.9-.758-.357-.048-.776.272-1.167.43.29.4.511.916.9,1.144a3.162,3.162,0,0,0,1.352.1m12.232,61.172c-.714.4-1.254.532-1.386.836s.137.794.232,1.193c.4-.141.938-.173,1.146-.455.2-.259.028-.781.008-1.575M108.174,801.44a10.423,10.423,0,0,0-.941-1.55c-.075-.077-.805.2-.809.334a3.6,3.6,0,0,0,.3,1.478,7.009,7.009,0,0,0,1.45-.262m104.213-8.892c-.19-.7-.283-1.453-.408-1.458a2.461,2.461,0,0,0-1.475.376c-.173.132-.026,1.115.123,1.162a6.091,6.091,0,0,0,1.759-.08M679.874,357.031c-.556-.645-.781-1.146-1.08-1.186a1.411,1.411,0,0,0-1.173.443c-.141.182.16,1.033.353,1.067a6.527,6.527,0,0,0,1.9-.324m-37.4-16.907c-.244-.648-.3-1.209-.579-1.365a1.108,1.108,0,0,0-1.062.334,1.219,1.219,0,0,0,.2,1.157c.2.177.766-.049,1.442-.126M483.688,480.736c-.517.678-.867.971-.961,1.326-.062.231.259.558.4.84.353-.206.872-.342,1.01-.653.118-.262-.193-.72-.453-1.512M257.17,420.956c.345.583.509,1.17.763,1.211a1.2,1.2,0,0,0,1.059-.522,1.112,1.112,0,0,0-.409-1.052c-.265-.131-.75.17-1.412.363m9.63,46.777c.619-.6,1.021-.831,1.167-1.182a1.065,1.065,0,0,0-.331-.835c-.381.034-.923.146-1.085.421s.093.759.249,1.6M450.449,567.07c.159.28.324.566.484.854q1.073-.68,2.142-1.38c-.131-.213-.268-.424-.4-.637-.743.393-1.479.776-2.222,1.162M172.327,553.24a5.031,5.031,0,0,0-1.021-1.09c-.182-.095-.583.208-.887.331a10.208,10.208,0,0,0,.884,1.3c.046.059.527-.273,1.024-.537m47.445,253.122a9.032,9.032,0,0,0-1.159-1.249c-.113-.07-.522.268-.79.417a7.5,7.5,0,0,0,.846,1.255c.082.082.537-.2,1.1-.424M72.971,562.6c-.368-.013-.73-.034-1.1-.054.082.663.155,1.314.229,1.97.26-.007.519-.025.786-.038.028-.617.062-1.249.09-1.879M392.154,221.322c-.316-.5-.488-.776-.658-1.054a4.045,4.045,0,0,0-1.024.707c-.083.108.257.81.4.807a4.242,4.242,0,0,0,1.283-.46m28.375,95.3c-.244-.121-.481-.242-.72-.376-.267.327-.714.624-.761.982-.051.385.254.831.669,1.989.437-1.393.624-1.99.812-2.594m110.777-69.569c-.614.376-1.041.52-1.239.813a.91.91,0,0,0,.311.836,3.215,3.215,0,0,0,1.17-.1c-.062-.4-.124-.8-.242-1.545M244,342.3c.753-.354,1.353-.46,1.432-.725.1-.319-.173-.828-.427-1.141-.077-.1-.774.074-.885.283A4.81,4.81,0,0,0,244,342.3m188.5,208.363-.8.426,1.17,1.651.529-.313ZM661.665,340.536a6,6,0,0,0-.55-1.663c-.159-.182-.609-.115-.935-.165-.047.4-.268.9-.1,1.169s.7.313,1.589.66M434.242,285.242a4.971,4.971,0,0,0,1.259-.658c.1-.083-.188-.833-.3-.831a2.524,2.524,0,0,0-1.214.331,4.85,4.85,0,0,0,.254,1.159M368,381.308a7.317,7.317,0,0,0,1.1-1.453c.095-.234-.18-.872-.3-.877a2.635,2.635,0,0,0-1.247.316,11.736,11.736,0,0,0,.45,2.015M579.09,53.235a4.871,4.871,0,0,0-.579-.987c-.082-.082-.574.057-.584.138a1.232,1.232,0,0,0,.11.894c.129.142.561-.01,1.054-.044M416.1,306.708c-.321.262-.7.434-.748.661-.041.252.226.565.352.844a3.744,3.744,0,0,0,.926-.643c.065-.061-.295-.493-.53-.862M867.017,370.78l.668-.409a3.792,3.792,0,0,0-.893-.574,3.014,3.014,0,0,0-.985,0c.075.3.061.718.257.871.223.162.63.08.954.111m-191,12.945c-.358.219-.754.341-.838.566-.079.2.2.537.309.818.337-.178.674-.358,1.011-.543-.149-.257-.291-.506-.483-.841M354.689,335.839c-.244-.388-.378-.835-.584-.876a1.029,1.029,0,0,0-.866.395c-.095.136.154.725.345.792.264.08.627-.156,1.1-.311M469.195,546.182a3.435,3.435,0,0,0-.843-.589.775.775,0,0,0-.511.318c.061.273.2.694.389.728.223.046.516-.226.964-.457M725.176,373.79a9.7,9.7,0,0,0-1.061,1.2.787.787,0,0,0,.056.614c.3.048.7.11.9-.052.157-.111.056-.555.1-1.763M672.033,562.3c-.234-.37-.357-.786-.558-.82-.259-.039-.574.214-.866.335.124.272.191.715.383.776.237.082.583-.142,1.041-.291M389.59,182.783c-.417.155-.833.186-.964.391-.141.234-.026.63-.02.956a3.167,3.167,0,0,0,1.1-.3c.121-.08-.052-.588-.116-1.049m-4.1,406.107a3.722,3.722,0,0,0-.948.53.7.7,0,0,0,.141.609,3.009,3.009,0,0,0,.907-.007c-.025-.3-.056-.615-.1-1.133M743.015,355.47c-.326.267-.71.432-.754.659-.046.26.2.576.322.876a4.014,4.014,0,0,0,.92-.655c.067-.088-.27-.5-.488-.88M87.7,922.248c-.282-.319-.457-.689-.678-.727-.265-.039-.573.219-.864.347a3.869,3.869,0,0,0,.684.9c.093.067.486-.288.858-.516M302,658.8c.551-.3,1.038-.427,1.051-.592a4.2,4.2,0,0,0-.244-1.237c-.293.108-.782.162-.846.345A5.236,5.236,0,0,0,302,658.8M615.875,389.959c.265-.131.542-.268.812-.406-.152-.231-.311-.458-.463-.687a5.233,5.233,0,0,0-.712.524,3.258,3.258,0,0,0,.363.57m-90-120.48a4.564,4.564,0,0,0,.823-.48c.059-.054-.124-.378-.2-.57a5.208,5.208,0,0,0-.862.367,3.253,3.253,0,0,0,.24.682M469.384,763.612a4.613,4.613,0,0,0-.534-1.038c-.084-.095-.6.021-.614.1a1.244,1.244,0,0,0,.059.907c.129.154.578.028,1.088.029M407.127,251.786a4.3,4.3,0,0,0-.6-.863c-.087-.067-.53.092-.545.186a3.132,3.132,0,0,0,.09.849c.29-.047.569-.1,1.051-.173M216.84,1017.893a3.714,3.714,0,0,0-.674-.655c-.128-.082-.391.056-.6.093.121.35.244.709.36,1.067.177-.1.354-.195.916-.506M150.311,687.637a4,4,0,0,0-.586-.889c-.087-.074-.54.072-.555.159a1.131,1.131,0,0,0,.121.835c.126.123.532-.038,1.02-.1M521.223,339.286c-.172.146-.5.363-.476.426a2.629,2.629,0,0,0,.491.651c.119-.191.319-.38.327-.57.007-.17-.224-.339-.342-.507M411.7,590.909c-.056-.19-.057-.476-.177-.547-.141-.072-.386.049-.584.085.056.2.052.478.178.547s.38-.047.583-.085m6.14-223.431c.211-.039.409-.07.614-.11-.057-.195-.054-.487-.187-.564s-.393.049-.591.087c.056.195.106.385.164.588m3.96-113.047c-.029-.193-.065-.378-.1-.563-.178.041-.452.049-.522.169s.046.366.082.551c.182-.054.358-.11.542-.157m63.845,224.464a3.446,3.446,0,0,0-.481-.933.686.686,0,0,0-.589.092,2.951,2.951,0,0,0-.016.877c.293-.008.592-.02,1.087-.036M195.682,998.8c-.056-.19-.057-.47-.178-.54-.139-.08-.386.041-.584.072.056.188.057.476.178.547.139.073.386-.041.584-.079M264,431.193a3.6,3.6,0,0,0,.355-.4c.016-.023-.133-.232-.183-.219a2.77,2.77,0,0,0-.54.183c.123.143.245.3.368.439"/></g></svg>