<svg xmlns="http://www.w3.org/2000/svg" width="699.74" height="690.553" viewBox="0 0 699.74 690.553">
  <path id="Path_3698" data-name="Path 3698" d="M389.057,646.633a5.856,5.856,0,0,1,2.357-1.206,7.692,7.692,0,0,0,2.218-1.151c.845-.544,1.568-1.284,2.446-1.746a4.958,4.958,0,0,0,2.4-2.724,7.8,7.8,0,0,1,4.28-4.619,2.056,2.056,0,0,0,1.462-2.107c-.044-2.84,1.44-4.909,3.358-6.738a26.5,26.5,0,0,1,1.2-3.062c.261-.628.467-1.285.695-1.93a25.767,25.767,0,0,1,1.012-2.822c.728-1.519,1.935-2.83,1.9-4.676a1,1,0,0,1,.456-.755c1.362-.74,1.306-2.119,1.256-3.269-.078-1.6.445-2.518,1.529-2.663.495-1.306.851-2.229,1.19-3.157.406-1.125.912-2.236,1.262-3.364a10.811,10.811,0,0,0,.295-1.185,39.834,39.834,0,0,0,.378-5.776,40.9,40.9,0,0,1,1.551-11.445,3.658,3.658,0,0,0,.033-2.045c-.878-3-.106-6.054-.4-9.1-.256-2.651-.128-5.358-.689-8.01a10.572,10.572,0,0,1-.128-1.836c-.033-1.294.072-2.607-.089-3.9-.261-2.125.3-4.358-.834-6.371a.79.79,0,0,1-.006-.456,33.9,33.9,0,0,1,1.034-5.443c.7-1.967,1.273-3.657-1.056-4.875-.178-.088-.239-.39-.378-.573-.739-.99-1.5-1.957-2.224-2.957-.628-.867-1.262-1.734-1.807-2.657-1.29-2.191-2.529-4.408-3.786-6.621-.756-1.329-1.879-2.474-1.979-4.136-.017-.332-.367-.656-.567-.984-.734-1.206-1.473-2.417-2.229-3.669-.072.05-.4.294-.839.623a9.455,9.455,0,0,0-.595-1.1,25.814,25.814,0,0,0-3.23-4.175c-2.185-1.923-4.653-3.53-6.971-5.315-.484-.367-.795-.95-1.268-1.351a9.389,9.389,0,0,0-2.385-1.745c-2.074-.807-4.23-1.39-6.354-2.063a17.808,17.808,0,0,1-5.17-2.536,21.451,21.451,0,0,0-4.191-1.811,6.08,6.08,0,0,1-2.168-1.14,4.62,4.62,0,0,0-4.18-1.534,4.069,4.069,0,0,1-3.035-.7,6.388,6.388,0,0,0-2.146-.862,4.91,4.91,0,0,1-3.124-2.225,3.144,3.144,0,0,0-2.641-1.628,5.016,5.016,0,0,1-2.185-1.04,15.574,15.574,0,0,1-1.773-1.451c-.75-.645-1.5-1.289-2.229-1.962-.617-.579-1.167-1.223-1.8-1.773a46.069,46.069,0,0,1-4.369-3.72c-2.7-2.968-5.2-6.108-7.794-9.177a11.222,11.222,0,0,0-.817-.823c-3-2.986-2.946-2.963-1.412-6.96a2.146,2.146,0,0,1,1.985-1.6,2.7,2.7,0,0,0,1.684-.567c1.6-1.984,3.385-1.594,5.442-.873,2.124.735,4.214,1.918,6.66,1.117.473-.154,1.173.267,1.729.517.962.435,1.873,1,2.852,1.4.8.333,1.612.55,1.9,1.518a3.556,3.556,0,0,0,2.624,2.4,6.8,6.8,0,0,1,1.356.84c.845.517,1.679,1.051,2.546,1.517a17.824,17.824,0,0,1,2.29,1.09,9.47,9.47,0,0,0,3.847,2.024,2.7,2.7,0,0,1,1.551,1.278,5.013,5.013,0,0,0,2.474,1.962c1.8.873,3.513,1.928,5.231,2.963,1.04.629,1.979,1.435,3.03,2.04,2.324,1.357,4.87,2.369,5.726,5.36.206.717,1.078,1.267,1.7,1.834,1.534,1.407,3.252,2.646,4.631,4.186a26.233,26.233,0,0,0,8.961,6.432,16.755,16.755,0,0,1,4.72,3.224c.878.861,1.562,1.6,2.941,1.29.061.6.094,1.046.15,1.494.15,1.079.784,1.451,1.812,1.185,2.824-.728,5.331.656,8.005.889a2.82,2.82,0,0,1-.111.723c-.473.8-.75,1.651.222,2.213.895.522,1.4-.167,1.829-.878a2.834,2.834,0,0,1,2.474-1.29c-.233.495-.339.762-.473,1.018-.984,1.846-.839,2.2,1.279,2.39a3.765,3.765,0,0,1,3.174,1.912c.99,1.591,1.484,1.585,3.219.768a5.746,5.746,0,0,1,1.056-.283c.2.277.45.462.45.644-.017,1.512.828,2.178,2.2,2.522a4.122,4.122,0,0,1,2.868,2.163c.795,1.6,2.5,1.646,3.947,2.118,1.273.417,1.59-.94,2.318-1.357.951.4.873,1.062.845,1.8-.072,1.812,1.045,2.835,2.729,2.247,1.935-.69,3.435-.578,4.431,1.333.784-.216,1.423-.406,2.04-.578a4.923,4.923,0,0,1,.484.677c.8,1.757.789,1.651,2.524,1.569a19.289,19.289,0,0,1,3.591.377c.756.1,1.568.539,2.24.367a9.064,9.064,0,0,1,5.62.646c.65.244,1.3.477,1.94.738a5.349,5.349,0,0,0,5.331-.406c1.912-1.367,3.552-1.056,5.314.167.528.373,1.406.84,1.823.633,1.173-.573,2.046.1,3.085.557.389-1.352,1.023-1.69,2.29-1.157a4.613,4.613,0,0,0,4.825-.472c1.345-.979,2.09-.84,3.352.148.367.284.678.64,1.045.918a2.818,2.818,0,0,0,.712.239c.089-.817.156-1.39.245-2.2l2.34.177c.689.056,1.379.162,2.068.178,2.24.06,4.486-.006,6.715.172,2.563.206,3.691-.672,3.658-3.252,1.156-.478,2.629-.69,3.5-1.528,1.8-1.723,4-1.173,6.009-1.434.851-.111,1.645.083,2.224-.706a2.174,2.174,0,0,1,2.023-.829c1.445.018,2.891-.234,4.342-.282a6.061,6.061,0,0,1,2.023.282c2.579.867,3.241.75,4.986-1.351.745-.894,1.451-1.05,2.363-.327.289.227.584.449.884.677.9-1.361,2.246-1.329,3.686-1.255,2.507.134,2.974-.227,3.958-2.63.05-.121.217-.2.322-.294,1.284-.3,2.4-.217,2.963,1.707a5.328,5.328,0,0,1,5.692-3.43,2.562,2.562,0,0,0,1.579-.788,20.591,20.591,0,0,1,6.282-4.287,4.658,4.658,0,0,0,.456-.212,2.244,2.244,0,0,0,1.129-1.018c.517-1.494,1.69-1.912,2.985-2.262.9-.239,1.768-.394,1.951-1.634.056-.406.839-.962,1.34-1.011,2.285-.256,4.586-.423,6.888-.484.973-.027,1.256-.512,1.668-1.256.878-1.612,1.623-3.586,3.019-4.553,1.645-1.14,2.491-2.106,1.679-4.053a15.236,15.236,0,0,0,1.451-.533,3.41,3.41,0,0,0,2.2-2.313c.1-.373.584-.684.951-.934.817-.567,1.723-1.006,2.5-1.623,1.134-.917,2.118-2.017,3.28-2.89,2.19-1.652,4.475-3.186,6.7-4.787a9.4,9.4,0,0,0,1.773-1.456c2.118-2.557,3.986-5.36,6.315-7.7,2.085-2.1,2.863-5.376,5.97-6.554.478-.183.706-.978,1.09-1.456.962-1.206,1.723-2.747,2.963-3.509,2.974-1.829,4.525-4.686,5.815-7.61.851-1.935,1.723-3.58,3.58-4.609a1.17,1.17,0,0,0,.472-.5c.812-1.913,1.679-3.8,2.368-5.753a4.731,4.731,0,0,1,1.9-2.8,4.807,4.807,0,0,0,2.312-4.081c.028-2.351,1.49-4.109,1.962-6.27.556-2.512,1.829-4.87,2.78-7.294.111-.289.139-.6.233-.894,1.229-3.887.272-8.089,1.707-11.958.094-.25-.095-.6-.128-.9a6.167,6.167,0,0,1-.094-1.589c.3-1.546-.372-2.813-.928-4.169-.834-2.058-2.363-3.674-3.069-5.864-1.09-3.392-4-5.62-6.337-8.177-.495-.535-1.468-.628-2.212-.93a3.033,3.033,0,0,1-.4-.227c-1.951-1.246-3.964-2.4-5.82-3.758-1.306-.963-2.579-1.6-4.242-1.019-.339-.739-.617-1.35-.873-1.923a3.135,3.135,0,0,0-.784-.161,7.657,7.657,0,0,1-5.687-1.379,15.08,15.08,0,0,0-4.358-2.107,37.806,37.806,0,0,1-8.261-2.885,3.165,3.165,0,0,0-1.356-.2c-1.979-.073-3.958-.1-5.937-.185a6.125,6.125,0,0,1-1.34-.338c-2.224-.578-4.442-1.19-6.671-1.734a2.786,2.786,0,0,0-1.368.016,4.093,4.093,0,0,1-3.1-.551,32.187,32.187,0,0,0-4.219-1.751,27.647,27.647,0,0,0-3.391-.679c-1.573-.3-3.252-1.106-4.7-.8a9.873,9.873,0,0,1-7.132-1.257l-11.4.811c-.167-.162-.534-.506-.956-.9-1.106.873-2.157,1.463-3.469.7-.211-.128-.589.073-.9.068-.656-.018-1.306-.085-1.962-.106-.595-.023-1.19-.023-1.779-.011-.528.011-1.178.255-1.557.032a4.01,4.01,0,0,0-3.78-.01c-.495.189-1.151.462-1.562.283a3.43,3.43,0,0,0-4.014.645c-.261.24-1.012-.122-1.534-.111a18.427,18.427,0,0,0-2.429.188c-.445.073-.856.429-1.3.467a38.942,38.942,0,0,1-5.509.327,22.9,22.9,0,0,0-6.843.929,2.758,2.758,0,0,1-1.762-.072c-1.268-.684-2.168-.528-2.952.7-.656,1.029-1.434.894-2.346.2a2.165,2.165,0,0,0-1.662-.483c-1.412.544-2.7,1.451-4.347.845-.195-.074-.545.244-.8.405a29.61,29.61,0,0,1-8.867,3.313,6.845,6.845,0,0,0-1.7.64c-2.468,1.345-5.27,1.806-7.838,2.946-1.69.751-3.958-.251-5.642,1.218a.281.281,0,0,1-.222.051c-1.94-.278-3.613.689-5.4,1.122a5.464,5.464,0,0,1-2.279.139,2.681,2.681,0,0,0-3.041,1.134,2.982,2.982,0,0,1-2.985,1.262c-2.312-.079-4.553.773-6.8,1.188a36.626,36.626,0,0,0-7.488,2.3c-3.157,1.339-6.565,2.062-9.723,3.475a4.54,4.54,0,0,1-3.441-.558c-.939.446-1.69,1.125-2.374,1.069-2.224-.194-3.641.944-4.942,2.446a4.912,4.912,0,0,1-.623.467c-.422-.473-.817-.905-1.128-1.251a7.259,7.259,0,0,1-1.979.728,7.9,7.9,0,0,1-2.724-.34,2.939,2.939,0,0,0-2.791.623,11.556,11.556,0,0,1-6.5,2.174,4.876,4.876,0,0,0-3.486.984,1.646,1.646,0,0,1-2.146.122c-1.1-.7-2-.278-3.013.3-2.19,1.252-4.48,2.035-6.426.751-1.54.255-2.618.417-3.686.628-.906.183-1.8.466-2.707.633a13.093,13.093,0,0,1-1.746.117c-.495.016-.99.032-1.49.032-.283,0-.734.05-.812-.083-.806-1.429-2.346-.963-3.508-1.446a6.614,6.614,0,0,1-2.124-1.178,14.354,14.354,0,0,1-2.085-2.763,4.156,4.156,0,0,1-.584-1.923c-.044-1.151.122-2.307.161-3.464a1.731,1.731,0,0,1,1.584-1.912c2.207-.405,2.062-.49,2.585-2.668a6.024,6.024,0,0,1,1.779-3.336c.9-.65,2.018-.889,2.552-2.084a1.872,1.872,0,0,1,1.39-.685c1.751-.105,2.691-1.055,3.608-2.49a5.618,5.618,0,0,1,3-1.945c.55-.185,1.412.634,2.14.979a8.676,8.676,0,0,0,1,.332c.333-1.694,1.173-2.684,2.974-2.634.384.011.884-.573,1.156-.994,1.334-2.086,1.312-2.091,3.3-.751a2.26,2.26,0,0,0,.528.123c1.012-.4,1.5-2,3.08-1.48,1.245.406,1.784-.3,2.073-1.506.417-1.772.784-2.024,2.557-1.95a5.1,5.1,0,0,0,3.347-.606,1.642,1.642,0,0,1,2.135.2c.395.323.839.59,1.479,1.028.245-1.8,1.279-2.334,2.774-2.406a6.909,6.909,0,0,0,1.923-.689c.634-.244,1.267-.517,1.907-.746,2.335-.828,4.836-1.238,6.993-2.874.406.551.8,1.084,1.284,1.746.634-2.857.634-2.857,3.141-2.884,1.662-1.641,3.052-3.053,4.492-4.4a1.52,1.52,0,0,1,2.274.032c1.59,1.379,3.747.617,5.52,1.368.15.061.467-.095.628-.233,1.217-1.067,2.7-.939,4.158-1.063a12.37,12.37,0,0,0,3.319-.8c1.4-.524,2.668-1.419,4.091-1.808,1.757-.473,3.613-.566,5.414-.889a2.4,2.4,0,0,0,1.206-.634,2.31,2.31,0,0,1,3.308-.372,3.564,3.564,0,0,0,1.39.294,2.961,2.961,0,0,0,.233-.35c.211-.735-.567-1.946.712-2.129,1.156-.167.778,1.061,1.1,1.679a1.6,1.6,0,0,0,1.006.751c.245.05.689-.329.851-.623a7.907,7.907,0,0,0,.495-1.34c1.418-.628,2.518-1.1,3.608-1.6a44.708,44.708,0,0,1,4.381-2c1.662-.551,3.435-.79,5.153-1.179.295-.072.7-.138.834-.345,1.106-1.722,3.1-2.24,4.542-3.413,1.807-1.462,3.53-1.3,5.348-.823a3.2,3.2,0,0,0,3.347-.911c1.973-1.863,4.075-3.381,6.754-1.641,3.719-2.54,7.266-5.02,10.868-7.41,2.618-1.74,5.287-3.43,8.528-3.825.278-.032.7-.205.778-.417.367-1.034,1.384-1.073,2.107-1.578,2.624-1.829,5.07-3.936,8.322-4.631a.876.876,0,0,0,.517-.429,12.248,12.248,0,0,0,1.362-3.608,2.8,2.8,0,0,1,1.462-2.4c3.7-2.473,6.571-5.781,9.423-9.334,1.223.307,2.552.234,2.835-1.362a3.049,3.049,0,0,1,2.813-2.862c.439-.069.806-.663,1.184-1.034a20.3,20.3,0,0,1,3.146-3.019,13.4,13.4,0,0,0,2.274-1.846c1.462-1.429,2.752-3.642,5.3-1.963.211-.239.411-.361.4-.467a8.269,8.269,0,0,1,2.546-6.887c.411-.445.906-.811,1.3-1.267a9.005,9.005,0,0,0,1.04-1.467c.523-.974.984-1.98,1.345-2.726.389-1.356.712-2.473,1.028-3.6,1.8-.105.628-2.007,1.707-2.712,2.235-1.479,3.519-3.842,4.742-6.121.712-1.318.612-3.119,1.423-4.331,1.056-1.584,2.446-2.963,3.636-4.48.8-1.034,1.34-1.769,1.023-2.991-.245-.956-.061-1.812.856-2.151,1.946-.706,2.24-2.346,2.641-4.03a6.564,6.564,0,0,1,1.123-2.719,4.9,4.9,0,0,0,1.179-2.94,16.878,16.878,0,0,1,.984-3.763,20.411,20.411,0,0,0,.934-5.893,9.939,9.939,0,0,1,.834-4.236,15.779,15.779,0,0,0,1.712-5.243,22.348,22.348,0,0,1,.7-4.047c.523-2,.99-4.03,1.373-6.07a30.82,30.82,0,0,0,.234-3.224c.233-2.757,1.1-5.393,1.312-8.189.167-2.151,1.234-4.291,2.157-6.315a4.592,4.592,0,0,0,.506-3.079,5.891,5.891,0,0,1,.172-2.207,53.5,53.5,0,0,0,1.206-6.777c.089-1.979.15-3.825,1.345-5.126a13.816,13.816,0,0,1-.55-2.9c.061-1.762.411-3.512.495-5.281.061-1.206-.2-2.434-.195-3.652.022-3.063.128-6.121.167-9.184.017-1.305.005-2.613-.083-3.907-.117-1.617-.472-3.23-.467-4.838a47.7,47.7,0,0,0-.228-8.771,4.667,4.667,0,0,1,.033-2.3c.845-2.345.172-4.586-.228-6.854-.133-.762-.25-1.523-.384-2.285-.467-2.73-.762-5.51-1.468-8.182-.589-2.224-1.851-4.265-2.479-6.483a33.31,33.31,0,0,0-6.3-11.685,12.875,12.875,0,0,0-2.885-2.584c-2.518-1.785-4.847-3.825-7.243-5.765-.178-.144-.272-.389-.434-.544-1.117-1.05-2.09-2.392-3.4-3.063a7.8,7.8,0,0,0-4.87-1.19,24.486,24.486,0,0,1-2.479.05c-2.062.139-4.364-.411-5.531,2.169-.4.894-1.334.75-1.712-.178a18.472,18.472,0,0,1-.517-1.879c-1.273.75-2.363,1.39-3.441,2.034-1.173.706-2.307,1.551-4.43,1.018.2-.662.406-1.362.7-2.329-.917.473-1.512.788-2.046,1.073.022,2.49-.072,2.575-2.407,2.663a37.1,37.1,0,0,0-4.38.3c-1.584.257-3.141.729-4.7,1.135a4.551,4.551,0,0,0-1.912.661,5.551,5.551,0,0,1-5,1.212,2.939,2.939,0,0,0-2.4.472,15.288,15.288,0,0,1-9.267,2.764,3.337,3.337,0,0,0-1.64.723A13.935,13.935,0,0,0,530.6,98.2c-2.19-1.223-2.185-1.217-3.964.268-.289.24-.695.632-.951.572-2.074-.51-3.441,1.118-5.175,1.612a15.743,15.743,0,0,0-3.046,1.007c-2.023,1.044-3.952,2.278-5.959,3.357a8.09,8.09,0,0,1-2.207.682c-1.529.307-3.069.535-4.625.8,1.851,2.769,1.851,2.769.7,3.835a15.235,15.235,0,0,0-1.445-1.078c-.734-.429-1.6-.539-2.074.261-.939,1.585-2.34,1.691-3.975,1.763-1.873.077-3.7.3-5.22,1.888a10.086,10.086,0,0,1-6.054,3.175c-.962.134-1.818,1.063-2.7,1.651a7.577,7.577,0,0,1-1.245.951,19.622,19.622,0,0,0-7.06,4.281,8.8,8.8,0,0,1-1.84,1.4c-2.363,1.374-5.159,2.09-6.8,4.554a1.421,1.421,0,0,1-.773.483,14.872,14.872,0,0,0-5.3,2.607c-1.056.79-2.068,1.307-2.163,2.742a3.929,3.929,0,0,0-1.1-.106,10.793,10.793,0,0,0-3.057.849c-.517.3-.561,1.324-.967,1.906-1.123,1.6-1.773,3.7-4.219,3.941a1.757,1.757,0,0,0-1.256.819,3.2,3.2,0,0,1-2.1,1.644c-1.584.634-1.64.817-1.39,2.5-.973.872-1.907,1.763-2.9,2.58a3.2,3.2,0,0,1-1.556.917,5.636,5.636,0,0,0-4.7,2.918c-.311.506-.951.79-1.373,1.239-1.156,1.212-2.868,1.813-3.636,3.5-.195.439-1.162.545-1.79.767-.478.167-1.151.134-1.429.456-1.184,1.363-2.057,3.069-3.419,4.186a16.946,16.946,0,0,0-3.469,3.459,1.074,1.074,0,0,1-.817.361c-.728-.027-1.051.339-1.445.912a3.928,3.928,0,0,1-1.712,1.435c-1.134.422-1.94.828-1.74,2.274.061.421-.356.979-.684,1.378a8.441,8.441,0,0,1-2.068,2.14c-1.9,1.062-3.674,2.151-4.569,4.247-1.946.267-1.779,2.734-3.43,3.307-.106,1.413-1.306,1.879-2.118,2.752-1.217,1.318-1.84,3.2-3.53,4.175.033,1.873-1.3,2.456-2.746,2.8-.422,2.752-.673,3.2-2.8,5.476a3.709,3.709,0,0,0-.75,1.138,15.974,15.974,0,0,1-5.954,7.75c-.117.079-.178.245-.311.435.111.538.233,1.127.295,1.435-.684,1.039-1.206,1.867-1.751,2.673a6.8,6.8,0,0,1-1.49,2.045c-1.356.878-1.607,2.257-2.279,3.519a70.99,70.99,0,0,1-5.364,8.311,6.4,6.4,0,0,0-1.2,2.135,5.456,5.456,0,0,1-2.679,3.874,2.887,2.887,0,0,0-1.112,1.886c-.478,2.645-2.93,4.368-3.208,7.087-.017.189-.306.334-.439.523a20.231,20.231,0,0,0-2.062,3.019c-1.573,3.419-3.108,6.816-5.6,9.717a3.758,3.758,0,0,0-1,3.452,1.606,1.606,0,0,1-.211,1.084c-.839,1.373-1.746,2.7-2.613,4.057a37.123,37.123,0,0,0-3.864,8.134c-.517,1.54-1.167,3.023-1.757,4.541a23.248,23.248,0,0,0-.9,2.385c-.734,2.68-1.4,5.369-2.118,8.055a3.512,3.512,0,0,1-.517.794c-.595-.266-1.117-.5-1.746-.778a7.713,7.713,0,0,0-1.34,1.99,26.439,26.439,0,0,1-2.235,6.021c-.806,1.462-1.334,3.079-2.007,4.659-.795.011-1.462.016-2.118.027-.15,2.646-.267,5.188-2.813,6.739a1.743,1.743,0,0,0-.645.928,7.451,7.451,0,0,1-2.891,3.541,3.089,3.089,0,0,0-1.479,2.719,2.741,2.741,0,0,1-1.784,2.762,6.98,6.98,0,0,0-3.964,3.286,1.251,1.251,0,0,1-2.285.156c-1.5-2.135-3-4.214-3.419-6.994-.511-3.424,1.4-6.087,2.207-9.089a6.912,6.912,0,0,1,.839-1.884,4.29,4.29,0,0,1,1.3-1.458,3.36,3.36,0,0,0,1.9-3.607,5.353,5.353,0,0,1,.734-3.292,14.377,14.377,0,0,0,1.734-9.094c-.278-1.7-.367-3.963,2.179-4.753a1.892,1.892,0,0,0,1.012-1.361c.367-2.786,2.057-4.77,3.763-6.816,1.184-1.406,2.413-2.913,1.44-5.026a1.761,1.761,0,0,1,.028-1.334c.878-1.873.639-4.018,1.7-5.914a7.907,7.907,0,0,1,2.029-2.957,9.09,9.09,0,0,0,3.208-4.949c.678-2.011,1.607-3.968,3.73-5.074,1.479-.756,1.64-1.446,1.217-2.786-.106-.344-.195-.694-.295-1.044,3.169-.835,3.8-1.913,3.58-4.976-.184-2.563-.039-5.2,2.557-6.7,1.712-.99,2.09-2.53,2.307-4.265a9.916,9.916,0,0,1,.706-3.14,5.678,5.678,0,0,0,.756-3.313,1.786,1.786,0,0,1,1.406-2.1,8.654,8.654,0,0,0,1.256-.668c-.217-2.173-.561-4.413,2.741-4.786a2.546,2.546,0,0,1-.284-3.351,3.919,3.919,0,0,0,.356-1.8,5.023,5.023,0,0,1,1.523-3.523,3.259,3.259,0,0,0,.856-1.8,12.641,12.641,0,0,1,2.351-6.6c1.123-1.379,1.557-2.535.7-4.1-.05-.089.083-.278.217-.65,1.078-.117,2.263-.24,3.18-.339.673-1.563,1.334-2.874,1.8-4.254a8.543,8.543,0,0,0,.65-3.339,11.226,11.226,0,0,1,2.807-9.107c.233-.255.25-.69.411-1.022.206-.434.461-.84.684-1.267a12.374,12.374,0,0,0,.584-1.173c.656-1.64.272-3.736,2.229-4.826.267-.149.3-1.022.184-1.5a3.112,3.112,0,0,1,1.056-3.124c.334-.327.795-.661.873-1.061a2.942,2.942,0,0,1,2.452-2.3,22.213,22.213,0,0,1,1.09-3.447c.673-1.294,1.129-2.49.033-3.763.573-.511,1.017-.917,1.6-1.44-1.073-.711-.706-1.355-.061-2.119a2.711,2.711,0,0,0,.723-1.817c-.473-3.28.361-5.948,3.169-7.893a2.712,2.712,0,0,0,1.262-2.976,17.677,17.677,0,0,1,.017-4.368,13.805,13.805,0,0,1,.656-4.053,28.656,28.656,0,0,1,2.641-4.291c-.495-.417-1.212-1.023-1.907-1.617a21.145,21.145,0,0,0,1.167-3.992,45.658,45.658,0,0,0,.172-11.051,3.682,3.682,0,0,1,.567-3.08A2.838,2.838,0,0,0,395.2,96.9c-.545-2.539-1.384-5.119-1.323-7.664.083-3.264-1.607-6.355-.706-9.64a1.106,1.106,0,0,0-.328-.84c-.951-1-.94-2.228-.967-3.484-.017-1.173-.128-2.3-1.406-2.958A1.553,1.553,0,0,1,389.78,71c.589-1.745-.056-3.4-.334-5.026a46.612,46.612,0,0,0-1.8-6.414c-.145-.446-.75-.723-1.112-1.106-1.045-1.1-2.529-2.124-2.424-3.742a8.411,8.411,0,0,0-1.518-4.993,10.853,10.853,0,0,1-.884-1.891c-.511-1.528-.623-3.313-1.523-4.541-.934-1.3-.8-3.214-2.446-4.02.039-1.9-1.317-3.013-2.285-4.413a52.362,52.362,0,0,1-2.941-5.72,2.5,2.5,0,0,0-.867-1.051,3.989,3.989,0,0,1-1.918-2.941c-.411-1.613-.867-3.558-3.374-3.4a1.51,1.51,0,0,1-1.573-1.874c.217-1.884-1.051-2.763-2.313-3.685a10.719,10.719,0,0,1-2.307-1.84c-.806-1.073-2.185-.862-2.985-1.6a16.8,16.8,0,0,1-2.1-2.968c-.078-.111-.261-.162-.389-.239-1.9-1.063-3.647-2.218-4.453-4.447a1.851,1.851,0,0,0-2.351-1.329c-3.063.716-6.793-.39-7.671-3.3-.056-.167-.339-.268-.589-.462-.467.423-.906.817-1.484,1.334-1.3-1.178-3.313.462-4.647-1.128q-2.443.126-4.909.245c.05.955.083,1.718.117,2.479-.673-.2-1.073-.506-1.14-.873a1.62,1.62,0,0,0-2.235-1.39c-1.84.455-3.908-.466-5.592,1-.261.233-.889.088-1.345.056-3.046-.234-4.864.8-5.987,3.607a2.123,2.123,0,0,1-2.2,1.645c-.845-.022-1.156.506-1.284,1.329-.378,2.325-.595,2.429-3,2.463-.745.005-1.807-.029-2.174.417a6.455,6.455,0,0,1-4.041,2.3c.7,2.251.539,2.774-1.273,3.941-1.167.756-2.39,1.417-3.552,2.173a3.525,3.525,0,0,0-1.1,1.063,24.705,24.705,0,0,1-6.637,7.3c-2.568,1.872-5.209,3.574-7.3,6.058-1.217,1.446-3.085,2.3-3.958,4.132a1.643,1.643,0,0,1-.7.589c-1.9,1.05-3.074,2.79-4.342,4.453-.939,1.228-1.918,2.424-2.913,3.607-.9,1.061-1.94,2.013-2.757,3.124-1.368,1.863-2.946,3.319-5.27,3.419-.3,1.146-.55,2.1-.784,3-.917.173-1.623.311-2.4.456a7.3,7.3,0,0,0,.117,1.305,3.3,3.3,0,0,1-1.923,4.352,3.666,3.666,0,0,0-1.223,1.83c-.278.65-.339,1.384-1.456,1.273-.206-.544-.428-1.151-.706-1.891A1.9,1.9,0,0,0,250.8,66.2c.311.817.122,1.473-.573,1.773-1.479.64-1.79,2.007-2.2,3.263-.778.234-1.835-.944-2.118.573.306.294.617.594.695.673-.734,1.25-1.746,2.284-1.912,3.441a10.226,10.226,0,0,1-1.167,3.452,29.285,29.285,0,0,0-2.146,4.3,4.982,4.982,0,0,1-1.812,2.84,2.463,2.463,0,0,0-.839.774c-1.09,2.029-2.057,4.13-3.208,6.125-.828,1.445-1.579,2.952-3.3,3.752-.767.356-1.2,1.462-1.812,2.274.706.439,1.2.745,1.712,1.057a2.061,2.061,0,0,1-2.229,1.74,3.8,3.8,0,0,0-3.408,2.107,43.751,43.751,0,0,0-2.39,6.5,3.729,3.729,0,0,1-1.429,2.463c-1.145.777-1.051,1.69.006,2.663.367.339.762.661,1.212,1.039a1.6,1.6,0,0,1-2.313.59c-.762-.422-1.317-.305-1.468.711.595.405,1.151.785,1.9,1.3-.378.877-.739,1.706-1.1,2.535a5.981,5.981,0,0,0-.778,1.884,5.041,5.041,0,0,1-2.618,4.591c1.251.9,1.045,1.74.256,2.652-.25.29-.117.891-.25,1.318-.584,1.89.006,4.219-2.112,5.376a2.784,2.784,0,0,0,.145.61c1.562,2.63,1.529,3.315-.434,5.493-.067.079-.117.151-.183.223l.845,2.429a12.84,12.84,0,0,0-.233,3.291c.478.077.928.162,1.462.25l.339.973c-.222.173-.395.306-.55.45-.422.384-1.173.845-1.134,1.213a5.307,5.307,0,0,1-1.329,3.613,2.111,2.111,0,0,0,.117,2.93,2.391,2.391,0,0,1,.589,1.673c-.267,1.623.9,3.385-.489,4.9-.15.156-.1.645.022.891,1.2,2.239.9,4.624.817,7.01a3.391,3.391,0,0,0,.634,1.907,5.771,5.771,0,0,1,1.078,3.936c-.089,1.239-.089,2.478,1.173,3.307a2.11,2.11,0,0,1,.584,1.205c.395,1.6.951,3.219-.289,4.686.962.928,2.429,1.013,2.407,2.741a17.794,17.794,0,0,0,.812,4.52c.367,1.483.056,3.257,1.751,4.23.234.133.261.7.322,1.072.456,2.8.923,5.593,1.34,8.394a16.115,16.115,0,0,1,.133,2.741,5.333,5.333,0,0,0,.817,3.758,2.082,2.082,0,0,1,.461,1.467c-.789,3.4.534,6.716.317,10.09-.067,1.089.567,2.217.767,3.346a7.458,7.458,0,0,1,.067,2.2c-.206,1.719-.445,3.38.628,4.981a4.518,4.518,0,0,1,.617,2.351c.033,2.38-.334,4.72.067,7.16.256,1.535.628,3.392-.417,4.97a1.272,1.272,0,0,0-.061.9c.4,1.552-.128,3.147.611,4.754.439.945-.178,2.374-.289,3.579a13.4,13.4,0,0,0-.072,2.214c.044.6.389,1.2.4,1.8a32.976,32.976,0,0,0,1.39,8.567c.395,1.411-.284,3.807-1.368,4.4a8.356,8.356,0,0,1-3.019,1.122c-.6.067-1.279-.689-1.935-1.045a7.212,7.212,0,0,0-1.662-.8A3.246,3.246,0,0,1,220,275.862a1.4,1.4,0,0,0-1.846-1.239,9.955,9.955,0,0,0-1.123.367c.067-.257.133-.517.2-.767-.939-.879-1.862-1.769-2.824-2.613a11.492,11.492,0,0,1-1.818-1.429c-.667-.9-.939-2.119-1.69-2.907-.806-.862-2.313-.857-2.907-2.159a2.852,2.852,0,0,0-1.112-1.122,28.366,28.366,0,0,1-5.993-5.654c-1.7-1.918-4.141-3.1-5.442-5.425-.095-.162-.4-.222-.617-.3a3.016,3.016,0,0,1-2.046-2.307,3.277,3.277,0,0,0-1.245-1.851,10.639,10.639,0,0,1-3.78-4.893,10.243,10.243,0,0,0-.956-1.852c-2.218-2.957-4.481-5.881-6.71-8.832-.645-.851-1.134-1.84-1.846-2.63-1.39-1.549-3.03-2.89-4.3-4.525-2.3-2.957-4.7-5.881-6.054-9.461-.078-.2-.233-.478-.411-.534-2.2-.617-2.657-2.713-3.541-4.342a22.218,22.218,0,0,0-9.734-9.6,12.363,12.363,0,0,1-2.54-1.6,4.3,4.3,0,0,0-3.146-1.223,2.709,2.709,0,0,1-2.663-1.522A4.52,4.52,0,0,0,141.1,194.9c-.167-.645-.311-1.213-.461-1.774a12.238,12.238,0,0,1-1.935-.345c-.65-.223-1.223-.65-1.857-.905a2.315,2.315,0,0,0-1.106-.111,7.075,7.075,0,0,1-5.9-1.846,5.456,5.456,0,0,0-3.1-1.4,6.879,6.879,0,0,1-2.657-.678c-1.868-1.1-3.914-.867-5.887-.963-1.429-.066-2.874.456-4.319.49-1.79.05-3.669.261-5.148-1.2a1.345,1.345,0,0,0-1.907-.061,3.551,3.551,0,0,1-2.868.573c-.289-.033-.584-.077-.884-.122a10.26,10.26,0,0,0-2.791-.161,41.6,41.6,0,0,0-5.6,1.244,4.033,4.033,0,0,1-3.119-.006,1.957,1.957,0,0,0-1.84.429,2.567,2.567,0,0,1-3.441.913,1.32,1.32,0,0,0-.545-.074,3.547,3.547,0,0,0-.6.078c-2.19.422-4.386.812-6.554,1.34-1.412.34-2.768,1.056-4.008-.379a1.219,1.219,0,0,0-.878-.217c-1.851.2-3.869-.688-5.52.963-.35.361-1.173.256-1.779.345-1.684.25-3.374.462-5.048.746-1.279.217-2.535.583-3.814.783-.695.106-1.39.145-2.068.256a5.212,5.212,0,0,0-2.524.978,3.129,3.129,0,0,1-3.3.333,1.89,1.89,0,0,0-1.679.167,3.209,3.209,0,0,1-3.235.379c-1.084-.289-2.34-.568-3.274.488a3,3,0,0,0-.278.346c-.217.333-.951.356-1.462.439-.75.128-1.518.178-2.274.273-1.912.239-3.819.477-5.726.744-.361.05-.873.117-1.034.357-1.245,1.874-3.324,1.79-5.153,2.207a4.939,4.939,0,0,0-2.168,1.134,16.028,16.028,0,0,1-4.253,2.824c-.117.039-.222.1-.339.138-1.59.485-3.135.556-3.43,2.441a9.332,9.332,0,0,0-2.629-.14,14.331,14.331,0,0,0-3.152,1.384,16.339,16.339,0,0,0-3.613,2.235,1.922,1.922,0,0,0-.256.228,37.289,37.289,0,0,0-5.426,9.066,2.734,2.734,0,0,0-.25,1.345c.2,2.29.372,4.593.723,6.86.489,3.163,1.134,6.3,1.684,9.45.05.284-.128.6-.15.9-.078,1.056-.167,2.111-.189,3.172a14.2,14.2,0,0,0,.111,2.708,4.9,4.9,0,0,1,.039,1.212c-.039.546-.117,1.09-.172,1.64A3.852,3.852,0,0,0,2.81,249.3c.183.217.106.756.011,1.1-.083.294-.139.578-.2.867a17.858,17.858,0,0,0,.511,8.683c.183.634.356,1.279.523,1.924a17.392,17.392,0,0,1,.6,3.7,26.25,26.25,0,0,0,1.006,5.61,11.651,11.651,0,0,1,.695,2.636,5.086,5.086,0,0,0,1.44,3.784,2.49,2.49,0,0,1,.745,2.93,4.339,4.339,0,0,0,.067,2.024c.117.838.422,1.65.467,2.484a5.44,5.44,0,0,0,1.545,3.536,3.642,3.642,0,0,1,1.151,1.679c.322,2.568,2,4.5,2.985,6.743a9.225,9.225,0,0,0,3.124,3.964,7.343,7.343,0,0,1,1.607,1.661c1.106,1.474,2.112,3.013,3.235,4.47a3.74,3.74,0,0,0,1.34.806c1.935.952,3.875,1.885,3.791,4.131A26.562,26.562,0,0,1,30.9,313.7c2.1,1.424,4.147,2.936,6.137,4.509a4.156,4.156,0,0,0,4.108.941,3.9,3.9,0,0,1,3.919.749c1.584,1.329,3.107,2.492,5.225,2.753.467.061.867.605,1.306.917,2.624,1.912,5.32,3.663,8.744,3.713a7.355,7.355,0,0,1,1.356.294l6.143,1.334a.585.585,0,0,1,.717.329c1.012,1.64.99,1.467,3.024,1.255,1.006-.1,2.09.835,3.146.856,1.078.029,2.04-.844,3.3-.066a10.167,10.167,0,0,0,3.258.8,5.136,5.136,0,0,1,1.112.106,22.889,22.889,0,0,1,4.542,2.229,1.881,1.881,0,0,0,2.852-.116c1.217.079,2.218.423,2.935.122a2.461,2.461,0,0,1,3.291.817c1.323,1.919,2.824,2.331,4.986,1.485,1.629-.645,3.524.356,5.242-.511.267-.138.928.34,1.306.65a4.8,4.8,0,0,1,.762,1.058c2.174-.329,4.23-.639,6.276-.946.889.4.956,2.219,2.457,1.463.628-.634.072-2.069,1.6-2.058.367.673.745,1.373,1.3,2.4,1.74-2.108,3.263-1.007,4.82-.051.378.234.99.589,1.229.449,1.657-.983,2.9-.305,4.169.757a1.782,1.782,0,0,0,1.318.288c1.234-.244,2.44-.616,3.83-.984.65.606,1.362,1.707,2.974,1.469-.15-.729-.278-1.363-.406-1.979,1.707-.839,2.035.8,3.03,1.451.834-.8,1.762-.657,2.9-.456,1.746.305,3.552.905,5.409-.006a8.526,8.526,0,0,1,2.963-.35,1.831,1.831,0,0,1,2,1.255c.278.7.584,1.39.889,2.119,2.168-.211,4.2-.417,6.215-.612.406-.455.762-1.2,1.323-1.417a6.482,6.482,0,0,1,5.82.166c1.151.679,1.935.8,2.724-.405.473-.718,1.279-1.145,1.973-.5a2.174,2.174,0,0,0,3.035.2c1.6.361,2.757.634,3.919.889a4.178,4.178,0,0,1,.906.127c3.519,1.851,4.586,5.259,2.463,8.683a2.7,2.7,0,0,1-1.968,1.4c-1.351.256-2.5,1.49-4.069.834-.083-.04-.289.111-.384.215-.9,1.073-2.168,1.146-3.385,1.185a2.663,2.663,0,0,0-1.968.99c-2.552,2.586-1.768,3.013-6.1,1.262a3.749,3.749,0,0,0-.623-.071c-.395,1.7-1.712,2.178-3.3,2.051-1.612-.134-3.241-1.045-4.786.222-.083.072-.3-.045-.45-.039a22.674,22.674,0,0,0-3.43.145,5.483,5.483,0,0,1-3.558-.35c-1.445-.668-3.1-1.59-4.625.061-.573-.506-1.028-.906-1.373-1.211a11.15,11.15,0,0,1-7.766-.719A8.262,8.262,0,0,1,134,357.557c-1.2.673-1.273-1.023-2.085-1.106a25.553,25.553,0,0,1-3.591.717,18.862,18.862,0,0,0-2.04.217,8.293,8.293,0,0,1-6.07-.446c-1.217-.611-2.135-.878-3.33.173-1.04.912-2.263.606-3.3-.406-.256-.255-.484-.54-.628-.706-1.64.384-3.052.817-4.5,1.011-1.368.177-2.874-.2-4.119.233a5.96,5.96,0,0,1-4.219-.289,1.927,1.927,0,0,0-.695.007c-.684.049-1.373.094-2.062.122a24.733,24.733,0,0,1-4.353-.14,15.357,15.357,0,0,1-2.763-.589c-.178.323-.317.65-.461.944a2.534,2.534,0,0,1-.478.712A4.036,4.036,0,0,1,87.6,359c-.122.027-.245.05-.372.077-1.368.317-2.774.478-4.13.84-1.117.3-2.1.484-3.019-.434a2.907,2.907,0,0,0-.934-.433c-1.545,1.15-2.969,2.38-4.731,2.78a5.138,5.138,0,0,1-1.178.138,5.829,5.829,0,0,1-.923-.067,1.168,1.168,0,0,0-1.456,1.056l-.022.06a8.854,8.854,0,0,1-.35,1.219,4.344,4.344,0,0,0-1.39-.284,3.25,3.25,0,0,0-2.713,1.384,4.356,4.356,0,0,1-2.529.944c-.851.146-1.668.14-2.251.946a1.44,1.44,0,0,1-.884.5c-.033.007-.061.029-.083.029a4,4,0,0,0-1.234.25,5.044,5.044,0,0,0-2.2,1.728c-.245.312-.478.639-.712.99-.834,1.24-1.762,2.4-3.458,2.14a3.534,3.534,0,0,1-.484-.094c-.322-.095-.806.3-1.19.51-.45.251-.878.551-1.334.84-.478-.345-.828-.65-1.217-.883-1.134-.679-1.89-.452-2.4.711a6.625,6.625,0,0,0-.178.673c-.523,1.584-.528,1.589-2.29,1.211-.517-.111-1.017-.282-1.734-.489.156,1.268.25,1.98.356,2.841-2.713.873-5.32,1.629-7.86,2.58a3.08,3.08,0,0,0-2.324,2.645,3.006,3.006,0,0,1-1.645,2.547,30.79,30.79,0,0,0-4.164,3.625,27.54,27.54,0,0,0-2.457,3.313,20.978,20.978,0,0,0-2.679,3.975c-.523,1.317-.389,2.89-.561,4.357a2.5,2.5,0,0,0,1.557,2.785,11.707,11.707,0,0,1,2.679,2.135c1.384,1.378,2.663,2.868,4.036,4.258l.089.089a1.425,1.425,0,0,0,1.229.35,2.741,2.741,0,0,1,.334-.083,2.468,2.468,0,0,1,2.546.884l.078.06a5.234,5.234,0,0,0,1.9,1.113c2.579.806,5.3,1.156,7.71,2.513a1.178,1.178,0,0,0,.656.194c1.423-.151,2.257.772,3.185,1.606a5.024,5.024,0,0,0,2.074,1.357c1.273.25,2.4.45,3,1.79a1.515,1.515,0,0,0,.945.623c1.551.422,3.107.873,4.686,1.144,1.484.262,3.3-.15,4.436.573a7.223,7.223,0,0,0,4.264,1.034,6.985,6.985,0,0,1,3.791.885c1.512,1.056,3.019.905,4.62.849a3.322,3.322,0,0,1,1.373.029c2.2,1,4.386.627,6.61.188a2.834,2.834,0,0,1,1.985.183c1.6,1.2,3.469.6,5.175.995a2.006,2.006,0,0,0,1.245-.438c1.618-1,2.118-.89,3.007.784.306.583.378,1.373,1.418,1.357.245-.774.484-1.541.728-2.324,2.351,1.244,2.351,1.244,4.608-.891a7.6,7.6,0,0,1,1,1.479c.645,1.7,1.879,2.213,3.619,2.33a17.061,17.061,0,0,1,3.73,1.056c.506.162.984.411,1.5.539.172.045.406-.144.656-.255-.033-.61-.067-1.2-.1-1.823a3.593,3.593,0,0,1,3.619.234,2.651,2.651,0,0,0,2.841.082,2.905,2.905,0,0,0,1.979-2.329c.145-.984.812-1.88,1.885-1.657,1.868.389,3.686,1.044,5.515,1.607.278.089.656.439.778.354,1.145-.777,2.218.085,3.269.173,1.423-2.484,1.423-2.484,2.613-1.951a5.553,5.553,0,0,0-.422,1.963c.067.461.723.829,1.117,1.235.289-.323.845-.679.812-.973-.239-2.079.561-3.224,2.7-3.347.067-.005.133-.077.189-.133.917-.918,1.746-.629,2.674.061a5.343,5.343,0,0,0,1.707.633,18.509,18.509,0,0,1,2.652.746,3.334,3.334,0,0,0,3.686-.385c.823-.583,1.323-2.068,2.813-1.15.089.056.539-.473.823-.734A15.885,15.885,0,0,1,154,421.609c1.762-1.251,3.335-.963,4.57.823.261.378.384.861.673,1.212a5.183,5.183,0,0,0,.99.75,3.336,3.336,0,0,0,.217-.645c.067-2.379.439-2.663,2.757-2.04a2.06,2.06,0,0,1,.445.133,2.755,2.755,0,0,0,3.424-.4,2.044,2.044,0,0,1,1.229-.589c3.208.006,6.493-.607,9.512,1.077.778.44,1.64.785,2.385.151a3.286,3.286,0,0,1,3.28-.462,27.454,27.454,0,0,0,3.135.795,2.291,2.291,0,0,0,1.645-.439c.567-.54.15-1.107-.372-1.563a5.172,5.172,0,0,1-.673-.923c1.412-.888,2.691-1.7,4.064-2.568a11.681,11.681,0,0,0,1.062,1.313c.445.394.962.95,1.473.979a2.306,2.306,0,0,1,2.174,1.422c.128.256.561.356.9.551.7-2.357.7-2.363,3.091-3.152a13.428,13.428,0,0,0,2.2-.728,7.571,7.571,0,0,0,2.129-1.612c1.673-1.936,4.014-2.313,6.265-2.947a1.036,1.036,0,0,1,.45.095c1.49.394,1.74,1.128,1,2.529a5.343,5.343,0,0,0-.539,1.9c-.128,1.228-.823,2.39-2.007,2.413-1.584.033-2.985,1.45-4.7.522-.289-.151-1.078.255-1.418.611-.939.957-1.757,2.034-2.718,3.175-.094-.061-.345-.205-.584-.371-1.557-1.063-1.985-.952-2.919.7-.139.256-.328.617-.556.671-1.629.4-2.279,1.631-2.969,3-.828,1.652-2.074,1.8-3.574.684-.239-.184-.5-.318-.878-.551-1.112.523-2.19,1.113-3.335,1.546a11.234,11.234,0,0,1-2.407.5c-1.812.271-3.641.483-5.453.788-.328.061-.6.45-.889.707-1.067.955-2.135,1.913-3.174,2.846-.923-.384-1.779-.745-2.774-1.167a13.963,13.963,0,0,0-.35,1.427c-.15,1.074-.712,1.618-1.746,1.134a2.586,2.586,0,0,0-2.618.328,2.472,2.472,0,0,1-2.83.166,5.137,5.137,0,0,0-1.4-.377c-.856,1.917-2.8,2.257-4.314,2.229A9.1,9.1,0,0,0,153.5,439.4a8.015,8.015,0,0,1-1.746.612c-2.4.544-4.814,1.04-7.216,1.589a2.375,2.375,0,0,0-1.006.546,1.973,1.973,0,0,1-2.518.3c-1.04-.528-1.523-.157-1.8.966-.167.7.306,1.6-.839,2.124-.567-.567-1.178-1.167-1.818-1.8-.617.646-1.134,1.64-1.629,1.629-1.4-.021-2.307.846-3.385,1.379-1.134.557-2.19,1.1-3.5.4a1.514,1.514,0,0,0-1.44.277c-1.873,2.468-4.909,2.791-7.427,3.98-1.69.8-3.608,1.063-4.975,2.557-.233.252-.845.246-1.279.234-1.729-.049-3.019.445-3.513,2.32a1.752,1.752,0,0,1-2.346,1.294c-.445-.1-.884-.188-1.24-.273a2.693,2.693,0,0,0-.489.34c-1.373,1.534-2.807,2.89-5.159,2.445-.378-.072-.856.262-1.262.45a9.012,9.012,0,0,1-1.612.834,3.259,3.259,0,0,0-2.535,2.373c-3.124-.315-5.148,2.3-7.927,2.824-.183.04-.311.34-.489.485-1.484,1.223-2.791,2.89-4.5,3.563-2.969,1.178-4.6,3.809-7.015,5.564-2.385,1.73-4.258,4.147-7.277,5-.473.134-.873.819-1.14,1.324a8.988,8.988,0,0,1-4.592,4.4,7.766,7.766,0,0,0-2.24,1.9c-1.34,1.379-2.613,2.824-3.93,4.23-1.885,2.013-4.6,3.2-5.887,5.854-.206.439-.8.706-1.24,1.007-1.84,1.3-3.675,2.568-4.342,4.931a2.214,2.214,0,0,1-1.112,1.406,10.045,10.045,0,0,0-4.025,2.93c-.923.917-2.035,1.6-2.6,2.863-.172.383-.656.623-.984.944-.589.573-1.2,1.129-1.751,1.74a23.132,23.132,0,0,1-1.44,1.813c-3.169,2.934-6.059,6.131-9.006,9.288-1.89,2.03-3.069,4.859-5.937,5.938-.183.067-.267.378-.434.528-.745.677-1.429,1.767-2.268,1.907-2.14.356-3.052,1.994-4.436,3.24a33.314,33.314,0,0,1-5.042,3.136c-.106.427-.278,1.161-.445,1.851l-2.1.633c.439.722.784,1.284,1.078,1.768a4.676,4.676,0,0,1-.2.583c-1.006,1.713-1.028,2.3-.095,3.286,1.023,1.073,2.057,1.252,3.486.228,2.946-2.119,5.876-4.264,8.661-6.583,1.812-1.506,3.313-3.307,5.687-4.124,1.112-.384,2.018-1.351,3.347-1.423a1.476,1.476,0,0,0,1.112-.7c.6-1.438,1.9-2.167,2.874-3.212,1.056-1.14,2.368-1.967,3.341-3.113,1.2-1.423,1.784-3.307,3.9-3.974.828-.256,1.345-1.435,2.057-2.146,2.213-2.219,4.97-3.875,6.637-6.654a2.187,2.187,0,0,1,1.273-.962,3.86,3.86,0,0,0,2.5-2.207,18.948,18.948,0,0,1,1.885-2.034c.639-.757,1.151-1.613,1.818-2.342a22.045,22.045,0,0,1,2.318-2.128c.461-.373,1.345-.5,1.506-.935.728-1.939,2.313-2.818,4.414-3.713a5.029,5.029,0,0,1-.178-1.484,1.521,1.521,0,0,1,.706-1.085c1.334-.511,2.718-.928,4.1-1.323.99-.284,2.1-.517,2.263-1.673.178-1.268,1.034-1.791,1.912-2.441a24.128,24.128,0,0,0,2.174-2.046,5.809,5.809,0,0,1,1.167-1.094c1.657-.846,2.513-2.992,4.742-2.93.161,0,.378-.266.5-.456a2.758,2.758,0,0,1,2.368-1.157,3.091,3.091,0,0,0,2.112-1.094,9.561,9.561,0,0,1,5.52-4.625c.361-.106.584-.634.923-.9,1.684-1.305,3.335-2.663,5.114-3.836,1.134-.745,2.713-.928,3.652-1.824,2.574-2.456,6.315-2.512,8.972-4.679a.428.428,0,0,1,.222-.061l5.615-1.4c.095-1.629,1.056-2.239,2.452-2.7a14.527,14.527,0,0,0,4.558-2.224c1.362-1.089,3.6-.711,4.353-2.712.067-.179.556-.3.828-.267a6.328,6.328,0,0,0,3.73-.995c1.3-.658,2.741-1,4.1-1.541,1.167-.467,2.3-1.034,3.786-1.712.856.284,2.146.651,3.052-.845a1.157,1.157,0,0,1,.806-.411c3.341-.24,6.382-2.218,9.867-1.663a1.354,1.354,0,0,0,.978-.506c1-1.245,2.407-1.266,3.8-1.383.606-.056,1.39.078,1.784-.245,1.44-1.189,2.49-.678,3.5.861a22.563,22.563,0,0,1,1.4-1.8,3.684,3.684,0,0,1,1.256-.917c2.579-.973,5.465-.923,7.911-2.4.406-.239,1.062-.023,1.59-.084,2.073-.239,4.153-.444,6.2-.794a3.261,3.261,0,0,0,1.757-1.013,3.78,3.78,0,0,1,4.175-1.2,2.074,2.074,0,0,0,1.679-.26,3.33,3.33,0,0,1,3.035-1.069c1.512-.9,2.574-1.578,3.68-2.172.606-.333,1.4-.389,1.9-.817a2.328,2.328,0,0,1,3.107-.294c1.3-.928,2.474-1.8,3.68-2.618a1.779,1.779,0,0,1,2.235-.1c-.356,1.161-.7,2.061-.9,2.99-.25,1.163-.573,1.452-1.718,1.2-.534-.111-1.062-.267-1.6-.406-.078.139-.156.289-.233.429.628.695,1.256,1.394,2.107,2.34-2.49,1.511-2.974,5.076-6.754,4.786.167,2.157-1.212,3.152-2.546,4.263a13.474,13.474,0,0,0-4.292,5.681,2.344,2.344,0,0,1-.889,1.306,7.489,7.489,0,0,0-3.419,3.491c-.434.811-1.273,1.429-1.545,2.463a1.962,1.962,0,0,1-1.145,1,3.255,3.255,0,0,0-2.29,2.663,2.23,2.23,0,0,1-.256.655,1.377,1.377,0,0,1-.606.629c-1.579.594-1.985,1.79-1.846,3.353-2.39.756-3.958,2.14-4.431,4.647-.106.562-.873.989-1.334,1.479a24.9,24.9,0,0,0-2.2,2.334c-.578.767-.867,1.763-1.445,2.546a29.286,29.286,0,0,0-4.308,6.827,4.618,4.618,0,0,1-1.179,1.362c-1.156,1.128-2.324,2.245-3.474,3.374-.372.361-.745.723-1.106,1.09-.928.95-1.751,2-2.774,3.2.828,1.817.25,3.4-1.773,4.553a3.014,3.014,0,0,0-1,1.506c-.728,1.857-1.3,3.785-2.09,5.614-1.29,2.964-2.724,5.86-4.047,8.817a16.506,16.506,0,0,0-.528,2c-.756,2.508-1.412,5.059-2.34,7.5-.228.6-.523,1.184-.806,1.761-.167.329-.317.651-.467.979a6.276,6.276,0,0,0-.65,3.236l.006.094c.044.346-.222.722-.35,1.09-.3.85-.667,1.69-.889,2.568-.4,1.546-.4,3.286-1.128,4.642-1.156,2.157-.856,4.447-.939,6.7a12.936,12.936,0,0,1-.122,1.467c-.367,2.379.478,4.96.889,7.427.222,1.357.762,2.663.989,4.02.678,4.08,2.39,7.416,6.171,9.516,1.062.59,1.868,1.546,3.28,1.419.389-.039.8.639,1.262.878,1.14.589,2.318,1.562,3.48,1.567,1.44.011,2.874-.812,4.319-1.262a3.661,3.661,0,0,1,1.512-.367,2.766,2.766,0,0,0,2.785-1.263,16.329,16.329,0,0,1,1.79-1.568c-.006,1.19-.006,1.823-.006,2.674.361-.061.628-.027.8-.144,2.035-1.379,4.381-1.328,6.676-1.607a7.608,7.608,0,0,0,2.251-.973c.662-.329,1.29-.962,1.957-.99a3.516,3.516,0,0,0,2.88-1.612c.7-.923,1.451-2.007,3.063-1.923-.044.615-.083,1.106-.133,1.711.895-.388,1.712-.75,2.557-1.117.261-.917.45-1.835.784-2.7.445-1.146,1.19-1.575,2.146-.973,2.073,1.306,4.014.2,5.7-.49a46.572,46.572,0,0,0,6.927-4.113,15.414,15.414,0,0,1,2.207-1.634,3.235,3.235,0,0,0,2.068-2.557c.145-.546.539-1.334.951-1.424.445-.094,1.04.49,1.662.834.233-.817.461-1.612.65-2.285a31.68,31.68,0,0,0,9.339-6.137c-.128-.823-.245-1.545-.35-2.228,1.023-.361,2.329-.435,2.629-1.019.667-1.311,1.784-.911,2.5-1.084.756-.977,1.4-1.733,1.951-2.563a2.523,2.523,0,0,0,.55-1.435c-.128-1.417.623-1.806,1.807-1.772a1.963,1.963,0,0,0,1.929-1.344c.511-1.019,1.251-1.907,1.829-2.886a9.361,9.361,0,0,0,1.59-3.057c.25-1.628.939-2.546,2.674-2.745-.378-1.686-.017-2.836,1.779-3.209.345-.066.689-.8.784-1.279a14.861,14.861,0,0,1,3.413-6.452c1.1-1.363,2.7-2.263,3.313-4.065.145-.417.322-.828.5-1.24a24.553,24.553,0,0,0,1.679-4.086c.05-.2.111-.388.161-.589q.367-1.385.812-2.729c.239-.722.495-1.429.762-2.135.467-1.233.962-2.451,1.5-3.658.25-.555.322-1.267.717-1.667a5.124,5.124,0,0,0,1.145-1.863c.239-.634.417-1.284.639-1.917.067-.19.139-.378.217-.573,1.084-2.563,2.424-5.021,3.63-7.533.756-1.594,2.39-2.774,2.752-4.725.083-.472.628-.855.951-1.279a8.059,8.059,0,0,0,.812-1.117c.928-1.84,1.818-3.7,2.752-5.626a3.1,3.1,0,0,0,3.163-1.523,1.808,1.808,0,0,1,2.674-.439,6.015,6.015,0,0,1,2.357,4.052c.434,2.885-1.156,5.559-.545,8.4a.942.942,0,0,1-.217.639,10.7,10.7,0,0,0-1.59,6.41,2.205,2.205,0,0,1-.439,1.49,3.324,3.324,0,0,0-.284.3,2.6,2.6,0,0,0-.389,2.124c.011.11.028.212.044.322a2.724,2.724,0,0,1-1.468,2.918c-.389.212-.778.429-1.44.8,1.7,1.8.65,3-.823,4a3.813,3.813,0,0,1-.05,2.386,3.138,3.138,0,0,1-.506.844c-.039.04-.056.09-.095.134a3.591,3.591,0,0,0-.639,1.379,1.354,1.354,0,0,1-.056.161c-.033.116-.072.222-.111.334-.189.494-.189,1.157-.528,1.478-1.545,1.451-1.64,3.375-2.012,5.264-.372,1.869-.667,3.976-1.729,5.426-1.8,2.451-2.135,5.22-2.663,7.954-.467,2.447-.445,4.976-.745,7.456a15.119,15.119,0,0,1-.795,2.83,53.023,53.023,0,0,0-2.124,6.543,59.261,59.261,0,0,0-1.106,9.639,45.429,45.429,0,0,0,.634,7.744c.039.233.067.472.1.711.4,2.652-.689,5.386.528,7.966-.884,2.568-.178,4.843.923,7.233.667,1.462.4,3.324.823,4.936l.028.14c.606,2.39.834,4.874,2.185,7.1s1.523,4.9,2.8,7.261c1.634,3.04,2.6,6.437,4.725,9.26a6.267,6.267,0,0,1,.889,1.875c.517,1.639,1.084,3.157,3.263,2.578.884,2.241-1.24,1.174-1.862,2a1.883,1.883,0,0,0,.65,2.467c1.128-.411,2.207-1.522,3.2-.321.895,2.7-2.235,3.458-2.418,5.636,1.646.44,2.635-.589,3.769-1.552.523,1.084.951,1.968,1.229,2.552,1.217.373,2.424.405,3.007,1.033.562.591.467,1.8.628,2.564.967.472,2.463.777,2.574,1.356.35,1.812,1.668,2.907,2.479,4.358a2.5,2.5,0,0,0,2.54,1.6,1.752,1.752,0,0,1,1.885,1.384,4.724,4.724,0,0,0,4.458,3.374,4.367,4.367,0,0,1,3.28,1.5c2.941,3.458,7.371,5,10.557,8.145a1.129,1.129,0,0,0,.628.266c3.391.339,5.459,3.586,8.811,4,.061.011.117.1.183.146,1.94,1.234,3.8,2.623,6.176,2.99,1.134.173,2.229.606,3.358.768a22.874,22.874,0,0,0,5.009.439,7.757,7.757,0,0,1,3.057.528c1,.294,2.207-.233,3.319-.244.361-.006.728.5,1.151.811,1.923-2.055,3.591.428,5.537.146-.067-.713-.128-1.435-.2-2.209,2.079-.695,1.112,1.435,2.224,2a7.16,7.16,0,0,0,1.334-1.084c.545-.7,1.106-1.128,1.957-.645,1.2.673,2.2.24,3.274-.344a5.574,5.574,0,0,1,1.962-.523,26.983,26.983,0,0,1,2.924-.133c1.445-.006,2.852-.7,4.347-.017.439.2,1.2-.123,1.734-.373a24.7,24.7,0,0,0,2.263-1.379c1.1.485,2.257.918,3.413-.038a1.372,1.372,0,0,1,1.1-.172,9.956,9.956,0,0,0,9.222-1.575.477.477,0,0,1,.217-.061c3.508-.578,6.665-2.39,10.251-2.812a7.515,7.515,0,0,0,4.08-2ZM492.883,417.578c.189.19.139.623.245,1.246-.612-.239-1.062-.283-1.223-.517s-.011-.662,0-1c.339.077.767.061.978.271M589.7,108.056a2.341,2.341,0,0,1-.094-.722c.211.006.473-.061.617.044.117.084.095.368.15.633-.289.023-.645.106-.673.045m-.472,10.023c-.245-1.311-.561-2.562-.684-3.84-.072-.828.15-1.578-.906-2.074-.573-.267-.284-1.146.345-1.161a3.2,3.2,0,0,0,2.4-1.14,1.1,1.1,0,0,1,1.034-.056,1.2,1.2,0,0,1,.334.984c-.25,1.819-.534,3.636-.878,5.447-.15.79-.311,1.692-1.64,1.84m-.4,3.691a1.81,1.81,0,0,1-.078-.827,6.563,6.563,0,0,1,1.179-.156,5.011,5.011,0,0,1-.539.989.668.668,0,0,1-.562-.006M333.889,17.529c-.728-.729-.25-2.3,1.184-3.326.422-.3,1.162-.166,1.534-.2a2.6,2.6,0,0,1-.161,3.458,2.109,2.109,0,0,1-2.557.072m12.958,2.746c-.011.206.056.477-.05.589s-.384.056-.689.079c.056-.295.033-.573.156-.662s.384-.011.584-.005M260.788,54.863c.056-.123.089-.3.183-.352.078-.038.233.073.356.117-.056.117-.089.289-.183.345-.078.04-.233-.072-.356-.11m49.726-5.471c.1-.378.094-.722.261-.878.117-.117.473.021.717.045a2.807,2.807,0,0,1-.228.783c-.067.106-.384.034-.75.051m3.686,1.172c.578,2.491.445,2.915-1.156,3.941-1.784-2.356-1.512-3.39,1.156-3.941m-33.087,18.78c.083-.161.167-.456.256-.456.178-.005.356.149.534.239-.067.117-.133.239-.233.412l-.556-.194m53.022-6.477a2.917,2.917,0,0,1,.078-2.384c.689-1.673,1.34-3.23.423-5.087a3.268,3.268,0,0,1,.233-2.246,4.319,4.319,0,0,0-.6-4.159,3.948,3.948,0,0,1-.656-2.135A3.549,3.549,0,0,0,332,43.489a1.32,1.32,0,0,1-.567-.7,1.6,1.6,0,0,1,.161-1.057.958.958,0,0,1,.817-.177,16.215,16.215,0,0,1,1.857.69c-1.078-2.27.094-3.614,1.19-4.988.195-.24.489-.534.472-.778-.206-2.536,1.29-4.7,1.479-7.127a12.975,12.975,0,0,0-.322-2.573c.589-.329,1.167-.646,1.773-.984-.278-1.935-1.078-3.731-.756-5.609.167-.061.339-.123.506-.19.278.362.7.7.795,1.1a7.873,7.873,0,0,1,.011,1.846A1.84,1.84,0,0,0,340.894,25a3.442,3.442,0,0,1,2.713,3.273,7.9,7.9,0,0,0,2.162,3.7,2.659,2.659,0,0,1,.689,2.707c-.322,1.4-.695,2.719.15,4.226a2.288,2.288,0,0,1-1.039,3.19,2.95,2.95,0,0,0-.917,1.485c-.289.744-.456,1.534-.712,2.418.245.2.589.489,1.062.873-.306,1.285-.628,2.625-.99,4.136a5.133,5.133,0,0,1,1.145.823,6.553,6.553,0,0,1,.695,1.474c-1.017.134-1.734.222-2.857.367a9.186,9.186,0,0,0,1,1.1c.445.339,1.24.511,1.362.912.239.794-.467,1.2-1.162,1.456-.278.1-.545.245-1.123.512.756.578,1.229.934,1.746,1.334-.189.272-.295.584-.439.605-.762.106-1.523.134-2.29.178-1.534.106-1.918.445-2.457,2.323.417-.038.773-.056,1.123-.111.734-.116,1.267.167,1.362.9.111.862-.467,1.267-1.251,1.34-.534.05-1.084-.011-1.623,0-2.368.045-2.568.266-2.535,2.629a3.846,3.846,0,0,1-.272.963c-1.379-.188-1.684-1.069-1.612-2.14a3.543,3.543,0,0,0-.689-2.791M275.342,85.831a.964.964,0,0,1,.061-.761,1.62,1.62,0,0,1,1-.04c.1.029.067.517.117,1a4.593,4.593,0,0,1-1.178-.195M287.6,83.8a1.387,1.387,0,0,1-.006-1.356c.228-.272,1.179-.389,1.306-.212a6.223,6.223,0,0,1,.45,1.974c-.884-.178-1.534-.128-1.751-.406M332.761,72.04c.467-2,.99-2.274,2.34-1.284.606.444,1.167.962,2.079,1.718-2.007,1.674-3.1-.116-4.419-.434M226.161,113.9a2.186,2.186,0,0,1,.278-.771.63.63,0,0,1,.606.055,3.093,3.093,0,0,1,.078,1c-.461-.133-.712-.212-.962-.279M331.81,88.923a14.982,14.982,0,0,0-1.562-.885c-2.046-.8-2.852-2.6-1.407-4.109,1.407-1.478,1.3-3.424,2.268-4.981.2-.315.006-.894-.033-1.344-.172-2,.372-2.528,2.363-2.123a14.067,14.067,0,0,1,1.951.695c.645.221,1.29.438,2.435.828-.817.456-1.19.694-1.584.877-1.584.734-2.218,2-1.379,3.5.695,1.235.395,2.007-.25,3.136-.573.994-.5,2.351-.784,3.53a9.915,9.915,0,0,1-.673,1.563c-.45-.223-.9-.445-1.345-.684m-7.855,6.893c-.256-.006-.684-.206-.728-.394-.072-.318-.033-.863.172-1.007a18.385,18.385,0,0,1,2.268-1.173c-.139,1.79-.745,2.591-1.712,2.575M377.5,77.633a1.612,1.612,0,0,1-1.829-1.1.561.561,0,0,1-.072-.217,7.285,7.285,0,0,0-2.274-5.593c-.317-.35-.267-1.021-.423-1.528q-.4-1.3-.85-2.573c-.1-.289-.434-.573-.4-.824.434-3.185-2.59-4.3-3.941-6.371-1.362-2.09-1.812-2.862-.434-5.22-2.413-2.779-2.413-2.779-.884-5.33a2.934,2.934,0,0,1-1.812-3.441,1.841,1.841,0,0,0-.406-1.29,2.651,2.651,0,0,1-.306-3.207,2.436,2.436,0,0,0-.222-1.707c-.283-.712-.784-1.329-1.134-2.018-.422-.829-.867-1.684-.006-2.7,2.329.49,1.362,3.853,3.969,4.076-.989,1.8-.206,2.918.778,3.968,1.518,1.623,2.129,3.68,2.935,5.681.684,1.708.4,3.842,2.168,5.121.272.2.334.867.289,1.3a3.876,3.876,0,0,0,1.4,3.626c-.295.889-.545,1.65-.8,2.4.795.05,1.59.089,2.379.145.067.006.133.072.195.111.072.138.239.322.2.394-.723,1.334-.517,2.652-.384,4.126a24.444,24.444,0,0,0,1.323,6.3c.289.778.728,1.5,1.056,2.274a7.271,7.271,0,0,1,.695,1.906,1.368,1.368,0,0,1-1.206,1.685M25.947,234.559c-.561-.562-.2-1.167.378-1.464.322-.159,1.09-.116,1.162.04a7.013,7.013,0,0,1,.189,1.89c-.845-.212-1.44-.183-1.729-.467m108.006,16.8c.889.477,1.623.917,2.39,1.273a4.96,4.96,0,0,0,1.479.421c2.274.245,2.641.757,2,2.891-.245.812-.45,1.634-.673,2.457-.233-.028-.467-.061-.7-.088-.317-1.035-.628-2.075-.973-3.215-1.034.64.05,2.392-1.773,2.28-.1-.278-.356-.612-.334-.94a1.863,1.863,0,0,0-1.807-2.218,1.664,1.664,0,0,1-1.673-2,6.082,6.082,0,0,0-.6-1.9c2.24-.679,2.3-.65,2.668,1.04m41.8-21.78c.05.083-.039.244-.061.377-.128-.038-.311-.038-.367-.127s.033-.245.061-.372c.128.038.311.038.367.123m-63.423,15.553c.05.04-.022.234-.056.44a1.833,1.833,0,0,1-.495-.284c-.05-.05.033-.239.05-.366a2.31,2.31,0,0,1,.5.21m-30.1,18.04a13.351,13.351,0,0,1-3.2-.5,9.332,9.332,0,0,1-6.471-4.907,20.8,20.8,0,0,0-1.607-2.341c.523-.473,1.084-.939,1.607-1.451,1.123-1.1,1.912-1.177,2.852.017a5.171,5.171,0,0,0,2.607,2.119c.523.149.973.933,1.212,1.528a23.208,23.208,0,0,1,.784,2.879c1.229.289,2.246.595,3.291.745.35.056.75-.267,1.134-.422a3.737,3.737,0,0,0-.728-.979c-.434-.283-1.051-.306-1.456-.618a1.564,1.564,0,0,1-.5-2.068c.467-.9,1.279-.789,2-.394a4.207,4.207,0,0,1,2.418,2.351c.317,1.006.806,1.962,1.334,3.219a16.013,16.013,0,0,1-5.281.817m20.457,4.941c-.122-.123-.133-.372-.195-.562.189-.011.434-.1.556-.022.145.1.178.351.311.655-.311-.027-.561.023-.673-.071m36.212,9.346a9.3,9.3,0,0,0-.684-1.846,8.429,8.429,0,0,0-1.329.566c-2.012,1.363-2.074,1.368-3.48-.494-1.145-1.517-2.023-1.535-3.308-.067a2.65,2.65,0,0,1-3.624.623,5.984,5.984,0,0,1-1.807-1.758,1.655,1.655,0,0,0-2.14-.811c-1.179.35-2.357.7-3.552.99a6.271,6.271,0,0,1-1,.117c-.272.018-.584.039-.984.073.145-.2.272-.373.384-.53.334-.462.545-.756.762-1.033.261-.339.545-.662.962-1.151a2.469,2.469,0,0,0-3.235.566c-.111.129-.211.217-.317.323-1.229,1.212-1.668.973-2.5-.917a4.064,4.064,0,0,0-.411-.734,2.418,2.418,0,0,0-1.034-.845,8.231,8.231,0,0,0-2.646-.451c-.245-.589-.484-1.227-.762-1.856A3.521,3.521,0,0,0,105.724,266a11.089,11.089,0,0,1-2.674-1.357c-1.923-1.117-2.8-.967-3.886,1l-.039.043c-.589,1.013-1.54,1.135-2.463,1.413-1.162.35-1.568-.45-2.1-1.307a10.234,10.234,0,0,0-5.259-4.686c-1.017-1.284,1.24-3.1-.817-4.159a1.526,1.526,0,0,1,.573-.605,1.212,1.212,0,0,1,1.256.223,10.763,10.763,0,0,1,1.3,1.311,1.739,1.739,0,0,0,2.29.479,3.767,3.767,0,0,1,4.542.411c.962.762,1.8.672,2.807-.239.45.944.739,1.556,1.09,2.278.578-.128,1.078-.255,1.59-.34.384-.066.773-.116,1.156-.172.578-.088,1.156-.189,1.734-.256.3-.034.617.077.923.05,2.463-.223,2.463-.228,3.28,1.973,1.317,0,2.746-.05,3.085,1.846.044.272,1.167.683,1.523.505,1.323-.667,2.485-.144,3.769.029a33.637,33.637,0,0,0,5.487-.134,7.817,7.817,0,0,1,.478.874,1.546,1.546,0,0,0,1.84,1.045A11.287,11.287,0,0,1,134.8,267.7a3.511,3.511,0,0,0,3.524.284,1.75,1.75,0,0,1,2.24.717,2.009,2.009,0,0,0,2.629.706,4.658,4.658,0,0,1,2.285-.056,37.33,37.33,0,0,1,5.47.991,7.774,7.774,0,0,1,5.42,4.568c.823-.611,1.451-1.072,2.3-1.7a6.09,6.09,0,0,1,.65,1.435c.384,2.663,1.351,3.8,3.88,4.43,1.651.413,1.873.763,1.4,2.409-.422-.138-.851-.25-1.251-.423a1.2,1.2,0,0,0-1.723.594c-1.645,2.735-2.646,2.724-4.247.027l-.011-.01c-1.829-.311-3.258-.555-4.742-.806-.033.272-.161.534-.072.689.584,1.063,1.067,2-.156,3.063-1.117.979-2.1,1.84-3.675.968a2.316,2.316,0,0,0-1.34-.172,5.915,5.915,0,0,1-4.8-1.751,9.7,9.7,0,0,1-3.675-6.2m-21.119,13.469c.128-.284.206-.462.284-.634a2.4,2.4,0,0,1,.517.257c.05.037-.028.35-.095.366a2.563,2.563,0,0,1-.706.011m9.345,4c-1.317-.523-2.713-.861-4.253-1.34.117-.395.295-1.006.523-1.775-.689-.122-1.329-.227-2.285-.4a6.576,6.576,0,0,1,.1-2.09,3.5,3.5,0,0,1,.156-.332,1.743,1.743,0,0,1,2.274-.891c.183.584.372,1.179.561,1.758.206.649.411,1.295.623,1.968,1.262-.006,2.44-.7,3.78-.535a3.367,3.367,0,0,1,1.373.489v.022c-.095.551-.195,1.073-.272,1.6-.289,1.984-.789,2.234-2.579,1.528m8.617-.69a2.877,2.877,0,0,1,1.229-.672c-.178.472-.322.855-.456,1.2s-.245.651-.361.956c-.628-.673-.717-1.122-.411-1.484m37.312-8.371c.083.122-.017.377-.05.706a2.5,2.5,0,0,1-.573-.373c-.05-.077.028-.383.078-.388.183-.029.473-.045.545.056m-31.642,11.162c-.278.007-.561-.011-.862-.033-.5-.039-1.062-.1-1.829-.156.172-.149.328-.26.489-.389a8.893,8.893,0,0,1,3.141-1.651c.873,1.807.712,2.2-.939,2.229m22.358-7.077c.122-.394.15-.884.406-1.138a1.062,1.062,0,0,1,.973.01,4.075,4.075,0,0,1,.056,1.384l-1.434-.256m-16.76,8.516a6.106,6.106,0,0,1-.317-1.367c.334.023.828-.089.956.084a3.1,3.1,0,0,1,.3,1.156c-.067.206-.128.411-.195.617-.256-.167-.639-.262-.745-.49m28.4-9.516c-.117-.156.011-.5.033-.751.206.028.489-.021.595.1a3.815,3.815,0,0,1,.395.989c-.556-.167-.906-.167-1.023-.334m-24.821,10.484c.311-.623.384-1.04.628-1.2.628-.417.662-.377,1.679.929-.889.1-1.429.167-2.307.273m28.879-9.59c-.178-.011-.523-.444-.484-.617.167-.756.689-.883,1.379-.639.15.817-.106,1.29-.9,1.255m-16.277,11.174c.172-.484.189-.855.356-.94a.917.917,0,0,1,.828.034c.145.1.15.716.089.739a6.634,6.634,0,0,1-1.273.166M352.607,505.244c-1.512,1.085-1.9.99-2.924-.761a2.3,2.3,0,0,1,2.924.761m-6.254-4.49a1.267,1.267,0,0,1,.873.862c.1.983-.322,1.767-1.679,2.318a14.373,14.373,0,0,1-.178-2.508,1.2,1.2,0,0,1,.984-.672m-1.9-5.2c.106.2-.028.75-.161.79-.3.088-.828.088-.973-.1-.617-.8-1.134-1.673-1.684-2.512.183-.14.356-.273.539-.406,1.212.227,1.773,1.217,2.279,2.223M243.144,200.187a.7.7,0,0,1,.339.178,2.9,2.9,0,0,1-.211.567c-.128-.072-.25-.139-.45-.245a3.112,3.112,0,0,1,.322-.5m31.442,103.938-.178-.506c.078-.011.128-.038.206-.043-.006.183-.017.371-.028.55m10.907-35.867a26.622,26.622,0,0,1,3.452-.2c.1,1.352-.795,1.623-1.462,2.073-1.645,1.1-1.645,1.1-1.051,2.98.484,1.523,1.351,3.007.2,4.775-1.034-.194-2.285-.64-3.213.544-.15,1.413,1.773,2.313,1.034,3.837-.561,1.145-1.3,2.2-2.068,3.491a2.327,2.327,0,0,1-.467,3.392,3.024,3.024,0,0,0-.667,1.561c-.445,1.925-.122,4.02-1.534,5.726-.306.367-.111,1.179-.095,1.784.028.879.039.873-1.117,1.708-.133-.067-.361-.129-.372-.217-.222-1.806-.434-3.613-.617-5.426a1.43,1.43,0,0,1,.133-.905,4.348,4.348,0,0,0,.684-4.28c-.139-.451.978-1.3,1.684-2.158a3.566,3.566,0,0,1-.25-1.033c0-.646-.078-1.5.283-1.885a3.669,3.669,0,0,0,.845-3,45.686,45.686,0,0,1-.072-5.086,4.753,4.753,0,0,1,.773-2.613c1.017-1.255,2.129-2.368,2.485-4.064.089-.427.878-.917,1.412-1.011M298.8,237.271c-.044.322-.005.59-.128.722a.553.553,0,0,1-.556-.05.649.649,0,0,1,.022-.605c.072-.106.378-.045.661-.067m.072-4.771c.567.723.345,1.374-.35,2.019-.284-.162-.4-.2-.406-.239-.022-.618-.033-1.241-.044-1.857.272.022.684-.072.8.077m38.363-34.4c-.017.684-.028,1.373-.05,2.48-.906-.24-1.6-.212-1.89-.534-.567-.662-.111-1.362.5-1.746a3.682,3.682,0,0,1,1.44-.2m6.921-12.325c.256,1.206-.812,2.557-2.318,3.036-.25-1.157.328-3.147,1.1-3.553.567-.3,1.084-.15,1.223.517m3.7-10.813c.195.307-.05,1-.261,1.44-.228.474-.75.8-.973,1.273-.945,2-.689,3.069.978,4.559-.5,1.351-1.334,2.069-2.351,2.013a3.339,3.339,0,0,1-2.313-2.069,1.527,1.527,0,0,1,.839-1.939,1.866,1.866,0,0,0,.94-2.858,3.135,3.135,0,0,1-.15-1.567c.089-1.017.272-2.034.445-3.3,1.534.128,2.157,1.384,2.846,2.451m5.937-17.21c.339-.006.789.4,1.017.739.55.813,1,1.685,1.6,2.7a2.249,2.249,0,0,1-.545.738,3.491,3.491,0,0,0-1.484,2.964,3.723,3.723,0,0,1-.9,2.228c-1.273,1.25-2.535.806-3.124-.89-.345-1.012-.762-2-1.234-3.219a5.968,5.968,0,0,0,3.775-4.442,1.266,1.266,0,0,1,.9-.817M323.077,170.8a1.677,1.677,0,0,0-.845,2.117,3.507,3.507,0,0,1-.322,1.974c-.122.322-.734.739-.978.656a1.546,1.546,0,0,1-.717-1.012,6.8,6.8,0,0,1,.061-1.374c-.011-1.077-.056-2.151-.094-3.512a13.047,13.047,0,0,0,1.162-2.174,1.26,1.26,0,0,1,1.3-1.045,1.277,1.277,0,0,1,1.406,1.24c.072,1.152.189,2.384-.973,3.13m32.192-14.47c.017-.178.039-.373.061-.562.139.034.367.034.4.106a2.2,2.2,0,0,1,.039.578l-.5-.122m4.859-2.836c.145,1.056-.339,1.446-1.445,1.669-.095-1.3.367-1.7,1.445-1.669m.039-4.291a1.65,1.65,0,0,1,.044,1.573c-.695.679-1.367.273-1.873-.545.372-.817.834-1.584,1.829-1.028m-5.259,2.239c-.095.228-.612.395-.928.39-.178-.006-.445-.4-.5-.661-.267-1.151.573-2.418,2.579-3.341-.473,1.528-.751,2.6-1.151,3.613m10.173-12.585c-.011.411-.017.817-.028,1.229l-.495-.067.161-1.172c.122,0,.239,0,.361.01m4-10.729a9.491,9.491,0,0,1-.4,1.6,3.588,3.588,0,0,0-.078,3.325,1.3,1.3,0,0,1-.523,1.967c-.723.417-2.507.228-2.78-.421a2.308,2.308,0,0,1,.089-1.875c.912-1.323,1.985-2.517,2.29-4.186.05-.267.528-.461.806-.69.2.1.395.189.595.278M391.042,113.4c.1.083.022.379.028.641-.295.016-.506.022-.717.033.017-.25.039-.506.061-.756.217.016.489-.034.628.083M291.4,136.141c.923,0,1.056.79,1.034,1.512a11.03,11.03,0,0,1-.284,1.585c-.083.45-.372,1.067-.183,1.329,1.006,1.4.345,3,.756,4.691-.434-.05-.65-.084-.867-.089-1.117-.044-1.712.589-1.1,1.2,1.5,1.45,1.323,3.907,3.363,5.031,1.034.566.8,1.518-.328,2.072a5.333,5.333,0,0,1-.823.284c.056,1.307.1,2.408.156,3.681.284.149.734.39,1.284.69-.189.339-.272.689-.484.827-.928.623-1.779,1.257-1.562,2.574a.827.827,0,0,1-.172.656c-1.434,1.09-1.512,2.435-1.084,4.064.111.411-.584,1.262-1.112,1.578a5.5,5.5,0,0,0-2.624,3.647,5.9,5.9,0,0,1-.978,1.795c-.778,1.151-1.723,2.213-2.385,3.424-1.073,1.974-2.88,2.269-5.125,2.636.256-.745.289-1.312.589-1.634a2.16,2.16,0,0,0,.195-3.107,10.254,10.254,0,0,1-.873-2.224c2.935-.474,3.235-2.535,3-4.569-.206-1.819.267-2.808,2.029-3.185.106-.023.172-.239.183-.262-.345-1.061-.617-2.056-.989-3.013a2.914,2.914,0,0,1,.978-3.5,8.944,8.944,0,0,0,1.262-2.663c.556-.072,1.362-.183,2.1-.278.595-.846.145-1.411-.328-1.934a2.64,2.64,0,0,1-.634-2.981,2.626,2.626,0,0,0-.561-2.578c-.673-1-.361-1.48.862-1.713,2.129-.406,2.763-1.1,3.013-3.275.183-1.6.367-3.191.55-4.786.078-.734.261-1.485,1.14-1.485m9.045-28.245a1.073,1.073,0,0,1,2.007-.083,7.705,7.705,0,0,1,.884,2.335c.217.951.261,1.935.411,3.124-.245.318-.645.851-1.14,1.49.823.723,1.562,1.374,2.568,2.257-.756.24-1.128.494-1.434.428a1.858,1.858,0,0,0-2.429,1.162c-.189.423-.956.662-1.507.852-1.49.5-1.545.55-1.451,2.334.873.134,1.968-.012,2.452.467.389.384.044,1.513.022,2.529-.945-.244-1.579-.411-2.263-.583-.106.206-.317.411-.295.589.272,2.213-.039,3.236-1.6,5.17a2.854,2.854,0,0,0-.245.785c.473.406.978.827,1.4,1.183.139,1.135-1.44,2.524-2.679,2.536-2.585.017-3.43-1.073-2.813-3.618.056-.228.222-.49.156-.668-1.067-2.8.973-5.019,1.4-7.532a1.59,1.59,0,0,1,.528-1.017c2.062-1.3,2.724-3.7,4.225-5.459,1.445-1.684,3.024-3.858,1.634-6.548a2.247,2.247,0,0,1,.167-1.729M143.982,376.524c-.306-.066-.6-.038-.684-.154-.095-.151-.006-.419,0-.634.206.016.495-.05.606.066s.05.4.078.722m29.346-76.781c.111-.088.367-.022.561-.027-.011.15.039.356-.033.423a3.051,3.051,0,0,1-.7.328c.072-.355.056-.618.172-.723m5.793.867a4.432,4.432,0,0,1,5.092,1.886,8.015,8.015,0,0,1-5.092-1.886m-1.251,3.57c.067-.234.072-.472.15-.5.578-.177,1.167-.315,1.751-.472-.006.345.128.812-.044,1a1.119,1.119,0,0,1-1.857-.027M224.8,316.931c.128-1.011.856-1.223,2.985-.788-.361,1-.667,1.839-.967,2.651-1.456-.211-2.146-.873-2.018-1.863m-91.635,61.756c1.156.106,1.156.106,1.284,1.428-.384-.428-.773-.862-1.284-1.428M82.2,406.282c.233-1.456.428-2.69.628-3.952,2,.517,2.518,1.079,2.368,2.368-.133,1.162-.6,1.45-3,1.583m55.918-9.583a5.609,5.609,0,0,1,.195-1.607c.067-.167.75-.077,1.49-.127a5.124,5.124,0,0,1-.356,1.806c-.122.189-.867-.033-1.329-.071m44.5,35.784c.1-.177.161-.466.311-.522a3.987,3.987,0,0,1,1.09-.006c-.345.438-.478.755-.662.794-.222.039-.495-.167-.739-.266m159.911,84.136c-.028-.166.122-.379.245-.539.022-.033.3.055.372.156a6.256,6.256,0,0,1,.439,1c-.75-.428-1.04-.5-1.056-.616" transform="matrix(0.07, -0.998, 0.998, 0.07, 0, 644.776)" fill="#fff" opacity="0.659"/>
</svg>
