<svg xmlns="http://www.w3.org/2000/svg" width="2162.813" height="2370.559" viewBox="0 0 2162.813 2370.559"><defs><style>.a{fill:#43a9e2;opacity:0.25;}</style></defs><path class="a" d="M915.52,1756.469c2.349-.984,4.685-1.951,7.183-2.982.112-1.979.435-4.353.36-6.725-.05-1.814,0-4.51-1.081-5.271-2.361-1.652-4.2.249-5.481,2.424a5.682,5.682,0,0,1-3.194,2.784c.137-4.388.273-8.8.423-13.272-5.431-5.7-4.772-13.012,1.864-18.913.746-.687,1.765-1.071,2.548-1.744,5.182-4.471,4.747-8.237-1.292-11.483a22.674,22.674,0,0,1-2.6-2.011c3.89-5.408,11.968-10.317,4.934-18.4-6.922,1.961-6.922,1.961-6.624,7.939.224,4.637-2.573,8.228-6.674,8.563-4.176.336-9.234-4.424-8.9-8.824.621-8.365,1.529-16.691,2.336-25.039.05-.511.336-1.084.174-1.517-2.585-7.817-.82-15.486.733-23.179.3-1.48-.124-3.354.646-4.462,1.205-1.727,3.07-4.087,4.747-4.15,2.921-.085,3.268,2.908,2.759,5.245-.771,3.7.907,5.657,3.84,7.518,1.206.759,2.5,3.031,2.212,4.276-1.007,4.448-1.765,9.4-4.325,12.938-2.746,3.8-2.038,7.779-2.9,11.619-.6,2.771,1.467,4.388,4.2,4.126,4-.373,7.979-1.156,12.589-1.841-.82-4.461-1.541-8.363-2.3-12.589-1.839-.722-3.666-1.428-5.468-2.135,1.119-5.443,5.916-1.6,8.762-4.015-.945-1.131-1.839-2.176-2.722-3.207-.82-.959-2.535-2.115-2.361-2.82,1.715-7.26-4.847-11.161-6.487-16.965-.3-1.044.51-2.449.945-3.652.92-2.636,1.951-5.235,3.07-8.153-4.946-1.054-4.822,5.131-8.712,5.307-2.846-1.578-1.641-3.42-.373-5.557a61.471,61.471,0,0,0,5.543-10.687,12.834,12.834,0,0,0-.3-7.383c-2.249-7.157-1.4-10.339,5.182-14.989a34.825,34.825,0,0,0-2.026-3.676,20.611,20.611,0,0,0-2.6-2.646c.41-.426,10.029-3.491,11.794-3.817-1.143-4.263-2.287-8.437-3.853-14.254-1.205,3.108-1.777,4.613-2.5,6.415-4.486-1-4.35-4.153-3.8-7.137.882-4.745,1.466-9.208-4.685-11.533,8.612-3.678,9.582-6.013,7.071-14.278a7.157,7.157,0,0,1,.211-4.947c1.839-3.207,1.479-6.152.833-9.581a68.375,68.375,0,0,1-1.131-15.173c.161-3.52.037-6.539-2.237-9.371a20.8,20.8,0,0,1-4.9-14.156c.186-5.306-.858-10.636-.858-15.955,0-2.128,1.392-4.251,2.336-6.888a34.457,34.457,0,0,1-3.977-5.131,22.433,22.433,0,0,1-2.411-6.835c-2.038-12.489-1.119-25.317-5.108-37.669-2.026-6.225-1.964-13.122-2.958-19.7-.684-4.537-.833-9.309-2.548-13.448-2.411-5.927-2.933-11.868-2.859-18.058.124-9.3-.646-18.43-6.437-26.321-.559-.758-1.156-2.076-.857-2.795,1.9-5.045-1.019-8.115-3.952-11.536-1.578-1.837-3.368-4.745-2.983-6.771,1.218-6.486-2.038-11.458-4.449-16.75-1.976-4.353-3.157-9.16-8.55-11.161-2.8-1.047-2.622-4.139-1.976-6.775.858-3.4,2.448-6.287,6.2-7.109a19.2,19.2,0,0,1,4.138.013c.646,5.334,2.287,9.336,7.519,12.255,3.753,2.112,7.457,6.362,7.457,11.906a5.088,5.088,0,0,0,.7,2.935c3.753,4.72,7.718,9.267,11.434,13.991,4.449,5.63,8.674,11.446,13.136,17.049,4.263,5.37,9.134,10.291,13.024,15.909,3.915,5.666,7.022,11.915,10.34,17.981,5.108,9.421,9.681,19.164,15.323,28.248,3.206,5.158,7.954,9.336,7.78,16.085a2.8,2.8,0,0,0,.932,2.063c9.284,7.578,10.228,19.8,16.317,29.142,1.255,1.914,2.548,3.838,3.679,5.841,1.243,2.211,3.107,4.423,3.355,6.783,1.181,11.958,7.693,22.2,10.452,33.68,2.672,11.173,7.034,21.923,9.967,33.059a36.461,36.461,0,0,1,.982,15.125c-1.33,7.53-2.175,14.924-1.442,22.531.149,1.341-1.056,2.807-1.578,4.222-.46,1.2-1.578,2.9-1.156,3.506,4.188,5.953-.783,12.4,1.206,18.444a4.962,4.962,0,0,1-.472,3.651c-5.257,8.788-4.8,18.654-5.232,28.26-.336,7.807.87,8.514,8.674,9.421,1.827.2,3.592.972,6.139,1.677-3.244,4.163-6.935,3.855-10.365,4.186-5.692.551-7.146,1.642-8.14,7.2-.559,3.22-.621,6.522-.957,10.128,4.014-.173,7.979-2.4,11.272,1.405,1.28,6.537-7.481,6.177-8.513,11.894,5.6,2.359,7.37,7.814,10.054,12.6.609,1.1,1.678,2.6,1.342,3.408a68.333,68.333,0,0,1-5.692,11.606c-.907,1.43-3.318,2.14-5.182,2.686-2.6.757-6.437.087-6.388,4,.075,4.175,3.828,3.007,6.475,3.357,1.417.16,2.759.917,4.909,1.678-1.541,2.6-2.759,4.684-4.163,7.032-3-.509-5.679-.968-8.476-1.441-3.144,4.535-1.765,9.272-1.069,13.6.646,4.1,1.6,7.879-.211,11.97-.559,1.239.435,3.178.733,4.8a26.094,26.094,0,0,0,4.561-1.607c1.243-.683,2.175-1.861,4.412-3.9.249,2.823,1.069,5.036.373,5.693a30.309,30.309,0,0,1-8.314,6.212c-4.549,2.053-5.617,2.923-4.337,7.1,1.392,4.649,4.3,9.258,4.213,13.832-.087,4.188-3.256,8.338-5.145,12.464-1.69,3.654-1.467,7.147-.82,11.148.907,5.692.522,11.62.174,17.426-.249,4.037.982,6.808,4.263,9.143,7.345,5.258,7.258,5.372,2.933,13.274.211,3.344,6.35,5.617,1.5,10.3-1.379-1.027-2.622-2.485-4.138-2.931-1.715-.521-4.312-.894-5.456,0-2.125,1.714-1.218,4.349.5,6.1,1.218,1.229,3.07,1.8,4.536,2.809a20.7,20.7,0,0,1,4.089,3.329c.435.486.112,1.927-.3,2.7a2.048,2.048,0,0,1-1.988.585c-1.8-.847-3.48-1.99-5.12-2.971-5.008,5.1-4.921,9.2-.87,13.036.012,4.836.261,8.786-.037,12.7a15.21,15.21,0,0,1-2.075,6.362c-1.678,2.759-2.212,5.131.559,7.977,1.914-.422,4.064-.895,6.351-1.389,1.727,2.883,3.405,5.639,4.71,7.84-4.449,2.883-8.737,5.668-12.216,7.917-.572,4.622-1.131,8.476-1.479,12.33-.211,2.237-.174,4.5-.162,6.76.025,1.69.485,3.429.211,5.046-1.007,5.6.124,8.936,5.356,11.047,4.437,1.791,6.86,4.2,6.375,9.125a4.889,4.889,0,0,0,.609,2.97c2.684,4.122,1.255,7.269-1.205,11.095-2.125,3.308-3.107,7.667-3.5,11.684-.733,6.821-.609,13.745-.858,20.63a6.216,6.216,0,0,1-.161,2.273c-3.43,7.755-.708,14.8,2.349,21.849a10.818,10.818,0,0,1,.435,3.728c.05,3.553-.2,7.109.087,10.638.659,8.876,1.255,17.786,2.51,26.585.77,5.5,2.672,10.859,4.014,16.289.3,1.221,1.007,2.886.51,3.693-3.343,5.119-1.976,9.867-.249,15.21,1.541,4.712.92,10.079,1.852,15.051.435,2.362,2.249,4.461,3.38,6.624-3.977,9.7-4.027,9.731,3.753,17.063,2.759,2.622,5.1,5.059,2.622,9.245-1.765,2.935-.783,5.247,2.324,6.937a19.479,19.479,0,0,1,4.636,3.863,50.079,50.079,0,0,1,3.741,5.1,30.35,30.35,0,0,0,2.709-4.8c.36-1.156-.037-2.559.137-3.817,1.031-7.192,3.79-8.91,10.787-6.847a6.4,6.4,0,0,0,1.255-.843c5.431-5.668,8.625-12.055,7.506-20.283-.335-2.41.572-5.081,1.268-7.53,2.1-7.321,2.15-7.294-3.778-12.091-.8-.623-1.541-1.32-2.833-2.436.783-2.051,1.5-4.162,2.374-6.19.609-1.405,2.187-2.8,2.063-4.05-.771-7.433,3.579-12.5,8.289-18.019-5.008-3.072-6.338-6.739-2.734-11.609a6.7,6.7,0,0,0-.211-8.6c-2.921-3.541-2.026-6.909.733-9.644,3.853-3.815,4.971-8.1,4.064-13.309-.82-4.672-.435-9.061,3.107-12.925,2.125-2.325,2.2-5.308,1.205-8.652-1.591-5.442-2.249-11.046,2.846-15.546,2.734-2.42,2.424-5.5.746-8.45-2.038-3.6-2.635-7.144-.311-10.9a6.194,6.194,0,0,0,.733-2.947c.472-8.115.137-16.441,7.307-21.933-2.473-5.245-6.661-1.071-9.992-3.667-1.106-2.907-2.485-6.637-3.865-10.352,8.625-3.766,11.11-8.166,10.526-17.4-.174-2.933.771-5.9.883-8.875a87.024,87.024,0,0,0-.41-8.71c2.125,1.032,4.176,2.014,6.848,3.307-1.193-6.984-2.237-13.262-3.281-19.536,4.685-4.862,1.628-12.255,6.972-17.746-2.212-.125-3.231-.473-4.027-.177-2.411.872-5.493,2.661-6.935-.112-1.5-2.906-3.032-7.75-1.653-9.878,4.2-6.5,3.753-12.477.92-18.963-.261-.585.124-1.47.249-2.61,2.921-.674,6.065-.859,8.65-2.176,1.678-.859,2.485-3.4,3.691-5.157-1.616-1-3.095-2.474-4.834-2.9-2.411-.571-5.008-.347-8.289-.495,2.063-3.9,5.63-4.589,8.749-5.84,6.959-2.835,7.034-3.059,7.022-10.7,0-2.484.721-4.973,1.243-8.091-1.9-.15-3.741-.3-5.853-.471.062-.645-.137-1.492.174-1.979a10.8,10.8,0,0,0,2.026-7.9c-.261-2.308.46-5.467,2-7.07,3.927-4.161,3.43-8.525,1.156-12.711a17.852,17.852,0,0,1-1.69-12.564,9.8,9.8,0,0,0-1.218-6.391c-2.026-3.192-1.864-5.479.82-8.128a7.7,7.7,0,0,0,1.79-4.8c.46-8.123.895-16.252.87-24.382,0-3.019-1.28-6.053-2.5-8.984,1.454-6.776,4.3-13.536,2.3-20.916-.584-2.2-.92-4.585-2.013-6.524-1.839-3.306-3.02-6.414-1.168-10.141,1.168-2.41.273-4.425-2.038-5.9-3.032-1.952-3.877-4.675-2.15-7.956,1.529-2.884.671-5.445-.87-7.977a9.979,9.979,0,0,1-1.206-8.029c1.591-6.3,3.778-12.84-.348-19.128,1.678-6.662-5.356-12.3-2.249-19.137-3.082-7.792-1.4-16.406-5.406-24.383s-6.649-17.065-3.144-26.645c1.007-2.733.311-6.7-.907-9.546-3.579-8.214-8.066-16.042-7.891-25.452a9.711,9.711,0,0,0-1.777-5.006c-6.214-9.718-8.451-20.793-11.259-31.729-1.081-4.15-3.579-7.9-5.033-11.993a16.45,16.45,0,0,1-.609-6.611c.286-2.97,1.205-5.876,1.665-8.859.7-4.441,3.7-6.2,7.718-4.014a44.665,44.665,0,0,1,6.872,4.9c9.06,7.435,18.095,14.915,27.018,22.5,1.541,1.281,2.523,3.159,3.853,4.684,1.814,2.1,3.716,4.114,5.543,6.213a41.854,41.854,0,0,1,4.225,5.158c2.523,4.091,4.337,8.7,7.32,12.417,3.641,4.56,8.152,8.437,12.291,12.616a41.653,41.653,0,0,1,3.194,3.3c7.767,9.457,16.131,18.767,21.3,29.775,4.163,8.936,9.445,17.277,14.4,25.554,5.12,8.587,6.947,18.739,13.571,26.434a6.318,6.318,0,0,1,1.553,3.44c.584,10.974,5.779,20.42,9.719,30.3.373.946,1.056,1.99.895,2.845-2.075,11.039,6.09,19.028,8.451,28.734.534,2.2,2.175,4.191,2.51,6.39a24.935,24.935,0,0,0,5.207,12.564c1.777,2.2,1.889,5.692,2.808,8.585,1.317,4.116,2.535,8.265,4.076,12.292,2.66,6.92,5.518,13.767,8.277,20.667.683,1.653.857,3.678,1.914,4.994,6.189,7.53,6.549,16.506,7.73,25.652.969,7.607,4.76,14.838,7.158,22.27.907,2.873,1.5,5.845,2.162,8.776,1.479,6.7,2.684,13.446,4.387,20.07,2.013,7.879,4.138,15.745,6.8,23.412,2.374,6.749,3.194,14.155,8.588,19.763,2.187,2.3,3.206,5.727,5.269,9.606.348-.661.174.336-.348.568-4.014,1.766-3.306,3.8-1.466,7.222,2.6,4.848,5.12,10.179,5.8,15.546.683,5.258,1.355,9.571,5.58,11.086,1.305,4.822,2.411,8.612,3.405,12.417.472,1.727.659,3.529,1.181,5.218.92,2.911,1.441,6.1,3.094,8.538a40.723,40.723,0,0,1,6.139,13.894c1.044,4.314,3.89,8.141,5.617,12.315,2.448,5.892,4.623,11.881,6.922,17.834,3.293,8.515,7.506,16.8,9.644,25.6a70,70,0,0,0,9.544,21.961c3.6,5.642,5.269,12.526,9.42,18.293,2.808,3.915,3.753,9.347,4.946,14.256,1.38,5.631,1.28,11.719,5.953,16.132-2,6.6,2.983,11.568,4.4,17.348,1.578,6.31,5.381,12.092,8.314,18.044.559,1.119,2.063,1.927,2.3,3.047,2.523,12.874,12.427,22.395,15.957,34.657,2.075,7.247,5.356,13.733,8.625,20.319,3.467,7.025,7.357,13.858,10.824,20.881a110.507,110.507,0,0,1,5.754,13.384c4.524,13.347,13.235,24.259,20.518,36.015,4,6.5,8.674,12.628,13.31,18.754,4.064,5.406,9.818,5.828,15.994,4.672,4.126-.771,8.289-1.229,14.056-2.064a57.063,57.063,0,0,1-4.958-2.995c-4.362-3.292-5.99-9.481-2.635-13.583,3.815-4.647,2.933-8,.423-13.038-3.331-6.673-6.052-13.942-5.878-21.821.025-1.677-.3-4.213-1.367-4.921-4.524-2.91-2.933-6.847-3.02-10.909-.124-5.519-1.64-10.987-2.361-16.518-1.4-10.638-2.548-21.34-4.027-31.965a81.742,81.742,0,0,0-2.585-10.152c-.373-1.468-1.417-2.958-1.268-4.314.659-5.2-2.262-7.431-6.512-9.021-2.125-.77-4.387-1.8-3.964-5.518,2.237-1.2,4.772-2.562,8.612-4.6-2.983-1.13-4.66-1.775-5.816-2.213-1.218-7.107-2.361-13.792-3.641-21.174,1.268-.67,3.157-1.677,5.157-2.746-.447-1.106-.522-2.1-1.031-2.412-5.617-3.593-5.53-3.516-3.355-10.265a10.316,10.316,0,0,0-.162-5.17c-1.255-5.892-4.449-11.532-.746-17.786,1.23-2.1-.535-4.015-2.8-4.573-3.48-.857-5.108-3.414-5.965-6.45-1.615-5.865-2.871-11.853-4.375-17.771a29.776,29.776,0,0,0-1.9-5.815c-3.542-7.481-6.612-15-3.741-22.893-.945-1.032-1.218-1.626-1.64-1.738-7.68-2.277-7.767-2.436-3.107-8.476,3.877-5.033,3.9-10.576,1.7-16.045-2.2-5.4-5.133-10.5-7.606-15.783a26.8,26.8,0,0,1-1.181-4.361c-.336-1.218-.423-2.636-1.143-3.568-3.53-4.609-7.109-9.208-10.936-13.559a7.7,7.7,0,0,1-2.051-7c.5-2.759.261-5.652.758-8.4.6-3.467-.161-5.939-3.38-7.718-3.02-1.677-4.3-4.274-2.983-7.8.336-.906.609-2.477.149-2.922-5.866-5.544-3.082-14.428-8.016-20.368-1.168-1.455-1.206-3.865-1.74-5.829-.41-1.467-.286-3.567-1.23-4.313-6.649-5.144-5.431-13.3-8.016-19.969-1.28-3.322-2.088-7.048-4.188-9.781-3.244-4.314-6.214-8.067,1.181-13.038-10.166-1.578-11.682-7.916-11.247-14.254.36-5.382-1.69-8.751-5.928-10.4-4.573-1.764-5.692-4.958-6.984-9.11-1.74-5.529-4.66-10.7-7.158-15.995-.758-1.6-2.535-3.056-2.573-4.608-.124-6.962-4.822-11.7-7.73-17.288-2.945-5.642-5.94-11.3-8.525-17.124-1.926-4.363-4.039-8.23-8.886-9.955-3.194-1.144-4.809-3.691-5.083-7.1-.112-1.53-.584-3.055-.547-4.584.112-6.688-.758-12.354-8.351-15.3-2.311-.906-4.138-5.307-4.548-8.329-.969-7.12-2.386-13.347-9.333-17.4-2.175-1.258-2.97-5.011-4.188-7.719-1.019-2.285-1.143-5.244-2.7-6.972-2.672-3.008-4.785-5.677-4.437-10.078.112-1.427-1.827-3.7-3.368-4.45-5.766-2.758-8.935-6.113-7.158-13.259,1.28-5.046-1.019-8.1-6.313-9.793a13.31,13.31,0,0,1-9.37-9.233c-2.635-8.016-7.705-14.627-13.372-20.742-4.524-4.872-9.259-9.581-9.42-16.541-4.959-2.389-9.681-4.673-13.969-6.748,2.324-4.452,4.561-7.981,6.052-11.806,1.777-4.562,2.5-5.68,7.158-4.167,7.283,2.377,14.826,4.625,21.351,8.49,9.756,5.754,20.294,9.446,30.5,14.054,7.419,3.371,14.515,7.47,21.736,11.31,2.933,1.567,5.779,3.256,8.637,4.959,12.937,7.767,25.787,15.733,38.849,23.254,6.624,3.813,13.757,6.735,20.53,10.264a15.3,15.3,0,0,1,5.269,4.323c5.766,8.079,13.807,12.776,22.792,16.319a10.676,10.676,0,0,1,4.387,2.848c7.158,8.657,14.168,17.434,21.214,26.195,1.118,1.405,2.771,2.758,3.082,4.348,1.417,7.458,7.382,12.155,10.613,18.492a89.015,89.015,0,0,1,5.642,12.4c1.852,5.644,3.455,11.271,7.891,15.56a6.408,6.408,0,0,1,2.125,3.147c1.616,11.532,10.874,19.643,13.434,30.831,1.516,6.671,4.8,12.925,6.425,19.584,2.075,8.574,8.264,15.051,10.961,23.266,1.454,4.349,3.964,8.363,5.493,12.7,1.516,4.388,2.709,8.786,6.239,12.143a6.685,6.685,0,0,1,1.79,3.367c1.218,6.808,4.312,12.85,6.922,19.177,3.89,9.307,9.172,17.709,13.807,26.531a13.521,13.521,0,0,0,3.107,4.375c6.288,4.959,9.1,11.532,9.644,19.312a8.645,8.645,0,0,0,.522,2.248c6.624,18.569,13.31,37.1,19.9,55.676,3.082,8.686,6.015,17.425,9.01,26.124.584,1.69.845,3.593,1.827,4.986a61.318,61.318,0,0,1,8.426,17.907c2.212,7.256,6.338,13.945,9.818,20.778,6.015,11.821,12.912,23.253,18.12,35.408,8.811,20.58,22.494,38.278,32.672,58,4.8,9.31,8.9,19,13.646,28.348,3.8,7.495,8.115,14.742,12.167,22.123,1.566,2.845,3.02,5.751,4.536,8.622.6,1.131.945,2.549,1.839,3.331,7.32,6.4,10.5,15.647,16.156,23.167q9.675,12.861,19.611,25.537c1.031,1.306,3.02,1.841,4.4,2.935a18.428,18.428,0,0,1,3.653,3.653c3.8,5.4,7.047,11.234,11.322,16.2,3.231,3.753,5.381,8.886,10.787,10.516a2.1,2.1,0,0,1,1.019,1.117c4.909,11.708,16.342,17.662,23.786,27.118,1.591,2.011,2.871,4.288,4.648,6.078,4.486,4.525,8.811,9.309,13.882,13.062,3.393,2.522,6.636,4.7,8.1,8.811,1.292,3.616,3.927,4.548,7.718,4.957,6.263.683,12.217,1.293,18.008-3.8-.224-1.617-.547-4.054-.944-6.912-7.755-.434-11.943-5.243-14.926-11.532,4.486-7.109,4.151-6.86-1.032-13.633-6.922-9.06-11.5-18.99-12.3-30.859-.559-8.291-3.654-16.4-5.692-24.568-.435-1.741-1.578-3.356-1.752-5.1-.472-4.758-2.573-8.1-7.022-10.127-3.306-1.491-5.219-4.028-4.648-7.979.621-4.373-1.3-7.842-3.828-11.308a104.669,104.669,0,0,1-12.763-23.489c-1.951-4.983-3.492-10.141-5.667-15-3.219-7.231-6.487-14.5-13.285-19.362a6.855,6.855,0,0,1-2.163-3.144c-2.361-6.624-4.872-13.223-6.76-19.983-1.7-6.1-4.089-12.118-3-18.818.224-1.353-1.926-3.44-3.405-4.672a54.894,54.894,0,0,0-6.761-4.149c.385-4.672-.634-8.45-5.505-10.6-1.7-.757-2.8-3.439-3.666-5.454-2.709-6.3-5.008-12.776-7.8-19.038-3.728-8.414-7.593-16.779-11.732-24.993q-7.9-15.733-16.33-31.168c-6.264-11.4-12.627-22.745-19.362-33.852-3.281-5.419-7.519-10.243-11.3-15.362-1.044-1.414-2.771-2.944-2.759-4.423.012-8.128-4.946-14.254-7.966-21.153-.522-1.169-.932-2.747-1.864-3.305-5.53-3.231-6.3-9.111-8.214-14.293a85.684,85.684,0,0,0-12.676-22.766c-2.6-3.367-3.989-7.657-6.326-11.259-2.883-4.464-6.089-8.75-9.346-12.964-1.7-2.185-3.852-4.064-5.779-6.089-9.4-9.891-12.838-23.167-19.71-34.5-1.578-2.586-3.281-5.071-4.958-7.607-.274-.409-.907-.658-1.057-1.08-2.051-5.8-2.97-12.267-9.781-15.124-.671-.3-.4-2.834-.621-4.76-5.108-.037-8.14-3.192-11.111-7.009-2.622-3.369-6.412-5.816-9.4-8.96-2.958-3.106-6.052-6.29-8.227-9.943-3.629-6.125-6.425-12.736-9.867-18.991-1.355-2.42-4.039-4.149-5.145-6.635-3.579-7.9-10.029-14.129-13.36-21.983-2.187-5.22-6.5-9.855-6.052-16.255.087-1.268-1.74-2.91-3.032-3.977-.895-.76-2.5-.635-3.567-1.258-2.336-1.316-8.115-20.331-6.947-22.79a4.518,4.518,0,0,1,2.075-2.039c3.592-1.416,11.533,1.218,14.553,4.325,1.5,1.565,3.43,3.255,5.431,3.728,2.846.683,5.108,1.478,7.171,3.8,1.33,1.465,4.051,1.789,6.189,2.437,3.082.919,6.239,1.664,9.209,2.446-.348-8.821-3.368-12.028-11.359-11a14.724,14.724,0,0,0-9.694-6.03c-5.232-1.08-10.675-3.778-12.6-10.661-4.412,3.977-7.283,1.578-10.365-1.878-5.083-5.677-9.47-12.1-16.852-15.4-1.3-.581-1.715-3.142-2.933-5.592,2.722-.247,4.225-.758,5.58-.434q18.288,4.216,36.525,8.712c5.381,1.306,11.371-.225,16.268,3.4a2.557,2.557,0,0,0,1.516.089c8.836-.932,17.66-2.1,26.521-2.746,5.021-.374,10.526-1.081,15.1.457,7.158,2.437,14.5,1.741,21.624,3.184,3.455.71,6.748,2.51,10.215,2.834,5.418.485,11.011,2.313,16.392-1.007a6,6,0,0,1,5.17.2c5.319,3.168,10.564-.025,15.821.137,1.628.048,3.331-2.015,5.468-3.408,3.529,5.992,9.271,6.117,15.348,6.354,15.547.618,30.932-.883,46.318-2.512a15.285,15.285,0,0,0,5.729-1.964c3.156-1.8,6.1-3.817,10.054-2.673a3.929,3.929,0,0,0,2.933-.469c9.072-6.177,19.909-6.6,30.087-8.639,7.32-1.453,15.162-.147,22.767-.461,8.153-.347,16.355-.619,24.4-1.874,7.109-1.121,13.72-4.176,21.177-4.8,7.245-.6,14.2-4.176,21.413-5.931,9.756-2.359,18.592-6.746,27.589-10.986,6.425-3.03,13.509-4.672,20.282-6.995,1.926-.67,4.25-1.116,5.53-2.475,3.219-3.427,6.264-5.927,11.322-3.59,1.007.473,2.908-.571,4.225-1.254,7.9-4.079,15.808-8.205,23.638-12.439,2.92-1.582,5.567-3.668,8.513-5.2,11.4-5.926,23.812-9.1,36.3-10.912,7.879-1.143,16.218.773,24.346,1.343,1.006.076,2.063.8,2.97.621,8.041-1.5,15.013,2.389,22.407,4.2a61.512,61.512,0,0,0,8.289,1.116c2.808.286,5.854-.187,8.376.783,6.724,2.6,13.608,1.729,20.493,1.927,9.967.284,19.934.77,29.5,4.15,1.889.658,4.027.609,6.015,1.019,2.921.6,5.816,1.343,8.737,1.926,3.952.8,7.916,1.48,11.868,2.288,5.754,1.144,11.458,2.646,17.274,3.441,3.219.423,6.637-.125,9.917-.57,4.611-.623,7.271-3.791,8.5-7.94.522-1.754.46-4.452-.572-5.682-.919-1.07-3.554-.859-5.419-.907a37.9,37.9,0,0,0-5.182.51c-.907.1-2.473.012-2.6.4-1.827,5.479-5.456,1.678-8.65,2.2-.659-2.2-1.194-4.066-1.491-5.059-3.542-1.965-6.388-3.518-9.221-5.1-.448-.259-.858-.805-1.28-.805-9.681.023-17.573-7.159-27.651-6.386-5.145.384-10.464-1.854-15.734-2.7-2.808-.461-6.288-4.09-8.152,1.341-3.392-.8-7.047-1.055-10.091-2.572a26.144,26.144,0,0,0-12.577-2.759,13.327,13.327,0,0,1-5.9-1.353c-3.355-1.7-6.326-4.251-9.781-5.679s-7.32-1.928-11.967-3.072c1.392-2.424,2.572-4.458,3.914-6.81-1.155-2.162-2.4-4.5-3.815-7.135,9.047-1.637,13.521-9.4,20.618-13.186.969-.521,1.454-2.035,2.038-3.155a7.486,7.486,0,0,0,.659-2.2c1.094-6.374,9.37-7.6,9.9-14.949.51-7.072,8.165-8.353,12.775-12.192,7.705-6.4,14.69-13.658,21.9-20.506-6.077-7.144-9.358-7.717-16.517-4.311-8.786,4.187-17.833,7.62-27.726,8.214a19.292,19.292,0,0,0-5.158,1.417c-6.04,2.151-11.98,4.536-18.629,4.05-1.69-.137-4.076.188-5.046,1.293-4.126,4.687-9.035,3.282-13.434,1.629-6.587-2.485-12.017-1.232-17.088,3.142-2.15,1.839-4.412,2.473-7.084,1.222-3.89-1.854-7.407-.907-10.886,1.327-7.158,4.586-15.609,4.685-23.563,6.487a1.58,1.58,0,0,1-.771,0c-7.78-3.615-13.571.957-19.573,4.7a12.844,12.844,0,0,1-2.8,1.22,6.38,6.38,0,0,1-1.852-.051c-.721-1.354-1.516-2.846-2.336-4.374a20.749,20.749,0,0,0-2.361.234c-3.455.685-6.91,1.405-10.377,2.1a15.716,15.716,0,0,0-3.02.494c-6.574,2.737-13.111,5.544-19.673,8.342a4.106,4.106,0,0,1-.684.349c-11.732,2.432-23.438,4.994-35.208,7.182-5.754,1.066-11.62,1.428-17.448,2.11-1.777.212-3.753,1.106-5.294.623-10.34-3.3-21.3,1.243-32.275-3.631.261,3.369.435,5.717.646,8.253-2.945,2.113-5.394.15-7.953-.658-5.046-1.592-10.079-3.267-15.212-4.535-1.131-.261-2.958.758-3.939,1.726-3.691,3.641-8.588,3.556-13.236,5.4.187-1.27.1-2.028.36-2.188,2.859-1.754,6.3-3.132,3.9-7.582-2.262-4.189-7.059-7.083-10.688-5.406-5.741,2.635-11.085,1.341-16.392-.548-3.157-1.129-5.543-1.43-8.562.658-1.765,1.22-4.772,1.293-7.1.971-5.99-.834-11.943-1.357-17.734-4.039-2.635-1.221-7.1,1.5-11.657,2.682-6.649-6.061-16.032-4.411-24.955-4.921-4.064-.233-8.165.124-12.241-.073-3.952-.2-7.394.1-10.651,3.082-1.379,1.281-5.008,1.33-6.972.458-3.53-1.552-6-1.625-8.973,1.156-4.1,3.817-5.381,3.654-9.992.473-2.5-1.729-4.921-3.543-7.618-5.493-2.486,2.374-4.424,3.976-8.09,3.6-3.517-.361-7.27,2-10.949,3.035-9.606,2.694-14.5,1.379-21.139-5.482-6.537-1.627-4.747,7.2-10.24,7.927-.4-2.3-.746-4.336-1.255-7.307-7.134-.112-14.5-1.091-21.612-.122a123.122,123.122,0,0,1-25.539.969,4.92,4.92,0,0,0-2.97.511c-5.083,3.515-10.265,2.347-15.448.493-6.959-2.509-13.708-.232-20.468.81-7.842,1.229-15.584,3.056-23.451,4-4.375.524-6.45,2.512-6.835,7-2.759.05-5.257.085-8.264.149-.273-2.312-.51-4.441-.87-7.531-3.964.756-7.705,1.466-11.943,2.283-3.356-3.938-3.356-3.938-8.55,1.281a14.054,14.054,0,0,0-13.4-1.453,9.237,9.237,0,0,1-6.736-.633c-11.943-6.327-25.539-4.7-38-8.29-15.423,2.063-29.975-5.567-45.373-3.926a11.666,11.666,0,0,1-4.511-.846c-7.668-2.412-15.584-2.549-23.526-3.133-5.928-.46-11.757-2.648-17.61-4.2-1.442-.387-2.709-1.565-4.163-1.827-10.042-1.775-20.12-3.529-30.211-5.059-4-.605-8.2-.271-12.167-1.056-6.5-1.278-12.863-3.331-19.337-4.648-5.232-1.057-10.7-2.669-15.8-1.976-6.8.945-11.073-1.913-14.23-6.735-2.423-3.766-5.369-4.4-9.358-5.258-8.451-1.8-16.79-4.483-23.786-10-.609-.486-1.106-1.418-1.727-1.478-8.712-.935-12.987-8.651-19.462-12.964-4.959-3.293-9.06-8.054-13.161-12.5a84.481,84.481,0,0,0-19.536-15.983c-5.916-3.417-11.322-7.74-16.8-11.879a10.618,10.618,0,0,1-2.933-4.386c-2.05-5-3.977-9.932-9.234-12.6a5.264,5.264,0,0,1-2.2-3.007,4.369,4.369,0,0,1,.261-3.542,3.57,3.57,0,0,1,3.355-.859c3.852,2.213,9.283,1.679,11.657,6.6a3.638,3.638,0,0,0,2.324,1.826c6.823,1.006,13.857,3.207,20.468,2.3,6.077-.832,11.993-.847,17.386.77,19.586,5.816,39.868,6.736,59.839,9.706,7.146,1.069,14.7-.558,22.059-.77,6.239-.185,12.5-.1,18.729-.15.982-.012,2.138.249,2.92-.187,10.079-5.355,21.438-4.373,32.125-6.724,4.163-.92,8.2-2.4,12.316-3.664,21.4-6.588,42.913-12.838,64.139-19.923a156.251,156.251,0,0,0,30.709-13.942c6.6-3.942,12.7-8.975,20.618-11.248,6.413-1.866,11.906-6.788,17.883-10.215,4.673-2.673,10.079-4.452,14.068-7.881,6.91-5.952,13.372-12.4,21.922-16.093,3.032-6.212,9.4-7.27,14.8-10.079a82.73,82.73,0,0,1,25.452-8.288c1.019-.163,2.2-.959,2.983-.658,9.084,3.492,18.418-2.561,27.515.731a5.814,5.814,0,0,0,3.032.361c10.191-2.223,20.63-1.169,30.907-2.337.51-.061,1.181.025,1.479-.272,7.345-6.5,16.665-2.484,24.855-4.624,8.128-2.111,16.5-3.255,24.806-4.672,4.524-.758,9.768.037,13.509-2.026,6.835-3.777,14.217-4.435,21.376-6.511,9.035-2.622,17.361-7.595,26.222-10.963,6.089-2.336,8.252-7.491,10.389-12.6,1.541-3.665-2.262-8.1-6.86-8.089-3.791.025-7.568.943-11.98,1.566a17.186,17.186,0,0,0-3.181-3.469c-2.013-1.316-4.673-3.416-6.487-2.958-8.513,2.187-14.714-2.136-21.2-6.214-1.6-1.007-4.051-2.288-5.443-1.738-5.419,2.123-10.029.433-15-2.436-.87,1.489-1.591,2.72-2.3,3.962-1.429,2.512-3.567,2.748-5.94,1.677-2.436-1.08-2.423-3.1-1.467-5.181,1.541-3.342.534-5.99-2.15-8.166-2.15-1.724-4.511-2.6-7.022-.693-2.622,2-1.206,3.976.137,5.976a10.217,10.217,0,0,1,.771,2.412c-6.723,7.182-15.783,6.463-24.383,7.233-3.206.31-6.152-.151-7.879-3.842a8.416,8.416,0,0,1,9.607-5.631c5.779.824,7.158-4.162,10.141-6.843.708-.635-.373-3.743-1.156-5.495-2.8-6.327-2.125-8.089,3.8-11.819,2.958-1.839,5.468-4.435,8.053-6.822,1.491-1.393,2.523-3.357,4.138-4.538,12.266-8.923,18.629-22.282,25.85-34.858,2.225-3.89,6-6.29,7.792-10.849,1.379-3.517,3.766-6.948,5.133-10.8.572-1.617,2.572-3.693,4.051-3.8,3.89-.286,5.008-3.4,6.81-5.641.783-.982.895-3.7.137-4.488-1.765-1.764-4.238-1.938-5.99.4-.746.995-.895,2.4-1.479,3.529-2.324,4.388-3.53,5.158-8.5,3.628-3.219-.991-5.456.1-7.8,1.755-9.992,7.1-21.562,10.388-33.082,13.807-3.691,1.094-7.568,1.976-10.874,3.791-12.5,6.835-26.384,10.229-39.843,13.543-12.03,2.971-23.911,6.653-34.636,11.97-11.968,5.941-25.054,8.859-36.574,15.747a60.836,60.836,0,0,1-19.81,7.107c-6.674,1.219-13.807-.185-20.6.573a84.792,84.792,0,0,1-21.786-.633c-10.1-1.455-20.394-1.667-30.634-2.165a86.3,86.3,0,0,0-10.551.635c-.758.064-1.491.734-2.175.658-6.226-.671-12.44-1.366-18.629-2.213-7.307-.994-14.4-3.195-22-1.737-3.641.695-7.594-.3-11.409-.448-3.331-.124-6.636-.1-9.967-.187-2.237-.05-4.462-.212-6.711-.311-2.548-.11-5.406-1-7.581-.162-8.326,3.22-16.74,0-24.781.9-9.557,1.054-18.791-2.711-28.136-.274a1.747,1.747,0,0,1-.758.112c-5.94-1.755-11.545-1.044-17.5.832-8.376,2.649-16.479-1.774-24.706-2.795-9.47-1.18-18.84-2.387-28.149.112-3.592.969-6.263.321-9.37-1.5a64.326,64.326,0,0,0-12.515-5.531c-1.727-.57-3.94.573-5.953.658-2.436.124-5.232.685-7.3-.249a44.744,44.744,0,0,0-14.64-3.576,69.256,69.256,0,0,1-17.051-3.855,29.016,29.016,0,0,0-15.05-1.678,7.712,7.712,0,0,1-6.972-2.113c-5.63-4.908-11.632-6.561-19.089-3.157-3.915,1.8-8.786,1.552-13.235,2.126a2.565,2.565,0,0,1-2.088-.7c-4.064-6.872-14.416-5.751-17.61-14.016-.584-1.5-3.79-2.337-5.94-2.782-7.891-1.667-15.323-4.126-21.4-9.758-1.031-.945-2.722-1.241-4.151-1.667-6.413-1.852-12.813-3.589-19.2-5.5a5.609,5.609,0,0,1-3.107-2.076c-2.635-4.547-7.27-6-11.433-8.489-13.186-7.9-27.552-13.224-41.3-19.871a146.374,146.374,0,0,0-15.435-6.214c-2.945-1.031-6.462-3.159-7.693-5.756-3.256-6.808-9.346-9.208-15.423-11.919-4.424-1.962-9-3.616-13.322-5.764a7.716,7.716,0,0,1-3.194-3.866c-1.653-4.163-3.865-7.146-8.936-6.936-4.051.162-6.574-2.658-8.873-5.418-3.02-3.63-5.965-6.511-11.359-6.8-5.058-.249-8.028-5.158-9.718-9.035-3.144-7.209-8.824-11.906-14.031-17.052-3.38-3.315-5.157-6.671-5.381-11.344-.124-2.35-1.429-4.712-2.473-6.925-1.777-3.688-3.989-7.157-5.58-10.909-2.56-6.055-4.573-12.317-7.2-18.358-3.045-7.032-6.388-13.956-9.793-20.842-4.288-8.674-10.216-16.639-11.11-26.718-6.09-7.158-6.09-16.665-9.644-24.794a15.4,15.4,0,0,0-2.324-3.927,9.45,9.45,0,0,1-2.175-8.586,12.126,12.126,0,0,0-2.771-10.754c-1.218-1.453-2.4-3.873-2.038-5.5,1.019-4.736-1.64-7.595-3.915-11.089-7.32-11.245-11.645-23.907-16.057-36.487-.671-1.91-1.28-3.861-1.914-5.79-.3-.981-1.193-2.287-.857-2.858,3.045-5.134,1.081-9.9-.075-15.076-1.081-4.833-.46-10.067-.572-15.148,0-.2.261-.423.845-1.331,1.3.31,3.094.31,4.375,1.133,6.413,4.062,11.955,8.924,13.633,16.85.224.98.41,2.437,1.069,2.795,5.592,3.022,6.7,9.348,10.4,13.673,5.94,6.947,12.664,13.221,18.592,20.194a77.175,77.175,0,0,1,8.861,13.448c7.084,13.135,17.834,22.965,28.758,32.683,1.9,1.69,4.126,3.22,5.456,5.3,6.052,9.3,15.385,14.89,23.786,21.487a37.746,37.746,0,0,1,7.009,6.576c2.374,3.047,6.388,4.921,9.892,6.984,5.257,3.1,11.21,5.23,15.957,8.948,6.91,5.443,15.435,7.83,22.357,12.949,10.079,7.47,21.214,13.074,32.038,19.276,6.264,3.581,12.726,6.277,19.139,9.332,4.275,2.028,7.829,5.507,11.93,8a164.31,164.31,0,0,0,15.361,8.4c7.1,3.354,13.981,6.935,21.972,8.687,8.028,1.776,15.286,6.782,23.128,9.693,8.625,3.182,17.56,5.492,26.334,8.29,9.47,2.993,18.89,6.088,28.335,9.16,2.411.794,5,2.632,7.208,2.261,5.431-.92,9.408,1.814,13.708,4.012,10.5,5.42,21.724,8.652,33.194,11.173.51.112,1.032.123,1.516.264,11.135,2.931,22.208,6.048,33.368,8.782,6.661,1.629,13.409,2.859,20.195,3.918,8.227,1.279,16.442,1.738,24.557,4.536,8.09,2.768,16.877,3.7,25.415,4.981,6.723,1,13.235,2.437,20.406,1.7,6.525-.682,13.422,2.512,20.158,3.954,4.959,1.067,9.942,2.123,14.938,3.094a16.4,16.4,0,0,0,5.319.607c7.469-1.13,14.118,1.1,20.742,4.154,1.491.707,3.467.359,5.195.533,2.274.222,4.685.1,6.8.833a25.909,25.909,0,0,0,16.591.782c1.628-.485,3.517-.06,5.269-.047,3.53.023,7.071-.077,10.564.1,6.338.284,12.651.73,18.965,1.141,1.28.087,2.771.87,3.766.423,7.1-3.293,14.093-.361,21.127.1,10.191.658,20.369,1.418,30.585.3,9.346-1.032,15.808-6.078,17.846-14.367-4.3-2.25-8.09-5.993-13.882-3.355-1.094.5-2.871-.585-4.375-.859-3.455-.671-6.91-1.293-10.377-1.914-8.7-1.567-17.9-1.851-25.974-5.006-9.047-3.532-18.828-4.874-27.415-9.942-2.933-1.727-7.345-.734-9.681-4.662-.472-.805-2.871-.608-4.387-.621-3.057-.062-6.127.023-9.445.075-2.013-6.774-6.786-9.917-13.546-10.428-1.255-.087-3.132-.013-3.616-.745-2.858-4.472-7.966-4.5-12.1-5.9-5.07-1.714-10.278-2.362-14.3-6.725-1.205-1.316-4.66-.573-7.668-.805-1.69-3.557-3.778-7.547-9.507-5.307-.895.334-2.324-.686-3.517-1.059-3.306-1.044-6.649-2.1-9.979-3.119a16.688,16.688,0,0,1-3.616-1c-4.822-2.786-9.569-5.707-14.317-8.614-4.9-3.006-9.88-5.133-15.945-4.286-5.033.718-9.669-1.393-13.534-4.536-3.393-2.758-7.109-3.653-11.346-3.991a126.98,126.98,0,0,1-16.665-2.373,24.276,24.276,0,0,1-7.606-3.581c-10.5-6.6-22.581-8.749-34.052-12.638-3.405-1.141-6.686-2.694-10.129-3.641a23.5,23.5,0,0,0-8.6-.484c-2.287-2.6-4.524-4.647-8.985-5.145-8.327-.894-16.516-3.242-24.644-5.418a34.89,34.89,0,0,1-8.96-4.313c-2.373-1.48-4.536-2.274-7.121-.72-3.38,2.073-5.9.633-7.817-2.238a11.99,11.99,0,0,0-8.115-5.258c-1.926-.386-3.6-1.826-5.419-2.709-1.578-.772-3.281-2.125-4.834-1.988-3.84.3-7.046-.31-9.805-3.156a4.073,4.073,0,0,0-2.846-.894c-9.594.533-17.473-4.886-26.1-7.659A34.262,34.262,0,0,1,891.4,890.8c-3.244-2.673-9.122-2.076-13.807-3.108a70.05,70.05,0,0,1-7.047-2.252c-.472-.16-.994-.868-1.28-.77-6.375,2.472-9.594-2.722-13.844-5.515a29.338,29.338,0,0,0-6.276-2.887c-11.048-3.951-22.009-8.276-33.269-11.569a57.361,57.361,0,0,1-19.424-10.44,24.8,24.8,0,0,0-10.874-5.23c-4.076-.808-7.917-3.28-11.632-5.4-4.673-2.659-8.8-7.045-13.745-8.265-6.462-1.565-11.2-5.266-16.566-8.437-5.878-3.481-12.763-5.244-18.617-8.747-6.475-3.89-12.254-8.9-18.343-13.424-5.53-4.1-11.322-7.9-16.591-12.352-5.245-4.437-9.718-9.794-14.963-14.229-7.022-5.931-12.987-12.838-19.611-19.08-2.821-2.644-5.555-4.819-7.27-8.525-1.181-2.557-3.716-5.392-6.264-6.25-3.915-1.293-5.58-4-7.618-6.984-2.709-3.979-5.344-8.4-9.1-11.148-6.773-4.935-8.9-13.086-14.428-18.754-.621-.622-.41-2-.895-2.858-2.212-3.925-4.026-8.253-6.972-11.568-2.436-2.723-4.822-5.123-5.754-8.812a11.219,11.219,0,0,0-2.622-4.612c-6.09-6.786-9.532-15.113-13.608-23.054-1.031-1.962-1.094-4.436-1.6-6.658-.559-2.5-.671-5.2-1.777-7.421-2.212-4.4-4.213-8.363-2.175-13.71.771-1.973-1.094-5.355-2.448-7.7-2.523-4.363-4.238-8.575-3.07-13.844.522-2.275-.621-4.935-1.168-7.394-.584-2.711-1.678-5.371-1.939-8.116-.982-10.9-1.678-21.838-2.585-32.748-.174-2.011-.4-4.275-1.4-5.9-3.343-5.431-3.666-10.814-1.9-16.926,1.379-4.81,1.964-9.883-.684-14.977-1.131-2.176-.249-5.5.062-8.277a99.921,99.921,0,0,1,2.088-13.609,6.6,6.6,0,0,1,4.064-3.8c.882-.274,2.958,1.69,3.7,3.066,1.3,2.449,1.6,5.484,3.07,7.832,3.194,5.17,6.872,10.067,10.377,15.073,1.019,1.469,2.411,2.773,3.082,4.388,3.542,8.512,9.445,15.509,14.5,23.051,2.66,4.015,6.052,7.571,9.209,11.235,7.867,9.083,15.845,18.072,23.675,27.193,2.162,2.522,3.418,6.189,6.015,7.866,6.562,4.251,11.346,9.644,15.845,16.069,5.207,7.446,12.627,13.335,18.952,20.022,2.8,2.957,5.244,6.238,7.842,9.37a12.791,12.791,0,0,0,1.38,1.849c12.142,9.955,23.811,20.485,37.556,28.377,6.425,3.676,12.229,8.438,18.356,12.688,13.024,9.07,26.458,17.645,38.948,27.411,5.008,3.918,10.427,6.86,15.621,10.316a23.069,23.069,0,0,0,4.1,1.976c1.168.485,2.809.425,3.579,1.243,9.109,9.531,22.569,12.5,32.125,21.363a18.547,18.547,0,0,0,6.587,3.89c12.614,4.126,22.9,12.417,34.2,18.891,4.909,2.845,9.582,5.556,15.274,6.808,4.623,1.031,8.886,3.754,13.26,5.755,5.816,2.647,11.371,6.489,17.473,7.745,8.836,1.827,15.746,7.281,23.861,10.277,5.729,2.11,11.21,5.394,17.088,6.449,7.407,1.306,13.4,4.8,19.25,8.848,4.3,2.958,8.662,5.283,14.018,5.791a12.85,12.85,0,0,1,6.9,2.908c4.213,3.68,9.134,5.346,14.292,7.06,6.972,2.347,13.6,5.717,20.443,8.475,2.8,1.119,5.754,1.789,8.662,2.649a20.8,20.8,0,0,1,2.958.718c11.322,5.258,22.457,10.888,33.928,15.723,5.071,2.123,10.762,2.686,16.193,3.915,4.424,1.019,8.911,1.8,13.3,3.006,6.649,1.8,13.211,3.917,19.847,5.845,12.974,3.788,25.961,7.626,39,11.231,3.132.87,6.5.947,9.768,1.334,1.28.146,2.858-.3,3.741.321,5.717,4.012,12.478,2.36,18.667,3.7,8.351,1.827,16.889,1.951,25.29,4.672,5.816,1.9,13.086.025,19.586-1.032,3.629-.6,6.935-6.836,6.189-10.451a7.615,7.615,0,0,0-2.97-4.052,10.244,10.244,0,0,0-4.4-1.3c-5.282-.822-11.322-.2-15.708-2.608-4.673-2.561-9.122-5.26-14.23-7.062-3.492-1.243-6.649-3.728-9.644-6.09-2.784-2.186-5.493-3.827-9.109-2.808-5.157,1.457-8.264-1.341-10.974-5.084a29.468,29.468,0,0,0-3.132-4.334c-6.823-6.4-9.756-6.463-18.181-.325-1.181-1.466-2.386-2.946-3.878-4.773,2.125-2.011,3.9-3.717,5.953-5.655-4.946-3.006-9.818-5.914-14.627-8.9-2.15-1.343-4.126-2.983-6.313-4.2-1.939-1.069-4.076-2.437-6.127-2.449-9.93-.085-17.076-6.547-25.29-10.513-.422-.208-1.007-.732-1.007-1.091.112-7.109-5.717-5.917-9.855-7.109-3.206-.942-6.388-1.9-7.32-5.928a5.882,5.882,0,0,0-2.56-3.641c-9.134-4.424-16.057-12.155-26.21-15.572-7.432-2.487-14.068-7.4-22.208-9.284-4.673-1.094-8.414-5.78-13.037-7.708-8.513-3.551-16.057-7.778-18.53-18.044-1.939,1.169-2.921,1.864-4,2.415-4.1,2.111-5.729,1.737-6.574-2.586-.733-3.718-2.846-5.8-5.717-7.719-2.125-1.4-3.977-3.242-6.189-4.486-2.411-1.331-5.083-3.032-7.668-3.055-6.835-.076-12.216-2.762-17.225-7.121a138.9,138.9,0,0,0-11.682-8.787c-1.206-.871-2.759-1.826-4.113-1.779-3.8.172-6.686-2.287-9.88-3.107-6.04-1.553-9.1-6.44-13.509-9.642-8.277-6.064-18.206-8.115-27.229-12.319-3.442-1.615-6.81-3.352-10.253-4.97-7.121-3.331-14.292-6.524-21.375-9.942-5.083-2.437-10-5.131-14.988-7.727-11.781-6.117-23.613-12.143-35.307-18.422-4.027-2.158-7.631-5.068-11.608-7.356a82.627,82.627,0,0,0-7.68-3.33c-1.852-.807-4.076-1.306-5.431-2.674-5.568-5.579-12.241-8.871-19.636-11.37-4.747-1.58-9.047-4.561-13.583-6.837-15.7-7.915-31.641-15.383-46.976-23.907-5.307-2.947-11.943-5.022-14.7-11.609a3.591,3.591,0,0,0-2.4-1.678c-7.27-.895-12.366-5.9-17.647-9.955-6.164-4.735-12.825-9.258-17.038-16.217a9.9,9.9,0,0,0-2.858-2.462c-7.407-5.431-14.391-10.974-18.368-19.9-1.864-4.188-6.438-7.146-9.557-10.823-4.138-4.849-8.066-9.855-12.067-14.791-.336-.409-.51-.993-.92-1.229-7.991-4.647-11.62-13.4-18.306-19.363-4.1-3.665-7.1-8.574-10.576-12.938-.485-.593-.8-1.637-1.367-1.814-9.346-2.781-11.595-12.524-17.461-18.629a44.626,44.626,0,0,1-11.085-23.051,87.643,87.643,0,0,0-6.052-21.014,95.939,95.939,0,0,1-7.519-34.128c-.248-9.121-.373-18.193-1.019-27.328-.646-8.836-1.193-17.67-2.088-26.522-.721-7.07.149-14.29.1-21.447-.025-4.81.286-9.794-.8-14.418-2.312-9.83,1.727-19.25,1.056-28.906-.087-1.257-.149-2.909.522-3.743,1.554-1.814,3.38-4.1,5.456-4.535,1.491-.31,3.865,1.779,5.22,3.332a9.426,9.426,0,0,1,1.79,5c.472,3.778,2.834,6.3,4.8,9.321a69.645,69.645,0,0,1,8.215,17.185c1.864,6.1,5.046,11.148,8.724,16.1,7.494,10.04,14.876,20.168,22.457,30.148,3.157,4.188,8.538,6.762,9.1,12.887.075.748,1.292,1.78,2.113,1.989,4.822,1.156,6.761,4.712,8.836,8.827,1.914,3.777,5.1,7,7.991,10.211,5.642,6.215,11.545,12.2,17.2,18.4a60.614,60.614,0,0,1,4.909,6.709c1.454,2.09,2.312,5.345,4.25,6.176,7.32,3.156,10.253,10.429,15.584,15.4,5.269,4.874,11.172,9.357,15.274,15.087,7.78,10.875,18.691,18.157,28.248,26.981.92.871,1.9,2.076,3.02,2.275,6.587,1.169,9.147,6.685,13.1,11.011,4.76,5.156,10.775,9.184,16.293,13.632,1.777,1.416,3.964,2.373,5.6,3.925,7.954,7.571,15.8,15.263,23.675,22.946,2.734,2.656,5.244,5.64,8.2,8.028,4.337,3.5,8.973,6.635,13.521,9.866,5.381,3.827,10.725,7.717,16.243,11.332,5.742,3.753,11.57,7.446,17.573,10.75,16.218,8.935,30.187,20.99,44.963,31.976,10.228,7.633,21,14.592,31.728,21.526,7.854,5.072,15.87,9.98,24.159,14.292,7.444,3.889,15.323,6.909,23.041,10.229,4.474,1.913,9.184,3.344,13.459,5.566q21.158,10.9,42.03,22.3c5.518,3.035,9.88,7.891,16.143,9.967,8.2,2.7,16.206,6.028,24.284,9.035,3.368,1.256,6.811,2.224,10.116,3.554,7.842,3.144,15.485,6.6,24.06,7.729,5.182.7,10.1,3.369,15.137,5.1,7.469,2.532,14.988,4.869,22.407,7.578,4.747,1.755,9.147,4.921,13.993,5.854a218.459,218.459,0,0,1,26.57,7.072c6.04,1.938,12.341.919,18.467.214.124-.563.261-1.121.423-1.692a23.728,23.728,0,0,0-3.89-2.611c-6.6-2.695-13.248-5.231-19.859-7.828-.733-.274-1.454-.82-2.15-.772-10.514.635-15.858-8.3-23.6-12.737-4.275-2.449-7.655-6.662-12.092-8.638-5.008-2.236-10.738-2.859-16.156-4.189-2.734-.7-5.642-1.029-8.128-2.25-2.423-1.178-5.344-2.845-6.351-5.068-2-4.448-5.53-6.6-9.495-8.389a97.315,97.315,0,0,0-12.1-4.6c-3.828-1.109-5.158-3.219-3.79-6.825,1.466-3.841-.547-5.37-3.579-7.169-7.034-4.191-13.981-8.577-20.593-13.4-4.051-2.971-7.295-7.022-11.123-10.353-1.9-1.64-4.287-2.722-6.437-4.075-1.727-1.106-4.089-1.854-5.008-3.418-4.921-8.3-13.807-12.091-20.394-18.465-2.175-2.127-4.25-4.388-6.475-6.491a18.664,18.664,0,0,0-4.126-3.232c-4.561-2.334-4.611-2.247-4.946-8.648-8.973-3.951-15.273-12.662-25.079-16.218a7.172,7.172,0,0,1-1.926-1.293c-8.2-7.132-16.454-14.189-24.52-21.461-6.686-6.015-13.124-12.255-19.648-18.406-.559-.523-1.069-1.306-1.74-1.491-8.3-2.176-13.795-8.711-20.245-13.557-10.8-8.142-20.767-17.4-31.082-26.21-1.168-1.007-2.05-2.832-3.318-3.119-10.054-2.275-15.36-10.974-22.954-16.517-11.284-8.229-22.705-16.268-34.114-24.285-1.454-1-3.418-1.228-4.921-2.147-4.549-2.81-9.023-5.756-13.459-8.7-2.983-1.966-5.679-4.536-8.873-5.966-3.666-1.6-6.835-3.182-8.7-7.01a7.523,7.523,0,0,0-3.877-3.478c-8.19-2.922-14.478-9.77-23.451-11.15-1.454-.21-2.97-2.622-3.716-4.323a16.5,16.5,0,0,0-7.718-8.176,137.571,137.571,0,0,1-14.9-9.522c-3.517-2.574-6.338-5.913-11.483-5.045-1.106.188-3.554-2.236-3.84-3.766-1.019-5.367-4.586-7.754-9.184-9.322-5.307-1.8-9.408-4.732-11.943-10.115-.907-1.951-4.1-2.845-6.711-4.535,2.125-3.992-.037-5.618-4.2-7.941-4.921-2.761-8.625-7.719-12.813-11.769-5.245-5.109-9.52-11.559-17.473-12.689-4.188-13.671-14.59-21.873-25.216-29.864-2.25-1.69-4.834-2.933-7.059-4.661-1.33-1.044-3.107-2.509-3.268-3.937-.7-6.089-5.394-9.807-8.078-14.679-1.442-2.66-2.983-5.268-4.461-7.916-.36-.646-.41-1.751-.944-2-8.165-3.876-9.047-13.285-14.565-19.3-3.219-3.545-4.176-9.2-6.052-13.922q-5.891-14.876-11.645-29.787c-.547-1.405-1.4-3.232-.932-4.388,2.026-4.91.373-9.642-.124-14.429-.671-6.189-.323-11.933,2.548-17.908,2.908-6.1,4.114-13.1,5.717-19.771,1.466-6.152,2.548-12.4,3.641-18.629,1.814-10.54,3.405-21.1,5.307-31.618a80.735,80.735,0,0,1,2.846-9.494c.323-.968,1.429-1.964,1.255-2.734-1.342-6.064-.3-10.937,5.555-14.265.783-.448.708-2.885.6-4.363-.348-3.813-.932-7.618-1.466-11.83,1.69-.064,3.331-.125,5.53-.213-.534-5.246-1.044-10.227-1.554-15.173-5.717-.658-7.73.534-9.743,4.9-1.8,3.915-3.927,7.667-5.953,11.483-.472.895-1.442,1.729-1.491,2.624-.385,10.277-6.6,18.181-11.135,26.655-4.76,8.911-10.7,17.186-16.131,25.727a28.8,28.8,0,0,0-2.51,3.876c-4.176,9.967-10.39,18.665-16.479,27.5-3.256,4.709-5.6,10.029-8.351,15.11-.472.895-.522,2.213-1.23,2.761-9.992,7.767-11.433,20.915-19.027,30.134a96.241,96.241,0,0,1-8.5,8.816c-4.685,4.412-8.936,8.9-11.284,15.246-1.342,3.641-4.747,6.527-7.245,9.731-1.566,2-3.331,3.853-4.8,5.929-3.654,5.182-7.158,10.464-10.775,15.7-.41.618-1.031,1.564-1.566,1.589-6.686.3-7.432,6.2-9.694,10.437a34.281,34.281,0,0,1-8.3,10.814c-2.336,1.976-3.542,5.367-5.133,8.165-.485.882-.423,2.112-.994,2.894q-8.929,12.082-18,24.049c-1.516,2.037-3.07,4.076-4.772,6-2.125,2.434-4.288,4.844-6.611,7.081-7.208,6.9-14.2,13.9-19.424,22.5a26.046,26.046,0,0,1-4.872,5.52c-5.1,4.6-10.327,9-15.4,13.618-.833.747-1.031,2.165-1.6,3.494,4.051.954,8.078,1.1,11.185,2.859,2.933,1.664,4.909,5.033,7.183,7.505-3.567,9.606-11.123,13.038-20.058,14.626a13.259,13.259,0,0,0-4.822,2.028c-6.226,4.076-8.563,3.131-10.191-4.262a7.043,7.043,0,0,0-.982-1.6c-3.579-.559-5.319,2.126-6.872,4.647-3.455,5.566-6.562,11.335-9.955,16.94-3.256,5.367-6.7,10.636-10.377,16.453,2.088,1.243,4.636,2.759,8.675,5.145-3.157,1.007-4.486,1.78-5.816,1.78-3.766.022-7.084.906-9.743,3.764a9.289,9.289,0,0,1-9.06,2.957c-4.362-.8-7.27.956-9.283,5.008-1.081,2.2-3.244,3.853-4.785,5.84-3.43,4.438-7.1,8.715-9.992,13.472-1.143,1.891-.4,4.885-.547,7.6-.609.149-1.4.61-1.988.423-6.04-2.064-7.394-2.064-9.681,3.17-2.312,5.209-6.375,7.916-11.011,10.165-4.834,2.337-7.767,5.7-7.792,11.411,1.031,2.074,6.313,1.85,3.79,5.937-2.063,3.319-5.083,2.737-8.1,1.156a18.944,18.944,0,0,0-3.032-.907c.671,5.235,5.878,3.4,7.78,6.7-.062,2.621-.87,4.125-4.6,3.528-7.394-1.181-14.3-.957-21.065,3.99-5.456,3.99-10.738,7.754-14.64,13.286a4.631,4.631,0,0,1-2.386,1.886c-8.923,2.2-10.887,10.7-15.684,16.73-4.275,5.321-6.972,12.714-16.367,13.419-.062,2.264-.137,4.561-.2,7.4-14.478-2.835-17.5,8.637-23.178,16.368-.982,1.366.062,4.376.4,6.559.82,5.334-.236,6.688-6.711,7.659.112-2.96.249-5.806.435-10.406-2.349,2.175-3.977,3.011-4.6,4.317-5.816,11.94-5.928,12.151-18.679,17.953,4.2.759,6.885,1.259,10.054,1.844-.671,3.167-3.256,3.005-5.244,3.551-9.917,2.759-10.2,3.308-8.786,13.276.311,2.012-.087,4.135-.162,6.2l-1.951.324c-.92-2-1.8-4.015-2.709-5.988-.323,0-.7-.1-.808.025-8.886,10.037-20.245,17.384-29.516,27-1.069,1.108-1.988,2.761-3.281,3.172-7.245,2.3-9.234,8.8-12.738,14.413-4.163,6.688-9.607,12.541-14.515,18.743-2.858,3.616-5.481,7.456-8.662,10.76-6.2,6.439-12.776,12.516-19.064,18.89a32.367,32.367,0,0,0-5.655,7.247c-2.51,4.659-.286,8.153,4.983,8.364a6.328,6.328,0,0,0,3.716-.658c5.369-3.794,10.613-7.756,15.858-11.746.969-.758,1.479-2.2,2.523-2.786,5.766-3.2,11.657-6.15,17.4-9.38,5.108-2.858,9.805-6.563,15.137-8.876,7.73-3.317,13.869-9.494,22.37-11.4,4.089-.907,7.767-3.528,11.744-5.082a27.734,27.734,0,0,1,7.208-1.715c5.22-.521,7.233-1.741,7.419-6.86.162-3.977,1.814-5.555,5.008-7.57,3.057-1.911,5.195-5.566,7.27-8.772,1.964-3.032,4.064-5.02,7.941-5.06,1.541-.023,3.964-1,4.437-2.172,1.678-4.228,5.22-5.269,8.935-6.413,1.7-.524,3.927-.97,4.785-2.225,3.828-5.644,9.047-7.06,15.46-5.532a37.187,37.187,0,0,0,2.784-4.921,9.857,9.857,0,0,1,7.755-6.724c4.362-.92,6.8-3.615,8.811-7.68,3.032-6.176,8.637-10.054,15.137-12.105,4.362-1.365,8.19-2.646,9.631-7.7.348-1.306,2.448-2.711,3.977-3.007a12.547,12.547,0,0,0,10.265-9.261c1.591-5.243,5.182-7.37,10.452-7.057,1.031.048,2.225.434,3.045.048,1.5-.7,3.244-1.591,3.964-2.921.4-.706-.82-2.943-1.889-3.652-3.766-2.474-4.611-5.047-1.79-8.923,1.118-1.542.907-3.988,1.839-5.73a70.422,70.422,0,0,1,4.822-6.8c2.436,2.146,4.051,3.564,6.214,5.468,2.262-3.344,4.213-6.228,6.425-9.522-1.3-1.215-2.51-2.362-4.151-3.9,1.28-1.964,2.61-4,4.288-6.537,8.177,6.849,14.217,1.005,20.257-2.845a9.35,9.35,0,0,0,3.6-6.961c-.062-3.83,1.168-6.214,4.586-6.835,4.673-.833,6.3-3.827,6.649-8.3,7.693-.185,12.254-4.063,15.671-10.626,2.548-4.832,6.984-8.661,10.34-13.111a71.828,71.828,0,0,0,6.525-10.118c2.026-3.85,3.418-8,5.1-12.026.3-.71.472-1.766.994-2.04,5.642-2.846,8.364-8.688,13.024-12.54a18.134,18.134,0,0,0,4.5-5.717c2.66-5.467,4.573-10.887,11.11-13.719,5.829-2.537,7.954-8.115,6.351-15.1-6.525,1.553-4.872,7.294-6.388,11.123-5.443-2.028-7.283-4.821-6.9-9.98a53.488,53.488,0,0,0,.211-8.338c-.82-9.732,4.225-15.907,14.155-17.6,2.349-.4,5.431-1.208,6.649-2.9,3.853-5.33,8.8-6.76,14.839-5.717,3.5.612,5.518-.485,5.717-4.174.236-3.764,2.486-6.114,5.518-7.8,4.946-2.736,7.531-7.356,10.464-11.906,3.5-5.495,7.767-10.489,11.707-15.686.771-1.016,2.237-1.9,2.361-2.955,1.094-9.32,7.643-18.094,2.635-27.528,3.691-6.9,9.072-3.318,13.907-2.708,1.976-5.2,3.79-10.141,5.742-15.051.559-1.393,1.168-3.332,2.312-3.864,6.313-2.971,7.171-8.813,9.631-14.491,3.244-7.507,7.345-15.285,14.677-20.319a10.971,10.971,0,0,0,5.1-9.048c.037-1.455.336-3.369,1.293-4.228,3.02-2.734,5.232-5.54,4.263-9.938-.124-.563.584-1.38,1.044-1.964,8.587-10.814,15.274-22.768,21.637-34.986,5.766-11.036,12.08-21.8,18.082-32.723a49.646,49.646,0,0,0,2.262-6c1.168-.087,2.4-.26,3.629-.249,6.562.051,5.978.475,6.177,7.073.323,9.866-2.013,18.839-4.66,28.247-3.094,10.974-3.306,22.731-4.859,34.139-.3,2.249-.969,4.423-1.4,6.635-.907,4.723-2.635,9.233-1.442,14.355.646,2.768-.323,6.1-1.143,9.007-3.343,11.785-7.022,23.442-10.29,35.224-1.491,5.342-2.274,10.887-3.517,16.3-2.249,9.731-4.772,19.385-6.885,29.155-2.809,13.024-7.854,25.23-13.248,37.32-4.573,10.215-8.724,20.628-13.658,30.661-2.9,5.915-6.922,11.282-10.576,16.825-6.2,9.421-11.906,18.974-14.888,30.087a42.359,42.359,0,0,1-11.272,19.7c-4.089,4.029-9.308,8.252-9.656,15.112a3.737,3.737,0,0,1-1.591,2.56c-6.487,3.926-6.288,11.184-9.756,18.156,5.182-1.637,8.886-1.665,11.185,2.81,1.578,3.055,1.815,5.679-.137,8.623-4.051,6.116-5.493,13.648-11.471,18.865-2.809,2.474-3.989,6.9-5.791,10.5-2.075,4.177-4.486,7.941-8.488,10.664-1.292.882-1.777,3.019-2.523,4.636-.646,1.377-.808,3.133-1.727,4.248-5.866,6.986-11.856,13.856-17.858,20.745-.994,1.139-2.747,1.849-3.281,3.129-2.635,6.374-8.849,9.1-13.372,13.543-2.9,2.859-6.351,4.363-10.911,1.256,6.04,6.128,2.809,11.682.249,17.214-.423.895-.994,2.247-1.727,2.412-8.028,1.813-8.5,11.183-14.8,14.651-.423.237-1.019.735-1.031,1.105-.124,8.364-8.289,11.507-11.682,17.859-3.331,6.239-8.513,11.483-12.7,17.288-7.929,10.987-15.92,21.933-23.5,33.144-3.119,4.612-8.115,7.63-9.93,13.423-1.715,5.515-5.07,10.513-6.922,15.991-1.367,3.979-3.008,6.86-7.22,8.14a14.473,14.473,0,0,0-9.2,8.7c-1.442,3.379-3.766,5.32-7.829,4.637-9.2-1.53-9.805-.945-10.017,8.512-2.747,2.238-5.853,4.177-8.2,6.786-3.94,4.338-3.268,7.047,2.287,8.851,4.288,1.388,8.836,1.9,13.559,2.881,1.342,2.1-.062,3.778-2.013,4.586a13.356,13.356,0,0,1-6.674,1.156c-4.983-.748-8.351.46-10.576,5.317-1.4,3.108-4.25,3.344-7.171,1.53-2.15-1.341-3.89-1.281-4.524,1.53,2.386,2.906,4.834,5.639,7.034,8.562,2.846,3.741,2.709,6.723-.311,10.377a9.518,9.518,0,0,1-2.212,2.14c-3.641,2.176-8.128,3.552-10.874,6.534-3.554,3.866-7.345,4.015-11.819,3.693-2.709-.212-4.424,1.565-4.747,4.1-.783,6.514-4.076,11.62-7.158,17.3-3.89,7.208-10.365,13.162-11.657,21.948-.5,3.329-3.343,6.274-4.921,9.494-2.473,5.033-5.1,10.04-7.059,15.285-1.69,4.513-2.846,8.587-7.109,12.118a15.7,15.7,0,0,0-5.356,14.391c.423,2.534.621,5.108,1.218,7.593,1.056,4.4-.075,7.669-3.206,11.134-2.4,2.638-3.169,6.725-4.7,10.169-1.317,2.982-3.045,5.828-3.89,8.934-2.038,7.607-6.425,14.788-6.835,22.456-.3,5.816-1.23,10.5-5.1,14.529-2.237,2.325-4.312,4.337-2.945,7.952.994,2.635-.746,4.1-2.486,5.854-1.653,1.667-3.94,4.316-3.6,6.078,1.106,5.953-2.361,10.489-4.064,15.375-3.306,9.569-3.753,9.407-.385,16.962-12.3,1.654-15.808,7.63-11.943,20.854,7.531-1.229,7.929-7.319,8.612-12.739.845-.461,1.317-.93,1.74-.895,10.042.856,8.028-.284,11.3-8.562,2.734-6.847,3.666-14.589,9.644-19.973,1.106-.98,1.206-3.243,1.454-4.957.758-5.38.7-5.394,5.369-11.308,1.056,1.306,2.051,2.5,3.529,4.286.721-1.48,2.1-3.017,1.752-3.728-2.6-5.368-.808-8.786,4.238-11.183.833-.386,1.355-1.457,1.777-1.964.534-3.383-4.66-5.258-1.6-8.649,3.306-3.628,5.232,1.566,8.774,1.578,2.075-3.754,4.126-7.755,6.462-11.545,2.1-3.444,4.5-6.71,6.848-9.992,4.623-6.449,9.942-12.291,15.025-18.33,4.014-4.737,6.351-11,11.259-15.3,1.678-1.468,3.529-2.808,5.108-4.385,1.205-1.181,2.8-2.561,3.02-4.027.87-6.165,4.859-9.991,9.333-13.536,2.858-2.248,5.6-4.263,5.1-8.7-.534-4.647,4.462-4.127,7.009-6.1.025-4.139.336-7.745,4.462-10.59,2.237-1.528,3.206-5.752,3.542-8.9a11.524,11.524,0,0,1,5.021-8.936c2.225-1.6,3.766-4.149,5.742-6.15,2.983-3.082,6.065-6.064,9.159-9.047.733-.71,2.138-1.067,2.4-1.85,1.988-6.029,7.1-8.963,11.943-11.859,5.555-3.331,4.946-9.135,6.288-14,.857-3.1,2.026-4.974,4.921-6.155,1.852-.758,3.418-2.248,5.269-3.042,5.555-2.348,7.991-5.989,4.486-13.05,3.616-.112,6.326-.722,8.8-.185,5.568,1.217,6.512,1.13,9.482-3.356,1.268-1.914,2.423-3.917,3.554-5.916a6.586,6.586,0,0,0,.3-2.026c-2.125-.346-4.4-.373-6.4-1.107-2.8-1.032-5.17-2.958-4.288-6.362.845-3.182,3.268-4.438,6.574-3.765,2.423.494,4.834,1,6.574,1.378,4.7-3.678-2.684-9.382,3.927-12.1,1.044,1.281,2.15,2.584,3.579,4.311,9.06-7.555,14.839-17.685,22.27-27.827-3.268.274-5.829.485-8.376.682-1.342-4.784-.211-8.983,3.716-10.062,3.355-.937,7.158-.052,11.607.047-1.255-2.858-2.15-4.844-2.809-6.339,2.548-3.977,4.449-7.827,7.208-10.909,1.466-1.643,4.362-2.223,6.736-2.733,2.274-.486,4.7-.261,7.071-.349.075-.546.137-1.082.224-1.63-2.212-1.391-4.437-2.807-6.86-4.336.683-.882,1.118-1.926,1.541-1.913,5.779.16,9.035-2.288,9.855-8.266a17.755,17.755,0,0,1,3.095-7.767c1.3-1.8,3.84-2.709,5.866-4.052-2.274-7.2-2.274-7.2,6.91-9.977-.522-2.6-1.069-5.247-1.715-8.415,4.735-1.094,6.748-4.261,8.09-8.822,1.392-4.736,4.325-9.035,6.872-14.081,5.083-.6,10.439-1.38,12.117-8.6,1.131-4.871,7.556-9.085-.224-14.268,2.3-1.488,3.94-2.223,5.108-3.415,3.405-3.42,6.773-6.652,5.916-12.491-.746-5.006.982-9.631,5.853-12.463,1.044-.6,2.6-1.877,2.51-2.686-.684-6.2,5.232-9.009,7.084-14.528-3.629-4.149-2.6-9.083-.6-13.879a7.947,7.947,0,0,1,3.194-3.654c4.25-2.437,7.059-6.64,5.642-11.086-1.765-5.591-.05-9.4,4.138-12.826,1.131-.918,2.51-2.437,2.535-3.677.1-6.573,4.275-11.41,6.885-16.855,1.852-3.813,3.231-7.479,2.523-11.782-.211-1.215-.423-3.316.186-3.676,6.6-3.928,4.449-11.894,8.09-17.249,2.225-3.3,3.231-7.547,4.288-11.484,1.827-6.836,4.138-13.287,10.6-17.463-.4-2.27-1.143-4.273-.994-6.225.211-2.686.472-5.691,1.814-7.866,1.466-2.362,2.759-4.3,1.616-7.023-1.143-2.745.236-4.684,1.553-7.032,2.2-3.942,4.847-7.968,3.616-12.949a3.2,3.2,0,0,1,.075-1.53c1.23-4.351,1.4-9.6,4.051-12.8,3.393-4.115,4.636-8.9,7.183-13.162,3.815-6.449,5.182-13.347,5.294-20.593a14.878,14.878,0,0,1,3.02-9.2c2.672-3.593,4.486-7.792,6.686-11.757,6.251,3.753,7.245,6.053,6.1,11.335a28.385,28.385,0,0,0-.621,8.189c.708,9.444,2.113,18.867,2.349,28.31.174,6.055.435,12.081.671,18.045.273,6.948-.385,14.058.348,21.128.422,3.988.236,8.055.336,12.081q.429,18.006.808,36.014c.037,1.281-.659,2.8-.174,3.789,3.256,6.712.671,12.8-1.143,19.265-1.578,5.566-1.814,11.52-2.7,17.287-.808,5.291-1.7,10.574-2.573,15.867-.087.5-.5,1.133-.323,1.471,3.629,7.032-.7,14.017-.236,21.061a15.379,15.379,0,0,1-2.995,9.16,37.617,37.617,0,0,0-7.519,19.785c-.236,2.772-.6,5.767-1.852,8.167-6.537,12.4-9.06,26.147-13.571,39.209-3.927,11.36-8.5,22.494-12.689,33.779-2.734,7.382-5.195,14.9-7.954,22.294-1.976,5.231-4.275,10.352-6.375,15.548-4.76,11.731-9.2,23.624-14.341,35.194-2.585,5.729-6.475,10.874-9.694,16.33a41.344,41.344,0,0,0-2.125,4.861c-1.168,2.747-2.287,5.528-3.5,8.276-.51,1.142-1.814,2.249-1.765,3.305.609,9.533-6.077,15.919-9.843,23.563A50.477,50.477,0,0,0,423.5,784.1c-.895,4.949-4.561,9.581-7.668,13.872-2.523,3.439-6.624,5.864-5.543,11.06-5.12,4.35-2.709,11.644-6.475,16.614-.945,1.256-.758,3.383-1.031,5.111-.211,1.228.087,3.129-.609,3.6-4.387,3.008-4.735,6.761-3.157,11.421.36,1.082-.51,2.96-1.367,4.027-5.406,6.688-10.352,13.471-11.906,22.335-.4,2.3-3.443,4.111-5.642,6.583-.062,3.122,1.23,7.309-3.244,9.6a2.506,2.506,0,0,0-.969,2c.447,7.553-4.7,13.423-5.99,20.4-.46,2.519.261,5.254.472,8.374-8.612,9.868-13.633,22.21-17.386,35.259a132.6,132.6,0,0,1-5.058,13.544c-3.057,7.3-6.338,14.49-9.408,21.774-4.747,11.258-9.172,22.67-14.267,33.754-2.3,5.021-5.916,9.419-8.935,14.081-.833,1.268-2.075,2.361-2.56,3.741-2.15,5.94-4.213,11.929-6.1,17.971-2.473,8.016-6.239,15.457-8.525,23.658-2.8,10.07-6.761,19.987-10.352,29.93a62.516,62.516,0,0,1-5.816,11.557c-4.027,6.512-7.991,12.96-8.2,20.954-.012.237-.037.605-.211.7-7.718,5.159-5.443,14.854-9.868,21.7-4.424,6.795-7.357,14.587-10.7,22.045a26.862,26.862,0,0,0-1.864,7.333c-.82,6.646-2.187,12.512-7.32,17.907-4.561,4.809-6.5,12.03-9.954,17.984a70.852,70.852,0,0,0-8.6,23.971,184.479,184.479,0,0,1-5.8,24.992,63.74,63.74,0,0,1-3.393,7.631c-.845,1.79-2.573,3.5-2.573,5.258,0,3.082-1.367,4.5-3.691,6.077a8.02,8.02,0,0,0-3.181,4.982c-.423,3.915-.994,7.458-3.741,10.612-.6.723.174,3.268,1.032,4.475.758,1.069,2.5,1.478,4.375,2.485-3.5,3.764-11.247,4.076-8.6,12.379,4.064-1.416,8.066-2.709,12.005-4.251,2.573-1.019,2.933-3.182,2.411-5.766-.92-4.46.858-7.5,4.561-10.353,3.045-2.36,5.282-5.965,7.407-9.332a84.916,84.916,0,0,0,6.413-12.1c2.063-4.9,4.5-9.93,5.083-15.1,1.118-9.955,7.283-16.466,13.2-23.575,5.294-6.375,11.048-12.439,14.4-20.419,2.3-5.531,5.406-11.148,11.409-13.782.671-6.948.783-14.008,8.24-17.672a3.8,3.8,0,0,0,1.79-1.418c2.448-5.244,5.257-10.389,7.071-15.844,3.766-11.522,8.811-22.247,16.864-31.43a25.763,25.763,0,0,0,2.249-3.978c1.727-2.983,3.492-5.941,5.866-10-1.64-4.513,1.292-7.7,5.99-11.1a64.718,64.718,0,0,0,22.109-28.657,16.522,16.522,0,0,1,5.692-6.85c3.629-2.507,6.3-5.106,6.351-9.805.037-1.477.336-3.356,1.255-4.371,5.257-5.845,5.008-13.648,7.631-20.408a10.544,10.544,0,0,1,2.3-3.842c6.239-5.727,9.607-13.1,12.676-20.753a29.959,29.959,0,0,1,5.17-8.413c4.1-4.684,7.854-9.421,9.035-15.748.2-.992.373-2.285,1.069-2.845,5.779-4.8,5.816-12.453,9.308-18.4,3.592-6.151,6.823-12.5,10.054-18.854a40.778,40.778,0,0,0,2.684-7.169c1.715-6.2,3.293-12.4,8.637-16.792a9.036,9.036,0,0,0,2.324-3.9c4.872-13.4,9.569-26.868,14.54-40.231.944-2.544,2.983-4.672,4.362-7.07a27.845,27.845,0,0,0,2.063-4.647c.4-1.181.174-2.634.733-3.717,3.853-7.406,8.24-14.576,11.62-22.181,2.436-5.544,3.641-11.634,5.356-17.51.559-1.926.3-4.812,1.541-5.7,5.182-3.753,4.921-9.409,5.481-14.567.435-4.324,1.255-7.7,4.971-10.578,1.939-1.465,2.821-4.633,3.554-7.2a24.552,24.552,0,0,0,.671-7.633,16.647,16.647,0,0,1,6.425-14.181c3.343-2.757,4.362-5.542,2.311-9.3-1.814-3.34-1.317-6.2.92-9.255a16.545,16.545,0,0,0,2.51-6.375c.584-2.935-.062-6.366,3.952-7.4,2.672-8.168,8.8-15.212,8.215-24.433-.211-3.555.522-6.426,3.343-8.923,3.952-3.516,3.8-8.763,4.946-13.458a75.512,75.512,0,0,1,2.523-7.793c.41-1.18,1.5-2.377,1.379-3.455a31.06,31.06,0,0,1,3.281-18.567c2.113-4.064-2.026-6.426-3.045-10.142,2.075-1.082,3.964-2.1,6.3-3.356.062-.21.261-.895.435-1.59.472-1.678.422-4.115,1.529-4.884,5.182-3.606,5.667-9.482,7.879-14.553a42.9,42.9,0,0,1,3.853-7.393c.932-1.317,3.157-3.07,4.039-2.709a7.261,7.261,0,0,1,3.753,4.212,60.2,60.2,0,0,1,2.336,12.041,105.436,105.436,0,0,0,2.784,15.551c1.74,7.317,5.6,15.148,1.7,23.213-.584,1.193-.634,3.429.124,4.349,4.312,5.419,3.952,12.168,5.245,18.319,2.212,10.453,5.742,20.7,5.381,31.652-.087,2.387,1.442,4.849,2.225,7.273,1.79,5.54,4.66,10.861,2.361,17.1-.621,1.739.286,4.027.373,6.064.46,11.57-.659,23.1-1.8,34.548-.733,7.369-.87,14.988-5.381,21.737-2.138,3.182-2.225,7.705-3.368,11.56-1.9,6.362-4.163,12.611-5.717,19.037-1.168,4.934-1.479,10.065-2.138,15.111-.559,4.273-.969,8.588-1.7,12.826-.224,1.415-1.317,2.683-1.988,4.041-.708,1.327-2.349,3.19-1.939,3.949,3.268,5.988-2.4,10.5-2.4,15.9a5.316,5.316,0,0,1-1.516,3.4c-6.338,6.19-9.147,13.869-10.29,22.446a23.431,23.431,0,0,1-2.883,7.891c-2.013,3.679-3.5,7.26-3.306,11.632.087,2.049-1.355,4.249-2.411,6.227-.7,1.316-2.51,2.2-2.871,3.541-1.877,7.072-5.319,13.269-8.873,19.661-4.809,8.574-7.829,18.143-11.968,27.139-1.3,2.863-2.4,5.322-2.051,8.691.249,2.544-.5,5.952-2.125,7.815-8.19,9.344-11.943,20.667-15.659,32.149-1.529,4.809-4.6,9.1-6.624,13.772-2.92,6.771-6.239,13.432-6.338,21.1,0,1.389-.957,2.834-1.641,4.152-.435.895-1.516,1.577-1.752,2.485-3.256,13.558-11.968,24.755-16.255,37.864q-4.772,14.526-10,28.9c-1.466,4.039-3.567,7.828-5.394,11.73-.336.67-1.081,1.281-1.118,1.963-.634,9.6-6.04,17.6-8.811,26.484-4.263,13.659-9.669,26.943-10.862,41.434a31.8,31.8,0,0,1-3.07,11.024c-4.747,9.644-3.157,20.643-7.046,30.4,3.219,10.029-5.083,18.417-4,28.394.472,4.251-2.448,8.787-3.281,13.287-1.553,8.278-1.64,17.012-4.362,24.856-2.635,7.582-3.828,15.273-5.307,22.965-1.491,7.718-2.312,15.461-.969,23.478.808,4.809,1.541,10.3-2.684,14.59a6.612,6.612,0,0,0-1.429,3.477c-1.044,7.844-1.777,15.711-2.945,23.54-.845,5.568-2.274,11.049-3.256,16.592-1.056,6.064-1.951,12.165-2.821,18.255a7.113,7.113,0,0,0,.124,3.767A27.457,27.457,0,0,1,375.3,1501.1c-.1,3.1.336,3.108,5.244,3.853.485-2.1.969-4.227,1.566-6.823,1.553.336,3.268.187,3.753.907,1.653,2.323,3.157,3.231,6.3,2.484,3.84-.895,6,2.213,7.68,5.21a7.027,7.027,0,0,1-.2,7.952c-2.075,3.132-3.778,6.511-5.617,9.818-1.852,3.344-5.356,3.653-8.215.571-1.031-1.1-1.628-2.622-2.622-3.791a21.09,21.09,0,0,0-2.846-2.36c-.895.77-1.889,1.216-1.914,1.727-.423,6.315-.671,12.652-.982,18.966a30.088,30.088,0,0,1-.472,6.09,16.509,16.509,0,0,0,1.852,13.282c1.118,1.878,1.168,4.363,2.113,6.4a3.854,3.854,0,0,0,2.759,1.986c.945-.012,2.647-1.316,2.635-2.025-.025-3.579,1.951-5.664,4.623-7.469.4-.259.994-.834.92-1.166-1.106-6.391,4-11.038,4.685-16.78a15.422,15.422,0,0,1,3.753-8.786c2.709-3.22,5.145-7.319,5.866-11.36,1.9-10.8,6.3-20.441,11.446-29.95,2.038-3.788,2.486-8.525,4.8-12.078,4.9-7.458,6.375-16.653,12.465-23.426a6.963,6.963,0,0,0,1.081-2.834c1.628-5.952,2.833-12.08,9.495-15.76-2.287-1.974-3.964-3.094-5.157-4.584-1.156-1.393-1.8-3.184-3.318-6.054,3.169.648,4.834,1.293,6.475,1.233,1.3-.052,2.6-.959,3.89-1.48-.82-1.383-1.379-3.1-2.548-4.04-1.032-.846-2.759-.808-4.325-1.2,1.044-3.147,3.368-3.244,5.63-3.356,7.245-.4,10.688-4.725,12.714-11.248,1.268-4.09,3.492-7.9,5.443-11.769,2.684-5.283,4.362-10.69,2.9-17.112,4.549-1.542,8.215-4.885,8.327-9.633.087-4.224,5.083-8.634-1.752-13.384,4.946-1.727,8.476-2.958,12.626-4.4-1.056-1.976-1.814-3.518-2.684-4.971-2.212-3.767-3.268-7.445-.5-11.52a8.426,8.426,0,0,0,1.516-5.009c-.472-5.407,1.665-9.683,3.977-14.442,2.56-5.3,5.642-9.542,10.377-12.813,2.237-1.555,3.815-3.5,3-6.476-1.553-5.664.907-9.417,4.946-11.356,1.566-6.75,2.933-12.676,4.312-18.581.41-1.75,1.243-3.479,1.268-5.219.087-6.449,2.983-11.245,8.14-14.838,2.5-1.74,2.821-4,1.914-6.761-2.088-6.439.261-11.981,3.716-17.249.261-.436.92-.809.907-1.2-.224-6.486,2.349-11.4,7.419-15.495,1.553-1.268.758-4-1.939-4.672a18.785,18.785,0,0,0-3.753-.25c-.05-2.15-.435-3.344,0-4.079,4.524-7.814,7.332-16.055,7.593-25.2.062-2.115,1.64-4.313,2.846-6.241a28.609,28.609,0,0,0,4.163-19.175c-.348-2.97.82-5.158,1.964-7.815,2.784-6.464,4.424-13.435,6.649-20.159,1.678-5.033,3.107-10.216,5.406-14.949,3.107-6.4,4.362-13.087,5.008-20.009a22.988,22.988,0,0,1,.224-3.83c2.113-7.792,4.511-15.507,6.425-23.352,1.019-4.161.957-8.574,1.79-12.8,1.64-8.276,4.909-16.489,5.033-24.767.112-9.409,3.194-17.448,6.475-25.786,1.454-3.705,1.814-7.819,2.908-11.67,1.765-6.354,4.275-12.529,5.481-18.967,2.287-12.315,4.362-24.631,1.206-37.281-1.268-5,1.019-10.628-1.827-15.661a3.491,3.491,0,0,1,.41-2.971c5.046-7.543,2.684-16.068,3.38-24.2.2-2.261.932-4.5,1.081-6.783.211-3.22.174-6.464.162-9.709-.037-3.254-.857-6.662-.112-9.718a65.813,65.813,0,0,1,10.029-22.094c3.828,1.118,5.7,2.993,4.648,6.349-1.143,3.641-.162,6.5,2.15,9.233a4.423,4.423,0,0,1,1.28,2.708c-.857,6.415,2.249,11.87,3.579,17.774,1.007,4.461,3.182,7.767,5.157,11.57,2.647,5.093,3.741,10.974,5.717,16.466a40.746,40.746,0,0,0,3.84,8.288c4.946,7.62,8.7,15.611,10.253,24.672a27.572,27.572,0,0,0,3.84,9.1,49.49,49.49,0,0,1,6.711,17.859c.82,5.52,2.61,10.923,4.325,16.27a30.949,30.949,0,0,1,.721,16.651c-.51,2.364-.112,4.934-.1,7.393.012,1.99.609,4.178-.012,5.941-1.628,4.587-.708,8.454,1.889,12.354.92,1.378,1.9,3.778,1.33,4.9-3.48,6.671-.087,13,.447,19.46.1,1.256.733,2.586.5,3.753-2.97,14.652,1.777,29.055,1.367,43.66-.174,6.549,2.448,13.172,2.2,19.7-.3,8.6-2.262,17.129-3.293,25.714-.236,1.9.559,3.9.783,5.865.485,4.04,1.8,8.228,1.131,12.07-.721,4.3,0,7.964.957,11.991a42.056,42.056,0,0,1,.858,12.913c-.845,10.638-2.436,21.238-3.231,31.876-.907,11.721-1.106,23.463-1.877,35.182-.584,8.923-1.069,17.9-2.56,26.682-1.181,6.985-3.84,13.721-5.841,20.58-.336,1.231-1.23,2.81-.783,3.666,2.958,5.644,1.429,11.447.907,17.211-.2,2.2-.733,4.388-1.156,6.589-.323,1.714-1.5,3.7-.982,5.056,1.479,3.915,1.939,7.2-1.181,10.664-.857.92-.248,3.442.124,5.143a32.2,32.2,0,0,1-.721,18.084c-1.852,5.691-.994,12.2-2.225,18.168-1.715,8.18-2.05,16.54-5.182,24.594-2.237,5.769-1.64,12.641-2.212,19.016-.373,4.037-.1,8.175-.969,12.08-.833,3.79-.945,7.01,2.361,9.828-1.429,2.163-2.659,4.029-3.828,5.817-.013.386-.124.71-.013.894,5.6,9.137-3.89,17.45-1.5,26.485.311,1.119-1.591,2.673-1.814,4.115-.485,3.192-.559,6.451-.771,9.666-.112,1.73-.236,3.469-.273,5.2q-.056,3.672,0,7.347c.087,5.641,2.336,11.357-1.23,16.85-.833,1.281-.733,3.493-.41,5.145.932,4.75,2.249,9.422,3.318,14.132,1.591,7.12,1.541,7.132-4.76,10.924a12.63,12.63,0,0,0-1.79,1.453c-.174.137-.236.433-.634,1.228,1.206,3.558,3.306,7.646.783,11.919,2.672,6.391,1.168,12.529-.671,18.819-.671,2.324.621,5.23-.05,7.555-1.516,5.3-1.553,9.966,2.324,14.4a6.552,6.552,0,0,1,.261,8.59c-2.436,3.291-2.013,6.735-2.249,10.613-.51,8.45,3.281,17.336-1.79,25.425a2.5,2.5,0,0,0-.348,1.482c1.056,8.549,1.765,17.16,3.393,25.586.746,3.841,2.51,7.035-.733,10.653-1.852,2.076-2.61,4.833-.211,7.668,2.336,2.733.609,5.851-1.317,7.553-3.766,3.319-3.107,7.035-2.846,11.224.584,9.656.646,19.324.92,28.97.012.523-.286,1.156-.075,1.512,4.9,8.553.447,18.073,2.821,26.9.708,2.65.385,5.591.572,8.848-1.4.982-3.007,2.115-5.058,3.568,2.138,2.26,4.114,4.363,6.363,6.747-1.516,2.336-2.846,4.4-4.238,6.574,1.79,4.052,3.977,7.917,1.181,12.4-.634,1.018-.149,3.043.373,4.4a12.187,12.187,0,0,1-1.454,12.316c5.381.545,6.226,3.752,5.294,7.742-.808,3.429.186,5.616,3.045,7.865,2.523,1.99,3.84,5.407,6.127,7.767,3.206,3.294,4.722,3.083,8.326-.072,1.914-1.677,3.89-3.3,6.052-5.121-1.094-11.248,3.84-21.176,7.382-31.445.845-2.408,2.175-4.832,2.237-7.269.087-4.8.77-8.687,4.847-12.19,2.473-2.1,3.443-6.228,4.449-9.631,1.454-4.872,2.3-9.917,3.43-14.877,2.759-12.118,5.468-24.233,8.4-36.3,1.23-5.131.882-10.688,4.176-15.348.659-.92.373-3.356-.435-4.3-2.858-3.4-1.553-6.426-.323-10.006,2.684-7.715,5.506-15.512,6.873-23.5.994-5.868.062-12.142-.559-18.16-.522-5.006-.994-9.691,3.355-13.395a4.38,4.38,0,0,0,1.466-2.585c.945-7.295,1.727-14.615,2.585-21.921.186-1.517.348-3.047.683-4.536a63.537,63.537,0,0,0,.858-25.8,11.961,11.961,0,0,1,1.889-7.815c3.43-5.259,3.927-10.478,1.417-16.057-1.106-2.459-1.715-4.672-.062-7.234.733-1.13,1.218-3.292.646-4.238-2.672-4.311-.659-8.313-.174-12.6a83.7,83.7,0,0,0-.075-18.245c-.336-3.266-1.3-5.915,2.287-7.866a4.47,4.47,0,0,0,2.212-2.871c.534-6.984,3.032-13.685,2.684-20.842-.348-6.623-.41-13.287,3.393-19.374,1.019-1.639.895-4.662.137-6.584a15.245,15.245,0,0,1-.3-10.49,6.966,6.966,0,0,0,.025-4.385c-1.205-2.661-.149-4.428,1.566-6.178,2.374-2.414,3.7-5.681,2.038-8.4-2.486-4.015-1.554-8.338-2.486-12.453-.46-2.076-.373-4.9.7-6.588,2.8-4.411,2.212-8.139-.261-10.76,1.23-5.866,2.672-10.664,3.157-15.572,1.019-10.441,1.578-20.916,2.125-31.395a15.256,15.256,0,0,0-1.094-5.828c-2.983-8.288-4.225-16.292-2.287-25.4,1.417-6.6-.7-14.131-2.013-21.079-.671-3.493-1.516-6.414,1.429-9.16a4.138,4.138,0,0,0,1.491-2.574c-.186-6.447-.6-12.9-.895-19.347-.261-6.1-.348-12.216-.746-18.308-.186-2.968-.174-6.351-1.6-8.771-2.784-4.8-6.612-8.948-9.731-13.56a13.223,13.223,0,0,1-2.312-6.113,28.758,28.758,0,0,1,.684-9.112c.5-2.089,2.063-3.95,3.306-5.816,1.33-1.976,2.821-3.851,4.573-6.227-5.456-2.954-9.495-5.963-8.973-12.078.05-.758-.944-1.839-1.727-2.4-3.666-2.6-3.032-5.333-.82-8.577.907-1.34,1.69-3.615,1.193-4.934-3.094-7.915-1.839-16.167-2.125-24.246-.162-4.249-1.143-6.972-5.555-7.382a88.2,88.2,0,0,1-5.406-33.131c.05-1.7-.969-3.417-1.3-5.159-.485-2.449-.87-4.921-1.181-7.406-.124-.984.572-2.3.124-2.971-4.5-6.675-1.964-12.081,3-16.74-1.616-5.221-3.119-10.007-4.9-15.634-1.454-.189-3.679-.387-5.841-.76-3.169-.558-5.008-2.459-5.207-5.752-.186-2.935-.012-6.176,3.318-6.984,5.891-1.445,6.81-5.507,6.661-10.516-.012-.51.05-1.022.087-1.527.248-2.6.385-5.779,3.492-6.065,1.852-.174,4.412,1.229,5.8,2.721,4.623,5.006,9,10.04,12.552,16.142,7.469,12.788,16.492,24.682,25.042,36.85,8.662,12.367,17.051,24.968,26.4,36.8a124.021,124.021,0,0,1,19.362,35.582c2.585,7.256,4.636,14.043,11.309,18.8,3.256,2.312,3.517,6.611,3.318,10.613-.174,3.468.261,6.675,4.014,8.415,1.056.5,2.436,1.766,2.486,2.736.3,6,5.257,11.072,3.268,17.6-.6,2.038-.684,5.12.46,6.662,3.517,4.822,4.076,10.466,5.419,15.869,1.479,5.967,2.2,12.155,6.686,16.966a4.7,4.7,0,0,1,1.119,3.542c-2.138,10.079,2.4,19.524,2.759,29.427.348,9.856,3.368,19.625,5.418,29.392.82,3.9,1.578,7.557-1.5,10.862-.646.71-1.367,2-1.143,2.758,1.553,5-.82,10.155-.112,14.615.845,5.27-.112,10.131,0,15.163.323,14.031.559,28.073.82,42.117,4.66,9.245-.8,18.418-.323,27.679.5,9.367-1.23,18.789,2.2,28.009,1.019,2.723.609,6.138.261,9.16-.721,6.016-2.349,11.966-2.635,17.983-.286,5.581.758,11.209,1.056,16.841a115.625,115.625,0,0,1,.174,12.1c-.348,6.861-1.118,13.683-1.529,20.543-.087,1.418.062,3.666.944,4.213,3.778,2.324,2.908,5.755,1.292,8.055-4.25,6.091-.969,11.855.261,17.5,1.193,5.64,3.554,10.962,1.877,16.975-.5,1.851.2,4.026.348,6.078.062,1.245.671,3.043.087,3.678-4.039,4.3-2.61,8.886-1.466,13.7.447,1.878-.348,4.027-.435,6.066-.087,1.492-.584,3.729.174,4.375,6.388,5.443,3.542,12.19,2.933,18.6q-.969,10.309-2.249,20.578c-.361,3.195.522,5.708,2.051,8.627,2.659,5,4.8,9.942,2.9,16.6-1.814,6.351-.708,13.71-.087,20.557.373,4.214,2.61,8.24,3.281,12.479.348,2.26-.534,4.907-1.4,7.182-1.4,3.718-2.4,7.306-.6,11.147,1.056,2.277,1.3,5.01,5.046,4.833.907-.05,2.846,2.375,2.734,3.508a7.341,7.341,0,0,1-2.759,4.857c-1.727,1.156-4.163,1.256-7.146,2.051,4.623,5.966.05,14.291,8.09,18.305-1.442,2.228-2.5,3.84-3.79,5.841,2.486,4.238,4.188,8.923,1.989,14.206a5.41,5.41,0,0,0,.472,3.715c1.578,3.293,3.343,6.427.622,10.04-.41.585-.124,2.039.286,2.873a24.652,24.652,0,0,1,1.74,19.959c-1.529,4.583,2.771,6.1,4.648,9.083-.547,3.021-1.28,6.013-1.6,9.06-1.056,10.054-.8,19.871,4.71,28.931a5.331,5.331,0,0,1-.323,4.86c-4.623,5.753-2.535,12.317-2.013,18.332.646,7.479,1.255,14.949,1.988,22.407,1.206,12.2-2.349,24.632,1.988,36.61a4.3,4.3,0,0,1,.037,3.022c-2.635,5.081-.522,9.942.236,14.959.46,3.159-.087,6.452.05,9.683a40.385,40.385,0,0,0,.969,8.923c.684,2.6,1.442,4.871-.522,7.2-2.759,3.232-1.119,5.527,1.6,7.728,2.5,2.016,6.052,3.383,5.108,8.128-1.665,1.044-3.567,2.252-5.6,3.529.6,6.438-2.573,12.74.3,18.967a30.35,30.35,0,0,0,3.194,4.648c1.293-1.032,2.672-1.989,3.865-3.12,2.8-2.649,4.312-5.993,5.8-9.533,1.342-3.178,2.2-5.4-.46-8.276-.882-.957-.82-3.469-.273-4.935,1.218-3.344,3.094-6.438,4.524-9.706.92-2.051,2.473-4.41,2.113-6.314-1.466-7.59,2.287-11.593,8.277-14.03,1.056-2.9,2.137-5.432,2.933-8.053,1.3-4.363,3.343-8.809,3.331-13.209-.037-4.613-.174-8.278,6.537-9.16-7.034-6.937-4.723-12.972-1.529-19.472,1.765-3.571,1.914-7.921,2.809-11.906.559-2.514.609-5.234,1.715-7.47,3.84-7.956,2.038-16.578,3.331-24.831a5.21,5.21,0,0,0-1.466-4.139c-3.144-2.7-2.585-5.988-1.988-9.272,1.392-7.852,4.064-15.223,9.234-21.113a9.7,9.7,0,0,0-.584-1.912c-1.106-1.841-2.311-3.617-3.48-5.431,2.423-.77,4.859-1.553,8.177-2.611,1.578-1.74.373-4.276-1.255-6.163-2.821-3.244-2.2-6.227-.982-9.92.982-2.992.671-6.461.646-9.718-.012-7.157.547-14.253,4.039-20.615,1.081-1.976,3.591-3.155,5.394-4.637-1.765-2.373-3.716-4.661-5.257-7.193-1.69-2.8-2.423-5.733.771-8.218.609-.458,1.429-1.178,1.429-1.766-.249-8.236,6.052-15.3,4.238-23.809-4.71-.546-4.71-.546-4.2-5.951,1.777,2.671,2.933,4.448,4.114,6.239M524.422,576.177c.609,1.838,1.081,3.64-2.349,3.657.87-1.2,1.752-2.39,2.635-3.568-.472-2.935-1.814-6.055-1.255-8.752.783-3.677,2.7-7,1.64-11.083-.559-2.188,1.081-4.388,3.455-3.766,1.4.373,2.871,2.61,3.194,4.237.435,2.162-.5,4.549-.348,6.81.348,5.728-1.665,9.98-6.972,12.465m658.528,704.746c-5.133,1.579-9.383,2.324-13.123,4.163-4.312,2.115-8.053,5.321-12.216,7.767-6.885,4.014-13.981,7.643-19.126,14.044a10.6,10.6,0,0,1-9.47,4.052c-4.959-.261-9.283,1.69-13.832,3.84-7.295,3.469-14.863,7.01-23.55,5.642a7.245,7.245,0,0,0-4.859,1.592c-4.984,3.777-10.775,4.211-16.641,4.921-10.352,1.253-20.8,1.229-30.994,4.288-8.028,2.424-16.442,4.037-25.029,2.408-2.51-.469-5.269-1.376-7.581-.8a19.861,19.861,0,0,1-13.434-.906c-1.839-.77-5.1.112-6.959,1.368-6.1,4.063-13.931,4.709-19.536-.187-6.127-5.331-12.627-7.046-20.493-5.79-2.858.446-6.612.072-8.886-1.492a136.719,136.719,0,0,1-15.012-12.626c-2.411-2.238-4.163-5.146-6.351-7.655-6.177-7.136-14.118-12.776-18.008-21.823-.447-1.019-1.926-1.578-2.833-2.449-2.187-2.051-4.747-3.841-6.338-6.29-5.394-8.338-9.594-17.51-18.865-22.715-1.554-.87-2.672-3.182-3.231-5.059-2.075-6.71-6.761-11.567-11.694-15.968a75.337,75.337,0,0,1-15.41-19.837,91.949,91.949,0,0,0-12.863-17.124c-4.723-5.12-9.383-10.055-11.794-16.8-.845-2.3-2.374-5.255-4.337-6.078-7.444-3.082-10.638-10.2-15.5-15.582-4.461-4.959-9.445-10.169-8.451-18.245.236-1.974-2.548-4.784-4.536-6.511-7.705-6.624-8.712-16.008-12.055-25.365,6.835.237,10.713,1.951,14.3,7.182,4.225,6.19,9.88,12.379,16.392,15.659,5.307,2.7,9.433,5.11,12.4,10.252,2.635,4.5,4.561,4.412,9.259,1.245.534-.361,1.38-.3,3.393-.708-2.809,9.816,4.934,11.768,10.5,15.672,4.536,3.2,8.674,7.02,13.037,10.488,1.355,1.092,2.846,2.646,4.4,2.8,8.066.806,12.726,6.041,16.616,12.242,1.951,3.1,4.138,5.159,8.065,4.573,4.225-.622,7.419,1.4,10.315,4.162,1.292,1.22,2.548,2.761,4.114,3.319,8.451,2.958,14.876,9.654,23.55,12.417,3.492,1.078,5.866,2.5,8.849-.424,1.541-1.493,3.517-2.125,5.307.608-1.727,1.766-3.418,3.491-5.232,5.357,2.026,3.417,4.785,3.816,8.078,3.529a10.937,10.937,0,0,1,5.791.969,94.433,94.433,0,0,0,30.721,10.7,20.518,20.518,0,0,1,8.4,3.4,17.194,17.194,0,0,0,10.091,2.97c5.307.09,11.57-.782,15.671,1.68,5.916,3.528,11.607,3.478,17.7,3.254,3.442-.124,6.549.125,9.321,2.562,3.542,3.083,7.668,2.512,11.645.943a54.789,54.789,0,0,0,5.816-3.056,26.5,26.5,0,0,1,2.573,1.219c7.2,4.411,14.18,8.288,23.439,7.406,7.978-.767,15.982,3.182,24.234,1.343a2.522,2.522,0,0,1,1.479.374c7.146,3.516,14.938,3.231,22.569,3.688,11.918.712,23.774,3.257,35.792,1.022a11.785,11.785,0,0,1,6.1.361c7.817,2.846,15.845,2.447,23.9,2.547,1.9.025,4.66,1.465,5.406,3.032.783,1.629-.062,4.337-.833,6.3-.522,1.264-2.274,1.986-3.38,3.03-4.014,3.766-7.568,7.768-6.773,13.1m-52.78,196.519c6.139-3.641,10.34-5.158,14.255-2.671,8.873,5.556,20.543,2.26,28.658,9.666.746.687,2.5.152,3.741.339a61.267,61.267,0,0,1,6.786,1.316c4.4,1.233,8.811,2.537,13.136,4.05a146.549,146.549,0,0,1,16.38,6.291c8.463,4.139,16.74,8.338,26.235,9.942a181.8,181.8,0,0,1,26.657,6.486c6.152,2.026,12.154,3.718,18.654,3.379,3.8-.2,7.68-.67,11.471-.247,6.052.693,12.03,2.1,18.057,3.069,5.021.808,10.116,2.26,15.087,1.951a44.174,44.174,0,0,1,21.574,4.437c8.575,3.942,17.946,4.547,27.005,5.02,4.984.262,9.967-.172,14.975.984,4.722,1.092,9.557,1.625,14.292,2.632,3.455.747,7.059,1.34,10.178,2.87,5.7,2.8,11.11,4,16.5-.757,4.71,4.836,10.4,5.454,16.442,4.771a29.718,29.718,0,0,1,6.089-.583c5.356.458,9.557-.947,11.309-6.325,9.445,2.558,11.148,5.924,6.885,13.656a8.929,8.929,0,0,1-5.145,3.989,32.481,32.481,0,0,1-11.371,1.181,29.928,29.928,0,0,0-19.275,3.666c-3.368,1.927-6.724,2.547-9.967-.3a5.4,5.4,0,0,0-7.1-.521c-4.275,3.047-8.612,2.536-13.223,1.268-4.8-1.329-9.01-.847-12.229,3.777-.982,1.405-3.417,1.939-5.294,2.537-5.729,1.852-11.421.907-17.287.048-9.781-1.405-19.735-1.738-29.528-3.031-3.7-.473-7.171-2.412-10.812-3.48-1.889-.546-4.263-1.429-5.828-.77-3.008,1.268-5.468,2.285-8.413-.112-.733-.585-2.486-.1-3.729.16-3.74.86-7.456,1.839-11.172,2.773-4.9,1.228-7.618.209-10.7-3.74a72.184,72.184,0,0,0-5.033-5.644c-3.629-3.7-7.9-5.952-12.912-7.79-8.078-2.982-14.006-10.714-23.551-11.011-.895-.026-2.026-1.543-2.6-2.609-1.628-3.01-4.138-3.517-7.171-3.207-8.028.783-14.988-1.679-21.139-6.847-1.292-1.109-3.132-1.615-4.747-2.337q-6.245-2.817-12.515-5.567a112.192,112.192,0,0,0-10.5-4.35c-2.871-.945-6.015-.945-8.91-1.817-6.624-2-13.024-5.206-19.772-6.212-7.245-1.092-12.788-4.473-18.281-8.737-1.342-1.041-3.356-1.218-4.934-2.013-4.325-2.173-8.3-4.809-11.235-9.581m714.5,73.533c-3.53,2-6.512,3.693-9.495,5.384-7.121,4.037-13.856,8.847-22.171,10.389-1.678.311-3.182,1.589-4.735,2.5a52.85,52.85,0,0,1-23.849,7.683,18.4,18.4,0,0,0-5.033,1.565c-4.735,1.814-9.37,3.927-14.18,5.48-5.53,1.766-11.2,3.108-16.827,4.547-2.7.7-5.443,1.144-8.152,1.78-3.219.782-6.425,2.274-9.656,2.312-6.549.075-12.738.758-18.306,4.623a8.02,8.02,0,0,1-4.437.991c-14.839-.171-28.757,4.724-42.95,7.969-4.983,1.144-10.7,1.428-14.727,5.9-.833.921-3.877.585-5.455-.137-1.715-.783-2.921-2.681-4.25-3.987-7.494,2.995-8.873,2.995-17.038.67-2.461-.71-5-1.131-7.494-1.742-3.045-.718-5.543-.2-7.27,2.723-2.051,3.479-4.772,4.386-8.376,2.1a8.615,8.615,0,0,0-3.554-1.292c-10.8-1.47-21.587-2.948-32.4-4.139a46.865,46.865,0,0,0-9.892.274c-4.685.457-8.96,0-12.888-3.705,1.044-1.057,1.591-2.076,2.386-2.36,5.543-1.963,11.048-4.1,16.728-5.544,2.784-.683,5.965-.274,8.886.188,5.257.831,10.178,2.124,15.845,1.016,5.953-1.156,12.192-.706,17.834-3.666.746-.4,1.989.237,2.983.162,3.243-.237,6.5-.534,9.743-.855,7.22-.735,14.354-3.778,21.711,0,1.678.855,4.375.135,6.475-.373,8.4-2.076,16.852-6.464,25.091-6.053,12.85.646,24.172-6.452,36.873-5.184,2.473.25,5.12-2.2,7.817-2.845a53.37,53.37,0,0,1,8.028-.808c2.187-.2,4.424-.212,6.586-.6,4.213-.758,8.364-1.887,12.6-2.585,3.517-.571,7.159-.447,10.651-1.156,6.748-1.365,13.447-3.021,20.108-4.722s13.372-3.281,19.81-5.6c5.195-1.866,10.017-4.724,15.187-6.86,8.873-3.669,18.119-4.938,27.192-7.233,3.517-.895,7-.585,10.6,3.19M810.457,682.545c5.331-.57,10.228-.92,14.864,1.069,7.966,3.431,15.833,7.107,23.712,10.761,10.9,5.045,21.848,10.006,32.6,15.337,4.486,2.237,8.588,5.295,12.825,8.054,5.133,3.344,10.017,7.144,15.4,10.092,10.054,5.542,20.444,10.5,30.56,15.955,3.666,1.99,6.984,4.712,8.277,10.352-9.06-2.734-17.212-5.194-25.365-7.6-4.138-1.229-8.674-1.69-12.378-3.7-5.182-2.823-8.985-8.266-15.982-7.371-.945.125-2.063-1.38-3.182-2-6.139-3.38-11.086-8.61-18.828-9.594-4.437-.559-8.786-3.925-12.589-6.8-2.461-1.866-4.5-3.133-7.556-2.275-2.908.822-5.1-.447-6.425-2.921-4.126-7.518-11.719-10.017-18.729-13.532a37.541,37.541,0,0,1-8.463-6.026c-2.871-2.661-5.269-5.845-8.737-9.8m21.773,567.782c-2.225-3.641-4.039-6.065-5.145-8.786-.385-.968.634-2.971,1.6-3.878.584-.545,2.585-.321,3.455.285,3.778,2.61,7.394,5.27,9,10.079,1.889,5.756,5.518,10.875,5.6,17.3.025,1.565,1.641,3.107,2.461,4.672,1.056,2,2.2,3.962,3.107,6.053,3.48,8.153,7.034,16.28,10.253,24.532,1.081,2.773,2.063,5.951,1.727,8.786a16.487,16.487,0,0,0,3.616,12.8,15.093,15.093,0,0,1,2.51,13.892c-3,9.41-.137,16.743,6.388,23.516a14.045,14.045,0,0,1,3.318,7.53c.186,1.527-2.187,3.207-2.809,5.033a28.151,28.151,0,0,0-.982,6.41,36.42,36.42,0,0,0,.162,4.031,5.782,5.782,0,0,1-3.529-3.6c-2.759-7.9-4.76-16.144-8.339-23.637-2.5-5.26-3.617-9.933-1.255-15.151,1.355-3.017.7-5.205-2.324-6.026-3.579-.958-4.81-3.344-5.592-6.539-2.448-10.152-8.687-19.1-9.3-29.9-.149-2.4-1.678-4.822-2.933-7.035-3.467-6.078-6.015-12.354-6.164-19.5-.05-1.654-.659-3.815-1.8-4.822-5.543-4.822-6.077-10.342-3.032-16.045m-541-784.282-.7-.623a36.94,36.94,0,0,1-4.263,1.727c-4.449,1.167-6.437-.649-5.6-5.084,1.852-9.656,6.6-16.553,16.926-18.665,1.616-.325,4.051-2.574,4-3.867-.186-6.561,4.834-10.576,6.947-15.943,1.889-4.824,6.2-5.844,10.526-6.5a4.288,4.288,0,0,1,5.021,5.159c-1.442,6.475-3.467,12.753-8.513,17.635-4.2,4.054-8.066,8.464-12.03,12.74q-6.17,6.671-12.316,13.424M437.3,838.2c-4.921,3.855-2.722,8.2-3.542,11.846-2.113,9.421-5.729,18.492-8.5,27.774-2.336,7.779-10.228,12.1-12.129,20.258-.609,2.686-5.344,2.858-8.028.718-2.8-2.223-1.852-4.833.224-6.547a9.883,9.883,0,0,0,3.877-9.384c-.161-2.1,1.081-4.348,1.79-6.486.584-1.667,1.976-3.282,1.889-4.871-.211-3.977,1.715-6.277,4.859-8,3-1.652,3.94-4.064,4.188-7.53a57.248,57.248,0,0,1,2.933-13.286c1.081-3.391,5.841-5.181,12.44-4.487m451.111,664.2c4.486.909,7.022,2.4,5.443,7.336-.572,1.8.037,3.972.2,5.988s.646,4,.646,6c-.037,4.026-.249,8.068-.509,12.094-.423,6.411-.273,13.085-6.686,17.249-6.91-8.115-6.475-33.938.907-48.668M731.268,435.3a8.474,8.474,0,0,0-2.572-.893c-5.891-.036-9.159-2.895-11.334-8.413a16.474,16.474,0,0,0-6.984-7.519,15.533,15.533,0,0,1-7.059-8.612,3.828,3.828,0,0,1,.7-3.383c.733-.658,2.361-.671,3.48-.422a6.052,6.052,0,0,1,3.256,1.88c2.572,3.4,6.114,5.193,9.892,6.8a10.929,10.929,0,0,1,3.989,3.455c4.437,5.817,8.985,11.593,13.024,17.67,2.6,3.891,4.4,8.33,6.686,12.765-8.3,1.541-11.135-1.6-13.074-13.324M465.7,775.914c-1.243,2.9-2.336,5.382-3.368,7.891-2.287,5.632-4.971,11.148-6.723,16.952a21.079,21.079,0,0,1-6.351,9.878c-6.947-5-6.947-5.5-4.7-11.929a68.713,68.713,0,0,0,2.411-11.171c.46-2.51.261-5.159.895-7.62,1.292-5.158,4.462-6.8,9.756-5.555,2.212.521,4.449.87,8.078,1.553M657.6,1423.83c.075-5.965.385-11.771.124-17.535-.149-3.131.36-5.221,3.169-7.073,3.455-2.247,4.051-5.643,2.038-9.409a33.444,33.444,0,0,1-1.529-4.026c3.43-1.7,5.7-.559,6.785,2.028a43.231,43.231,0,0,1,2.15,8.721c.348,1.966-.236,4.289.634,5.918,1.8,3.417,1.069,6.511-.236,9.594-1.69,4.049-3.492,7.891-1.056,12.379.485.882-.311,3.267-1.23,3.878-.932.633-2.958.331-4.151-.262a74.409,74.409,0,0,1-6.7-4.213m625.322-138.111c.236.51.51,1.032.746,1.555-3.554,3.479-7.121,6.947-10.638,10.476-2.5,2.537-4.462,5.928-7.419,7.57-8.587,4.809-18.107,6.8-27.975,6.9-.311,0-.621-.722-1.64-1.916,4.723-3.5,8.14-8.747,15.025-8.722a13.34,13.34,0,0,0,8.364-3.008c6.338-4.634,13.211-8.589,20-12.638.895-.546,2.336-.162,3.542-.214m-269.357,644.725a83.8,83.8,0,0,1-2.809,9.28,3.462,3.462,0,0,1-3.144,1.318c-1.143-.558-2.6-2.161-2.523-3.228a16.534,16.534,0,0,1,2.026-6.353c2.411-4.486,2.6-8.936-.6-12.825-3.964-4.835-2.983-9.619-1.379-15.014,4.561,2.188,9.06,3.421,9.718,9.172.547,4.7,1.7,9.32,2.7,14.6-1.28.971-3.02,2.313-3.989,3.047m-126.8-436.882c-.945-7.642-1.79-14.6-2.672-21.564-.385-2.971-.261-6.212-1.466-8.822-3.057-6.563-.845-13-.224-19.449.1-1.206,1.491-2.287,2.9-4.264.87,2.288,1.827,3.629,1.814,4.947-.087,5.952-3.964,12.327,2.287,17.473.211.173-.249,1.007-.161,1.48.422,2.186.944,4.349,1.379,6.548a51.005,51.005,0,0,1,1.156,6.646c.174,3.469-.124,6.986.05,10.466.124,2.773-.174,5.069-5.058,6.538m266.7-174.6c.3.573.634,1.156.957,1.742-5.269,3.056-8.612,8.959-15.87,9.145a6.731,6.731,0,0,0-4.623,2.113c-2.7,3.394-6.326,3.12-9.843,3.068-4.1-.06-4.735-1.328-3.79-7.182,3.828.261,8.115,1.542,11.023-2.649,3.915-5.664,9.321-7.6,16.119-6.151,1.914.422,3.989-.039,6.028-.087M1041.785,784.986c-2.809-1.667-4.661-2.823-6.574-3.89-1.989-1.1-3.964-2.882-6.04-3.017-7.283-.463-8.935-6.838-12.477-11.184a3.562,3.562,0,0,1,.186-3.445,4.039,4.039,0,0,1,3.306-.883c7.556,1.38,13.6,5.532,18.405,11.271,2.175,2.574,4.474,5.591,3.194,11.148M747.735,451.092c3.915-2.124,6.537-.733,9.072,1.814,2.113,2.14,4.511,4,6.612,6.155a40.916,40.916,0,0,1,5.891,6.957c.671,1.131.373,3.9-.534,4.647-1.293,1.083-4.81,1.878-5.232,1.268-3-4.227-7.668-5.579-11.757-7.94a4.262,4.262,0,0,1-1.653-2.488c-.882-3.352-1.578-6.772-2.4-10.414m271.631,1549.491c1.342,2.116,3.766,4.587.149,6.314-2.809,1.345-4.536-.708-5.791-3.392-1.367-2.97-3.331-5.668-4.971-8.5-1.33-2.312-2.548-5.057.037-6.92a16.875,16.875,0,0,0,6.823-9.695c.224-.819,2.9-.982,4.449-1.453a23.085,23.085,0,0,1,1.131,4.7c0,.77-1.566,1.493-1.8,2.372-1.3,5.52-4.275,11.076-.025,16.579m189.509-759.427c.112.61.211,1.206.336,1.826-2.038-.259-4.636.149-6.015-.955-2.436-1.99-1.342-4.7.733-6.538,3.393-3.007,6.86-5.928,10.514-8.613,2.56-1.866,5.779-.533,7.506,2.7,1.392,2.6.41,4.349-1.939,5.618-3.7,1.986-7.432,3.976-11.135,5.963m67.072,609.6c-.348.087-.684.184-1.031.3-.845-3.132-2.15-6.238-2.324-9.4-.087-1.345,1.976-3.755,3.418-4.079,2.485-.559,3.417,1.789,3.343,4-.149,4.685,1.777,8.326,5.033,11.532,1.007,1.007,2.2,2.7,2.026,3.865-.286,2.028-1.131,4.762-2.61,5.6-2.5,1.405-4.114-.783-4.909-3.2-.957-2.9-1.976-5.756-2.945-8.613M374.259,595.226c-5.916-1.886-11.57,1.122-16.9-1.749,1.727-2.846,3.094-5.3,4.648-7.607,2.324-3.38,7.022-5.195,10.042-3.853,3.84,1.69,3.853,5.058,3.343,8.5-.174,1.243-.572,2.448-1.131,4.707M641.627,1676.347c1.205-3.367,2.063-6.19,3.231-8.873.559-1.218,2.026-3.245,2.486-3.108,1.479.5,3.629,1.678,3.79,2.846a26.217,26.217,0,0,1-.323,9.023c-.783,3.69-2.374,7.208-3.48,10.85-.721,2.337-1.553,4.276-5.058,3.565-.012-5.131,4.536-10.513-.646-14.3m3.7,62.015c3.157,5.033,1.678,9.392-.186,13.72-1.193,2.769-3.6,3.977-6.164,2.782-1.33-.619-2.523-3.018-2.548-4.648a41.737,41.737,0,0,1,1.218-10.526,5.316,5.316,0,0,1,3.5-3.18c1.23-.236,2.784,1.169,4.176,1.852m646.846,147.266c2.523,4.722,4.984,8.251,6.289,12.154.783,2.3.05,5.282-.646,7.8-.236.855-2.8,1.949-3.741,1.577-1.914-.823-4.81-2.424-4.934-3.9a85,85,0,0,1,.447-14.964c.062-.859,1.529-1.6,2.585-2.661M862.653,1663.422c-5.157-8.227-4.014-17.473,2.026-22.282,3.7-2.945,8.066-1.742,9.532,2.833-11.21,1.43-9.917,11.1-11.558,19.449m644.124-95.009c5.617-1.642,10.4-3.429,15.361-4.226,1.317-.223,3.132,2.537,4.71,3.917-1.342,1.254-2.51,3.2-4.064,3.589-3.641.92-7.469,1.083-11.234,1.517a6.656,6.656,0,0,1-3.032.076c-1.044-.425-2.349-1.306-2.6-2.252s.7-2.175.857-2.621M933.192,1173.675c3.728-2.176,7.245-1.741,8.6,1.067,1.379,2.823-.994,8.55-4.362,10.4-2.448,1.333-4.275.686-5.7-1.7-2.548-4.263-2.063-7.7,1.466-9.766m-64.81-29.469c-7.2,2.188-11.67,1.156-14.217-3.219-1.641-2.819-.746-5.913,2.075-5.851a22.808,22.808,0,0,1,8.749,2.235c2.635,1.219,4.3,3.568,3.393,6.835m41.3,556.76c2.386,3.728.957,11.568-1.591,12.887-2.51,1.292-4.35.223-5.742-1.926-2.411-3.705-1.64-8.874,2-10.566,1.7-.782,3.952-.321,5.331-.4M1572.3,1554.184c-1.007,2.894-1.392,5.667-2.821,7.73-1.752,2.51-4.735,3.008-7.481,1.341-.87-.534-1.9-2.572-1.6-2.971a54.027,54.027,0,0,1,7.009-7.69c.522-.462,2.548.783,4.9,1.59m-512.354,321.963c-1.467,5.194-2.15,8.934-3.629,12.315-.634,1.38-3.231,2.995-4.536,2.709a3.7,3.7,0,0,1-2.324-5.542c2.075-3.553,4.2-7.431,10.489-9.482m127.023-581.389c-1.541-6.636.895-11.072,6.127-11.772a4.159,4.159,0,0,1,3.318,1.057,3.654,3.654,0,0,1,.236,3.409c-2.225,3.327-4.747,6.486-9.681,7.306M881.779,1402.752c-2.908-2.61-4.983-3.865-6.152-5.692-.907-1.43-1.454-3.963-.771-5.268.733-1.38,3.542-2.97,4.673-2.524a6.88,6.88,0,0,1,3.741,4.724c.311,2.532-.82,5.23-1.491,8.76M1021.5,1745.844a25.843,25.843,0,0,1-1.168,15.333,3.419,3.419,0,0,1-2.983,1.565,3.317,3.317,0,0,1-1.889-2.721,107.417,107.417,0,0,1,2.672-11.881c.2-.695,1.5-1.067,3.368-2.3M262.236,440.431c-2.833,2.585-4.971,4.661-7.245,6.559a10.913,10.913,0,0,1-3.877,2.325,4.267,4.267,0,0,1-3.293-.808c-.46-.336-.336-1.975.037-2.757,1.8-3.556,8.575-6.153,14.379-5.319m53.675-67.123c5.431-1.665,10.452-3.218,16.442-5.07-5.17,11.184-6.2,11.46-16.442,5.07M1464.735,1581.263c1.28-2.9,1.852-6.026,5.381-5.965,3.107.064,4.1,2.845,4.462,5.382.186,1.281-.348,3.417-1.255,3.938-4.039,2.287-5.617-1.863-8.588-3.355m-284.12-243.1c-3.617,4.149-7.73,4.536-11.533,5.181-.969.177-2.324-2.024-3.5-3.143.969-.979,1.827-2.574,2.958-2.821,3.629-.795,7.407-1.477,12.08.783m50.319-24.916c-4.748,5.616-7.593,6.847-12.912,5.627,2.2-6.486,6.338-8.288,12.912-5.627M1582.909,1500.2l-.05,2.039c-4.859,2.188-9.93,1.964-14.975.16-.8-.272-1.392-1.939-1.467-3.018-.037-.511,1.417-1.7,2.063-1.617,4.822.685,9.619,1.592,14.428,2.436m-302.576,370.719c3.7-1.667,7.556-.473,8.128,2.176a6.224,6.224,0,0,1-1.8,4.981c-2.138,1.8-5.692.361-6.661-2.673-.5-1.5.211-3.417.335-4.483M282.344,706.109c.249,6.3-.82,8.425-4.027,8.4-2.7-.023-4.25-1.5-4.3-4.187-.05-3.269,2.15-4.425,8.327-4.213M1620.516,1504.5c.36-.559.708-1.13,1.069-1.69,4.349.324,8.289,1.927,10.2,6.113,1.243,2.711.547,5.744-3.181,8.343-.012-3.245-.025-5.458-.037-7.8-1.541-.782-2.945-1.368-4.2-2.15-1.355-.847-2.573-1.864-3.852-2.81M674.871,1359.764c-3.679,3.616-6.686,2.263-10.327-.249.907-2.759,1.8-5.442,3.07-9.258,2.883,3.791,4.822,6.315,7.258,9.507M396.778,580.053c-1.118-7.119.534-11.894,4.076-17.5,1.8,6.735,1.715,11.831-4.076,17.5m621,1209.686c-4.263-2.325-7.208-3.954-10.141-5.557,1.939-3.976,2.386-4.634,3.629-4.363,4.5,1.032,5.307,4.71,6.512,9.92m4.934-584.87c-3.8,3.589-6.4,3.067-8.811,1.281-1.9-1.418-3.417-3.232-.82-6.564,2.833,1.542,5.742,3.143,9.631,5.283M656.714,1461.945c.311-4.884.559-9.307.845-13.872,5.394,3.967,5.232,8.888-.845,13.872M313.128,395.7c-1.553,4.535-2.3,6.723-3.07,8.923-1.23-.647-2.945-.957-3.629-1.976-1.74-2.485-1.007-5.988,1.156-6.576,1.379-.383,2.933-.224,5.543-.37M513.536,626.035c1.069-2.832,2.15-5.652,3.293-8.674,6.152,3.977,5.779,5.21-3.293,8.674m122.623,1133.69c2.858,1.352,4.959,1.975,6.475,3.291.385.349-.609,3.38-1.678,4.127-2.088,1.418-4.735,1.243-5.754-1.453-.5-1.293.435-3.119.957-5.965m358.4,24.9c-2.722-1.887-4.747-2.621-5.505-4.039-.5-.994.286-3.616,1.317-4.274,2.038-1.318,4.014.075,4.66,2.175.435,1.353-.174,3.03-.472,6.138M636.321,1618.883c2.846,1.34,4.971,1.737,5.99,3.017.572.747-.534,4.127-1.094,4.191a7.575,7.575,0,0,1-5.207-1.32c-.684-.571.087-2.919.311-5.888m574.468-590.041c-.547,1.964-.969,3.444-1.38,4.921-1.467-.658-3.6-1.006-4.138-2.123-.522-1.071.609-2.935,1.007-4.463,1.243.461,2.51.92,4.511,1.665M633.375,1679.913c3.728,1.926,4.66,4.1,3.629,6.723-.833,2.15-2.635,2.995-5.568.894.547-2.162,1.168-4.583,1.939-7.617M392.292,599.021c-2.448-1.53-4.524-2.128-4.785-3.184-.311-1.192.721-3.083,1.727-4.088.385-.373,3.057.571,3.455,1.466.547,1.206-.124,2.935-.4,5.806m636.618,1492.16c-1.119,2.387-1.479,4.559-2.51,4.944-1.193.438-3.654-.31-4.263-1.317-.559-.931.174-3.552,1.168-4.236.944-.634,2.945.247,5.6.609M644.1,1802.016c.708-3.591,1.9-5.992,5.157-5,1.106.361,2.622,3.13,2.225,4.062-1.529,3.655-4.3,2.3-7.382.934M1063.471,794.1c3.728-.249,6.91-.214,8.041,4.346-5.978,1.555-6.139,1.482-8.041-4.346m520.3,764.995c-2.324-1.056-4.176-1.5-5.394-2.634-.447-.409.559-2.412.907-3.693a28.517,28.517,0,0,1,5.045,2c.373.233-.236,2.034-.559,4.324M331.844,361.216c-1.541,2.3-2.038,3.915-3.107,4.448a3.2,3.2,0,0,1-4.76-2.163c-.249-.806.758-2.818,1.392-2.893,1.727-.226,3.542.272,6.475.608M1105.6,824.232c2.858-2.126,5.257-1.939,7.158.8a2.735,2.735,0,0,1-.572,2.585c-2.647,1.7-4.7.535-6.251-1.853a7.063,7.063,0,0,1-.336-1.528m-58.92,1133.029c-2.1-2.909-1.678-5.258.882-7.119a2.624,2.624,0,0,1,2.5.646c1.467,2.584.721,4.709-1.889,6.15a8.873,8.873,0,0,1-1.491.324M1316.9,1270.374c-.994,2.449-1.243,4.187-1.864,4.336a24.159,24.159,0,0,1-5.444.124c.261-1.093.2-2.87.833-3.144,1.591-.722,3.455-.77,6.475-1.316m269.071,250.167c5.195-3.02,5.928-2.783,7.606,2.387-3.082.77-5.779.968-7.606-2.387M1014.717,1960.1c-2.038-1.1-3.542-1.5-4.325-2.5-.435-.571.323-2.088.559-3.168,1.255.473,2.809.682,3.691,1.542.547.545.075,2.111.075,4.126m419.856-434.138c-.833,2.053-1.168,3.606-2.063,4.736-.261.347-2.958-.461-2.958-.77a10,10,0,0,1,.919-4.411c.149-.313,2.026.185,4.1.444m165.809,29.753c2.7,1.517,5.17,2.5,3.7,5.765a2.763,2.763,0,0,1-2.5.982c-3.219-1.144-2.982-3.379-1.205-6.747M325.965,406.849c-.982,1.517-1.417,3-2.249,3.3-.858.285-2.138-.574-3.219-.93.547-1.222.82-2.722,1.715-3.534.435-.37,2.038.6,3.753,1.169M1624.082,1558.57c3.53-1.54,5.767-3.094,8.265.523-2.237,3.018-4.362,3.267-8.265-.523M988.619,1790.048c1.852-2.5,3.579-3.417,5.816-1.38a2.114,2.114,0,0,1,.311,2.038c-1.79,2.424-3.691,1.991-6.127-.658m653.247-240.228c-1.218,1.842-1.74,3.295-2.759,3.929-.634.372-2.038-.51-3.082-.834.572-1.181.895-2.671,1.814-3.442.572-.486,2.05.124,4.026.346M361.732,637.78c-3.828,1.779-5.99,3.567-8.923.884,2.324-3.031,4.623-3.031,8.923-.884M319.975,385.315c-3.281-1.542-4.4-3.257-2.287-6.664,3.02,1.64,3.927,3.444,2.287,6.664m691.375,1450.9c-1.765-.646-3.281-.758-3.753-1.517-.435-.7.249-2.088.423-3.182,1.131.2,2.635.053,3.244.71.547.62.1,2.111.087,3.989M959.141,757.942c.224.747.46,1.495.684,2.239-1.9,1.926-4.052,2.422-6.86-.473,2.063-.583,4.114-1.169,6.176-1.766m645.057,747.04c-.559,1.654-.634,3.142-1.355,3.615-.746.486-2.15-.034-3.256-.112.186-1.256.05-2.745.721-3.676.323-.473,2.088.048,3.89.173m435.377,45.832c-.435,2.2-1.193,3.978-3.89,3.22a2.631,2.631,0,0,1-1.143-2.337c1.006-2.447,2.784-2.425,5.033-.883M340.941,393.827c-3.89-.71-4.872-2.46-4.6-5.78,3.442.26,4.834,1.7,4.6,5.78m330.165,940.448c2.56,1.208,3.654,2.674,2.324,4.961a2,2,0,0,1-1.951.469c-2.088-1.292-2.5-3.018-.373-5.43m882.3,170.583c.584-2,1.541-3.567,4.014-2.884a2.579,2.579,0,0,1,.932,2.286c-1.106,2.026-2.734,2.686-4.946.6m-98.949,80.469-2.125,1.542a30.483,30.483,0,0,1-2.423-3.693c-.075-.137,1.33-1.032,2.038-1.578.845,1.242,1.69,2.485,2.51,3.729M527.169,605.358c-.261,1.679-.522,3.357-.994,6.274-3.6-3.255-3.256-5.021.994-6.274M1031.582,2007.58c.733.4,1.467.8,2.175,1.2-.969,1.578-1.951,3.143-2.945,4.72-.572-.331-1.168-.657-1.765-.994.858-1.638,1.69-3.292,2.535-4.922M265.194,804.273c-.124.658-.286,1.318-.435,1.978-2.063,1.117-3.616.855-4.909-3.07,2.386.5,3.865.8,5.344,1.092M334.4,374.328c.671.022,1.317.062,1.976.087.858.717,1.988,1.293,2.486,2.213.3.593-.348,1.688-.584,2.558a13.207,13.207,0,0,1-3.331-2.039c-.559-.6-.4-1.85-.547-2.82M1380.587,2168.8c1.939-3.705,4.113-3.478,7.531-.942-3.281.409-5.406.681-7.531.942M990.508,1753.363c2.423-2.885,4.014-2.39,5.53-.7.248.26.037.918.037,2.3-1.777-.51-3.331-.957-5.568-1.6m2.846,102.961c-.05.658-.087,1.316-.137,1.976-.559.646-1.031,1.652-1.715,1.826-.733.2-1.69-.371-2.548-.6.51-.92.82-2.063,1.566-2.649.708-.51,1.877-.4,2.833-.559m9.93-131.746c-1.6-.671-2.8-.783-3.144-1.389-.36-.623.087-1.706.2-2.586.87.184,2,.137,2.51.671.472.486.261,1.627.435,3.3M241.022,774.248a23.891,23.891,0,0,1-1.578,3.518c-.149.174-1.74-.237-1.79-.5a7.458,7.458,0,0,1,.249-3.184c.05-.185,1.553.076,3.119.162m221.361-8.213c-.211,1.517-.224,3.13-.485,3.18a5.071,5.071,0,0,1-3.194-.412,3.03,3.03,0,0,1-.037-2.459c.945-.4,2.113-.223,3.716-.31m1095.148,794.884c-.994,1.48-1.342,2.6-1.964,2.784a3.059,3.059,0,0,1-2.585-.633c-.335-.349.075-2.213.472-2.325.945-.311,2.1.037,4.076.174m-74.243,45.2c-.36,1.418-.323,2.609-.87,3.01a2.373,2.373,0,0,1-2.336-.424,2.573,2.573,0,0,1,.137-2.474c.385-.433,1.615-.1,3.07-.112m-370.1-254.6c-1.268-1.291-2.075-1.814-2.361-2.536-.2-.486.4-1.243.634-1.889.8.349,1.914.509,2.3,1.119.311.521-.236,1.566-.572,3.307M652.439,1535.642c.572-1.306.783-2.586,1.292-2.747a2.64,2.64,0,0,1,2.361.831,2.347,2.347,0,0,1-.584,2.313c-.522.361-1.628-.16-3.07-.4m8.165-100.815c1.467,1.1,2.361,1.482,2.771,2.175a2.318,2.318,0,0,1-.485,1.839c-.82.037-1.988-.06-2.386-.593s0-1.629.1-3.421m360.427-256.22.808-1.939c1.628.785,3.231,1.567,4.859,2.35-.236.486-.46.971-.683,1.441-1.665-.623-3.318-1.242-4.983-1.852M439.939,1279.469a10.633,10.633,0,0,1-1.864,2.549c-.348.249-1.28-.3-1.939-.473a21.394,21.394,0,0,1,1.516-2.958,11.12,11.12,0,0,1,2.287.882m34.4-544.38a17.2,17.2,0,0,1-2.125,2.92c-.2.2-1.156-.411-1.765-.647a17.883,17.883,0,0,1,1.466-2.869c.137-.187,1.181.285,2.423.6m-245.67,550.346c-.783.125-1.553.261-2.324.386,0-1.393-.012-2.783-.012-4.188.534-.04,1.106-.087,1.64-.135.236,1.3.46,2.622.7,3.938m759.068,635.014c-.547,1.156-.82,1.779-1.119,2.4a8.132,8.132,0,0,1-2.324-1.2c-.224-.212.336-1.779.634-1.814a9.25,9.25,0,0,1,2.809.618m35.046-207.666c-.472.326-.945.66-1.429.984-.646-.61-1.641-1.131-1.839-1.851-.211-.822.323-1.829.895-4.375,1.268,2.835,1.814,4.027,2.374,5.243m250.839,117.666c-1.392-.633-2.324-.818-2.833-1.393a2,2,0,0,1,.435-1.837,6.689,6.689,0,0,1,2.5-.075c-.025.845-.062,1.7-.1,3.3M645.045,1704.4c1.678.56,2.983.621,3.206,1.156.311.646-.162,1.777-.6,2.512a2.283,2.283,0,0,1-1.939-.374c-.447-.623-.373-1.6-.671-3.294m342.481-486.667c-.6-.237-1.205-.459-1.8-.7q1.025-1.883,2.051-3.764c.373.162.783.334,1.181.523-.472,1.3-.957,2.634-1.429,3.937m535.992,382.56c-.36,2.015-.3,2.983-.721,3.641-.286.425-1.268.4-1.926.585-.211-.819-.8-1.8-.522-2.425s1.379-.843,3.169-1.8m-463.8,174.958a11.236,11.236,0,0,1,2.809,1.032c.236.174-.174,1.827-.422,1.852a5.062,5.062,0,0,1-2.61-.386c-.2-.075.1-1.268.224-2.5M895.661,1590.373a16.718,16.718,0,0,1,2.709,2.783,2.257,2.257,0,0,1-.423,1.927,5.529,5.529,0,0,1-2.709-.349c-.149-.073.124-1.293.423-4.361m528.423,635.2a8.785,8.785,0,0,1-.969,2.228c-.149.185-1.218.012-1.243-.152a2.593,2.593,0,0,1,0-1.912c.224-.311,1.168-.112,2.212-.164m-408.037-490.778c-.758-.484-1.591-.72-1.752-1.194-.149-.521.335-1.256.522-1.889a8.736,8.736,0,0,1,2.1,1.119c.161.137-.472,1.119-.87,1.964M1947.4,1483.719c.5.224,1.006.447,1.5.683a8.042,8.042,0,0,1-1.727,1.44,6.577,6.577,0,0,1-2.075.249c.087-.657-.049-1.542.323-1.9.423-.4,1.292-.334,1.976-.471m-404.868,22.093c-.808-.4-1.678-.521-1.914-.979-.211-.422.273-1.192.46-1.8.746.285,1.5.583,2.25.871-.236.57-.473,1.144-.8,1.909M879.43,1689.4c-.422.879-.6,1.876-1.031,2a2.118,2.118,0,0,1-1.9-.608c-.249-.274.137-1.576.522-1.751.522-.249,1.342.163,2.411.362m186.4-471.716c-.733.695-1.118,1.241-1.616,1.428a1.517,1.517,0,0,1-1.168-.534c.075-.585.261-1.492.634-1.629.46-.15,1.156.361,2.15.735m582.62,296.324a19.937,19.937,0,0,1-2.548-2.263,1.673,1.673,0,0,1-.049-1.293,2.868,2.868,0,0,1,1.926-.137c.348.212.249,1.156.671,3.693m-160.379-382.574c-.4.822-.559,1.742-.957,1.867-.547.159-1.268-.3-1.914-.486.187-.61.211-1.542.6-1.727.5-.224,1.268.149,2.274.346M992.286,2002.137c-.907-.2-1.789-.174-2.125-.57-.348-.447-.211-1.306-.3-2a7.1,7.1,0,0,1,2.411.335c.261.15.037,1.268.012,2.237M878.846,1149.5a7.768,7.768,0,0,1-2.125-.882,1.547,1.547,0,0,1,.137-1.306,6.225,6.225,0,0,1,1.926-.236c0,.658.037,1.333.062,2.425M1690.682,1547.9c-.758-.485-1.6-.709-1.764-1.183-.174-.535.273-1.266.46-1.912a8.06,8.06,0,0,1,2.088,1.13c.174.174-.435,1.119-.783,1.965M166.792,525.584c-.51.731-.771,1.567-1.23,1.691-.559.15-1.268-.311-1.889-.509a7.491,7.491,0,0,1,1.205-2.064c.162-.149,1.081.482,1.914.881m518.506,498.5c1.243.486,2.3.633,2.361.972a8.647,8.647,0,0,1-.2,2.682c-.634-.174-1.678-.149-1.864-.523-.348-.756-.2-1.715-.3-3.131m729.2,484.133c.6.225,1.205.422,1.814.646-.273.521-.535,1.043-.8,1.577a12.9,12.9,0,0,1-1.641-.92,7.98,7.98,0,0,1,.621-1.3m-158.08,276.5a9.548,9.548,0,0,1,1.839.807c.137.089-.174.82-.261,1.245a12.02,12.02,0,0,1-1.926-.548,10.089,10.089,0,0,1,.348-1.5M1010.094,760.556a9.728,9.728,0,0,1-.82,2.3,1.58,1.58,0,0,1-1.33-.036,2.592,2.592,0,0,1-.1-1.938c.224-.349,1.181-.2,2.249-.321m1.255,1092.015a9.935,9.935,0,0,1-1.032,1.951,1.352,1.352,0,0,1-1.181-.236,5.885,5.885,0,0,1-.037-1.814c.609.022,1.218.062,2.249.1M413.568,291.175a6.59,6.59,0,0,1-1.243,1.566c-.249.2-.833-.023-1.268-.062.149-.772.311-1.542.472-2.312.4.163.783.311,2.038.809m-54.595,711.432a8.414,8.414,0,0,1-.994,2.025,1.452,1.452,0,0,1-1.205-.184,2.446,2.446,0,0,1,.025-1.791c.249-.284,1.143-.05,2.175-.05M1228.6,1639.166c-.373-.249-1.143-.622-1.094-.759a5.885,5.885,0,0,1,.845-1.505c.311.373.8.722.845,1.119.062.346-.36.772-.6,1.145M933.428,1138.478c-.05.411,0,1.021-.224,1.206-.273.187-.82,0-1.255-.025.075-.422,0-1.019.249-1.2.236-.2.8,0,1.23.023m70.589,468.113c.435.025.87.05,1.33.089-.087.422,0,1.032-.261,1.217s-.82,0-1.255-.013c.05-.434.112-.872.186-1.293m37.494,236.623c0,.409-.037.808-.05,1.229-.385-.072-.957,0-1.143-.236s-.012-.768.025-1.181Zm76.281-488.346a7.236,7.236,0,0,1-.758,2.091,1.4,1.4,0,0,1-1.28-.052,6.226,6.226,0,0,1-.249-1.826c.621-.048,1.243-.113,2.287-.212M374.035,336.77c-.075.411,0,1.007-.249,1.194s-.82,0-1.243-.013c.075-.411,0-1.008.249-1.193s.82-.013,1.243.012M664.159,1512.363a8.052,8.052,0,0,1,.845.747c.037.036-.211.521-.336.521a6.756,6.756,0,0,1-1.181-.249Z" transform="translate(2162.813 2297.834) rotate(178)"/></svg>