<svg xmlns="http://www.w3.org/2000/svg" width="501.548" height="61.436" viewBox="0 0 501.548 61.436">
  <path id="Path_4439" data-name="Path 4439" d="M32.08.483q0,1.56-1.978,1.56a3.377,3.377,0,0,1-1.055-.11Q21.709-5.581,14.722-5.581a34.906,34.906,0,0,0-6.46,1.23A4.609,4.609,0,0,0,5.537-1.692Q5.251-1.165,4,2a7.731,7.731,0,0,1-1.406.791A2.479,2.479,0,0,1,1.89.923,21.211,21.211,0,0,1,3.955-7.866q.527-.835,1.538-2.571L9.47-19.16q4.856-10.5,9.207-17.886l.022.681q1.033-.483,1.56-2.615.483-1.912,1.45-1.912a.4.4,0,0,1,.242-.066q.637,0,1.011,1.033.066.264.615,2.593,2,8.459,4.153,19.644l1.318,6.855q.483.945,1.252,2.813.352,1.165,1.033,4.263A28.342,28.342,0,0,1,32.08.483ZM27.817-3.34v-1.3q0-.879-1.252-7.515l-2.153-11.4a65.348,65.348,0,0,0-3.142-11.1q-2.812,2.966-7.581,14.172l-1.472,3.406q-.527.747-.923,1.4a37.486,37.486,0,0,0-1.626,3.615,20.55,20.55,0,0,0-1.3,3.516q0,.681.352.681L14.9-8.13q.4-.022.791-.022a15.908,15.908,0,0,1,6.064,1.165A36.351,36.351,0,0,1,27.817-3.34Zm61.194-8.613q0,1.143-2.175,2.681a14.172,14.172,0,0,1-3.274,1.758Q82.4-7.119,69.434-4.2,59.678-2,56.733.439a1.992,1.992,0,0,1-1.055-.571V-1.494a18.062,18.062,0,0,1,4.9-2.747q2.769-.967,7.932-2.2l8-1.912q1.824-.417,3.845-1.055A18.9,18.9,0,0,0,84-10.9a8.422,8.422,0,0,0,1.3-1.23,5.032,5.032,0,0,0-2.285-2.021,19.218,19.218,0,0,0-2.966-1.1q-1.428-.417-5.493-1.626-18.875-5.779-18.875-10.9a2.417,2.417,0,0,1,.967-2.153q.11-.088,2.461-.791,13.074-3.823,19.6-3.823h.747q4.043,0,5.6,1.8a1.3,1.3,0,0,0-.33.7q-3.757-.527-4.329-.527a51.525,51.525,0,0,0-8.306,1.121q-5.361,1.055-10.327,2.351A9.6,9.6,0,0,0,58.491-27.6a10.988,10.988,0,0,0,4.9,3.977q.527.242,6.021,2.593l4.526,1.23Q89.011-15.623,89.011-11.953Zm25,2.065q0,2.241-4.285,5.208a35.013,35.013,0,0,1-6.284,3.516,10.033,10.033,0,0,1-3.164,1.033h-.9l-.615-.681a4.045,4.045,0,0,1,1.187-1.736q.879-.352,2.4-.967,8.811-3.406,8.811-6.658,0-2.109-6.108-2.109A36.693,36.693,0,0,0,99.1-11.8q-4.2.7-5.164,2.087-.286,1.165-.967,3.208a6.543,6.543,0,0,1-1.3-3.252,3.318,3.318,0,0,1,.725-2.219q.857-1.033,5.823-2.131a34,34,0,0,1,6.46-.989Q114.016-15.1,114.016-9.888ZM99.6-6.064a9.681,9.681,0,0,1-.835,2.043q-.989,2-1.1,2.373a92.117,92.117,0,0,0-4.021,21.8,7.738,7.738,0,0,0-1.274.33H92.4a1.468,1.468,0,0,1-1.022-.527,1.515,1.515,0,0,1-.516-1.033q0-6.108,4.307-20.632a19.77,19.77,0,0,1,1.692-3.977A4.715,4.715,0,0,1,98.9-7.185,1.367,1.367,0,0,1,99.6-6.064Zm22.9-15.249.022.088q0,.857-1.8,2.087a8.088,8.088,0,0,1-2.153-1.8q.659-1.582,1.428-1.582A5.8,5.8,0,0,1,122.5-21.313ZM120.432-4.526q-.264,3.56-.264,4.131a3.947,3.947,0,0,1-1.89.593,7.7,7.7,0,0,1-.352-2.5q0-8.306,2.065-8.811A1.27,1.27,0,0,1,120.784-10q-.022-.286-.066-.308.022.242.022.593Q120.74-8.152,120.432-4.526Zm24.126-6.855-.7.637a12.937,12.937,0,0,0-3.582-.725H140.1q-1.648.088-2.417.088h-1.758q-.044,0-1.538.483a20.261,20.261,0,0,0-2.791.483,5.771,5.771,0,0,0-3.516,4.57,12.653,12.653,0,0,0-.242,2.285q0,.264.022.527.176,2.439.176,2.878a13.321,13.321,0,0,1-1.626.264,4.529,4.529,0,0,1-.615-1.648q0-.242.11-1.252.066-1.011.066-1.362A22.378,22.378,0,0,1,127.6-10.5a4.77,4.77,0,0,1,1.582-1.868q2.241-1.538,8.284-1.538,6.064.022,7.1,1.6Zm9.448-9.932.022.088q0,.857-1.8,2.087a8.088,8.088,0,0,1-2.153-1.8q.659-1.582,1.428-1.582A5.8,5.8,0,0,1,154.006-21.313ZM151.941-4.526q-.264,3.56-.264,4.131a3.947,3.947,0,0,1-1.89.593,7.7,7.7,0,0,1-.352-2.5q0-8.306,2.065-8.811A1.27,1.27,0,0,1,152.292-10q-.022-.286-.066-.308.022.242.022.593Q152.249-8.152,151.941-4.526Zm27.708-10.327a20.558,20.558,0,0,0-8.657,1.67,1.76,1.76,0,0,0-1.077,1.121q-.044,1.033-.352,3.757a19.313,19.313,0,0,0-.11,2.087q0,.22.1,1.461t.1,1.439a4.664,4.664,0,0,1-.857,2.878q-.176-.044-.967-.374a14.287,14.287,0,0,1-.857-5.164q0-.725.242-2.9.22-2.131.22-2.878a1.135,1.135,0,0,0-.461-.989,18.164,18.164,0,0,1-2.812.4q-.417.088-2.5.4-.374.044-1.362.154a3.6,3.6,0,0,0-1.077.7,1.181,1.181,0,0,0-.22.857v.154h-.967q-.33,0-1.373-.912t-1.044-1.176q0-1.362,4.834-2.021,5.911-.813,7.053-1.428.659-.4,1.45-8.679.4-4.087,1.626-10.481.11-.549.352-1.692.088-.242,1.538-.945l.374,2.7q-.11.549-.417,2.307l-.923,5.647q-.154.7-.352,2.7l-.374,7.844,8.877-.088ZM224.1-8.02A7.756,7.756,0,0,1,223.11-4q-.9,1.516-6.394,2.988A31.41,31.41,0,0,1,209.268.308a13.339,13.339,0,0,1-5.911-1.428q-3.538-1.758-3.538-4.373a3.337,3.337,0,0,1,1.34-2.373,35.34,35.34,0,0,0,3.582-3.23q1.582-1.934,5.8-3.12a24.446,24.446,0,0,1,6.658-1.011,7.114,7.114,0,0,1,2.5.725A7.966,7.966,0,0,1,221.99-13.1a9.249,9.249,0,0,1,1.362,2.45A7.7,7.7,0,0,1,224.1-8.02ZM221.858-8.2a4.03,4.03,0,0,0-1.956-3.1,5.856,5.856,0,0,0-3.56-1.384q-.33,0-5.12.945a8.92,8.92,0,0,0-3.362,1.428q-5.186,3.691-5.186,5.1,0,1.187,2.834,2.153a12.7,12.7,0,0,0,3.933.835,30.99,30.99,0,0,0,6.35-.923,10.242,10.242,0,0,0,5.317-2.527A3.544,3.544,0,0,0,221.858-8.2Zm43.594-22.192v-.022a6.7,6.7,0,0,0-.352,1.165q-3.845-5.361-11.052-5.361a13.267,13.267,0,0,0-5.164,1.165,9.667,9.667,0,0,0-4.263,3.01,25.043,25.043,0,0,0-2.966,6.174,21.212,21.212,0,0,0-1.582,6.57,28.752,28.752,0,0,0,.286,2.9q.286,2.4.33,2.834a2.856,2.856,0,0,0,1.472.769,5.9,5.9,0,0,0,1.055-.22q.857-.22.9-.22,1.692-.176,7.427-.176,3.757,0,7.141.22a2.63,2.63,0,0,0-.945.593l.066.615-8.152.483a15.791,15.791,0,0,0-7.646,2.021,29.535,29.535,0,0,0,2.834,6.13V-.527a.869.869,0,0,1-.835.4q-.593,0-3.032-3.977-2.483-3.955-3.032-3.955a19.761,19.761,0,0,0-3.647.483q-.725.176-2.9.967a13.789,13.789,0,0,1-2.5.813,3.989,3.989,0,0,1-2.659-1.494v-.088a1.439,1.439,0,0,1,.923-1.406q2.549-1.187,10.151-1.89a2.344,2.344,0,0,0,.659-.659,43.068,43.068,0,0,1-.308-5.076q0-8.569,3.757-14.216,4.285-6.5,12.458-6.5a17.293,17.293,0,0,1,7.207,1.582Q265.452-33.552,265.452-30.388ZM310.562.483q0,1.56-1.978,1.56a3.377,3.377,0,0,1-1.055-.11Q300.19-5.581,293.2-5.581a34.906,34.906,0,0,0-6.46,1.23,4.609,4.609,0,0,0-2.725,2.659q-.286.527-1.538,3.691a7.731,7.731,0,0,1-1.406.791,2.479,2.479,0,0,1-.7-1.868,21.211,21.211,0,0,1,2.065-8.789q.527-.835,1.538-2.571l3.977-8.723q4.856-10.5,9.207-17.886l.022.681q1.033-.483,1.56-2.615.483-1.912,1.45-1.912a.4.4,0,0,1,.242-.066q.637,0,1.011,1.033.066.264.615,2.593,2,8.459,4.153,19.644l1.318,6.855q.483.945,1.252,2.813.352,1.165,1.033,4.263A28.342,28.342,0,0,1,310.562.483ZM306.3-3.34v-1.3q0-.879-1.252-7.515l-2.153-11.4a65.348,65.348,0,0,0-3.142-11.1q-2.812,2.966-7.581,14.172L290.7-17.073q-.527.747-.923,1.4a37.486,37.486,0,0,0-1.626,3.615,20.55,20.55,0,0,0-1.3,3.516q0,.681.352.681l6.174-.264q.4-.022.791-.022a15.908,15.908,0,0,1,6.064,1.165A36.351,36.351,0,0,1,306.3-3.34Zm33.508-9.712q-2.856,1.252-9.1,3.252-5.867,1.89-7.119,2.329-5.273,1.956-6.24,3.208a.964.964,0,0,0,.505.879q1.121.637,4.724.637a38.117,38.117,0,0,0,5.779-.967q6.064-1.274,11.118-2.659a2.438,2.438,0,0,1-1.143,1.846,58.643,58.643,0,0,1-6.79,2.241,48.574,48.574,0,0,1-6.987,1.8q-.308,0-2.054.143T320.449-.2a11.462,11.462,0,0,1-4.043-.857q-2.7-1.033-2.7-2.549a2.951,2.951,0,0,1,1.208-2.7q.2-.11,2.725-1.274a44.7,44.7,0,0,1,8.877-3.142,17.66,17.66,0,0,0,3.12-1.1,27.521,27.521,0,0,1,3.076-1.252l2.5-.483a4.246,4.246,0,0,0,2.2-1.23q-.615-7.8-.615-19.226,0-6.5,1.011-6.855a3,3,0,0,1,1.077.681,3.914,3.914,0,0,1,.505,2.021v-.066q-.022,0-.022,5.054l.022,14.788A35.816,35.816,0,0,0,339.807-13.052Zm27.136-1.626q-1.648.747-4,2.087-.2.11-3.032,2.988-9.8,9.932-12,9.932-.505,0-1.89-2.307a21.08,21.08,0,0,1-1.56-2.856q-.33-.989-1.23-3.538a9.883,9.883,0,0,0-1.934-3.252v-1.846a6.283,6.283,0,0,0,1.143-.308q0-.022-.066-.022.461,0,3.329,5.076t3.461,5.076q.747,0,4.922-3.977,4.7-4.5,5.317-4.922,2.878-2.021,5.735-3.8h1.45l.352.33ZM389.158-1.165a2.627,2.627,0,0,1-2.109.967H379.27a25.514,25.514,0,0,1-6.021-.813q-4.351-1.055-4.922-2.659a10.338,10.338,0,0,1-.637-3.45,5.669,5.669,0,0,1,2.856-5.1,10.747,10.747,0,0,1,5.889-1.538,7.878,7.878,0,0,1,4.746,1.285,4.111,4.111,0,0,1,1.758,3.5q0,1.23-4.219,2.7a17.365,17.365,0,0,1-5.076,1.252,2.509,2.509,0,0,1-.352-.022q0,.308-.483.747.264.439,2.571,1.011a13.837,13.837,0,0,0,2.944.527h6.987q0,.022,2.637.4A3.472,3.472,0,0,1,389.158-1.165ZM380.1-9.932a5.36,5.36,0,0,0-3.955-1.252,8.371,8.371,0,0,0-3.538.747Q370.5-9.47,370.5-7.822a.9.9,0,0,0,.4.835H372.3a18.1,18.1,0,0,0,4.043-1.252A17.643,17.643,0,0,0,380.1-9.932Zm30.322-1.934q0,.461-.461,5.251-.4,3.977-.967,8.657-.044.352-.7.352-.857,0-1.406-2.153a12.07,12.07,0,0,1-.417-2.922,34.839,34.839,0,0,1,.56-3.472q.56-2.988.56-3.45,0-1.3-.7-1.3a11.677,11.677,0,0,0-3.845,1.56,32.951,32.951,0,0,0-3.713,2.219,31.861,31.861,0,0,0-5.032,4.9q-.461.527-1.8,2.021a2.985,2.985,0,0,1-2.087.571V-1.1q0-1.033,4.043-4.548a59.275,59.275,0,0,1,6.768-5.1q4.966-3.23,7.383-3.23a1.65,1.65,0,0,1,1.23.7A2.188,2.188,0,0,1,410.427-11.865Zm26.345-2.988a20.558,20.558,0,0,0-8.657,1.67,1.76,1.76,0,0,0-1.077,1.121q-.044,1.033-.352,3.757a19.313,19.313,0,0,0-.11,2.087q0,.22.1,1.461t.1,1.439a4.664,4.664,0,0,1-.857,2.878q-.176-.044-.967-.374a14.287,14.287,0,0,1-.857-5.164q0-.725.242-2.9.22-2.131.22-2.878a1.135,1.135,0,0,0-.461-.989,18.164,18.164,0,0,1-2.812.4q-.417.088-2.5.4-.374.044-1.362.154a3.6,3.6,0,0,0-1.077.7,1.181,1.181,0,0,0-.22.857v.154h-.967q-.33,0-1.373-.912t-1.044-1.176q0-1.362,4.834-2.021,5.911-.813,7.053-1.428.659-.4,1.45-8.679.4-4.087,1.626-10.481.11-.549.352-1.692.088-.242,1.538-.945l.374,2.7q-.11.549-.417,2.307l-.923,5.647q-.154.7-.352,2.7l-.374,7.844,8.877-.088Zm22.874,2.461q0,.923-3.34,4.614a35.9,35.9,0,0,1-4.373,4.307q-.725.527-3.1,2.285A11.943,11.943,0,0,1,445.8.2a11.361,11.361,0,0,1-3.274.681q-2.241,0-3.713-2.878a10.584,10.584,0,0,1-1.208-4.9,11.713,11.713,0,0,1,.879-4.329,1.054,1.054,0,0,0,.681-.308,7.055,7.055,0,0,1,1.143.923,24.548,24.548,0,0,0-.22,3.032q0,5.317,3.45,5.317,3.34,0,8.02-4.153.747-.659,7.031-6.57h.352Q459.646-12.986,459.646-12.393Zm19.819,1.011-.7.637a12.937,12.937,0,0,0-3.582-.725H475q-1.648.088-2.417.088H470.83q-.044,0-1.538.483a20.261,20.261,0,0,0-2.791.483,5.771,5.771,0,0,0-3.516,4.57,12.653,12.653,0,0,0-.242,2.285q0,.264.022.527.176,2.439.176,2.878a13.321,13.321,0,0,1-1.626.264,4.529,4.529,0,0,1-.615-1.648q0-.242.11-1.252.066-1.011.066-1.362A22.378,22.378,0,0,1,462.5-10.5a4.77,4.77,0,0,1,1.582-1.868q2.241-1.538,8.284-1.538,6.064.022,7.1,1.6ZM503.438-1.165a2.627,2.627,0,0,1-2.109.967H493.55a25.514,25.514,0,0,1-6.021-.813q-4.351-1.055-4.922-2.659a10.338,10.338,0,0,1-.637-3.45,5.669,5.669,0,0,1,2.856-5.1,10.747,10.747,0,0,1,5.889-1.538,7.878,7.878,0,0,1,4.746,1.285,4.111,4.111,0,0,1,1.758,3.5q0,1.23-4.219,2.7a17.365,17.365,0,0,1-5.076,1.252,2.509,2.509,0,0,1-.352-.022q0,.308-.483.747.264.439,2.571,1.011a13.837,13.837,0,0,0,2.944.527h6.987q0,.022,2.637.4A3.472,3.472,0,0,1,503.438-1.165Zm-9.053-8.767a5.36,5.36,0,0,0-3.955-1.252,8.371,8.371,0,0,0-3.538.747q-2.109.967-2.109,2.615a.9.9,0,0,0,.4.835h1.406a18.1,18.1,0,0,0,4.043-1.252A17.643,17.643,0,0,0,494.385-9.932Z" transform="translate(-1.89 40.957)" fill="#4378a7"/>
</svg>
